#VRML V2.0 utf8
# 3D model generated by easyeda2kicad.py (https://github.com/uPesy/easyeda2kicad.py)

Shape{
    appearance Appearance {
        material  Material 	{
            diffuseColor 0.8509803921568627 0.8509803921568627 0.8509803921568627
            specularColor 0.4235294117647059 0.4235294117647059 0.4235294117647059
            ambientIntensity 0.2
            transparency 0
            shininess 0.5
        }
    }
    geometry IndexedFaceSet {
        ccw TRUE
        solid FALSE
        coord DEF co Coordinate {
            point [
                0.796 -0.8761 0.3543, 0.796 -0.0138 0.3543, 0.7446 -0.0138 0.3543, 0.796 1.1417 0.3543, 0.7446 1.1417 0.3543, 1.1417 -0.0138 0.3543, 1.1417 1.1417 0.3543, 0.948 1.1417 0.3543, 0.8571 -1.0149 0.3543, 0.8559 -1.015 0.3543, 0.8687 -1.015 0.3543, 0.8301 -0.93 0.3543, 0.8267 -0.9303 0.3543, 0.8443 -0.9303 0.3543, 0.6983 -0.9181 0.3543, 0.7086 -0.9268 0.3543, 0.7446 -0.8761 0.3543, 0.7446 -0.9303 0.3543, 0.6483 -0.8708 0.3543, 0.656 -0.8761 0.3543, 0.6647 -0.8819 0.3543, 0.6773 -0.8965 0.3543, 0.6852 -0.9119 0.3543, 0.687 -0.9125 0.3543, 0.6293 -0.864 0.3543, 0.6131 -0.8622 0.3543, 0.5943 -0.8645 0.3543, 0.5768 -0.8712 0.3543, -0.1632 -0.0138 0.3543, 0.569 -0.8761 0.3543, -0.1632 -0.8761 0.3543, 0.5675 -0.877 0.3543, 0.5271 -0.8948 0.3543, 0.5421 -0.8929 0.3543, 0.5586 -0.8846 0.3543, 0.5464 -0.8932 0.3543, 0.5508 -0.8937 0.3543, 0.4984 -0.9111 0.3543, 0.501 -0.9087 0.3543, 0.5131 -0.9002 0.3543, -0.1632 -0.9303 0.3543, -0.1632 -0.946 0.3543, 0.4816 -0.946 0.3543, 0.4833 -0.9365 0.3543, 0.486 -0.9303 0.3543, 0.4893 -0.9228 0.3543, 0.5221 -1.0126 0.3543, 0.5084 -1.0059 0.3543, -0.1632 -1.015 0.3543, 0.4965 -0.9958 0.3543, 0.4879 -0.9834 0.3543, 0.4824 -0.9693 0.3543, 0.4806 -0.9544 0.3543, 0.4807 -0.9508 0.3543, 0.5269 -1.014 0.3543, 0.5274 -1.015 0.3543, 0.5307 -1.0222 0.3543, 0.5364 -1.0291 0.3543, 0.5787 -1.0362 0.3543, 0.5722 -1.0387 0.3543, 0.7446 -1.1417 0.3543, 0.563 -1.0398 0.3543, 0.5615 -1.0398 0.3543, -0.1632 -1.1417 0.3543, 0.5525 -1.0384 0.3543, -0.1632 -1.0362 0.3543, 0.5473 -1.0362 0.3543, 0.5438 -1.0347 0.3543, 0.5985 -1.015 0.3543, 0.5985 -1.0152 0.3543, 0.7446 -1.0362 0.3543, 0.594 -1.0237 0.3543, 0.5882 -1.0302 0.3543, 0.5806 -1.0354 0.3543, 0.721 -0.9492 0.3543, 0.7227 -0.9616 0.3543, 0.7446 -0.946 0.3543, 0.647 -0.9926 0.3543, 0.6496 -0.9916 0.3543, 0.654 -0.97 0.3543, 0.7087 -0.9977 0.3543, 0.6984 -1.0064 0.3543, 0.7446 -1.015 0.3543, 0.5914 -0.9764 0.3543, 0.6423 -0.9499 0.3543, 0.5848 -0.9704 0.3543, 0.5767 -0.9661 0.3543, 0.6446 -0.9943 0.3543, 0.7162 -0.9872 0.3543, 0.699 -0.9586 0.3543, 0.6972 -0.9514 0.3543, 0.6943 -0.946 0.3543, 0.5055 -0.946 0.3543, 0.721 -0.9752 0.3543, 0.6525 -0.9912 0.3543, 0.6529 -0.9913 0.3543, 0.654 -0.9915 0.3543, 0.5077 -0.9688 0.3543, 0.5122 -0.9765 0.3543, 0.5315 -0.9804 0.3543, 0.519 -0.9835 0.3543, 0.5273 -0.9886 0.3543, 0.5455 -0.9679 0.3543, 0.5377 -0.9732 0.3543, 0.5045 -0.9537 0.3543, 0.505 -0.9595 0.3543, 0.5539 -0.9646 0.3543, 0.563 -0.9635 0.3543, 0.5676 -0.9638 0.3543, 0.6408 -1.003 0.3543, 0.6409 -1.0015 0.3543, 0.6009 -0.9981 0.3543, 0.6416 -0.9986 0.3543, 0.6431 -0.996 0.3543, 0.6915 -0.9821 0.3543, 0.6957 -0.9762 0.3543, 0.6983 -0.9694 0.3543, 0.6992 -0.962 0.3543, 0.6496 -1.0144 0.3543, 0.6471 -1.0134 0.3543, 0.6447 -1.0117 0.3543, 0.6438 -1.0108 0.3543, 0.6421 -1.0084 0.3543, 0.6411 -1.0058 0.3543, 0.6007 -1.0058 0.3543, 0.6009 -1.0019 0.3543, 0.6868 -1.0121 0.3543, 0.6742 -1.0148 0.3543, 0.6518 -1.0148 0.3543, 0.6548 -0.9916 0.3543, 0.6719 -0.9916 0.3543, 0.6787 -0.9903 0.3543, 0.6854 -0.9872 0.3543, 0.691 -0.9826 0.3543, 0.6666 -0.9324 0.3543, 0.5089 -0.936 0.3543, 0.5056 -0.9445 0.3543, 0.6696 -0.9324 0.3543, 0.6937 -0.9448 0.3543, 0.6893 -0.94 0.3543, 0.6835 -0.9358 0.3543, 0.6768 -0.9333 0.3543, 0.6584 -0.9096 0.3543, 0.6498 -0.8993 0.3543, 0.5626 -0.9214 0.3543, 0.6489 -0.8985 0.3543, 0.6382 -0.8911 0.3543, 0.5684 -0.9094 0.3543, 0.5128 -0.9303 0.3543, 0.5599 -0.9199 0.3543, 0.6661 -0.9303 0.3543, 0.6642 -0.9218 0.3543, 0.5514 -0.9168 0.3543, 0.5425 -0.9157 0.3543, 0.5385 -0.9159 0.3543, 0.5769 -0.8992 0.3543, 0.6263 -0.8865 0.3543, 0.5871 -0.8918 0.3543, 0.6134 -0.885 0.3543, 0.5995 -0.8868 0.3543, 0.5291 -0.9181 0.3543, 0.5207 -0.9226 0.3543, 0.5142 -0.9284 0.3543, 0.7111 -0.9303 0.3543, 0.7164 -0.9376 0.3543, 0.7197 -0.946 0.3543, 0.9676 -0.9153 0.3543, 0.948 -0.9153 0.3543, 0.9731 -0.9299 0.3543, 0.948 -0.9303 0.3543, 0.9807 -0.9299 0.3543, 1.1417 -0.9303 0.3543, 1.1417 -0.8761 0.3543, 0.9604 -0.8765 0.3543, 0.948 -0.8761 0.3543, 0.9454 -0.9153 0.3543, 0.9403 -0.9299 0.3543, 0.9312 -0.9303 0.3543, 0.9327 -0.9299 0.3543, 0.9312 -0.8761 0.3543, 0.948 -0.8895 0.3543, 0.953 -0.8765 0.3543, 0.8687 -0.9058 0.3543, 0.8543 -0.9058 0.3543, 0.8687 -0.9238 0.3543, 0.8543 -0.9238 0.3543, 0.8812 -0.8761 0.3543, 0.8687 -0.8761 0.3543, 0.8749 -0.8765 0.3543, 0.8687 -0.8765 0.3543, 0.8749 -0.8827 0.3543, 0.8761 -0.9238 0.3543, 0.8812 -0.9303 0.3543, 0.8761 -0.9299 0.3543, 0.8687 -0.9303 0.3543, 0.8734 -0.9058 0.3543, 0.8734 -0.8997 0.3543, 0.8687 -0.8997 0.3543, 0.8687 -0.8827 0.3543, 0.8543 -0.8827 0.3543, 0.8543 -0.8997 0.3543, 0.8474 -0.8765 0.3543, 0.8443 -0.8761 0.3543, 0.8474 -0.9299 0.3543, 0.8368 -0.8778 0.3543, 0.8319 -0.8763 0.3543, 0.8294 -0.8761 0.3543, 0.8687 -0.9299 0.3543, 0.8368 -0.885 0.3543, 0.823 -0.9246 0.3543, 0.8262 -0.9245 0.3543, 0.8358 -0.9281 0.3543, 0.8321 -0.9232 0.3543, 0.8368 -0.9211 0.3543, 0.8368 -0.9277 0.3543, 0.8299 -0.8824 0.3543, 0.8242 -0.8818 0.3543, 0.8096 -0.8878 0.3543, 0.8092 -0.8882 0.3543, 0.8067 -0.8919 0.3543, 0.8049 -0.8965 0.3543, 0.804 -0.9038 0.3543, 0.804 -0.9046 0.3543, 0.8049 -0.911 0.3543, 0.8105 -0.9202 0.3543, 0.814 -0.9227 0.3543, 0.8179 -0.9241 0.3543, 0.8354 -0.8843 0.3543, 0.8221 -0.8819 0.3543, 0.8174 -0.8828 0.3543, 0.8132 -0.8848 0.3543, 0.8066 -0.9154 0.3543, 0.8093 -0.919 0.3543, 0.8109 -0.8787 0.3543, 0.8164 -0.8765 0.3543, 0.7992 -0.8761 0.3543, 0.8204 -0.8761 0.3543, 0.7992 -0.0138 0.3543, 0.8241 -0.8756 0.3543, 0.8443 -0.0138 0.3543, 0.8251 -0.8756 0.3543, 0.7984 -0.8936 0.3543, 0.7992 -0.8918 0.3543, 0.8011 -0.8878 0.3543, 0.8045 -0.8835 0.3543, 0.8057 -0.8823 0.3543, 0.7992 -0.9163 0.3543, 0.7978 -0.9128 0.3543, 0.796 -0.9303 0.3543, 0.7968 -0.9042 0.3543, 0.797 -0.9003 0.3543, 0.8125 -0.9293 0.3543, 0.8075 -0.9268 0.3543, 0.7992 -0.9303 0.3543, 0.8036 -0.9235 0.3543, 0.8032 -0.923 0.3543, 0.8 -0.9184 0.3543, 0.8171 -0.9303 0.3543, 0.7992 -0.946 0.3543, 0.8182 -0.9306 0.3543, 0.822 -0.9308 0.3543, 0.8443 -0.946 0.3543, 0.9107 -0.8761 0.3543, 0.9107 -0.8778 0.3543, 0.9161 -0.8798 0.3543, 0.928 -0.9129 0.3543, 0.9252 -0.9183 0.3543, 0.9216 -0.8836 0.3543, 0.9236 -0.8855 0.3543, 0.9269 -0.8901 0.3543, 0.9107 -0.9285 0.3543, 0.9107 -0.9303 0.3543, 0.916 -0.9264 0.3543, 0.9216 -0.9224 0.3543, 0.9288 -0.8952 0.3543, 0.9297 -0.9025 0.3543, 0.9294 -0.9068 0.3543, 0.9015 -0.8765 0.3543, 0.9096 -0.8774 0.3543, 0.9099 -0.9288 0.3543, 0.9009 -0.9299 0.3543, 0.8862 -0.9299 0.3543, 0.8862 -0.8765 0.3543, 0.8198 -1.0141 0.3543, 0.8173 -1.015 0.3543, 0.8255 -1.0146 0.3543, 0.8042 -0.9965 0.3543, 0.8053 -0.9856 0.3543, 0.8027 -0.9987 0.3543, 0.8019 -1.0011 0.3543, 0.8222 -1.0125 0.3543, 0.8097 -1.015 0.3543, 0.8071 -1.014 0.3543, 0.7992 -1.015 0.3543, 0.8251 -0.9767 0.3543, 0.8424 -0.9822 0.3543, 0.8436 -0.9804 0.3543, 0.8062 -0.9947 0.3543, 0.809 -0.9932 0.3543, 0.8096 -0.9829 0.3543, 0.8142 -0.9919 0.3543, 0.8201 -0.9812 0.3543, 0.8178 -0.981 0.3543, 0.8138 -0.9814 0.3543, 0.8048 -1.0125 0.3543, 0.8041 -1.0117 0.3543, 0.8027 -1.0097 0.3543, 0.8274 -0.978 0.3543, 0.8292 -0.9796 0.3543, 0.8416 -0.9843 0.3543, 0.8305 -0.9817 0.3543, 0.8316 -0.9847 0.3543, 0.8053 -0.9791 0.3543, 0.8075 -0.9779 0.3543, 0.8255 -1.0087 0.3543, 0.8253 -1.0087 0.3543, 0.8243 -1.0103 0.3543, 0.8019 -1.0074 0.3543, 0.8016 -1.0044 0.3543, 0.8127 -0.9762 0.3543, 0.8184 -0.9756 0.3543, 0.8223 -0.9759 0.3543, 0.8432 -0.9928 0.3543, 0.8423 -0.9914 0.3543, 0.8322 -0.99 0.3543, 0.8416 -0.9893 0.3543, 0.8413 -0.9867 0.3543, 0.8255 -0.9903 0.3543, 0.8253 -0.9874 0.3543, 0.8246 -0.985 0.3543, 0.8238 -0.9836 0.3543, 0.8443 -0.9939 0.3543, 0.8413 -1.0063 0.3543, 0.8443 -0.9939 0.3543, 0.8436 -1.0078 0.3543, 0.8443 -1.0081 0.3543, 0.8228 -0.9825 0.3543, 0.8216 -0.9818 0.3543, 0.8171 -1.0151 0.3543, 0.8443 -1.0362 0.3543, 0.7992 -1.0362 0.3543, 0.8137 -1.0155 0.3543, 0.8098 -1.015 0.3543, 0.8413 -1.0132 0.3543, 0.8322 -1.0146 0.3543, 0.8443 -1.0143 0.3543, 0.8443 -1.015 0.3543, 0.8457 -1.0148 0.3543, 0.8475 -1.015 0.3543, 0.8516 -1.0155 0.3543, 0.8687 -1.0362 0.3543, 0.8652 -0.9773 0.3543, 0.8652 -0.9838 0.3543, 0.8456 -0.9786 0.3543, 0.8474 -0.9775 0.3543, 0.8667 -1.0069 0.3543, 0.8659 -1.009 0.3543, 0.8646 -1.0108 0.3543, 0.8443 -0.9797 0.3543, 0.8511 -0.9761 0.3543, 0.8561 -0.9756 0.3543, 0.8687 -0.946 0.3543, 0.8604 -0.9759 0.3543, 0.8648 -0.9979 0.3543, 0.866 -0.9997 0.3543, 0.8667 -1.0017 0.3543, 0.867 -1.0042 0.3543, 0.8627 -1.0124 0.3543, 0.8607 -1.0136 0.3543, 0.8555 -0.981 0.3543, 0.8535 -0.9812 0.3543, 0.8482 -0.9861 0.3543, 0.8517 -0.9816 0.3543, 0.8502 -0.9824 0.3543, 0.8482 -0.987 0.3543, 0.8485 -0.9881 0.3543, 0.849 -0.989 0.3543, 0.8496 -0.9897 0.3543, 0.852 -0.9912 0.3543, 0.8602 -0.9816 0.3543, 0.8561 -0.993 0.3543, 0.8639 -0.983 0.3543, 0.8587 -0.994 0.3543, 0.8632 -0.9965 0.3543, 0.8492 -0.9833 0.3543, 0.8486 -0.9842 0.3543, 0.8483 -0.9851 0.3543, 0.8478 -1.0094 0.3543, 0.8514 -0.9978 0.3543, 0.8474 -0.996 0.3543, 0.8523 -1.01 0.3543, 0.8525 -1.01 0.3543, 0.8558 -0.9997 0.3543, 0.856 -1.0096 0.3543, 0.8601 -1.0049 0.3543, 0.8601 -1.004 0.3543, 0.8577 -1.009 0.3543, 0.8583 -1.0086 0.3543, 0.8591 -1.0079 0.3543, 0.8597 -1.0071 0.3543, 0.86 -1.0061 0.3543, 0.8598 -1.003 0.3543, 0.8593 -1.0021 0.3543, 0.8584 -1.0012 0.3543, 0.9001 -0.9764 0.3543, 0.9071 -0.9764 0.3543, 0.9107 -0.946 0.3543, 0.8879 -1.0051 0.3543, 0.8887 -1.0082 0.3543, 0.8889 -1.0082 0.3543, 0.8812 -0.946 0.3543, 0.8812 -0.9857 0.3543, 0.8897 -1.0052 0.3543, 0.8892 -1.0069 0.3543, 0.8812 -1.0037 0.3543, 0.8705 -0.9764 0.3543, 0.878 -0.9764 0.3543, 0.8852 -1.015 0.3543, 0.8854 -1.0145 0.3543, 0.8812 -1.0238 0.3543, 0.8812 -1.0238 0.3543, 0.8812 -1.015 0.3543, 0.8825 -1.0214 0.3543, 0.8719 -1.026 0.3543, 0.8719 -1.032 0.3543, 0.8732 -1.0265 0.3543, 0.8757 -1.0268 0.3543, 0.8773 -1.0266 0.3543, 0.8812 -1.0313 0.3543, 0.8789 -1.0322 0.3543, 0.8812 -1.0362 0.3543, 0.8762 -1.0325 0.3543, 0.8747 -1.0325 0.3543, 0.8787 -1.0261 0.3543, 0.88 -1.0252 0.3543, 0.8898 -1.0203 0.3543, 0.8868 -1.0262 0.3543, 0.9107 -1.0362 0.3543, 0.8919 -1.015 0.3543, 0.8843 -1.0292 0.3543, 0.8838 -1.0296 0.3543, 0.8815 -1.0312 0.3543, 0.9312 -0.9905 0.3543, 0.9212 -0.9905 0.3543, 0.9312 -1.0085 0.3543, 0.9212 -1.0085 0.3543, 0.9418 -0.9612 0.3543, 0.9418 -0.9673 0.3543, 0.948 -0.946 0.3543, 0.943 -1.0085 0.3543, 0.948 -1.015 0.3543, 0.943 -1.0146 0.3543, 0.9312 -1.015 0.3543, 0.9403 -0.9905 0.3543, 0.9403 -0.9844 0.3543, 0.9312 -0.9844 0.3543, 0.9312 -0.9673 0.3543, 0.9212 -0.9673 0.3543, 0.9212 -0.9844 0.3543, 0.9312 -1.0146 0.3543, 0.9143 -1.0146 0.3543, 0.9107 -1.015 0.3543, 0.9143 -0.9612 0.3543, 0.9312 -0.9612 0.3543, 0.9312 -0.946 0.3543, 0.948 -0.0138 0.3543, 0.9312 1.1417 0.3543, 0.9312 -0.0138 0.3543, 0.9107 1.1417 0.3543, 0.9107 -0.0138 0.3543, 0.8812 1.1417 0.3543, 0.8812 -0.0138 0.3543, 0.8687 1.1417 0.3543, 0.8687 -0.0138 0.3543, 0.8443 1.1417 0.3543, 0.7992 1.1417 0.3543, -0.1632 1.1417 0.3543, -0.8069 0.9331 0.3543, -0.8103 0.9076 0.3543, -0.8357 1.0027 0.3543, -0.8201 0.9823 0.3543, -0.8103 0.9586 0.3543, -0.8201 0.8839 0.3543, -0.8357 0.8635 0.3543, -0.8561 0.8479 0.3543, -1.0004 0.9586 0.3543, -0.9906 0.9823 0.3543, -1.1417 1.1417 0.3543, -0.8799 0.838 0.3543, -0.9053 0.8347 0.3543, -1.1417 -0.0138 0.3543, -0.9749 1.0027 0.3543, -0.9546 1.0183 0.3543, -0.9308 1.0282 0.3543, -0.9053 1.0315 0.3543, -0.8799 1.0282 0.3543, -0.8561 1.0183 0.3543, -0.9308 0.838 0.3543, -0.9546 0.8479 0.3543, -0.9749 0.8635 0.3543, -0.9906 0.8839 0.3543, -1.0004 0.9076 0.3543, -1.0038 0.9331 0.3543, 0.7946 -0.9238 0.3543, 0.7946 -0.9299 0.3543, 0.7665 -0.9299 0.3543, 0.7665 -0.8765 0.3543, 0.7733 -0.8765 0.3543, 0.7733 -0.9238 0.3543, 0.796 -0.946 0.3543, 1.0071 -1.0146 0.3543, 0.9995 -1.0146 0.3543, 1.0399 -1.0146 0.3543, 1.0345 -1.0 0.3543, 1.0122 -1.0 0.3543, 1.0475 -1.0146 0.3543, 1.1417 -1.015 0.3543, 1.0272 -0.9612 0.3543, 1.1417 -0.946 0.3543, 0.9948 -0.9976 0.3543, 0.9963 -0.9915 0.3543, 1.0198 -0.9612 0.3543, 0.9965 -0.9872 0.3543, 0.9957 -0.9799 0.3543, 0.992 -1.003 0.3543, 0.9885 -1.0071 0.3543, 0.9829 -1.0111 0.3543, 0.9531 -0.9612 0.3543, 0.9531 -1.0146 0.3543, 0.9678 -1.0146 0.3543, 0.9768 -1.0135 0.3543, 0.9885 -0.9683 0.3543, 0.9904 -0.9701 0.3543, 0.9937 -0.9748 0.3543, 0.9683 -0.9612 0.3543, 0.9765 -0.9621 0.3543, 0.9829 -0.9644 0.3543, 0.796 -1.015 0.3543, 0.7665 -1.0146 0.3543, 0.7952 -1.0146 0.3543, 0.7952 -1.0085 0.3543, 0.7939 -0.9673 0.3543, 0.7665 -0.9612 0.3543, 0.7939 -0.9612 0.3543, 0.7733 -0.9905 0.3543, 0.7733 -1.0085 0.3543, 0.7924 -0.9905 0.3543, 0.7924 -0.9844 0.3543, 0.7733 -0.9844 0.3543, 0.7733 -0.9673 0.3543, 0.9312 -1.0362 0.3543, 0.948 -1.0362 0.3543, 1.1417 -1.0362 0.3543, 0.796 -1.0362 0.3543, 0.796 -1.1417 0.3543, 0.7992 -1.1417 0.3543, 0.8443 -1.1417 0.3543, 0.8687 -1.1417 0.3543, 0.8812 -1.1417 0.3543, 0.9107 -1.1417 0.3543, 0.9312 -1.1417 0.3543, 0.948 -1.1417 0.3543, 1.1417 -1.1417 0.3543, -1.1417 -0.8761 0.3543, -1.1417 -0.9303 0.3543, -1.1417 -0.946 0.3543, -1.1417 -1.015 0.3543, -1.1417 -1.0362 0.3543, -1.1417 -1.1417 0.3543, -1.1417 -1.1417 0.3543
            ]
        }
        coordIndex [
            0,1,2,-1,1,3,4,-1,5,6,7,-1,8,9,10,-1,11,12,13,-1,14,15,16,-1,16,15,17,-1,18,19,16,-1,16,19,20,-1,16,20,21,-1,21,22,16,-1,16,22,23,-1,16,23,14,-1,24,2,25,-1,25,2,26,-1,26,2,27,-1,27,2,28,-1,27,28,29,-1,29,28,30,-1,29,30,31,-1,30,32,31,-1,31,32,33,-1,31,33,34,-1,34,33,35,-1,34,35,36,-1,37,38,30,-1,30,38,39,-1,30,39,32,-1,40,41,42,-1,42,43,40,-1,40,43,44,-1,40,44,30,-1,30,44,45,-1,30,45,37,-1,46,47,48,-1,48,47,49,-1,48,49,50,-1,50,51,48,-1,48,51,52,-1,48,52,41,-1,41,52,53,-1,41,53,42,-1,54,46,55,-1,55,46,48,-1,55,48,56,-1,56,48,57,-1,58,59,60,-1,59,61,60,-1,60,61,62,-1,60,62,63,-1,63,62,64,-1,63,64,65,-1,65,64,66,-1,65,66,48,-1,48,66,67,-1,48,67,57,-1,68,69,70,-1,70,69,71,-1,71,72,70,-1,70,72,73,-1,70,73,58,-1,74,75,76,-1,77,78,79,-1,80,81,82,-1,83,84,85,-1,85,84,86,-1,77,79,87,-1,80,82,88,-1,89,90,84,-1,84,90,91,-1,84,91,92,-1,76,75,82,-1,82,75,93,-1,82,93,88,-1,78,94,79,-1,79,94,95,-1,79,95,96,-1,97,98,99,-1,99,98,100,-1,99,100,101,-1,102,92,103,-1,103,92,104,-1,103,104,99,-1,99,104,105,-1,99,105,97,-1,102,106,92,-1,92,106,107,-1,92,107,84,-1,84,107,108,-1,84,108,86,-1,109,110,111,-1,111,110,112,-1,111,112,79,-1,79,112,113,-1,79,113,87,-1,114,115,79,-1,79,115,116,-1,79,116,84,-1,84,116,117,-1,84,117,89,-1,118,119,68,-1,68,119,120,-1,68,120,121,-1,121,122,68,-1,68,122,123,-1,68,123,124,-1,124,123,109,-1,124,109,125,-1,125,109,111,-1,81,126,82,-1,82,126,127,-1,82,127,68,-1,68,127,128,-1,68,128,118,-1,96,129,79,-1,79,129,130,-1,79,130,131,-1,131,132,79,-1,79,132,133,-1,79,133,114,-1,134,135,136,-1,136,92,134,-1,134,92,91,-1,134,91,137,-1,137,91,138,-1,138,139,137,-1,137,139,140,-1,137,140,141,-1,142,143,144,-1,143,145,144,-1,144,145,146,-1,144,146,147,-1,148,144,149,-1,135,134,148,-1,148,134,150,-1,148,150,144,-1,144,150,151,-1,144,151,142,-1,149,152,148,-1,148,152,153,-1,148,153,154,-1,147,146,155,-1,155,146,156,-1,155,156,157,-1,157,156,158,-1,157,158,159,-1,160,161,154,-1,154,161,162,-1,154,162,148,-1,15,163,17,-1,17,163,164,-1,17,164,76,-1,76,164,165,-1,76,165,74,-1,166,167,168,-1,168,167,169,-1,168,169,170,-1,171,172,173,-1,173,172,174,-1,167,175,169,-1,169,175,176,-1,169,176,177,-1,177,176,178,-1,177,178,179,-1,179,178,180,-1,179,180,174,-1,174,180,181,-1,174,181,173,-1,182,183,184,-1,184,183,185,-1,186,187,188,-1,188,187,189,-1,188,190,186,-1,186,190,191,-1,186,191,192,-1,192,191,193,-1,192,193,194,-1,182,184,195,-1,195,184,191,-1,195,191,196,-1,196,191,190,-1,196,190,197,-1,190,198,197,-1,197,198,199,-1,197,199,200,-1,189,187,201,-1,201,187,202,-1,201,202,203,-1,204,202,205,-1,205,202,206,-1,193,207,194,-1,194,207,203,-1,194,203,13,-1,13,203,202,-1,13,202,208,-1,208,202,204,-1,209,210,208,-1,11,13,211,-1,210,212,208,-1,208,212,213,-1,208,213,13,-1,13,213,214,-1,13,214,211,-1,215,216,217,-1,218,219,208,-1,208,219,220,-1,220,221,208,-1,208,221,222,-1,208,222,223,-1,224,225,208,-1,208,225,226,-1,208,226,209,-1,218,208,217,-1,217,208,227,-1,217,227,215,-1,216,228,217,-1,217,228,229,-1,217,229,230,-1,223,231,208,-1,208,231,232,-1,208,232,224,-1,233,234,235,-1,235,234,236,-1,235,236,237,-1,237,236,238,-1,237,238,239,-1,239,238,240,-1,239,240,206,-1,241,242,235,-1,235,242,243,-1,243,244,235,-1,235,244,245,-1,235,245,233,-1,246,247,248,-1,248,247,249,-1,249,250,0,-1,251,252,253,-1,252,254,253,-1,253,254,255,-1,253,255,256,-1,251,253,257,-1,257,253,258,-1,257,258,259,-1,259,258,260,-1,260,258,261,-1,260,261,12,-1,262,263,179,-1,179,263,264,-1,177,265,266,-1,264,267,179,-1,179,267,268,-1,179,268,269,-1,270,271,272,-1,272,271,177,-1,272,177,273,-1,273,177,266,-1,269,274,179,-1,179,274,275,-1,179,275,177,-1,177,275,276,-1,177,276,265,-1,186,277,262,-1,262,277,278,-1,262,278,263,-1,270,279,271,-1,271,279,280,-1,271,280,192,-1,192,280,281,-1,192,281,186,-1,186,281,282,-1,186,282,277,-1,283,284,285,-1,286,287,288,-1,288,287,289,-1,283,285,290,-1,291,292,293,-1,294,295,296,-1,286,297,287,-1,287,297,298,-1,287,298,299,-1,299,298,300,-1,301,302,300,-1,300,302,303,-1,300,303,299,-1,292,304,293,-1,293,304,305,-1,293,305,306,-1,294,307,295,-1,295,307,308,-1,295,308,309,-1,309,308,310,-1,309,310,311,-1,258,312,313,-1,314,315,285,-1,285,315,316,-1,285,316,290,-1,306,317,293,-1,293,317,318,-1,293,318,258,-1,258,318,289,-1,258,289,312,-1,312,289,287,-1,313,319,258,-1,258,319,320,-1,258,320,321,-1,322,323,324,-1,324,323,325,-1,324,325,311,-1,311,325,326,-1,311,326,309,-1,327,328,300,-1,300,328,329,-1,300,329,330,-1,331,332,333,-1,333,332,334,-1,333,334,335,-1,330,336,300,-1,300,336,337,-1,300,337,301,-1,284,338,339,-1,339,338,340,-1,340,338,341,-1,340,341,342,-1,331,322,332,-1,332,322,324,-1,332,324,343,-1,343,324,344,-1,343,344,345,-1,345,344,346,-1,345,346,347,-1,347,346,348,-1,349,348,339,-1,339,348,346,-1,339,346,284,-1,284,346,344,-1,284,344,285,-1,349,339,9,-1,9,339,350,-1,9,350,10,-1,351,352,10,-1,353,354,261,-1,355,356,10,-1,10,356,357,-1,321,294,258,-1,258,294,296,-1,258,296,261,-1,261,296,358,-1,261,358,353,-1,354,359,261,-1,261,359,360,-1,261,360,361,-1,361,360,362,-1,361,362,351,-1,363,364,352,-1,352,364,365,-1,352,365,10,-1,10,365,366,-1,10,366,355,-1,357,367,10,-1,10,367,368,-1,10,368,8,-1,369,370,371,-1,371,370,372,-1,371,372,373,-1,371,374,369,-1,369,374,375,-1,369,375,376,-1,376,377,369,-1,369,377,378,-1,369,378,379,-1,379,378,380,-1,379,380,381,-1,381,380,382,-1,381,382,352,-1,352,382,383,-1,352,383,363,-1,384,385,373,-1,373,385,386,-1,373,386,371,-1,387,388,335,-1,335,388,389,-1,335,389,333,-1,387,390,388,-1,388,390,391,-1,388,391,392,-1,392,391,393,-1,392,394,395,-1,393,396,392,-1,392,396,397,-1,392,397,398,-1,398,399,392,-1,392,399,400,-1,392,400,394,-1,395,401,392,-1,392,401,402,-1,392,402,403,-1,404,405,406,-1,407,408,409,-1,406,410,404,-1,404,410,411,-1,404,411,412,-1,412,411,407,-1,412,407,413,-1,413,407,409,-1,414,415,10,-1,351,10,361,-1,361,10,415,-1,361,415,410,-1,410,415,416,-1,410,416,411,-1,417,418,414,-1,419,420,421,-1,421,420,422,-1,421,422,417,-1,417,414,421,-1,421,414,10,-1,421,10,423,-1,423,10,350,-1,423,350,424,-1,423,425,421,-1,421,425,426,-1,421,426,427,-1,428,429,430,-1,430,429,431,-1,430,431,350,-1,350,431,432,-1,350,432,424,-1,427,433,421,-1,421,433,434,-1,421,434,419,-1,435,436,437,-1,435,437,438,-1,436,439,437,-1,437,439,440,-1,437,440,430,-1,430,440,441,-1,430,441,428,-1,442,443,444,-1,444,443,445,-1,446,447,448,-1,448,447,449,-1,448,449,450,-1,450,449,451,-1,450,451,452,-1,442,444,453,-1,453,444,449,-1,453,449,454,-1,454,449,447,-1,454,447,455,-1,447,456,455,-1,455,456,457,-1,455,457,458,-1,451,459,452,-1,452,459,460,-1,452,460,461,-1,461,460,462,-1,446,448,463,-1,463,448,464,-1,463,464,462,-1,462,464,406,-1,462,406,461,-1,461,406,405,-1,461,405,438,-1,5,7,465,-1,465,7,466,-1,465,466,467,-1,467,466,468,-1,467,468,469,-1,469,468,470,-1,469,470,471,-1,471,470,472,-1,471,472,473,-1,473,472,474,-1,473,474,239,-1,239,474,475,-1,239,475,237,-1,476,477,478,-1,479,480,476,-1,476,480,481,-1,476,481,477,-1,482,483,28,-1,28,483,484,-1,485,486,487,-1,1,4,2,-1,2,4,476,-1,2,476,28,-1,28,476,478,-1,28,478,482,-1,488,489,490,-1,486,491,487,-1,487,491,492,-1,487,492,493,-1,493,494,487,-1,487,494,495,-1,487,495,476,-1,476,495,496,-1,476,496,479,-1,489,497,490,-1,490,497,498,-1,490,498,499,-1,499,500,490,-1,490,500,501,-1,490,501,487,-1,487,501,502,-1,487,502,485,-1,206,202,239,-1,239,202,187,-1,239,187,473,-1,473,187,186,-1,473,186,471,-1,471,186,262,-1,471,262,469,-1,469,262,179,-1,469,179,467,-1,467,179,174,-1,467,174,465,-1,465,174,172,-1,465,172,5,-1,475,3,237,-1,237,3,1,-1,237,1,235,-1,235,1,0,-1,235,0,241,-1,241,0,250,-1,249,0,248,-1,248,0,503,-1,248,503,504,-1,17,505,16,-1,16,505,506,-1,16,506,507,-1,508,503,507,-1,507,503,0,-1,507,0,16,-1,16,0,2,-1,16,2,18,-1,18,2,24,-1,12,261,13,-1,13,261,361,-1,13,361,194,-1,194,361,410,-1,194,410,192,-1,192,410,406,-1,192,406,271,-1,271,406,464,-1,271,464,177,-1,177,464,448,-1,177,448,169,-1,504,505,248,-1,248,505,17,-1,248,17,509,-1,509,17,76,-1,510,511,450,-1,512,513,514,-1,514,510,512,-1,512,510,450,-1,512,450,515,-1,515,450,516,-1,515,516,517,-1,517,516,518,-1,519,511,520,-1,520,511,521,-1,520,521,522,-1,522,521,523,-1,519,524,511,-1,511,524,525,-1,511,525,526,-1,527,448,528,-1,528,448,450,-1,528,450,529,-1,529,450,511,-1,529,511,530,-1,530,511,526,-1,173,170,171,-1,171,170,169,-1,171,169,518,-1,518,169,448,-1,518,448,517,-1,517,448,521,-1,531,532,521,-1,521,532,533,-1,521,533,523,-1,527,534,448,-1,448,534,535,-1,448,535,521,-1,521,535,536,-1,521,536,531,-1,256,246,253,-1,253,246,248,-1,253,248,258,-1,258,248,509,-1,258,509,293,-1,293,509,537,-1,82,537,538,-1,538,537,539,-1,539,537,540,-1,540,537,509,-1,540,509,541,-1,82,538,76,-1,76,538,542,-1,76,542,509,-1,509,542,543,-1,509,543,541,-1,544,545,546,-1,546,545,540,-1,546,540,547,-1,547,540,541,-1,547,541,548,-1,548,541,549,-1,438,437,461,-1,461,437,550,-1,461,550,452,-1,452,550,551,-1,452,551,450,-1,450,551,552,-1,450,552,516,-1,68,70,82,-1,82,70,553,-1,82,553,537,-1,537,553,340,-1,537,340,293,-1,293,340,342,-1,293,342,291,-1,58,60,70,-1,70,60,554,-1,70,554,553,-1,553,554,555,-1,553,555,340,-1,340,555,556,-1,340,556,339,-1,339,556,557,-1,339,557,350,-1,350,557,558,-1,350,558,430,-1,430,558,559,-1,430,559,437,-1,437,559,560,-1,437,560,550,-1,550,560,561,-1,550,561,551,-1,551,561,562,-1,551,562,552,-1,484,488,28,-1,28,488,490,-1,28,490,30,-1,30,490,563,-1,30,563,40,-1,40,563,564,-1,40,564,41,-1,41,564,565,-1,41,565,48,-1,48,565,566,-1,48,566,65,-1,65,566,567,-1,65,567,63,-1,63,567,568,-1,
        ]
    }
}
Shape{
    appearance Appearance {
        material  Material 	{
            diffuseColor 0.0 0.10588235294117647 0.8431372549019608
            specularColor 0.0 0.050980392156862744 0.4235294117647059
            ambientIntensity 0.2
            transparency 0
            shininess 0.5
        }
    }
    geometry IndexedFaceSet {
        ccw TRUE
        solid FALSE
        coord DEF co Coordinate {
            point [
                1.378 -1.0039 0.0, 1.378 -1.378 0.0, 1.2992 -1.2992 0.0, 1.1024 -1.2992 0.0, 1.0039 -1.378 0.0, 1.1024 -1.0039 0.0, 1.2992 -1.0039 0.0, 1.2992 -0.9055 0.0, 1.378 -0.0 0.0, 1.0039 -0.0 0.0, 0.7579 1.1024 0.0, 0.9055 1.1024 0.0, 0.9055 0.9055 0.0, 0.9055 1.2992 0.0, 0.7579 1.378 0.0, 1.0039 1.2992 0.0, 1.0039 1.378 0.0, 1.2992 1.2992 0.0, 1.378 1.378 0.0, 1.2992 1.1024 0.0, 1.378 1.1024 0.0, 1.2992 0.9055 0.0, 1.0039 0.9055 0.0, 0.7579 -0.0 0.0, -1.378 1.1024 0.0, -1.2992 1.1024 0.0, -1.2992 0.9055 0.0, -1.0039 0.9055 0.0, -1.0039 -0.0 0.0, -1.378 -0.0 0.0, -1.2992 1.2992 0.0, -1.378 1.378 0.0, -1.0039 1.2992 0.0, -1.0039 1.378 0.0, -0.9055 1.2992 0.0, -0.7579 1.378 0.0, -0.9055 1.1024 0.0, -0.7579 1.1024 0.0, -0.9055 0.9055 0.0, -0.7579 -0.0 0.0, -0.0492 1.1024 0.0, 0.1181 1.1024 0.0, 0.1181 0.9055 0.0, 0.1181 1.2992 0.0, -0.0492 1.378 0.0, 0.1673 1.2992 0.0, 0.1673 1.378 0.0, 0.5118 1.2992 0.0, 0.5118 1.1024 0.0, 0.5118 0.9055 0.0, 0.1673 0.9055 0.0, 0.1673 -0.0 0.0, -0.0492 -0.0 0.0, -1.0039 -1.0039 0.0, -1.1024 -1.0039 0.0, -1.1024 -0.9055 0.0, -1.1024 -1.2992 0.0, -1.0039 -1.378 0.0, -1.2992 -1.2992 0.0, -1.378 -1.378 0.0, -1.2992 -1.0039 0.0, -1.378 -1.0039 0.0, -1.2992 -0.9055 0.0, 0.7579 -1.378 0.0, 0.7579 -1.0039 0.0, 1.0039 -1.0039 0.0, 1.1024 -0.9055 0.0, 0.2165 -1.1024 0.0, 0.2165 -1.2992 0.0, 0.1673 -1.378 0.0, 0.6102 -1.2992 0.0, 0.6102 -1.1024 0.0, 0.1673 -1.0039 0.0, -0.0492 -1.378 0.0, -0.0492 -1.0039 0.0, -0.2165 -1.1024 0.0, -0.2165 -1.2992 0.0, -0.6102 -1.2992 0.0, -0.7579 -1.378 0.0, -0.6102 -1.1024 0.0, -0.7579 -1.0039 0.0, 1.378 -1.378 0.2362, 1.378 1.378 0.2362, -1.378 1.378 0.2362, -1.378 -1.378 0.2362, 1.2569 1.168 0.2362, 1.2598 1.1417 0.2362, -1.2341 -1.2154 0.2362, -1.2481 -1.193 0.2362, 1.2154 -1.2341 0.2362, 1.193 -1.2481 0.2362, -1.2569 1.168 0.2362, -1.2481 1.193 0.2362, 1.2569 -1.168 0.2362, 1.2481 -1.193 0.2362, 1.2341 -1.2154 0.2362, -1.2341 1.2154 0.2362, -1.2154 1.2341 0.2362, -1.193 1.2481 0.2362, 1.2598 -1.1417 0.2362, -1.168 -1.2569 0.2362, -1.193 -1.2481 0.2362, -1.2154 -1.2341 0.2362, 1.168 1.2569 0.2362, 1.193 1.2481 0.2362, 1.2154 1.2341 0.2362, -1.2569 -1.168 0.2362, -1.2598 -1.1417 0.2362, -1.2598 1.1417 0.2362, 1.2341 1.2154 0.2362, 1.2481 1.193 0.2362, 1.168 -1.2569 0.2362, 1.1417 -1.2598 0.2362, -1.1417 -1.2598 0.2362, -1.168 1.2569 0.2362, -1.1417 1.2598 0.2362, 1.1417 1.2598 0.2362, 1.1417 1.2598 0.2362
            ]
        }
        coordIndex [
            0,1,2,-1,2,1,3,-1,3,1,4,-1,3,4,5,-1,2,6,0,-1,0,6,7,-1,0,7,8,-1,8,7,9,-1,10,11,12,-1,11,10,13,-1,13,10,14,-1,13,14,15,-1,15,14,16,-1,15,16,17,-1,17,16,18,-1,17,18,19,-1,19,18,20,-1,19,20,21,-1,21,20,8,-1,21,8,22,-1,22,8,9,-1,22,9,12,-1,12,9,23,-1,12,23,10,-1,24,25,26,-1,27,28,26,-1,26,28,29,-1,26,29,24,-1,25,24,30,-1,30,24,31,-1,30,31,32,-1,32,31,33,-1,32,33,34,-1,34,33,35,-1,34,35,36,-1,36,35,37,-1,36,37,38,-1,38,37,39,-1,38,39,27,-1,40,41,42,-1,41,40,43,-1,43,40,44,-1,43,44,45,-1,45,44,46,-1,45,46,47,-1,47,46,14,-1,47,14,48,-1,48,14,10,-1,48,10,49,-1,49,10,23,-1,49,23,50,-1,50,23,51,-1,50,51,42,-1,42,51,52,-1,42,52,40,-1,53,54,55,-1,54,53,56,-1,56,53,57,-1,56,57,58,-1,58,57,59,-1,58,59,60,-1,60,59,61,-1,60,61,62,-1,62,61,29,-1,62,29,55,-1,55,29,28,-1,55,28,53,-1,63,64,4,-1,4,64,65,-1,4,65,5,-1,5,65,66,-1,67,68,69,-1,69,68,63,-1,63,68,70,-1,63,70,64,-1,64,70,71,-1,64,71,72,-1,73,74,69,-1,69,74,72,-1,69,72,67,-1,67,72,71,-1,75,74,76,-1,76,74,73,-1,76,73,77,-1,77,73,78,-1,77,78,79,-1,79,78,80,-1,79,80,75,-1,74,52,72,-1,72,52,51,-1,72,51,64,-1,64,51,23,-1,64,23,65,-1,65,23,9,-1,65,9,66,-1,66,9,7,-1,27,39,28,-1,28,39,80,-1,28,80,53,-1,53,80,78,-1,53,78,57,-1,75,80,74,-1,74,80,39,-1,74,39,52,-1,52,39,37,-1,52,37,40,-1,40,37,35,-1,40,35,44,-1,1,0,81,-1,81,0,8,-1,81,8,82,-1,82,8,20,-1,82,20,18,-1,33,31,83,-1,18,16,82,-1,82,16,14,-1,14,46,82,-1,82,46,44,-1,82,44,83,-1,83,44,35,-1,83,35,33,-1,31,24,83,-1,83,24,29,-1,83,29,84,-1,84,29,61,-1,84,61,59,-1,84,59,57,-1,69,81,73,-1,73,81,84,-1,73,84,78,-1,78,84,57,-1,69,63,81,-1,81,63,4,-1,81,4,1,-1,85,86,82,-1,87,88,84,-1,89,90,81,-1,91,92,83,-1,93,94,81,-1,81,94,95,-1,81,95,89,-1,92,96,83,-1,83,96,97,-1,83,97,98,-1,82,86,81,-1,81,86,99,-1,81,99,93,-1,100,101,84,-1,84,101,102,-1,84,102,87,-1,103,104,82,-1,82,104,105,-1,88,106,84,-1,84,106,107,-1,84,107,83,-1,83,107,108,-1,83,108,91,-1,105,109,82,-1,82,109,110,-1,82,110,85,-1,90,111,81,-1,81,111,112,-1,81,112,84,-1,84,112,113,-1,84,113,100,-1,98,114,83,-1,83,114,115,-1,83,115,82,-1,82,115,116,-1,82,116,103,-1,
        ]
    }
}
Shape{
    appearance Appearance {
        material  Material 	{
            diffuseColor 0.8509803921568627 0.8509803921568627 0.8509803921568627
            specularColor 0.4235294117647059 0.4235294117647059 0.4235294117647059
            ambientIntensity 0.2
            transparency 0
            shininess 0.5
        }
    }
    geometry IndexedFaceSet {
        ccw TRUE
        solid FALSE
        coord DEF co Coordinate {
            point [
                1.1417 1.1417 0.3543, 1.1417 -1.1417 0.3543, 1.1723 -1.1417 0.3503, 1.1723 1.1417 0.3503, 1.2008 -1.1417 0.3385, 1.2008 1.1417 0.3385, 1.2252 -1.1417 0.3197, 1.2252 1.1417 0.3197, 1.244 -1.1417 0.2953, 1.244 1.1417 0.2953, 1.2558 -1.1417 0.2668, 1.2558 1.1417 0.2668, 1.2598 -1.1417 0.2362, 1.2598 1.1417 0.2362, 1.1786 1.1879 0.3385, 1.1608 1.1656 0.3503, 1.1656 1.1608 0.3503, 1.1715 1.1485 0.3503, 1.1693 1.155 0.3503, 1.155 1.1693 0.3503, 1.1674 1.1949 0.3385, 1.178 1.217 0.3197, 1.1485 1.1715 0.3503, 1.1879 1.1786 0.3385, 1.1949 1.1674 0.3385, 1.1993 1.1549 0.3385, 1.1549 1.1993 0.3385, 1.1603 1.2232 0.3197, 1.1645 1.2415 0.2953, 1.1417 1.1723 0.3503, 1.1938 1.207 0.3197, 1.207 1.1938 0.3197, 1.217 1.178 0.3197, 1.2232 1.1603 0.3197, 1.1417 1.2008 0.3385, 1.1417 1.2252 0.3197, 1.1417 1.244 0.2953, 1.1417 1.2558 0.2668, 1.1861 1.2339 0.2953, 1.2055 1.2217 0.2953, 1.2217 1.2055 0.2953, 1.2339 1.1861 0.2953, 1.2415 1.1645 0.2953, 1.1671 1.253 0.2668, 1.1912 1.2445 0.2668, 1.2129 1.2309 0.2668, 1.2309 1.2129 0.2668, 1.2445 1.1912 0.2668, 1.253 1.1671 0.2668, 1.1417 1.2598 0.2362, 1.168 1.2569 0.2362, 1.193 1.2481 0.2362, 1.2154 1.2341 0.2362, 1.2341 1.2154 0.2362, 1.2481 1.193 0.2362, 1.2569 1.168 0.2362, 1.1879 -1.1786 0.3385, 1.1656 -1.1608 0.3503, 1.1608 -1.1656 0.3503, 1.1485 -1.1715 0.3503, 1.155 -1.1693 0.3503, 1.1417 -1.1723 0.3503, 1.1693 -1.155 0.3503, 1.1949 -1.1674 0.3385, 1.217 -1.178 0.3197, 1.1715 -1.1485 0.3503, 1.1786 -1.1879 0.3385, 1.1674 -1.1949 0.3385, 1.1549 -1.1993 0.3385, 1.1417 -1.2008 0.3385, 1.1993 -1.1549 0.3385, 1.2232 -1.1603 0.3197, 1.2415 -1.1645 0.2953, 1.207 -1.1938 0.3197, 1.1938 -1.207 0.3197, 1.178 -1.217 0.3197, 1.1603 -1.2232 0.3197, 1.1417 -1.2252 0.3197, 1.2339 -1.1861 0.2953, 1.2217 -1.2055 0.2953, 1.2055 -1.2217 0.2953, 1.1861 -1.2339 0.2953, 1.1645 -1.2415 0.2953, 1.1417 -1.244 0.2953, 1.253 -1.1671 0.2668, 1.2445 -1.1912 0.2668, 1.2309 -1.2129 0.2668, 1.2129 -1.2309 0.2668, 1.1912 -1.2445 0.2668, 1.1671 -1.253 0.2668, 1.1417 -1.2558 0.2668, 1.2569 -1.168 0.2362, 1.2481 -1.193 0.2362, 1.2341 -1.2154 0.2362, 1.2154 -1.2341 0.2362, 1.193 -1.2481 0.2362, 1.168 -1.2569 0.2362, 1.1417 -1.2598 0.2362, -1.1417 1.1417 0.3543, -1.1417 1.1723 0.3503, -1.1417 1.2008 0.3385, -1.1417 1.2252 0.3197, -1.1417 1.244 0.2953, -1.1417 1.2558 0.2668, -1.1417 1.2598 0.2362, -1.1417 -1.1417 0.3543, -1.1417 -1.1723 0.3503, -1.1417 -1.2008 0.3385, -1.1417 -1.2252 0.3197, -1.1417 -1.244 0.2953, -1.1417 -1.2558 0.2668, -1.1417 -1.2598 0.2362, -1.1879 1.1786 0.3385, -1.1656 1.1608 0.3503, -1.1608 1.1656 0.3503, -1.1485 1.1715 0.3503, -1.155 1.1693 0.3503, -1.1693 1.155 0.3503, -1.1949 1.1674 0.3385, -1.217 1.178 0.3197, -1.1715 1.1485 0.3503, -1.1786 1.1879 0.3385, -1.1674 1.1949 0.3385, -1.1549 1.1993 0.3385, -1.1993 1.1549 0.3385, -1.2232 1.1603 0.3197, -1.2415 1.1645 0.2953, -1.1723 1.1417 0.3503, -1.207 1.1938 0.3197, -1.1938 1.207 0.3197, -1.178 1.217 0.3197, -1.1603 1.2232 0.3197, -1.2008 1.1417 0.3385, -1.2252 1.1417 0.3197, -1.244 1.1417 0.2953, -1.2558 1.1417 0.2668, -1.2339 1.1861 0.2953, -1.2217 1.2055 0.2953, -1.2055 1.2217 0.2953, -1.1861 1.2339 0.2953, -1.1645 1.2415 0.2953, -1.253 1.1671 0.2668, -1.2445 1.1912 0.2668, -1.2309 1.2129 0.2668, -1.2129 1.2309 0.2668, -1.1912 1.2445 0.2668, -1.1671 1.253 0.2668, -1.2598 1.1417 0.2362, -1.2569 1.168 0.2362, -1.2481 1.193 0.2362, -1.2341 1.2154 0.2362, -1.2154 1.2341 0.2362, -1.193 1.2481 0.2362, -1.168 1.2569 0.2362, -1.1786 -1.1879 0.3385, -1.1608 -1.1656 0.3503, -1.1656 -1.1608 0.3503, -1.1715 -1.1485 0.3503, -1.1693 -1.155 0.3503, -1.1723 -1.1417 0.3503, -1.155 -1.1693 0.3503, -1.1674 -1.1949 0.3385, -1.178 -1.217 0.3197, -1.1485 -1.1715 0.3503, -1.1879 -1.1786 0.3385, -1.1949 -1.1674 0.3385, -1.1993 -1.1549 0.3385, -1.2008 -1.1417 0.3385, -1.1549 -1.1993 0.3385, -1.1603 -1.2232 0.3197, -1.1645 -1.2415 0.2953, -1.1938 -1.207 0.3197, -1.207 -1.1938 0.3197, -1.217 -1.178 0.3197, -1.2232 -1.1603 0.3197, -1.2252 -1.1417 0.3197, -1.1861 -1.2339 0.2953, -1.2055 -1.2217 0.2953, -1.2217 -1.2055 0.2953, -1.2339 -1.1861 0.2953, -1.2415 -1.1645 0.2953, -1.244 -1.1417 0.2953, -1.1671 -1.253 0.2668, -1.1912 -1.2445 0.2668, -1.2129 -1.2309 0.2668, -1.2309 -1.2129 0.2668, -1.2445 -1.1912 0.2668, -1.253 -1.1671 0.2668, -1.2558 -1.1417 0.2668, -1.168 -1.2569 0.2362, -1.193 -1.2481 0.2362, -1.2154 -1.2341 0.2362, -1.2341 -1.2154 0.2362, -1.2481 -1.193 0.2362, -1.2569 -1.168 0.2362, -1.2598 -1.1417 0.2362, -1.2598 -1.1417 0.2362
            ]
        }
        coordIndex [
            0,1,2,-1,0,2,3,-1,3,2,4,-1,3,4,5,-1,5,4,6,-1,5,6,7,-1,7,6,8,-1,7,8,9,-1,9,8,10,-1,9,10,11,-1,11,10,12,-1,11,12,13,-1,14,15,16,-1,0,17,18,-1,3,17,0,-1,16,15,0,-1,19,0,15,-1,19,15,20,-1,20,15,14,-1,20,14,21,-1,22,0,19,-1,23,18,24,-1,24,18,17,-1,24,17,25,-1,25,17,3,-1,25,3,5,-1,22,19,26,-1,26,19,20,-1,26,20,27,-1,27,20,21,-1,27,21,28,-1,29,0,22,-1,30,23,31,-1,31,23,24,-1,31,24,32,-1,32,24,25,-1,32,25,33,-1,33,25,5,-1,33,5,7,-1,29,22,34,-1,34,22,26,-1,34,26,35,-1,35,26,27,-1,35,27,36,-1,36,27,28,-1,36,28,37,-1,38,30,39,-1,39,30,31,-1,39,31,40,-1,40,31,32,-1,40,32,41,-1,41,32,33,-1,41,33,42,-1,42,33,7,-1,42,7,9,-1,43,38,44,-1,44,38,39,-1,44,39,45,-1,45,39,40,-1,45,40,46,-1,46,40,41,-1,46,41,47,-1,47,41,42,-1,47,42,48,-1,48,42,9,-1,48,9,11,-1,49,43,50,-1,50,43,44,-1,50,44,51,-1,51,44,45,-1,51,45,52,-1,52,45,46,-1,52,46,53,-1,53,46,47,-1,53,47,54,-1,54,47,48,-1,54,48,55,-1,55,48,11,-1,55,11,13,-1,49,37,43,-1,43,37,28,-1,43,28,38,-1,38,28,21,-1,38,21,30,-1,30,21,14,-1,30,14,23,-1,23,14,16,-1,23,16,18,-1,18,16,0,-1,56,57,58,-1,1,59,60,-1,61,59,1,-1,58,57,1,-1,62,1,57,-1,62,57,63,-1,63,57,56,-1,63,56,64,-1,65,1,62,-1,66,60,67,-1,67,60,59,-1,67,59,68,-1,68,59,61,-1,68,61,69,-1,65,62,70,-1,70,62,63,-1,70,63,71,-1,71,63,64,-1,71,64,72,-1,2,1,65,-1,73,66,74,-1,74,66,67,-1,74,67,75,-1,75,67,68,-1,75,68,76,-1,76,68,69,-1,76,69,77,-1,2,65,4,-1,4,65,70,-1,4,70,6,-1,6,70,71,-1,6,71,8,-1,8,71,72,-1,8,72,10,-1,78,73,79,-1,79,73,74,-1,79,74,80,-1,80,74,75,-1,80,75,81,-1,81,75,76,-1,81,76,82,-1,82,76,77,-1,82,77,83,-1,84,78,85,-1,85,78,79,-1,85,79,86,-1,86,79,80,-1,86,80,87,-1,87,80,81,-1,87,81,88,-1,88,81,82,-1,88,82,89,-1,89,82,83,-1,89,83,90,-1,12,84,91,-1,91,84,85,-1,91,85,92,-1,92,85,86,-1,92,86,93,-1,93,86,87,-1,93,87,94,-1,94,87,88,-1,94,88,95,-1,95,88,89,-1,95,89,96,-1,96,89,90,-1,96,90,97,-1,12,10,84,-1,84,10,72,-1,84,72,78,-1,78,72,64,-1,78,64,73,-1,73,64,56,-1,73,56,66,-1,66,56,58,-1,66,58,60,-1,60,58,1,-1,98,0,29,-1,98,29,99,-1,99,29,34,-1,99,34,100,-1,100,34,35,-1,100,35,101,-1,101,35,36,-1,101,36,102,-1,102,36,37,-1,102,37,103,-1,103,37,49,-1,103,49,104,-1,1,105,106,-1,1,106,61,-1,61,106,107,-1,61,107,69,-1,69,107,108,-1,69,108,77,-1,77,108,109,-1,77,109,83,-1,83,109,110,-1,83,110,90,-1,90,110,111,-1,90,111,97,-1,112,113,114,-1,98,115,116,-1,99,115,98,-1,114,113,98,-1,117,98,113,-1,117,113,118,-1,118,113,112,-1,118,112,119,-1,120,98,117,-1,121,116,122,-1,122,116,115,-1,122,115,123,-1,123,115,99,-1,123,99,100,-1,120,117,124,-1,124,117,118,-1,124,118,125,-1,125,118,119,-1,125,119,126,-1,127,98,120,-1,128,121,129,-1,129,121,122,-1,129,122,130,-1,130,122,123,-1,130,123,131,-1,131,123,100,-1,131,100,101,-1,127,120,132,-1,132,120,124,-1,132,124,133,-1,133,124,125,-1,133,125,134,-1,134,125,126,-1,134,126,135,-1,136,128,137,-1,137,128,129,-1,137,129,138,-1,138,129,130,-1,138,130,139,-1,139,130,131,-1,139,131,140,-1,140,131,101,-1,140,101,102,-1,141,136,142,-1,142,136,137,-1,142,137,143,-1,143,137,138,-1,143,138,144,-1,144,138,139,-1,144,139,145,-1,145,139,140,-1,145,140,146,-1,146,140,102,-1,146,102,103,-1,147,141,148,-1,148,141,142,-1,148,142,149,-1,149,142,143,-1,149,143,150,-1,150,143,144,-1,150,144,151,-1,151,144,145,-1,151,145,152,-1,152,145,146,-1,152,146,153,-1,153,146,103,-1,153,103,104,-1,147,135,141,-1,141,135,126,-1,141,126,136,-1,136,126,119,-1,136,119,128,-1,128,119,112,-1,128,112,121,-1,121,112,114,-1,121,114,116,-1,116,114,98,-1,154,155,156,-1,105,157,158,-1,159,157,105,-1,156,155,105,-1,160,105,155,-1,160,155,161,-1,161,155,154,-1,161,154,162,-1,163,105,160,-1,164,158,165,-1,165,158,157,-1,165,157,166,-1,166,157,159,-1,166,159,167,-1,163,160,168,-1,168,160,161,-1,168,161,169,-1,169,161,162,-1,169,162,170,-1,106,105,163,-1,171,164,172,-1,172,164,165,-1,172,165,173,-1,173,165,166,-1,173,166,174,-1,174,166,167,-1,174,167,175,-1,106,163,107,-1,107,163,168,-1,107,168,108,-1,108,168,169,-1,108,169,109,-1,109,169,170,-1,109,170,110,-1,176,171,177,-1,177,171,172,-1,177,172,178,-1,178,172,173,-1,178,173,179,-1,179,173,174,-1,179,174,180,-1,180,174,175,-1,180,175,181,-1,182,176,183,-1,183,176,177,-1,183,177,184,-1,184,177,178,-1,184,178,185,-1,185,178,179,-1,185,179,186,-1,186,179,180,-1,186,180,187,-1,187,180,181,-1,187,181,188,-1,111,182,189,-1,189,182,183,-1,189,183,190,-1,190,183,184,-1,190,184,191,-1,191,184,185,-1,191,185,192,-1,192,185,186,-1,192,186,193,-1,193,186,187,-1,193,187,194,-1,194,187,188,-1,194,188,195,-1,111,110,182,-1,182,110,170,-1,182,170,176,-1,176,170,162,-1,176,162,171,-1,171,162,154,-1,171,154,164,-1,164,154,156,-1,164,156,158,-1,158,156,105,-1,105,98,127,-1,105,127,159,-1,159,127,132,-1,159,132,167,-1,167,132,133,-1,167,133,175,-1,175,133,134,-1,175,134,181,-1,181,134,135,-1,181,135,188,-1,188,135,147,-1,188,147,195,-1,
        ]
    }
}
Shape{
    appearance Appearance {
        material  Material 	{
            diffuseColor 1.0 1.0 0.5019607843137255
            specularColor 0.5019607843137255 0.5019607843137255 0.25098039215686274
            ambientIntensity 0.2
            transparency 0
            shininess 0.5
        }
    }
    geometry IndexedFaceSet {
        ccw TRUE
        solid FALSE
        coord DEF co Coordinate {
            point [
                -0.9055 0.9055 0.0, -0.9055 0.9055 -0.0039, -0.9055 1.1024 0.0, -0.9055 1.2992 -0.0039, -0.9055 1.2992 0.0, -1.2992 0.9055 0.0, -1.2992 0.9055 -0.0039, -1.0039 0.9055 0.0, -1.2992 1.2992 0.0, -1.2992 1.2992 -0.0039, -1.2992 1.1024 0.0, -1.0039 1.2992 0.0, 0.5118 0.9055 0.0, 0.5118 0.9055 -0.0039, 0.5118 1.1024 0.0, 0.5118 1.2992 -0.0039, 0.5118 1.2992 0.0, 0.1181 0.9055 0.0, 0.1181 0.9055 -0.0039, 0.1673 0.9055 0.0, 0.1181 1.2992 0.0, 0.1181 1.2992 -0.0039, 0.1181 1.1024 0.0, 0.1673 1.2992 0.0, 1.2992 0.9055 0.0, 1.2992 0.9055 -0.0039, 1.2992 1.1024 0.0, 1.2992 1.2992 -0.0039, 1.2992 1.2992 0.0, 0.9055 0.9055 0.0, 0.9055 0.9055 -0.0039, 1.0039 0.9055 0.0, 0.9055 1.2992 0.0, 0.9055 1.2992 -0.0039, 0.9055 1.1024 0.0, 1.0039 1.2992 0.0, -1.1024 -1.2992 0.0, -1.1024 -1.2992 -0.0039, -1.1024 -1.0039 0.0, -1.1024 -0.9055 -0.0039, -1.1024 -0.9055 0.0, -1.2992 -1.2992 -0.0039, -1.2992 -1.2992 0.0, -1.2992 -0.9055 0.0, -1.2992 -0.9055 -0.0039, -1.2992 -1.0039 0.0, -0.2165 -1.2992 -0.0039, -0.2165 -1.1024 -0.0039, -0.2165 -1.2992 0.0, -0.2165 -1.1024 0.0, -0.6102 -1.2992 -0.0039, -0.6102 -1.2992 0.0, -0.6102 -1.1024 -0.0039, -0.6102 -1.1024 0.0, 0.6102 -1.2992 -0.0039, 0.6102 -1.1024 -0.0039, 0.6102 -1.2992 0.0, 0.6102 -1.1024 0.0, 0.2165 -1.2992 -0.0039, 0.2165 -1.2992 0.0, 0.2165 -1.1024 -0.0039, 0.2165 -1.1024 0.0, 1.2992 -1.2992 0.0, 1.2992 -1.2992 -0.0039, 1.2992 -1.0039 0.0, 1.2992 -0.9055 -0.0039, 1.2992 -0.9055 0.0, 1.1024 -1.2992 -0.0039, 1.1024 -1.2992 0.0, 1.1024 -0.9055 0.0, 1.1024 -0.9055 -0.0039, 1.1024 -1.0039 0.0, 1.1024 -1.0039 0.0
            ]
        }
        coordIndex [
            0,1,2,-1,2,1,3,-1,2,3,4,-1,5,6,7,-1,7,6,1,-1,7,1,0,-1,8,9,10,-1,10,9,6,-1,10,6,5,-1,4,3,11,-1,11,3,9,-1,11,9,8,-1,6,9,1,-1,1,9,3,-1,12,13,14,-1,14,13,15,-1,14,15,16,-1,17,18,19,-1,19,18,13,-1,19,13,12,-1,20,21,22,-1,22,21,18,-1,22,18,17,-1,16,15,23,-1,23,15,21,-1,23,21,20,-1,18,21,13,-1,13,21,15,-1,24,25,26,-1,26,25,27,-1,26,27,28,-1,29,30,31,-1,31,30,25,-1,31,25,24,-1,32,33,34,-1,34,33,30,-1,34,30,29,-1,28,27,35,-1,35,27,33,-1,35,33,32,-1,30,33,25,-1,25,33,27,-1,36,37,38,-1,38,37,39,-1,38,39,40,-1,41,37,42,-1,42,37,36,-1,43,44,45,-1,45,44,41,-1,45,41,42,-1,39,44,40,-1,40,44,43,-1,41,44,37,-1,37,44,39,-1,46,47,48,-1,48,47,49,-1,50,46,51,-1,51,46,48,-1,52,50,53,-1,53,50,51,-1,47,52,49,-1,49,52,53,-1,50,52,46,-1,46,52,47,-1,54,55,56,-1,56,55,57,-1,58,54,59,-1,59,54,56,-1,60,58,61,-1,61,58,59,-1,55,60,57,-1,57,60,61,-1,58,60,54,-1,54,60,55,-1,62,63,64,-1,64,63,65,-1,64,65,66,-1,67,63,68,-1,68,63,62,-1,69,70,71,-1,71,70,67,-1,71,67,68,-1,65,70,66,-1,66,70,69,-1,67,70,63,-1,63,70,65,-1,
        ]
    }
}
Shape{
    appearance Appearance {
        material  Material 	{
            diffuseColor 0.0 0.0 0.0
            specularColor 0.0 0.0 0.0
            ambientIntensity 0.2
            transparency 0
            shininess 0.5
        }
    }
    geometry IndexedFaceSet {
        ccw TRUE
        solid FALSE
        coord DEF co Coordinate {
            point [
                -0.8069 0.9331 0.3504, -0.8069 0.9331 0.3543, -0.8103 0.9586 0.3504, -0.8103 0.9586 0.3543, -0.8201 0.9823 0.3504, -0.8201 0.9823 0.3543, -0.8357 1.0027 0.3504, -0.8357 1.0027 0.3543, -0.8561 1.0183 0.3504, -0.8561 1.0183 0.3543, -0.8799 1.0282 0.3504, -0.8799 1.0282 0.3543, -0.9053 1.0315 0.3504, -0.9053 1.0315 0.3543, -0.9308 1.0282 0.3504, -0.9308 1.0282 0.3543, -0.9546 1.0183 0.3504, -0.9546 1.0183 0.3543, -0.9749 1.0027 0.3504, -0.9749 1.0027 0.3543, -0.9906 0.9823 0.3504, -0.9906 0.9823 0.3543, -1.0004 0.9586 0.3504, -1.0004 0.9586 0.3543, -1.0038 0.9331 0.3504, -1.0038 0.9331 0.3543, -1.0004 0.9076 0.3504, -1.0004 0.9076 0.3543, -0.9906 0.8839 0.3504, -0.9906 0.8839 0.3543, -0.9749 0.8635 0.3504, -0.9749 0.8635 0.3543, -0.9546 0.8479 0.3504, -0.9546 0.8479 0.3543, -0.9308 0.838 0.3504, -0.9308 0.838 0.3543, -0.9053 0.8347 0.3504, -0.9053 0.8347 0.3543, -0.8799 0.838 0.3504, -0.8799 0.838 0.3543, -0.8561 0.8479 0.3504, -0.8561 0.8479 0.3543, -0.8357 0.8635 0.3504, -0.8357 0.8635 0.3543, -0.8201 0.8839 0.3504, -0.8201 0.8839 0.3543, -0.8103 0.9076 0.3504, -0.8103 0.9076 0.3543, -0.9053 0.9331 0.3504, 0.7946 -0.9238 0.3583, 0.7946 -0.9299 0.3583, 0.7946 -0.9238 0.3543, 0.7946 -0.9299 0.3543, 0.7733 -0.9238 0.3583, 0.7733 -0.9238 0.3543, 0.7733 -0.8765 0.3583, 0.7733 -0.8765 0.3543, 0.7665 -0.8765 0.3583, 0.7665 -0.8765 0.3543, 0.7665 -0.9299 0.3583, 0.7665 -0.9299 0.3543, 0.822 -0.9308 0.3583, 0.822 -0.9308 0.3543, 0.8301 -0.93 0.3583, 0.8267 -0.9303 0.3543, 0.8301 -0.93 0.3543, 0.8358 -0.9281 0.3543, 0.8358 -0.9281 0.3583, 0.8368 -0.9277 0.3543, 0.8368 -0.9277 0.3583, 0.8368 -0.9211 0.3583, 0.8368 -0.9211 0.3543, 0.8321 -0.9232 0.3543, 0.8321 -0.9232 0.3583, 0.8262 -0.9245 0.3543, 0.8262 -0.9245 0.3583, 0.823 -0.9246 0.3543, 0.823 -0.9246 0.3583, 0.8179 -0.9241 0.3543, 0.8179 -0.9241 0.3583, 0.814 -0.9227 0.3543, 0.814 -0.9227 0.3583, 0.8105 -0.9202 0.3543, 0.8105 -0.9202 0.3583, 0.8093 -0.919 0.3543, 0.8093 -0.919 0.3583, 0.8066 -0.9154 0.3543, 0.8066 -0.9154 0.3583, 0.8049 -0.911 0.3543, 0.8049 -0.911 0.3583, 0.804 -0.9046 0.3543, 0.804 -0.9046 0.3583, 0.804 -0.9038 0.3543, 0.804 -0.9038 0.3583, 0.8049 -0.8965 0.3543, 0.8049 -0.8965 0.3583, 0.8067 -0.8919 0.3543, 0.8067 -0.8919 0.3583, 0.8092 -0.8882 0.3543, 0.8092 -0.8882 0.3583, 0.8096 -0.8878 0.3543, 0.8096 -0.8878 0.3583, 0.8132 -0.8848 0.3543, 0.8132 -0.8848 0.3583, 0.8174 -0.8828 0.3543, 0.8174 -0.8828 0.3583, 0.8221 -0.8819 0.3543, 0.8221 -0.8819 0.3583, 0.8242 -0.8818 0.3543, 0.8242 -0.8818 0.3583, 0.8299 -0.8824 0.3543, 0.8299 -0.8824 0.3583, 0.8354 -0.8843 0.3543, 0.8354 -0.8843 0.3583, 0.8368 -0.885 0.3543, 0.8368 -0.885 0.3583, 0.8368 -0.8778 0.3583, 0.8368 -0.8778 0.3543, 0.8241 -0.8756 0.3543, 0.8241 -0.8756 0.3583, 0.8251 -0.8756 0.3583, 0.8319 -0.8763 0.3543, 0.8319 -0.8763 0.3583, 0.8294 -0.8761 0.3543, 0.8251 -0.8756 0.3543, 0.8204 -0.8761 0.3543, 0.8164 -0.8765 0.3583, 0.8164 -0.8765 0.3543, 0.8109 -0.8787 0.3543, 0.8109 -0.8787 0.3583, 0.8057 -0.8823 0.3543, 0.8057 -0.8823 0.3583, 0.8045 -0.8835 0.3543, 0.8045 -0.8835 0.3583, 0.8011 -0.8878 0.3543, 0.8011 -0.8878 0.3583, 0.7992 -0.8918 0.3543, 0.7984 -0.8936 0.3583, 0.7984 -0.8936 0.3543, 0.797 -0.9003 0.3543, 0.797 -0.9003 0.3583, 0.7968 -0.9042 0.3543, 0.7968 -0.9042 0.3583, 0.7978 -0.9128 0.3543, 0.7978 -0.9128 0.3583, 0.7992 -0.9163 0.3543, 0.8 -0.9184 0.3583, 0.8 -0.9184 0.3543, 0.8032 -0.923 0.3543, 0.8032 -0.923 0.3583, 0.8036 -0.9235 0.3543, 0.8036 -0.9235 0.3583, 0.8182 -0.9306 0.3583, 0.8075 -0.9268 0.3543, 0.8075 -0.9268 0.3583, 0.8125 -0.9293 0.3543, 0.8125 -0.9293 0.3583, 0.8171 -0.9303 0.3543, 0.8182 -0.9306 0.3543, 0.8761 -0.9238 0.3583, 0.8761 -0.9299 0.3583, 0.8761 -0.9238 0.3543, 0.8761 -0.9299 0.3543, 0.8543 -0.9238 0.3543, 0.8543 -0.9238 0.3583, 0.8687 -0.9238 0.3543, 0.8543 -0.9058 0.3583, 0.8543 -0.9058 0.3543, 0.8734 -0.9058 0.3583, 0.8687 -0.9058 0.3543, 0.8734 -0.9058 0.3543, 0.8734 -0.8997 0.3583, 0.8734 -0.8997 0.3543, 0.8543 -0.8997 0.3543, 0.8543 -0.8997 0.3583, 0.8687 -0.8997 0.3543, 0.8543 -0.8827 0.3583, 0.8543 -0.8827 0.3543, 0.8749 -0.8827 0.3583, 0.8687 -0.8827 0.3543, 0.8749 -0.8827 0.3543, 0.8749 -0.8765 0.3583, 0.8749 -0.8765 0.3543, 0.8474 -0.8765 0.3543, 0.8474 -0.8765 0.3583, 0.8687 -0.8765 0.3543, 0.8474 -0.9299 0.3583, 0.8474 -0.9299 0.3543, 0.8687 -0.9299 0.3543, 0.9195 -0.9148 0.3583, 0.9167 -0.9182 0.3583, 0.9216 -0.9224 0.3583, 0.9161 -0.9189 0.3583, 0.916 -0.9264 0.3583, 0.9126 -0.9212 0.3583, 0.9099 -0.9288 0.3583, 0.9082 -0.9229 0.3583, 0.9009 -0.9299 0.3583, 0.9009 -0.9238 0.3583, 0.8862 -0.9299 0.3583, 0.8931 -0.9238 0.3583, 0.8862 -0.8765 0.3583, 0.8931 -0.8827 0.3583, 0.9015 -0.8765 0.3583, 0.9012 -0.8827 0.3583, 0.9096 -0.8774 0.3583, 0.9081 -0.8834 0.3583, 0.9161 -0.8798 0.3583, 0.9127 -0.8851 0.3583, 0.9216 -0.8836 0.3583, 0.9166 -0.8877 0.3583, 0.9236 -0.8855 0.3583, 0.9185 -0.8896 0.3583, 0.9269 -0.8901 0.3583, 0.9205 -0.8928 0.3583, 0.9288 -0.8952 0.3583, 0.9219 -0.8969 0.3583, 0.9297 -0.9025 0.3583, 0.9224 -0.9027 0.3583, 0.9294 -0.9068 0.3583, 0.9223 -0.9059 0.3583, 0.928 -0.9129 0.3583, 0.9213 -0.9108 0.3583, 0.9252 -0.9183 0.3583, 0.9009 -0.9299 0.3543, 0.8862 -0.9299 0.3543, 0.9216 -0.9224 0.3543, 0.9099 -0.9288 0.3543, 0.9107 -0.9285 0.3543, 0.916 -0.9264 0.3543, 0.9252 -0.9183 0.3543, 0.928 -0.9129 0.3543, 0.9294 -0.9068 0.3543, 0.9297 -0.9025 0.3543, 0.9288 -0.8952 0.3543, 0.9269 -0.8901 0.3543, 0.9236 -0.8855 0.3543, 0.9216 -0.8836 0.3543, 0.9015 -0.8765 0.3543, 0.9161 -0.8798 0.3543, 0.9107 -0.8778 0.3543, 0.9096 -0.8774 0.3543, 0.8862 -0.8765 0.3543, 0.9012 -0.8827 0.3543, 0.8931 -0.8827 0.3543, 0.8931 -0.9238 0.3543, 0.9009 -0.9238 0.3543, 0.9167 -0.9182 0.3543, 0.9161 -0.9189 0.3543, 0.9126 -0.9212 0.3543, 0.9082 -0.9229 0.3543, 0.9224 -0.9027 0.3543, 0.9223 -0.9059 0.3543, 0.9213 -0.9108 0.3543, 0.9195 -0.9148 0.3543, 0.9166 -0.8877 0.3543, 0.9185 -0.8896 0.3543, 0.9205 -0.8928 0.3543, 0.9219 -0.8969 0.3543, 0.9081 -0.8834 0.3543, 0.9127 -0.8851 0.3543, 0.9127 -0.8851 0.3543
            ]
        }
        coordIndex [
            0,1,2,-1,2,1,3,-1,2,3,4,-1,4,3,5,-1,4,5,6,-1,6,5,7,-1,6,7,8,-1,8,7,9,-1,8,9,10,-1,10,9,11,-1,10,11,12,-1,12,11,13,-1,12,13,14,-1,14,13,15,-1,14,15,16,-1,16,15,17,-1,16,17,18,-1,18,17,19,-1,18,19,20,-1,20,19,21,-1,20,21,22,-1,22,21,23,-1,22,23,24,-1,24,23,25,-1,24,25,26,-1,26,25,27,-1,26,27,28,-1,28,27,29,-1,28,29,30,-1,30,29,31,-1,30,31,32,-1,32,31,33,-1,32,33,34,-1,34,33,35,-1,34,35,36,-1,36,35,37,-1,36,37,38,-1,38,37,39,-1,38,39,40,-1,40,39,41,-1,40,41,42,-1,42,41,43,-1,42,43,44,-1,44,43,45,-1,44,45,46,-1,46,45,47,-1,46,47,0,-1,0,47,1,-1,44,46,48,-1,48,46,0,-1,48,0,2,-1,38,40,48,-1,48,40,42,-1,48,42,44,-1,32,34,48,-1,48,34,36,-1,48,36,38,-1,26,28,48,-1,48,28,30,-1,48,30,32,-1,20,22,48,-1,48,22,24,-1,48,24,26,-1,14,16,48,-1,48,16,18,-1,48,18,20,-1,8,10,48,-1,48,10,12,-1,48,12,14,-1,2,4,48,-1,48,4,6,-1,48,6,8,-1,49,50,51,-1,51,50,52,-1,53,49,54,-1,54,49,51,-1,55,53,56,-1,56,53,54,-1,57,55,58,-1,58,55,56,-1,59,57,60,-1,60,57,58,-1,50,59,52,-1,52,59,60,-1,55,57,53,-1,53,57,59,-1,53,59,49,-1,49,59,50,-1,61,62,63,-1,63,62,64,-1,64,65,63,-1,63,65,66,-1,63,66,67,-1,67,66,68,-1,67,68,69,-1,70,69,71,-1,71,69,68,-1,70,71,72,-1,70,72,73,-1,73,72,74,-1,73,74,75,-1,75,74,76,-1,75,76,77,-1,77,76,78,-1,77,78,79,-1,79,78,80,-1,79,80,81,-1,81,80,82,-1,81,82,83,-1,83,82,84,-1,83,84,85,-1,85,84,86,-1,85,86,87,-1,87,86,88,-1,87,88,89,-1,89,88,90,-1,89,90,91,-1,91,90,92,-1,91,92,93,-1,93,92,94,-1,93,94,95,-1,95,94,96,-1,95,96,97,-1,97,96,98,-1,97,98,99,-1,99,98,100,-1,99,100,101,-1,101,100,102,-1,101,102,103,-1,103,102,104,-1,103,104,105,-1,105,104,106,-1,105,106,107,-1,107,106,108,-1,107,108,109,-1,109,108,110,-1,109,110,111,-1,111,110,112,-1,111,112,113,-1,113,112,114,-1,113,114,115,-1,116,115,117,-1,117,115,114,-1,118,119,120,-1,116,117,121,-1,116,121,122,-1,122,121,123,-1,122,123,120,-1,120,123,124,-1,120,124,118,-1,119,118,125,-1,119,125,126,-1,125,127,126,-1,126,127,128,-1,126,128,129,-1,129,128,130,-1,129,130,131,-1,131,130,132,-1,131,132,133,-1,133,132,134,-1,133,134,135,-1,135,134,136,-1,135,136,137,-1,136,138,137,-1,137,138,139,-1,137,139,140,-1,140,139,141,-1,140,141,142,-1,142,141,143,-1,142,143,144,-1,144,143,145,-1,144,145,146,-1,145,147,146,-1,146,147,148,-1,146,148,149,-1,149,148,150,-1,149,150,151,-1,62,61,152,-1,151,150,153,-1,151,153,154,-1,154,153,155,-1,154,155,156,-1,156,155,157,-1,156,157,152,-1,152,157,158,-1,152,158,62,-1,113,115,116,-1,103,105,126,-1,95,97,135,-1,126,105,119,-1,135,97,133,-1,113,116,111,-1,126,129,103,-1,103,129,131,-1,103,131,101,-1,101,131,133,-1,101,133,99,-1,99,133,97,-1,105,107,119,-1,119,107,109,-1,119,109,120,-1,120,109,111,-1,120,111,122,-1,122,111,116,-1,142,93,140,-1,140,93,95,-1,140,95,137,-1,137,95,135,-1,69,70,67,-1,67,70,73,-1,67,73,63,-1,63,73,75,-1,63,75,61,-1,61,75,77,-1,61,77,152,-1,152,77,79,-1,152,79,156,-1,156,79,81,-1,156,81,154,-1,154,81,83,-1,154,83,151,-1,151,83,85,-1,151,85,149,-1,149,85,87,-1,149,87,146,-1,146,87,144,-1,144,87,89,-1,144,89,142,-1,142,89,91,-1,142,91,93,-1,159,160,161,-1,161,160,162,-1,163,164,165,-1,165,164,159,-1,165,159,161,-1,166,164,167,-1,167,164,163,-1,166,167,168,-1,168,167,169,-1,168,169,170,-1,171,168,172,-1,172,168,170,-1,173,174,175,-1,175,174,171,-1,175,171,172,-1,176,174,177,-1,177,174,173,-1,176,177,178,-1,178,177,179,-1,178,179,180,-1,181,178,182,-1,182,178,180,-1,183,184,185,-1,185,184,181,-1,185,181,182,-1,186,184,187,-1,187,184,183,-1,186,187,160,-1,160,187,188,-1,160,188,162,-1,186,160,159,-1,159,164,186,-1,186,164,166,-1,186,166,184,-1,178,181,176,-1,176,181,184,-1,176,184,174,-1,174,184,166,-1,174,166,171,-1,171,166,168,-1,189,190,191,-1,191,190,192,-1,191,192,193,-1,193,192,194,-1,193,194,195,-1,195,194,196,-1,195,196,197,-1,197,196,198,-1,197,198,199,-1,199,198,200,-1,199,200,201,-1,201,200,202,-1,201,202,203,-1,203,202,204,-1,203,204,205,-1,205,204,206,-1,205,206,207,-1,207,206,208,-1,207,208,209,-1,209,208,210,-1,209,210,211,-1,211,210,212,-1,211,212,213,-1,213,212,214,-1,213,214,215,-1,215,214,216,-1,215,216,217,-1,217,216,218,-1,217,218,219,-1,219,218,220,-1,219,220,221,-1,221,220,222,-1,221,222,223,-1,223,222,189,-1,223,189,191,-1,197,199,224,-1,224,199,225,-1,226,191,193,-1,197,224,227,-1,197,227,195,-1,195,227,228,-1,195,228,193,-1,193,228,229,-1,193,229,226,-1,191,226,230,-1,191,230,223,-1,223,230,231,-1,223,231,221,-1,221,231,232,-1,221,232,219,-1,219,232,233,-1,219,233,217,-1,217,233,234,-1,217,234,215,-1,215,234,235,-1,215,235,213,-1,213,235,236,-1,213,236,211,-1,211,236,237,-1,211,237,209,-1,238,203,205,-1,209,237,239,-1,209,239,207,-1,207,239,240,-1,207,240,205,-1,205,240,241,-1,205,241,238,-1,201,203,242,-1,242,203,238,-1,199,201,225,-1,225,201,242,-1,204,202,243,-1,243,202,244,-1,202,200,244,-1,244,200,245,-1,200,198,245,-1,245,198,246,-1,190,247,248,-1,190,248,192,-1,192,248,249,-1,192,249,194,-1,194,249,250,-1,194,250,196,-1,196,250,246,-1,196,246,198,-1,218,251,252,-1,218,252,220,-1,220,252,253,-1,220,253,222,-1,222,253,254,-1,222,254,189,-1,189,254,247,-1,189,247,190,-1,210,255,256,-1,210,256,212,-1,212,256,257,-1,212,257,214,-1,214,257,258,-1,214,258,216,-1,216,258,251,-1,216,251,218,-1,204,243,259,-1,204,259,206,-1,206,259,260,-1,206,260,208,-1,208,260,255,-1,208,255,210,-1,
        ]
    }
}
Shape{
    appearance Appearance {
        material  Material 	{
            diffuseColor 0.8509803921568627 0.8509803921568627 0.8509803921568627
            specularColor 0.4235294117647059 0.4235294117647059 0.4235294117647059
            ambientIntensity 0.2
            transparency 0
            shininess 0.5
        }
    }
    geometry IndexedFaceSet {
        ccw TRUE
        solid FALSE
        coord DEF co Coordinate {
            point [
                0.8931 -0.8827 0.3543, 0.8931 -0.9238 0.3543, 0.9012 -0.8827 0.3543, 0.9009 -0.9238 0.3543, 0.9082 -0.9229 0.3543, 0.9126 -0.9212 0.3543, 0.9161 -0.9189 0.3543, 0.9167 -0.9182 0.3543, 0.9223 -0.9059 0.3543, 0.9224 -0.9027 0.3543, 0.9219 -0.8969 0.3543, 0.9205 -0.8928 0.3543, 0.9185 -0.8896 0.3543, 0.9166 -0.8877 0.3543, 0.9081 -0.8834 0.3543, 0.9127 -0.8851 0.3543, 0.9195 -0.9148 0.3543, 0.9213 -0.9108 0.3543, 0.9213 -0.9108 0.3543
            ]
        }
        coordIndex [
            0,1,2,-1,2,1,3,-1,2,3,4,-1,4,5,2,-1,2,5,6,-1,2,6,7,-1,8,9,2,-1,2,9,10,-1,2,10,11,-1,11,12,2,-1,2,12,13,-1,2,13,14,-1,14,13,15,-1,7,16,2,-1,2,16,17,-1,2,17,8,-1,
        ]
    }
}
Shape{
    appearance Appearance {
        material  Material 	{
            diffuseColor 0.0 0.0 0.0
            specularColor 0.0 0.0 0.0
            ambientIntensity 0.2
            transparency 0
            shininess 0.5
        }
    }
    geometry IndexedFaceSet {
        ccw TRUE
        solid FALSE
        coord DEF co Coordinate {
            point [
                0.9476 -0.9093 0.3583, 0.9454 -0.9153 0.3583, 0.9655 -0.9093 0.3583, 0.9676 -0.9153 0.3583, 0.9556 -0.8871 0.3583, 0.953 -0.8765 0.3583, 0.9327 -0.9299 0.3583, 0.9403 -0.9299 0.3583, 0.956 -0.8855 0.3583, 0.9564 -0.8833 0.3583, 0.9604 -0.8765 0.3583, 0.9566 -0.8833 0.3583, 0.957 -0.8856 0.3583, 0.9574 -0.8871 0.3583, 0.9807 -0.9299 0.3583, 0.9731 -0.9299 0.3583, 0.9604 -0.8765 0.3543, 0.9807 -0.9299 0.3543, 0.953 -0.8765 0.3543, 0.9327 -0.9299 0.3543, 0.948 -0.8895 0.3543, 0.9403 -0.9299 0.3543, 0.9454 -0.9153 0.3543, 0.9676 -0.9153 0.3543, 0.948 -0.9153 0.3543, 0.9731 -0.9299 0.3543, 0.9476 -0.9093 0.3543, 0.9655 -0.9093 0.3543, 0.9574 -0.8871 0.3543, 0.9566 -0.8833 0.3543, 0.957 -0.8856 0.3543, 0.9564 -0.8833 0.3543, 0.9556 -0.8871 0.3543, 0.956 -0.8855 0.3543, 0.956 -0.8855 0.3543
            ]
        }
        coordIndex [
            0,1,2,-1,2,1,3,-1,4,5,0,-1,0,5,6,-1,0,6,1,-1,1,6,7,-1,4,8,5,-1,5,8,9,-1,5,9,10,-1,10,9,11,-1,10,11,12,-1,12,13,10,-1,10,13,2,-1,10,2,14,-1,14,2,3,-1,14,3,15,-1,10,14,16,-1,16,14,17,-1,5,10,18,-1,18,10,16,-1,19,6,20,-1,20,6,5,-1,20,5,18,-1,7,6,21,-1,21,6,19,-1,1,7,22,-1,22,7,21,-1,23,3,24,-1,24,3,1,-1,24,1,22,-1,15,3,25,-1,25,3,23,-1,14,15,17,-1,17,15,25,-1,0,2,26,-1,26,2,27,-1,2,13,27,-1,27,13,28,-1,11,29,30,-1,11,30,12,-1,12,30,28,-1,12,28,13,-1,11,9,29,-1,29,9,31,-1,4,32,33,-1,4,33,8,-1,8,33,31,-1,8,31,9,-1,4,0,32,-1,32,0,26,-1,
        ]
    }
}
Shape{
    appearance Appearance {
        material  Material 	{
            diffuseColor 0.8509803921568627 0.8509803921568627 0.8509803921568627
            specularColor 0.4235294117647059 0.4235294117647059 0.4235294117647059
            ambientIntensity 0.2
            transparency 0
            shininess 0.5
        }
    }
    geometry IndexedFaceSet {
        ccw TRUE
        solid FALSE
        coord DEF co Coordinate {
            point [
                0.9566 -0.8833 0.3543, 0.9564 -0.8833 0.3543, 0.957 -0.8856 0.3543, 0.956 -0.8855 0.3543, 0.9574 -0.8871 0.3543, 0.9556 -0.8871 0.3543, 0.9655 -0.9093 0.3543, 0.9476 -0.9093 0.3543, 0.9476 -0.9093 0.3543
            ]
        }
        coordIndex [
            0,1,2,-1,2,1,3,-1,2,3,4,-1,4,3,5,-1,4,5,6,-1,6,5,7,-1,
        ]
    }
}
Shape{
    appearance Appearance {
        material  Material 	{
            diffuseColor 0.0 0.0 0.0
            specularColor 0.0 0.0 0.0
            ambientIntensity 0.2
            transparency 0
            shininess 0.5
        }
    }
    geometry IndexedFaceSet {
        ccw TRUE
        solid FALSE
        coord DEF co Coordinate {
            point [
                0.7952 -1.0085 0.3583, 0.7952 -1.0146 0.3583, 0.7952 -1.0085 0.3543, 0.7952 -1.0146 0.3543, 0.7733 -1.0085 0.3583, 0.7733 -1.0085 0.3543, 0.7733 -0.9905 0.3583, 0.7733 -0.9905 0.3543, 0.7924 -0.9905 0.3583, 0.7924 -0.9905 0.3543, 0.7924 -0.9844 0.3583, 0.7924 -0.9844 0.3543, 0.7733 -0.9844 0.3583, 0.7733 -0.9844 0.3543, 0.7733 -0.9673 0.3583, 0.7733 -0.9673 0.3543, 0.7939 -0.9673 0.3583, 0.7939 -0.9673 0.3543, 0.7939 -0.9612 0.3583, 0.7939 -0.9612 0.3543, 0.7665 -0.9612 0.3583, 0.7665 -0.9612 0.3543, 0.7665 -1.0146 0.3583, 0.7665 -1.0146 0.3543, 0.8255 -1.0146 0.3583, 0.8322 -1.0146 0.3583, 0.8255 -1.0087 0.3583, 0.8322 -0.99 0.3583, 0.8255 -0.9903 0.3583, 0.811 -0.9983 0.3583, 0.8126 -0.9976 0.3583, 0.8253 -1.0087 0.3583, 0.8218 -1.0077 0.3583, 0.8243 -1.0103 0.3583, 0.8199 -1.009 0.3583, 0.8166 -0.9966 0.3583, 0.8255 -0.9954 0.3583, 0.8255 -0.9991 0.3583, 0.8255 -0.9995 0.3583, 0.8251 -1.0025 0.3583, 0.8241 -1.0049 0.3583, 0.8226 -1.0069 0.3583, 0.8253 -0.9874 0.3583, 0.8316 -0.9847 0.3583, 0.8246 -0.985 0.3583, 0.8305 -0.9817 0.3583, 0.8238 -0.9836 0.3583, 0.8292 -0.9796 0.3583, 0.8228 -0.9825 0.3583, 0.8274 -0.978 0.3583, 0.8216 -0.9818 0.3583, 0.8251 -0.9767 0.3583, 0.8201 -0.9812 0.3583, 0.8223 -0.9759 0.3583, 0.8178 -0.981 0.3583, 0.8184 -0.9756 0.3583, 0.8138 -0.9814 0.3583, 0.8127 -0.9762 0.3583, 0.8096 -0.9829 0.3583, 0.8075 -0.9779 0.3583, 0.8053 -0.9856 0.3583, 0.8053 -0.9791 0.3583, 0.8097 -1.0077 0.3583, 0.8048 -1.0125 0.3583, 0.8103 -1.0083 0.3583, 0.8071 -1.014 0.3583, 0.8116 -1.0092 0.3583, 0.8097 -1.015 0.3583, 0.8131 -1.0097 0.3583, 0.8137 -1.0155 0.3583, 0.8154 -1.01 0.3583, 0.8171 -1.0151 0.3583, 0.8179 -1.0097 0.3583, 0.8198 -1.0141 0.3583, 0.8222 -1.0125 0.3583, 0.8142 -0.9919 0.3583, 0.809 -0.9932 0.3583, 0.8101 -0.999 0.3583, 0.8062 -0.9947 0.3583, 0.8093 -1.0 0.3583, 0.8042 -0.9965 0.3583, 0.8087 -1.0012 0.3583, 0.8027 -0.9987 0.3583, 0.8084 -1.0028 0.3583, 0.8019 -1.0011 0.3583, 0.8083 -1.0038 0.3583, 0.8016 -1.0044 0.3583, 0.8085 -1.0054 0.3583, 0.8019 -1.0074 0.3583, 0.809 -1.0066 0.3583, 0.8027 -1.0097 0.3583, 0.8041 -1.0117 0.3583, 0.8184 -0.9756 0.3543, 0.8127 -0.9762 0.3543, 0.8075 -0.9779 0.3543, 0.8053 -0.9791 0.3543, 0.8053 -0.9856 0.3543, 0.8096 -0.9829 0.3543, 0.8138 -0.9814 0.3543, 0.8178 -0.981 0.3543, 0.8201 -0.9812 0.3543, 0.8216 -0.9818 0.3543, 0.8228 -0.9825 0.3543, 0.8238 -0.9836 0.3543, 0.8246 -0.985 0.3543, 0.8253 -0.9874 0.3543, 0.8255 -0.9903 0.3543, 0.8142 -0.9919 0.3543, 0.809 -0.9932 0.3543, 0.8062 -0.9947 0.3543, 0.8042 -0.9965 0.3543, 0.8027 -0.9987 0.3543, 0.8019 -1.0011 0.3543, 0.8016 -1.0044 0.3543, 0.8019 -1.0074 0.3543, 0.8027 -1.0097 0.3543, 0.8041 -1.0117 0.3543, 0.8048 -1.0125 0.3543, 0.8137 -1.0155 0.3543, 0.8098 -1.015 0.3543, 0.8097 -1.015 0.3543, 0.8071 -1.014 0.3543, 0.8171 -1.0151 0.3543, 0.8173 -1.015 0.3543, 0.8198 -1.0141 0.3543, 0.8222 -1.0125 0.3543, 0.8243 -1.0103 0.3543, 0.8253 -1.0087 0.3543, 0.8255 -1.0087 0.3543, 0.8255 -1.0146 0.3543, 0.8322 -1.0146 0.3543, 0.8322 -0.99 0.3543, 0.8316 -0.9847 0.3543, 0.8305 -0.9817 0.3543, 0.8292 -0.9796 0.3543, 0.8274 -0.978 0.3543, 0.8251 -0.9767 0.3543, 0.8223 -0.9759 0.3543, 0.8101 -0.999 0.3543, 0.811 -0.9983 0.3543, 0.8126 -0.9976 0.3543, 0.8166 -0.9966 0.3543, 0.8083 -1.0038 0.3543, 0.8084 -1.0028 0.3543, 0.8087 -1.0012 0.3543, 0.8093 -1.0 0.3543, 0.8103 -1.0083 0.3543, 0.8097 -1.0077 0.3543, 0.809 -1.0066 0.3543, 0.8085 -1.0054 0.3543, 0.8154 -1.01 0.3543, 0.8131 -1.0097 0.3543, 0.8116 -1.0092 0.3543, 0.8226 -1.0069 0.3543, 0.8218 -1.0077 0.3543, 0.8199 -1.009 0.3543, 0.8179 -1.0097 0.3543, 0.8255 -0.9991 0.3543, 0.8255 -0.9995 0.3543, 0.8251 -1.0025 0.3543, 0.8241 -1.0049 0.3543, 0.8255 -0.9954 0.3543, 0.8255 -0.9954 0.3543
            ]
        }
        coordIndex [
            0,1,2,-1,2,1,3,-1,4,0,5,-1,5,0,2,-1,6,4,7,-1,7,4,5,-1,8,6,9,-1,9,6,7,-1,10,8,11,-1,11,8,9,-1,12,10,13,-1,13,10,11,-1,14,12,15,-1,15,12,13,-1,16,14,17,-1,17,14,15,-1,18,16,19,-1,19,16,17,-1,20,18,21,-1,21,18,19,-1,22,20,23,-1,23,20,21,-1,1,22,3,-1,3,22,23,-1,22,1,0,-1,0,4,22,-1,22,4,6,-1,22,6,20,-1,16,18,14,-1,14,18,20,-1,14,20,12,-1,12,20,6,-1,12,6,10,-1,10,6,8,-1,24,25,26,-1,26,25,27,-1,28,29,30,-1,31,32,33,-1,33,32,34,-1,35,36,27,-1,27,36,37,-1,37,38,27,-1,27,38,39,-1,27,39,26,-1,26,39,40,-1,26,40,31,-1,31,40,41,-1,31,41,32,-1,30,35,28,-1,28,35,27,-1,28,27,42,-1,42,27,43,-1,42,43,44,-1,44,43,45,-1,44,45,46,-1,46,45,47,-1,46,47,48,-1,48,47,49,-1,48,49,50,-1,50,49,51,-1,50,51,52,-1,52,51,53,-1,52,53,54,-1,54,53,55,-1,54,55,56,-1,56,55,57,-1,56,57,58,-1,58,57,59,-1,58,59,60,-1,60,59,61,-1,62,63,64,-1,64,63,65,-1,64,65,66,-1,66,65,67,-1,66,67,68,-1,68,67,69,-1,68,69,70,-1,70,69,71,-1,70,71,72,-1,72,71,73,-1,72,73,34,-1,34,73,74,-1,34,74,33,-1,28,75,29,-1,29,75,76,-1,29,76,77,-1,77,76,78,-1,77,78,79,-1,79,78,80,-1,79,80,81,-1,81,80,82,-1,81,82,83,-1,83,82,84,-1,83,84,85,-1,85,84,86,-1,85,86,87,-1,87,86,88,-1,87,88,89,-1,89,88,90,-1,89,90,62,-1,62,90,91,-1,62,91,63,-1,55,92,93,-1,55,93,57,-1,57,93,94,-1,57,94,59,-1,59,94,95,-1,59,95,61,-1,60,61,96,-1,96,61,95,-1,60,96,97,-1,60,97,58,-1,58,97,98,-1,58,98,56,-1,56,98,99,-1,56,99,54,-1,54,99,100,-1,54,100,52,-1,52,100,101,-1,52,101,50,-1,50,101,102,-1,50,102,48,-1,48,102,103,-1,48,103,46,-1,46,103,104,-1,46,104,44,-1,44,104,105,-1,44,105,42,-1,42,105,106,-1,42,106,28,-1,75,28,107,-1,107,28,106,-1,75,107,108,-1,75,108,76,-1,76,108,109,-1,76,109,78,-1,78,109,110,-1,78,110,80,-1,80,110,111,-1,80,111,82,-1,82,111,112,-1,82,112,84,-1,84,112,113,-1,84,113,86,-1,86,113,114,-1,86,114,88,-1,88,114,115,-1,88,115,90,-1,90,115,116,-1,90,116,91,-1,91,116,117,-1,91,117,63,-1,118,69,119,-1,119,69,67,-1,119,67,120,-1,120,67,65,-1,120,65,121,-1,121,65,63,-1,121,63,117,-1,69,118,122,-1,69,122,71,-1,71,122,123,-1,71,123,73,-1,123,124,73,-1,73,124,125,-1,73,125,74,-1,74,125,126,-1,74,126,33,-1,33,126,127,-1,33,127,31,-1,26,31,128,-1,128,31,127,-1,24,26,129,-1,129,26,128,-1,25,24,130,-1,130,24,129,-1,27,25,131,-1,131,25,130,-1,27,131,132,-1,27,132,43,-1,43,132,133,-1,43,133,45,-1,45,133,134,-1,45,134,47,-1,47,134,135,-1,47,135,49,-1,49,135,136,-1,49,136,51,-1,51,136,137,-1,51,137,53,-1,53,137,92,-1,53,92,55,-1,77,138,139,-1,77,139,29,-1,29,139,140,-1,29,140,30,-1,30,140,141,-1,30,141,35,-1,85,142,143,-1,85,143,83,-1,83,143,144,-1,83,144,81,-1,81,144,145,-1,81,145,79,-1,79,145,138,-1,79,138,77,-1,64,146,147,-1,64,147,62,-1,62,147,148,-1,62,148,89,-1,89,148,149,-1,89,149,87,-1,87,149,142,-1,87,142,85,-1,70,150,151,-1,70,151,68,-1,68,151,152,-1,68,152,66,-1,66,152,146,-1,66,146,64,-1,41,153,154,-1,41,154,32,-1,32,154,155,-1,32,155,34,-1,34,155,156,-1,34,156,72,-1,72,156,150,-1,72,150,70,-1,37,157,158,-1,37,158,38,-1,38,158,159,-1,38,159,39,-1,39,159,160,-1,39,160,40,-1,40,160,153,-1,40,153,41,-1,37,36,157,-1,157,36,161,-1,36,35,161,-1,161,35,141,-1,
        ]
    }
}
Shape{
    appearance Appearance {
        material  Material 	{
            diffuseColor 0.8509803921568627 0.8509803921568627 0.8509803921568627
            specularColor 0.4235294117647059 0.4235294117647059 0.4235294117647059
            ambientIntensity 0.2
            transparency 0
            shininess 0.5
        }
    }
    geometry IndexedFaceSet {
        ccw TRUE
        solid FALSE
        coord DEF co Coordinate {
            point [
                0.8255 -0.9995 0.3543, 0.8255 -0.9991 0.3543, 0.8101 -0.999 0.3543, 0.8255 -0.9954 0.3543, 0.8166 -0.9966 0.3543, 0.8126 -0.9976 0.3543, 0.811 -0.9983 0.3543, 0.8251 -1.0025 0.3543, 0.8093 -1.0 0.3543, 0.8241 -1.0049 0.3543, 0.8097 -1.0077 0.3543, 0.8103 -1.0083 0.3543, 0.8218 -1.0077 0.3543, 0.809 -1.0066 0.3543, 0.8199 -1.009 0.3543, 0.8179 -1.0097 0.3543, 0.8154 -1.01 0.3543, 0.8087 -1.0012 0.3543, 0.8084 -1.0028 0.3543, 0.8226 -1.0069 0.3543, 0.8083 -1.0038 0.3543, 0.8085 -1.0054 0.3543, 0.8116 -1.0092 0.3543, 0.8131 -1.0097 0.3543, 0.8131 -1.0097 0.3543
            ]
        }
        coordIndex [
            0,1,2,-1,1,3,4,-1,4,5,1,-1,1,5,6,-1,1,6,2,-1,0,2,7,-1,7,2,8,-1,7,8,9,-1,10,11,12,-1,10,12,13,-1,14,12,15,-1,15,12,16,-1,8,17,9,-1,9,17,18,-1,9,18,19,-1,19,18,20,-1,19,20,12,-1,12,20,21,-1,12,21,13,-1,11,22,12,-1,12,22,23,-1,12,23,16,-1,
        ]
    }
}
Shape{
    appearance Appearance {
        material  Material 	{
            diffuseColor 0.0 0.0 0.0
            specularColor 0.0 0.0 0.0
            ambientIntensity 0.2
            transparency 0
            shininess 0.5
        }
    }
    geometry IndexedFaceSet {
        ccw TRUE
        solid FALSE
        coord DEF co Coordinate {
            point [
                0.8413 -1.0063 0.3543, 0.8413 -1.0063 0.3583, 0.8436 -1.0078 0.3583, 0.8523 -1.01 0.3583, 0.8523 -1.01 0.3543, 0.8478 -1.0094 0.3543, 0.8478 -1.0094 0.3583, 0.8443 -1.0081 0.3543, 0.8436 -1.0078 0.3543, 0.8413 -1.0132 0.3583, 0.8413 -1.0132 0.3543, 0.8443 -1.0143 0.3543, 0.8457 -1.0148 0.3583, 0.8516 -1.0155 0.3543, 0.8516 -1.0155 0.3583, 0.8475 -1.015 0.3543, 0.8457 -1.0148 0.3543, 0.8559 -1.015 0.3543, 0.8571 -1.0149 0.3583, 0.8571 -1.0149 0.3543, 0.8607 -1.0136 0.3543, 0.8607 -1.0136 0.3583, 0.8627 -1.0124 0.3543, 0.8627 -1.0124 0.3583, 0.8646 -1.0108 0.3543, 0.8646 -1.0108 0.3583, 0.8659 -1.009 0.3543, 0.8659 -1.009 0.3583, 0.8667 -1.0069 0.3543, 0.8667 -1.0069 0.3583, 0.867 -1.0042 0.3543, 0.867 -1.0042 0.3583, 0.8667 -1.0017 0.3543, 0.8667 -1.0017 0.3583, 0.866 -0.9997 0.3543, 0.866 -0.9997 0.3583, 0.8648 -0.9979 0.3543, 0.8648 -0.9979 0.3583, 0.8632 -0.9965 0.3543, 0.8632 -0.9965 0.3583, 0.8587 -0.994 0.3543, 0.8587 -0.994 0.3583, 0.8561 -0.993 0.3543, 0.8561 -0.993 0.3583, 0.852 -0.9912 0.3543, 0.852 -0.9912 0.3583, 0.8496 -0.9897 0.3543, 0.8496 -0.9897 0.3583, 0.849 -0.989 0.3543, 0.849 -0.989 0.3583, 0.8485 -0.9881 0.3543, 0.8485 -0.9881 0.3583, 0.8482 -0.987 0.3543, 0.8482 -0.987 0.3583, 0.8482 -0.9861 0.3543, 0.8482 -0.9861 0.3583, 0.8483 -0.9851 0.3543, 0.8483 -0.9851 0.3583, 0.8486 -0.9842 0.3543, 0.8486 -0.9842 0.3583, 0.8492 -0.9833 0.3543, 0.8492 -0.9833 0.3583, 0.8502 -0.9824 0.3543, 0.8502 -0.9824 0.3583, 0.8517 -0.9816 0.3543, 0.8517 -0.9816 0.3583, 0.8535 -0.9812 0.3543, 0.8535 -0.9812 0.3583, 0.8555 -0.981 0.3543, 0.8555 -0.981 0.3583, 0.8602 -0.9816 0.3543, 0.8602 -0.9816 0.3583, 0.8639 -0.983 0.3543, 0.8639 -0.983 0.3583, 0.8652 -0.9838 0.3543, 0.8652 -0.9838 0.3583, 0.8652 -0.9773 0.3583, 0.8652 -0.9773 0.3543, 0.8604 -0.9759 0.3543, 0.8604 -0.9759 0.3583, 0.8561 -0.9756 0.3543, 0.8561 -0.9756 0.3583, 0.8511 -0.9761 0.3543, 0.8511 -0.9761 0.3583, 0.8474 -0.9775 0.3543, 0.8474 -0.9775 0.3583, 0.8456 -0.9786 0.3543, 0.8456 -0.9786 0.3583, 0.8443 -0.9797 0.3543, 0.8436 -0.9804 0.3583, 0.8436 -0.9804 0.3543, 0.8424 -0.9822 0.3543, 0.8424 -0.9822 0.3583, 0.8416 -0.9843 0.3543, 0.8416 -0.9843 0.3583, 0.8413 -0.9867 0.3543, 0.8413 -0.9867 0.3583, 0.8416 -0.9893 0.3543, 0.8416 -0.9893 0.3583, 0.8423 -0.9914 0.3543, 0.8423 -0.9914 0.3583, 0.8432 -0.9928 0.3543, 0.8432 -0.9928 0.3583, 0.8514 -0.9978 0.3543, 0.8514 -0.9978 0.3583, 0.8474 -0.996 0.3583, 0.8443 -0.9939 0.3543, 0.8443 -0.9939 0.3583, 0.8443 -0.9939 0.3543, 0.8474 -0.996 0.3543, 0.8558 -0.9997 0.3543, 0.8558 -0.9997 0.3583, 0.8584 -1.0012 0.3543, 0.8584 -1.0012 0.3583, 0.8593 -1.0021 0.3543, 0.8593 -1.0021 0.3583, 0.8598 -1.003 0.3543, 0.8598 -1.003 0.3583, 0.8601 -1.004 0.3543, 0.8601 -1.004 0.3583, 0.8601 -1.0049 0.3543, 0.8601 -1.0049 0.3583, 0.86 -1.0061 0.3543, 0.86 -1.0061 0.3583, 0.8597 -1.0071 0.3543, 0.8597 -1.0071 0.3583, 0.8591 -1.0079 0.3543, 0.8591 -1.0079 0.3583, 0.8583 -1.0086 0.3543, 0.8583 -1.0086 0.3583, 0.8577 -1.009 0.3543, 0.8577 -1.009 0.3583, 0.856 -1.0096 0.3543, 0.856 -1.0096 0.3583, 0.8525 -1.01 0.3543, 0.8525 -1.01 0.3583, 0.9001 -0.9764 0.3583, 0.9071 -0.9764 0.3583, 0.9001 -0.9764 0.3543, 0.9071 -0.9764 0.3543, 0.8897 -1.0052 0.3583, 0.8897 -1.0052 0.3543, 0.8892 -1.0069 0.3543, 0.8892 -1.0069 0.3583, 0.8889 -1.0082 0.3543, 0.8889 -1.0082 0.3583, 0.8887 -1.0082 0.3583, 0.8887 -1.0082 0.3543, 0.8879 -1.0051 0.3583, 0.8879 -1.0051 0.3543, 0.878 -0.9764 0.3583, 0.8812 -0.9857 0.3543, 0.878 -0.9764 0.3543, 0.8705 -0.9764 0.3583, 0.8705 -0.9764 0.3543, 0.8854 -1.0145 0.3583, 0.8812 -1.0037 0.3543, 0.8854 -1.0145 0.3543, 0.8825 -1.0214 0.3543, 0.8825 -1.0214 0.3583, 0.8852 -1.015 0.3543, 0.8812 -1.0238 0.3543, 0.8812 -1.0238 0.3543, 0.88 -1.0252 0.3583, 0.8812 -1.0238 0.3583, 0.88 -1.0252 0.3543, 0.8787 -1.0261 0.3543, 0.8787 -1.0261 0.3583, 0.8773 -1.0266 0.3543, 0.8773 -1.0266 0.3583, 0.8757 -1.0268 0.3543, 0.8757 -1.0268 0.3583, 0.8732 -1.0265 0.3543, 0.8732 -1.0265 0.3583, 0.8719 -1.026 0.3543, 0.8719 -1.026 0.3583, 0.8719 -1.032 0.3583, 0.8719 -1.032 0.3543, 0.8747 -1.0325 0.3543, 0.8747 -1.0325 0.3583, 0.8762 -1.0325 0.3543, 0.8762 -1.0325 0.3583, 0.8789 -1.0322 0.3543, 0.8789 -1.0322 0.3583, 0.8812 -1.0313 0.3543, 0.8815 -1.0312 0.3583, 0.8815 -1.0312 0.3543, 0.8838 -1.0296 0.3543, 0.8838 -1.0296 0.3583, 0.8843 -1.0292 0.3543, 0.8843 -1.0292 0.3583, 0.8868 -1.0262 0.3543, 0.8868 -1.0262 0.3583, 0.8898 -1.0203 0.3543, 0.8898 -1.0203 0.3583, 0.8919 -1.015 0.3543, 0.943 -1.0085 0.3583, 0.943 -1.0146 0.3583, 0.943 -1.0085 0.3543, 0.943 -1.0146 0.3543, 0.9212 -1.0085 0.3583, 0.9312 -1.0085 0.3543, 0.9212 -1.0085 0.3543, 0.9212 -0.9905 0.3583, 0.9212 -0.9905 0.3543, 0.9403 -0.9905 0.3583, 0.9312 -0.9905 0.3543, 0.9403 -0.9905 0.3543, 0.9403 -0.9844 0.3583, 0.9403 -0.9844 0.3543, 0.9212 -0.9844 0.3543, 0.9212 -0.9844 0.3583, 0.9312 -0.9844 0.3543, 0.9212 -0.9673 0.3583, 0.9212 -0.9673 0.3543, 0.9418 -0.9673 0.3543, 0.9418 -0.9673 0.3583, 0.9312 -0.9673 0.3543, 0.9418 -0.9612 0.3583, 0.9418 -0.9612 0.3543, 0.9143 -0.9612 0.3543, 0.9143 -0.9612 0.3583, 0.9312 -0.9612 0.3543, 0.9143 -1.0146 0.3583, 0.9143 -1.0146 0.3543, 0.9312 -1.0146 0.3543, 0.9863 -0.9995 0.3583, 0.9836 -1.0029 0.3583, 0.9885 -1.0071 0.3583, 0.9829 -1.0035 0.3583, 0.9829 -1.0111 0.3583, 0.9795 -1.0059 0.3583, 0.9768 -1.0135 0.3583, 0.975 -1.0076 0.3583, 0.9678 -1.0146 0.3583, 0.9677 -1.0085 0.3583, 0.9531 -1.0146 0.3583, 0.96 -1.0085 0.3583, 0.9531 -0.9612 0.3583, 0.96 -0.9673 0.3583, 0.9683 -0.9612 0.3583, 0.968 -0.9673 0.3583, 0.9765 -0.9621 0.3583, 0.975 -0.9681 0.3583, 0.9829 -0.9644 0.3583, 0.9796 -0.9698 0.3583, 0.9885 -0.9683 0.3583, 0.9834 -0.9724 0.3583, 0.9904 -0.9701 0.3583, 0.9853 -0.9743 0.3583, 0.9937 -0.9748 0.3583, 0.9873 -0.9774 0.3583, 0.9957 -0.9799 0.3583, 0.9887 -0.9816 0.3583, 0.9965 -0.9872 0.3583, 0.9893 -0.9874 0.3583, 0.9963 -0.9915 0.3583, 0.9891 -0.9905 0.3583, 0.9948 -0.9976 0.3583, 0.9881 -0.9955 0.3583, 0.992 -1.003 0.3583, 0.9678 -1.0146 0.3543, 0.9531 -1.0146 0.3543, 0.9768 -1.0135 0.3543, 0.9829 -1.0111 0.3543, 0.9885 -1.0071 0.3543, 0.992 -1.003 0.3543, 0.9948 -0.9976 0.3543, 0.9963 -0.9915 0.3543, 0.9965 -0.9872 0.3543, 0.9957 -0.9799 0.3543, 0.9937 -0.9748 0.3543, 0.9904 -0.9701 0.3543, 0.9885 -0.9683 0.3543, 0.9829 -0.9644 0.3543, 0.9765 -0.9621 0.3543, 0.9683 -0.9612 0.3543, 0.9531 -0.9612 0.3543, 0.968 -0.9673 0.3543, 0.96 -0.9673 0.3543, 0.96 -1.0085 0.3543, 0.9677 -1.0085 0.3543, 0.9836 -1.0029 0.3543, 0.9829 -1.0035 0.3543, 0.9795 -1.0059 0.3543, 0.975 -1.0076 0.3543, 0.9893 -0.9874 0.3543, 0.9891 -0.9905 0.3543, 0.9881 -0.9955 0.3543, 0.9863 -0.9995 0.3543, 0.9834 -0.9724 0.3543, 0.9853 -0.9743 0.3543, 0.9873 -0.9774 0.3543, 0.9887 -0.9816 0.3543, 0.975 -0.9681 0.3543, 0.9796 -0.9698 0.3543, 0.9796 -0.9698 0.3543
            ]
        }
        coordIndex [
            0,1,2,-1,3,4,5,-1,3,5,6,-1,6,5,7,-1,6,7,2,-1,2,7,8,-1,2,8,0,-1,9,1,10,-1,10,1,0,-1,10,11,9,-1,9,11,12,-1,13,14,15,-1,15,14,12,-1,15,12,16,-1,16,12,11,-1,13,17,14,-1,14,17,18,-1,17,19,18,-1,18,19,20,-1,18,20,21,-1,21,20,22,-1,21,22,23,-1,23,22,24,-1,23,24,25,-1,25,24,26,-1,25,26,27,-1,27,26,28,-1,27,28,29,-1,29,28,30,-1,29,30,31,-1,31,30,32,-1,31,32,33,-1,33,32,34,-1,33,34,35,-1,35,34,36,-1,35,36,37,-1,37,36,38,-1,37,38,39,-1,39,38,40,-1,39,40,41,-1,41,40,42,-1,41,42,43,-1,43,42,44,-1,43,44,45,-1,45,44,46,-1,45,46,47,-1,47,46,48,-1,47,48,49,-1,49,48,50,-1,49,50,51,-1,51,50,52,-1,51,52,53,-1,53,52,54,-1,53,54,55,-1,55,54,56,-1,55,56,57,-1,57,56,58,-1,57,58,59,-1,59,58,60,-1,59,60,61,-1,61,60,62,-1,61,62,63,-1,63,62,64,-1,63,64,65,-1,65,64,66,-1,65,66,67,-1,67,66,68,-1,67,68,69,-1,69,68,70,-1,69,70,71,-1,71,70,72,-1,71,72,73,-1,73,72,74,-1,73,74,75,-1,76,75,77,-1,77,75,74,-1,76,77,78,-1,76,78,79,-1,79,78,80,-1,79,80,81,-1,81,80,82,-1,81,82,83,-1,83,82,84,-1,83,84,85,-1,85,84,86,-1,85,86,87,-1,86,88,87,-1,87,88,89,-1,88,90,89,-1,89,90,91,-1,89,91,92,-1,92,91,93,-1,92,93,94,-1,94,93,95,-1,94,95,96,-1,96,95,97,-1,96,97,98,-1,98,97,99,-1,98,99,100,-1,100,99,101,-1,100,101,102,-1,103,104,105,-1,102,101,106,-1,102,106,107,-1,107,106,108,-1,107,108,105,-1,105,108,109,-1,105,109,103,-1,104,103,110,-1,104,110,111,-1,111,110,112,-1,111,112,113,-1,113,112,114,-1,113,114,115,-1,115,114,116,-1,115,116,117,-1,117,116,118,-1,117,118,119,-1,119,118,120,-1,119,120,121,-1,121,120,122,-1,121,122,123,-1,123,122,124,-1,123,124,125,-1,125,124,126,-1,125,126,127,-1,127,126,128,-1,127,128,129,-1,129,128,130,-1,129,130,131,-1,131,130,132,-1,131,132,133,-1,133,132,134,-1,133,134,135,-1,135,134,4,-1,135,4,3,-1,61,63,85,-1,85,63,83,-1,111,43,104,-1,104,43,45,-1,14,3,12,-1,12,3,6,-1,12,6,9,-1,9,6,2,-1,9,2,1,-1,63,65,83,-1,83,65,67,-1,83,67,81,-1,81,67,69,-1,81,69,79,-1,79,69,71,-1,79,71,76,-1,76,71,73,-1,76,73,75,-1,21,23,127,-1,127,23,25,-1,127,25,125,-1,125,25,27,-1,125,27,123,-1,123,27,29,-1,123,29,121,-1,121,29,31,-1,121,31,119,-1,119,31,33,-1,119,33,117,-1,117,33,35,-1,117,35,115,-1,115,35,37,-1,115,37,113,-1,113,37,39,-1,113,39,111,-1,111,39,41,-1,111,41,43,-1,127,129,21,-1,21,129,131,-1,21,131,18,-1,18,131,133,-1,18,133,14,-1,14,133,135,-1,14,135,3,-1,85,87,61,-1,61,87,89,-1,61,89,59,-1,59,89,92,-1,59,92,57,-1,57,92,94,-1,57,94,55,-1,55,94,96,-1,55,96,53,-1,53,96,98,-1,53,98,51,-1,51,98,100,-1,51,100,49,-1,49,100,102,-1,49,102,47,-1,47,102,107,-1,47,107,45,-1,45,107,105,-1,45,105,104,-1,136,137,138,-1,138,137,139,-1,140,136,141,-1,141,136,138,-1,140,141,142,-1,140,142,143,-1,143,142,144,-1,143,144,145,-1,146,145,147,-1,147,145,144,-1,148,146,149,-1,149,146,147,-1,148,149,150,-1,150,149,151,-1,150,151,152,-1,153,150,154,-1,154,150,152,-1,153,154,155,-1,155,154,156,-1,155,156,157,-1,158,159,160,-1,160,159,155,-1,160,155,157,-1,159,158,161,-1,162,163,161,-1,161,163,164,-1,161,164,159,-1,162,165,163,-1,163,165,166,-1,163,166,167,-1,167,166,168,-1,167,168,169,-1,169,168,170,-1,169,170,171,-1,171,170,172,-1,171,172,173,-1,173,172,174,-1,173,174,175,-1,176,175,177,-1,177,175,174,-1,176,177,178,-1,176,178,179,-1,179,178,180,-1,179,180,181,-1,181,180,182,-1,181,182,183,-1,183,182,184,-1,183,184,185,-1,184,186,185,-1,185,186,187,-1,185,187,188,-1,188,187,189,-1,188,189,190,-1,190,189,191,-1,190,191,192,-1,192,191,193,-1,192,193,194,-1,139,137,195,-1,195,137,194,-1,195,194,193,-1,143,145,194,-1,137,136,194,-1,194,136,140,-1,194,140,143,-1,150,153,148,-1,148,153,155,-1,148,155,146,-1,192,164,190,-1,190,164,163,-1,175,176,173,-1,173,176,179,-1,173,179,171,-1,171,179,181,-1,171,181,169,-1,169,181,183,-1,169,183,167,-1,167,183,185,-1,167,185,163,-1,163,185,188,-1,163,188,190,-1,145,146,194,-1,194,146,155,-1,194,155,192,-1,192,155,159,-1,192,159,164,-1,196,197,198,-1,198,197,199,-1,196,198,200,-1,200,198,201,-1,200,201,202,-1,203,200,204,-1,204,200,202,-1,203,204,205,-1,205,204,206,-1,205,206,207,-1,208,205,209,-1,209,205,207,-1,210,211,212,-1,212,211,208,-1,212,208,209,-1,213,211,214,-1,214,211,210,-1,215,216,217,-1,217,216,213,-1,217,213,214,-1,218,216,219,-1,219,216,215,-1,220,221,222,-1,222,221,218,-1,222,218,219,-1,223,221,224,-1,224,221,220,-1,223,224,197,-1,197,224,225,-1,197,225,199,-1,223,197,196,-1,196,200,223,-1,223,200,203,-1,223,203,221,-1,216,218,213,-1,213,218,221,-1,213,221,211,-1,211,221,203,-1,211,203,208,-1,208,203,205,-1,226,227,228,-1,228,227,229,-1,228,229,230,-1,230,229,231,-1,230,231,232,-1,232,231,233,-1,232,233,234,-1,234,233,235,-1,234,235,236,-1,236,235,237,-1,236,237,238,-1,238,237,239,-1,238,239,240,-1,240,239,241,-1,240,241,242,-1,242,241,243,-1,242,243,244,-1,244,243,245,-1,244,245,246,-1,246,245,247,-1,246,247,248,-1,248,247,249,-1,248,249,250,-1,250,249,251,-1,250,251,252,-1,252,251,253,-1,252,253,254,-1,254,253,255,-1,254,255,256,-1,256,255,257,-1,256,257,258,-1,258,257,259,-1,258,259,260,-1,260,259,226,-1,260,226,228,-1,234,236,261,-1,261,236,262,-1,234,261,263,-1,234,263,232,-1,232,263,264,-1,232,264,230,-1,230,264,265,-1,230,265,228,-1,228,265,266,-1,228,266,260,-1,260,266,267,-1,260,267,258,-1,258,267,268,-1,258,268,256,-1,256,268,269,-1,256,269,254,-1,254,269,270,-1,254,270,252,-1,252,270,271,-1,252,271,250,-1,250,271,272,-1,250,272,248,-1,248,272,273,-1,248,273,246,-1,246,273,274,-1,246,274,244,-1,244,274,275,-1,244,275,242,-1,242,275,276,-1,242,276,240,-1,238,240,277,-1,277,240,276,-1,236,238,262,-1,262,238,277,-1,241,239,278,-1,278,239,279,-1,239,237,279,-1,279,237,280,-1,237,235,280,-1,280,235,281,-1,227,282,283,-1,227,283,229,-1,229,283,284,-1,229,284,231,-1,231,284,285,-1,231,285,233,-1,233,285,281,-1,233,281,235,-1,255,286,287,-1,255,287,257,-1,257,287,288,-1,257,288,259,-1,259,288,289,-1,259,289,226,-1,226,289,282,-1,226,282,227,-1,247,290,291,-1,247,291,249,-1,249,291,292,-1,249,292,251,-1,251,292,293,-1,251,293,253,-1,253,293,286,-1,253,286,255,-1,241,278,294,-1,241,294,243,-1,243,294,295,-1,243,295,245,-1,245,295,290,-1,245,290,247,-1,
        ]
    }
}
Shape{
    appearance Appearance {
        material  Material 	{
            diffuseColor 0.8509803921568627 0.8509803921568627 0.8509803921568627
            specularColor 0.4235294117647059 0.4235294117647059 0.4235294117647059
            ambientIntensity 0.2
            transparency 0
            shininess 0.5
        }
    }
    geometry IndexedFaceSet {
        ccw TRUE
        solid FALSE
        coord DEF co Coordinate {
            point [
                0.96 -0.9673 0.3543, 0.96 -1.0085 0.3543, 0.968 -0.9673 0.3543, 0.9677 -1.0085 0.3543, 0.975 -1.0076 0.3543, 0.9795 -1.0059 0.3543, 0.9829 -1.0035 0.3543, 0.9836 -1.0029 0.3543, 0.9891 -0.9905 0.3543, 0.9893 -0.9874 0.3543, 0.9887 -0.9816 0.3543, 0.9873 -0.9774 0.3543, 0.9853 -0.9743 0.3543, 0.9834 -0.9724 0.3543, 0.975 -0.9681 0.3543, 0.9796 -0.9698 0.3543, 0.9863 -0.9995 0.3543, 0.9881 -0.9955 0.3543, 0.9881 -0.9955 0.3543
            ]
        }
        coordIndex [
            0,1,2,-1,2,1,3,-1,2,3,4,-1,4,5,2,-1,2,5,6,-1,2,6,7,-1,8,9,2,-1,2,9,10,-1,2,10,11,-1,11,12,2,-1,2,12,13,-1,2,13,14,-1,14,13,15,-1,7,16,2,-1,2,16,17,-1,2,17,8,-1,
        ]
    }
}
Shape{
    appearance Appearance {
        material  Material 	{
            diffuseColor 0.0 0.0 0.0
            specularColor 0.0 0.0 0.0
            ambientIntensity 0.2
            transparency 0
            shininess 0.5
        }
    }
    geometry IndexedFaceSet {
        ccw TRUE
        solid FALSE
        coord DEF co Coordinate {
            point [
                1.0144 -0.9939 0.3583, 1.0122 -1.0 0.3583, 1.0323 -0.9939 0.3583, 1.0345 -1.0 0.3583, 1.0224 -0.9718 0.3583, 1.0198 -0.9612 0.3583, 0.9995 -1.0146 0.3583, 1.0071 -1.0146 0.3583, 1.0229 -0.9702 0.3583, 1.0233 -0.968 0.3583, 1.0272 -0.9612 0.3583, 1.0234 -0.968 0.3583, 1.0239 -0.9703 0.3583, 1.0243 -0.9718 0.3583, 1.0475 -1.0146 0.3583, 1.0399 -1.0146 0.3583, 1.0272 -0.9612 0.3543, 1.0475 -1.0146 0.3543, 1.0198 -0.9612 0.3543, 0.9995 -1.0146 0.3543, 1.0071 -1.0146 0.3543, 1.0122 -1.0 0.3543, 1.0345 -1.0 0.3543, 1.0399 -1.0146 0.3543, 1.0144 -0.9939 0.3543, 1.0323 -0.9939 0.3543, 1.0243 -0.9718 0.3543, 1.0234 -0.968 0.3543, 1.0239 -0.9703 0.3543, 1.0233 -0.968 0.3543, 1.0224 -0.9718 0.3543, 1.0229 -0.9702 0.3543, 1.0229 -0.9702 0.3543
            ]
        }
        coordIndex [
            0,1,2,-1,2,1,3,-1,4,5,0,-1,0,5,6,-1,0,6,1,-1,1,6,7,-1,4,8,5,-1,5,8,9,-1,5,9,10,-1,10,9,11,-1,10,11,12,-1,12,13,10,-1,10,13,2,-1,10,2,14,-1,14,2,3,-1,14,3,15,-1,10,14,16,-1,16,14,17,-1,5,10,18,-1,18,10,16,-1,6,5,19,-1,19,5,18,-1,7,6,20,-1,20,6,19,-1,1,7,21,-1,21,7,20,-1,3,1,22,-1,22,1,21,-1,15,3,23,-1,23,3,22,-1,14,15,17,-1,17,15,23,-1,0,2,24,-1,24,2,25,-1,2,13,25,-1,25,13,26,-1,11,27,28,-1,11,28,12,-1,12,28,26,-1,12,26,13,-1,11,9,27,-1,27,9,29,-1,4,30,31,-1,4,31,8,-1,8,31,29,-1,8,29,9,-1,4,0,30,-1,30,0,24,-1,
        ]
    }
}
Shape{
    appearance Appearance {
        material  Material 	{
            diffuseColor 0.8509803921568627 0.8509803921568627 0.8509803921568627
            specularColor 0.4235294117647059 0.4235294117647059 0.4235294117647059
            ambientIntensity 0.2
            transparency 0
            shininess 0.5
        }
    }
    geometry IndexedFaceSet {
        ccw TRUE
        solid FALSE
        coord DEF co Coordinate {
            point [
                1.0234 -0.968 0.3543, 1.0233 -0.968 0.3543, 1.0239 -0.9703 0.3543, 1.0229 -0.9702 0.3543, 1.0243 -0.9718 0.3543, 1.0224 -0.9718 0.3543, 1.0323 -0.9939 0.3543, 1.0144 -0.9939 0.3543, 1.0144 -0.9939 0.3543
            ]
        }
        coordIndex [
            0,1,2,-1,2,1,3,-1,2,3,4,-1,4,3,5,-1,4,5,6,-1,6,5,7,-1,
        ]
    }
}
Shape{
    appearance Appearance {
        material  Material 	{
            diffuseColor 0.0 0.0 0.0
            specularColor 0.0 0.0 0.0
            ambientIntensity 0.2
            transparency 0
            shininess 0.5
        }
    }
    geometry IndexedFaceSet {
        ccw TRUE
        solid FALSE
        coord DEF co Coordinate {
            point [
                0.5307 -1.0222 0.3583, 0.5364 -1.0291 0.3583, 0.5273 -0.9886 0.3583, 0.5207 -0.9226 0.3583, 0.5291 -0.9181 0.3583, 0.5271 -0.8948 0.3583, 0.5508 -0.8937 0.3583, 0.5626 -0.9214 0.3583, 0.5684 -0.9094 0.3583, 0.519 -0.9835 0.3583, 0.5221 -1.0126 0.3583, 0.5269 -1.014 0.3583, 0.5421 -0.8929 0.3583, 0.5657 -0.9878 0.3583, 0.5693 -0.989 0.3583, 0.6009 -0.9981 0.3583, 0.5723 -0.9911 0.3583, 0.5748 -0.9938 0.3583, 0.654 -0.97 0.3583, 0.6423 -0.9499 0.3583, 0.5914 -0.9764 0.3583, 0.5626 -0.9874 0.3583, 0.5589 -0.9879 0.3583, 0.5539 -0.9646 0.3583, 0.5556 -0.9892 0.3583, 0.5455 -0.9679 0.3583, 0.5526 -0.9913 0.3583, 0.5377 -0.9732 0.3583, 0.5511 -0.9929 0.3583, 0.5315 -0.9804 0.3583, 0.5491 -0.9961 0.3583, 0.548 -0.9996 0.3583, 0.5478 -1.0033 0.3583, 0.5767 -0.9661 0.3583, 0.5676 -0.9638 0.3583, 0.563 -0.9635 0.3583, 0.5764 -0.9969 0.3583, 0.5773 -1.0005 0.3583, 0.6009 -1.0019 0.3583, 0.5773 -1.0039 0.3583, 0.6007 -1.0058 0.3583, 0.6666 -0.9324 0.3583, 0.6696 -0.9324 0.3583, 0.6852 -0.9119 0.3583, 0.6768 -0.9333 0.3583, 0.687 -0.9125 0.3583, 0.6835 -0.9358 0.3583, 0.6983 -0.9181 0.3583, 0.7086 -0.9268 0.3583, 0.5586 -0.8846 0.3583, 0.5769 -0.8992 0.3583, 0.5675 -0.877 0.3583, 0.5871 -0.8918 0.3583, 0.5768 -0.8712 0.3583, 0.5385 -0.9159 0.3583, 0.5425 -0.9157 0.3583, 0.5464 -0.8932 0.3583, 0.5514 -0.9168 0.3583, 0.5599 -0.9199 0.3583, 0.5848 -0.9704 0.3583, 0.7087 -0.9977 0.3583, 0.691 -0.9826 0.3583, 0.6984 -1.0064 0.3583, 0.6854 -0.9872 0.3583, 0.6868 -1.0121 0.3583, 0.6787 -0.9903 0.3583, 0.6742 -1.0148 0.3583, 0.6719 -0.9916 0.3583, 0.6518 -1.0148 0.3583, 0.6548 -0.9916 0.3583, 0.6496 -1.0144 0.3583, 0.5485 -1.0069 0.3583, 0.55 -1.0101 0.3583, 0.6893 -0.94 0.3583, 0.6937 -0.9448 0.3583, 0.7164 -0.9376 0.3583, 0.6972 -0.9514 0.3583, 0.721 -0.9492 0.3583, 0.699 -0.9586 0.3583, 0.7227 -0.9616 0.3583, 0.6992 -0.962 0.3583, 0.721 -0.9752 0.3583, 0.6983 -0.9694 0.3583, 0.7162 -0.9872 0.3583, 0.6957 -0.9762 0.3583, 0.6915 -0.9821 0.3583, 0.6647 -0.8819 0.3583, 0.6498 -0.8993 0.3583, 0.6773 -0.8965 0.3583, 0.6584 -0.9096 0.3583, 0.6642 -0.9218 0.3583, 0.5056 -0.9445 0.3583, 0.4807 -0.9508 0.3583, 0.5045 -0.9537 0.3583, 0.4806 -0.9544 0.3583, 0.505 -0.9595 0.3583, 0.4824 -0.9693 0.3583, 0.5077 -0.9688 0.3583, 0.4879 -0.9834 0.3583, 0.5122 -0.9765 0.3583, 0.4965 -0.9958 0.3583, 0.5084 -1.0059 0.3583, 0.5985 -1.0152 0.3583, 0.5764 -1.0076 0.3583, 0.594 -1.0237 0.3583, 0.5746 -1.0108 0.3583, 0.5882 -1.0302 0.3583, 0.5725 -1.0132 0.3583, 0.5806 -1.0354 0.3583, 0.5697 -1.0152 0.3583, 0.5722 -1.0387 0.3583, 0.5664 -1.0165 0.3583, 0.563 -1.0398 0.3583, 0.5626 -1.017 0.3583, 0.5615 -1.0398 0.3583, 0.5619 -1.017 0.3583, 0.5525 -1.0384 0.3583, 0.5585 -1.0165 0.3583, 0.5438 -1.0347 0.3583, 0.5551 -1.015 0.3583, 0.5522 -1.0128 0.3583, 0.5943 -0.8645 0.3583, 0.5995 -0.8868 0.3583, 0.6131 -0.8622 0.3583, 0.6134 -0.885 0.3583, 0.6293 -0.864 0.3583, 0.6263 -0.8865 0.3583, 0.6483 -0.8708 0.3583, 0.6382 -0.8911 0.3583, 0.6489 -0.8985 0.3583, 0.5131 -0.9002 0.3583, 0.501 -0.9087 0.3583, 0.5142 -0.9284 0.3583, 0.4984 -0.9111 0.3583, 0.5089 -0.936 0.3583, 0.4893 -0.9228 0.3583, 0.4833 -0.9365 0.3583, 0.6529 -0.9913 0.3583, 0.6438 -1.0108 0.3583, 0.6447 -1.0117 0.3583, 0.654 -0.9915 0.3583, 0.6471 -1.0134 0.3583, 0.6408 -1.003 0.3583, 0.6411 -1.0058 0.3583, 0.6421 -1.0084 0.3583, 0.6496 -0.9916 0.3583, 0.647 -0.9926 0.3583, 0.6409 -1.0015 0.3583, 0.6446 -0.9943 0.3583, 0.6431 -0.996 0.3583, 0.6416 -0.9986 0.3583, 0.6525 -0.9912 0.3583, 0.7111 -0.9303 0.3543, 0.7164 -0.9376 0.3543, 0.7197 -0.946 0.3543, 0.721 -0.9492 0.3543, 0.7227 -0.9616 0.3543, 0.7086 -0.9268 0.3543, 0.6983 -0.9181 0.3543, 0.687 -0.9125 0.3543, 0.6852 -0.9119 0.3543, 0.6773 -0.8965 0.3543, 0.6647 -0.8819 0.3543, 0.656 -0.8761 0.3543, 0.6483 -0.8708 0.3543, 0.6293 -0.864 0.3543, 0.6131 -0.8622 0.3543, 0.5675 -0.877 0.3543, 0.569 -0.8761 0.3543, 0.5768 -0.8712 0.3543, 0.5943 -0.8645 0.3543, 0.5586 -0.8846 0.3543, 0.5508 -0.8937 0.3543, 0.5464 -0.8932 0.3543, 0.5421 -0.8929 0.3543, 0.5271 -0.8948 0.3543, 0.5131 -0.9002 0.3543, 0.501 -0.9087 0.3543, 0.4984 -0.9111 0.3543, 0.4893 -0.9228 0.3543, 0.486 -0.9303 0.3543, 0.4833 -0.9365 0.3543, 0.4816 -0.946 0.3543, 0.4807 -0.9508 0.3543, 0.4806 -0.9544 0.3543, 0.4824 -0.9693 0.3543, 0.4879 -0.9834 0.3543, 0.4965 -0.9958 0.3543, 0.5084 -1.0059 0.3543, 0.5221 -1.0126 0.3543, 0.5269 -1.014 0.3543, 0.5274 -1.015 0.3543, 0.5307 -1.0222 0.3543, 0.5364 -1.0291 0.3543, 0.5438 -1.0347 0.3543, 0.5473 -1.0362 0.3543, 0.5525 -1.0384 0.3543, 0.5615 -1.0398 0.3543, 0.563 -1.0398 0.3543, 0.6009 -1.0019 0.3543, 0.5722 -1.0387 0.3543, 0.5787 -1.0362 0.3543, 0.5806 -1.0354 0.3543, 0.5882 -1.0302 0.3543, 0.594 -1.0237 0.3543, 0.5985 -1.0152 0.3543, 0.5985 -1.015 0.3543, 0.6007 -1.0058 0.3543, 0.6009 -0.9981 0.3543, 0.654 -0.97 0.3543, 0.6423 -0.9499 0.3543, 0.5914 -0.9764 0.3543, 0.5848 -0.9704 0.3543, 0.5767 -0.9661 0.3543, 0.5676 -0.9638 0.3543, 0.563 -0.9635 0.3543, 0.5539 -0.9646 0.3543, 0.5455 -0.9679 0.3543, 0.5377 -0.9732 0.3543, 0.5315 -0.9804 0.3543, 0.5273 -0.9886 0.3543, 0.519 -0.9835 0.3543, 0.5122 -0.9765 0.3543, 0.5077 -0.9688 0.3543, 0.505 -0.9595 0.3543, 0.5045 -0.9537 0.3543, 0.5055 -0.946 0.3543, 0.5056 -0.9445 0.3543, 0.5089 -0.936 0.3543, 0.5128 -0.9303 0.3543, 0.5142 -0.9284 0.3543, 0.5207 -0.9226 0.3543, 0.5291 -0.9181 0.3543, 0.5385 -0.9159 0.3543, 0.5425 -0.9157 0.3543, 0.5514 -0.9168 0.3543, 0.5599 -0.9199 0.3543, 0.5626 -0.9214 0.3543, 0.5684 -0.9094 0.3543, 0.5769 -0.8992 0.3543, 0.5871 -0.8918 0.3543, 0.5995 -0.8868 0.3543, 0.6134 -0.885 0.3543, 0.6666 -0.9324 0.3543, 0.6661 -0.9303 0.3543, 0.6642 -0.9218 0.3543, 0.6584 -0.9096 0.3543, 0.6498 -0.8993 0.3543, 0.6489 -0.8985 0.3543, 0.6382 -0.8911 0.3543, 0.6263 -0.8865 0.3543, 0.6696 -0.9324 0.3543, 0.6768 -0.9333 0.3543, 0.6835 -0.9358 0.3543, 0.6893 -0.94 0.3543, 0.6937 -0.9448 0.3543, 0.6943 -0.946 0.3543, 0.6972 -0.9514 0.3543, 0.699 -0.9586 0.3543, 0.6992 -0.962 0.3543, 0.6983 -0.9694 0.3543, 0.6957 -0.9762 0.3543, 0.6915 -0.9821 0.3543, 0.691 -0.9826 0.3543, 0.6854 -0.9872 0.3543, 0.6787 -0.9903 0.3543, 0.6719 -0.9916 0.3543, 0.6548 -0.9916 0.3543, 0.654 -0.9915 0.3543, 0.6529 -0.9913 0.3543, 0.6525 -0.9912 0.3543, 0.6496 -0.9916 0.3543, 0.647 -0.9926 0.3543, 0.6446 -0.9943 0.3543, 0.6431 -0.996 0.3543, 0.6416 -0.9986 0.3543, 0.6409 -1.0015 0.3543, 0.6408 -1.003 0.3543, 0.6411 -1.0058 0.3543, 0.6421 -1.0084 0.3543, 0.6438 -1.0108 0.3543, 0.6447 -1.0117 0.3543, 0.6471 -1.0134 0.3543, 0.6496 -1.0144 0.3543, 0.6518 -1.0148 0.3543, 0.6742 -1.0148 0.3543, 0.6868 -1.0121 0.3543, 0.6984 -1.0064 0.3543, 0.7087 -0.9977 0.3543, 0.7162 -0.9872 0.3543, 0.721 -0.9752 0.3543, 0.5626 -0.9874 0.3543, 0.5657 -0.9878 0.3543, 0.5693 -0.989 0.3543, 0.5723 -0.9911 0.3543, 0.5748 -0.9938 0.3543, 0.5764 -0.9969 0.3543, 0.5773 -1.0005 0.3543, 0.5773 -1.0039 0.3543, 0.5764 -1.0076 0.3543, 0.5746 -1.0108 0.3543, 0.5725 -1.0132 0.3543, 0.5697 -1.0152 0.3543, 0.5664 -1.0165 0.3543, 0.5626 -1.017 0.3543, 0.5619 -1.017 0.3543, 0.5585 -1.0165 0.3543, 0.5551 -1.015 0.3543, 0.5522 -1.0128 0.3543, 0.55 -1.0101 0.3543, 0.5485 -1.0069 0.3543, 0.5478 -1.0033 0.3543, 0.548 -0.9996 0.3543, 0.5491 -0.9961 0.3543, 0.5511 -0.9929 0.3543, 0.5526 -0.9913 0.3543, 0.5556 -0.9892 0.3543, 0.5589 -0.9879 0.3543, 0.5589 -0.9879 0.3543
            ]
        }
        coordIndex [
            0,1,2,-1,3,4,5,-1,6,7,8,-1,9,10,2,-1,2,10,11,-1,2,11,0,-1,5,4,12,-1,13,14,15,-1,15,14,16,-1,15,16,17,-1,18,19,15,-1,15,19,20,-1,15,20,13,-1,13,20,21,-1,22,23,24,-1,24,23,25,-1,24,25,26,-1,26,25,27,-1,26,27,28,-1,28,27,29,-1,28,29,30,-1,30,29,2,-1,30,2,31,-1,31,2,32,-1,33,34,22,-1,22,34,35,-1,22,35,23,-1,17,36,15,-1,15,36,37,-1,15,37,38,-1,38,37,39,-1,38,39,40,-1,41,42,43,-1,43,42,44,-1,43,44,45,-1,45,44,46,-1,45,46,47,-1,47,46,48,-1,6,8,49,-1,49,8,50,-1,49,50,51,-1,51,50,52,-1,51,52,53,-1,4,54,12,-1,12,54,55,-1,12,55,56,-1,56,55,57,-1,56,57,6,-1,6,57,58,-1,6,58,7,-1,21,20,22,-1,22,20,59,-1,22,59,33,-1,60,61,62,-1,62,61,63,-1,62,63,64,-1,64,63,65,-1,64,65,66,-1,66,65,67,-1,66,67,68,-1,68,67,69,-1,68,69,70,-1,32,2,71,-1,71,2,1,-1,71,1,72,-1,46,73,48,-1,48,73,74,-1,48,74,75,-1,75,74,76,-1,75,76,77,-1,77,76,78,-1,77,78,79,-1,79,78,80,-1,79,80,81,-1,81,80,82,-1,81,82,83,-1,83,82,84,-1,83,84,60,-1,60,84,85,-1,60,85,61,-1,86,87,88,-1,88,87,89,-1,88,89,43,-1,43,89,90,-1,43,90,41,-1,91,92,93,-1,93,92,94,-1,93,94,95,-1,95,94,96,-1,95,96,97,-1,97,96,98,-1,97,98,99,-1,99,98,100,-1,99,100,9,-1,9,100,101,-1,9,101,10,-1,40,39,102,-1,102,39,103,-1,102,103,104,-1,104,103,105,-1,104,105,106,-1,106,105,107,-1,106,107,108,-1,108,107,109,-1,108,109,110,-1,110,109,111,-1,110,111,112,-1,112,111,113,-1,112,113,114,-1,114,113,115,-1,114,115,116,-1,116,115,117,-1,116,117,118,-1,118,117,119,-1,118,119,1,-1,1,119,120,-1,1,120,72,-1,53,52,121,-1,121,52,122,-1,121,122,123,-1,123,122,124,-1,123,124,125,-1,125,124,126,-1,125,126,127,-1,127,126,128,-1,127,128,86,-1,86,128,129,-1,86,129,87,-1,5,130,3,-1,3,130,131,-1,3,131,132,-1,132,131,133,-1,132,133,134,-1,134,133,135,-1,134,135,91,-1,91,135,136,-1,91,136,92,-1,137,138,139,-1,69,140,70,-1,70,140,137,-1,70,137,141,-1,141,137,139,-1,142,143,137,-1,137,143,144,-1,137,144,138,-1,145,146,147,-1,146,148,147,-1,147,148,149,-1,147,149,150,-1,142,137,147,-1,147,137,151,-1,147,151,145,-1,152,48,153,-1,153,48,75,-1,153,75,154,-1,154,75,77,-1,154,77,155,-1,155,77,79,-1,155,79,156,-1,152,157,48,-1,48,157,158,-1,48,158,47,-1,47,158,159,-1,47,159,45,-1,45,159,160,-1,45,160,43,-1,43,160,161,-1,43,161,88,-1,88,161,162,-1,88,162,86,-1,86,162,127,-1,127,162,163,-1,163,164,127,-1,127,164,165,-1,127,165,125,-1,125,165,166,-1,125,166,123,-1,167,51,168,-1,168,51,53,-1,168,53,169,-1,169,53,121,-1,169,121,170,-1,170,121,123,-1,170,123,166,-1,51,167,171,-1,51,171,49,-1,49,171,172,-1,49,172,6,-1,6,172,173,-1,6,173,56,-1,56,173,174,-1,56,174,12,-1,12,174,175,-1,12,175,5,-1,5,175,176,-1,5,176,130,-1,130,176,177,-1,130,177,131,-1,131,177,178,-1,131,178,133,-1,136,135,179,-1,179,135,133,-1,179,133,178,-1,179,180,136,-1,136,180,181,-1,136,181,92,-1,92,181,182,-1,182,183,92,-1,92,183,184,-1,92,184,94,-1,94,184,185,-1,94,185,96,-1,96,185,186,-1,96,186,98,-1,98,186,187,-1,98,187,100,-1,100,187,188,-1,100,188,101,-1,101,188,189,-1,101,189,10,-1,10,189,190,-1,10,190,11,-1,11,190,191,-1,11,191,0,-1,191,192,0,-1,0,192,193,-1,0,193,1,-1,1,193,194,-1,1,194,118,-1,118,194,195,-1,118,195,116,-1,195,196,116,-1,116,196,197,-1,116,197,114,-1,114,197,198,-1,114,198,112,-1,199,38,40,-1,112,198,200,-1,112,200,110,-1,110,200,201,-1,110,201,108,-1,201,202,108,-1,108,202,203,-1,108,203,106,-1,106,203,204,-1,106,204,104,-1,104,204,205,-1,104,205,102,-1,102,205,206,-1,102,206,40,-1,40,206,207,-1,40,207,199,-1,15,38,208,-1,208,38,199,-1,18,15,209,-1,209,15,208,-1,19,18,210,-1,210,18,209,-1,20,19,211,-1,211,19,210,-1,20,211,212,-1,20,212,59,-1,59,212,213,-1,59,213,33,-1,33,213,214,-1,33,214,34,-1,34,214,215,-1,34,215,35,-1,35,215,216,-1,35,216,23,-1,23,216,217,-1,23,217,25,-1,25,217,218,-1,25,218,27,-1,27,218,219,-1,27,219,29,-1,29,219,220,-1,29,220,2,-1,2,220,221,-1,2,221,9,-1,9,221,222,-1,9,222,99,-1,99,222,223,-1,99,223,97,-1,97,223,224,-1,97,224,95,-1,95,224,225,-1,95,225,93,-1,93,225,226,-1,93,226,91,-1,91,226,227,-1,91,227,228,-1,229,132,228,-1,228,132,134,-1,228,134,91,-1,229,230,132,-1,132,230,231,-1,132,231,3,-1,3,231,232,-1,3,232,4,-1,4,232,233,-1,4,233,54,-1,54,233,234,-1,54,234,55,-1,55,234,235,-1,55,235,57,-1,57,235,236,-1,57,236,58,-1,58,236,237,-1,58,237,7,-1,7,237,238,-1,7,238,8,-1,8,238,239,-1,8,239,50,-1,50,239,240,-1,50,240,52,-1,52,240,241,-1,52,241,122,-1,122,241,242,-1,122,242,124,-1,243,41,244,-1,244,41,90,-1,244,90,245,-1,245,90,89,-1,245,89,246,-1,246,89,87,-1,246,87,247,-1,247,87,129,-1,247,129,248,-1,248,129,128,-1,248,128,249,-1,249,128,126,-1,249,126,250,-1,250,126,124,-1,250,124,242,-1,42,41,251,-1,251,41,243,-1,42,251,252,-1,42,252,44,-1,44,252,253,-1,44,253,46,-1,46,253,254,-1,46,254,73,-1,73,254,255,-1,73,255,74,-1,74,255,256,-1,74,256,76,-1,256,257,76,-1,76,257,258,-1,76,258,78,-1,78,258,259,-1,78,259,80,-1,80,259,260,-1,80,260,82,-1,82,260,261,-1,82,261,84,-1,84,261,262,-1,84,262,85,-1,85,262,263,-1,85,263,61,-1,61,263,264,-1,61,264,63,-1,63,264,265,-1,63,265,65,-1,65,265,266,-1,65,266,67,-1,69,67,267,-1,267,67,266,-1,69,267,268,-1,69,268,140,-1,140,268,269,-1,140,269,137,-1,137,269,270,-1,137,270,151,-1,151,270,271,-1,151,271,145,-1,145,271,272,-1,145,272,146,-1,146,272,273,-1,146,273,148,-1,148,273,274,-1,148,274,149,-1,149,274,275,-1,149,275,150,-1,150,275,276,-1,150,276,147,-1,147,276,277,-1,147,277,142,-1,142,277,278,-1,142,278,143,-1,143,278,279,-1,143,279,144,-1,144,279,280,-1,144,280,138,-1,138,280,281,-1,138,281,139,-1,139,281,282,-1,139,282,141,-1,141,282,283,-1,141,283,70,-1,70,283,284,-1,70,284,68,-1,66,68,285,-1,285,68,284,-1,66,285,286,-1,66,286,64,-1,64,286,287,-1,64,287,62,-1,62,287,288,-1,62,288,60,-1,60,288,289,-1,60,289,83,-1,83,289,290,-1,83,290,81,-1,81,290,156,-1,81,156,79,-1,21,291,292,-1,21,292,13,-1,13,292,293,-1,13,293,14,-1,14,293,294,-1,14,294,16,-1,16,294,295,-1,16,295,17,-1,17,295,296,-1,17,296,36,-1,36,296,297,-1,36,297,37,-1,37,297,298,-1,37,298,39,-1,39,298,299,-1,39,299,103,-1,103,299,300,-1,103,300,105,-1,105,300,301,-1,105,301,107,-1,107,301,302,-1,107,302,109,-1,109,302,303,-1,109,303,111,-1,111,303,304,-1,111,304,113,-1,113,304,305,-1,113,305,115,-1,115,305,306,-1,115,306,117,-1,117,306,307,-1,117,307,119,-1,119,307,308,-1,119,308,120,-1,120,308,309,-1,120,309,72,-1,72,309,310,-1,72,310,71,-1,71,310,311,-1,71,311,32,-1,32,311,312,-1,32,312,31,-1,31,312,313,-1,31,313,30,-1,30,313,314,-1,30,314,28,-1,28,314,315,-1,28,315,26,-1,26,315,316,-1,26,316,24,-1,24,316,317,-1,24,317,22,-1,22,317,291,-1,22,291,21,-1,
        ]
    }
}
Shape{
    appearance Appearance {
        material  Material 	{
            diffuseColor 0.8509803921568627 0.8509803921568627 0.8509803921568627
            specularColor 0.4235294117647059 0.4235294117647059 0.4235294117647059
            ambientIntensity 0.2
            transparency 0
            shininess 0.5
        }
    }
    geometry IndexedFaceSet {
        ccw TRUE
        solid FALSE
        coord DEF co Coordinate {
            point [
                0.5619 -1.017 0.3543, 0.5526 -0.9913 0.3543, 0.5511 -0.9929 0.3543, 0.5664 -1.0165 0.3543, 0.5697 -1.0152 0.3543, 0.5657 -0.9878 0.3543, 0.5626 -0.9874 0.3543, 0.5589 -0.9879 0.3543, 0.5556 -0.9892 0.3543, 0.5485 -1.0069 0.3543, 0.55 -1.0101 0.3543, 0.5522 -1.0128 0.3543, 0.5626 -1.017 0.3543, 0.5491 -0.9961 0.3543, 0.548 -0.9996 0.3543, 0.5478 -1.0033 0.3543, 0.5551 -1.015 0.3543, 0.5585 -1.0165 0.3543, 0.5725 -1.0132 0.3543, 0.5746 -1.0108 0.3543, 0.5764 -1.0076 0.3543, 0.5773 -1.0039 0.3543, 0.5773 -1.0005 0.3543, 0.5764 -0.9969 0.3543, 0.5748 -0.9938 0.3543, 0.5723 -0.9911 0.3543, 0.5693 -0.989 0.3543, 0.5693 -0.989 0.3543
            ]
        }
        coordIndex [
            0,1,2,-1,3,4,5,-1,6,7,0,-1,0,7,8,-1,0,8,1,-1,9,10,2,-1,2,10,11,-1,6,0,5,-1,5,0,12,-1,5,12,3,-1,13,14,2,-1,2,14,15,-1,2,15,9,-1,11,16,2,-1,2,16,17,-1,2,17,0,-1,4,18,5,-1,5,18,19,-1,5,19,20,-1,20,21,5,-1,5,21,22,-1,5,22,23,-1,23,24,5,-1,5,24,25,-1,5,25,26,-1,
        ]
    }
}