#VRML V2.0 utf8
# 3D model generated by easyeda2kicad.py (https://github.com/uPesy/easyeda2kicad.py)

Shape{
    appearance Appearance {
        material  Material 	{
            diffuseColor 0.5882352941176471 0.5725490196078431 0.5254901960784314
            specularColor 0.043137254901960784 0.0392156862745098 0.0392156862745098
            ambientIntensity 0.2
            transparency 0
            shininess 0.5
        }
    }
    geometry IndexedFaceSet {
        ccw TRUE
        solid FALSE
        coord DEF co Coordinate {
            point [
                -1.0433 -0.5224 -0.3445, -1.0433 -0.3937 -0.3445, -0.0791 -0.3937 -0.3445, -1.2402 -1.063 -0.3445, -1.2402 -0.9843 -0.3445, -1.0433 -0.9843 -0.3445, -1.0433 -0.9449 -0.3445, -0.372 -0.6012 -0.3445, -0.4488 -0.798 -0.3445, -1.0433 -0.6 -0.3445, -0.0791 -0.6 -0.3445, -0.3456 -0.6012 -0.3445, -0.4001 -0.7428 -0.3445, -0.3188 -0.7428 -0.3445, -0.42 -0.798 -0.3445, -0.3 -0.798 -0.3445, -0.2054 -0.6123 -0.3445, -0.2249 -0.625 -0.3445, -0.2199 -0.7769 -0.3445, -0.1995 -0.7889 -0.3445, -0.0791 -1.063 -0.3445, -0.1768 -0.7958 -0.3445, -0.247 -0.744 -0.3445, -0.2359 -0.7614 -0.3445, -0.2712 -0.798 -0.3445, -0.1519 -0.798 -0.3445, -0.0983 -0.798 -0.3445, -0.0983 -0.6012 -0.3445, -0.1539 -0.6012 -0.3445, -0.1823 -0.6042 -0.3445, -0.2325 -0.6321 -0.3445, -0.2443 -0.6475 -0.3445, -0.2526 -0.6666 -0.3445, -0.2564 -0.6874 -0.3445, -0.2568 -0.6971 -0.3445, -0.254 -0.7235 -0.3445, 0.0457 -0.798 -0.3445, 0.0457 -0.6012 -0.3445, 0.0841 -0.633 -0.3445, 0.0841 -0.6066 -0.3445, 0.2277 -0.6754 -0.3445, 0.2201 -0.6529 -0.3445, 0.3218 -0.6012 -0.3445, 0.113 -0.6 -0.3445, 0.1069 -0.6004 -0.3445, 0.1302 -0.6204 -0.3445, 0.0876 -0.7682 -0.3445, 0.1063 -0.6235 -0.3445, 0.0841 -0.7662 -0.3445, 0.2084 -0.6343 -0.3445, 0.1912 -0.6178 -0.3445, 0.1728 -0.6071 -0.3445, 1.2402 -1.063 -0.3445, 0.3482 -0.798 -0.3445, 0.2473 -0.798 -0.3445, 0.1512 -0.6006 -0.3445, 0.1444 -0.6 -0.3445, 0.3482 -0.6012 -0.3445, -0.0599 -0.798 -0.3445, -0.0551 -0.6012 -0.3445, -0.0551 -0.6228 -0.3445, -0.0599 -0.7764 -0.3445, 0.1496 -0.6226 -0.3445, 0.1642 -0.6279 -0.3445, 0.1782 -0.6372 -0.3445, 0.19 -0.6504 -0.3445, 0.1981 -0.6656 -0.3445, 0.2033 -0.687 -0.3445, 0.2041 -0.7017 -0.3445, 0.2021 -0.723 -0.3445, 0.1968 -0.74 -0.3445, 0.1346 -0.7788 -0.3445, 0.1795 -0.7633 -0.3445, 0.1529 -0.7768 -0.3445, 0.1674 -0.7715 -0.3445, 0.1886 -0.7536 -0.3445, 0.1085 -0.7759 -0.3445, 0.2305 -0.7033 -0.3445, 0.3218 -0.7764 -0.3445, 0.2286 -0.7263 -0.3445, 0.0193 -0.7092 -0.3445, 0.0193 -0.7764 -0.3445, -0.0503 -0.7092 -0.3445, -0.0503 -0.6876 -0.3445, 0.0193 -0.6876 -0.3445, 0.0193 -0.6228 -0.3445, 0.2225 -0.7474 -0.3445, 0.2473 -0.7764 -0.3445, 0.212 -0.766 -0.3445, 0.1976 -0.7811 -0.3445, 0.0841 -0.7878 -0.3445, 0.1051 -0.7965 -0.3445, 0.1329 -0.8004 -0.3445, 0.1383 -0.8004 -0.3445, 0.1625 -0.7979 -0.3445, 0.1816 -0.7914 -0.3445, 0.1304 -0.5988 -0.3445, 1.0433 -0.3937 -0.3445, 1.0433 -0.5224 -0.3445, 1.0433 -0.6 -0.3445, 1.0433 -0.9449 -0.3445, 1.0433 -0.9843 -0.3445, 1.2402 -0.9843 -0.3445, 0.6634 -0.1575 0.2461, 0.6634 -0.1575 -0.2657, 0.6594 -0.1575 0.2461, 0.6594 -0.1575 -0.2657, 0.6634 -0.0394 0.2461, 0.6594 -0.0394 0.2461, 0.6004 -0.0394 0.2461, 0.6004 -0.1575 0.2461, 0.5965 -0.1575 0.2461, 0.5965 -0.0394 0.2461, 0.5571 -0.0 0.2461, 0.7028 -0.0 0.2461, 0.3484 -0.1575 0.2461, 0.3484 -0.1575 -0.2657, 0.3445 -0.1575 0.2461, 0.3445 -0.1575 -0.2657, 0.3484 -0.0394 0.2461, 0.3445 -0.0394 0.2461, 0.2854 -0.0394 0.2461, 0.2854 -0.1575 0.2461, 0.2815 -0.1575 0.2461, 0.2815 -0.0394 0.2461, 0.2421 -0.0 0.2461, 0.3878 -0.0 0.2461, 0.0335 -0.1575 0.2461, 0.0335 -0.1575 -0.2657, 0.0295 -0.1575 0.2461, 0.0295 -0.1575 -0.2657, 0.0335 -0.0394 0.2461, 0.0295 -0.0394 0.2461, -0.0295 -0.0394 0.2461, -0.0295 -0.1575 0.2461, -0.0335 -0.1575 0.2461, -0.0335 -0.0394 0.2461, -0.0728 -0.0 0.2461, 0.0728 -0.0 0.2461, -0.2815 -0.1575 0.2461, -0.2815 -0.1575 -0.2657, -0.2854 -0.1575 0.2461, -0.2854 -0.1575 -0.2657, -0.2815 -0.0394 0.2461, -0.2854 -0.0394 0.2461, -0.3445 -0.0394 0.2461, -0.3445 -0.1575 0.2461, -0.3484 -0.1575 0.2461, -0.3484 -0.0394 0.2461, -0.3878 -0.0 0.2461, -0.2421 -0.0 0.2461, -0.5965 -0.1575 0.2461, -0.5965 -0.1575 -0.2657, -0.6004 -0.1575 0.2461, -0.6004 -0.1575 -0.2657, -0.5965 -0.0394 0.2461, -0.6004 -0.0394 0.2461, -0.6594 -0.0394 0.2461, -0.6594 -0.1575 0.2461, -0.6634 -0.1575 0.2461, -0.6634 -0.0394 0.2461, -0.7028 -0.0 0.2461, -0.5571 -0.0 0.2461, 1.0433 -0.9843 -0.2657, 1.0433 -0.9449 -0.2657, 1.2402 -0.9843 -0.2657, 1.122 -0.9449 -0.2657, 1.122 -0.1181 -0.2657, 1.1614 -0.0787 -0.2657, 1.2402 -0.0787 -0.2657, -1.1614 -0.0787 -0.2657, -1.122 -0.1181 -0.2657, -1.122 -0.9449 -0.2657, -1.2402 -0.0787 -0.2657, -1.2402 -0.9843 -0.2657, -1.0433 -0.9843 -0.2657, -1.0433 -0.9449 -0.2657, -1.122 -0.1181 0.3445, -1.122 -0.2165 0.3445, -1.122 -0.1181 0.3406, -1.122 -0.2165 0.3406, -1.0433 -0.2165 0.3445, -1.0433 -0.2165 0.3406, -1.0433 -0.1181 0.3445, -1.0433 -0.1181 0.3406, -1.0433 -0.3959 -0.2776, -1.0433 -0.3268 -0.2776, -1.0433 -0.4156 -0.2828, -1.0433 -0.4094 -0.2799, -1.0433 -0.4027 -0.2782, 0.9646 -1.063 -0.0492, 0.8858 -1.063 -0.0492, 0.8858 -1.063 -0.2854, 1.2402 -1.063 0.3445, 0.9646 -1.063 0.187, -0.8858 -1.063 -0.2854, -0.8858 -1.063 -0.0492, -0.9646 -1.063 -0.0492, -1.2402 -1.063 0.3445, -0.9646 -1.063 0.187, 0.8858 -1.063 0.187, 0.8858 -1.063 0.2854, -0.8858 -1.063 0.2854, -0.8858 -1.063 0.187, 0.8465 -1.0236 0.2461, 0.8465 -0.2756 0.2461, 0.8465 -1.0236 0.187, 0.8465 -0.2756 0.187, 0.8465 -0.2756 -0.2461, 0.8465 -1.0236 -0.2461, 0.8465 -0.2756 -0.2172, 0.8465 -1.0236 -0.0492, 0.8465 -0.2756 -0.0492, 0.1575 -0.2756 -0.2461, 0.2854 -0.2756 0.1158, 0.2854 -0.2756 0.2461, 0.1575 -0.2756 0.2461, 0.8071 -0.2756 0.187, 0.6594 -0.2756 0.2461, 0.8071 -0.2756 -0.0492, 0.6594 -0.2756 0.1158, 0.6594 -0.2756 -0.1884, 0.6004 -0.2756 -0.1884, 0.6004 -0.2756 -0.0317, 0.3445 -0.2756 -0.0317, 0.3445 -0.2756 -0.1884, 0.2854 -0.2756 -0.1884, 0.1575 -0.2756 -0.2172, 0.2854 -0.2756 -0.0317, 0.6594 -0.2756 -0.0317, 0.6004 -0.2756 0.1158, -0.8071 -0.2756 -0.0492, -0.6594 -0.2756 -0.1884, -0.8071 -0.2756 0.187, -0.6594 -0.2756 -0.0317, -0.8465 -0.2756 -0.0492, -0.8465 -0.2756 -0.2172, -0.6004 -0.2756 -0.1884, -0.2854 -0.2756 -0.1884, -0.3445 -0.2756 -0.1884, -0.8465 -0.2756 0.2461, -0.8465 -0.2756 0.187, -0.6594 -0.2756 0.2461, -0.6594 -0.2756 0.1158, -0.6004 -0.2756 0.1158, -0.6004 -0.2756 -0.0317, -0.3445 -0.2756 -0.0317, -0.6004 -0.2756 0.2461, -0.3445 -0.2756 0.2461, -0.3445 -0.2756 0.1158, -0.2854 -0.2756 0.1158, -0.2854 -0.2756 -0.0317, 0.0295 -0.2756 -0.0317, 0.0295 -0.2756 -0.1884, -0.0295 -0.2756 -0.1884, -0.0295 -0.2756 -0.0317, 0.0295 -0.2756 0.2461, 0.0295 -0.2756 0.1158, -0.2854 -0.2756 0.2461, -0.0295 -0.2756 0.2461, -0.0295 -0.2756 0.1158, 0.3445 -0.2756 0.1158, 0.3445 -0.2756 0.2461, 0.6004 -0.2756 0.2461, -0.8465 -0.2756 -0.2461, -0.8465 -1.0236 -0.0492, -0.8465 -1.0236 -0.2461, -1.1614 -0.0787 0.3445, -1.2402 -0.0787 0.3445, 1.1614 -0.0787 0.3445, 1.122 -0.1181 0.3445, 1.2402 -0.0787 0.3445, 1.122 -0.2165 0.3445, 1.0433 -0.1181 0.3445, 1.0039 -0.0787 0.3445, 1.0433 -0.2165 0.3445, 0.9646 -0.0787 0.3445, 0.9646 -0.0 0.3445, -0.9646 -0.0 0.3445, -0.9646 -0.0787 0.3445, -1.0039 -0.0787 0.3445, -0.7028 0.0 -0.2657, -0.6634 -0.0394 -0.2657, -0.6634 -0.1575 -0.2657, -1.0433 -0.1181 -0.2657, -1.0039 -0.0787 -0.2657, -1.0433 -0.315 -0.2657, -0.9646 -0.0787 -0.2657, -0.9646 0.0 -0.2657, -0.6594 -0.1575 -0.2657, 1.0433 -0.315 -0.2657, -0.5571 0.0 -0.2657, -0.3878 0.0 -0.2657, -0.5965 -0.0394 -0.2657, -0.3484 -0.0394 -0.2657, -0.3484 -0.1575 -0.2657, -0.3445 -0.1575 -0.2657, -0.0728 0.0 -0.2657, -0.0335 -0.0394 -0.2657, -0.2421 0.0 -0.2657, -0.0335 -0.1575 -0.2657, -0.2815 -0.0394 -0.2657, -0.0295 -0.1575 -0.2657, 0.0728 0.0 -0.2657, 0.2421 0.0 -0.2657, 0.0335 -0.0394 -0.2657, 0.2815 -0.0394 -0.2657, 0.2815 -0.1575 -0.2657, 0.2854 -0.1575 -0.2657, 0.5571 0.0 -0.2657, 0.5965 -0.0394 -0.2657, 0.3878 0.0 -0.2657, 0.5965 -0.1575 -0.2657, 0.3484 -0.0394 -0.2657, 0.6004 -0.1575 -0.2657, 0.9646 0.0 -0.2657, 0.9646 -0.0787 -0.2657, 0.7028 0.0 -0.2657, 0.6634 -0.0394 -0.2657, 1.0039 -0.0787 -0.2657, 1.0433 -0.1181 -0.2657, 1.0433 -0.3268 -0.2776, -0.8465 -1.0236 0.187, -0.8465 -1.0236 0.2461, -0.6004 -0.899 0.2461, -0.3445 -0.899 0.2461, -0.6594 -0.899 0.2461, -0.2854 -0.899 0.2461, 0.2854 -0.899 0.2461, 0.3445 -0.899 0.2461, 0.0295 -0.899 0.2461, 0.6594 -0.899 0.2461, 0.6004 -0.899 0.2461, -0.0295 -0.899 0.2461, 1.0433 -0.1181 0.3406, 1.0433 -0.2165 0.3406, 1.122 -0.2165 0.3406, 1.122 -0.1181 0.3406, 1.0433 -0.3959 -0.2776, 1.0433 -0.4061 -0.2789, 1.0433 -0.4156 -0.2828, -0.8071 -0.1969 -0.0492, -0.8071 -0.1969 0.187, -0.9646 -0.1969 -0.0492, -0.9646 -0.1969 0.187, 0.8071 -0.1969 -0.0492, 0.8071 -0.1969 0.187, 0.9646 -0.1969 0.187, 0.9646 -0.1969 -0.0492, 0.9646 -0.1969 -0.0492
            ]
        }
        coordIndex [
            0,1,2,-1,3,4,5,-1,6,7,5,-1,5,7,8,-1,5,8,3,-1,6,9,7,-1,7,9,10,-1,7,10,11,-1,12,13,14,-1,14,13,15,-1,11,16,17,-1,18,19,20,-1,20,19,21,-1,22,23,24,-1,23,18,24,-1,24,18,20,-1,24,20,15,-1,15,20,3,-1,15,3,14,-1,14,3,8,-1,21,25,20,-1,20,25,26,-1,20,26,10,-1,26,27,10,-1,10,27,28,-1,10,28,11,-1,11,28,29,-1,11,29,16,-1,17,30,11,-1,11,30,31,-1,11,31,32,-1,32,33,11,-1,11,33,34,-1,11,34,24,-1,24,34,35,-1,24,35,22,-1,36,37,38,-1,38,37,39,-1,40,41,42,-1,10,43,37,-1,37,43,44,-1,37,44,39,-1,45,46,47,-1,47,46,48,-1,47,48,38,-1,41,49,42,-1,42,49,50,-1,42,50,51,-1,52,20,53,-1,53,20,54,-1,51,55,42,-1,42,55,56,-1,42,56,57,-1,20,58,36,-1,37,59,10,-1,10,59,60,-1,10,60,20,-1,20,60,61,-1,20,61,58,-1,45,62,46,-1,46,62,63,-1,46,63,64,-1,64,65,46,-1,46,65,66,-1,46,66,67,-1,67,68,46,-1,46,68,69,-1,46,69,70,-1,71,72,73,-1,73,72,74,-1,70,75,46,-1,46,75,72,-1,46,72,76,-1,76,72,71,-1,40,42,77,-1,77,42,78,-1,77,78,79,-1,80,81,82,-1,82,81,61,-1,82,61,83,-1,83,61,60,-1,83,60,84,-1,84,60,85,-1,79,78,86,-1,86,78,87,-1,86,87,88,-1,88,87,54,-1,88,54,89,-1,38,48,36,-1,36,48,90,-1,36,90,20,-1,20,90,91,-1,20,91,92,-1,92,93,20,-1,20,93,94,-1,20,94,54,-1,54,94,95,-1,54,95,89,-1,9,0,10,-1,10,0,2,-1,10,2,43,-1,43,2,96,-1,2,97,96,-1,96,97,98,-1,96,98,56,-1,56,98,99,-1,56,99,57,-1,57,99,100,-1,57,100,53,-1,53,100,101,-1,53,101,52,-1,52,101,102,-1,103,104,105,-1,105,104,106,-1,103,105,107,-1,107,105,108,-1,109,110,111,-1,111,112,109,-1,109,112,113,-1,109,113,108,-1,108,113,114,-1,108,114,107,-1,115,116,117,-1,117,116,118,-1,115,117,119,-1,119,117,120,-1,121,122,123,-1,123,124,121,-1,121,124,125,-1,121,125,120,-1,120,125,126,-1,120,126,119,-1,127,128,129,-1,129,128,130,-1,127,129,131,-1,131,129,132,-1,133,134,135,-1,135,136,133,-1,133,136,137,-1,133,137,132,-1,132,137,138,-1,132,138,131,-1,139,140,141,-1,141,140,142,-1,139,141,143,-1,143,141,144,-1,145,146,147,-1,147,148,145,-1,145,148,149,-1,145,149,144,-1,144,149,150,-1,144,150,143,-1,151,152,153,-1,153,152,154,-1,151,153,155,-1,155,153,156,-1,157,158,159,-1,159,160,157,-1,157,160,161,-1,157,161,156,-1,156,161,162,-1,156,162,155,-1,163,164,165,-1,165,164,166,-1,166,167,165,-1,165,167,168,-1,165,168,169,-1,164,163,100,-1,100,163,101,-1,170,171,172,-1,173,170,174,-1,174,170,172,-1,174,172,175,-1,175,172,176,-1,177,178,179,-1,179,178,180,-1,178,181,180,-1,180,181,182,-1,181,183,182,-1,182,183,184,-1,185,186,1,-1,1,0,187,-1,187,188,1,-1,1,188,189,-1,1,189,185,-1,6,5,176,-1,176,5,175,-1,190,191,192,-1,52,193,194,-1,194,190,52,-1,52,190,192,-1,52,192,20,-1,20,192,195,-1,20,195,3,-1,195,196,3,-1,3,196,197,-1,3,197,198,-1,198,197,199,-1,200,194,201,-1,201,194,193,-1,201,193,202,-1,202,193,198,-1,202,198,203,-1,203,198,199,-1,204,205,206,-1,206,205,207,-1,208,209,210,-1,210,209,211,-1,210,211,212,-1,213,208,210,-1,214,215,216,-1,207,205,217,-1,217,205,218,-1,217,218,219,-1,219,218,220,-1,210,221,222,-1,223,224,225,-1,225,226,227,-1,227,226,228,-1,210,212,221,-1,221,212,219,-1,221,219,229,-1,229,219,220,-1,229,220,223,-1,223,220,230,-1,223,230,224,-1,224,230,228,-1,231,232,233,-1,233,232,234,-1,231,235,232,-1,232,235,236,-1,232,236,237,-1,227,238,239,-1,240,241,242,-1,242,241,233,-1,242,233,243,-1,243,233,234,-1,243,234,244,-1,244,234,245,-1,239,246,237,-1,237,246,245,-1,247,244,248,-1,248,244,245,-1,248,245,249,-1,249,245,246,-1,249,246,250,-1,250,246,251,-1,252,253,227,-1,227,253,254,-1,227,254,238,-1,238,254,255,-1,238,255,251,-1,216,256,257,-1,258,250,259,-1,259,250,251,-1,259,251,260,-1,260,251,255,-1,260,255,257,-1,257,255,252,-1,257,252,216,-1,216,252,227,-1,216,227,214,-1,214,227,228,-1,214,228,261,-1,261,228,230,-1,261,230,262,-1,262,230,263,-1,239,237,227,-1,227,237,236,-1,227,236,264,-1,264,213,227,-1,227,213,210,-1,227,210,225,-1,225,210,222,-1,225,222,223,-1,200,201,206,-1,206,201,204,-1,211,209,191,-1,191,209,192,-1,235,265,236,-1,236,265,266,-1,236,266,264,-1,195,266,196,-1,196,266,265,-1,181,178,198,-1,177,267,178,-1,178,267,268,-1,178,268,198,-1,269,270,271,-1,271,270,272,-1,271,272,193,-1,193,272,198,-1,273,274,275,-1,275,274,276,-1,277,278,276,-1,276,278,279,-1,280,183,279,-1,279,183,181,-1,279,181,276,-1,276,181,198,-1,276,198,275,-1,275,198,272,-1,281,282,283,-1,284,285,286,-1,286,285,287,-1,288,281,287,-1,287,281,283,-1,287,283,286,-1,286,283,289,-1,286,289,290,-1,290,289,154,-1,290,154,152,-1,142,140,290,-1,291,292,293,-1,293,292,294,-1,293,294,152,-1,152,294,295,-1,152,295,290,-1,290,295,296,-1,290,296,142,-1,297,298,299,-1,299,298,300,-1,299,300,301,-1,301,300,140,-1,130,128,290,-1,140,300,290,-1,290,300,302,-1,290,302,130,-1,118,116,290,-1,303,304,305,-1,305,304,306,-1,305,306,128,-1,128,306,307,-1,128,307,290,-1,290,307,308,-1,290,308,118,-1,309,310,311,-1,311,310,312,-1,311,312,313,-1,313,312,116,-1,116,312,290,-1,290,312,314,-1,290,314,106,-1,315,316,317,-1,317,316,104,-1,317,104,318,-1,319,320,316,-1,316,320,290,-1,316,290,104,-1,104,290,106,-1,319,316,274,-1,274,316,276,-1,269,271,168,-1,168,271,169,-1,52,102,165,-1,169,271,165,-1,165,271,193,-1,165,193,52,-1,277,315,317,-1,309,311,113,-1,113,311,126,-1,317,114,277,-1,277,114,113,-1,277,113,278,-1,278,113,126,-1,278,126,125,-1,137,297,299,-1,150,149,278,-1,299,150,137,-1,137,150,278,-1,137,278,138,-1,138,278,125,-1,138,125,303,-1,303,125,304,-1,281,288,161,-1,161,288,278,-1,161,278,162,-1,162,278,149,-1,162,149,291,-1,291,149,292,-1,4,3,174,-1,174,3,198,-1,174,198,173,-1,173,198,268,-1,286,2,186,-1,186,2,1,-1,97,2,321,-1,321,2,286,-1,321,286,290,-1,170,173,267,-1,267,173,268,-1,264,266,213,-1,213,266,209,-1,213,209,208,-1,241,240,322,-1,322,240,323,-1,323,240,242,-1,247,248,324,-1,324,248,325,-1,242,326,323,-1,323,326,324,-1,323,324,204,-1,204,324,325,-1,204,325,327,-1,328,329,204,-1,330,256,216,-1,218,205,331,-1,331,205,204,-1,331,204,332,-1,332,204,329,-1,332,329,263,-1,263,329,262,-1,258,259,327,-1,327,259,333,-1,327,333,204,-1,204,333,330,-1,204,330,328,-1,328,330,216,-1,328,216,215,-1,323,202,322,-1,322,202,203,-1,192,209,195,-1,195,209,266,-1,204,201,323,-1,323,201,202,-1,280,279,285,-1,285,279,287,-1,279,278,287,-1,287,278,288,-1,171,170,179,-1,179,170,267,-1,179,267,177,-1,183,280,184,-1,184,280,285,-1,184,285,284,-1,174,175,4,-1,4,175,5,-1,277,276,315,-1,315,276,316,-1,320,319,334,-1,334,319,274,-1,334,274,273,-1,273,275,334,-1,334,275,335,-1,275,272,335,-1,335,272,336,-1,272,270,336,-1,336,270,337,-1,270,269,337,-1,337,269,168,-1,337,168,167,-1,165,102,163,-1,163,102,101,-1,97,321,338,-1,338,339,97,-1,97,339,340,-1,97,340,98,-1,341,231,342,-1,342,231,233,-1,196,265,235,-1,197,196,343,-1,343,196,235,-1,343,235,341,-1,341,235,231,-1,342,233,344,-1,344,233,241,-1,241,322,344,-1,344,322,203,-1,344,203,199,-1,343,344,197,-1,197,344,199,-1,344,343,342,-1,342,343,341,-1,345,346,219,-1,219,346,217,-1,200,206,207,-1,194,200,347,-1,347,200,207,-1,347,207,346,-1,346,207,217,-1,345,219,348,-1,348,219,212,-1,212,211,348,-1,348,211,191,-1,348,191,190,-1,347,348,194,-1,194,348,190,-1,348,347,345,-1,345,347,346,-1,160,159,282,-1,282,159,283,-1,289,283,158,-1,158,283,159,-1,293,152,155,-1,155,152,151,-1,291,293,162,-1,162,293,155,-1,282,281,160,-1,160,281,161,-1,112,111,310,-1,310,111,312,-1,314,312,110,-1,110,312,111,-1,318,104,107,-1,107,104,103,-1,124,123,306,-1,306,123,307,-1,308,307,122,-1,122,307,123,-1,313,116,119,-1,119,116,115,-1,136,135,298,-1,298,135,300,-1,302,300,134,-1,134,300,135,-1,305,128,131,-1,131,128,127,-1,148,147,294,-1,294,147,295,-1,296,295,146,-1,146,295,147,-1,301,140,143,-1,143,140,139,-1,299,301,150,-1,150,301,143,-1,294,292,148,-1,148,292,149,-1,303,305,138,-1,138,305,131,-1,298,297,136,-1,136,297,137,-1,311,313,126,-1,126,313,119,-1,306,304,124,-1,124,304,125,-1,317,318,114,-1,114,318,107,-1,310,309,112,-1,112,309,113,-1,
        ]
    }
}
Shape{
    appearance Appearance {
        material  Material 	{
            diffuseColor 0.6666666666666666 0.6666666666666666 0.6666666666666666
            specularColor 0.4666666666666667 0.4666666666666667 0.4666666666666667
            ambientIntensity 0.2
            transparency 0
            shininess 0.5
        }
    }
    geometry IndexedFaceSet {
        ccw TRUE
        solid FALSE
        coord DEF co Coordinate {
            point [
                -1.122 -0.4027 -0.2782, -1.122 -0.9449 -0.2657, -1.122 -0.3959 -0.2776, -1.122 -0.1181 -0.2657, -1.122 -0.4094 -0.2799, -1.122 -0.4156 -0.2828, -1.122 -0.9449 -0.3445, -1.122 -0.5814 -0.3786, -1.122 -0.0639 0.0123, -1.122 -0.0718 0.0063, -1.122 -0.1181 0.3406, -1.122 -0.078 -0.0016, -1.122 -0.082 -0.0107, -1.122 -0.0836 -0.0206, -1.122 -0.0826 -0.0305, -1.122 -0.0792 -0.0399, -1.122 -0.0735 -0.0481, -1.122 -0.066 -0.0546, -1.122 -0.057 -0.059, -1.122 -0.0472 -0.061, -1.122 -0.0472 -0.2382, -1.122 -0.0486 -0.2484, -1.122 -0.0669 -0.2723, -1.122 -0.0764 -0.2762, -1.122 -0.0866 -0.2776, -1.122 -0.9396 -0.3642, -1.122 -0.9055 -0.3839, -1.122 -0.9334 -0.3723, -1.122 -0.9157 -0.3825, -1.122 -0.9252 -0.3786, -1.122 -0.9435 -0.3547, -1.122 -0.6011 -0.3839, -1.122 -0.5909 -0.3825, -1.122 0.0472 0.3406, -1.122 0.0472 0.0992, -1.122 0.0459 0.089, -1.122 0.042 0.0795, -1.122 0.0357 0.0714, -1.122 0.0276 0.0651, -1.122 -0.0525 -0.2579, -1.122 -0.0588 -0.266, -1.0433 -0.6011 -0.3839, -1.0433 -0.5909 -0.3825, -1.0433 -0.6 -0.3445, -1.0433 -0.5814 -0.3786, -1.0433 -0.5224 -0.3445, -1.0433 -0.9435 -0.3547, -1.0433 -0.9396 -0.3642, -1.0433 -0.9055 -0.3839, -1.0433 -0.9334 -0.3723, -1.0433 -0.9157 -0.3825, -1.0433 -0.9252 -0.3786, -1.0433 -0.9449 -0.3445, -1.0433 0.0472 0.0992, -1.0433 0.0472 0.3406, -1.0433 -0.1181 0.3406, -1.0433 -0.315 -0.2657, -1.0433 -0.3268 -0.2776, -1.0433 -0.1181 -0.2657, -1.0433 -0.0866 -0.2776, -1.0433 -0.0792 -0.0399, -1.0433 -0.0735 -0.0481, -1.0433 -0.066 -0.0546, -1.0433 -0.0826 -0.0305, -1.0433 -0.0836 -0.0206, -1.0433 -0.082 -0.0107, -1.0433 -0.078 -0.0016, -1.0433 -0.057 -0.059, -1.0433 -0.0472 -0.2382, -1.0433 -0.0472 -0.061, -1.0433 -0.0764 -0.2762, -1.0433 -0.0669 -0.2723, -1.0433 -0.0588 -0.266, -1.0433 0.0276 0.0651, -1.0433 0.0357 0.0714, -1.0433 0.042 0.0795, -1.0433 -0.0525 -0.2579, -1.0433 -0.0486 -0.2484, -1.0433 -0.0718 0.0063, -1.0433 -0.0639 0.0123, -1.0433 0.0459 0.089, -1.0433 -0.2165 0.3406, -1.122 -0.2165 0.3406, -1.0433 -0.3959 -0.2776, -1.0433 -0.4027 -0.2782, -1.0433 -0.4094 -0.2799, -1.0433 -0.4156 -0.2828, -1.0433 -0.9449 -0.2657, 1.0433 -0.6 -0.3445, 1.0433 -0.5224 -0.3445, 1.0433 -0.5814 -0.3786, 1.0433 -0.5909 -0.3825, 1.0433 -0.6011 -0.3839, 1.0433 -0.9449 -0.3445, 1.0433 -0.9396 -0.3642, 1.0433 -0.9157 -0.3825, 1.0433 -0.9334 -0.3723, 1.0433 -0.9252 -0.3786, 1.0433 -0.9055 -0.3839, 1.0433 -0.9435 -0.3547, 1.0433 0.0276 0.0651, 1.0433 -0.0639 0.0123, 1.0433 -0.1181 0.3406, 1.0433 -0.0718 0.0063, 1.0433 -0.078 -0.0016, 1.0433 -0.082 -0.0107, 1.0433 -0.0836 -0.0206, 1.0433 -0.1181 -0.2657, 1.0433 -0.0826 -0.0305, 1.0433 -0.0792 -0.0399, 1.0433 -0.0735 -0.0481, 1.0433 -0.066 -0.0546, 1.0433 -0.057 -0.059, 1.0433 -0.0472 -0.061, 1.0433 -0.0472 -0.2382, 1.0433 -0.0486 -0.2484, 1.0433 -0.3268 -0.2776, 1.0433 -0.315 -0.2657, 1.0433 -0.0866 -0.2776, 1.0433 -0.0764 -0.2762, 1.0433 -0.0669 -0.2723, 1.0433 0.0472 0.3406, 1.0433 0.0472 0.0992, 1.0433 0.0459 0.089, 1.0433 -0.0525 -0.2579, 1.0433 -0.0588 -0.266, 1.0433 0.042 0.0795, 1.0433 0.0357 0.0714, 1.122 -0.078 -0.0016, 1.122 -0.0718 0.0063, 1.122 -0.1181 0.3406, 1.122 -0.0866 -0.2776, 1.122 -0.1181 -0.2657, 1.122 -0.3959 -0.2776, 1.122 -0.9449 -0.2657, 1.122 -0.4061 -0.2789, 1.122 -0.0792 -0.0399, 1.122 -0.0735 -0.0481, 1.122 -0.066 -0.0546, 1.122 -0.0826 -0.0305, 1.122 -0.0836 -0.0206, 1.122 -0.082 -0.0107, 1.122 -0.057 -0.059, 1.122 -0.0472 -0.2382, 1.122 -0.0472 -0.061, 1.122 -0.0639 0.0123, 1.122 0.0472 0.0992, 1.122 0.0472 0.3406, 1.122 -0.4156 -0.2828, 1.122 -0.9449 -0.3445, 1.122 -0.5814 -0.3786, 1.122 -0.6011 -0.3839, 1.122 -0.5909 -0.3825, 1.122 -0.0764 -0.2762, 1.122 -0.0669 -0.2723, 1.122 -0.0588 -0.266, 1.122 -0.0525 -0.2579, 1.122 -0.0486 -0.2484, 1.122 0.0276 0.0651, 1.122 0.0357 0.0714, 1.122 0.0459 0.089, 1.122 0.042 0.0795, 1.122 -0.9435 -0.3547, 1.122 -0.9157 -0.3825, 1.122 -0.9055 -0.3839, 1.122 -0.9396 -0.3642, 1.122 -0.9334 -0.3723, 1.122 -0.9252 -0.3786, 1.0433 -0.9449 -0.2657, 1.0433 -0.4156 -0.2828, 1.0433 -0.4061 -0.2789, 1.0433 -0.3959 -0.2776, 1.122 -0.2165 0.3406, 1.0433 -0.2165 0.3406, -0.6004 -0.2008 -0.3839, -0.6004 -0.2008 -0.3091, -0.6594 -0.2008 -0.3839, -0.6594 -0.2008 -0.3091, -0.6004 0.0079 -0.3839, -0.6594 0.0079 -0.3839, -0.6594 0.0181 -0.3825, -0.6004 0.0181 -0.3825, -0.6594 0.0276 -0.3786, -0.6004 0.0276 -0.3786, -0.6594 0.0357 -0.3723, -0.6004 0.0357 -0.3723, -0.6594 0.042 -0.3642, -0.6004 0.042 -0.3642, -0.6594 0.0459 -0.3547, -0.6004 0.0459 -0.3547, -0.6594 0.0472 -0.3445, -0.6004 0.0472 -0.3445, -0.6004 0.0472 -0.1634, -0.6594 0.0472 -0.1634, -0.6594 0.0459 -0.1532, -0.6004 0.0459 -0.1532, -0.6594 0.042 -0.1437, -0.6004 0.042 -0.1437, -0.6594 0.0357 -0.1355, -0.6004 0.0357 -0.1355, -0.6594 0.0276 -0.1293, -0.6004 0.0276 -0.1293, -0.6594 0.0181 -0.1254, -0.6004 0.0181 -0.1254, -0.6594 0.0079 -0.124, -0.6004 0.0079 -0.124, -0.6004 0.0 -0.124, -0.6594 0.0 -0.124, -0.6004 -0.0102 -0.1227, -0.6594 -0.0102 -0.1227, -0.6004 -0.0197 -0.1187, -0.6594 -0.0197 -0.1187, -0.6004 -0.0278 -0.1125, -0.6594 -0.0278 -0.1125, -0.6004 -0.0341 -0.1043, -0.6594 -0.0341 -0.1043, -0.6004 -0.038 -0.0948, -0.6594 -0.038 -0.0948, -0.6004 -0.0394 -0.0846, -0.6594 -0.0394 -0.0846, -0.6004 -0.0394 0.2461, -0.6594 -0.0394 0.2461, -0.6004 -0.1575 -0.2657, -0.6594 -0.1575 -0.2657, -0.6004 -0.1575 0.2461, -0.6594 -0.1575 0.2461, -0.6004 -1.0065 0.1845, -0.6004 -0.899 0.2461, -0.6594 -1.0065 0.1845, -0.6594 -0.899 0.2461, -0.6004 -1.0065 0.0895, -0.6594 -1.0065 0.0895, -0.6004 -0.9114 0.0895, -0.6594 -0.9114 0.0895, -0.6004 -0.8655 0.1158, -0.6594 -0.8655 0.1158, -0.6004 -0.2756 0.1158, -0.6594 -0.2756 0.1158, -0.6004 -0.2756 0.2461, -0.6594 -0.2756 0.2461, -0.6004 -0.3969 -0.1072, -0.6594 -0.3969 -0.1072, -0.6594 -0.4038 -0.1175, -0.6004 -0.4038 -0.1175, -0.6594 -0.4078 -0.1293, -0.6004 -0.4078 -0.1293, -0.6594 -0.4088 -0.1417, -0.6004 -0.4088 -0.1417, -0.6594 -0.4066 -0.1539, -0.6004 -0.4066 -0.1539, -0.6594 -0.4014 -0.1652, -0.6004 -0.4014 -0.1652, -0.6594 -0.3936 -0.1748, -0.6004 -0.3936 -0.1748, -0.6594 -0.3836 -0.1822, -0.6004 -0.3836 -0.1822, -0.6594 -0.372 -0.1868, -0.6004 -0.372 -0.1868, -0.6594 -0.3597 -0.1884, -0.6004 -0.3597 -0.1884, -0.6004 -0.2756 -0.1884, -0.6594 -0.2756 -0.1884, -0.6004 -0.2756 -0.0317, -0.6594 -0.2756 -0.0317, -0.2854 -0.2008 -0.3839, -0.2854 -0.2008 -0.3091, -0.3445 -0.2008 -0.3839, -0.3445 -0.2008 -0.3091, -0.2854 0.0079 -0.3839, -0.3445 0.0079 -0.3839, -0.3445 0.0181 -0.3825, -0.2854 0.0181 -0.3825, -0.3445 0.0276 -0.3786, -0.2854 0.0276 -0.3786, -0.3445 0.0357 -0.3723, -0.2854 0.0357 -0.3723, -0.3445 0.042 -0.3642, -0.2854 0.042 -0.3642, -0.3445 0.0459 -0.3547, -0.2854 0.0459 -0.3547, -0.3445 0.0472 -0.3445, -0.2854 0.0472 -0.3445, -0.2854 0.0472 -0.1634, -0.3445 0.0472 -0.1634, -0.3445 0.0459 -0.1532, -0.2854 0.0459 -0.1532, -0.3445 0.042 -0.1437, -0.2854 0.042 -0.1437, -0.3445 0.0357 -0.1355, -0.2854 0.0357 -0.1355, -0.3445 0.0276 -0.1293, -0.2854 0.0276 -0.1293, -0.3445 0.0181 -0.1254, -0.2854 0.0181 -0.1254, -0.3445 0.0079 -0.124, -0.2854 0.0079 -0.124, -0.2854 0.0 -0.124, -0.3445 0.0 -0.124, -0.2854 -0.0102 -0.1227, -0.3445 -0.0102 -0.1227, -0.2854 -0.0197 -0.1187, -0.3445 -0.0197 -0.1187, -0.2854 -0.0278 -0.1125, -0.3445 -0.0278 -0.1125, -0.2854 -0.0341 -0.1043, -0.3445 -0.0341 -0.1043, -0.2854 -0.038 -0.0948, -0.3445 -0.038 -0.0948, -0.2854 -0.0394 -0.0846, -0.3445 -0.0394 -0.0846, -0.2854 -0.0394 0.2461, -0.3445 -0.0394 0.2461, -0.2854 -0.1575 -0.2657, -0.3445 -0.1575 -0.2657, -0.2854 -0.1575 0.2461, -0.3445 -0.1575 0.2461, -0.2854 -1.0065 0.1845, -0.2854 -0.899 0.2461, -0.3445 -1.0065 0.1845, -0.3445 -0.899 0.2461, -0.2854 -1.0065 0.0895, -0.3445 -1.0065 0.0895, -0.2854 -0.9114 0.0895, -0.3445 -0.9114 0.0895, -0.2854 -0.8655 0.1158, -0.3445 -0.8655 0.1158, -0.2854 -0.2756 0.1158, -0.3445 -0.2756 0.1158, -0.2854 -0.2756 0.2461, -0.3445 -0.2756 0.2461, -0.2854 -0.3969 -0.1072, -0.3445 -0.3969 -0.1072, -0.3445 -0.4038 -0.1175, -0.2854 -0.4038 -0.1175, -0.3445 -0.4078 -0.1293, -0.2854 -0.4078 -0.1293, -0.3445 -0.4088 -0.1417, -0.2854 -0.4088 -0.1417, -0.3445 -0.4066 -0.1539, -0.2854 -0.4066 -0.1539, -0.3445 -0.4014 -0.1652, -0.2854 -0.4014 -0.1652, -0.3445 -0.3936 -0.1748, -0.2854 -0.3936 -0.1748, -0.3445 -0.3836 -0.1822, -0.2854 -0.3836 -0.1822, -0.3445 -0.372 -0.1868, -0.2854 -0.372 -0.1868, -0.3445 -0.3597 -0.1884, -0.2854 -0.3597 -0.1884, -0.2854 -0.2756 -0.1884, -0.3445 -0.2756 -0.1884, -0.2854 -0.2756 -0.0317, -0.3445 -0.2756 -0.0317, 0.0295 -0.2008 -0.3839, 0.0295 -0.2008 -0.3091, -0.0295 -0.2008 -0.3839, -0.0295 -0.2008 -0.3091, 0.0295 0.0079 -0.3839, -0.0295 0.0079 -0.3839, -0.0295 0.0181 -0.3825, 0.0295 0.0181 -0.3825, -0.0295 0.0276 -0.3786, 0.0295 0.0276 -0.3786, -0.0295 0.0357 -0.3723, 0.0295 0.0357 -0.3723, -0.0295 0.042 -0.3642, 0.0295 0.042 -0.3642, -0.0295 0.0459 -0.3547, 0.0295 0.0459 -0.3547, -0.0295 0.0472 -0.3445, 0.0295 0.0472 -0.3445, 0.0295 0.0472 -0.1634, -0.0295 0.0472 -0.1634, -0.0295 0.0459 -0.1532, 0.0295 0.0459 -0.1532, -0.0295 0.042 -0.1437, 0.0295 0.042 -0.1437, -0.0295 0.0357 -0.1355, 0.0295 0.0357 -0.1355, -0.0295 0.0276 -0.1293, 0.0295 0.0276 -0.1293, -0.0295 0.0181 -0.1254, 0.0295 0.0181 -0.1254, -0.0295 0.0079 -0.124, 0.0295 0.0079 -0.124, 0.0295 0.0 -0.124, -0.0295 0.0 -0.124, 0.0295 -0.0102 -0.1227, -0.0295 -0.0102 -0.1227, 0.0295 -0.0197 -0.1187, -0.0295 -0.0197 -0.1187, 0.0295 -0.0278 -0.1125, -0.0295 -0.0278 -0.1125, 0.0295 -0.0341 -0.1043, -0.0295 -0.0341 -0.1043, 0.0295 -0.038 -0.0948, -0.0295 -0.038 -0.0948, 0.0295 -0.0394 -0.0846, -0.0295 -0.0394 -0.0846, 0.0295 -0.0394 0.2461, -0.0295 -0.0394 0.2461, 0.0295 -0.1575 -0.2657, -0.0295 -0.1575 -0.2657, 0.0295 -0.1575 0.2461, -0.0295 -0.1575 0.2461, 0.0295 -1.0065 0.1845, 0.0295 -0.899 0.2461, -0.0295 -1.0065 0.1845, -0.0295 -0.899 0.2461, 0.0295 -1.0065 0.0895, -0.0295 -1.0065 0.0895, 0.0295 -0.9114 0.0895, -0.0295 -0.9114 0.0895, 0.0295 -0.8655 0.1158, -0.0295 -0.8655 0.1158, 0.0295 -0.2756 0.1158, -0.0295 -0.2756 0.1158, 0.0295 -0.2756 0.2461, -0.0295 -0.2756 0.2461, 0.0295 -0.3969 -0.1072, -0.0295 -0.3969 -0.1072, -0.0295 -0.4038 -0.1175, 0.0295 -0.4038 -0.1175, -0.0295 -0.4078 -0.1293, 0.0295 -0.4078 -0.1293, -0.0295 -0.4088 -0.1417, 0.0295 -0.4088 -0.1417, -0.0295 -0.4066 -0.1539, 0.0295 -0.4066 -0.1539, -0.0295 -0.4014 -0.1652, 0.0295 -0.4014 -0.1652, -0.0295 -0.3936 -0.1748, 0.0295 -0.3936 -0.1748, -0.0295 -0.3836 -0.1822, 0.0295 -0.3836 -0.1822, -0.0295 -0.372 -0.1868, 0.0295 -0.372 -0.1868, -0.0295 -0.3597 -0.1884, 0.0295 -0.3597 -0.1884, 0.0295 -0.2756 -0.1884, -0.0295 -0.2756 -0.1884, 0.0295 -0.2756 -0.0317, -0.0295 -0.2756 -0.0317, 0.3445 -0.2008 -0.3839, 0.3445 -0.2008 -0.3091, 0.2854 -0.2008 -0.3839, 0.2854 -0.2008 -0.3091, 0.3445 0.0079 -0.3839, 0.2854 0.0079 -0.3839, 0.2854 0.0181 -0.3825, 0.3445 0.0181 -0.3825, 0.2854 0.0276 -0.3786, 0.3445 0.0276 -0.3786, 0.2854 0.0357 -0.3723, 0.3445 0.0357 -0.3723, 0.2854 0.042 -0.3642, 0.3445 0.042 -0.3642, 0.2854 0.0459 -0.3547, 0.3445 0.0459 -0.3547, 0.2854 0.0472 -0.3445, 0.3445 0.0472 -0.3445, 0.3445 0.0472 -0.1634, 0.2854 0.0472 -0.1634, 0.2854 0.0459 -0.1532, 0.3445 0.0459 -0.1532, 0.2854 0.042 -0.1437, 0.3445 0.042 -0.1437, 0.2854 0.0357 -0.1355, 0.3445 0.0357 -0.1355, 0.2854 0.0276 -0.1293, 0.3445 0.0276 -0.1293, 0.2854 0.0181 -0.1254, 0.3445 0.0181 -0.1254, 0.2854 0.0079 -0.124, 0.3445 0.0079 -0.124, 0.3445 0.0 -0.124, 0.2854 0.0 -0.124, 0.3445 -0.0102 -0.1227, 0.2854 -0.0102 -0.1227, 0.3445 -0.0197 -0.1187, 0.2854 -0.0197 -0.1187, 0.3445 -0.0278 -0.1125, 0.2854 -0.0278 -0.1125, 0.3445 -0.0341 -0.1043, 0.2854 -0.0341 -0.1043, 0.3445 -0.038 -0.0948, 0.2854 -0.038 -0.0948, 0.3445 -0.0394 -0.0846, 0.2854 -0.0394 -0.0846, 0.3445 -0.0394 0.2461, 0.2854 -0.0394 0.2461, 0.3445 -0.1575 -0.2657, 0.2854 -0.1575 -0.2657, 0.3445 -0.1575 0.2461, 0.2854 -0.1575 0.2461, 0.3445 -1.0065 0.1845, 0.3445 -0.899 0.2461, 0.2854 -1.0065 0.1845, 0.2854 -0.899 0.2461, 0.3445 -1.0065 0.0895, 0.2854 -1.0065 0.0895, 0.3445 -0.9114 0.0895, 0.2854 -0.9114 0.0895, 0.3445 -0.8655 0.1158, 0.2854 -0.8655 0.1158, 0.3445 -0.2756 0.1158, 0.2854 -0.2756 0.1158, 0.3445 -0.2756 0.2461, 0.2854 -0.2756 0.2461, 0.3445 -0.3969 -0.1072, 0.2854 -0.3969 -0.1072, 0.2854 -0.4038 -0.1175, 0.3445 -0.4038 -0.1175, 0.2854 -0.4078 -0.1293, 0.3445 -0.4078 -0.1293, 0.2854 -0.4088 -0.1417, 0.3445 -0.4088 -0.1417, 0.2854 -0.4066 -0.1539, 0.3445 -0.4066 -0.1539, 0.2854 -0.4014 -0.1652, 0.3445 -0.4014 -0.1652, 0.2854 -0.3936 -0.1748, 0.3445 -0.3936 -0.1748, 0.2854 -0.3836 -0.1822, 0.3445 -0.3836 -0.1822, 0.2854 -0.372 -0.1868, 0.3445 -0.372 -0.1868, 0.2854 -0.3597 -0.1884, 0.3445 -0.3597 -0.1884, 0.3445 -0.2756 -0.1884, 0.2854 -0.2756 -0.1884, 0.3445 -0.2756 -0.0317, 0.2854 -0.2756 -0.0317, 0.6594 -0.2008 -0.3839, 0.6594 -0.2008 -0.3091, 0.6004 -0.2008 -0.3839, 0.6004 -0.2008 -0.3091, 0.6594 0.0079 -0.3839, 0.6004 0.0079 -0.3839, 0.6004 0.0181 -0.3825, 0.6594 0.0181 -0.3825, 0.6004 0.0276 -0.3786, 0.6594 0.0276 -0.3786, 0.6004 0.0357 -0.3723, 0.6594 0.0357 -0.3723, 0.6004 0.042 -0.3642, 0.6594 0.042 -0.3642, 0.6004 0.0459 -0.3547, 0.6594 0.0459 -0.3547, 0.6004 0.0472 -0.3445, 0.6594 0.0472 -0.3445, 0.6594 0.0472 -0.1634, 0.6004 0.0472 -0.1634, 0.6004 0.0459 -0.1532, 0.6594 0.0459 -0.1532, 0.6004 0.042 -0.1437, 0.6594 0.042 -0.1437, 0.6004 0.0357 -0.1355, 0.6594 0.0357 -0.1355, 0.6004 0.0276 -0.1293, 0.6594 0.0276 -0.1293, 0.6004 0.0181 -0.1254, 0.6594 0.0181 -0.1254, 0.6004 0.0079 -0.124, 0.6594 0.0079 -0.124, 0.6594 0.0 -0.124, 0.6004 0.0 -0.124, 0.6594 -0.0102 -0.1227, 0.6004 -0.0102 -0.1227, 0.6594 -0.0197 -0.1187, 0.6004 -0.0197 -0.1187, 0.6594 -0.0278 -0.1125, 0.6004 -0.0278 -0.1125, 0.6594 -0.0341 -0.1043, 0.6004 -0.0341 -0.1043, 0.6594 -0.038 -0.0948, 0.6004 -0.038 -0.0948, 0.6594 -0.0394 -0.0846, 0.6004 -0.0394 -0.0846, 0.6594 -0.0394 0.2461, 0.6004 -0.0394 0.2461, 0.6594 -0.1575 -0.2657, 0.6004 -0.1575 -0.2657, 0.6594 -0.1575 0.2461, 0.6004 -0.1575 0.2461, 0.6594 -1.0065 0.1845, 0.6594 -0.899 0.2461, 0.6004 -1.0065 0.1845, 0.6004 -0.899 0.2461, 0.6594 -1.0065 0.0895, 0.6004 -1.0065 0.0895, 0.6594 -0.9114 0.0895, 0.6004 -0.9114 0.0895, 0.6594 -0.8655 0.1158, 0.6004 -0.8655 0.1158, 0.6594 -0.2756 0.1158, 0.6004 -0.2756 0.1158, 0.6594 -0.2756 0.2461, 0.6004 -0.2756 0.2461, 0.6594 -0.3969 -0.1072, 0.6004 -0.3969 -0.1072, 0.6004 -0.4038 -0.1175, 0.6594 -0.4038 -0.1175, 0.6004 -0.4078 -0.1293, 0.6594 -0.4078 -0.1293, 0.6004 -0.4088 -0.1417, 0.6594 -0.4088 -0.1417, 0.6004 -0.4066 -0.1539, 0.6594 -0.4066 -0.1539, 0.6004 -0.4014 -0.1652, 0.6594 -0.4014 -0.1652, 0.6004 -0.3936 -0.1748, 0.6594 -0.3936 -0.1748, 0.6004 -0.3836 -0.1822, 0.6594 -0.3836 -0.1822, 0.6004 -0.372 -0.1868, 0.6594 -0.372 -0.1868, 0.6004 -0.3597 -0.1884, 0.6594 -0.3597 -0.1884, 0.6594 -0.2756 -0.1884, 0.6004 -0.2756 -0.1884, 0.6594 -0.2756 -0.0317, 0.6004 -0.2756 -0.0317, 0.6004 -0.2756 -0.0317
            ]
        }
        coordIndex [
            0,1,2,-1,2,1,3,-1,0,4,1,-1,1,4,5,-1,1,5,6,-1,6,5,7,-1,8,9,10,-1,10,9,11,-1,11,12,10,-1,10,12,13,-1,10,13,3,-1,3,13,14,-1,3,14,15,-1,15,16,3,-1,3,16,17,-1,3,17,18,-1,18,19,3,-1,3,19,20,-1,3,20,21,-1,22,23,3,-1,3,23,24,-1,3,24,2,-1,25,26,27,-1,27,26,28,-1,27,28,29,-1,25,30,26,-1,26,30,6,-1,26,6,31,-1,31,6,7,-1,31,7,32,-1,33,34,10,-1,10,34,35,-1,10,35,36,-1,36,37,10,-1,10,37,38,-1,10,38,8,-1,21,39,3,-1,3,39,40,-1,3,40,22,-1,41,42,43,-1,43,42,44,-1,43,44,45,-1,46,47,48,-1,48,47,49,-1,48,49,50,-1,50,49,51,-1,41,43,48,-1,48,43,52,-1,48,52,46,-1,53,54,55,-1,56,57,58,-1,58,57,59,-1,60,58,61,-1,61,58,62,-1,60,63,58,-1,58,63,64,-1,58,64,55,-1,55,64,65,-1,55,65,66,-1,62,58,67,-1,67,58,68,-1,67,68,69,-1,59,70,58,-1,58,70,71,-1,58,71,72,-1,73,74,75,-1,72,76,58,-1,58,76,77,-1,58,77,68,-1,66,78,55,-1,55,78,79,-1,55,79,53,-1,53,79,73,-1,53,73,80,-1,80,73,75,-1,54,33,55,-1,55,33,10,-1,55,10,81,-1,81,10,82,-1,34,33,53,-1,53,33,54,-1,34,53,80,-1,34,80,35,-1,35,80,75,-1,35,75,36,-1,36,75,74,-1,36,74,37,-1,37,74,73,-1,37,73,38,-1,8,38,79,-1,79,38,73,-1,8,79,9,-1,9,79,78,-1,9,78,11,-1,11,78,66,-1,11,66,12,-1,12,66,65,-1,12,65,13,-1,13,65,64,-1,13,64,14,-1,14,64,63,-1,14,63,15,-1,15,63,60,-1,15,60,16,-1,16,60,61,-1,16,61,17,-1,17,61,62,-1,17,62,18,-1,18,62,67,-1,18,67,19,-1,19,67,69,-1,20,19,68,-1,68,19,69,-1,20,68,77,-1,20,77,21,-1,21,77,76,-1,21,76,39,-1,39,76,72,-1,39,72,40,-1,40,72,71,-1,40,71,22,-1,22,71,70,-1,22,70,23,-1,23,70,59,-1,23,59,24,-1,24,59,2,-1,2,59,57,-1,2,57,83,-1,2,83,0,-1,0,83,84,-1,0,84,4,-1,4,84,85,-1,4,85,5,-1,5,85,86,-1,5,86,7,-1,7,86,45,-1,7,45,44,-1,7,44,42,-1,7,42,32,-1,32,42,41,-1,32,41,31,-1,26,31,48,-1,48,31,41,-1,26,48,50,-1,26,50,28,-1,28,50,51,-1,28,51,29,-1,29,51,49,-1,29,49,27,-1,27,49,47,-1,27,47,25,-1,25,47,46,-1,25,46,30,-1,30,46,52,-1,30,52,6,-1,1,6,87,-1,87,6,52,-1,88,89,90,-1,90,91,88,-1,88,91,92,-1,88,92,93,-1,94,95,96,-1,96,95,97,-1,92,98,93,-1,93,98,95,-1,93,95,99,-1,99,95,94,-1,100,101,102,-1,102,101,103,-1,102,103,104,-1,104,105,102,-1,102,105,106,-1,102,106,107,-1,107,106,108,-1,107,108,109,-1,109,110,107,-1,107,110,111,-1,107,111,112,-1,112,113,107,-1,107,113,114,-1,107,114,115,-1,116,117,118,-1,118,117,107,-1,118,107,119,-1,119,107,120,-1,121,122,102,-1,102,122,123,-1,115,124,107,-1,107,124,125,-1,107,125,120,-1,123,126,102,-1,102,126,127,-1,102,127,100,-1,128,129,130,-1,131,132,133,-1,133,132,134,-1,133,134,135,-1,136,132,137,-1,137,132,138,-1,136,139,132,-1,132,139,140,-1,132,140,130,-1,130,140,141,-1,130,141,128,-1,138,132,142,-1,142,132,143,-1,142,143,144,-1,129,145,130,-1,130,145,146,-1,130,146,147,-1,135,134,148,-1,148,134,149,-1,148,149,150,-1,150,149,151,-1,150,151,152,-1,131,153,132,-1,132,153,154,-1,132,154,155,-1,155,156,132,-1,132,156,157,-1,132,157,143,-1,145,158,146,-1,146,158,159,-1,146,159,160,-1,160,159,161,-1,162,163,149,-1,149,163,164,-1,149,164,151,-1,162,165,163,-1,163,165,166,-1,163,166,167,-1,149,134,93,-1,93,134,168,-1,149,93,99,-1,149,99,162,-1,162,99,94,-1,162,94,165,-1,165,94,96,-1,165,96,166,-1,166,96,97,-1,166,97,167,-1,167,97,95,-1,167,95,163,-1,163,95,98,-1,163,98,164,-1,151,164,92,-1,92,164,98,-1,151,92,91,-1,151,91,152,-1,152,91,90,-1,152,90,150,-1,169,148,89,-1,89,148,150,-1,89,150,90,-1,148,169,135,-1,135,169,170,-1,135,170,133,-1,133,170,171,-1,118,131,116,-1,116,131,133,-1,116,133,171,-1,131,118,119,-1,131,119,153,-1,153,119,120,-1,153,120,154,-1,154,120,125,-1,154,125,155,-1,155,125,124,-1,155,124,156,-1,156,124,115,-1,156,115,157,-1,157,115,114,-1,157,114,143,-1,144,143,113,-1,113,143,114,-1,144,113,142,-1,142,113,112,-1,142,112,138,-1,138,112,111,-1,138,111,137,-1,137,111,110,-1,137,110,136,-1,136,110,109,-1,136,109,139,-1,139,109,108,-1,139,108,140,-1,140,108,106,-1,140,106,141,-1,141,106,105,-1,141,105,128,-1,128,105,104,-1,128,104,129,-1,129,104,103,-1,129,103,145,-1,145,103,101,-1,158,145,100,-1,100,145,101,-1,158,100,127,-1,158,127,159,-1,159,127,126,-1,159,126,161,-1,161,126,123,-1,161,123,160,-1,160,123,122,-1,160,122,146,-1,147,146,121,-1,121,146,122,-1,147,121,130,-1,130,121,102,-1,130,102,172,-1,172,102,173,-1,174,175,176,-1,176,175,177,-1,178,174,179,-1,179,174,176,-1,178,179,180,-1,178,180,181,-1,181,180,182,-1,181,182,183,-1,183,182,184,-1,183,184,185,-1,185,184,186,-1,185,186,187,-1,187,186,188,-1,187,188,189,-1,189,188,190,-1,189,190,191,-1,192,191,193,-1,193,191,190,-1,192,193,194,-1,192,194,195,-1,195,194,196,-1,195,196,197,-1,197,196,198,-1,197,198,199,-1,199,198,200,-1,199,200,201,-1,201,200,202,-1,201,202,203,-1,203,202,204,-1,203,204,205,-1,206,205,207,-1,207,205,204,-1,206,207,208,-1,208,207,209,-1,208,209,210,-1,210,209,211,-1,210,211,212,-1,212,211,213,-1,212,213,214,-1,214,213,215,-1,214,215,216,-1,216,215,217,-1,216,217,218,-1,218,217,219,-1,218,219,220,-1,220,219,221,-1,175,222,177,-1,177,222,223,-1,222,175,174,-1,206,208,189,-1,222,212,214,-1,174,178,222,-1,222,178,181,-1,222,181,183,-1,203,205,192,-1,189,208,222,-1,222,208,210,-1,222,210,212,-1,183,185,222,-1,222,185,187,-1,222,187,189,-1,220,224,218,-1,218,224,222,-1,218,222,216,-1,216,222,214,-1,206,189,205,-1,205,189,191,-1,205,191,192,-1,195,197,199,-1,195,199,192,-1,192,199,201,-1,192,201,203,-1,176,177,179,-1,179,177,223,-1,179,223,180,-1,223,188,186,-1,223,217,215,-1,186,184,223,-1,223,184,182,-1,223,182,180,-1,225,221,223,-1,223,221,219,-1,223,219,217,-1,215,213,223,-1,223,213,211,-1,223,211,188,-1,211,209,188,-1,188,209,207,-1,188,207,204,-1,202,193,204,-1,204,193,190,-1,204,190,188,-1,196,194,198,-1,198,194,193,-1,198,193,200,-1,200,193,202,-1,226,227,228,-1,228,227,229,-1,230,226,231,-1,231,226,228,-1,232,230,233,-1,233,230,231,-1,234,232,235,-1,235,232,233,-1,236,234,237,-1,237,234,235,-1,236,238,234,-1,234,238,227,-1,234,227,232,-1,232,227,226,-1,232,226,230,-1,229,239,237,-1,231,228,233,-1,233,228,229,-1,233,229,235,-1,235,229,237,-1,240,241,242,-1,240,242,243,-1,243,242,244,-1,243,244,245,-1,245,244,246,-1,245,246,247,-1,247,246,248,-1,247,248,249,-1,249,248,250,-1,249,250,251,-1,251,250,252,-1,251,252,253,-1,253,252,254,-1,253,254,255,-1,255,254,256,-1,255,256,257,-1,257,256,258,-1,257,258,259,-1,260,259,261,-1,261,259,258,-1,240,262,241,-1,241,262,263,-1,259,260,262,-1,259,262,257,-1,240,243,262,-1,262,243,245,-1,245,247,262,-1,262,247,249,-1,262,249,251,-1,251,253,262,-1,262,253,255,-1,262,255,257,-1,263,261,258,-1,258,256,263,-1,263,256,254,-1,263,254,252,-1,252,250,263,-1,263,250,248,-1,263,248,246,-1,246,244,263,-1,263,244,242,-1,263,242,241,-1,264,265,266,-1,266,265,267,-1,268,264,269,-1,269,264,266,-1,268,269,270,-1,268,270,271,-1,271,270,272,-1,271,272,273,-1,273,272,274,-1,273,274,275,-1,275,274,276,-1,275,276,277,-1,277,276,278,-1,277,278,279,-1,279,278,280,-1,279,280,281,-1,282,281,283,-1,283,281,280,-1,282,283,284,-1,282,284,285,-1,285,284,286,-1,285,286,287,-1,287,286,288,-1,287,288,289,-1,289,288,290,-1,289,290,291,-1,291,290,292,-1,291,292,293,-1,293,292,294,-1,293,294,295,-1,296,295,297,-1,297,295,294,-1,296,297,298,-1,298,297,299,-1,298,299,300,-1,300,299,301,-1,300,301,302,-1,302,301,303,-1,302,303,304,-1,304,303,305,-1,304,305,306,-1,306,305,307,-1,306,307,308,-1,308,307,309,-1,308,309,310,-1,310,309,311,-1,265,312,267,-1,267,312,313,-1,312,265,264,-1,296,298,279,-1,312,302,304,-1,264,268,312,-1,312,268,271,-1,312,271,273,-1,293,295,282,-1,279,298,312,-1,312,298,300,-1,312,300,302,-1,273,275,312,-1,312,275,277,-1,312,277,279,-1,310,314,308,-1,308,314,312,-1,308,312,306,-1,306,312,304,-1,296,279,295,-1,295,279,281,-1,295,281,282,-1,285,287,289,-1,285,289,282,-1,282,289,291,-1,282,291,293,-1,266,267,269,-1,269,267,313,-1,269,313,270,-1,313,278,276,-1,313,307,305,-1,276,274,313,-1,313,274,272,-1,313,272,270,-1,315,311,313,-1,313,311,309,-1,313,309,307,-1,305,303,313,-1,313,303,301,-1,313,301,278,-1,301,299,278,-1,278,299,297,-1,278,297,294,-1,292,283,294,-1,294,283,280,-1,294,280,278,-1,286,284,288,-1,288,284,283,-1,288,283,290,-1,290,283,292,-1,316,317,318,-1,318,317,319,-1,320,316,321,-1,321,316,318,-1,322,320,323,-1,323,320,321,-1,324,322,325,-1,325,322,323,-1,326,324,327,-1,327,324,325,-1,326,328,324,-1,324,328,317,-1,324,317,322,-1,322,317,316,-1,322,316,320,-1,319,329,327,-1,321,318,323,-1,323,318,319,-1,323,319,325,-1,325,319,327,-1,330,331,332,-1,330,332,333,-1,333,332,334,-1,333,334,335,-1,335,334,336,-1,335,336,337,-1,337,336,338,-1,337,338,339,-1,339,338,340,-1,339,340,341,-1,341,340,342,-1,341,342,343,-1,343,342,344,-1,343,344,345,-1,345,344,346,-1,345,346,347,-1,347,346,348,-1,347,348,349,-1,350,349,351,-1,351,349,348,-1,330,352,331,-1,331,352,353,-1,349,350,352,-1,352,330,349,-1,349,330,333,-1,349,333,335,-1,335,337,349,-1,349,337,339,-1,349,339,341,-1,343,345,341,-1,341,345,347,-1,341,347,349,-1,351,348,353,-1,353,348,346,-1,331,353,332,-1,332,353,334,-1,346,344,353,-1,353,344,342,-1,353,342,340,-1,340,338,353,-1,353,338,336,-1,353,336,334,-1,354,355,356,-1,356,355,357,-1,358,354,359,-1,359,354,356,-1,358,359,360,-1,358,360,361,-1,361,360,362,-1,361,362,363,-1,363,362,364,-1,363,364,365,-1,365,364,366,-1,365,366,367,-1,367,366,368,-1,367,368,369,-1,369,368,370,-1,369,370,371,-1,372,371,373,-1,373,371,370,-1,372,373,374,-1,372,374,375,-1,375,374,376,-1,375,376,377,-1,377,376,378,-1,377,378,379,-1,379,378,380,-1,379,380,381,-1,381,380,382,-1,381,382,383,-1,383,382,384,-1,383,384,385,-1,386,385,387,-1,387,385,384,-1,386,387,388,-1,388,387,389,-1,388,389,390,-1,390,389,391,-1,390,391,392,-1,392,391,393,-1,392,393,394,-1,394,393,395,-1,394,395,396,-1,396,395,397,-1,396,397,398,-1,398,397,399,-1,398,399,400,-1,400,399,401,-1,355,402,357,-1,357,402,403,-1,402,355,354,-1,386,388,369,-1,402,392,394,-1,354,358,402,-1,402,358,361,-1,402,361,363,-1,383,385,372,-1,369,388,402,-1,402,388,390,-1,402,390,392,-1,363,365,402,-1,402,365,367,-1,402,367,369,-1,400,404,398,-1,398,404,402,-1,398,402,396,-1,396,402,394,-1,386,369,385,-1,385,369,371,-1,385,371,372,-1,375,377,379,-1,375,379,372,-1,372,379,381,-1,372,381,383,-1,356,357,359,-1,359,357,403,-1,359,403,360,-1,403,368,366,-1,403,397,395,-1,366,364,403,-1,403,364,362,-1,403,362,360,-1,405,401,403,-1,403,401,399,-1,403,399,397,-1,395,393,403,-1,403,393,391,-1,403,391,368,-1,391,389,368,-1,368,389,387,-1,368,387,384,-1,382,373,384,-1,384,373,370,-1,384,370,368,-1,376,374,378,-1,378,374,373,-1,378,373,380,-1,380,373,382,-1,406,407,408,-1,408,407,409,-1,410,406,411,-1,411,406,408,-1,412,410,413,-1,413,410,411,-1,414,412,415,-1,415,412,413,-1,416,414,417,-1,417,414,415,-1,416,418,414,-1,414,418,407,-1,414,407,412,-1,412,407,406,-1,412,406,410,-1,409,419,417,-1,411,408,413,-1,413,408,409,-1,413,409,415,-1,415,409,417,-1,420,421,422,-1,420,422,423,-1,423,422,424,-1,423,424,425,-1,425,424,426,-1,425,426,427,-1,427,426,428,-1,427,428,429,-1,429,428,430,-1,429,430,431,-1,431,430,432,-1,431,432,433,-1,433,432,434,-1,433,434,435,-1,435,434,436,-1,435,436,437,-1,437,436,438,-1,437,438,439,-1,440,439,441,-1,441,439,438,-1,420,442,421,-1,421,442,443,-1,439,440,442,-1,442,420,439,-1,439,420,423,-1,439,423,425,-1,425,427,439,-1,439,427,429,-1,439,429,431,-1,433,435,431,-1,431,435,437,-1,431,437,439,-1,441,438,443,-1,443,438,436,-1,421,443,422,-1,422,443,424,-1,436,434,443,-1,443,434,432,-1,443,432,430,-1,430,428,443,-1,443,428,426,-1,443,426,424,-1,444,445,446,-1,446,445,447,-1,448,444,449,-1,449,444,446,-1,448,449,450,-1,448,450,451,-1,451,450,452,-1,451,452,453,-1,453,452,454,-1,453,454,455,-1,455,454,456,-1,455,456,457,-1,457,456,458,-1,457,458,459,-1,459,458,460,-1,459,460,461,-1,462,461,463,-1,463,461,460,-1,462,463,464,-1,462,464,465,-1,465,464,466,-1,465,466,467,-1,467,466,468,-1,467,468,469,-1,469,468,470,-1,469,470,471,-1,471,470,472,-1,471,472,473,-1,473,472,474,-1,473,474,475,-1,476,475,477,-1,477,475,474,-1,476,477,478,-1,478,477,479,-1,478,479,480,-1,480,479,481,-1,480,481,482,-1,482,481,483,-1,482,483,484,-1,484,483,485,-1,484,485,486,-1,486,485,487,-1,486,487,488,-1,488,487,489,-1,488,489,490,-1,490,489,491,-1,445,492,447,-1,447,492,493,-1,492,445,444,-1,476,478,459,-1,492,482,484,-1,444,448,492,-1,492,448,451,-1,492,451,453,-1,473,475,462,-1,459,478,492,-1,492,478,480,-1,492,480,482,-1,453,455,492,-1,492,455,457,-1,492,457,459,-1,490,494,488,-1,488,494,492,-1,488,492,486,-1,486,492,484,-1,476,459,475,-1,475,459,461,-1,475,461,462,-1,465,467,469,-1,465,469,462,-1,462,469,471,-1,462,471,473,-1,446,447,449,-1,449,447,493,-1,449,493,450,-1,493,458,456,-1,493,487,485,-1,456,454,493,-1,493,454,452,-1,493,452,450,-1,495,491,493,-1,493,491,489,-1,493,489,487,-1,485,483,493,-1,493,483,481,-1,493,481,458,-1,481,479,458,-1,458,479,477,-1,458,477,474,-1,472,463,474,-1,474,463,460,-1,474,460,458,-1,466,464,468,-1,468,464,463,-1,468,463,470,-1,470,463,472,-1,496,497,498,-1,498,497,499,-1,500,496,501,-1,501,496,498,-1,502,500,503,-1,503,500,501,-1,504,502,505,-1,505,502,503,-1,506,504,507,-1,507,504,505,-1,506,508,504,-1,504,508,497,-1,504,497,502,-1,502,497,496,-1,502,496,500,-1,499,509,507,-1,501,498,503,-1,503,498,499,-1,503,499,505,-1,505,499,507,-1,510,511,512,-1,510,512,513,-1,513,512,514,-1,513,514,515,-1,515,514,516,-1,515,516,517,-1,517,516,518,-1,517,518,519,-1,519,518,520,-1,519,520,521,-1,521,520,522,-1,521,522,523,-1,523,522,524,-1,523,524,525,-1,525,524,526,-1,525,526,527,-1,527,526,528,-1,527,528,529,-1,530,529,531,-1,531,529,528,-1,510,532,511,-1,511,532,533,-1,529,530,532,-1,532,510,529,-1,529,510,513,-1,529,513,515,-1,515,517,529,-1,529,517,519,-1,529,519,521,-1,523,525,521,-1,521,525,527,-1,521,527,529,-1,531,528,533,-1,533,528,526,-1,511,533,512,-1,512,533,514,-1,526,524,533,-1,533,524,522,-1,533,522,520,-1,520,518,533,-1,533,518,516,-1,533,516,514,-1,534,535,536,-1,536,535,537,-1,538,534,539,-1,539,534,536,-1,538,539,540,-1,538,540,541,-1,541,540,542,-1,541,542,543,-1,543,542,544,-1,543,544,545,-1,545,544,546,-1,545,546,547,-1,547,546,548,-1,547,548,549,-1,549,548,550,-1,549,550,551,-1,552,551,553,-1,553,551,550,-1,552,553,554,-1,552,554,555,-1,555,554,556,-1,555,556,557,-1,557,556,558,-1,557,558,559,-1,559,558,560,-1,559,560,561,-1,561,560,562,-1,561,562,563,-1,563,562,564,-1,563,564,565,-1,566,565,567,-1,567,565,564,-1,566,567,568,-1,568,567,569,-1,568,569,570,-1,570,569,571,-1,570,571,572,-1,572,571,573,-1,572,573,574,-1,574,573,575,-1,574,575,576,-1,576,575,577,-1,576,577,578,-1,578,577,579,-1,578,579,580,-1,580,579,581,-1,535,582,537,-1,537,582,583,-1,582,535,534,-1,566,568,549,-1,582,572,574,-1,534,538,582,-1,582,538,541,-1,582,541,543,-1,563,565,552,-1,549,568,582,-1,582,568,570,-1,582,570,572,-1,543,545,582,-1,582,545,547,-1,582,547,549,-1,580,584,578,-1,578,584,582,-1,578,582,576,-1,576,582,574,-1,566,549,565,-1,565,549,551,-1,565,551,552,-1,555,557,559,-1,555,559,552,-1,552,559,561,-1,552,561,563,-1,536,537,539,-1,539,537,583,-1,539,583,540,-1,583,548,546,-1,583,577,575,-1,546,544,583,-1,583,544,542,-1,583,542,540,-1,585,581,583,-1,583,581,579,-1,583,579,577,-1,575,573,583,-1,583,573,571,-1,583,571,548,-1,571,569,548,-1,548,569,567,-1,548,567,564,-1,562,553,564,-1,564,553,550,-1,564,550,548,-1,556,554,558,-1,558,554,553,-1,558,553,560,-1,560,553,562,-1,586,587,588,-1,588,587,589,-1,590,586,591,-1,591,586,588,-1,592,590,593,-1,593,590,591,-1,594,592,595,-1,595,592,593,-1,596,594,597,-1,597,594,595,-1,596,598,594,-1,594,598,587,-1,594,587,592,-1,592,587,586,-1,592,586,590,-1,589,599,597,-1,591,588,593,-1,593,588,589,-1,593,589,595,-1,595,589,597,-1,600,601,602,-1,600,602,603,-1,603,602,604,-1,603,604,605,-1,605,604,606,-1,605,606,607,-1,607,606,608,-1,607,608,609,-1,609,608,610,-1,609,610,611,-1,611,610,612,-1,611,612,613,-1,613,612,614,-1,613,614,615,-1,615,614,616,-1,615,616,617,-1,617,616,618,-1,617,618,619,-1,620,619,621,-1,621,619,618,-1,600,622,601,-1,601,622,623,-1,619,620,622,-1,622,600,619,-1,619,600,603,-1,619,603,605,-1,605,607,619,-1,619,607,609,-1,619,609,611,-1,613,615,611,-1,611,615,617,-1,611,617,619,-1,621,618,623,-1,623,618,616,-1,601,623,602,-1,602,623,604,-1,616,614,623,-1,623,614,612,-1,623,612,610,-1,610,608,623,-1,623,608,606,-1,623,606,604,-1,
        ]
    }
}
Shape{
    appearance Appearance {
        material  Material 	{
            diffuseColor 1.0 1.0 1.0
            specularColor 0.8784313725490196 0.8784313725490196 0.8784313725490196
            ambientIntensity 0.2
            transparency 0
            shininess 0.5
        }
    }
    geometry IndexedFaceSet {
        ccw TRUE
        solid FALSE
        coord DEF co Coordinate {
            point [
                -0.372 -0.6012 -0.3051, -0.4488 -0.798 -0.3051, -0.372 -0.6012 -0.3445, -0.4488 -0.798 -0.3445, -0.42 -0.798 -0.3051, -0.42 -0.798 -0.3445, -0.4001 -0.7428 -0.3051, -0.4001 -0.7428 -0.3445, -0.3188 -0.7428 -0.3051, -0.3188 -0.7428 -0.3445, -0.3 -0.798 -0.3051, -0.3 -0.798 -0.3445, -0.2712 -0.798 -0.3051, -0.2712 -0.798 -0.3445, -0.3456 -0.6012 -0.3051, -0.3456 -0.6012 -0.3445, -0.3254 -0.7212 -0.3051, -0.3548 -0.639 -0.3051, -0.3567 -0.6322 -0.3051, -0.3579 -0.6252 -0.3051, -0.3586 -0.6252 -0.3051, -0.3599 -0.6322 -0.3051, -0.3616 -0.639 -0.3051, -0.3913 -0.7212 -0.3051, -0.3254 -0.7212 -0.3445, -0.3913 -0.7212 -0.3445, -0.3548 -0.639 -0.3445, -0.3567 -0.6322 -0.3445, -0.3579 -0.6252 -0.3445, -0.3586 -0.6252 -0.3445, -0.3599 -0.6322 -0.3445, -0.3616 -0.639 -0.3445, -0.1519 -0.798 -0.3051, -0.0983 -0.798 -0.3051, -0.1519 -0.798 -0.3445, -0.0983 -0.798 -0.3445, -0.0983 -0.6012 -0.3051, -0.0983 -0.6012 -0.3445, -0.1539 -0.6012 -0.3051, -0.1539 -0.6012 -0.3445, -0.2568 -0.6971 -0.3051, -0.2568 -0.6971 -0.3445, -0.2564 -0.6874 -0.3445, -0.2564 -0.6874 -0.3051, -0.2526 -0.6666 -0.3445, -0.2526 -0.6666 -0.3051, -0.2443 -0.6475 -0.3445, -0.2443 -0.6475 -0.3051, -0.2325 -0.6321 -0.3445, -0.2325 -0.6321 -0.3051, -0.2249 -0.625 -0.3445, -0.2249 -0.625 -0.3051, -0.2054 -0.6123 -0.3445, -0.2054 -0.6123 -0.3051, -0.1823 -0.6042 -0.3445, -0.1823 -0.6042 -0.3051, -0.1768 -0.7958 -0.3445, -0.1768 -0.7958 -0.3051, -0.1995 -0.7889 -0.3445, -0.1995 -0.7889 -0.3051, -0.2199 -0.7769 -0.3445, -0.2199 -0.7769 -0.3051, -0.2359 -0.7614 -0.3445, -0.2359 -0.7614 -0.3051, -0.247 -0.744 -0.3445, -0.247 -0.744 -0.3051, -0.254 -0.7235 -0.3445, -0.254 -0.7235 -0.3051, -0.2304 -0.6977 -0.3051, -0.2287 -0.6781 -0.3051, -0.2241 -0.6626 -0.3051, -0.2174 -0.6505 -0.3051, -0.2078 -0.6403 -0.3051, -0.1935 -0.631 -0.3051, -0.1772 -0.6253 -0.3051, -0.1538 -0.6228 -0.3051, -0.1247 -0.6228 -0.3051, -0.1247 -0.7764 -0.3051, -0.1527 -0.7764 -0.3051, -0.1735 -0.7745 -0.3051, -0.1901 -0.7693 -0.3051, -0.2034 -0.7614 -0.3051, -0.2145 -0.7505 -0.3051, -0.2227 -0.737 -0.3051, -0.2279 -0.7214 -0.3051, -0.1538 -0.6228 -0.3445, -0.1247 -0.6228 -0.3445, -0.1772 -0.6253 -0.3445, -0.1935 -0.631 -0.3445, -0.2078 -0.6403 -0.3445, -0.2174 -0.6505 -0.3445, -0.2241 -0.6626 -0.3445, -0.2287 -0.6781 -0.3445, -0.2304 -0.6977 -0.3445, -0.2279 -0.7214 -0.3445, -0.2227 -0.737 -0.3445, -0.2145 -0.7505 -0.3445, -0.2034 -0.7614 -0.3445, -0.1901 -0.7693 -0.3445, -0.1735 -0.7745 -0.3445, -0.1527 -0.7764 -0.3445, -0.1247 -0.7764 -0.3445, -0.0599 -0.7764 -0.3051, -0.0599 -0.798 -0.3051, -0.0599 -0.7764 -0.3445, -0.0599 -0.798 -0.3445, 0.0457 -0.798 -0.3051, 0.0457 -0.798 -0.3445, 0.0457 -0.6012 -0.3051, 0.0457 -0.6012 -0.3445, -0.0551 -0.6012 -0.3051, -0.0551 -0.6012 -0.3445, -0.0551 -0.6228 -0.3051, -0.0551 -0.6228 -0.3445, 0.0193 -0.6228 -0.3051, 0.0193 -0.6228 -0.3445, 0.0193 -0.6876 -0.3051, 0.0193 -0.6876 -0.3445, -0.0503 -0.6876 -0.3051, -0.0503 -0.6876 -0.3445, -0.0503 -0.7092 -0.3051, -0.0503 -0.7092 -0.3445, 0.0193 -0.7092 -0.3051, 0.0193 -0.7092 -0.3445, 0.0193 -0.7764 -0.3051, 0.0193 -0.7764 -0.3445, 0.0841 -0.7662 -0.3051, 0.0841 -0.7878 -0.3051, 0.0841 -0.7662 -0.3445, 0.0841 -0.7878 -0.3445, 0.1383 -0.8004 -0.3051, 0.1383 -0.8004 -0.3445, 0.1329 -0.8004 -0.3445, 0.1329 -0.8004 -0.3051, 0.1051 -0.7965 -0.3445, 0.1051 -0.7965 -0.3051, 0.2305 -0.7033 -0.3051, 0.2305 -0.7033 -0.3445, 0.2286 -0.7263 -0.3445, 0.2286 -0.7263 -0.3051, 0.2225 -0.7474 -0.3445, 0.2225 -0.7474 -0.3051, 0.212 -0.766 -0.3445, 0.212 -0.766 -0.3051, 0.1976 -0.7811 -0.3445, 0.1976 -0.7811 -0.3051, 0.1816 -0.7914 -0.3445, 0.1816 -0.7914 -0.3051, 0.1625 -0.7979 -0.3445, 0.1625 -0.7979 -0.3051, 0.1304 -0.5988 -0.3445, 0.1444 -0.6 -0.3445, 0.1304 -0.5988 -0.3051, 0.1512 -0.6006 -0.3051, 0.1512 -0.6006 -0.3445, 0.1728 -0.6071 -0.3445, 0.1728 -0.6071 -0.3051, 0.1912 -0.6178 -0.3445, 0.1912 -0.6178 -0.3051, 0.2084 -0.6343 -0.3445, 0.2084 -0.6343 -0.3051, 0.2201 -0.6529 -0.3445, 0.2201 -0.6529 -0.3051, 0.2277 -0.6754 -0.3445, 0.2277 -0.6754 -0.3051, 0.113 -0.6 -0.3445, 0.1069 -0.6004 -0.3051, 0.1069 -0.6004 -0.3445, 0.0841 -0.6066 -0.3051, 0.0841 -0.6066 -0.3445, 0.0841 -0.633 -0.3051, 0.0841 -0.633 -0.3445, 0.1302 -0.6204 -0.3051, 0.1302 -0.6204 -0.3445, 0.1063 -0.6235 -0.3445, 0.1063 -0.6235 -0.3051, 0.2041 -0.7017 -0.3051, 0.2041 -0.7017 -0.3445, 0.2033 -0.687 -0.3445, 0.2033 -0.687 -0.3051, 0.1981 -0.6656 -0.3445, 0.1981 -0.6656 -0.3051, 0.19 -0.6504 -0.3445, 0.19 -0.6504 -0.3051, 0.1782 -0.6372 -0.3445, 0.1782 -0.6372 -0.3051, 0.1642 -0.6279 -0.3445, 0.1642 -0.6279 -0.3051, 0.1496 -0.6226 -0.3445, 0.1496 -0.6226 -0.3051, 0.1346 -0.7788 -0.3051, 0.1346 -0.7788 -0.3445, 0.1529 -0.7768 -0.3445, 0.1529 -0.7768 -0.3051, 0.1674 -0.7715 -0.3445, 0.1674 -0.7715 -0.3051, 0.1795 -0.7633 -0.3445, 0.1795 -0.7633 -0.3051, 0.1886 -0.7536 -0.3445, 0.1886 -0.7536 -0.3051, 0.1968 -0.74 -0.3445, 0.1968 -0.74 -0.3051, 0.2021 -0.723 -0.3445, 0.2021 -0.723 -0.3051, 0.0876 -0.7682 -0.3445, 0.0876 -0.7682 -0.3051, 0.1085 -0.7759 -0.3445, 0.1085 -0.7759 -0.3051, 0.2473 -0.7764 -0.3051, 0.2473 -0.798 -0.3051, 0.2473 -0.7764 -0.3445, 0.2473 -0.798 -0.3445, 0.3482 -0.798 -0.3051, 0.3482 -0.798 -0.3445, 0.3482 -0.6012 -0.3051, 0.3482 -0.6012 -0.3445, 0.3218 -0.6012 -0.3051, 0.3218 -0.6012 -0.3445, 0.3218 -0.7764 -0.3051, 0.3218 -0.7764 -0.3445, 0.3218 -0.7764 -0.3445
            ]
        }
        coordIndex [
            0,1,2,-1,2,1,3,-1,1,4,3,-1,3,4,5,-1,4,6,5,-1,5,6,7,-1,6,8,7,-1,7,8,9,-1,8,10,9,-1,9,10,11,-1,10,12,11,-1,11,12,13,-1,12,14,13,-1,13,14,15,-1,14,0,15,-1,15,0,2,-1,16,17,14,-1,12,10,8,-1,17,18,14,-1,14,18,19,-1,14,19,0,-1,0,19,20,-1,0,20,21,-1,21,22,0,-1,0,22,23,-1,0,23,1,-1,4,1,6,-1,6,1,23,-1,6,23,8,-1,8,23,16,-1,8,16,12,-1,12,16,14,-1,16,23,24,-1,24,23,25,-1,17,16,26,-1,26,16,24,-1,17,26,27,-1,17,27,18,-1,18,27,28,-1,18,28,19,-1,20,19,29,-1,29,19,28,-1,20,29,30,-1,20,30,21,-1,21,30,31,-1,21,31,22,-1,23,22,25,-1,25,22,31,-1,32,33,34,-1,34,33,35,-1,33,36,35,-1,35,36,37,-1,36,38,37,-1,37,38,39,-1,40,41,42,-1,40,42,43,-1,43,42,44,-1,43,44,45,-1,45,44,46,-1,45,46,47,-1,47,46,48,-1,47,48,49,-1,49,48,50,-1,49,50,51,-1,51,50,52,-1,51,52,53,-1,53,52,54,-1,53,54,55,-1,55,54,39,-1,55,39,38,-1,32,34,56,-1,32,56,57,-1,57,56,58,-1,57,58,59,-1,59,58,60,-1,59,60,61,-1,61,60,62,-1,61,62,63,-1,63,62,64,-1,63,64,65,-1,65,64,66,-1,65,66,67,-1,67,66,41,-1,67,41,40,-1,67,40,68,-1,68,40,43,-1,68,43,69,-1,69,43,45,-1,69,45,70,-1,70,45,47,-1,70,47,71,-1,71,47,49,-1,71,49,72,-1,72,49,51,-1,72,51,73,-1,73,51,53,-1,73,53,74,-1,74,53,55,-1,74,55,75,-1,75,55,38,-1,75,38,76,-1,76,38,36,-1,76,36,77,-1,77,36,33,-1,77,33,78,-1,78,33,32,-1,78,32,79,-1,79,32,57,-1,79,57,80,-1,80,57,59,-1,80,59,81,-1,81,59,61,-1,81,61,82,-1,82,61,63,-1,82,63,83,-1,83,63,65,-1,83,65,84,-1,84,65,67,-1,84,67,68,-1,75,76,85,-1,85,76,86,-1,75,85,87,-1,75,87,74,-1,74,87,88,-1,74,88,73,-1,73,88,89,-1,73,89,72,-1,72,89,90,-1,72,90,71,-1,71,90,91,-1,71,91,70,-1,70,91,92,-1,70,92,69,-1,69,92,93,-1,69,93,68,-1,68,93,94,-1,68,94,84,-1,84,94,95,-1,84,95,83,-1,83,95,96,-1,83,96,82,-1,82,96,97,-1,82,97,81,-1,81,97,98,-1,81,98,80,-1,80,98,99,-1,80,99,79,-1,79,99,100,-1,79,100,78,-1,77,78,101,-1,101,78,100,-1,76,77,86,-1,86,77,101,-1,102,103,104,-1,104,103,105,-1,103,106,105,-1,105,106,107,-1,106,108,107,-1,107,108,109,-1,108,110,109,-1,109,110,111,-1,110,112,111,-1,111,112,113,-1,112,114,113,-1,113,114,115,-1,114,116,115,-1,115,116,117,-1,116,118,117,-1,117,118,119,-1,118,120,119,-1,119,120,121,-1,120,122,121,-1,121,122,123,-1,122,124,123,-1,123,124,125,-1,124,102,125,-1,125,102,104,-1,106,103,102,-1,102,124,106,-1,106,124,122,-1,106,122,108,-1,112,110,114,-1,114,110,108,-1,114,108,116,-1,116,108,122,-1,116,122,118,-1,118,122,120,-1,126,127,128,-1,128,127,129,-1,130,131,132,-1,130,132,133,-1,133,132,134,-1,133,134,135,-1,135,134,129,-1,135,129,127,-1,136,137,138,-1,136,138,139,-1,139,138,140,-1,139,140,141,-1,141,140,142,-1,141,142,143,-1,143,142,144,-1,143,144,145,-1,145,144,146,-1,145,146,147,-1,147,146,148,-1,147,148,149,-1,149,148,131,-1,149,131,130,-1,150,151,152,-1,152,151,153,-1,151,154,153,-1,153,154,155,-1,153,155,156,-1,156,155,157,-1,156,157,158,-1,158,157,159,-1,158,159,160,-1,160,159,161,-1,160,161,162,-1,162,161,163,-1,162,163,164,-1,164,163,137,-1,164,137,136,-1,150,152,165,-1,165,152,166,-1,165,166,167,-1,167,166,168,-1,167,168,169,-1,168,170,169,-1,169,170,171,-1,172,173,174,-1,172,174,175,-1,175,174,171,-1,175,171,170,-1,176,177,178,-1,176,178,179,-1,179,178,180,-1,179,180,181,-1,181,180,182,-1,181,182,183,-1,183,182,184,-1,183,184,185,-1,185,184,186,-1,185,186,187,-1,187,186,188,-1,187,188,189,-1,189,188,173,-1,189,173,172,-1,190,191,192,-1,190,192,193,-1,193,192,194,-1,193,194,195,-1,195,194,196,-1,195,196,197,-1,197,196,198,-1,197,198,199,-1,199,198,200,-1,199,200,201,-1,201,200,202,-1,201,202,203,-1,203,202,177,-1,203,177,176,-1,126,128,204,-1,126,204,205,-1,205,204,206,-1,205,206,207,-1,207,206,191,-1,207,191,190,-1,193,130,190,-1,190,130,133,-1,190,133,207,-1,207,133,135,-1,207,135,205,-1,205,135,127,-1,205,127,126,-1,170,168,175,-1,175,168,166,-1,175,166,172,-1,172,166,152,-1,172,152,189,-1,189,152,153,-1,189,153,187,-1,187,153,156,-1,187,156,185,-1,185,156,158,-1,185,158,183,-1,183,158,160,-1,183,160,181,-1,181,160,162,-1,181,162,179,-1,179,162,164,-1,179,164,176,-1,176,164,136,-1,176,136,203,-1,203,136,139,-1,203,139,201,-1,201,139,141,-1,201,141,199,-1,199,141,143,-1,199,143,197,-1,197,143,145,-1,197,145,195,-1,195,145,147,-1,195,147,193,-1,193,147,149,-1,193,149,130,-1,208,209,210,-1,210,209,211,-1,209,212,211,-1,211,212,213,-1,212,214,213,-1,213,214,215,-1,214,216,215,-1,215,216,217,-1,216,218,217,-1,217,218,219,-1,218,208,219,-1,219,208,210,-1,216,214,218,-1,218,214,212,-1,218,212,208,-1,208,212,209,-1,
        ]
    }
}
Shape{
    appearance Appearance {
        material  Material 	{
            diffuseColor 0.5882352941176471 0.5725490196078431 0.5254901960784314
            specularColor 0.043137254901960784 0.0392156862745098 0.0392156862745098
            ambientIntensity 0.2
            transparency 0
            shininess 0.5
        }
    }
    geometry IndexedFaceSet {
        ccw TRUE
        solid FALSE
        coord DEF co Coordinate {
            point [
                -0.3254 -0.7212 -0.3445, -0.3913 -0.7212 -0.3445, -0.3548 -0.639 -0.3445, -0.3616 -0.639 -0.3445, -0.3567 -0.6322 -0.3445, -0.3599 -0.6322 -0.3445, -0.3579 -0.6252 -0.3445, -0.3586 -0.6252 -0.3445, -0.1247 -0.6228 -0.3445, -0.1247 -0.7764 -0.3445, -0.1538 -0.6228 -0.3445, -0.1527 -0.7764 -0.3445, -0.2279 -0.7214 -0.3445, -0.2304 -0.6977 -0.3445, -0.2287 -0.6781 -0.3445, -0.2241 -0.6626 -0.3445, -0.1772 -0.6253 -0.3445, -0.1735 -0.7745 -0.3445, -0.1901 -0.7693 -0.3445, -0.2034 -0.7614 -0.3445, -0.2174 -0.6505 -0.3445, -0.2078 -0.6403 -0.3445, -0.1935 -0.631 -0.3445, -0.2145 -0.7505 -0.3445, -0.2227 -0.737 -0.3445, -0.2227 -0.737 -0.3445
            ]
        }
        coordIndex [
            0,1,2,-1,2,1,3,-1,2,3,4,-1,4,3,5,-1,4,5,6,-1,6,5,7,-1,8,9,10,-1,10,9,11,-1,12,13,10,-1,13,14,10,-1,10,14,15,-1,10,15,16,-1,11,17,10,-1,10,17,18,-1,10,18,19,-1,20,21,15,-1,15,21,22,-1,15,22,16,-1,19,23,10,-1,10,23,24,-1,10,24,12,-1,
        ]
    }
}