#VRML V2.0 utf8
# 3D model generated by easyeda2kicad.py (https://github.com/uPesy/easyeda2kicad.py)

Shape{
    appearance Appearance {
        material  Material 	{
            diffuseColor 0.20784313725490197 0.20784313725490197 0.20784313725490197
            specularColor 0.01568627450980392 0.01568627450980392 0.01568627450980392
            ambientIntensity 0.2
            transparency 0
            shininess 0.5
        }
    }
    geometry IndexedFaceSet {
        ccw TRUE
        solid FALSE
        coord DEF co Coordinate {
            point [
                -2.3022 -0.7874 0.1969, -2.5 -0.7874 0.1969, -2.5 -0.6683 0.1969, -1.5 -0.7874 0.1969, -1.5 -0.6683 0.1969, -0.5 -0.7874 0.1969, -0.5 -0.6683 0.1969, 0.5 -0.7874 0.1969, 0.5 -0.6683 0.1969, 1.5 -0.7874 0.1969, 1.5 -0.6683 0.1969, 2.5 -0.7874 0.1969, 2.5 -0.6683 0.1969, 2.1043 -0.4508 0.1969, 2.5 0.0 0.1969, 2.1043 -0.5492 0.1969, 1.8957 -0.5492 0.1969, 1.8957 -0.4508 0.1969, 1.5 0.0 0.1969, 1.1043 -0.4508 0.1969, 1.1043 -0.5492 0.1969, 0.8957 -0.5492 0.1969, 0.8957 -0.4508 0.1969, 0.5 0.0 0.1969, 0.1043 -0.4508 0.1969, 0.1043 -0.5492 0.1969, -0.1043 -0.5492 0.1969, -0.1043 -0.4508 0.1969, -0.5 0.0 0.1969, -0.8957 -0.4508 0.1969, -0.8957 -0.5492 0.1969, -1.1043 -0.5492 0.1969, -1.1043 -0.4508 0.1969, -1.5 0.0 0.1969, -2.3022 -0.6683 0.1969, -2.1043 -0.5492 0.1969, -1.8957 -0.5492 0.1969, -2.1043 -0.4508 0.1969, -2.3022 0.0 0.1969, -1.8957 -0.4508 0.1969, 2.1043 0.5492 0.1969, 2.5 0.7874 0.1969, 2.1043 0.4508 0.1969, 1.8957 0.4508 0.1969, 1.8957 0.5492 0.1969, 1.5 0.7874 0.1969, 1.1043 0.5492 0.1969, 1.1043 0.4508 0.1969, 0.8957 0.4508 0.1969, 0.8957 0.5492 0.1969, 0.5 0.7874 0.1969, 0.1043 0.5492 0.1969, 0.1043 0.4508 0.1969, -0.1043 0.4508 0.1969, -0.1043 0.5492 0.1969, -0.5 0.7874 0.1969, -0.8957 0.5492 0.1969, -0.8957 0.4508 0.1969, -1.1043 0.4508 0.1969, -1.1043 0.5492 0.1969, -1.5 0.7874 0.1969, -1.8957 0.5492 0.1969, -1.8957 0.4508 0.1969, -2.1043 0.4508 0.1969, -2.1043 0.5492 0.1969, -2.3022 0.7874 0.1969, -2.5 0.0 0.1969, -2.5 0.7874 0.1969, 2.4075 -0.9843 3.3465, 2.5 -0.9843 3.3465, 2.5 -0.8996 3.3465, 2.4075 -0.8996 3.3465, 1.5 -0.9843 3.3465, 1.5 -0.8996 3.3465, 0.5 -0.9843 3.3465, 0.5 -0.8996 3.3465, -0.5 -0.9843 3.3465, -0.5 -0.8996 3.3465, -1.5 -0.9843 3.3465, -1.5 -0.8996 3.3465, -2.5 -0.9843 3.3465, -2.5 -0.8996 3.3465, -2.315 -0.185 3.3465, -2.5 -0.0 3.3465, -2.315 -0.815 3.3465, -1.685 -0.815 3.3465, -1.685 -0.185 3.3465, -1.5 -0.0 3.3465, -1.315 -0.185 3.3465, -1.315 -0.815 3.3465, -0.685 -0.815 3.3465, -0.685 -0.185 3.3465, -0.5 -0.0 3.3465, -0.315 -0.185 3.3465, -0.315 -0.815 3.3465, 0.315 -0.815 3.3465, 0.315 -0.185 3.3465, 0.5 -0.0 3.3465, 0.685 -0.185 3.3465, 0.685 -0.815 3.3465, 1.315 -0.815 3.3465, 1.315 -0.185 3.3465, 1.5 -0.0 3.3465, 1.685 -0.185 3.3465, 1.685 -0.815 3.3465, 2.315 -0.815 3.3465, 2.315 -0.185 3.3465, 2.4075 -0.0 3.3465, -2.315 0.815 3.3465, -2.5 0.9843 3.3465, -2.315 0.185 3.3465, -1.685 0.185 3.3465, -1.685 0.815 3.3465, -1.5 0.9843 3.3465, -1.315 0.815 3.3465, -1.315 0.185 3.3465, -0.685 0.185 3.3465, -0.685 0.815 3.3465, -0.5 0.9843 3.3465, -0.315 0.815 3.3465, -0.315 0.185 3.3465, 0.315 0.185 3.3465, 0.315 0.815 3.3465, 0.5 0.9843 3.3465, 0.685 0.815 3.3465, 0.685 0.185 3.3465, 1.315 0.185 3.3465, 1.315 0.815 3.3465, 1.5 0.9843 3.3465, 1.685 0.815 3.3465, 1.685 0.185 3.3465, 2.315 0.185 3.3465, 2.315 0.815 3.3465, 2.4075 0.9843 3.3465, 2.5 -0.0 3.3465, 2.5 0.9843 3.3465, -2.5 0.9843 0.0, 2.5 0.9843 0.0, -2.5 0.7874 0.0, 2.5 0.7874 0.0, 2.5 -0.9843 0.0, 2.5 -0.7874 0.0, -2.5 -0.7874 0.0, -2.5 -0.9843 0.0, -2.1969 0.6969 0.7874, -2.1969 0.3031 0.7874, -1.8031 0.6969 0.7874, -1.8031 0.3031 0.7874, -2.1969 0.6969 3.2283, -1.8031 0.6969 3.2283, -2.1969 0.3031 3.2283, -1.8031 0.3031 3.2283, -1.8031 0.3031 3.2283
            ]
        }
        coordIndex [
            0,1,2,-1,3,4,5,-1,5,4,6,-1,5,6,7,-1,7,6,8,-1,7,8,9,-1,9,8,10,-1,9,10,11,-1,11,10,12,-1,13,14,15,-1,15,14,12,-1,15,12,16,-1,16,12,10,-1,16,10,17,-1,17,10,18,-1,17,18,13,-1,13,18,14,-1,19,18,20,-1,20,18,10,-1,20,10,21,-1,21,10,8,-1,21,8,22,-1,22,8,23,-1,22,23,19,-1,19,23,18,-1,24,23,25,-1,25,23,8,-1,25,8,26,-1,26,8,6,-1,26,6,27,-1,27,6,28,-1,27,28,24,-1,24,28,23,-1,29,28,30,-1,30,28,6,-1,30,6,31,-1,31,6,4,-1,31,4,32,-1,32,4,33,-1,32,33,29,-1,29,33,28,-1,34,35,36,-1,35,34,37,-1,37,34,38,-1,37,38,39,-1,39,38,33,-1,39,33,36,-1,36,33,4,-1,36,4,34,-1,34,4,3,-1,34,3,0,-1,40,41,42,-1,42,41,14,-1,42,14,43,-1,43,14,18,-1,43,18,44,-1,44,18,45,-1,44,45,40,-1,40,45,41,-1,46,45,47,-1,47,45,18,-1,47,18,48,-1,48,18,23,-1,48,23,49,-1,49,23,50,-1,49,50,46,-1,46,50,45,-1,51,50,52,-1,52,50,23,-1,52,23,53,-1,53,23,28,-1,53,28,54,-1,54,28,55,-1,54,55,51,-1,51,55,50,-1,56,55,57,-1,57,55,28,-1,57,28,58,-1,58,28,33,-1,58,33,59,-1,59,33,60,-1,59,60,56,-1,56,60,55,-1,61,60,62,-1,62,60,33,-1,62,33,63,-1,63,33,38,-1,63,38,64,-1,64,38,65,-1,64,65,61,-1,61,65,60,-1,0,2,34,-1,34,2,66,-1,34,66,38,-1,38,66,67,-1,38,67,65,-1,68,69,70,-1,68,71,72,-1,72,71,73,-1,72,73,74,-1,74,73,75,-1,74,75,76,-1,76,75,77,-1,76,77,78,-1,78,77,79,-1,78,79,80,-1,80,79,81,-1,82,83,84,-1,84,83,81,-1,84,81,85,-1,85,81,79,-1,85,79,86,-1,86,79,87,-1,86,87,82,-1,82,87,83,-1,88,87,89,-1,89,87,79,-1,89,79,90,-1,90,79,77,-1,90,77,91,-1,91,77,92,-1,91,92,88,-1,88,92,87,-1,93,92,94,-1,94,92,77,-1,94,77,95,-1,95,77,75,-1,95,75,96,-1,96,75,97,-1,96,97,93,-1,93,97,92,-1,98,97,99,-1,99,97,75,-1,99,75,100,-1,100,75,73,-1,100,73,101,-1,101,73,102,-1,101,102,98,-1,98,102,97,-1,103,102,104,-1,104,102,73,-1,104,73,105,-1,105,73,71,-1,105,71,106,-1,106,71,107,-1,106,107,103,-1,103,107,102,-1,108,109,110,-1,110,109,83,-1,110,83,111,-1,111,83,87,-1,111,87,112,-1,112,87,113,-1,112,113,108,-1,108,113,109,-1,114,113,115,-1,115,113,87,-1,115,87,116,-1,116,87,92,-1,116,92,117,-1,117,92,118,-1,117,118,114,-1,114,118,113,-1,119,118,120,-1,120,118,92,-1,120,92,121,-1,121,92,97,-1,121,97,122,-1,122,97,123,-1,122,123,119,-1,119,123,118,-1,124,123,125,-1,125,123,97,-1,125,97,126,-1,126,97,102,-1,126,102,127,-1,127,102,128,-1,127,128,124,-1,124,128,123,-1,129,128,130,-1,130,128,102,-1,130,102,131,-1,131,102,107,-1,131,107,132,-1,132,107,133,-1,132,133,129,-1,129,133,128,-1,68,70,71,-1,71,70,134,-1,71,134,107,-1,107,134,135,-1,107,135,133,-1,136,137,138,-1,138,137,139,-1,140,141,11,-1,139,137,41,-1,41,137,135,-1,41,135,14,-1,14,135,134,-1,14,134,12,-1,12,134,70,-1,12,70,11,-1,11,70,69,-1,11,69,140,-1,109,113,136,-1,136,113,118,-1,136,118,137,-1,137,118,123,-1,123,128,137,-1,137,128,133,-1,137,133,135,-1,1,142,143,-1,83,109,67,-1,67,109,136,-1,67,136,138,-1,143,80,1,-1,1,80,81,-1,1,81,2,-1,2,81,83,-1,2,83,66,-1,66,83,67,-1,78,80,143,-1,140,69,68,-1,68,72,140,-1,140,72,74,-1,140,74,143,-1,143,74,76,-1,143,76,78,-1,140,143,141,-1,141,143,142,-1,144,145,146,-1,146,145,147,-1,148,144,149,-1,149,144,146,-1,150,145,148,-1,148,145,144,-1,151,147,150,-1,150,147,145,-1,149,146,151,-1,151,146,147,-1,108,148,112,-1,112,148,149,-1,110,150,108,-1,108,150,148,-1,151,111,149,-1,149,111,112,-1,111,151,110,-1,110,151,150,-1,65,67,138,-1,139,41,45,-1,45,50,139,-1,139,50,55,-1,139,55,138,-1,138,55,60,-1,138,60,65,-1,9,11,141,-1,142,1,0,-1,0,3,142,-1,142,3,5,-1,142,5,141,-1,141,5,7,-1,141,7,9,-1,
        ]
    }
}
Shape{
    appearance Appearance {
        material  Material 	{
            diffuseColor 0.8274509803921568 0.6666666666666666 0.12941176470588237
            specularColor 0.8274509803921568 0.6666666666666666 0.12941176470588237
            ambientIntensity 0.2
            transparency 0
            shininess 0.5
        }
    }
    geometry IndexedFaceSet {
        ccw TRUE
        solid FALSE
        coord DEF co Coordinate {
            point [
                -2.1043 0.4508 -0.0394, -1.8957 0.4508 -0.0394, -2.1043 0.4508 0.1969, -1.8957 0.4508 0.1969, -1.8957 0.5492 0.1969, -1.8957 0.5492 -0.0394, -2.1043 0.5492 0.1969, -2.1043 0.5492 -0.0394, -2.1043 1.4055 -0.1378, -2.1043 1.4055 -0.2362, -2.1043 0.6476 -0.1378, -2.1043 0.6476 -0.2362, -2.1043 0.6257 -0.1353, -2.1043 0.6038 -0.2313, -2.1043 0.6049 -0.128, -2.1043 0.5622 -0.2167, -2.1043 0.5863 -0.1163, -2.1043 0.5249 -0.1933, -2.1043 0.5707 -0.1007, -2.1043 0.4937 -0.1621, -2.1043 0.559 -0.0821, -2.1043 0.4703 -0.1248, -2.1043 0.5517 -0.0613, -2.1043 0.4557 -0.0832, -1.8957 0.5517 -0.0613, -1.8957 0.4557 -0.0832, -1.8957 0.559 -0.0821, -1.8957 0.4703 -0.1248, -1.8957 0.5707 -0.1007, -1.8957 0.4937 -0.1621, -1.8957 0.5863 -0.1163, -1.8957 0.5249 -0.1933, -1.8957 0.6049 -0.128, -1.8957 0.5622 -0.2167, -1.8957 0.6257 -0.1353, -1.8957 0.6038 -0.2313, -1.8957 0.6476 -0.1378, -1.8957 0.6476 -0.2362, -1.8957 1.4055 -0.1378, -1.8957 1.4055 -0.2362, -1.8957 1.4055 -0.2362
            ]
        }
        coordIndex [
            0,1,2,-1,2,1,3,-1,4,5,6,-1,6,5,7,-1,8,9,10,-1,10,9,11,-1,10,11,12,-1,12,11,13,-1,12,13,14,-1,14,13,15,-1,14,15,16,-1,16,15,17,-1,16,17,18,-1,18,17,19,-1,18,19,20,-1,20,19,21,-1,20,21,22,-1,22,21,23,-1,22,23,7,-1,7,23,0,-1,7,0,6,-1,6,0,2,-1,4,3,5,-1,5,3,1,-1,5,1,24,-1,24,1,25,-1,24,25,26,-1,26,25,27,-1,26,27,28,-1,28,27,29,-1,28,29,30,-1,30,29,31,-1,30,31,32,-1,32,31,33,-1,32,33,34,-1,34,33,35,-1,34,35,36,-1,36,35,37,-1,36,37,38,-1,38,37,39,-1,8,10,38,-1,38,10,36,-1,9,8,39,-1,39,8,38,-1,11,9,37,-1,37,9,39,-1,11,37,35,-1,11,35,13,-1,13,35,33,-1,13,33,15,-1,15,33,31,-1,15,31,17,-1,17,31,29,-1,17,29,19,-1,19,29,27,-1,19,27,21,-1,21,27,25,-1,21,25,23,-1,23,25,1,-1,23,1,0,-1,7,5,22,-1,22,5,24,-1,22,24,20,-1,20,24,26,-1,20,26,18,-1,18,26,28,-1,18,28,16,-1,16,28,30,-1,16,30,14,-1,14,30,32,-1,14,32,12,-1,12,32,34,-1,12,34,10,-1,10,34,36,-1,
        ]
    }
}
Shape{
    appearance Appearance {
        material  Material 	{
            diffuseColor 0.20784313725490197 0.20784313725490197 0.20784313725490197
            specularColor 0.01568627450980392 0.01568627450980392 0.01568627450980392
            ambientIntensity 0.2
            transparency 0
            shininess 0.5
        }
    }
    geometry IndexedFaceSet {
        ccw TRUE
        solid FALSE
        coord DEF co Coordinate {
            point [
                -1.8031 -0.3031 3.2283, -1.8031 -0.3031 0.7874, -1.8031 -0.6969 3.2283, -1.8031 -0.6969 0.7874, -2.1969 -0.6969 3.2283, -2.1969 -0.6969 0.7874, -2.1969 -0.3031 3.2283, -2.1969 -0.3031 0.7874, -2.315 -0.815 3.3465, -1.685 -0.815 3.3465, -2.315 -0.185 3.3465, -1.685 -0.185 3.3465, -1.685 -0.185 3.3465
            ]
        }
        coordIndex [
            0,1,2,-1,2,1,3,-1,2,3,4,-1,4,3,5,-1,4,5,6,-1,6,5,7,-1,6,7,0,-1,0,7,1,-1,5,3,7,-1,7,3,1,-1,4,8,2,-1,2,8,9,-1,6,10,4,-1,4,10,8,-1,11,0,9,-1,9,0,2,-1,0,11,6,-1,6,11,10,-1,
        ]
    }
}
Shape{
    appearance Appearance {
        material  Material 	{
            diffuseColor 0.8274509803921568 0.6666666666666666 0.12941176470588237
            specularColor 0.8274509803921568 0.6666666666666666 0.12941176470588237
            ambientIntensity 0.2
            transparency 0
            shininess 0.5
        }
    }
    geometry IndexedFaceSet {
        ccw TRUE
        solid FALSE
        coord DEF co Coordinate {
            point [
                -2.1043 -0.5492 -0.0394, -1.8957 -0.5492 -0.0394, -2.1043 -0.5492 0.1969, -1.8957 -0.5492 0.1969, -1.8957 -0.4508 0.1969, -1.8957 -0.4508 -0.0394, -2.1043 -0.4508 0.1969, -2.1043 -0.4508 -0.0394, -2.1043 -0.5517 -0.0613, -2.1043 -0.4557 -0.0832, -2.1043 -0.559 -0.0821, -2.1043 -0.4703 -0.1248, -2.1043 -0.5707 -0.1007, -2.1043 -0.4937 -0.1621, -2.1043 -0.5863 -0.1163, -2.1043 -0.5249 -0.1933, -2.1043 -0.6049 -0.128, -2.1043 -0.5622 -0.2167, -2.1043 -0.6257 -0.1353, -2.1043 -0.6038 -0.2313, -2.1043 -0.6476 -0.1378, -2.1043 -0.6476 -0.2362, -2.1043 -1.4055 -0.1378, -2.1043 -1.4055 -0.2362, -1.8957 -1.4055 -0.1378, -1.8957 -1.4055 -0.2362, -1.8957 -0.6476 -0.1378, -1.8957 -0.6476 -0.2362, -1.8957 -0.6257 -0.1353, -1.8957 -0.6038 -0.2313, -1.8957 -0.6049 -0.128, -1.8957 -0.5622 -0.2167, -1.8957 -0.5863 -0.1163, -1.8957 -0.5249 -0.1933, -1.8957 -0.5707 -0.1007, -1.8957 -0.4937 -0.1621, -1.8957 -0.559 -0.0821, -1.8957 -0.4703 -0.1248, -1.8957 -0.5517 -0.0613, -1.8957 -0.4557 -0.0832, -1.8957 -0.4557 -0.0832
            ]
        }
        coordIndex [
            0,1,2,-1,2,1,3,-1,4,5,6,-1,6,5,7,-1,2,6,0,-1,0,6,7,-1,0,7,8,-1,8,7,9,-1,8,9,10,-1,10,9,11,-1,10,11,12,-1,12,11,13,-1,12,13,14,-1,14,13,15,-1,14,15,16,-1,16,15,17,-1,16,17,18,-1,18,17,19,-1,18,19,20,-1,20,19,21,-1,20,21,22,-1,22,21,23,-1,24,25,26,-1,26,25,27,-1,26,27,28,-1,28,27,29,-1,28,29,30,-1,30,29,31,-1,30,31,32,-1,32,31,33,-1,32,33,34,-1,34,33,35,-1,34,35,36,-1,36,35,37,-1,36,37,38,-1,38,37,39,-1,38,39,1,-1,1,39,5,-1,1,5,3,-1,3,5,4,-1,20,22,26,-1,26,22,24,-1,20,26,18,-1,18,26,28,-1,18,28,16,-1,16,28,30,-1,16,30,14,-1,14,30,32,-1,14,32,12,-1,12,32,34,-1,12,34,10,-1,10,34,36,-1,10,36,8,-1,8,36,38,-1,8,38,0,-1,0,38,1,-1,7,5,39,-1,7,39,9,-1,9,39,37,-1,9,37,11,-1,11,37,35,-1,11,35,13,-1,13,35,33,-1,13,33,15,-1,15,33,31,-1,15,31,17,-1,17,31,29,-1,17,29,19,-1,19,29,27,-1,19,27,21,-1,23,21,25,-1,25,21,27,-1,22,23,24,-1,24,23,25,-1,
        ]
    }
}
Shape{
    appearance Appearance {
        material  Material 	{
            diffuseColor 0.20784313725490197 0.20784313725490197 0.20784313725490197
            specularColor 0.01568627450980392 0.01568627450980392 0.01568627450980392
            ambientIntensity 0.2
            transparency 0
            shininess 0.5
        }
    }
    geometry IndexedFaceSet {
        ccw TRUE
        solid FALSE
        coord DEF co Coordinate {
            point [
                -0.8031 -0.3031 3.2283, -0.8031 -0.3031 0.7874, -0.8031 -0.6969 3.2283, -0.8031 -0.6969 0.7874, -1.1969 -0.6969 3.2283, -1.1969 -0.6969 0.7874, -1.1969 -0.3031 3.2283, -1.1969 -0.3031 0.7874, -1.315 -0.815 3.3465, -0.685 -0.815 3.3465, -1.315 -0.185 3.3465, -0.685 -0.185 3.3465, -0.685 -0.185 3.3465
            ]
        }
        coordIndex [
            0,1,2,-1,2,1,3,-1,2,3,4,-1,4,3,5,-1,4,5,6,-1,6,5,7,-1,6,7,0,-1,0,7,1,-1,5,3,7,-1,7,3,1,-1,4,8,2,-1,2,8,9,-1,6,10,4,-1,4,10,8,-1,11,0,9,-1,9,0,2,-1,0,11,6,-1,6,11,10,-1,
        ]
    }
}
Shape{
    appearance Appearance {
        material  Material 	{
            diffuseColor 0.8274509803921568 0.6666666666666666 0.12941176470588237
            specularColor 0.8274509803921568 0.6666666666666666 0.12941176470588237
            ambientIntensity 0.2
            transparency 0
            shininess 0.5
        }
    }
    geometry IndexedFaceSet {
        ccw TRUE
        solid FALSE
        coord DEF co Coordinate {
            point [
                -1.1043 -0.5492 -0.0394, -0.8957 -0.5492 -0.0394, -1.1043 -0.5492 0.1969, -0.8957 -0.5492 0.1969, -0.8957 -0.4508 0.1969, -0.8957 -0.4508 -0.0394, -1.1043 -0.4508 0.1969, -1.1043 -0.4508 -0.0394, -1.1043 -0.5517 -0.0613, -1.1043 -0.4557 -0.0832, -1.1043 -0.559 -0.0821, -1.1043 -0.4703 -0.1248, -1.1043 -0.5707 -0.1007, -1.1043 -0.4937 -0.1621, -1.1043 -0.5863 -0.1163, -1.1043 -0.5249 -0.1933, -1.1043 -0.6049 -0.128, -1.1043 -0.5622 -0.2167, -1.1043 -0.6257 -0.1353, -1.1043 -0.6038 -0.2313, -1.1043 -0.6476 -0.1378, -1.1043 -0.6476 -0.2362, -1.1043 -1.4055 -0.1378, -1.1043 -1.4055 -0.2362, -0.8957 -1.4055 -0.1378, -0.8957 -1.4055 -0.2362, -0.8957 -0.6476 -0.1378, -0.8957 -0.6476 -0.2362, -0.8957 -0.6257 -0.1353, -0.8957 -0.6038 -0.2313, -0.8957 -0.6049 -0.128, -0.8957 -0.5622 -0.2167, -0.8957 -0.5863 -0.1163, -0.8957 -0.5249 -0.1933, -0.8957 -0.5707 -0.1007, -0.8957 -0.4937 -0.1621, -0.8957 -0.559 -0.0821, -0.8957 -0.4703 -0.1248, -0.8957 -0.5517 -0.0613, -0.8957 -0.4557 -0.0832, -0.8957 -0.4557 -0.0832
            ]
        }
        coordIndex [
            0,1,2,-1,2,1,3,-1,4,5,6,-1,6,5,7,-1,2,6,0,-1,0,6,7,-1,0,7,8,-1,8,7,9,-1,8,9,10,-1,10,9,11,-1,10,11,12,-1,12,11,13,-1,12,13,14,-1,14,13,15,-1,14,15,16,-1,16,15,17,-1,16,17,18,-1,18,17,19,-1,18,19,20,-1,20,19,21,-1,20,21,22,-1,22,21,23,-1,24,25,26,-1,26,25,27,-1,26,27,28,-1,28,27,29,-1,28,29,30,-1,30,29,31,-1,30,31,32,-1,32,31,33,-1,32,33,34,-1,34,33,35,-1,34,35,36,-1,36,35,37,-1,36,37,38,-1,38,37,39,-1,38,39,1,-1,1,39,5,-1,1,5,3,-1,3,5,4,-1,20,22,26,-1,26,22,24,-1,20,26,18,-1,18,26,28,-1,18,28,16,-1,16,28,30,-1,16,30,14,-1,14,30,32,-1,14,32,12,-1,12,32,34,-1,12,34,10,-1,10,34,36,-1,10,36,8,-1,8,36,38,-1,8,38,0,-1,0,38,1,-1,7,5,39,-1,7,39,9,-1,9,39,37,-1,9,37,11,-1,11,37,35,-1,11,35,13,-1,13,35,33,-1,13,33,15,-1,15,33,31,-1,15,31,17,-1,17,31,29,-1,17,29,19,-1,19,29,27,-1,19,27,21,-1,23,21,25,-1,25,21,27,-1,22,23,24,-1,24,23,25,-1,
        ]
    }
}
Shape{
    appearance Appearance {
        material  Material 	{
            diffuseColor 0.20784313725490197 0.20784313725490197 0.20784313725490197
            specularColor 0.01568627450980392 0.01568627450980392 0.01568627450980392
            ambientIntensity 0.2
            transparency 0
            shininess 0.5
        }
    }
    geometry IndexedFaceSet {
        ccw TRUE
        solid FALSE
        coord DEF co Coordinate {
            point [
                0.1969 -0.3031 3.2283, 0.1969 -0.3031 0.7874, 0.1969 -0.6969 3.2283, 0.1969 -0.6969 0.7874, -0.1969 -0.6969 3.2283, -0.1969 -0.6969 0.7874, -0.1969 -0.3031 3.2283, -0.1969 -0.3031 0.7874, -0.315 -0.815 3.3465, 0.315 -0.815 3.3465, -0.315 -0.185 3.3465, 0.315 -0.185 3.3465, 0.315 -0.185 3.3465
            ]
        }
        coordIndex [
            0,1,2,-1,2,1,3,-1,2,3,4,-1,4,3,5,-1,4,5,6,-1,6,5,7,-1,6,7,0,-1,0,7,1,-1,5,3,7,-1,7,3,1,-1,4,8,2,-1,2,8,9,-1,6,10,4,-1,4,10,8,-1,11,0,9,-1,9,0,2,-1,0,11,6,-1,6,11,10,-1,
        ]
    }
}
Shape{
    appearance Appearance {
        material  Material 	{
            diffuseColor 0.8274509803921568 0.6666666666666666 0.12941176470588237
            specularColor 0.8274509803921568 0.6666666666666666 0.12941176470588237
            ambientIntensity 0.2
            transparency 0
            shininess 0.5
        }
    }
    geometry IndexedFaceSet {
        ccw TRUE
        solid FALSE
        coord DEF co Coordinate {
            point [
                -0.1043 -0.5492 -0.0394, 0.1043 -0.5492 -0.0394, -0.1043 -0.5492 0.1969, 0.1043 -0.5492 0.1969, 0.1043 -0.4508 0.1969, 0.1043 -0.4508 -0.0394, -0.1043 -0.4508 0.1969, -0.1043 -0.4508 -0.0394, -0.1043 -0.5517 -0.0613, -0.1043 -0.4557 -0.0832, -0.1043 -0.559 -0.0821, -0.1043 -0.4703 -0.1248, -0.1043 -0.5707 -0.1007, -0.1043 -0.4937 -0.1621, -0.1043 -0.5863 -0.1163, -0.1043 -0.5249 -0.1933, -0.1043 -0.6049 -0.128, -0.1043 -0.5622 -0.2167, -0.1043 -0.6257 -0.1353, -0.1043 -0.6038 -0.2313, -0.1043 -0.6476 -0.1378, -0.1043 -0.6476 -0.2362, -0.1043 -1.4055 -0.1378, -0.1043 -1.4055 -0.2362, 0.1043 -1.4055 -0.1378, 0.1043 -1.4055 -0.2362, 0.1043 -0.6476 -0.1378, 0.1043 -0.6476 -0.2362, 0.1043 -0.6257 -0.1353, 0.1043 -0.6038 -0.2313, 0.1043 -0.6049 -0.128, 0.1043 -0.5622 -0.2167, 0.1043 -0.5863 -0.1163, 0.1043 -0.5249 -0.1933, 0.1043 -0.5707 -0.1007, 0.1043 -0.4937 -0.1621, 0.1043 -0.559 -0.0821, 0.1043 -0.4703 -0.1248, 0.1043 -0.5517 -0.0613, 0.1043 -0.4557 -0.0832, 0.1043 -0.4557 -0.0832
            ]
        }
        coordIndex [
            0,1,2,-1,2,1,3,-1,4,5,6,-1,6,5,7,-1,2,6,0,-1,0,6,7,-1,0,7,8,-1,8,7,9,-1,8,9,10,-1,10,9,11,-1,10,11,12,-1,12,11,13,-1,12,13,14,-1,14,13,15,-1,14,15,16,-1,16,15,17,-1,16,17,18,-1,18,17,19,-1,18,19,20,-1,20,19,21,-1,20,21,22,-1,22,21,23,-1,24,25,26,-1,26,25,27,-1,26,27,28,-1,28,27,29,-1,28,29,30,-1,30,29,31,-1,30,31,32,-1,32,31,33,-1,32,33,34,-1,34,33,35,-1,34,35,36,-1,36,35,37,-1,36,37,38,-1,38,37,39,-1,38,39,1,-1,1,39,5,-1,1,5,3,-1,3,5,4,-1,20,22,26,-1,26,22,24,-1,20,26,18,-1,18,26,28,-1,18,28,16,-1,16,28,30,-1,16,30,14,-1,14,30,32,-1,14,32,12,-1,12,32,34,-1,12,34,10,-1,10,34,36,-1,10,36,8,-1,8,36,38,-1,8,38,0,-1,0,38,1,-1,7,5,39,-1,7,39,9,-1,9,39,37,-1,9,37,11,-1,11,37,35,-1,11,35,13,-1,13,35,33,-1,13,33,15,-1,15,33,31,-1,15,31,17,-1,17,31,29,-1,17,29,19,-1,19,29,27,-1,19,27,21,-1,23,21,25,-1,25,21,27,-1,22,23,24,-1,24,23,25,-1,
        ]
    }
}
Shape{
    appearance Appearance {
        material  Material 	{
            diffuseColor 0.20784313725490197 0.20784313725490197 0.20784313725490197
            specularColor 0.01568627450980392 0.01568627450980392 0.01568627450980392
            ambientIntensity 0.2
            transparency 0
            shininess 0.5
        }
    }
    geometry IndexedFaceSet {
        ccw TRUE
        solid FALSE
        coord DEF co Coordinate {
            point [
                1.1969 -0.3031 3.2283, 1.1969 -0.3031 0.7874, 1.1969 -0.6969 3.2283, 1.1969 -0.6969 0.7874, 0.8031 -0.6969 3.2283, 0.8031 -0.6969 0.7874, 0.8031 -0.3031 3.2283, 0.8031 -0.3031 0.7874, 0.685 -0.815 3.3465, 1.315 -0.815 3.3465, 0.685 -0.185 3.3465, 1.315 -0.185 3.3465, 1.315 -0.185 3.3465
            ]
        }
        coordIndex [
            0,1,2,-1,2,1,3,-1,2,3,4,-1,4,3,5,-1,4,5,6,-1,6,5,7,-1,6,7,0,-1,0,7,1,-1,5,3,7,-1,7,3,1,-1,4,8,2,-1,2,8,9,-1,6,10,4,-1,4,10,8,-1,11,0,9,-1,9,0,2,-1,0,11,6,-1,6,11,10,-1,
        ]
    }
}
Shape{
    appearance Appearance {
        material  Material 	{
            diffuseColor 0.8274509803921568 0.6666666666666666 0.12941176470588237
            specularColor 0.8274509803921568 0.6666666666666666 0.12941176470588237
            ambientIntensity 0.2
            transparency 0
            shininess 0.5
        }
    }
    geometry IndexedFaceSet {
        ccw TRUE
        solid FALSE
        coord DEF co Coordinate {
            point [
                0.8957 -0.5492 -0.0394, 1.1043 -0.5492 -0.0394, 0.8957 -0.5492 0.1969, 1.1043 -0.5492 0.1969, 1.1043 -0.4508 0.1969, 1.1043 -0.4508 -0.0394, 0.8957 -0.4508 0.1969, 0.8957 -0.4508 -0.0394, 0.8957 -0.5517 -0.0613, 0.8957 -0.4557 -0.0832, 0.8957 -0.559 -0.0821, 0.8957 -0.4703 -0.1248, 0.8957 -0.5707 -0.1007, 0.8957 -0.4937 -0.1621, 0.8957 -0.5863 -0.1163, 0.8957 -0.5249 -0.1933, 0.8957 -0.6049 -0.128, 0.8957 -0.5622 -0.2167, 0.8957 -0.6257 -0.1353, 0.8957 -0.6038 -0.2313, 0.8957 -0.6476 -0.1378, 0.8957 -0.6476 -0.2362, 0.8957 -1.4055 -0.1378, 0.8957 -1.4055 -0.2362, 1.1043 -1.4055 -0.1378, 1.1043 -1.4055 -0.2362, 1.1043 -0.6476 -0.1378, 1.1043 -0.6476 -0.2362, 1.1043 -0.6257 -0.1353, 1.1043 -0.6038 -0.2313, 1.1043 -0.6049 -0.128, 1.1043 -0.5622 -0.2167, 1.1043 -0.5863 -0.1163, 1.1043 -0.5249 -0.1933, 1.1043 -0.5707 -0.1007, 1.1043 -0.4937 -0.1621, 1.1043 -0.559 -0.0821, 1.1043 -0.4703 -0.1248, 1.1043 -0.5517 -0.0613, 1.1043 -0.4557 -0.0832, 1.1043 -0.4557 -0.0832
            ]
        }
        coordIndex [
            0,1,2,-1,2,1,3,-1,4,5,6,-1,6,5,7,-1,2,6,0,-1,0,6,7,-1,0,7,8,-1,8,7,9,-1,8,9,10,-1,10,9,11,-1,10,11,12,-1,12,11,13,-1,12,13,14,-1,14,13,15,-1,14,15,16,-1,16,15,17,-1,16,17,18,-1,18,17,19,-1,18,19,20,-1,20,19,21,-1,20,21,22,-1,22,21,23,-1,24,25,26,-1,26,25,27,-1,26,27,28,-1,28,27,29,-1,28,29,30,-1,30,29,31,-1,30,31,32,-1,32,31,33,-1,32,33,34,-1,34,33,35,-1,34,35,36,-1,36,35,37,-1,36,37,38,-1,38,37,39,-1,38,39,1,-1,1,39,5,-1,1,5,3,-1,3,5,4,-1,20,22,26,-1,26,22,24,-1,20,26,18,-1,18,26,28,-1,18,28,16,-1,16,28,30,-1,16,30,14,-1,14,30,32,-1,14,32,12,-1,12,32,34,-1,12,34,10,-1,10,34,36,-1,10,36,8,-1,8,36,38,-1,8,38,0,-1,0,38,1,-1,7,5,39,-1,7,39,9,-1,9,39,37,-1,9,37,11,-1,11,37,35,-1,11,35,13,-1,13,35,33,-1,13,33,15,-1,15,33,31,-1,15,31,17,-1,17,31,29,-1,17,29,19,-1,19,29,27,-1,19,27,21,-1,23,21,25,-1,25,21,27,-1,22,23,24,-1,24,23,25,-1,
        ]
    }
}
Shape{
    appearance Appearance {
        material  Material 	{
            diffuseColor 0.20784313725490197 0.20784313725490197 0.20784313725490197
            specularColor 0.01568627450980392 0.01568627450980392 0.01568627450980392
            ambientIntensity 0.2
            transparency 0
            shininess 0.5
        }
    }
    geometry IndexedFaceSet {
        ccw TRUE
        solid FALSE
        coord DEF co Coordinate {
            point [
                2.1969 -0.3031 3.2283, 2.1969 -0.3031 0.7874, 2.1969 -0.6969 3.2283, 2.1969 -0.6969 0.7874, 1.8031 -0.6969 3.2283, 1.8031 -0.6969 0.7874, 1.8031 -0.3031 3.2283, 1.8031 -0.3031 0.7874, 1.685 -0.815 3.3465, 2.315 -0.815 3.3465, 1.685 -0.185 3.3465, 2.315 -0.185 3.3465, 2.315 -0.185 3.3465
            ]
        }
        coordIndex [
            0,1,2,-1,2,1,3,-1,2,3,4,-1,4,3,5,-1,4,5,6,-1,6,5,7,-1,6,7,0,-1,0,7,1,-1,5,3,7,-1,7,3,1,-1,4,8,2,-1,2,8,9,-1,6,10,4,-1,4,10,8,-1,11,0,9,-1,9,0,2,-1,0,11,6,-1,6,11,10,-1,
        ]
    }
}
Shape{
    appearance Appearance {
        material  Material 	{
            diffuseColor 0.8274509803921568 0.6666666666666666 0.12941176470588237
            specularColor 0.8274509803921568 0.6666666666666666 0.12941176470588237
            ambientIntensity 0.2
            transparency 0
            shininess 0.5
        }
    }
    geometry IndexedFaceSet {
        ccw TRUE
        solid FALSE
        coord DEF co Coordinate {
            point [
                1.8957 -0.5492 -0.0394, 2.1043 -0.5492 -0.0394, 1.8957 -0.5492 0.1969, 2.1043 -0.5492 0.1969, 2.1043 -0.4508 0.1969, 2.1043 -0.4508 -0.0394, 1.8957 -0.4508 0.1969, 1.8957 -0.4508 -0.0394, 1.8957 -0.5517 -0.0613, 1.8957 -0.4557 -0.0832, 1.8957 -0.559 -0.0821, 1.8957 -0.4703 -0.1248, 1.8957 -0.5707 -0.1007, 1.8957 -0.4937 -0.1621, 1.8957 -0.5863 -0.1163, 1.8957 -0.5249 -0.1933, 1.8957 -0.6049 -0.128, 1.8957 -0.5622 -0.2167, 1.8957 -0.6257 -0.1353, 1.8957 -0.6038 -0.2313, 1.8957 -0.6476 -0.1378, 1.8957 -0.6476 -0.2362, 1.8957 -1.4055 -0.1378, 1.8957 -1.4055 -0.2362, 2.1043 -1.4055 -0.1378, 2.1043 -1.4055 -0.2362, 2.1043 -0.6476 -0.1378, 2.1043 -0.6476 -0.2362, 2.1043 -0.6257 -0.1353, 2.1043 -0.6038 -0.2313, 2.1043 -0.6049 -0.128, 2.1043 -0.5622 -0.2167, 2.1043 -0.5863 -0.1163, 2.1043 -0.5249 -0.1933, 2.1043 -0.5707 -0.1007, 2.1043 -0.4937 -0.1621, 2.1043 -0.559 -0.0821, 2.1043 -0.4703 -0.1248, 2.1043 -0.5517 -0.0613, 2.1043 -0.4557 -0.0832, 2.1043 -0.4557 -0.0832
            ]
        }
        coordIndex [
            0,1,2,-1,2,1,3,-1,4,5,6,-1,6,5,7,-1,2,6,0,-1,0,6,7,-1,0,7,8,-1,8,7,9,-1,8,9,10,-1,10,9,11,-1,10,11,12,-1,12,11,13,-1,12,13,14,-1,14,13,15,-1,14,15,16,-1,16,15,17,-1,16,17,18,-1,18,17,19,-1,18,19,20,-1,20,19,21,-1,20,21,22,-1,22,21,23,-1,24,25,26,-1,26,25,27,-1,26,27,28,-1,28,27,29,-1,28,29,30,-1,30,29,31,-1,30,31,32,-1,32,31,33,-1,32,33,34,-1,34,33,35,-1,34,35,36,-1,36,35,37,-1,36,37,38,-1,38,37,39,-1,38,39,1,-1,1,39,5,-1,1,5,3,-1,3,5,4,-1,20,22,26,-1,26,22,24,-1,20,26,18,-1,18,26,28,-1,18,28,16,-1,16,28,30,-1,16,30,14,-1,14,30,32,-1,14,32,12,-1,12,32,34,-1,12,34,10,-1,10,34,36,-1,10,36,8,-1,8,36,38,-1,8,38,0,-1,0,38,1,-1,7,5,39,-1,7,39,9,-1,9,39,37,-1,9,37,11,-1,11,37,35,-1,11,35,13,-1,13,35,33,-1,13,33,15,-1,15,33,31,-1,15,31,17,-1,17,31,29,-1,17,29,19,-1,19,29,27,-1,19,27,21,-1,23,21,25,-1,25,21,27,-1,22,23,24,-1,24,23,25,-1,
        ]
    }
}
Shape{
    appearance Appearance {
        material  Material 	{
            diffuseColor 0.20784313725490197 0.20784313725490197 0.20784313725490197
            specularColor 0.01568627450980392 0.01568627450980392 0.01568627450980392
            ambientIntensity 0.2
            transparency 0
            shininess 0.5
        }
    }
    geometry IndexedFaceSet {
        ccw TRUE
        solid FALSE
        coord DEF co Coordinate {
            point [
                1.8031 0.6969 0.7874, 1.8031 0.3031 0.7874, 2.1969 0.6969 0.7874, 2.1969 0.3031 0.7874, 1.8031 0.6969 3.2283, 2.1969 0.6969 3.2283, 1.8031 0.3031 3.2283, 2.1969 0.3031 3.2283, 0.8031 0.6969 0.7874, 0.8031 0.3031 0.7874, 1.1969 0.6969 0.7874, 1.1969 0.3031 0.7874, 0.8031 0.6969 3.2283, 1.1969 0.6969 3.2283, 0.8031 0.3031 3.2283, 1.1969 0.3031 3.2283, -0.1969 0.6969 0.7874, -0.1969 0.3031 0.7874, 0.1969 0.6969 0.7874, 0.1969 0.3031 0.7874, -0.1969 0.6969 3.2283, 0.1969 0.6969 3.2283, -0.1969 0.3031 3.2283, 0.1969 0.3031 3.2283, -1.1969 0.6969 0.7874, -1.1969 0.3031 0.7874, -0.8031 0.6969 0.7874, -0.8031 0.3031 0.7874, -1.1969 0.6969 3.2283, -0.8031 0.6969 3.2283, -1.1969 0.3031 3.2283, -0.8031 0.3031 3.2283, -1.315 0.815 3.3465, -0.685 0.815 3.3465, -1.315 0.185 3.3465, -0.685 0.185 3.3465, -0.315 0.815 3.3465, 0.315 0.815 3.3465, -0.315 0.185 3.3465, 0.315 0.185 3.3465, 0.685 0.815 3.3465, 1.315 0.815 3.3465, 0.685 0.185 3.3465, 1.315 0.185 3.3465, 1.685 0.815 3.3465, 2.315 0.815 3.3465, 1.685 0.185 3.3465, 2.315 0.185 3.3465, 2.315 0.185 3.3465
            ]
        }
        coordIndex [
            0,1,2,-1,2,1,3,-1,4,0,5,-1,5,0,2,-1,6,1,4,-1,4,1,0,-1,7,3,6,-1,6,3,1,-1,5,2,7,-1,7,2,3,-1,8,9,10,-1,10,9,11,-1,12,8,13,-1,13,8,10,-1,14,9,12,-1,12,9,8,-1,15,11,14,-1,14,11,9,-1,13,10,15,-1,15,10,11,-1,16,17,18,-1,18,17,19,-1,20,16,21,-1,21,16,18,-1,22,17,20,-1,20,17,16,-1,23,19,22,-1,22,19,17,-1,21,18,23,-1,23,18,19,-1,24,25,26,-1,26,25,27,-1,28,24,29,-1,29,24,26,-1,30,25,28,-1,28,25,24,-1,31,27,30,-1,30,27,25,-1,29,26,31,-1,31,26,27,-1,32,28,33,-1,33,28,29,-1,34,30,32,-1,32,30,28,-1,31,35,29,-1,29,35,33,-1,35,31,34,-1,34,31,30,-1,36,20,37,-1,37,20,21,-1,38,22,36,-1,36,22,20,-1,23,39,21,-1,21,39,37,-1,39,23,38,-1,38,23,22,-1,40,12,41,-1,41,12,13,-1,42,14,40,-1,40,14,12,-1,15,43,13,-1,13,43,41,-1,43,15,42,-1,42,15,14,-1,44,4,45,-1,45,4,5,-1,46,6,44,-1,44,6,4,-1,7,47,5,-1,5,47,45,-1,47,7,46,-1,46,7,6,-1,
        ]
    }
}
Shape{
    appearance Appearance {
        material  Material 	{
            diffuseColor 0.8274509803921568 0.6666666666666666 0.12941176470588237
            specularColor 0.8274509803921568 0.6666666666666666 0.12941176470588237
            ambientIntensity 0.2
            transparency 0
            shininess 0.5
        }
    }
    geometry IndexedFaceSet {
        ccw TRUE
        solid FALSE
        coord DEF co Coordinate {
            point [
                -1.1043 0.4508 -0.0394, -0.8957 0.4508 -0.0394, -1.1043 0.4508 0.1969, -0.8957 0.4508 0.1969, -0.8957 0.5492 0.1969, -0.8957 0.5492 -0.0394, -1.1043 0.5492 0.1969, -1.1043 0.5492 -0.0394, -1.1043 1.4055 -0.1378, -1.1043 1.4055 -0.2362, -1.1043 0.6476 -0.1378, -1.1043 0.6476 -0.2362, -1.1043 0.6257 -0.1353, -1.1043 0.6038 -0.2313, -1.1043 0.6049 -0.128, -1.1043 0.5622 -0.2167, -1.1043 0.5863 -0.1163, -1.1043 0.5249 -0.1933, -1.1043 0.5707 -0.1007, -1.1043 0.4937 -0.1621, -1.1043 0.559 -0.0821, -1.1043 0.4703 -0.1248, -1.1043 0.5517 -0.0613, -1.1043 0.4557 -0.0832, -0.8957 0.5517 -0.0613, -0.8957 0.4557 -0.0832, -0.8957 0.559 -0.0821, -0.8957 0.4703 -0.1248, -0.8957 0.5707 -0.1007, -0.8957 0.4937 -0.1621, -0.8957 0.5863 -0.1163, -0.8957 0.5249 -0.1933, -0.8957 0.6049 -0.128, -0.8957 0.5622 -0.2167, -0.8957 0.6257 -0.1353, -0.8957 0.6038 -0.2313, -0.8957 0.6476 -0.1378, -0.8957 0.6476 -0.2362, -0.8957 1.4055 -0.1378, -0.8957 1.4055 -0.2362, -0.1043 0.4508 -0.0394, 0.1043 0.4508 -0.0394, -0.1043 0.4508 0.1969, 0.1043 0.4508 0.1969, 0.1043 0.5492 0.1969, 0.1043 0.5492 -0.0394, -0.1043 0.5492 0.1969, -0.1043 0.5492 -0.0394, -0.1043 1.4055 -0.1378, -0.1043 1.4055 -0.2362, -0.1043 0.6476 -0.1378, -0.1043 0.6476 -0.2362, -0.1043 0.6257 -0.1353, -0.1043 0.6038 -0.2313, -0.1043 0.6049 -0.128, -0.1043 0.5622 -0.2167, -0.1043 0.5863 -0.1163, -0.1043 0.5249 -0.1933, -0.1043 0.5707 -0.1007, -0.1043 0.4937 -0.1621, -0.1043 0.559 -0.0821, -0.1043 0.4703 -0.1248, -0.1043 0.5517 -0.0613, -0.1043 0.4557 -0.0832, 0.1043 0.5517 -0.0613, 0.1043 0.4557 -0.0832, 0.1043 0.559 -0.0821, 0.1043 0.4703 -0.1248, 0.1043 0.5707 -0.1007, 0.1043 0.4937 -0.1621, 0.1043 0.5863 -0.1163, 0.1043 0.5249 -0.1933, 0.1043 0.6049 -0.128, 0.1043 0.5622 -0.2167, 0.1043 0.6257 -0.1353, 0.1043 0.6038 -0.2313, 0.1043 0.6476 -0.1378, 0.1043 0.6476 -0.2362, 0.1043 1.4055 -0.1378, 0.1043 1.4055 -0.2362, 0.8957 0.4508 -0.0394, 1.1043 0.4508 -0.0394, 0.8957 0.4508 0.1969, 1.1043 0.4508 0.1969, 1.1043 0.5492 0.1969, 1.1043 0.5492 -0.0394, 0.8957 0.5492 0.1969, 0.8957 0.5492 -0.0394, 0.8957 1.4055 -0.1378, 0.8957 1.4055 -0.2362, 0.8957 0.6476 -0.1378, 0.8957 0.6476 -0.2362, 0.8957 0.6257 -0.1353, 0.8957 0.6038 -0.2313, 0.8957 0.6049 -0.128, 0.8957 0.5622 -0.2167, 0.8957 0.5863 -0.1163, 0.8957 0.5249 -0.1933, 0.8957 0.5707 -0.1007, 0.8957 0.4937 -0.1621, 0.8957 0.559 -0.0821, 0.8957 0.4703 -0.1248, 0.8957 0.5517 -0.0613, 0.8957 0.4557 -0.0832, 1.1043 0.5517 -0.0613, 1.1043 0.4557 -0.0832, 1.1043 0.559 -0.0821, 1.1043 0.4703 -0.1248, 1.1043 0.5707 -0.1007, 1.1043 0.4937 -0.1621, 1.1043 0.5863 -0.1163, 1.1043 0.5249 -0.1933, 1.1043 0.6049 -0.128, 1.1043 0.5622 -0.2167, 1.1043 0.6257 -0.1353, 1.1043 0.6038 -0.2313, 1.1043 0.6476 -0.1378, 1.1043 0.6476 -0.2362, 1.1043 1.4055 -0.1378, 1.1043 1.4055 -0.2362, 1.8957 0.4508 -0.0394, 2.1043 0.4508 -0.0394, 1.8957 0.4508 0.1969, 2.1043 0.4508 0.1969, 2.1043 0.5492 0.1969, 2.1043 0.5492 -0.0394, 1.8957 0.5492 0.1969, 1.8957 0.5492 -0.0394, 1.8957 1.4055 -0.1378, 1.8957 1.4055 -0.2362, 1.8957 0.6476 -0.1378, 1.8957 0.6476 -0.2362, 1.8957 0.6257 -0.1353, 1.8957 0.6038 -0.2313, 1.8957 0.6049 -0.128, 1.8957 0.5622 -0.2167, 1.8957 0.5863 -0.1163, 1.8957 0.5249 -0.1933, 1.8957 0.5707 -0.1007, 1.8957 0.4937 -0.1621, 1.8957 0.559 -0.0821, 1.8957 0.4703 -0.1248, 1.8957 0.5517 -0.0613, 1.8957 0.4557 -0.0832, 2.1043 0.5517 -0.0613, 2.1043 0.4557 -0.0832, 2.1043 0.559 -0.0821, 2.1043 0.4703 -0.1248, 2.1043 0.5707 -0.1007, 2.1043 0.4937 -0.1621, 2.1043 0.5863 -0.1163, 2.1043 0.5249 -0.1933, 2.1043 0.6049 -0.128, 2.1043 0.5622 -0.2167, 2.1043 0.6257 -0.1353, 2.1043 0.6038 -0.2313, 2.1043 0.6476 -0.1378, 2.1043 0.6476 -0.2362, 2.1043 1.4055 -0.1378, 2.1043 1.4055 -0.2362, 2.1043 1.4055 -0.2362
            ]
        }
        coordIndex [
            0,1,2,-1,2,1,3,-1,4,5,6,-1,6,5,7,-1,8,9,10,-1,10,9,11,-1,10,11,12,-1,12,11,13,-1,12,13,14,-1,14,13,15,-1,14,15,16,-1,16,15,17,-1,16,17,18,-1,18,17,19,-1,18,19,20,-1,20,19,21,-1,20,21,22,-1,22,21,23,-1,22,23,7,-1,7,23,0,-1,7,0,6,-1,6,0,2,-1,4,3,5,-1,5,3,1,-1,5,1,24,-1,24,1,25,-1,24,25,26,-1,26,25,27,-1,26,27,28,-1,28,27,29,-1,28,29,30,-1,30,29,31,-1,30,31,32,-1,32,31,33,-1,32,33,34,-1,34,33,35,-1,34,35,36,-1,36,35,37,-1,36,37,38,-1,38,37,39,-1,8,10,38,-1,38,10,36,-1,9,8,39,-1,39,8,38,-1,11,9,37,-1,37,9,39,-1,11,37,35,-1,11,35,13,-1,13,35,33,-1,13,33,15,-1,15,33,31,-1,15,31,17,-1,17,31,29,-1,17,29,19,-1,19,29,27,-1,19,27,21,-1,21,27,25,-1,21,25,23,-1,23,25,1,-1,23,1,0,-1,7,5,22,-1,22,5,24,-1,22,24,20,-1,20,24,26,-1,20,26,18,-1,18,26,28,-1,18,28,16,-1,16,28,30,-1,16,30,14,-1,14,30,32,-1,14,32,12,-1,12,32,34,-1,12,34,10,-1,10,34,36,-1,40,41,42,-1,42,41,43,-1,44,45,46,-1,46,45,47,-1,48,49,50,-1,50,49,51,-1,50,51,52,-1,52,51,53,-1,52,53,54,-1,54,53,55,-1,54,55,56,-1,56,55,57,-1,56,57,58,-1,58,57,59,-1,58,59,60,-1,60,59,61,-1,60,61,62,-1,62,61,63,-1,62,63,47,-1,47,63,40,-1,47,40,46,-1,46,40,42,-1,44,43,45,-1,45,43,41,-1,45,41,64,-1,64,41,65,-1,64,65,66,-1,66,65,67,-1,66,67,68,-1,68,67,69,-1,68,69,70,-1,70,69,71,-1,70,71,72,-1,72,71,73,-1,72,73,74,-1,74,73,75,-1,74,75,76,-1,76,75,77,-1,76,77,78,-1,78,77,79,-1,48,50,78,-1,78,50,76,-1,49,48,79,-1,79,48,78,-1,51,49,77,-1,77,49,79,-1,51,77,75,-1,51,75,53,-1,53,75,73,-1,53,73,55,-1,55,73,71,-1,55,71,57,-1,57,71,69,-1,57,69,59,-1,59,69,67,-1,59,67,61,-1,61,67,65,-1,61,65,63,-1,63,65,41,-1,63,41,40,-1,47,45,62,-1,62,45,64,-1,62,64,60,-1,60,64,66,-1,60,66,58,-1,58,66,68,-1,58,68,56,-1,56,68,70,-1,56,70,54,-1,54,70,72,-1,54,72,52,-1,52,72,74,-1,52,74,50,-1,50,74,76,-1,80,81,82,-1,82,81,83,-1,84,85,86,-1,86,85,87,-1,88,89,90,-1,90,89,91,-1,90,91,92,-1,92,91,93,-1,92,93,94,-1,94,93,95,-1,94,95,96,-1,96,95,97,-1,96,97,98,-1,98,97,99,-1,98,99,100,-1,100,99,101,-1,100,101,102,-1,102,101,103,-1,102,103,87,-1,87,103,80,-1,87,80,86,-1,86,80,82,-1,84,83,85,-1,85,83,81,-1,85,81,104,-1,104,81,105,-1,104,105,106,-1,106,105,107,-1,106,107,108,-1,108,107,109,-1,108,109,110,-1,110,109,111,-1,110,111,112,-1,112,111,113,-1,112,113,114,-1,114,113,115,-1,114,115,116,-1,116,115,117,-1,116,117,118,-1,118,117,119,-1,88,90,118,-1,118,90,116,-1,89,88,119,-1,119,88,118,-1,91,89,117,-1,117,89,119,-1,91,117,115,-1,91,115,93,-1,93,115,113,-1,93,113,95,-1,95,113,111,-1,95,111,97,-1,97,111,109,-1,97,109,99,-1,99,109,107,-1,99,107,101,-1,101,107,105,-1,101,105,103,-1,103,105,81,-1,103,81,80,-1,87,85,102,-1,102,85,104,-1,102,104,100,-1,100,104,106,-1,100,106,98,-1,98,106,108,-1,98,108,96,-1,96,108,110,-1,96,110,94,-1,94,110,112,-1,94,112,92,-1,92,112,114,-1,92,114,90,-1,90,114,116,-1,120,121,122,-1,122,121,123,-1,124,125,126,-1,126,125,127,-1,128,129,130,-1,130,129,131,-1,130,131,132,-1,132,131,133,-1,132,133,134,-1,134,133,135,-1,134,135,136,-1,136,135,137,-1,136,137,138,-1,138,137,139,-1,138,139,140,-1,140,139,141,-1,140,141,142,-1,142,141,143,-1,142,143,127,-1,127,143,120,-1,127,120,126,-1,126,120,122,-1,124,123,125,-1,125,123,121,-1,125,121,144,-1,144,121,145,-1,144,145,146,-1,146,145,147,-1,146,147,148,-1,148,147,149,-1,148,149,150,-1,150,149,151,-1,150,151,152,-1,152,151,153,-1,152,153,154,-1,154,153,155,-1,154,155,156,-1,156,155,157,-1,156,157,158,-1,158,157,159,-1,128,130,158,-1,158,130,156,-1,129,128,159,-1,159,128,158,-1,131,129,157,-1,157,129,159,-1,131,157,155,-1,131,155,133,-1,133,155,153,-1,133,153,135,-1,135,153,151,-1,135,151,137,-1,137,151,149,-1,137,149,139,-1,139,149,147,-1,139,147,141,-1,141,147,145,-1,141,145,143,-1,143,145,121,-1,143,121,120,-1,127,125,142,-1,142,125,144,-1,142,144,140,-1,140,144,146,-1,140,146,138,-1,138,146,148,-1,138,148,136,-1,136,148,150,-1,136,150,134,-1,134,150,152,-1,134,152,132,-1,132,152,154,-1,132,154,130,-1,130,154,156,-1,
        ]
    }
}