#VRML V2.0 utf8
# 3D model generated by easyeda2kicad.py (https://github.com/uPesy/easyeda2kicad.py)

Shape{
    appearance Appearance {
        material  Material 	{
            diffuseColor 0.6470588235294118 0.6196078431372549 0.5882352941176471
            specularColor 0.45098039215686275 0.43529411764705883 0.4117647058823529
            ambientIntensity 0.2
            transparency 0
            shininess 0.5
        }
    }
    geometry IndexedFaceSet {
        ccw TRUE
        solid FALSE
        coord DEF co Coordinate {
            point [
                0.9547 -0.3051 -0.6299, 1.4272 -0.3051 -0.6299, 0.9547 0.4823 -0.6299, 1.4272 0.4823 -0.6299, 1.4272 -0.3051 -0.7087, 1.4272 0.4823 -0.7087, 0.9547 -0.3051 -0.7087, 0.9547 0.4823 -0.7087, 0.8366 -0.3051 -0.5906, 0.8366 0.4823 -0.5906, 0.8389 0.4823 -0.6136, 0.8389 -0.3051 -0.6136, 0.8456 0.4823 -0.6358, 0.8456 -0.3051 -0.6358, 0.8565 0.4823 -0.6562, 0.8565 -0.3051 -0.6562, 0.8712 0.4823 -0.6741, 0.8712 -0.3051 -0.6741, 0.8891 0.4823 -0.6888, 0.8891 -0.3051 -0.6888, 0.9095 0.4823 -0.6997, 0.9095 -0.3051 -0.6997, 0.9317 0.4823 -0.7064, 0.9317 -0.3051 -0.7064, 0.8366 -0.3051 -0.2362, 0.8366 0.4823 -0.2362, 0.9547 -0.3051 -0.1181, 0.9547 0.4823 -0.1181, 0.9317 0.4823 -0.1204, 0.9317 -0.3051 -0.1204, 0.9095 0.4823 -0.1271, 0.9095 -0.3051 -0.1271, 0.8891 0.4823 -0.138, 0.8891 -0.3051 -0.138, 0.8712 0.4823 -0.1527, 0.8712 -0.3051 -0.1527, 0.8565 0.4823 -0.1706, 0.8565 -0.3051 -0.1706, 0.8456 0.4823 -0.191, 0.8456 -0.3051 -0.191, 0.8389 0.4823 -0.2132, 0.8389 -0.3051 -0.2132, 1.2303 -0.3051 -0.1181, 1.2303 0.4823 -0.1181, 1.2303 -0.3051 -0.1969, 1.2303 0.4823 -0.1969, 0.9547 -0.3051 -0.1969, 0.9547 0.4823 -0.1969, 0.9154 -0.3051 -0.2362, 0.9154 0.4823 -0.2362, 0.9167 -0.3051 -0.226, 0.9167 0.4823 -0.226, 0.9206 -0.3051 -0.2165, 0.9206 0.4823 -0.2165, 0.9269 -0.3051 -0.2084, 0.9269 0.4823 -0.2084, 0.935 -0.3051 -0.2021, 0.935 0.4823 -0.2021, 0.9445 -0.3051 -0.1982, 0.9445 0.4823 -0.1982, 0.9154 -0.3051 -0.5906, 0.9154 0.4823 -0.5906, 0.9445 -0.3051 -0.6286, 0.9445 0.4823 -0.6286, 0.935 -0.3051 -0.6246, 0.935 0.4823 -0.6246, 0.9269 -0.3051 -0.6184, 0.9269 0.4823 -0.6184, 0.9206 -0.3051 -0.6102, 0.9206 0.4823 -0.6102, 0.9167 -0.3051 -0.6007, 0.9167 0.4823 -0.6007, -1.4272 -0.3051 -0.6299, -0.9547 -0.3051 -0.6299, -1.4272 0.4823 -0.6299, -0.9547 0.4823 -0.6299, -1.4272 -0.3051 -0.7087, -1.4272 0.4823 -0.7087, -0.9547 -0.3051 -0.7087, -0.9547 0.4823 -0.7087, -0.9317 0.4823 -0.7064, -0.9317 -0.3051 -0.7064, -0.9095 0.4823 -0.6997, -0.9095 -0.3051 -0.6997, -0.8891 0.4823 -0.6888, -0.8891 -0.3051 -0.6888, -0.8712 0.4823 -0.6741, -0.8712 -0.3051 -0.6741, -0.8565 0.4823 -0.6562, -0.8565 -0.3051 -0.6562, -0.8456 0.4823 -0.6358, -0.8456 -0.3051 -0.6358, -0.8389 0.4823 -0.6136, -0.8389 -0.3051 -0.6136, -0.8366 0.4823 -0.5906, -0.8366 -0.3051 -0.5906, -0.8366 -0.3051 -0.2362, -0.8366 0.4823 -0.2362, -0.8389 0.4823 -0.2132, -0.8389 -0.3051 -0.2132, -0.8456 0.4823 -0.191, -0.8456 -0.3051 -0.191, -0.8565 0.4823 -0.1706, -0.8565 -0.3051 -0.1706, -0.8712 0.4823 -0.1527, -0.8712 -0.3051 -0.1527, -0.8891 0.4823 -0.138, -0.8891 -0.3051 -0.138, -0.9095 0.4823 -0.1271, -0.9095 -0.3051 -0.1271, -0.9317 0.4823 -0.1204, -0.9317 -0.3051 -0.1204, -0.9547 0.4823 -0.1181, -0.9547 -0.3051 -0.1181, -1.2303 -0.3051 -0.1181, -1.2303 0.4823 -0.1181, -1.2303 -0.3051 -0.1969, -1.2303 0.4823 -0.1969, -0.9547 -0.3051 -0.1969, -0.9547 0.4823 -0.1969, -0.9445 -0.3051 -0.1982, -0.9445 0.4823 -0.1982, -0.935 -0.3051 -0.2021, -0.935 0.4823 -0.2021, -0.9269 -0.3051 -0.2084, -0.9269 0.4823 -0.2084, -0.9206 -0.3051 -0.2165, -0.9206 0.4823 -0.2165, -0.9167 -0.3051 -0.226, -0.9167 0.4823 -0.226, -0.9154 -0.3051 -0.2362, -0.9154 0.4823 -0.2362, -0.9154 -0.3051 -0.5906, -0.9154 0.4823 -0.5906, -0.9167 -0.3051 -0.6007, -0.9167 0.4823 -0.6007, -0.9206 -0.3051 -0.6102, -0.9206 0.4823 -0.6102, -0.9269 -0.3051 -0.6184, -0.9269 0.4823 -0.6184, -0.935 -0.3051 -0.6246, -0.935 0.4823 -0.6246, -0.9445 -0.3051 -0.6286, -0.9445 0.4823 -0.6286, -0.9445 0.4823 -0.6286
            ]
        }
        coordIndex [
            0,1,2,-1,2,1,3,-1,1,4,3,-1,3,4,5,-1,4,6,5,-1,5,6,7,-1,8,9,10,-1,8,10,11,-1,11,10,12,-1,11,12,13,-1,13,12,14,-1,13,14,15,-1,15,14,16,-1,15,16,17,-1,17,16,18,-1,17,18,19,-1,19,18,20,-1,19,20,21,-1,21,20,22,-1,21,22,23,-1,23,22,7,-1,23,7,6,-1,8,24,9,-1,9,24,25,-1,26,27,28,-1,26,28,29,-1,29,28,30,-1,29,30,31,-1,31,30,32,-1,31,32,33,-1,33,32,34,-1,33,34,35,-1,35,34,36,-1,35,36,37,-1,37,36,38,-1,37,38,39,-1,39,38,40,-1,39,40,41,-1,41,40,25,-1,41,25,24,-1,26,42,27,-1,27,42,43,-1,42,44,43,-1,43,44,45,-1,44,46,45,-1,45,46,47,-1,48,49,50,-1,50,49,51,-1,50,51,52,-1,52,51,53,-1,52,53,54,-1,54,53,55,-1,54,55,56,-1,56,55,57,-1,56,57,58,-1,58,57,59,-1,58,59,46,-1,46,59,47,-1,48,60,49,-1,49,60,61,-1,0,2,62,-1,62,2,63,-1,62,63,64,-1,64,63,65,-1,64,65,66,-1,66,65,67,-1,66,67,68,-1,68,67,69,-1,68,69,70,-1,70,69,71,-1,70,71,60,-1,60,71,61,-1,70,13,68,-1,68,13,15,-1,68,15,66,-1,66,15,17,-1,66,17,64,-1,17,19,64,-1,64,19,21,-1,64,21,62,-1,62,21,23,-1,62,23,0,-1,0,23,6,-1,0,6,1,-1,1,6,4,-1,52,39,50,-1,50,39,41,-1,50,41,48,-1,48,41,24,-1,48,24,60,-1,60,24,8,-1,60,8,70,-1,70,8,11,-1,70,11,13,-1,58,31,56,-1,56,31,33,-1,56,33,54,-1,54,33,35,-1,54,35,52,-1,52,35,37,-1,52,37,39,-1,44,42,46,-1,46,42,26,-1,46,26,58,-1,58,26,29,-1,58,29,31,-1,57,30,59,-1,59,30,28,-1,59,28,47,-1,47,28,27,-1,47,27,45,-1,45,27,43,-1,51,38,53,-1,53,38,36,-1,53,36,55,-1,55,36,34,-1,55,34,57,-1,57,34,32,-1,57,32,30,-1,69,12,71,-1,71,12,10,-1,71,10,61,-1,61,10,9,-1,61,9,49,-1,49,9,25,-1,49,25,51,-1,51,25,40,-1,51,40,38,-1,63,20,65,-1,65,20,18,-1,65,18,67,-1,67,18,16,-1,67,16,69,-1,69,16,14,-1,69,14,12,-1,3,5,2,-1,2,5,7,-1,2,7,63,-1,63,7,22,-1,63,22,20,-1,72,73,74,-1,74,73,75,-1,76,72,77,-1,77,72,74,-1,78,76,79,-1,79,76,77,-1,78,79,80,-1,78,80,81,-1,81,80,82,-1,81,82,83,-1,83,82,84,-1,83,84,85,-1,85,84,86,-1,85,86,87,-1,87,86,88,-1,87,88,89,-1,89,88,90,-1,89,90,91,-1,91,90,92,-1,91,92,93,-1,93,92,94,-1,93,94,95,-1,96,95,97,-1,97,95,94,-1,96,97,98,-1,96,98,99,-1,99,98,100,-1,99,100,101,-1,101,100,102,-1,101,102,103,-1,103,102,104,-1,103,104,105,-1,105,104,106,-1,105,106,107,-1,107,106,108,-1,107,108,109,-1,109,108,110,-1,109,110,111,-1,111,110,112,-1,111,112,113,-1,114,113,115,-1,115,113,112,-1,116,114,117,-1,117,114,115,-1,118,116,119,-1,119,116,117,-1,118,119,120,-1,120,119,121,-1,120,121,122,-1,122,121,123,-1,122,123,124,-1,124,123,125,-1,124,125,126,-1,126,125,127,-1,126,127,128,-1,128,127,129,-1,128,129,130,-1,130,129,131,-1,132,130,133,-1,133,130,131,-1,132,133,134,-1,134,133,135,-1,134,135,136,-1,136,135,137,-1,136,137,138,-1,138,137,139,-1,138,139,140,-1,140,139,141,-1,140,141,142,-1,142,141,143,-1,142,143,73,-1,73,143,75,-1,128,101,126,-1,126,101,103,-1,126,103,124,-1,124,103,105,-1,124,105,122,-1,136,91,134,-1,134,91,93,-1,134,93,132,-1,132,93,95,-1,132,95,130,-1,130,95,96,-1,130,96,128,-1,128,96,99,-1,128,99,101,-1,105,107,122,-1,122,107,109,-1,122,109,120,-1,120,109,111,-1,120,111,118,-1,118,111,113,-1,118,113,116,-1,116,113,114,-1,142,83,140,-1,140,83,85,-1,140,85,138,-1,138,85,87,-1,138,87,136,-1,136,87,89,-1,136,89,91,-1,72,76,73,-1,73,76,78,-1,73,78,142,-1,142,78,81,-1,142,81,83,-1,135,90,137,-1,137,90,88,-1,137,88,139,-1,139,88,86,-1,139,86,141,-1,86,84,141,-1,141,84,82,-1,141,82,143,-1,143,82,80,-1,143,80,75,-1,75,80,79,-1,75,79,74,-1,74,79,77,-1,127,100,129,-1,129,100,98,-1,129,98,131,-1,131,98,97,-1,131,97,133,-1,133,97,94,-1,133,94,135,-1,135,94,92,-1,135,92,90,-1,121,108,123,-1,123,108,106,-1,123,106,125,-1,125,106,104,-1,125,104,127,-1,127,104,102,-1,127,102,100,-1,117,115,119,-1,119,115,112,-1,119,112,121,-1,121,112,110,-1,121,110,108,-1,
        ]
    }
}
Shape{
    appearance Appearance {
        material  Material 	{
            diffuseColor 1.0 0.9333333333333333 0.6235294117647059
            specularColor 0.5019607843137255 0.4666666666666667 0.3137254901960784
            ambientIntensity 0.2
            transparency 0
            shininess 0.5
        }
    }
    geometry IndexedFaceSet {
        ccw TRUE
        solid FALSE
        coord DEF co Coordinate {
            point [
                -0.6988 1.0335 -0.5906, -0.6004 0.935 -0.4921, -0.0984 1.0335 -0.5906, -0.0984 0.935 -0.4921, 0.1969 0.5217 -0.5906, 0.0984 0.5217 -0.5906, 0.0984 1.0335 -0.5906, 0.4339 -0.2344 -0.5906, 0.4339 -0.6988 -0.5906, 0.3526 -0.6988 -0.5906, 0.3248 -0.5413 -0.5906, 0.1673 -0.5413 -0.5906, -0.7185 -0.2344 -0.5906, -0.3526 -0.6988 -0.5906, -0.7185 -0.6988 -0.5906, -0.3248 -0.5413 -0.5906, -0.1673 -0.5413 -0.5906, -0.1396 -0.6988 -0.5906, 0.1396 -0.6988 -0.5906, 0.4048 -0.2339 -0.5906, 0.4262 -0.2339 -0.5906, 0.286 -0.2339 -0.5906, 0.2975 -0.2339 -0.5906, 0.3571 -0.2339 -0.5906, 0.3668 -0.2123 -0.5906, 0.3713 -0.2194 -0.5906, -0.0984 0.5217 -0.5906, -0.1969 0.5217 -0.5906, -0.1969 -0.0689 -0.5906, -0.7185 1.0335 -0.5906, 0.3778 -0.2256 -0.5906, 0.386 -0.2303 -0.5906, 0.3951 -0.233 -0.5906, 0.3455 -0.2339 -0.5906, 0.338 -0.2118 -0.5906, 0.3055 -0.2118 -0.5906, 0.1969 -0.0689 -0.5906, 0.3167 -0.1552 -0.5906, 0.4339 1.0335 -0.5906, 0.4262 -0.1552 -0.5906, 0.404 -0.1552 -0.5906, 0.3926 -0.1564 -0.5906, 0.3273 -0.1552 -0.5906, 0.3834 -0.1596 -0.5906, 0.3748 -0.1653 -0.5906, 0.3747 -0.1654 -0.5906, 0.3692 -0.1716 -0.5906, 0.3655 -0.1784 -0.5906, 0.3634 -0.1861 -0.5906, 0.3628 -0.1935 -0.5906, 0.3639 -0.2041 -0.5906, 0.4416 -0.2253 -0.5906, 0.4416 -0.2339 -0.5906, 0.4838 -0.2339 -0.5906, 0.4838 -0.1552 -0.5906, 0.4992 -0.2212 -0.5906, 0.4992 -0.2298 -0.5906, 0.5076 -0.2333 -0.5906, 0.5155 -0.2344 -0.5906, 0.5382 -0.2312 -0.5906, 0.5645 -0.2339 -0.5906, 0.5306 -0.2338 -0.5906, 0.5255 -0.2344 -0.5906, 0.4435 -0.1552 -0.5906, 0.5536 -0.1759 -0.5906, 0.549 -0.1685 -0.5906, 0.5943 -0.1552 -0.5906, 0.4435 -0.1638 -0.5906, 0.5254 -0.1637 -0.5906, 0.5313 -0.1658 -0.5906, 0.5006 -0.222 -0.5906, 0.5367 -0.1695 -0.5906, 0.5415 -0.1747 -0.5906, 0.5472 -0.1954 -0.5906, 0.5464 -0.2039 -0.5906, 0.5443 -0.2107 -0.5906, 0.5267 -0.2254 -0.5906, 0.5194 -0.2262 -0.5906, 0.5325 -0.2233 -0.5906, 0.5373 -0.22 -0.5906, 0.541 -0.2161 -0.5906, 0.5089 -0.2251 -0.5906, 0.5447 -0.1808 -0.5906, 0.5468 -0.1892 -0.5906, 0.7185 -0.2344 -0.5906, 0.6048 -0.2339 -0.5906, 0.7185 1.0335 -0.5906, 0.6048 -0.1552 -0.5906, 0.6988 1.0335 -0.5906, 0.5419 -0.1617 -0.5906, 0.4733 -0.1984 -0.5906, 0.4733 -0.2253 -0.5906, 0.4454 -0.1984 -0.5906, 0.4454 -0.1897 -0.5906, 0.4733 -0.1897 -0.5906, 0.4733 -0.1638 -0.5906, 0.5445 -0.2272 -0.5906, 0.5504 -0.2209 -0.5906, 0.5645 -0.2253 -0.5906, 0.5546 -0.2135 -0.5906, 0.5943 -0.2253 -0.5906, 0.557 -0.2051 -0.5906, 0.5578 -0.196 -0.5906, 0.5566 -0.1848 -0.5906, 0.5344 -0.1574 -0.5906, 0.5256 -0.1548 -0.5906, 0.5177 -0.1542 -0.5906, 0.5083 -0.1548 -0.5906, 0.4992 -0.1573 -0.5906, 0.4992 -0.1679 -0.5906, 0.5081 -0.1641 -0.5906, 0.5176 -0.1628 -0.5906, 0.5187 -0.2348 -0.5906, 0.7185 -0.6988 -0.5906, 0.5209 -0.2349 -0.5906, 0.9547 -0.3051 -0.6299, 1.3091 -0.3051 -0.6299, 1.4272 -0.3051 -0.5118, 0.8366 -0.3051 -0.2362, 0.8406 -0.3051 -0.2057, 0.8366 -0.3051 0.1575, 0.8524 -0.3051 -0.1772, 0.9547 -0.3051 0.0394, 0.8712 -0.3051 -0.1527, 0.8957 -0.3051 -0.1339, 1.2303 -0.3051 -0.1969, 0.9547 -0.3051 -0.1969, 0.9154 -0.3051 -0.5906, 0.9242 -0.3051 -0.1221, 0.9547 -0.3051 -0.1181, 1.4272 -0.3051 0.0394, 1.2303 -0.3051 -0.1181, 0.9167 -0.3051 -0.6007, 0.9206 -0.3051 -0.6102, 0.9445 -0.3051 -0.1982, 0.9167 -0.3051 -0.226, 0.9154 -0.3051 -0.2362, 0.9269 -0.3051 -0.6184, 0.935 -0.3051 -0.6246, 0.9445 -0.3051 -0.6286, 0.935 -0.3051 -0.2021, 0.9269 -0.3051 -0.2084, 0.9206 -0.3051 -0.2165, 0.8366 0.4823 -0.6299, 0.8366 0.876 -0.6299, 0.9547 0.4823 -0.6299, 1.3091 0.876 -0.6299, 0.8366 1.0335 0.4921, 0.8366 1.0335 -0.6693, 0.7185 1.0335 -0.6693, 0.6988 1.0335 -0.2362, 0.6988 1.0335 0.2362, 0.6988 1.0335 0.4921, 0.7185 -0.6988 -0.6693, 0.8366 -0.6988 -0.6693, 0.1396 -0.6988 0.6693, -0.1396 -0.6988 0.6693, 0.8366 -0.6988 0.6693, 0.3526 -0.6988 0.6693, -0.6004 0.6398 0.4921, -0.8366 0.6398 0.4921, -0.6004 0.6398 0.6693, -0.8366 0.6398 0.6693, -0.7185 1.0335 -0.6693, -0.8366 1.0335 -0.6693, -0.8366 1.0335 0.4921, -0.6988 1.0335 -0.2362, -0.6988 1.0335 0.2362, -0.6988 1.0335 0.4921, 0.6004 -0.1476 0.2362, 0.6004 -0.1476 0.4921, 0.6004 0.935 0.2362, 0.6004 0.4429 0.4921, 0.6004 0.935 0.4921, 0.6004 0.6398 0.4921, 0.6004 0.6398 0.6693, 0.6004 0.4429 0.6693, -0.6004 0.935 0.2362, -0.6004 0.935 0.4921, -0.6004 -0.1476 0.2362, -0.6004 -0.1476 0.4921, -0.6004 0.4429 0.4921, -0.6004 0.4429 0.6693, 1.4272 0.876 -0.5118, 1.4272 0.876 0.0394, 0.8366 0.876 0.1575, 0.9547 0.876 0.0394, -1.4272 -0.3051 -0.5118, -1.4272 -0.3051 0.0394, -1.4272 0.876 -0.5118, -1.4272 0.876 0.0394, -0.8366 -0.6988 -0.6693, -0.7185 -0.6988 -0.6693, -0.3526 -0.6988 0.6693, -0.8366 -0.6988 0.6693, 0.8366 0.6398 0.6693, -0.1673 -0.5413 0.6693, -0.3248 -0.5413 0.6693, 0.3248 -0.5413 0.6693, 0.1673 -0.5413 0.6693, 0.6004 0.935 -0.4921, 0.6004 -0.1476 -0.4921, 0.6004 0.935 -0.2362, 0.6004 -0.1476 -0.2362, -0.6004 0.935 -0.2362, -0.6004 -0.1476 -0.2362, -0.6004 -0.1476 -0.4921, -0.0984 0.5217 -0.4921, -0.1969 0.5217 -0.4921, -0.1969 -0.0689 -0.4921, 0.1969 -0.0689 -0.4921, 0.1969 0.5217 -0.4921, 0.0984 0.5217 -0.4921, 0.0984 0.935 -0.4921, 0.3051 -0.1476 -0.0, 0.187 -0.1476 -0.0, 0.187 -0.1476 -0.1969, -0.187 -0.1476 -0.1969, -0.187 -0.1476 -0.0, -0.6988 -0.1476 -0.2362, -0.6988 -0.1476 0.2362, -0.3051 -0.1476 -0.0, -0.3051 -0.1476 -0.1969, 0.3051 -0.1476 -0.1969, 0.6988 -0.1476 -0.2362, 0.6988 -0.1476 0.2362, -1.3091 0.876 -0.6299, -0.9547 0.876 0.0394, -0.8366 0.876 -0.6299, -0.8366 0.876 0.1575, -1.3091 -0.3051 -0.6299, -0.9154 -0.3051 -0.5906, -0.9547 -0.3051 -0.6299, -0.9167 -0.3051 -0.6007, -0.935 -0.3051 -0.6246, -0.9269 -0.3051 -0.6184, -0.9206 -0.3051 -0.6102, -0.9154 -0.3051 -0.2362, -0.9547 -0.3051 -0.1969, -0.9167 -0.3051 -0.226, -0.9445 -0.3051 -0.1982, -0.9242 -0.3051 -0.1221, -0.8957 -0.3051 -0.1339, -0.9547 -0.3051 0.0394, -0.9445 -0.3051 -0.6286, -0.8712 -0.3051 -0.1527, -0.8524 -0.3051 -0.1772, -0.8366 -0.3051 0.1575, -0.8406 -0.3051 -0.2057, -0.8366 -0.3051 -0.2362, -1.2303 -0.3051 -0.1969, -1.2303 -0.3051 -0.1181, -0.9547 -0.3051 -0.1181, -0.9206 -0.3051 -0.2165, -0.9269 -0.3051 -0.2084, -0.935 -0.3051 -0.2021, -0.8366 0.4823 -0.6299, -0.8366 0.4823 -0.2362, 0.8366 0.6398 0.4921, 0.8366 0.4823 -0.2362, 0.187 -0.5413 -0.0, 0.3051 -0.5413 -0.0, 0.3051 -0.5413 -0.1969, 0.187 -0.5413 -0.1969, -0.3051 -0.5413 -0.0, -0.187 -0.5413 -0.0, -0.187 -0.5413 -0.1969, -0.3051 -0.5413 -0.1969, -0.9547 0.4823 -0.6299, -1.2303 0.4823 -0.1969, -1.2303 0.4823 -0.1181, -0.9547 0.4823 -0.1181, -0.8406 0.4823 -0.2057, -0.8524 0.4823 -0.1772, -0.8712 0.4823 -0.1527, -0.8957 0.4823 -0.1339, -0.9242 0.4823 -0.1221, -0.9154 0.4823 -0.5906, -0.9154 0.4823 -0.2362, -0.9547 0.4823 -0.1969, -0.9445 0.4823 -0.1982, -0.935 0.4823 -0.2021, -0.9269 0.4823 -0.2084, -0.9206 0.4823 -0.2165, -0.9167 0.4823 -0.226, -0.9269 0.4823 -0.6184, -0.9206 0.4823 -0.6102, -0.9167 0.4823 -0.6007, -0.935 0.4823 -0.6246, -0.9445 0.4823 -0.6286, 1.2303 0.4823 -0.1181, 1.2303 0.4823 -0.1969, 0.9547 0.4823 -0.1969, 0.9154 0.4823 -0.2362, 0.9167 0.4823 -0.226, 0.9206 0.4823 -0.2165, 0.9269 0.4823 -0.2084, 0.935 0.4823 -0.2021, 0.9445 0.4823 -0.1982, 0.9154 0.4823 -0.5906, 0.9547 0.4823 -0.1181, 0.9242 0.4823 -0.1221, 0.8957 0.4823 -0.1339, 0.8712 0.4823 -0.1527, 0.8524 0.4823 -0.1772, 0.8406 0.4823 -0.2057, 0.9269 0.4823 -0.6184, 0.9206 0.4823 -0.6102, 0.9445 0.4823 -0.6286, 0.935 0.4823 -0.6246, 0.9167 0.4823 -0.6007, 0.9167 0.4823 -0.6007
            ]
        }
        coordIndex [
            0,1,2,-1,2,1,3,-1,4,5,6,-1,7,8,9,-1,10,11,12,-1,13,14,15,-1,15,14,12,-1,15,12,16,-1,16,12,11,-1,16,11,17,-1,17,11,18,-1,19,20,7,-1,21,22,7,-1,23,24,25,-1,2,26,0,-1,0,26,27,-1,28,12,27,-1,27,12,29,-1,27,29,0,-1,25,30,23,-1,23,30,31,-1,23,31,32,-1,32,19,23,-1,23,19,7,-1,23,7,33,-1,33,7,22,-1,33,22,34,-1,34,22,35,-1,36,37,28,-1,28,37,21,-1,28,21,12,-1,12,21,7,-1,12,7,10,-1,10,7,9,-1,38,39,40,-1,40,41,42,-1,42,41,43,-1,42,43,44,-1,6,38,4,-1,4,38,40,-1,4,40,36,-1,36,40,42,-1,36,42,37,-1,44,45,42,-1,42,45,46,-1,42,46,47,-1,47,48,42,-1,42,48,49,-1,42,49,23,-1,23,49,50,-1,23,50,24,-1,51,52,7,-1,53,54,55,-1,55,56,53,-1,53,56,57,-1,53,57,58,-1,59,60,61,-1,61,60,62,-1,54,63,38,-1,64,65,66,-1,20,39,7,-1,7,39,38,-1,7,38,51,-1,51,38,63,-1,51,63,67,-1,68,69,70,-1,70,69,71,-1,70,71,72,-1,73,74,70,-1,70,74,75,-1,76,77,78,-1,78,77,79,-1,75,80,70,-1,70,80,79,-1,70,79,81,-1,81,79,77,-1,72,82,70,-1,70,82,83,-1,70,83,73,-1,84,85,86,-1,86,85,87,-1,86,87,88,-1,88,87,66,-1,88,66,38,-1,38,66,65,-1,38,65,89,-1,90,91,92,-1,92,91,51,-1,92,51,93,-1,93,51,67,-1,93,67,94,-1,94,67,95,-1,59,96,60,-1,60,96,97,-1,60,97,98,-1,98,97,99,-1,98,99,100,-1,99,101,100,-1,100,101,102,-1,100,102,66,-1,66,102,103,-1,66,103,64,-1,89,104,38,-1,38,104,105,-1,38,105,106,-1,106,107,38,-1,38,107,108,-1,38,108,54,-1,54,108,109,-1,54,109,55,-1,55,109,110,-1,55,110,70,-1,70,110,111,-1,70,111,68,-1,52,53,7,-1,7,53,58,-1,7,58,8,-1,8,58,112,-1,8,112,113,-1,113,112,114,-1,113,114,84,-1,84,114,62,-1,84,62,85,-1,85,62,60,-1,115,116,117,-1,118,119,120,-1,120,119,121,-1,120,121,122,-1,122,121,123,-1,122,123,124,-1,125,126,127,-1,124,128,122,-1,122,128,129,-1,122,129,130,-1,130,129,131,-1,130,131,117,-1,131,125,117,-1,117,125,127,-1,117,127,115,-1,115,127,132,-1,115,132,133,-1,134,135,126,-1,126,135,136,-1,126,136,127,-1,137,138,133,-1,133,138,139,-1,133,139,115,-1,134,140,135,-1,135,140,141,-1,135,141,142,-1,143,144,145,-1,145,144,146,-1,145,146,115,-1,115,146,116,-1,147,148,86,-1,86,148,149,-1,86,88,150,-1,86,150,147,-1,147,150,151,-1,147,151,152,-1,153,149,154,-1,154,149,148,-1,18,155,17,-1,17,155,156,-1,153,154,113,-1,113,154,157,-1,113,157,8,-1,8,157,158,-1,8,158,9,-1,159,160,161,-1,161,160,162,-1,163,164,29,-1,29,164,165,-1,0,29,166,-1,166,29,165,-1,166,165,167,-1,167,165,168,-1,169,170,171,-1,171,170,172,-1,173,171,174,-1,174,171,172,-1,174,172,175,-1,175,172,176,-1,177,178,179,-1,179,178,159,-1,180,179,181,-1,181,179,159,-1,181,159,182,-1,182,159,161,-1,183,184,117,-1,117,184,130,-1,144,185,186,-1,146,144,183,-1,183,144,186,-1,183,186,184,-1,187,188,189,-1,189,188,190,-1,191,192,14,-1,13,193,14,-1,14,193,194,-1,14,194,191,-1,157,195,176,-1,176,195,175,-1,161,162,182,-1,182,162,194,-1,196,176,197,-1,197,176,182,-1,197,182,193,-1,193,182,194,-1,158,157,198,-1,198,157,176,-1,198,176,199,-1,199,176,196,-1,199,196,155,-1,155,196,156,-1,163,192,164,-1,164,192,191,-1,200,201,202,-1,202,201,203,-1,172,170,181,-1,181,170,180,-1,204,205,1,-1,1,205,206,-1,207,3,208,-1,208,3,1,-1,208,1,209,-1,209,1,206,-1,209,206,210,-1,210,206,201,-1,210,201,211,-1,211,201,200,-1,211,200,212,-1,212,200,213,-1,169,214,170,-1,170,214,215,-1,216,217,215,-1,215,217,218,-1,215,218,170,-1,205,219,220,-1,205,221,206,-1,206,221,222,-1,205,220,221,-1,221,220,179,-1,221,179,218,-1,218,179,180,-1,218,180,170,-1,222,217,206,-1,206,217,216,-1,206,216,201,-1,201,216,223,-1,201,223,203,-1,203,223,214,-1,203,214,224,-1,224,214,169,-1,224,169,225,-1,189,190,226,-1,226,190,227,-1,226,227,228,-1,228,227,229,-1,187,230,231,-1,231,230,232,-1,231,232,233,-1,234,235,236,-1,231,237,238,-1,238,237,239,-1,238,239,240,-1,241,242,243,-1,233,232,236,-1,236,232,244,-1,236,244,234,-1,242,245,243,-1,243,245,246,-1,243,246,247,-1,247,246,248,-1,247,248,249,-1,231,238,187,-1,187,238,250,-1,187,250,188,-1,188,250,251,-1,188,251,243,-1,243,251,252,-1,243,252,241,-1,253,254,239,-1,239,254,255,-1,239,255,240,-1,247,249,191,-1,194,162,160,-1,191,194,247,-1,247,194,160,-1,247,160,229,-1,229,160,165,-1,229,165,228,-1,228,165,164,-1,228,164,256,-1,256,164,191,-1,256,191,257,-1,257,191,249,-1,143,154,148,-1,258,120,147,-1,147,120,185,-1,147,185,148,-1,148,185,144,-1,148,144,143,-1,258,195,120,-1,120,195,157,-1,120,157,118,-1,118,157,154,-1,118,154,259,-1,259,154,143,-1,122,130,186,-1,186,130,184,-1,227,190,243,-1,243,190,188,-1,120,122,185,-1,185,122,186,-1,229,227,247,-1,247,227,243,-1,177,179,167,-1,167,179,220,-1,166,219,204,-1,204,219,205,-1,166,167,219,-1,219,167,220,-1,151,225,171,-1,171,225,169,-1,202,203,150,-1,150,203,224,-1,151,150,225,-1,225,150,224,-1,173,174,152,-1,152,174,258,-1,152,258,147,-1,168,165,178,-1,178,165,160,-1,178,160,159,-1,175,195,174,-1,174,195,258,-1,176,172,182,-1,182,172,181,-1,151,171,152,-1,152,171,173,-1,1,0,204,-1,204,0,166,-1,6,213,38,-1,38,213,200,-1,38,200,88,-1,88,200,150,-1,150,200,202,-1,168,178,167,-1,167,178,177,-1,260,199,11,-1,199,260,198,-1,198,260,261,-1,198,261,10,-1,10,261,262,-1,10,262,11,-1,11,262,263,-1,11,263,260,-1,158,198,9,-1,9,198,10,-1,199,155,11,-1,11,155,18,-1,264,197,15,-1,197,264,196,-1,196,264,265,-1,196,265,16,-1,16,265,266,-1,16,266,15,-1,15,266,267,-1,15,267,264,-1,156,196,17,-1,17,196,16,-1,197,193,15,-1,15,193,13,-1,86,149,84,-1,84,149,153,-1,84,153,113,-1,14,192,12,-1,12,192,163,-1,12,163,29,-1,232,230,268,-1,268,230,226,-1,268,226,256,-1,256,226,228,-1,117,116,183,-1,183,116,146,-1,230,187,226,-1,226,187,189,-1,269,270,250,-1,250,270,251,-1,270,271,251,-1,251,271,252,-1,257,249,272,-1,272,249,248,-1,272,248,273,-1,273,248,246,-1,273,246,274,-1,274,246,245,-1,274,245,275,-1,275,245,242,-1,275,242,276,-1,276,242,241,-1,276,241,271,-1,271,241,252,-1,277,278,231,-1,231,278,237,-1,279,238,240,-1,279,240,280,-1,280,240,255,-1,280,255,281,-1,281,255,254,-1,281,254,282,-1,282,254,253,-1,282,253,283,-1,283,253,239,-1,283,239,284,-1,284,239,237,-1,284,237,278,-1,279,269,238,-1,238,269,250,-1,285,256,286,-1,286,256,287,-1,285,288,256,-1,256,288,289,-1,256,289,268,-1,270,269,271,-1,271,269,279,-1,271,279,276,-1,276,279,280,-1,276,280,275,-1,275,280,281,-1,275,281,274,-1,274,281,282,-1,274,282,273,-1,273,282,283,-1,273,283,272,-1,272,283,284,-1,272,284,257,-1,257,284,278,-1,257,278,256,-1,256,278,277,-1,256,277,287,-1,290,291,131,-1,131,291,125,-1,291,292,125,-1,125,292,126,-1,293,136,135,-1,293,135,294,-1,294,135,142,-1,294,142,295,-1,295,142,141,-1,295,141,296,-1,296,141,140,-1,296,140,297,-1,297,140,134,-1,297,134,298,-1,298,134,126,-1,298,126,292,-1,127,136,299,-1,299,136,293,-1,300,129,301,-1,301,129,128,-1,301,128,302,-1,302,128,124,-1,302,124,303,-1,303,124,123,-1,303,123,304,-1,304,123,121,-1,304,121,305,-1,305,121,119,-1,305,119,259,-1,259,119,118,-1,300,290,129,-1,129,290,131,-1,143,306,307,-1,145,308,143,-1,143,308,309,-1,143,309,306,-1,291,290,292,-1,292,290,300,-1,292,300,298,-1,298,300,301,-1,298,301,297,-1,297,301,302,-1,297,302,296,-1,296,302,303,-1,296,303,295,-1,295,303,304,-1,295,304,294,-1,294,304,305,-1,294,305,293,-1,293,305,259,-1,293,259,299,-1,299,259,143,-1,299,143,310,-1,310,143,307,-1,
        ]
    }
}
Shape{
    appearance Appearance {
        material  Material 	{
            diffuseColor 0.6470588235294118 0.6196078431372549 0.5882352941176471
            specularColor 0.45098039215686275 0.43529411764705883 0.4117647058823529
            ambientIntensity 0.2
            transparency 0
            shininess 0.5
        }
    }
    geometry IndexedFaceSet {
        ccw TRUE
        solid FALSE
        coord DEF co Coordinate {
            point [
                0.3051 -0.5807 0.3937, 0.3051 -0.5807 -0.0, 0.187 -0.5807 0.3937, 0.187 -0.5807 -0.0, 0.3051 -0.7382 0.3937, 0.187 -0.7382 0.3937, 0.3051 -0.7382 0.2362, 0.187 -0.7382 0.2362, 0.3051 -0.7185 0.2165, 0.187 -0.7185 0.2165, 0.3051 -0.7185 0.1378, 0.187 -0.7185 0.1378, 0.3051 -0.7382 0.1181, 0.187 -0.7382 0.1181, 0.3051 -0.7382 -0.4201, 0.187 -0.7382 -0.4201, 0.3051 -1.0138 -0.5792, 0.187 -1.0138 -0.5792, 0.187 -1.0219 -0.5854, 0.3051 -1.0219 -0.5854, 0.187 -1.0282 -0.5936, 0.3051 -1.0282 -0.5936, 0.187 -1.0321 -0.6031, 0.3051 -1.0321 -0.6031, 0.187 -1.0335 -0.6133, 0.3051 -1.0335 -0.6133, 0.3051 -1.0335 -0.7087, 0.187 -1.0335 -0.7087, 0.3051 -0.5925 -0.7087, 0.187 -0.5925 -0.7087, 0.187 -0.5531 -0.6693, 0.187 -0.5531 -0.5118, 0.3051 -0.5531 -0.6693, 0.3051 -0.5531 -0.5118, 0.3051 -0.5807 -0.4843, 0.187 -0.5807 -0.4843, 0.3051 -0.5807 -0.1969, 0.187 -0.5807 -0.1969, 0.187 -0.5545 -0.6795, 0.187 -0.5584 -0.689, 0.187 -0.5413 -0.0, 0.187 -0.5413 -0.1969, 0.187 -0.5647 -0.6971, 0.187 -0.5728 -0.7034, 0.187 -0.5823 -0.7073, 0.3051 -0.5413 -0.1969, 0.3051 -0.5413 -0.0, 0.3051 -0.5545 -0.6795, 0.3051 -0.5728 -0.7034, 0.3051 -0.5647 -0.6971, 0.3051 -0.5584 -0.689, 0.3051 -0.5823 -0.7073, 0.187 0.7382 -0.1969, 0.3051 0.7382 -0.1969, 0.187 -0.1476 -0.1969, 0.3051 -0.1476 -0.1969, 0.3051 0.7972 -0.1378, 0.187 0.7972 -0.1378, 0.3051 0.7972 -0.0591, 0.187 0.7972 -0.0591, 0.3051 0.7382 0.0, 0.187 0.7382 0.0, 0.3051 -0.1476 -0.0, 0.187 -0.1476 -0.0, -0.187 -0.5807 0.3937, -0.187 -0.5807 -0.0, -0.3051 -0.5807 0.3937, -0.3051 -0.5807 -0.0, -0.187 -0.7382 0.3937, -0.3051 -0.7382 0.3937, -0.187 -0.7382 0.2362, -0.3051 -0.7382 0.2362, -0.187 -0.7185 0.2165, -0.3051 -0.7185 0.2165, -0.187 -0.7185 0.1378, -0.3051 -0.7185 0.1378, -0.187 -0.7382 0.1181, -0.3051 -0.7382 0.1181, -0.187 -0.7382 -0.4201, -0.3051 -0.7382 -0.4201, -0.187 -1.0138 -0.5792, -0.3051 -1.0138 -0.5792, -0.3051 -1.0219 -0.5854, -0.187 -1.0219 -0.5854, -0.3051 -1.0282 -0.5936, -0.187 -1.0282 -0.5936, -0.3051 -1.0321 -0.6031, -0.187 -1.0321 -0.6031, -0.3051 -1.0335 -0.6133, -0.187 -1.0335 -0.6133, -0.187 -1.0335 -0.7087, -0.3051 -1.0335 -0.7087, -0.187 -0.5925 -0.7087, -0.3051 -0.5925 -0.7087, -0.3051 -0.5531 -0.6693, -0.3051 -0.5531 -0.5118, -0.187 -0.5531 -0.6693, -0.187 -0.5531 -0.5118, -0.187 -0.5807 -0.4843, -0.3051 -0.5807 -0.4843, -0.187 -0.5807 -0.1969, -0.3051 -0.5807 -0.1969, -0.3051 -0.5545 -0.6795, -0.3051 -0.5584 -0.689, -0.3051 -0.5413 -0.0, -0.3051 -0.5413 -0.1969, -0.3051 -0.5647 -0.6971, -0.3051 -0.5728 -0.7034, -0.3051 -0.5823 -0.7073, -0.187 -0.5413 -0.1969, -0.187 -0.5413 -0.0, -0.187 -0.5545 -0.6795, -0.187 -0.5728 -0.7034, -0.187 -0.5647 -0.6971, -0.187 -0.5584 -0.689, -0.187 -0.5823 -0.7073, -0.3051 0.7382 -0.1969, -0.187 0.7382 -0.1969, -0.3051 -0.1476 -0.1969, -0.187 -0.1476 -0.1969, -0.187 0.7972 -0.1378, -0.3051 0.7972 -0.1378, -0.187 0.7972 -0.0591, -0.3051 0.7972 -0.0591, -0.187 0.7382 0.0, -0.3051 0.7382 0.0, -0.187 -0.1476 -0.0, -0.3051 -0.1476 -0.0, -0.3051 -0.1476 -0.0
            ]
        }
        coordIndex [
            0,1,2,-1,2,1,3,-1,4,0,5,-1,5,0,2,-1,6,4,7,-1,7,4,5,-1,8,6,9,-1,9,6,7,-1,10,8,11,-1,11,8,9,-1,12,10,13,-1,13,10,11,-1,14,12,15,-1,15,12,13,-1,16,14,17,-1,17,14,15,-1,16,17,18,-1,16,18,19,-1,19,18,20,-1,19,20,21,-1,21,20,22,-1,21,22,23,-1,23,22,24,-1,23,24,25,-1,26,25,27,-1,27,25,24,-1,28,26,29,-1,29,26,27,-1,30,31,32,-1,32,31,33,-1,34,33,35,-1,35,33,31,-1,36,34,37,-1,37,34,35,-1,7,5,9,-1,9,5,2,-1,9,2,11,-1,11,2,3,-1,11,3,13,-1,13,3,15,-1,35,27,24,-1,20,18,17,-1,20,17,22,-1,35,31,27,-1,27,31,30,-1,27,30,29,-1,29,30,38,-1,29,38,39,-1,40,41,3,-1,3,41,37,-1,3,37,15,-1,15,37,35,-1,15,35,17,-1,17,35,24,-1,17,24,22,-1,42,43,39,-1,39,43,44,-1,39,44,29,-1,32,33,28,-1,25,26,28,-1,45,46,36,-1,36,46,1,-1,32,28,47,-1,48,49,50,-1,4,6,0,-1,0,6,8,-1,0,8,1,-1,1,8,10,-1,1,10,36,-1,36,10,12,-1,36,12,34,-1,34,12,14,-1,34,14,33,-1,19,21,28,-1,28,21,23,-1,28,23,25,-1,47,28,50,-1,50,28,51,-1,50,51,48,-1,33,14,28,-1,28,14,16,-1,28,16,19,-1,40,3,46,-1,46,3,1,-1,45,36,41,-1,41,36,37,-1,52,53,54,-1,54,53,55,-1,56,53,57,-1,57,53,52,-1,58,56,59,-1,59,56,57,-1,60,58,61,-1,61,58,59,-1,60,61,62,-1,62,61,63,-1,56,58,53,-1,53,58,60,-1,53,60,55,-1,55,60,62,-1,59,57,61,-1,61,57,52,-1,61,52,63,-1,63,52,54,-1,28,29,44,-1,28,44,51,-1,51,44,43,-1,51,43,48,-1,48,43,42,-1,48,42,49,-1,49,42,39,-1,49,39,50,-1,50,39,38,-1,50,38,47,-1,47,38,30,-1,47,30,32,-1,64,65,66,-1,66,65,67,-1,68,64,69,-1,69,64,66,-1,70,68,71,-1,71,68,69,-1,72,70,73,-1,73,70,71,-1,74,72,75,-1,75,72,73,-1,76,74,77,-1,77,74,75,-1,78,76,79,-1,79,76,77,-1,80,78,81,-1,81,78,79,-1,80,81,82,-1,80,82,83,-1,83,82,84,-1,83,84,85,-1,85,84,86,-1,85,86,87,-1,87,86,88,-1,87,88,89,-1,90,89,91,-1,91,89,88,-1,92,90,93,-1,93,90,91,-1,94,95,96,-1,96,95,97,-1,98,97,99,-1,99,97,95,-1,100,98,101,-1,101,98,99,-1,71,69,73,-1,73,69,66,-1,73,66,75,-1,75,66,67,-1,75,67,77,-1,77,67,79,-1,99,91,88,-1,84,82,81,-1,84,81,86,-1,99,95,91,-1,91,95,94,-1,91,94,93,-1,93,94,102,-1,93,102,103,-1,104,105,67,-1,67,105,101,-1,67,101,79,-1,79,101,99,-1,79,99,81,-1,81,99,88,-1,81,88,86,-1,106,107,103,-1,103,107,108,-1,103,108,93,-1,96,97,92,-1,89,90,92,-1,109,110,100,-1,100,110,65,-1,96,92,111,-1,112,113,114,-1,68,70,64,-1,64,70,72,-1,64,72,65,-1,65,72,74,-1,65,74,100,-1,100,74,76,-1,100,76,98,-1,98,76,78,-1,98,78,97,-1,83,85,92,-1,92,85,87,-1,92,87,89,-1,111,92,114,-1,114,92,115,-1,114,115,112,-1,97,78,92,-1,92,78,80,-1,92,80,83,-1,104,67,110,-1,110,67,65,-1,109,100,105,-1,105,100,101,-1,116,117,118,-1,118,117,119,-1,120,117,121,-1,121,117,116,-1,122,120,123,-1,123,120,121,-1,124,122,125,-1,125,122,123,-1,124,125,126,-1,126,125,127,-1,120,122,117,-1,117,122,124,-1,117,124,119,-1,119,124,126,-1,123,121,125,-1,125,121,116,-1,125,116,127,-1,127,116,118,-1,92,93,108,-1,92,108,115,-1,115,108,107,-1,115,107,112,-1,112,107,106,-1,112,106,113,-1,113,106,103,-1,113,103,114,-1,114,103,102,-1,114,102,111,-1,111,102,94,-1,111,94,96,-1,
        ]
    }
}
Shape{
    appearance Appearance {
        material  Material 	{
            diffuseColor 1.0 0.9333333333333333 0.6235294117647059
            specularColor 0.5019607843137255 0.4666666666666667 0.3137254901960784
            ambientIntensity 0.2
            transparency 0
            shininess 0.5
        }
    }
    geometry IndexedFaceSet {
        ccw TRUE
        solid FALSE
        coord DEF co Coordinate {
            point [
                -0.9154 0.4823 -0.5906, -0.9154 -0.3051 -0.5906, -0.9167 -0.3051 -0.6007, -0.9167 0.4823 -0.6007, -0.9206 -0.3051 -0.6102, -0.9206 0.4823 -0.6102, -0.9269 -0.3051 -0.6184, -0.9269 0.4823 -0.6184, -0.935 -0.3051 -0.6246, -0.935 0.4823 -0.6246, -0.9445 -0.3051 -0.6286, -0.9445 0.4823 -0.6286, -0.9547 -0.3051 -0.6299, -0.9547 0.4823 -0.6299, 0.9154 -0.3051 -0.5906, 0.9154 0.4823 -0.5906, 0.9167 0.4823 -0.6007, 0.9167 -0.3051 -0.6007, 0.9206 0.4823 -0.6102, 0.9206 -0.3051 -0.6102, 0.9269 0.4823 -0.6184, 0.9269 -0.3051 -0.6184, 0.935 0.4823 -0.6246, 0.935 -0.3051 -0.6246, 0.9445 0.4823 -0.6286, 0.9445 -0.3051 -0.6286, 0.9547 0.4823 -0.6299, 0.9547 -0.3051 -0.6299, 0.9547 -0.3051 -0.6299
            ]
        }
        coordIndex [
            0,1,2,-1,0,2,3,-1,3,2,4,-1,3,4,5,-1,5,4,6,-1,5,6,7,-1,7,6,8,-1,7,8,9,-1,9,8,10,-1,9,10,11,-1,11,10,12,-1,11,12,13,-1,14,15,16,-1,14,16,17,-1,17,16,18,-1,17,18,19,-1,19,18,20,-1,19,20,21,-1,21,20,22,-1,21,22,23,-1,23,22,24,-1,23,24,25,-1,25,24,26,-1,25,26,27,-1,
        ]
    }
}
Shape{
    appearance Appearance {
        material  Material 	{
            diffuseColor 0.25098039215686274 0.25098039215686274 0.25098039215686274
            specularColor 0.12549019607843137 0.12549019607843137 0.12549019607843137
            ambientIntensity 0.2
            transparency 0
            shininess 0.5
        }
    }
    geometry IndexedFaceSet {
        ccw TRUE
        solid FALSE
        coord DEF co Coordinate {
            point [
                0.3167 -0.1552 -0.5902, 0.286 -0.2339 -0.5902, 0.3167 -0.1552 -0.5906, 0.286 -0.2339 -0.5906, 0.2975 -0.2339 -0.5902, 0.2975 -0.2339 -0.5906, 0.3055 -0.2118 -0.5902, 0.3055 -0.2118 -0.5906, 0.338 -0.2118 -0.5902, 0.338 -0.2118 -0.5906, 0.3455 -0.2339 -0.5902, 0.3455 -0.2339 -0.5906, 0.3571 -0.2339 -0.5902, 0.3571 -0.2339 -0.5906, 0.3273 -0.1552 -0.5902, 0.3273 -0.1552 -0.5906, 0.3354 -0.2032 -0.5902, 0.309 -0.2032 -0.5902, 0.3236 -0.1703 -0.5902, 0.3229 -0.1675 -0.5902, 0.3224 -0.1648 -0.5902, 0.3221 -0.1648 -0.5902, 0.3216 -0.1675 -0.5902, 0.3209 -0.1703 -0.5902, 0.3354 -0.2032 -0.5906, 0.309 -0.2032 -0.5906, 0.3236 -0.1703 -0.5906, 0.3229 -0.1675 -0.5906, 0.3224 -0.1648 -0.5906, 0.3221 -0.1648 -0.5906, 0.3216 -0.1675 -0.5906, 0.3209 -0.1703 -0.5906, 0.4048 -0.2339 -0.5902, 0.4262 -0.2339 -0.5902, 0.4048 -0.2339 -0.5906, 0.4262 -0.2339 -0.5906, 0.4262 -0.1552 -0.5902, 0.4262 -0.1552 -0.5906, 0.404 -0.1552 -0.5902, 0.404 -0.1552 -0.5906, 0.3628 -0.1935 -0.5902, 0.3628 -0.1935 -0.5906, 0.3634 -0.1861 -0.5906, 0.3634 -0.1861 -0.5902, 0.3655 -0.1784 -0.5906, 0.3655 -0.1784 -0.5902, 0.3692 -0.1716 -0.5906, 0.3692 -0.1716 -0.5902, 0.3747 -0.1654 -0.5906, 0.3747 -0.1654 -0.5902, 0.3748 -0.1653 -0.5906, 0.3748 -0.1653 -0.5902, 0.3834 -0.1596 -0.5906, 0.3834 -0.1596 -0.5902, 0.3926 -0.1564 -0.5906, 0.3926 -0.1564 -0.5902, 0.3951 -0.233 -0.5906, 0.3951 -0.233 -0.5902, 0.386 -0.2303 -0.5906, 0.386 -0.2303 -0.5902, 0.3778 -0.2256 -0.5906, 0.3778 -0.2256 -0.5902, 0.3713 -0.2194 -0.5906, 0.3713 -0.2194 -0.5902, 0.3668 -0.2123 -0.5906, 0.3668 -0.2123 -0.5902, 0.3639 -0.2041 -0.5906, 0.3639 -0.2041 -0.5902, 0.3786 -0.1748 -0.5902, 0.3825 -0.1708 -0.5902, 0.3882 -0.1671 -0.5902, 0.3947 -0.1648 -0.5902, 0.404 -0.1638 -0.5902, 0.4156 -0.1638 -0.5902, 0.4156 -0.2253 -0.5902, 0.4045 -0.2253 -0.5902, 0.3962 -0.2245 -0.5902, 0.3895 -0.2224 -0.5902, 0.3842 -0.2192 -0.5902, 0.3797 -0.2149 -0.5902, 0.3764 -0.2094 -0.5902, 0.3741 -0.202 -0.5902, 0.3734 -0.1938 -0.5902, 0.3741 -0.1859 -0.5902, 0.3759 -0.1797 -0.5902, 0.404 -0.1638 -0.5906, 0.4156 -0.1638 -0.5906, 0.3947 -0.1648 -0.5906, 0.3882 -0.1671 -0.5906, 0.3825 -0.1708 -0.5906, 0.3786 -0.1748 -0.5906, 0.3759 -0.1797 -0.5906, 0.3741 -0.1859 -0.5906, 0.3734 -0.1938 -0.5906, 0.3741 -0.202 -0.5906, 0.3764 -0.2094 -0.5906, 0.3797 -0.2149 -0.5906, 0.3842 -0.2192 -0.5906, 0.3895 -0.2224 -0.5906, 0.3962 -0.2245 -0.5906, 0.4045 -0.2253 -0.5906, 0.4156 -0.2253 -0.5906, 0.4416 -0.2253 -0.5902, 0.4416 -0.2339 -0.5902, 0.4416 -0.2253 -0.5906, 0.4416 -0.2339 -0.5906, 0.4838 -0.2339 -0.5902, 0.4838 -0.2339 -0.5906, 0.4838 -0.1552 -0.5902, 0.4838 -0.1552 -0.5906, 0.4435 -0.1552 -0.5902, 0.4435 -0.1552 -0.5906, 0.4435 -0.1638 -0.5902, 0.4435 -0.1638 -0.5906, 0.4733 -0.1638 -0.5902, 0.4733 -0.1638 -0.5906, 0.4733 -0.1897 -0.5902, 0.4733 -0.1897 -0.5906, 0.4454 -0.1897 -0.5902, 0.4454 -0.1897 -0.5906, 0.4454 -0.1984 -0.5902, 0.4454 -0.1984 -0.5906, 0.4733 -0.1984 -0.5902, 0.4733 -0.1984 -0.5906, 0.4733 -0.2253 -0.5902, 0.4733 -0.2253 -0.5906, 0.4992 -0.2212 -0.5902, 0.4992 -0.2298 -0.5902, 0.4992 -0.2212 -0.5906, 0.4992 -0.2298 -0.5906, 0.5076 -0.2333 -0.5902, 0.5209 -0.2349 -0.5902, 0.5209 -0.2349 -0.5906, 0.5187 -0.2348 -0.5906, 0.5187 -0.2348 -0.5902, 0.5155 -0.2344 -0.5906, 0.5076 -0.2333 -0.5906, 0.5255 -0.2344 -0.5906, 0.5306 -0.2338 -0.5902, 0.5306 -0.2338 -0.5906, 0.5382 -0.2312 -0.5902, 0.5382 -0.2312 -0.5906, 0.5445 -0.2272 -0.5902, 0.5445 -0.2272 -0.5906, 0.5504 -0.2209 -0.5902, 0.5504 -0.2209 -0.5906, 0.5546 -0.2135 -0.5902, 0.5546 -0.2135 -0.5906, 0.557 -0.2051 -0.5902, 0.557 -0.2051 -0.5906, 0.5578 -0.196 -0.5902, 0.5578 -0.196 -0.5906, 0.5177 -0.1542 -0.5902, 0.5177 -0.1542 -0.5906, 0.5256 -0.1548 -0.5906, 0.5256 -0.1548 -0.5902, 0.5344 -0.1574 -0.5906, 0.5344 -0.1574 -0.5902, 0.5419 -0.1617 -0.5906, 0.5419 -0.1617 -0.5902, 0.549 -0.1685 -0.5906, 0.549 -0.1685 -0.5902, 0.5536 -0.1759 -0.5906, 0.5536 -0.1759 -0.5902, 0.5566 -0.1848 -0.5906, 0.5566 -0.1848 -0.5902, 0.4992 -0.1573 -0.5902, 0.4992 -0.1573 -0.5906, 0.5083 -0.1548 -0.5906, 0.5083 -0.1548 -0.5902, 0.4992 -0.1679 -0.5902, 0.4992 -0.1679 -0.5906, 0.5176 -0.1628 -0.5902, 0.5176 -0.1628 -0.5906, 0.5081 -0.1641 -0.5906, 0.5081 -0.1641 -0.5902, 0.5472 -0.1954 -0.5902, 0.5472 -0.1954 -0.5906, 0.5468 -0.1892 -0.5906, 0.5468 -0.1892 -0.5902, 0.5447 -0.1808 -0.5906, 0.5447 -0.1808 -0.5902, 0.5415 -0.1747 -0.5906, 0.5415 -0.1747 -0.5902, 0.5367 -0.1695 -0.5906, 0.5367 -0.1695 -0.5902, 0.5313 -0.1658 -0.5906, 0.5313 -0.1658 -0.5902, 0.5254 -0.1637 -0.5906, 0.5254 -0.1637 -0.5902, 0.5194 -0.2262 -0.5902, 0.5194 -0.2262 -0.5906, 0.5267 -0.2254 -0.5906, 0.5267 -0.2254 -0.5902, 0.5325 -0.2233 -0.5906, 0.5325 -0.2233 -0.5902, 0.5373 -0.22 -0.5906, 0.5373 -0.22 -0.5902, 0.541 -0.2161 -0.5906, 0.541 -0.2161 -0.5902, 0.5443 -0.2107 -0.5906, 0.5443 -0.2107 -0.5902, 0.5464 -0.2039 -0.5906, 0.5464 -0.2039 -0.5902, 0.5006 -0.222 -0.5906, 0.5006 -0.222 -0.5902, 0.5089 -0.2251 -0.5906, 0.5089 -0.2251 -0.5902, 0.5645 -0.2253 -0.5902, 0.5645 -0.2339 -0.5902, 0.5645 -0.2253 -0.5906, 0.5645 -0.2339 -0.5906, 0.6048 -0.2339 -0.5902, 0.6048 -0.2339 -0.5906, 0.6048 -0.1552 -0.5902, 0.6048 -0.1552 -0.5906, 0.5943 -0.1552 -0.5902, 0.5943 -0.1552 -0.5906, 0.5943 -0.2253 -0.5902, 0.5943 -0.2253 -0.5906, 0.5943 -0.2253 -0.5906
            ]
        }
        coordIndex [
            0,1,2,-1,2,1,3,-1,1,4,3,-1,3,4,5,-1,4,6,5,-1,5,6,7,-1,6,8,7,-1,7,8,9,-1,8,10,9,-1,9,10,11,-1,10,12,11,-1,11,12,13,-1,12,14,13,-1,13,14,15,-1,14,0,15,-1,15,0,2,-1,16,8,17,-1,17,8,6,-1,18,14,16,-1,16,14,12,-1,16,12,8,-1,8,12,10,-1,18,19,14,-1,14,19,20,-1,14,20,0,-1,0,20,21,-1,0,21,22,-1,22,23,0,-1,0,23,17,-1,0,17,1,-1,1,17,6,-1,1,6,4,-1,16,17,24,-1,24,17,25,-1,18,16,26,-1,26,16,24,-1,18,26,27,-1,18,27,19,-1,19,27,28,-1,19,28,20,-1,21,20,29,-1,29,20,28,-1,21,29,30,-1,21,30,22,-1,22,30,31,-1,22,31,23,-1,17,23,25,-1,25,23,31,-1,32,33,34,-1,34,33,35,-1,33,36,35,-1,35,36,37,-1,36,38,37,-1,37,38,39,-1,40,41,42,-1,40,42,43,-1,43,42,44,-1,43,44,45,-1,45,44,46,-1,45,46,47,-1,47,46,48,-1,47,48,49,-1,49,48,50,-1,49,50,51,-1,51,50,52,-1,51,52,53,-1,53,52,54,-1,53,54,55,-1,55,54,39,-1,55,39,38,-1,32,34,56,-1,32,56,57,-1,57,56,58,-1,57,58,59,-1,59,58,60,-1,59,60,61,-1,61,60,62,-1,61,62,63,-1,63,62,64,-1,63,64,65,-1,65,64,66,-1,65,66,67,-1,67,66,41,-1,67,41,40,-1,45,47,68,-1,68,47,49,-1,68,49,69,-1,69,49,51,-1,69,51,70,-1,70,51,53,-1,70,53,71,-1,71,53,55,-1,71,55,72,-1,72,55,38,-1,72,38,73,-1,73,38,36,-1,73,36,74,-1,74,36,33,-1,74,33,75,-1,75,33,32,-1,75,32,76,-1,76,32,57,-1,76,57,77,-1,77,57,59,-1,77,59,78,-1,78,59,61,-1,78,61,79,-1,79,61,63,-1,79,63,80,-1,80,63,65,-1,80,65,81,-1,81,65,67,-1,81,67,82,-1,82,67,40,-1,82,40,83,-1,83,40,43,-1,83,43,84,-1,84,43,45,-1,84,45,68,-1,72,73,85,-1,85,73,86,-1,72,85,87,-1,72,87,71,-1,71,87,88,-1,71,88,70,-1,70,88,89,-1,70,89,69,-1,69,89,90,-1,69,90,68,-1,68,90,91,-1,68,91,84,-1,84,91,92,-1,84,92,83,-1,83,92,93,-1,83,93,82,-1,82,93,94,-1,82,94,81,-1,81,94,95,-1,81,95,80,-1,80,95,96,-1,80,96,79,-1,79,96,97,-1,79,97,78,-1,78,97,98,-1,78,98,77,-1,77,98,99,-1,77,99,76,-1,76,99,100,-1,76,100,75,-1,74,75,101,-1,101,75,100,-1,73,74,86,-1,86,74,101,-1,102,103,104,-1,104,103,105,-1,103,106,105,-1,105,106,107,-1,106,108,107,-1,107,108,109,-1,108,110,109,-1,109,110,111,-1,110,112,111,-1,111,112,113,-1,112,114,113,-1,113,114,115,-1,114,116,115,-1,115,116,117,-1,116,118,117,-1,117,118,119,-1,118,120,119,-1,119,120,121,-1,120,122,121,-1,121,122,123,-1,122,124,123,-1,123,124,125,-1,124,102,125,-1,125,102,104,-1,106,103,102,-1,102,124,106,-1,106,124,122,-1,106,122,108,-1,112,110,114,-1,114,110,108,-1,114,108,116,-1,116,108,122,-1,116,122,118,-1,118,122,120,-1,126,127,128,-1,128,127,129,-1,129,127,130,-1,131,132,133,-1,131,133,134,-1,134,133,135,-1,134,135,130,-1,130,135,136,-1,130,136,129,-1,132,131,137,-1,137,131,138,-1,137,138,139,-1,139,138,140,-1,139,140,141,-1,141,140,142,-1,141,142,143,-1,143,142,144,-1,143,144,145,-1,145,144,146,-1,145,146,147,-1,147,146,148,-1,147,148,149,-1,149,148,150,-1,149,150,151,-1,152,153,154,-1,152,154,155,-1,155,154,156,-1,155,156,157,-1,157,156,158,-1,157,158,159,-1,159,158,160,-1,159,160,161,-1,161,160,162,-1,161,162,163,-1,163,162,164,-1,163,164,165,-1,165,164,151,-1,165,151,150,-1,166,167,168,-1,166,168,169,-1,169,168,153,-1,169,153,152,-1,166,170,167,-1,167,170,171,-1,172,173,174,-1,172,174,175,-1,175,174,171,-1,175,171,170,-1,176,177,178,-1,176,178,179,-1,179,178,180,-1,179,180,181,-1,181,180,182,-1,181,182,183,-1,183,182,184,-1,183,184,185,-1,185,184,186,-1,185,186,187,-1,187,186,188,-1,187,188,189,-1,189,188,173,-1,189,173,172,-1,190,191,192,-1,190,192,193,-1,193,192,194,-1,193,194,195,-1,195,194,196,-1,195,196,197,-1,197,196,198,-1,197,198,199,-1,199,198,200,-1,199,200,201,-1,201,200,202,-1,201,202,203,-1,203,202,177,-1,203,177,176,-1,126,128,204,-1,126,204,205,-1,205,204,206,-1,205,206,207,-1,207,206,191,-1,207,191,190,-1,193,131,190,-1,190,131,134,-1,190,134,207,-1,207,134,130,-1,207,130,205,-1,205,130,127,-1,205,127,126,-1,170,166,175,-1,175,166,169,-1,175,169,172,-1,172,169,152,-1,172,152,189,-1,189,152,155,-1,189,155,187,-1,187,155,157,-1,187,157,185,-1,185,157,159,-1,185,159,183,-1,183,159,161,-1,183,161,181,-1,181,161,163,-1,181,163,179,-1,179,163,165,-1,179,165,176,-1,176,165,150,-1,176,150,203,-1,203,150,148,-1,203,148,201,-1,201,148,146,-1,201,146,199,-1,199,146,144,-1,199,144,197,-1,197,144,142,-1,197,142,195,-1,195,142,140,-1,195,140,193,-1,193,140,138,-1,193,138,131,-1,208,209,210,-1,210,209,211,-1,209,212,211,-1,211,212,213,-1,212,214,213,-1,213,214,215,-1,214,216,215,-1,215,216,217,-1,216,218,217,-1,217,218,219,-1,218,208,219,-1,219,208,210,-1,216,214,218,-1,218,214,212,-1,218,212,208,-1,208,212,209,-1,
        ]
    }
}
Shape{
    appearance Appearance {
        material  Material 	{
            diffuseColor 1.0 0.9333333333333333 0.6235294117647059
            specularColor 0.5019607843137255 0.4666666666666667 0.3137254901960784
            ambientIntensity 0.2
            transparency 0
            shininess 0.5
        }
    }
    geometry IndexedFaceSet {
        ccw TRUE
        solid FALSE
        coord DEF co Coordinate {
            point [
                0.3354 -0.2032 -0.5906, 0.309 -0.2032 -0.5906, 0.3236 -0.1703 -0.5906, 0.3209 -0.1703 -0.5906, 0.3229 -0.1675 -0.5906, 0.3216 -0.1675 -0.5906, 0.3224 -0.1648 -0.5906, 0.3221 -0.1648 -0.5906, 0.4156 -0.1638 -0.5906, 0.4156 -0.2253 -0.5906, 0.404 -0.1638 -0.5906, 0.4045 -0.2253 -0.5906, 0.3962 -0.2245 -0.5906, 0.3734 -0.1938 -0.5906, 0.3741 -0.1859 -0.5906, 0.3759 -0.1797 -0.5906, 0.3947 -0.1648 -0.5906, 0.3895 -0.2224 -0.5906, 0.3842 -0.2192 -0.5906, 0.3797 -0.2149 -0.5906, 0.3764 -0.2094 -0.5906, 0.3741 -0.202 -0.5906, 0.3786 -0.1748 -0.5906, 0.3825 -0.1708 -0.5906, 0.3882 -0.1671 -0.5906, -0.0984 0.5217 -0.5906, -0.0984 0.5217 -0.4921, -0.1969 0.5217 -0.5906, -0.1969 0.5217 -0.4921, -0.1969 -0.0689 -0.5906, -0.1969 -0.0689 -0.4921, 0.1969 -0.0689 -0.5906, 0.1969 -0.0689 -0.4921, 0.1969 0.5217 -0.5906, 0.1969 0.5217 -0.4921, 0.0984 0.5217 -0.5906, 0.0984 0.5217 -0.4921, -0.0984 1.0335 -0.5906, -0.0984 0.935 -0.4921, 0.0984 1.0335 -0.5906, 0.0984 0.935 -0.4921, 0.0984 0.935 -0.4921
            ]
        }
        coordIndex [
            0,1,2,-1,2,1,3,-1,2,3,4,-1,4,3,5,-1,4,5,6,-1,6,5,7,-1,8,9,10,-1,10,9,11,-1,10,11,12,-1,13,14,10,-1,10,14,15,-1,10,15,16,-1,12,17,10,-1,10,17,18,-1,10,18,19,-1,19,20,10,-1,10,20,21,-1,10,21,13,-1,22,23,15,-1,15,23,24,-1,15,24,16,-1,25,26,27,-1,27,26,28,-1,27,28,29,-1,29,28,30,-1,29,30,31,-1,31,30,32,-1,31,32,33,-1,33,32,34,-1,33,34,35,-1,35,34,36,-1,37,38,25,-1,25,38,26,-1,35,36,39,-1,39,36,40,-1,
        ]
    }
}