#VRML V2.0 utf8
# 3D model generated by easyeda2kicad.py (https://github.com/uPesy/easyeda2kicad.py)

Shape{
    appearance Appearance {
        material  Material 	{
            diffuseColor 0.14901960784313725 0.14901960784313725 0.14901960784313725
            specularColor 0.07450980392156863 0.07450980392156863 0.07450980392156863
            ambientIntensity 0.2
            transparency 0
            shininess 0.5
        }
    }
    geometry IndexedFaceSet {
        ccw TRUE
        solid FALSE
        coord DEF co Coordinate {
            point [
                -0.2197 -0.3451 0.1772, -0.3567 -0.3451 0.1772, -0.3567 -0.0614 0.1772, -0.1046 -0.3342 0.1772, -0.1137 -0.3451 0.1772, 4.0 0.2559 0.1772, 4.0 -0.0614 0.1772, 3.9606 0.2559 0.1772, 3.626 -0.0614 0.1772, 3.8885 0.3425 0.1772, 3.626 0.126 0.1772, 3.1115 0.3425 0.1772, 3.374 0.126 0.1772, 3.0394 0.2559 0.1772, 3.374 -0.0614 0.1772, 3.0 0.2559 0.1772, 3.0 -0.0614 0.1772, 2.9606 0.2559 0.1772, 2.626 -0.0614 0.1772, 2.8885 0.3425 0.1772, 2.626 0.126 0.1772, 2.1115 0.3425 0.1772, 2.374 0.126 0.1772, 2.0394 0.2559 0.1772, 2.374 -0.0614 0.1772, 2.0 0.2559 0.1772, 2.0 -0.0614 0.1772, 1.9606 0.2559 0.1772, 1.626 -0.0614 0.1772, 1.8885 0.3425 0.1772, 1.626 0.126 0.1772, 1.1115 0.3425 0.1772, 1.374 0.126 0.1772, 1.0394 0.2559 0.1772, 1.374 -0.0614 0.1772, 1.0 0.2559 0.1772, 1.0 -0.0614 0.1772, 0.9606 0.2559 0.1772, 0.626 -0.0614 0.1772, 0.8885 0.3425 0.1772, 0.626 0.126 0.1772, 0.2778 0.3425 0.1772, 0.374 0.126 0.1772, 0.2778 -0.0614 0.1772, 0.1011 0.0708 0.1772, 0.1013 0.0652 0.1772, 0.049 0.1153 0.1772, 0.0061 0.0351 0.1772, -0.0031 0.028 0.1772, -0.0031 0.1027 0.1772, 0.1115 0.3425 0.1772, 0.1187 0.3425 0.1772, 0.0394 0.2559 0.1772, -0.0274 0.1244 0.1772, -0.0394 0.2559 0.1772, -0.094 0.1244 0.1772, -0.1046 0.3342 0.1772, 0.0985 0.0823 0.1772, -0.094 0.0638 0.1772, -0.1046 -0.0614 0.1772, -0.094 0.076 0.1772, -0.094 0.1123 0.1772, -0.038 0.076 0.1772, -0.038 0.1123 0.1772, 0.0897 0.0332 0.1772, 0.0811 0.0254 0.1772, 0.0061 0.0956 0.1772, 0.0156 0.1048 0.1772, 0.0127 0.0285 0.1772, 0.0267 0.1111 0.1772, 0.0231 0.0213 0.1772, 0.0345 0.017 0.1772, 0.063 0.1136 0.1772, 0.0751 0.1089 0.1772, 0.0998 0.0522 0.1772, 0.096 0.0424 0.1772, 0.0319 0.1129 0.1772, 0.0449 0.1152 0.1772, 0.0577 0.016 0.1772, 0.0697 0.0191 0.1772, 0.0483 0.0154 0.1772, 0.0859 0.1013 0.1772, 0.0933 0.0927 0.1772, -0.038 0.0638 0.1772, -0.038 0.0184 0.1772, -0.094 0.0184 0.1772, -0.094 0.0063 0.1772, 0.1187 -0.0614 0.1772, -0.0274 0.0063 0.1772, 0.0003 0.1071 0.1772, 0.0971 0.1063 0.1772, 0.0848 0.1171 0.1772, 0.0808 0.0108 0.1772, 0.0922 0.019 0.1772, 0.097 0.0239 0.1772, 0.1055 0.0369 0.1772, 0.1052 0.0947 0.1772, 0.0423 0.0035 0.1772, 0.0482 0.0033 0.1772, 0.0667 0.0054 0.1772, 0.0722 0.1235 0.1772, 0.0578 0.1269 0.1772, 0.0484 0.1274 0.1772, 0.0073 0.0171 0.1772, 0.0195 0.0094 0.1772, 0.0329 0.0048 0.1772, 0.1103 0.0505 0.1772, 0.1119 0.066 0.1772, 0.11 0.0822 0.1772, 0.0312 0.1255 0.1772, 0.0204 0.1218 0.1772, 0.0076 0.114 0.1772, -0.2058 0.0349 0.1772, -0.1978 0.0228 0.1772, -0.2197 -0.0614 0.1772, -0.1889 0.015 0.1772, -0.1801 0.0104 0.1772, -0.158 0.1237 0.1772, -0.1765 0.1202 0.1772, -0.2197 0.3425 0.1772, -0.1885 0.1141 0.1772, -0.1656 0.0071 0.1772, -0.1518 0.0063 0.1772, -0.1152 0.0063 0.1772, -0.1152 0.1244 0.1772, -0.1391 0.1244 0.1772, -0.1115 0.3425 0.1772, -0.1971 0.1066 0.1772, -0.2046 0.096 0.1772, -0.2096 0.0836 0.1772, -0.2119 0.0693 0.1772, -0.2121 0.0639 0.1772, -0.2105 0.0481 0.1772, -0.8885 0.3425 0.1772, -0.813 0.3425 0.1772, -0.9606 0.2559 0.1772, -0.813 -0.0614 0.1772, -1.0 0.2559 0.1772, -1.0 -0.0614 0.1772, -1.0 -0.2559 0.1772, -0.9606 -0.2559 0.1772, -0.8863 -0.3451 0.1772, -0.813 -0.3451 0.1772, -0.0394 -0.2559 0.1772, 0.0394 -0.2559 0.1772, 0.1137 -0.3451 0.1772, 4.0 -0.2559 0.1772, 3.9606 -0.2559 0.1772, 3.626 -0.126 0.1772, 3.8863 -0.3451 0.1772, 3.374 -0.126 0.1772, 3.1137 -0.3451 0.1772, 3.0394 -0.2559 0.1772, 3.0 -0.2559 0.1772, 2.9606 -0.2559 0.1772, 2.626 -0.126 0.1772, 2.8863 -0.3451 0.1772, 2.374 -0.126 0.1772, 2.1137 -0.3451 0.1772, 2.0394 -0.2559 0.1772, 2.0 -0.2559 0.1772, 1.9606 -0.2559 0.1772, 1.626 -0.126 0.1772, 1.8863 -0.3451 0.1772, 1.374 -0.126 0.1772, 1.1137 -0.3451 0.1772, 1.0394 -0.2559 0.1772, 1.0 -0.2559 0.1772, 0.9606 -0.2559 0.1772, 0.626 -0.126 0.1772, 0.8863 -0.3451 0.1772, 0.374 -0.126 0.1772, 0.2778 -0.3451 0.1772, 0.374 -0.0614 0.1772, -0.374 -0.0614 0.1772, -0.374 0.126 0.1772, -0.374 -0.126 0.1772, -0.626 -0.126 0.1772, -0.626 -0.0614 0.1772, -0.626 0.126 0.1772, -0.3567 0.3425 0.1772, 0.1187 -0.3451 0.1772, 0.171 0.0184 0.1772, 0.1256 0.0184 0.1772, 0.171 0.1244 0.1772, 0.1816 0.1244 0.1772, 0.1816 0.0063 0.1772, 0.1256 0.0063 0.1772, -0.3393 0.0063 0.1772, -0.3278 0.0063 0.1772, -0.2848 0.1244 0.1772, -0.3103 0.0442 0.1772, -0.2568 0.0442 0.1772, -0.2388 0.0063 0.1772, -0.2833 0.1244 0.1772, -0.2273 0.0063 0.1772, 3.626 -0.126 0.9843, 3.374 -0.126 0.9843, 3.0837 -0.3091 0.9843, 3.9163 -0.3091 0.9843, 3.626 0.126 0.9843, 3.9606 -0.2559 0.9843, 4.0 -0.2559 0.9843, 4.0 0.2559 0.9843, 3.9606 0.2559 0.9843, 3.0394 -0.2559 0.9843, 3.374 0.126 0.9843, 2.9606 -0.2559 0.9843, 2.626 -0.126 0.9843, 2.9163 -0.3091 0.9843, 2.626 0.126 0.9843, 3.0394 0.2559 0.9843, 2.9606 0.2559 0.9843, 3.7638 0.4921 0.9843, 3.2362 0.4921 0.9843, 1.626 -0.126 0.9843, 1.9163 -0.3091 0.9843, 1.626 0.126 0.9843, 1.9606 -0.2559 0.9843, 2.374 0.126 0.9843, 2.0394 -0.2559 0.9843, 2.374 -0.126 0.9843, 2.0837 -0.3091 0.9843, 2.7638 0.4921 0.9843, 2.2362 0.4921 0.9843, 2.0394 0.2559 0.9843, 1.0394 0.2559 0.9843, 1.0 -0.2559 0.9843, 1.374 0.126 0.9843, 1.0394 -0.2559 0.9843, 1.374 -0.126 0.9843, 1.0837 -0.3091 0.9843, 1.9606 0.2559 0.9843, 1.7638 0.4921 0.9843, 1.2362 0.4921 0.9843, 3.2362 -0.4921 0.9843, 3.7638 -0.4921 0.9843, 2.2362 -0.4921 0.9843, 2.7638 -0.4921 0.9843, 1.2362 -0.4921 0.9843, 1.7638 -0.4921 0.9843, -0.374 0.126 0.9843, 0.0394 0.2559 0.9843, -0.0394 0.2559 0.9843, 0.626 -0.126 0.9843, 0.9163 -0.3091 0.9843, 0.626 0.126 0.9843, 0.9606 -0.2559 0.9843, 0.374 -0.126 0.9843, 0.0837 -0.3091 0.9843, -0.374 -0.126 0.9843, -0.626 -0.126 0.9843, -0.9163 -0.3091 0.9843, -0.9606 -0.2559 0.9843, -0.626 0.126 0.9843, -1.0 -0.2559 0.9843, 1.0 0.2559 0.9843, 0.9606 0.2559 0.9843, 0.0394 -0.2559 0.9843, -0.2362 0.4921 0.9843, -0.7638 0.4921 0.9843, -0.9606 0.2559 0.9843, -1.0 0.2559 0.9843, 0.7638 0.4921 0.9843, 0.374 0.126 0.9843, 0.2362 0.4921 0.9843, -0.0837 -0.3091 0.9843, -0.0394 -0.2559 0.9843, 0.2362 -0.4921 0.9843, 0.7638 -0.4921 0.9843, -0.7638 -0.4921 0.9843, -0.2362 -0.4921 0.9843, 2.8863 -0.3451 0.0, 2.7638 -0.4921 0.0, 2.626 -0.3451 0.0, 2.626 -0.4921 0.0, 3.7638 0.4921 0.0, 3.8885 0.3425 0.0, 3.626 0.4921 0.0, 3.626 0.3425 0.0, 1.7638 0.4921 0.0, 1.8885 0.3425 0.0, 1.626 0.4921 0.0, 1.626 0.3425 0.0, 3.374 0.3425 0.0, 3.1115 0.3425 0.0, 3.374 0.4921 0.0, 3.2362 0.4921 0.0, 2.1115 0.3425 0.0, 2.2362 0.4921 0.0, 2.8885 0.3425 0.0, 2.7638 0.4921 0.0, 1.374 0.3425 0.0, 1.1115 0.3425 0.0, 1.374 0.4921 0.0, 1.2362 0.4921 0.0, 1.8863 -0.3451 0.0, 1.7638 -0.4921 0.0, 1.1137 -0.3451 0.0, 1.2362 -0.4921 0.0, 2.374 -0.4921 0.0, 2.2362 -0.4921 0.0, 2.374 -0.3451 0.0, 2.1137 -0.3451 0.0, 3.8863 -0.3451 0.0, 3.7638 -0.4921 0.0, 3.1137 -0.3451 0.0, 3.2362 -0.4921 0.0, 0.8863 -0.3451 0.0, 0.7638 -0.4921 0.0, 0.626 -0.3451 0.0, 0.626 -0.4921 0.0, -0.2362 0.4921 0.0, -0.1115 0.3425 0.0, -0.374 0.4921 0.0, -0.374 0.3425 0.0, 0.1115 0.3425 0.0, 0.2362 0.4921 0.0, 0.8885 0.3425 0.0, 0.7638 0.4921 0.0, -0.626 0.3425 0.0, -0.8885 0.3425 0.0, -0.626 0.4921 0.0, -0.7638 0.4921 0.0, -0.1137 -0.3451 0.0, -0.2362 -0.4921 0.0, -0.8863 -0.3451 0.0, -0.7638 -0.4921 0.0, 0.374 -0.4921 -0.0, 0.2362 -0.4921 0.0, 0.374 -0.3451 0.0, 0.1137 -0.3451 0.0, -0.813 0.4331 0.9843, 0.0 0.2559 0.9843, 0.0 -0.2559 0.9843, -0.813 -0.4331 0.9843, -0.813 -0.4331 0.9843
            ]
        }
        coordIndex [
            0,1,2,-1,3,4,0,-1,5,6,7,-1,7,6,8,-1,7,8,9,-1,9,8,10,-1,9,10,11,-1,11,10,12,-1,11,12,13,-1,13,12,14,-1,13,14,15,-1,15,14,16,-1,15,16,17,-1,17,16,18,-1,17,18,19,-1,19,18,20,-1,19,20,21,-1,21,20,22,-1,21,22,23,-1,23,22,24,-1,23,24,25,-1,25,24,26,-1,25,26,27,-1,27,26,28,-1,27,28,29,-1,29,28,30,-1,29,30,31,-1,31,30,32,-1,31,32,33,-1,33,32,34,-1,33,34,35,-1,35,34,36,-1,35,36,37,-1,37,36,38,-1,37,38,39,-1,39,38,40,-1,39,40,41,-1,41,40,42,-1,41,42,43,-1,44,45,46,-1,47,48,49,-1,50,51,52,-1,52,51,53,-1,52,53,54,-1,54,53,55,-1,54,55,56,-1,44,46,57,-1,58,59,60,-1,60,59,61,-1,60,61,62,-1,62,61,63,-1,46,64,65,-1,49,66,47,-1,47,66,67,-1,47,67,68,-1,68,67,69,-1,68,69,70,-1,70,69,71,-1,46,72,73,-1,45,74,46,-1,46,74,75,-1,46,75,64,-1,76,77,78,-1,78,77,46,-1,78,46,79,-1,79,46,65,-1,76,78,69,-1,69,78,80,-1,69,80,71,-1,73,81,46,-1,46,81,82,-1,46,82,57,-1,83,84,58,-1,58,84,85,-1,58,85,59,-1,59,85,86,-1,59,86,87,-1,87,86,88,-1,48,88,49,-1,49,88,53,-1,49,53,89,-1,90,91,51,-1,92,93,87,-1,87,93,94,-1,87,94,95,-1,90,51,96,-1,97,98,87,-1,87,98,99,-1,87,99,92,-1,91,100,51,-1,51,100,101,-1,51,101,102,-1,48,103,88,-1,88,103,104,-1,88,104,87,-1,87,104,105,-1,87,105,97,-1,95,106,87,-1,87,106,107,-1,87,107,51,-1,51,107,108,-1,51,108,96,-1,102,109,51,-1,51,109,110,-1,51,110,53,-1,53,110,111,-1,53,111,89,-1,112,113,114,-1,114,113,115,-1,114,115,116,-1,117,118,119,-1,119,118,120,-1,121,122,59,-1,59,122,123,-1,59,123,124,-1,117,119,125,-1,125,119,126,-1,125,126,124,-1,124,126,56,-1,124,56,59,-1,59,56,55,-1,59,55,61,-1,120,127,119,-1,119,127,128,-1,119,128,129,-1,129,130,119,-1,119,130,131,-1,119,131,114,-1,114,131,132,-1,114,132,112,-1,133,134,135,-1,135,134,136,-1,135,136,137,-1,137,136,138,-1,139,138,140,-1,140,138,136,-1,140,136,141,-1,141,136,142,-1,143,3,59,-1,59,3,114,-1,59,114,121,-1,121,114,116,-1,143,59,144,-1,144,59,87,-1,144,87,145,-1,6,146,8,-1,8,146,147,-1,8,147,148,-1,148,147,149,-1,148,149,150,-1,150,149,151,-1,150,151,14,-1,14,151,152,-1,14,152,16,-1,16,152,153,-1,16,153,18,-1,18,153,154,-1,18,154,155,-1,155,154,156,-1,155,156,157,-1,157,156,158,-1,157,158,24,-1,24,158,159,-1,24,159,26,-1,26,159,160,-1,26,160,28,-1,28,160,161,-1,28,161,162,-1,162,161,163,-1,162,163,164,-1,164,163,165,-1,164,165,34,-1,34,165,166,-1,34,166,36,-1,36,166,167,-1,36,167,38,-1,38,167,168,-1,38,168,169,-1,169,168,170,-1,169,170,171,-1,171,170,172,-1,171,172,173,-1,2,174,175,-1,174,2,176,-1,176,2,1,-1,176,1,177,-1,177,1,142,-1,177,142,178,-1,178,142,136,-1,178,136,179,-1,179,136,134,-1,179,134,175,-1,175,134,180,-1,175,180,2,-1,42,173,43,-1,43,173,172,-1,43,172,87,-1,87,172,181,-1,87,181,145,-1,182,183,184,-1,184,183,51,-1,184,51,185,-1,185,51,41,-1,185,41,186,-1,186,41,43,-1,186,43,187,-1,187,43,87,-1,187,87,183,-1,183,87,51,-1,188,189,114,-1,3,0,114,-1,114,0,2,-1,114,2,188,-1,188,2,180,-1,188,180,190,-1,191,192,193,-1,190,180,194,-1,194,180,119,-1,194,119,195,-1,195,119,114,-1,195,114,193,-1,193,114,189,-1,193,189,191,-1,196,197,198,-1,196,199,200,-1,200,199,201,-1,202,203,204,-1,202,204,201,-1,198,197,205,-1,205,197,206,-1,205,206,207,-1,208,209,210,-1,210,209,207,-1,207,206,210,-1,210,206,211,-1,210,211,212,-1,201,204,200,-1,200,204,213,-1,200,213,206,-1,206,213,214,-1,206,214,211,-1,215,216,217,-1,217,216,218,-1,217,218,219,-1,219,218,220,-1,219,220,221,-1,221,220,222,-1,221,222,208,-1,212,223,210,-1,210,223,224,-1,210,224,219,-1,219,224,225,-1,219,225,217,-1,226,227,228,-1,228,227,229,-1,228,229,230,-1,230,229,231,-1,230,231,215,-1,225,232,217,-1,217,232,233,-1,217,233,228,-1,228,233,234,-1,228,234,226,-1,196,198,199,-1,199,198,235,-1,199,235,236,-1,208,222,209,-1,209,222,237,-1,209,237,238,-1,215,231,216,-1,216,231,239,-1,216,239,240,-1,241,242,243,-1,244,245,246,-1,246,245,247,-1,244,248,249,-1,250,251,252,-1,252,251,253,-1,253,251,254,-1,253,254,255,-1,226,256,227,-1,227,256,257,-1,227,257,247,-1,249,248,258,-1,243,259,241,-1,241,259,260,-1,241,260,254,-1,254,260,261,-1,254,261,255,-1,255,261,262,-1,247,257,246,-1,246,257,263,-1,246,263,264,-1,264,263,265,-1,264,265,242,-1,250,266,241,-1,241,266,267,-1,241,267,242,-1,242,267,258,-1,242,258,264,-1,264,258,248,-1,244,249,245,-1,245,249,268,-1,245,268,269,-1,250,252,266,-1,266,252,270,-1,266,270,271,-1,201,147,202,-1,202,147,146,-1,7,204,5,-1,5,204,203,-1,272,273,274,-1,274,273,275,-1,276,277,278,-1,278,277,279,-1,280,281,282,-1,282,281,283,-1,284,285,286,-1,286,285,287,-1,288,289,290,-1,290,289,291,-1,292,293,294,-1,294,293,295,-1,296,297,298,-1,298,297,299,-1,300,301,302,-1,302,301,303,-1,304,305,306,-1,306,305,307,-1,291,289,223,-1,223,289,224,-1,295,234,294,-1,294,234,233,-1,294,233,282,-1,282,233,280,-1,287,214,286,-1,286,214,213,-1,286,213,278,-1,278,213,276,-1,273,238,275,-1,275,238,237,-1,275,237,300,-1,300,237,301,-1,236,235,305,-1,305,235,307,-1,308,309,310,-1,310,309,311,-1,312,313,314,-1,314,313,315,-1,316,317,318,-1,318,317,319,-1,320,321,322,-1,322,321,323,-1,324,325,326,-1,326,325,327,-1,323,260,322,-1,322,260,259,-1,322,259,314,-1,314,259,312,-1,309,269,311,-1,311,269,268,-1,311,268,328,-1,328,268,329,-1,319,317,263,-1,263,317,265,-1,139,255,138,-1,138,255,262,-1,138,262,137,-1,327,325,270,-1,270,325,271,-1,328,329,330,-1,330,329,331,-1,260,323,133,-1,133,323,321,-1,260,133,332,-1,332,133,135,-1,332,135,261,-1,137,262,135,-1,135,262,261,-1,313,312,126,-1,126,312,259,-1,126,259,56,-1,56,259,243,-1,56,243,54,-1,242,52,333,-1,333,52,54,-1,333,54,243,-1,267,143,334,-1,334,143,144,-1,334,144,258,-1,325,324,4,-1,143,267,3,-1,3,267,266,-1,3,266,4,-1,4,266,271,-1,4,271,325,-1,326,327,141,-1,141,327,270,-1,253,140,252,-1,252,140,141,-1,252,141,335,-1,335,141,270,-1,140,253,139,-1,139,253,255,-1,145,331,329,-1,258,144,249,-1,249,144,145,-1,249,145,268,-1,268,145,329,-1,317,316,50,-1,52,242,50,-1,50,242,265,-1,50,265,317,-1,318,319,39,-1,39,319,263,-1,39,263,37,-1,37,263,257,-1,37,257,35,-1,35,257,256,-1,35,256,33,-1,33,256,226,-1,166,229,167,-1,167,229,227,-1,167,227,168,-1,168,227,247,-1,269,309,170,-1,170,309,308,-1,269,170,245,-1,245,170,168,-1,245,168,247,-1,133,321,134,-1,134,321,320,-1,134,320,180,-1,180,320,315,-1,180,315,119,-1,119,315,313,-1,119,313,126,-1,316,318,39,-1,39,41,316,-1,316,41,51,-1,316,51,50,-1,0,4,324,-1,326,141,142,-1,326,142,324,-1,324,142,1,-1,324,1,0,-1,170,308,310,-1,170,310,172,-1,172,310,330,-1,172,330,181,-1,181,330,331,-1,181,331,145,-1,
        ]
    }
}
Shape{
    appearance Appearance {
        material  Material 	{
            diffuseColor 0.7529411764705882 0.7529411764705882 0.7529411764705882
            specularColor 0.3764705882352941 0.3764705882352941 0.3764705882352941
            ambientIntensity 0.2
            transparency 0
            shininess 0.5
        }
    }
    geometry IndexedFaceSet {
        ccw TRUE
        solid FALSE
        coord DEF co Coordinate {
            point [
                -0.626 0.9449 -0.0787, -0.626 0.8661 0.0, -0.374 0.9449 -0.0787, -0.374 0.8661 0.0, -0.626 0.9449 -0.1732, -0.374 0.9449 -0.1732, -0.626 0.8661 -0.252, -0.374 0.8661 -0.252, -0.626 -0.0079 -0.252, -0.374 -0.0079 -0.252, -0.374 -0.0531 -0.243, -0.626 -0.0531 -0.243, -0.374 -0.0914 -0.2174, -0.626 -0.0914 -0.2174, -0.374 -0.117 -0.1791, -0.626 -0.117 -0.1791, -0.374 -0.126 -0.1339, -0.626 -0.126 -0.1339, -0.626 0.126 0.1772, -0.626 0.126 0.0, -0.626 -0.0614 0.1772, -0.626 -0.126 0.1772, -0.626 0.4921 0.0, -0.626 0.3425 0.0, -0.374 0.4921 0.0, -0.374 -0.0614 0.1772, -0.374 -0.126 0.1772, -0.374 0.3425 0.0, -0.374 0.126 0.0, -0.374 0.126 0.1772, -0.626 0.126 3.2677, -0.374 0.126 3.2677, -0.626 0.126 0.9843, -0.374 0.126 0.9843, -0.374 -0.126 3.2677, -0.626 -0.126 3.2677, -0.374 -0.126 0.9843, -0.626 -0.126 0.9843, -0.626 -0.0472 3.3465, -0.374 -0.0472 3.3465, -0.626 0.0472 3.3465, -0.374 0.0472 3.3465, 0.626 -0.9449 -0.0787, 0.626 -0.8661 -0.0, 0.374 -0.9449 -0.0787, 0.374 -0.8661 -0.0, 0.626 -0.9449 -0.1732, 0.374 -0.9449 -0.1732, 0.626 -0.8661 -0.252, 0.374 -0.8661 -0.252, 0.626 0.0079 -0.252, 0.374 0.0079 -0.252, 0.374 0.0531 -0.243, 0.626 0.0531 -0.243, 0.374 0.0914 -0.2174, 0.626 0.0914 -0.2174, 0.374 0.117 -0.1791, 0.626 0.117 -0.1791, 0.374 0.126 -0.1339, 0.626 0.126 -0.1339, 0.626 -0.3451 0.0, 0.626 -0.126 -0.0, 0.374 -0.3451 0.0, 0.374 -0.126 -0.0, 0.374 -0.126 0.1772, 0.374 -0.0614 0.1772, 0.374 0.126 0.1772, 0.374 -0.4921 -0.0, 0.626 -0.0614 0.1772, 0.626 -0.126 0.1772, 0.626 0.126 0.1772, 0.626 -0.4921 0.0, 0.374 0.126 3.2677, 0.626 0.126 3.2677, 0.374 0.126 0.9843, 0.626 0.126 0.9843, 0.626 0.0472 3.3465, 0.374 0.0472 3.3465, 0.626 -0.0472 3.3465, 0.374 -0.0472 3.3465, 0.626 -0.126 3.2677, 0.374 -0.126 3.2677, 0.626 -0.126 0.9843, 0.374 -0.126 0.9843, -0.2833 0.1244 0.2165, -0.2848 0.1244 0.2165, -0.2833 0.1244 0.1772, -0.2848 0.1244 0.1772, -0.3393 0.0063 0.2165, -0.3393 0.0063 0.1772, -0.3278 0.0063 0.2165, -0.3278 0.0063 0.1772, -0.3103 0.0442 0.2165, -0.3103 0.0442 0.1772, -0.2568 0.0442 0.2165, -0.2568 0.0442 0.1772, -0.2388 0.0063 0.2165, -0.2388 0.0063 0.1772, -0.2273 0.0063 0.2165, -0.2273 0.0063 0.1772, -0.3047 0.0563 0.2165, -0.2625 0.0563 0.2165, -0.2839 0.1014 0.2165, -0.3047 0.0563 0.1772, -0.2839 0.1014 0.1772, -0.2625 0.0563 0.1772, -0.1518 0.0063 0.2165, -0.1152 0.0063 0.2165, -0.1518 0.0063 0.1772, -0.1152 0.0063 0.1772, -0.1152 0.1244 0.2165, -0.1152 0.1244 0.1772, -0.1391 0.1244 0.2165, -0.1391 0.1244 0.1772, -0.1765 0.1202 0.2165, -0.1765 0.1202 0.1772, -0.158 0.1237 0.1772, -0.158 0.1237 0.2165, -0.2121 0.0639 0.2165, -0.2121 0.0639 0.1772, -0.2099 0.0825 0.1772, -0.2099 0.0825 0.2165, -0.1978 0.1058 0.1772, -0.1978 0.1058 0.2165, -0.1646 0.007 0.1772, -0.1646 0.007 0.2165, -0.1883 0.0146 0.1772, -0.1883 0.0146 0.2165, -0.2055 0.0342 0.1772, -0.2055 0.0342 0.2165, -0.1996 0.0492 0.2165, -0.19 0.0319 0.2165, -0.1731 0.0214 0.2165, -0.1563 0.0189 0.2165, -0.1394 0.0184 0.2165, -0.1258 0.0184 0.2165, -0.1258 0.1123 0.2165, -0.1341 0.1123 0.2165, -0.1524 0.1117 0.2165, -0.1704 0.109 0.2165, -0.1835 0.1027 0.2165, -0.1963 0.0875 0.2165, -0.2015 0.0639 0.2165, -0.1258 0.1123 0.1772, -0.1258 0.0184 0.1772, -0.1341 0.1123 0.1772, -0.1524 0.1117 0.1772, -0.1704 0.109 0.1772, -0.1835 0.1027 0.1772, -0.1963 0.0875 0.1772, -0.2015 0.0639 0.1772, -0.1996 0.0492 0.1772, -0.19 0.0319 0.1772, -0.1731 0.0214 0.1772, -0.1563 0.0189 0.1772, -0.1394 0.0184 0.1772, -0.0274 0.0063 0.2165, -0.0274 0.1244 0.2165, -0.0274 0.0063 0.1772, -0.0274 0.1244 0.1772, -0.094 0.1244 0.2165, -0.094 0.1244 0.1772, -0.094 0.1123 0.2165, -0.094 0.1123 0.1772, -0.038 0.1123 0.2165, -0.038 0.1123 0.1772, -0.038 0.076 0.2165, -0.038 0.076 0.1772, -0.094 0.076 0.2165, -0.094 0.076 0.1772, -0.094 0.0638 0.2165, -0.094 0.0638 0.1772, -0.038 0.0638 0.2165, -0.038 0.0638 0.1772, -0.038 0.0184 0.2165, -0.038 0.0184 0.1772, -0.094 0.0184 0.2165, -0.094 0.0184 0.1772, -0.094 0.0063 0.2165, -0.094 0.0063 0.1772, -0.0031 0.1027 0.2165, -0.0031 0.1027 0.1772, 0.0006 0.1074 0.1772, 0.0006 0.1074 0.2165, 0.0075 0.1139 0.1772, 0.0075 0.1139 0.2165, 0.0196 0.1214 0.1772, 0.0196 0.1214 0.2165, 0.0484 0.1274 0.1772, 0.0484 0.1274 0.2165, 0.0061 0.0956 0.2165, 0.0061 0.0956 0.1772, 0.049 0.1153 0.2165, 0.049 0.1153 0.1772, 0.0442 0.1151 0.1772, 0.0442 0.1151 0.2165, 0.0364 0.1141 0.1772, 0.0364 0.1141 0.2165, 0.0253 0.1105 0.1772, 0.0253 0.1105 0.2165, 0.1013 0.0652 0.2165, 0.1013 0.0652 0.1772, 0.1011 0.07 0.1772, 0.1011 0.07 0.2165, 0.0935 0.0924 0.1772, 0.0935 0.0924 0.2165, 0.0752 0.1089 0.1772, 0.0752 0.1089 0.2165, 0.0483 0.0154 0.2165, 0.0483 0.0154 0.1772, 0.0557 0.0158 0.1772, 0.0557 0.0158 0.2165, 0.0789 0.0238 0.1772, 0.0789 0.0238 0.2165, 0.0952 0.0409 0.1772, 0.0952 0.0409 0.2165, 0.0061 0.0351 0.2165, 0.0061 0.0351 0.1772, 0.025 0.0204 0.1772, 0.025 0.0204 0.2165, -0.0031 0.028 0.2165, -0.0031 0.028 0.1772, 0.0482 0.0033 0.2165, 0.0482 0.0033 0.1772, 0.0423 0.0035 0.1772, 0.0423 0.0035 0.2165, 0.0329 0.0048 0.1772, 0.0329 0.0048 0.2165, 0.0195 0.0094 0.1772, 0.0195 0.0094 0.2165, 0.097 0.0239 0.2165, 0.097 0.0239 0.1772, 0.0932 0.0199 0.1772, 0.0932 0.0199 0.2165, 0.0865 0.0144 0.1772, 0.0865 0.0144 0.2165, 0.075 0.0081 0.1772, 0.075 0.0081 0.2165, 0.1119 0.066 0.2165, 0.1119 0.066 0.1772, 0.1083 0.0436 0.1772, 0.1083 0.0436 0.2165, 0.0536 0.1273 0.1772, 0.0536 0.1273 0.2165, 0.0841 0.1175 0.1772, 0.0841 0.1175 0.2165, 0.1043 0.0962 0.1772, 0.1043 0.0962 0.2165, 0.1816 0.0063 0.2165, 0.1816 0.1244 0.2165, 0.1816 0.0063 0.1772, 0.1816 0.1244 0.1772, 0.171 0.1244 0.2165, 0.171 0.1244 0.1772, 0.171 0.0184 0.2165, 0.171 0.0184 0.1772, 0.1256 0.0184 0.2165, 0.1256 0.0184 0.1772, 0.1256 0.0063 0.2165, 0.1256 0.0063 0.1772, 0.1256 0.0063 0.1772
            ]
        }
        coordIndex [
            0,1,2,-1,2,1,3,-1,4,0,5,-1,5,0,2,-1,6,4,7,-1,7,4,5,-1,8,6,9,-1,9,6,7,-1,8,9,10,-1,8,10,11,-1,11,10,12,-1,11,12,13,-1,13,12,14,-1,13,14,15,-1,15,14,16,-1,15,16,17,-1,18,19,20,-1,20,19,13,-1,13,15,20,-1,20,15,17,-1,20,17,21,-1,22,1,0,-1,0,4,22,-1,22,4,6,-1,22,6,23,-1,23,6,8,-1,23,8,19,-1,19,8,11,-1,19,11,13,-1,2,3,5,-1,5,3,24,-1,5,24,7,-1,14,12,16,-1,16,12,25,-1,16,25,26,-1,7,24,9,-1,9,24,27,-1,9,27,10,-1,10,27,28,-1,10,28,12,-1,12,28,29,-1,12,29,25,-1,21,17,26,-1,26,17,16,-1,29,28,18,-1,18,28,19,-1,23,19,27,-1,27,19,28,-1,24,3,22,-1,22,3,1,-1,30,31,32,-1,32,31,33,-1,34,35,36,-1,36,35,37,-1,38,35,39,-1,39,35,34,-1,40,38,41,-1,41,38,39,-1,30,40,31,-1,31,40,41,-1,38,40,35,-1,35,40,30,-1,35,30,37,-1,37,30,32,-1,41,39,31,-1,31,39,34,-1,31,34,33,-1,33,34,36,-1,42,43,44,-1,44,43,45,-1,46,42,47,-1,47,42,44,-1,48,46,49,-1,49,46,47,-1,50,48,51,-1,51,48,49,-1,50,51,52,-1,50,52,53,-1,53,52,54,-1,53,54,55,-1,55,54,56,-1,55,56,57,-1,57,56,58,-1,57,58,59,-1,60,61,62,-1,62,61,63,-1,49,47,44,-1,64,65,63,-1,63,65,66,-1,63,66,58,-1,44,45,49,-1,49,45,67,-1,49,67,51,-1,51,67,62,-1,51,62,52,-1,52,62,63,-1,52,63,54,-1,54,63,58,-1,54,58,56,-1,68,69,61,-1,48,50,60,-1,70,68,59,-1,59,68,61,-1,59,61,57,-1,57,61,55,-1,60,50,61,-1,61,50,53,-1,61,53,55,-1,42,46,43,-1,43,46,48,-1,43,48,71,-1,71,48,60,-1,64,63,69,-1,69,63,61,-1,70,59,66,-1,66,59,58,-1,67,45,71,-1,71,45,43,-1,72,73,74,-1,74,73,75,-1,76,73,77,-1,77,73,72,-1,78,76,79,-1,79,76,77,-1,80,78,81,-1,81,78,79,-1,80,81,82,-1,82,81,83,-1,76,78,73,-1,73,78,80,-1,73,80,75,-1,75,80,82,-1,79,77,81,-1,81,77,72,-1,81,72,83,-1,83,72,74,-1,84,85,86,-1,86,85,87,-1,85,88,87,-1,87,88,89,-1,88,90,89,-1,89,90,91,-1,90,92,91,-1,91,92,93,-1,92,94,93,-1,93,94,95,-1,94,96,95,-1,95,96,97,-1,96,98,97,-1,97,98,99,-1,98,84,99,-1,99,84,86,-1,100,88,85,-1,84,101,85,-1,85,101,102,-1,85,102,100,-1,98,96,94,-1,90,88,92,-1,92,88,100,-1,92,100,94,-1,94,100,101,-1,94,101,98,-1,98,101,84,-1,100,102,103,-1,103,102,104,-1,101,100,105,-1,105,100,103,-1,102,101,104,-1,104,101,105,-1,106,107,108,-1,108,107,109,-1,107,110,109,-1,109,110,111,-1,110,112,111,-1,111,112,113,-1,114,115,116,-1,114,116,117,-1,117,116,113,-1,117,113,112,-1,118,119,120,-1,118,120,121,-1,121,120,122,-1,121,122,123,-1,123,122,115,-1,123,115,114,-1,106,108,124,-1,106,124,125,-1,125,124,126,-1,125,126,127,-1,127,126,128,-1,127,128,129,-1,129,128,119,-1,129,119,118,-1,130,131,127,-1,127,131,132,-1,127,132,125,-1,125,132,133,-1,125,133,106,-1,106,133,134,-1,106,134,107,-1,107,134,135,-1,107,135,110,-1,110,135,136,-1,110,136,112,-1,112,136,137,-1,112,137,117,-1,117,137,138,-1,117,138,114,-1,114,138,139,-1,114,139,123,-1,123,139,140,-1,123,140,121,-1,121,140,141,-1,121,141,118,-1,118,141,142,-1,118,142,129,-1,129,142,130,-1,129,130,127,-1,136,135,143,-1,143,135,144,-1,137,136,145,-1,145,136,143,-1,137,145,146,-1,137,146,138,-1,138,146,147,-1,138,147,139,-1,139,147,148,-1,139,148,140,-1,140,148,149,-1,140,149,141,-1,141,149,150,-1,141,150,142,-1,142,150,151,-1,142,151,130,-1,130,151,152,-1,130,152,131,-1,131,152,153,-1,131,153,132,-1,132,153,154,-1,132,154,133,-1,133,154,155,-1,133,155,134,-1,135,134,144,-1,144,134,155,-1,156,157,158,-1,158,157,159,-1,157,160,159,-1,159,160,161,-1,160,162,161,-1,161,162,163,-1,162,164,163,-1,163,164,165,-1,164,166,165,-1,165,166,167,-1,166,168,167,-1,167,168,169,-1,168,170,169,-1,169,170,171,-1,170,172,171,-1,171,172,173,-1,172,174,173,-1,173,174,175,-1,174,176,175,-1,175,176,177,-1,176,178,177,-1,177,178,179,-1,178,156,179,-1,179,156,158,-1,156,178,176,-1,176,174,156,-1,156,174,172,-1,156,172,157,-1,162,160,164,-1,164,160,157,-1,164,157,166,-1,166,157,172,-1,166,172,168,-1,168,172,170,-1,180,181,182,-1,180,182,183,-1,183,182,184,-1,183,184,185,-1,185,184,186,-1,185,186,187,-1,187,186,188,-1,187,188,189,-1,180,190,181,-1,181,190,191,-1,192,193,194,-1,192,194,195,-1,195,194,196,-1,195,196,197,-1,197,196,198,-1,197,198,199,-1,199,198,191,-1,199,191,190,-1,200,201,202,-1,200,202,203,-1,203,202,204,-1,203,204,205,-1,205,204,206,-1,205,206,207,-1,207,206,193,-1,207,193,192,-1,208,209,210,-1,208,210,211,-1,211,210,212,-1,211,212,213,-1,213,212,214,-1,213,214,215,-1,215,214,201,-1,215,201,200,-1,216,217,218,-1,216,218,219,-1,219,218,209,-1,219,209,208,-1,216,220,217,-1,217,220,221,-1,222,223,224,-1,222,224,225,-1,225,224,226,-1,225,226,227,-1,227,226,228,-1,227,228,229,-1,229,228,221,-1,229,221,220,-1,230,231,232,-1,230,232,233,-1,233,232,234,-1,233,234,235,-1,235,234,236,-1,235,236,237,-1,237,236,223,-1,237,223,222,-1,238,239,240,-1,238,240,241,-1,241,240,231,-1,241,231,230,-1,189,188,242,-1,189,242,243,-1,243,242,244,-1,243,244,245,-1,245,244,246,-1,245,246,247,-1,247,246,239,-1,247,239,238,-1,220,216,229,-1,229,216,219,-1,238,241,215,-1,215,241,213,-1,213,241,230,-1,213,230,233,-1,190,180,183,-1,190,183,199,-1,199,183,185,-1,199,185,187,-1,233,235,213,-1,213,235,237,-1,213,237,211,-1,211,237,222,-1,211,222,208,-1,208,222,225,-1,208,225,219,-1,219,225,227,-1,219,227,229,-1,215,200,238,-1,238,200,203,-1,238,203,247,-1,247,203,205,-1,247,205,245,-1,245,205,207,-1,245,207,243,-1,243,207,192,-1,243,192,189,-1,189,192,195,-1,189,195,187,-1,187,195,197,-1,187,197,199,-1,248,249,250,-1,250,249,251,-1,249,252,251,-1,251,252,253,-1,252,254,253,-1,253,254,255,-1,254,256,255,-1,255,256,257,-1,256,258,257,-1,257,258,259,-1,258,248,259,-1,259,248,250,-1,252,249,254,-1,254,249,248,-1,254,248,256,-1,256,248,258,-1,
        ]
    }
}
Shape{
    appearance Appearance {
        material  Material 	{
            diffuseColor 0.14901960784313725 0.14901960784313725 0.14901960784313725
            specularColor 0.07450980392156863 0.07450980392156863 0.07450980392156863
            ambientIntensity 0.2
            transparency 0
            shininess 0.5
        }
    }
    geometry IndexedFaceSet {
        ccw TRUE
        solid FALSE
        coord DEF co Coordinate {
            point [
                -0.2839 0.1014 0.1772, -0.2625 0.0563 0.1772, -0.3047 0.0563 0.1772, -0.1258 0.1123 0.1772, -0.1258 0.0184 0.1772, -0.1341 0.1123 0.1772, -0.1394 0.0184 0.1772, -0.1524 0.1117 0.1772, -0.1563 0.0189 0.1772, -0.1704 0.109 0.1772, -0.1731 0.0214 0.1772, -0.19 0.0319 0.1772, -0.1996 0.0492 0.1772, -0.2015 0.0639 0.1772, -0.1963 0.0875 0.1772, -0.1835 0.1027 0.1772, 1.2362 -0.4921 0.0, 1.7638 -0.4921 0.0, 1.2362 -0.4921 0.9843, 1.7638 -0.4921 0.9843, 1.2362 0.4921 0.0, 1.1115 0.3425 0.0, 1.1115 0.3425 0.1772, 1.0394 0.2559 0.1772, 1.0394 0.2559 0.9843, 1.2362 0.4921 0.9843, 3.1137 -0.3451 0.1772, 3.1137 -0.3451 0.0, 3.2362 -0.4921 0.0, 3.0394 -0.2559 0.9843, 3.0394 -0.2559 0.1772, 3.0837 -0.3091 0.9843, 3.2362 -0.4921 0.9843, 3.0 -0.2559 0.1772, 3.0 -0.2559 0.9843, 2.9606 -0.2559 0.1772, 2.9606 -0.2559 0.9843, 3.7638 -0.4921 0.9843, 3.7638 -0.4921 0.0, 3.8863 -0.3451 0.1772, 3.8863 -0.3451 0.0, 3.9163 -0.3091 0.9843, 3.9606 -0.2559 0.1772, 3.9606 -0.2559 0.9843, 3.8885 0.3425 0.0, 3.7638 0.4921 0.0, 3.8885 0.3425 0.1772, 3.7638 0.4921 0.9843, 3.9606 0.2559 0.1772, 3.9606 0.2559 0.9843, 1.8885 0.3425 0.0, 1.7638 0.4921 0.0, 1.8885 0.3425 0.1772, 1.7638 0.4921 0.9843, 1.9606 0.2559 0.1772, 1.9606 0.2559 0.9843, 2.0 0.2559 0.1772, 2.0 0.2559 0.9843, 2.0394 0.2559 0.1772, 2.0394 0.2559 0.9843, 2.0394 -0.2559 0.1772, 2.0394 -0.2559 0.9843, 2.0 -0.2559 0.1772, 2.0 -0.2559 0.9843, 1.9606 -0.2559 0.1772, 1.9606 -0.2559 0.9843, 1.8863 -0.3451 0.1772, 1.8863 -0.3451 0.0, 1.9163 -0.3091 0.9843, 1.1137 -0.3451 0.1772, 1.1137 -0.3451 0.0, 1.0394 -0.2559 0.9843, 1.0394 -0.2559 0.1772, 1.0837 -0.3091 0.9843, 3.2362 0.4921 0.0, 3.1115 0.3425 0.0, 3.1115 0.3425 0.1772, 3.0394 0.2559 0.1772, 3.0394 0.2559 0.9843, 3.2362 0.4921 0.9843, 2.9606 0.2559 0.1772, 2.9606 0.2559 0.9843, 3.0 0.2559 0.1772, 3.0 0.2559 0.9843, 2.8885 0.3425 0.0, 2.7638 0.4921 0.0, 2.8885 0.3425 0.1772, 2.7638 0.4921 0.9843, 2.1137 -0.3451 0.1772, 2.1137 -0.3451 0.0, 2.2362 -0.4921 0.0, 2.0837 -0.3091 0.9843, 2.2362 -0.4921 0.9843, 2.2362 0.4921 0.0, 2.1115 0.3425 0.0, 2.1115 0.3425 0.1772, 2.2362 0.4921 0.9843, 2.7638 -0.4921 0.9843, 2.7638 -0.4921 0.0, 2.8863 -0.3451 0.1772, 2.8863 -0.3451 0.0, 2.9163 -0.3091 0.9843, 1.374 0.3425 0.0, 1.626 0.3425 0.0, 3.374 0.3425 0.0, 3.626 0.3425 0.0, 2.374 -0.3451 0.0, 2.626 -0.3451 0.0, 2.626 -0.3451 0.0
            ]
        }
        coordIndex [
            0,1,2,-1,3,4,5,-1,5,4,6,-1,5,6,7,-1,7,6,8,-1,7,8,9,-1,10,11,8,-1,8,11,12,-1,8,12,13,-1,13,14,8,-1,8,14,15,-1,8,15,9,-1,16,17,18,-1,18,17,19,-1,20,21,22,-1,23,24,22,-1,22,24,25,-1,22,25,20,-1,26,27,28,-1,29,30,31,-1,31,30,26,-1,31,26,32,-1,32,26,28,-1,30,29,33,-1,33,29,34,-1,33,34,35,-1,35,34,36,-1,37,38,39,-1,39,38,40,-1,37,39,41,-1,41,39,42,-1,41,42,43,-1,44,45,46,-1,46,45,47,-1,46,47,48,-1,48,47,49,-1,50,51,52,-1,52,51,53,-1,52,53,54,-1,54,53,55,-1,54,55,56,-1,56,55,57,-1,56,57,58,-1,58,57,59,-1,60,61,62,-1,62,61,63,-1,62,63,64,-1,64,63,65,-1,19,17,66,-1,66,17,67,-1,19,66,68,-1,68,66,64,-1,68,64,65,-1,69,70,16,-1,71,72,73,-1,73,72,69,-1,73,69,18,-1,18,69,16,-1,74,75,76,-1,77,78,76,-1,76,78,79,-1,76,79,74,-1,80,81,82,-1,82,81,83,-1,82,83,77,-1,77,83,78,-1,84,85,86,-1,86,85,87,-1,86,87,80,-1,80,87,81,-1,88,89,90,-1,61,60,91,-1,91,60,88,-1,91,88,92,-1,92,88,90,-1,93,94,95,-1,58,59,95,-1,95,59,96,-1,95,96,93,-1,97,98,99,-1,99,98,100,-1,97,99,101,-1,101,99,35,-1,101,35,36,-1,22,21,102,-1,22,102,52,-1,52,102,103,-1,52,103,50,-1,76,75,104,-1,76,104,46,-1,46,104,105,-1,46,105,44,-1,94,84,95,-1,95,84,86,-1,40,27,39,-1,39,27,26,-1,69,66,70,-1,70,66,67,-1,106,89,88,-1,106,88,107,-1,107,88,99,-1,107,99,100,-1,
        ]
    }
}
Shape{
    appearance Appearance {
        material  Material 	{
            diffuseColor 0.7529411764705882 0.7529411764705882 0.7529411764705882
            specularColor 0.3764705882352941 0.3764705882352941 0.3764705882352941
            ambientIntensity 0.2
            transparency 0
            shininess 0.5
        }
    }
    geometry IndexedFaceSet {
        ccw TRUE
        solid FALSE
        coord DEF co Coordinate {
            point [
                1.374 -0.0079 -0.252, 1.626 -0.0079 -0.252, 1.626 -0.0531 -0.243, 1.374 -0.0531 -0.243, 1.626 -0.0914 -0.2174, 1.374 -0.0914 -0.2174, 1.626 -0.117 -0.1791, 1.374 -0.117 -0.1791, 1.626 -0.126 -0.1339, 1.374 -0.126 -0.1339, 1.374 0.8661 -0.252, 1.626 0.8661 -0.252, 1.374 0.9449 -0.1732, 1.626 0.9449 -0.1732, 1.374 0.9449 -0.0787, 1.626 0.9449 -0.0787, 1.374 0.8661 0.0, 1.626 0.8661 0.0, 1.626 0.4921 0.0, 1.626 -0.0614 0.1772, 1.626 -0.126 0.1772, 1.626 0.3425 0.0, 1.626 0.126 0.0, 1.626 0.126 0.1772, 1.374 0.126 0.1772, 1.374 0.126 0.0, 1.374 -0.0614 0.1772, 1.374 -0.126 0.1772, 1.374 0.4921 0.0, 1.374 0.3425 0.0, 1.374 0.126 3.2677, 1.626 0.126 3.2677, 1.374 0.126 0.9843, 1.626 0.126 0.9843, 1.626 -0.126 3.2677, 1.374 -0.126 3.2677, 1.626 -0.126 0.9843, 1.374 -0.126 0.9843, 1.374 -0.0472 3.3465, 1.626 -0.0472 3.3465, 1.374 0.0472 3.3465, 1.626 0.0472 3.3465, 3.374 -0.0079 -0.252, 3.626 -0.0079 -0.252, 3.626 -0.0531 -0.243, 3.374 -0.0531 -0.243, 3.626 -0.0914 -0.2174, 3.374 -0.0914 -0.2174, 3.626 -0.117 -0.1791, 3.374 -0.117 -0.1791, 3.626 -0.126 -0.1339, 3.374 -0.126 -0.1339, 3.374 0.8661 -0.252, 3.626 0.8661 -0.252, 3.374 0.9449 -0.1732, 3.626 0.9449 -0.1732, 3.374 0.9449 -0.0787, 3.626 0.9449 -0.0787, 3.374 0.8661 0.0, 3.626 0.8661 0.0, 3.626 0.4921 0.0, 3.626 -0.0614 0.1772, 3.626 -0.126 0.1772, 3.626 0.3425 0.0, 3.626 0.126 0.0, 3.626 0.126 0.1772, 3.374 0.126 0.1772, 3.374 0.126 0.0, 3.374 -0.0614 0.1772, 3.374 -0.126 0.1772, 3.374 0.4921 0.0, 3.374 0.3425 0.0, 3.374 0.126 3.2677, 3.626 0.126 3.2677, 3.374 0.126 0.9843, 3.626 0.126 0.9843, 3.626 -0.126 3.2677, 3.374 -0.126 3.2677, 3.626 -0.126 0.9843, 3.374 -0.126 0.9843, 3.374 -0.0472 3.3465, 3.626 -0.0472 3.3465, 3.374 0.0472 3.3465, 3.626 0.0472 3.3465, 2.626 0.0079 -0.252, 2.374 0.0079 -0.252, 2.374 0.0531 -0.243, 2.626 0.0531 -0.243, 2.374 0.0914 -0.2174, 2.626 0.0914 -0.2174, 2.374 0.117 -0.1791, 2.626 0.117 -0.1791, 2.374 0.126 -0.1339, 2.626 0.126 -0.1339, 2.626 -0.8661 -0.252, 2.374 -0.8661 -0.252, 2.626 -0.9449 -0.1732, 2.374 -0.9449 -0.1732, 2.626 -0.9449 -0.0787, 2.374 -0.9449 -0.0787, 2.626 -0.8661 -0.0, 2.374 -0.8661 -0.0, 2.374 -0.126 0.1772, 2.374 -0.0614 0.1772, 2.374 -0.126 -0.0, 2.374 0.126 0.1772, 2.374 -0.4921 0.0, 2.374 -0.3451 0.0, 2.626 -0.0614 0.1772, 2.626 -0.126 0.1772, 2.626 -0.126 -0.0, 2.626 -0.3451 0.0, 2.626 0.126 0.1772, 2.626 -0.4921 0.0, 2.374 0.126 3.2677, 2.626 0.126 3.2677, 2.374 0.126 0.9843, 2.626 0.126 0.9843, 2.626 0.0472 3.3465, 2.374 0.0472 3.3465, 2.626 -0.0472 3.3465, 2.374 -0.0472 3.3465, 2.626 -0.126 3.2677, 2.374 -0.126 3.2677, 2.626 -0.126 0.9843, 2.374 -0.126 0.9843, 2.374 -0.126 0.9843
            ]
        }
        coordIndex [
            0,1,2,-1,0,2,3,-1,3,2,4,-1,3,4,5,-1,5,4,6,-1,5,6,7,-1,7,6,8,-1,7,8,9,-1,0,10,1,-1,1,10,11,-1,10,12,11,-1,11,12,13,-1,12,14,13,-1,13,14,15,-1,14,16,15,-1,15,16,17,-1,15,17,13,-1,13,17,18,-1,13,18,11,-1,6,4,8,-1,8,4,19,-1,8,19,20,-1,11,18,1,-1,1,18,21,-1,1,21,2,-1,2,21,22,-1,2,22,4,-1,4,22,23,-1,4,23,19,-1,24,25,26,-1,26,25,5,-1,5,7,26,-1,26,7,9,-1,26,9,27,-1,28,16,14,-1,14,12,28,-1,28,12,10,-1,28,10,29,-1,29,10,0,-1,29,0,25,-1,25,0,3,-1,25,3,5,-1,29,25,21,-1,21,25,22,-1,18,17,28,-1,28,17,16,-1,27,9,20,-1,20,9,8,-1,23,22,24,-1,24,22,25,-1,30,31,32,-1,32,31,33,-1,34,35,36,-1,36,35,37,-1,38,35,39,-1,39,35,34,-1,40,38,41,-1,41,38,39,-1,30,40,31,-1,31,40,41,-1,38,40,35,-1,35,40,30,-1,35,30,37,-1,37,30,32,-1,36,33,34,-1,34,33,31,-1,34,31,39,-1,39,31,41,-1,42,43,44,-1,42,44,45,-1,45,44,46,-1,45,46,47,-1,47,46,48,-1,47,48,49,-1,49,48,50,-1,49,50,51,-1,42,52,43,-1,43,52,53,-1,52,54,53,-1,53,54,55,-1,54,56,55,-1,55,56,57,-1,56,58,57,-1,57,58,59,-1,57,59,55,-1,55,59,60,-1,55,60,53,-1,48,46,50,-1,50,46,61,-1,50,61,62,-1,53,60,43,-1,43,60,63,-1,43,63,44,-1,44,63,64,-1,44,64,46,-1,46,64,65,-1,46,65,61,-1,66,67,68,-1,68,67,47,-1,47,49,68,-1,68,49,51,-1,68,51,69,-1,70,58,56,-1,56,54,70,-1,70,54,52,-1,70,52,71,-1,71,52,42,-1,71,42,67,-1,67,42,45,-1,67,45,47,-1,71,67,63,-1,63,67,64,-1,60,59,70,-1,70,59,58,-1,69,51,62,-1,62,51,50,-1,65,64,66,-1,66,64,67,-1,72,73,74,-1,74,73,75,-1,76,77,78,-1,78,77,79,-1,80,77,81,-1,81,77,76,-1,82,80,83,-1,83,80,81,-1,72,82,73,-1,73,82,83,-1,80,82,77,-1,77,82,72,-1,77,72,79,-1,79,72,74,-1,83,81,73,-1,73,81,76,-1,73,76,75,-1,75,76,78,-1,84,85,86,-1,84,86,87,-1,87,86,88,-1,87,88,89,-1,89,88,90,-1,89,90,91,-1,91,90,92,-1,91,92,93,-1,84,94,85,-1,85,94,95,-1,94,96,95,-1,95,96,97,-1,96,98,97,-1,97,98,99,-1,98,100,99,-1,99,100,101,-1,95,97,99,-1,102,103,104,-1,104,103,105,-1,104,105,92,-1,99,101,95,-1,95,101,106,-1,95,106,85,-1,85,106,107,-1,85,107,86,-1,86,107,104,-1,86,104,88,-1,88,104,92,-1,88,92,90,-1,108,109,110,-1,94,84,111,-1,112,108,93,-1,93,108,110,-1,93,110,91,-1,91,110,89,-1,111,84,110,-1,110,84,87,-1,110,87,89,-1,98,96,100,-1,100,96,94,-1,100,94,113,-1,113,94,111,-1,111,110,107,-1,107,110,104,-1,106,101,113,-1,113,101,100,-1,102,104,109,-1,109,104,110,-1,112,93,105,-1,105,93,92,-1,114,115,116,-1,116,115,117,-1,118,115,119,-1,119,115,114,-1,120,118,121,-1,121,118,119,-1,122,120,123,-1,123,120,121,-1,122,123,124,-1,124,123,125,-1,118,120,115,-1,115,120,122,-1,115,122,117,-1,117,122,124,-1,121,119,123,-1,123,119,114,-1,123,114,125,-1,125,114,116,-1,
        ]
    }
}
Shape{
    appearance Appearance {
        material  Material 	{
            diffuseColor 0.14901960784313725 0.14901960784313725 0.14901960784313725
            specularColor 0.07450980392156863 0.07450980392156863 0.07450980392156863
            ambientIntensity 0.2
            transparency 0
            shininess 0.5
        }
    }
    geometry IndexedFaceSet {
        ccw TRUE
        solid FALSE
        coord DEF co Coordinate {
            point [
                4.0 0.2559 0.1772, 4.0 0.2559 0.9843, 4.0 -0.0614 0.1772, 4.0 -0.2559 0.9843, 4.0 -0.2559 0.1772, 4.0 -0.2559 0.1772
            ]
        }
        coordIndex [
            0,1,2,-1,2,1,3,-1,2,3,4,-1,
        ]
    }
}