#VRML V2.0 utf8
# 3D model generated by easyeda2kicad.py (https://github.com/uPesy/easyeda2kicad.py)

Shape{
    appearance Appearance {
        material  Material 	{
            diffuseColor 0.8 0.8 0.8
            specularColor 1.0 1.0 1.0
            ambientIntensity 0.2
            transparency 0
            shininess 0.5
        }
    }
    geometry IndexedFaceSet {
        ccw TRUE
        solid FALSE
        coord DEF co Coordinate {
            point [
                -1.8819 0.685 -2.9528, -2.1181 0.685 -2.9528, -1.8819 1.2008 -2.9528, -2.1181 1.2008 -2.9528, -2.1151 1.2271 -2.9528, -2.1064 1.252 -2.9528, -1.8849 1.2271 -2.9528, -1.8936 1.252 -2.9528, -2.0923 1.2744 -2.9528, -2.0736 1.2931 -2.9528, -2.0512 1.3072 -2.9528, -2.0263 1.3159 -2.9528, -2.0 1.3189 -2.9528, -1.9737 1.3159 -2.9528, -1.9488 1.3072 -2.9528, -1.9264 1.2931 -2.9528, -1.9077 1.2744 -2.9528, -2.1181 0.685 -2.8543, -1.8819 0.685 -2.8543, -2.1181 1.2008 -2.8543, -1.8819 1.2008 -2.8543, -1.8849 1.2271 -2.8543, -1.8936 1.252 -2.8543, -2.1151 1.2271 -2.8543, -2.1064 1.252 -2.8543, -1.9077 1.2744 -2.8543, -1.9264 1.2931 -2.8543, -1.9488 1.3072 -2.8543, -1.9737 1.3159 -2.8543, -2.0 1.3189 -2.8543, -2.0263 1.3159 -2.8543, -2.0512 1.3072 -2.8543, -2.0736 1.2931 -2.8543, -2.0923 1.2744 -2.8543, -1.8819 0.6672 -2.852, -2.1181 0.6672 -2.852, -1.8819 0.6506 -2.8451, -2.1181 0.6506 -2.8451, -1.8819 0.6363 -2.8342, -2.1181 0.6363 -2.8342, -1.8819 0.6254 -2.8199, -2.1181 0.6254 -2.8199, -1.8819 0.6185 -2.8033, -2.1181 0.6185 -2.8033, -1.8819 0.6161 -2.7854, -2.1181 0.6161 -2.7854, -1.8819 0.6161 -1.5748, -2.1181 0.6161 -1.5748, -1.8819 0.5177 -1.5748, -2.1181 0.5177 -1.5748, -1.8819 0.5177 -2.7854, -2.1181 0.5177 -2.7854, -2.1181 0.5209 -2.8181, -1.8819 0.5209 -2.8181, -2.1181 0.5305 -2.8495, -1.8819 0.5305 -2.8495, -2.1181 0.5459 -2.8784, -1.8819 0.5459 -2.8784, -2.1181 0.5667 -2.9037, -1.8819 0.5667 -2.9037, -2.1181 0.5921 -2.9246, -1.8819 0.5921 -2.9246, -2.1181 0.621 -2.94, -1.8819 0.621 -2.94, -2.1181 0.6524 -2.9495, -1.8819 0.6524 -2.9495, -1.8819 -0.685 -2.8543, -2.1181 -0.685 -2.8543, -1.8819 -1.2008 -2.8543, -2.1181 -1.2008 -2.8543, -2.1151 -1.2271 -2.8543, -2.1064 -1.252 -2.8543, -1.8849 -1.2271 -2.8543, -1.8936 -1.252 -2.8543, -2.0923 -1.2744 -2.8543, -2.0736 -1.2931 -2.8543, -2.0512 -1.3072 -2.8543, -2.0263 -1.3159 -2.8543, -2.0 -1.3189 -2.8543, -1.9737 -1.3159 -2.8543, -1.9488 -1.3072 -2.8543, -1.9264 -1.2931 -2.8543, -1.9077 -1.2744 -2.8543, -2.1181 -0.685 -2.9528, -1.8819 -0.685 -2.9528, -2.1181 -1.2008 -2.9528, -1.8819 -1.2008 -2.9528, -1.8849 -1.2271 -2.9528, -1.8936 -1.252 -2.9528, -2.1151 -1.2271 -2.9528, -2.1064 -1.252 -2.9528, -1.9077 -1.2744 -2.9528, -1.9264 -1.2931 -2.9528, -1.9488 -1.3072 -2.9528, -1.9737 -1.3159 -2.9528, -2.0 -1.3189 -2.9528, -2.0263 -1.3159 -2.9528, -2.0512 -1.3072 -2.9528, -2.0736 -1.2931 -2.9528, -2.0923 -1.2744 -2.9528, -2.1181 -0.6524 -2.9495, -1.8819 -0.6524 -2.9495, -2.1181 -0.621 -2.94, -1.8819 -0.621 -2.94, -2.1181 -0.5921 -2.9246, -1.8819 -0.5921 -2.9246, -2.1181 -0.5667 -2.9037, -1.8819 -0.5667 -2.9037, -2.1181 -0.5459 -2.8784, -1.8819 -0.5459 -2.8784, -2.1181 -0.5305 -2.8495, -1.8819 -0.5305 -2.8495, -2.1181 -0.5209 -2.8181, -1.8819 -0.5209 -2.8181, -2.1181 -0.5177 -2.7854, -1.8819 -0.5177 -2.7854, -1.8819 -0.5177 -1.5748, -2.1181 -0.5177 -1.5748, -1.8819 -0.6161 -1.5748, -2.1181 -0.6161 -1.5748, -1.8819 -0.6161 -2.7854, -2.1181 -0.6161 -2.7854, -1.8819 -0.6185 -2.8033, -2.1181 -0.6185 -2.8033, -1.8819 -0.6254 -2.8199, -2.1181 -0.6254 -2.8199, -1.8819 -0.6363 -2.8342, -2.1181 -0.6363 -2.8342, -1.8819 -0.6506 -2.8451, -2.1181 -0.6506 -2.8451, -1.8819 -0.6672 -2.852, -2.1181 -0.6672 -2.852, -2.1181 -0.6672 -2.852
            ]
        }
        coordIndex [
            0,1,2,-1,2,1,3,-1,3,4,2,-1,2,4,5,-1,2,5,6,-1,6,5,7,-1,5,8,7,-1,7,8,9,-1,7,9,10,-1,10,11,7,-1,7,11,12,-1,7,12,13,-1,13,14,7,-1,7,14,15,-1,7,15,16,-1,17,18,19,-1,19,18,20,-1,20,21,19,-1,19,21,22,-1,19,22,23,-1,23,22,24,-1,22,25,24,-1,24,25,26,-1,24,26,27,-1,27,28,24,-1,24,28,29,-1,24,29,30,-1,30,31,24,-1,24,31,32,-1,24,32,33,-1,18,17,34,-1,34,17,35,-1,34,35,36,-1,36,35,37,-1,36,37,38,-1,38,37,39,-1,38,39,40,-1,40,39,41,-1,40,41,42,-1,42,41,43,-1,42,43,44,-1,44,43,45,-1,46,44,47,-1,47,44,45,-1,48,46,49,-1,49,46,47,-1,50,48,51,-1,51,48,49,-1,50,51,52,-1,50,52,53,-1,53,52,54,-1,53,54,55,-1,55,54,56,-1,55,56,57,-1,57,56,58,-1,57,58,59,-1,59,58,60,-1,59,60,61,-1,61,60,62,-1,61,62,63,-1,63,62,64,-1,63,64,65,-1,65,64,1,-1,65,1,0,-1,2,20,0,-1,0,20,18,-1,0,18,65,-1,65,18,34,-1,65,34,63,-1,63,34,36,-1,42,55,40,-1,40,55,57,-1,40,57,38,-1,38,57,59,-1,38,59,36,-1,36,59,61,-1,36,61,63,-1,46,48,44,-1,44,48,50,-1,44,50,42,-1,42,50,53,-1,42,53,55,-1,19,3,17,-1,17,3,1,-1,17,1,35,-1,49,47,51,-1,51,47,45,-1,51,45,52,-1,52,45,43,-1,52,43,54,-1,54,43,41,-1,1,64,35,-1,35,64,62,-1,35,62,37,-1,37,62,60,-1,37,60,39,-1,39,60,58,-1,39,58,41,-1,41,58,56,-1,41,56,54,-1,3,19,23,-1,3,23,4,-1,4,23,24,-1,4,24,5,-1,5,24,33,-1,5,33,8,-1,8,33,32,-1,8,32,9,-1,9,32,31,-1,9,31,10,-1,10,31,30,-1,10,30,11,-1,11,30,29,-1,11,29,12,-1,20,2,6,-1,20,6,21,-1,21,6,7,-1,21,7,22,-1,22,7,16,-1,22,16,25,-1,25,16,15,-1,25,15,26,-1,26,15,14,-1,26,14,27,-1,27,14,13,-1,27,13,28,-1,28,13,12,-1,28,12,29,-1,66,67,68,-1,68,67,69,-1,69,70,68,-1,68,70,71,-1,68,71,72,-1,72,71,73,-1,71,74,73,-1,73,74,75,-1,73,75,76,-1,76,77,73,-1,73,77,78,-1,73,78,79,-1,79,80,73,-1,73,80,81,-1,73,81,82,-1,83,84,85,-1,85,84,86,-1,86,87,85,-1,85,87,88,-1,85,88,89,-1,89,88,90,-1,88,91,90,-1,90,91,92,-1,90,92,93,-1,93,94,90,-1,90,94,95,-1,90,95,96,-1,96,97,90,-1,90,97,98,-1,90,98,99,-1,84,83,100,-1,84,100,101,-1,101,100,102,-1,101,102,103,-1,103,102,104,-1,103,104,105,-1,105,104,106,-1,105,106,107,-1,107,106,108,-1,107,108,109,-1,109,108,110,-1,109,110,111,-1,111,110,112,-1,111,112,113,-1,113,112,114,-1,113,114,115,-1,116,115,117,-1,117,115,114,-1,118,116,119,-1,119,116,117,-1,120,118,121,-1,121,118,119,-1,120,121,122,-1,122,121,123,-1,122,123,124,-1,124,123,125,-1,124,125,126,-1,126,125,127,-1,126,127,128,-1,128,127,129,-1,128,129,130,-1,130,129,131,-1,130,131,66,-1,66,131,67,-1,68,86,66,-1,66,86,84,-1,66,84,130,-1,84,101,130,-1,130,101,103,-1,130,103,128,-1,128,103,105,-1,128,105,126,-1,126,105,107,-1,126,107,124,-1,107,109,124,-1,124,109,111,-1,124,111,122,-1,122,111,113,-1,122,113,120,-1,120,113,115,-1,120,115,118,-1,118,115,116,-1,85,69,83,-1,83,69,67,-1,83,67,100,-1,100,67,131,-1,100,131,102,-1,102,131,129,-1,123,110,125,-1,125,110,108,-1,125,108,127,-1,127,108,106,-1,127,106,129,-1,129,106,104,-1,129,104,102,-1,119,117,121,-1,121,117,114,-1,121,114,123,-1,123,114,112,-1,123,112,110,-1,69,85,89,-1,69,89,70,-1,70,89,90,-1,70,90,71,-1,71,90,99,-1,71,99,74,-1,74,99,98,-1,74,98,75,-1,75,98,97,-1,75,97,76,-1,76,97,96,-1,76,96,77,-1,77,96,95,-1,77,95,78,-1,86,68,72,-1,86,72,87,-1,87,72,73,-1,87,73,88,-1,88,73,82,-1,88,82,91,-1,91,82,81,-1,91,81,92,-1,92,81,80,-1,92,80,93,-1,93,80,79,-1,93,79,94,-1,94,79,78,-1,94,78,95,-1,
        ]
    }
}
Shape{
    appearance Appearance {
        material  Material 	{
            diffuseColor 0.2 0.2 0.2
            specularColor 0.25098039215686274 0.25098039215686274 0.25098039215686274
            ambientIntensity 0.2
            transparency 0
            shininess 0.5
        }
    }
    geometry IndexedFaceSet {
        ccw TRUE
        solid FALSE
        coord DEF co Coordinate {
            point [
                -2.3287 -0.7874 -2.5984, -2.5394 -0.7874 -2.5984, -2.5394 -0.7028 -2.5984, -0.0596 -0.0566 -2.5984, -0.0423 -0.0566 -2.5984, -0.038 -0.0573 -2.5984, -0.1335 -0.0573 -2.5984, -0.1335 -0.0566 -2.5984, -0.1316 -0.0566 -2.5984, -0.038 0.2224 -2.5984, -0.087 0.0615 -2.5984, -0.1335 0.2224 -2.5984, -0.1028 0.0615 -2.5984, -0.1335 -0.0171 -2.5984, 0.0873 0.0615 -2.5984, 0.0873 0.0485 -2.5984, 0.1319 0.0485 -2.5984, 0.1319 0.0096 -2.5984, 0.1319 -0.0033 -2.5984, 0.1319 -0.0437 -2.5984, 0.0902 -0.0033 -2.5984, 0.0844 -0.0437 -2.5984, -0.0278 -0.0242 -2.5984, -0.021 -0.0348 -2.5984, -0.0113 -0.0441 -2.5984, 0.001 -0.0513 -2.5984, 0.0902 0.0096 -2.5984, 0.0614 0.0615 -2.5984, 0.028 0.0615 -2.5984, 0.011 0.0597 -2.5984, -0.0029 0.0548 -2.5984, -0.0157 0.0462 -2.5984, -0.0158 0.0461 -2.5984, -0.0242 0.0368 -2.5984, -0.0297 0.0267 -2.5984, 0.0146 -0.0553 -2.5984, 0.0292 -0.0566 -2.5984, 0.0614 -0.0566 -2.5984, -0.0328 0.015 -2.5984, -0.0337 0.0039 -2.5984, -0.032 -0.0119 -2.5984, 0.0844 -0.0566 -2.5984, 0.1329 -0.0566 -2.5984, 0.1329 -0.0573 -2.5984, 0.1478 -0.0566 -2.5984, 0.1593 -0.0573 -2.5984, 0.1478 0.0615 -2.5984, 0.1329 0.0615 -2.5984, 0.1329 0.2224 -2.5984, 0.1593 0.2224 -2.5984, 0.1181 -0.3819 -2.5984, -0.038 -0.3819 -2.5984, -0.0709 -0.0235 -2.5984, -0.1197 -0.0235 -2.5984, 0.1181 -0.6181 -2.5984, 0.1329 -0.7028 -2.5984, -0.038 -0.6181 -2.5984, -0.038 -0.7028 -2.5984, -0.1181 -0.6181 -2.5984, -0.1335 -0.7028 -2.5984, -0.1181 -0.3819 -2.5984, 0.1181 0.3819 -2.5984, -0.038 0.3819 -2.5984, -0.1181 0.3819 -2.5984, -0.1181 0.6181 -2.5984, -0.1335 0.7874 -2.5984, -0.038 0.6181 -2.5984, -0.038 0.7874 -2.5984, 0.1181 0.6181 -2.5984, 0.1329 0.7874 -2.5984, 0.1708 -0.0375 -2.5984, 0.1708 -0.0505 -2.5984, 0.1834 -0.0557 -2.5984, 0.2388 -0.0465 -2.5984, 0.2477 -0.0372 -2.5984, 0.2637 -0.0573 -2.5984, 0.2293 -0.0526 -2.5984, 0.1845 0.062 -2.5984, 0.1708 0.0582 -2.5984, 0.1708 0.0424 -2.5984, 0.1841 0.0481 -2.5984, 0.1729 -0.0387 -2.5984, 0.1985 0.05 -2.5984, 0.2101 0.0487 -2.5984, 0.2637 0.2224 -2.5984, 0.2455 0.0414 -2.5984, 0.2349 0.0517 -2.5984, 0.2587 0.0002 -2.5984, 0.257 0.017 -2.5984, 0.2525 0.0304 -2.5984, 0.219 0.0455 -2.5984, 0.2271 0.04 -2.5984, 0.2343 0.0321 -2.5984, 0.2428 0.0012 -2.5984, 0.2417 -0.0116 -2.5984, 0.2384 -0.0218 -2.5984, 0.2122 -0.0439 -2.5984, 0.2011 -0.0451 -2.5984, 0.2208 -0.0407 -2.5984, 0.228 -0.0358 -2.5984, 0.2336 -0.03 -2.5984, 0.1855 -0.0434 -2.5984, 0.2391 0.023 -2.5984, 0.2423 0.0104 -2.5984, 0.254 -0.026 -2.5984, 0.2575 -0.0135 -2.5984, 0.2237 0.0581 -2.5984, 0.2105 0.062 -2.5984, 0.1986 0.0629 -2.5984, 0.1954 -0.0573 -2.5984, 0.2001 -0.058 -2.5984, 0.1593 -0.7028 -2.5984, 0.2637 -0.7028 -2.5984, 0.2033 -0.0581 -2.5984, 0.2103 -0.0573 -2.5984, 0.2179 -0.0566 -2.5984, -1.5 -0.7874 -2.5984, -1.5 -0.7028 -2.5984, -0.5154 -0.7874 -2.5984, -0.5154 -0.7028 -2.5984, -0.1335 -0.7874 -2.5984, -0.038 -0.7874 -2.5984, 0.1329 -0.7874 -2.5984, 0.1593 -0.7874 -2.5984, 0.2637 -0.7874 -2.5984, 1.5 -0.7028 -2.5984, 1.8819 -0.6181 -2.5984, 2.1181 -0.6181 -2.5984, 1.8819 -0.3819 -2.5984, 1.5 -0.0573 -2.5984, 2.1181 -0.3819 -2.5984, 2.5394 -0.0573 -2.5984, 2.5394 -0.7028 -2.5984, 2.5394 -0.7874 -2.5984, 1.5 -0.7874 -2.5984, 0.6056 -0.7028 -2.5984, 0.8819 -0.6181 -2.5984, 1.1181 -0.6181 -2.5984, 0.8819 -0.3819 -2.5984, 0.6056 -0.0573 -2.5984, 1.1181 -0.3819 -2.5984, 0.6056 -0.7874 -2.5984, -0.5154 -0.0573 -2.5984, -0.8819 -0.3819 -2.5984, -0.8819 -0.6181 -2.5984, -1.1181 -0.6181 -2.5984, -1.1181 -0.3819 -2.5984, -1.5 -0.0573 -2.5984, -2.3287 -0.7028 -2.5984, -2.1181 -0.6181 -2.5984, -1.8819 -0.6181 -2.5984, -2.1181 -0.3819 -2.5984, -2.3287 -0.0573 -2.5984, -1.8819 -0.3819 -2.5984, 0.6056 0.2224 -2.5984, 1.5 0.2224 -2.5984, 2.5394 0.2224 -2.5984, 0.2688 -0.0566 -2.5984, 0.3293 -0.0566 -2.5984, 0.2688 -0.0437 -2.5984, 0.3134 -0.0437 -2.5984, 0.3134 0.0615 -2.5984, 0.3293 0.0615 -2.5984, -2.3287 0.2224 -2.5984, -1.5 0.2224 -2.5984, -0.5154 0.2224 -2.5984, 2.1181 0.6181 -2.5984, 2.5394 0.7874 -2.5984, 2.1181 0.3819 -2.5984, 1.8819 0.3819 -2.5984, 1.8819 0.6181 -2.5984, 1.5 0.7874 -2.5984, 0.8819 0.6181 -2.5984, 0.8819 0.3819 -2.5984, 1.1181 0.3819 -2.5984, 1.1181 0.6181 -2.5984, 0.6056 0.7874 -2.5984, 0.1593 0.7874 -2.5984, 0.2637 0.7874 -2.5984, -0.1489 -0.0566 -2.5984, -0.5154 0.7874 -2.5984, -0.8819 0.3819 -2.5984, -1.1181 0.3819 -2.5984, -1.1181 0.6181 -2.5984, -1.5 0.7874 -2.5984, -0.8819 0.6181 -2.5984, -1.8819 0.3819 -2.5984, -2.1181 0.3819 -2.5984, -2.1181 0.6181 -2.5984, -2.3287 0.7874 -2.5984, -1.8819 0.6181 -2.5984, -2.5394 -0.0573 -2.5984, -2.5394 0.2224 -2.5984, -2.5394 0.7874 -2.5984, -2.5 0.9843 -2.7953, -2.5394 0.7874 -2.7953, -2.5394 0.9449 -2.7953, 2.5171 0.9804 -2.7953, 2.5245 0.9757 -2.7953, 2.5394 0.9449 -2.7953, -2.5245 0.9757 -2.7953, -2.5171 0.9804 -2.7953, -2.5088 0.9833 -2.7953, 2.5394 0.7874 -2.7953, 2.5 0.9843 -2.7953, 2.5088 0.9833 -2.7953, 2.5308 0.9694 -2.7953, 2.5355 0.962 -2.7953, 2.5384 0.9536 -2.7953, -2.5384 0.9536 -2.7953, -2.5355 0.962 -2.7953, -2.5308 0.9694 -2.7953, 2.5394 -0.9449 -0.0787, 2.5394 -0.9449 -2.7953, 2.5394 -0.7874 -2.7953, 2.5394 0.9449 -0.0787, 2.5 -0.9843 -0.0787, -2.5 -0.9843 -0.0787, 2.5 -0.9843 -2.7953, -2.5 -0.9843 -2.7953, -2.5394 -0.7874 -2.7953, -2.5394 -0.9449 -2.7953, -2.5394 -0.9449 -0.0787, -2.5394 0.9449 -0.0787, 2.5 0.9843 -0.0787, -2.5 0.9843 -0.0787, -2.5355 -0.962 -2.7953, -2.5384 -0.9536 -2.7953, 2.5384 -0.9536 -2.7953, 2.5355 -0.962 -2.7953, 2.5308 -0.9694 -2.7953, 2.5245 -0.9757 -2.7953, 2.5171 -0.9804 -2.7953, 2.5088 -0.9833 -2.7953, -2.5088 -0.9833 -2.7953, -2.5171 -0.9804 -2.7953, -2.5245 -0.9757 -2.7953, -2.5308 -0.9694 -2.7953, 2.3287 -0.9055 0.0, 2.4606 -0.9055 0.0, 2.4606 -0.8012 0.0, 2.3287 -0.8012 0.0, 1.5 -0.9055 0.0, 1.5 -0.8012 0.0, 0.5 -0.9055 0.0, 0.5 -0.8012 0.0, -0.5 -0.9055 0.0, -0.5 -0.8012 0.0, -1.5 -0.9055 0.0, -1.5 -0.8012 0.0, -2.4606 -0.9055 0.0, -2.4606 -0.8012 0.0, -2.1969 -0.3031 0.0, -2.4606 0.0 0.0, -2.1969 -0.6969 0.0, -1.8031 -0.6969 0.0, -1.8031 -0.3031 0.0, -1.5 0.0 0.0, -1.1969 -0.3031 0.0, -1.1969 -0.6969 0.0, -0.8031 -0.6969 0.0, -0.8031 -0.3031 0.0, -0.5 0.0 0.0, -0.1969 -0.3031 0.0, -0.1969 -0.6969 0.0, 0.1969 -0.6969 0.0, 0.1969 -0.3031 0.0, 0.5 0.0 0.0, 0.8031 -0.3031 0.0, 0.8031 -0.6969 0.0, 1.1969 -0.6969 0.0, 1.1969 -0.3031 0.0, 1.5 0.0 0.0, 1.8031 -0.3031 0.0, 1.8031 -0.6969 0.0, 2.1969 -0.6969 0.0, 2.1969 -0.3031 0.0, 2.3287 0.0 0.0, -2.1969 0.6969 0.0, -2.4606 0.9055 0.0, -2.1969 0.3031 0.0, -1.8031 0.3031 0.0, -1.8031 0.6969 0.0, -1.5 0.9055 0.0, -1.1969 0.6969 0.0, -1.1969 0.3031 0.0, -0.8031 0.3031 0.0, -0.8031 0.6969 0.0, -0.5 0.9055 0.0, -0.1969 0.6969 0.0, -0.1969 0.3031 0.0, 0.1969 0.3031 0.0, 0.1969 0.6969 0.0, 0.5 0.9055 0.0, 0.8031 0.6969 0.0, 0.8031 0.3031 0.0, 1.1969 0.3031 0.0, 1.1969 0.6969 0.0, 1.5 0.9055 0.0, 1.8031 0.6969 0.0, 1.8031 0.3031 0.0, 2.1969 0.3031 0.0, 2.1969 0.6969 0.0, 2.3287 0.9055 0.0, 2.4606 0.0 0.0, 2.4606 0.9055 0.0, -1.8819 0.3819 -0.0787, -1.8819 0.6181 -0.0787, -2.1181 0.3819 -0.0787, -2.1181 0.6181 -0.0787, -0.8819 0.3819 -0.0787, -0.8819 0.6181 -0.0787, -1.1181 0.3819 -0.0787, -1.1181 0.6181 -0.0787, 0.1181 0.6181 -0.0787, -0.1181 0.6181 -0.0787, -0.1181 0.3819 -0.0787, 0.1181 0.3819 -0.0787, 1.1181 0.6181 -0.0787, 0.8819 0.6181 -0.0787, 0.8819 0.3819 -0.0787, 1.1181 0.3819 -0.0787, 2.1181 0.6181 -0.0787, 1.8819 0.6181 -0.0787, 1.8819 0.3819 -0.0787, 2.1181 0.3819 -0.0787, -1.8819 -0.3819 -0.0787, -2.1181 -0.3819 -0.0787, -2.1181 -0.6181 -0.0787, -1.8819 -0.6181 -0.0787, -0.8819 -0.3819 -0.0787, -1.1181 -0.3819 -0.0787, -1.1181 -0.6181 -0.0787, -0.8819 -0.6181 -0.0787, 0.1181 -0.3819 -0.0787, -0.1181 -0.3819 -0.0787, -0.1181 -0.6181 -0.0787, 0.1181 -0.6181 -0.0787, 1.1181 -0.3819 -0.0787, 0.8819 -0.3819 -0.0787, 0.8819 -0.6181 -0.0787, 1.1181 -0.6181 -0.0787, 2.1181 -0.3819 -0.0787, 1.8819 -0.3819 -0.0787, 1.8819 -0.6181 -0.0787, 2.1181 -0.6181 -0.0787, -2.5088 0.9833 -0.0778, -2.513 0.982 -0.0765, -2.5044 0.984 -0.0785, -2.5171 0.9804 -0.0748, -2.5245 0.9757 -0.0702, -2.5278 0.9727 -0.0672, 2.5278 0.9727 -0.0672, 2.5245 0.9757 -0.0702, 2.5171 0.9804 -0.0748, 2.513 0.982 -0.0765, 2.5044 0.984 -0.0785, 2.5088 0.9833 -0.0778, -2.5372 -0.9579 -0.0765, -2.5355 -0.962 -0.0748, -2.5308 -0.9694 -0.0702, -2.5278 -0.9727 -0.0672, -2.5308 0.9694 -0.0702, -2.5391 -0.9493 -0.0785, -2.5384 -0.9536 -0.0778, -2.5355 0.962 -0.0748, -2.5372 0.9579 -0.0765, -2.5384 0.9536 -0.0778, -2.5391 0.9493 -0.0785, 2.5384 0.9536 -0.0778, 2.5372 0.9579 -0.0765, 2.5355 0.962 -0.0748, 2.5308 0.9694 -0.0702, 2.5278 -0.9727 -0.0672, 2.5308 -0.9694 -0.0702, 2.5355 -0.962 -0.0748, 2.5372 -0.9579 -0.0765, 2.5384 -0.9536 -0.0778, 2.5391 -0.9493 -0.0785, 2.5391 0.9493 -0.0785, 2.5088 -0.9833 -0.0778, 2.513 -0.982 -0.0765, 2.5171 -0.9804 -0.0748, 2.5245 -0.9757 -0.0702, 2.5044 -0.984 -0.0785, -2.5245 -0.9757 -0.0702, -2.5171 -0.9804 -0.0748, -2.513 -0.982 -0.0765, -2.5088 -0.9833 -0.0778, -2.5044 -0.984 -0.0785, -2.5044 -0.984 -0.0785
            ]
        }
        coordIndex [
            0,1,2,-1,3,4,5,-1,6,7,8,-1,5,4,9,-1,9,4,10,-1,9,10,11,-1,11,10,12,-1,11,12,13,-1,9,14,15,-1,15,16,17,-1,18,19,20,-1,20,19,21,-1,22,23,5,-1,5,23,24,-1,5,24,25,-1,17,26,15,-1,15,26,27,-1,15,27,9,-1,9,27,28,-1,28,29,9,-1,9,29,30,-1,9,30,31,-1,31,32,9,-1,9,32,33,-1,9,33,34,-1,25,35,5,-1,5,35,36,-1,5,36,37,-1,34,38,9,-1,9,38,39,-1,9,39,5,-1,5,39,40,-1,5,40,22,-1,41,42,43,-1,43,42,44,-1,43,44,45,-1,45,44,46,-1,14,9,47,-1,47,9,48,-1,47,48,46,-1,46,48,49,-1,46,49,45,-1,50,51,5,-1,5,51,6,-1,5,6,3,-1,3,6,8,-1,3,8,52,-1,52,8,53,-1,54,55,56,-1,56,55,57,-1,56,57,58,-1,58,57,59,-1,58,59,60,-1,26,20,27,-1,27,20,21,-1,27,21,37,-1,37,21,41,-1,37,41,5,-1,5,41,43,-1,5,43,50,-1,61,48,62,-1,62,48,9,-1,62,9,63,-1,63,9,11,-1,63,11,64,-1,64,11,65,-1,64,65,66,-1,66,65,67,-1,66,67,68,-1,68,67,69,-1,49,70,45,-1,45,70,71,-1,45,71,72,-1,73,74,75,-1,73,75,76,-1,77,78,49,-1,49,78,79,-1,49,79,70,-1,70,79,80,-1,70,80,81,-1,81,80,82,-1,81,82,83,-1,84,85,86,-1,87,88,84,-1,84,88,89,-1,84,89,85,-1,83,90,81,-1,81,90,91,-1,81,91,92,-1,93,94,81,-1,81,94,95,-1,96,97,98,-1,98,97,99,-1,95,100,81,-1,81,100,99,-1,81,99,101,-1,101,99,97,-1,92,102,81,-1,81,102,103,-1,81,103,93,-1,74,104,75,-1,75,104,105,-1,75,105,87,-1,86,106,84,-1,84,106,107,-1,84,107,49,-1,49,107,108,-1,49,108,77,-1,109,110,111,-1,111,110,112,-1,110,113,112,-1,112,113,114,-1,112,114,75,-1,75,114,115,-1,75,115,76,-1,116,117,118,-1,118,117,119,-1,118,119,120,-1,120,119,59,-1,120,59,121,-1,121,59,57,-1,121,57,122,-1,122,57,55,-1,122,55,123,-1,123,55,111,-1,123,111,124,-1,124,111,112,-1,125,126,127,-1,126,125,128,-1,128,125,129,-1,128,129,130,-1,130,129,131,-1,130,131,127,-1,127,131,132,-1,127,132,125,-1,125,132,133,-1,125,133,134,-1,135,136,137,-1,136,135,138,-1,138,135,139,-1,138,139,140,-1,140,139,129,-1,140,129,137,-1,137,129,125,-1,137,125,135,-1,135,125,134,-1,135,134,141,-1,54,50,55,-1,55,50,43,-1,55,43,111,-1,111,43,45,-1,111,45,109,-1,109,45,72,-1,119,142,59,-1,59,142,6,-1,59,6,60,-1,60,6,51,-1,143,142,144,-1,144,142,119,-1,144,119,145,-1,145,119,117,-1,145,117,146,-1,146,117,147,-1,146,147,143,-1,143,147,142,-1,148,149,150,-1,149,148,151,-1,151,148,152,-1,151,152,153,-1,153,152,147,-1,153,147,150,-1,150,147,117,-1,150,117,148,-1,148,117,116,-1,148,116,0,-1,139,154,129,-1,129,154,155,-1,129,155,131,-1,131,155,156,-1,157,158,75,-1,87,84,75,-1,75,84,159,-1,75,159,157,-1,160,159,161,-1,161,159,84,-1,161,84,162,-1,162,84,154,-1,162,154,158,-1,158,154,139,-1,158,139,75,-1,75,139,135,-1,75,135,112,-1,112,135,141,-1,112,141,124,-1,152,163,147,-1,147,163,164,-1,147,164,142,-1,142,164,165,-1,166,167,168,-1,168,167,156,-1,168,156,169,-1,169,156,155,-1,169,155,170,-1,170,155,171,-1,170,171,166,-1,166,171,167,-1,172,173,154,-1,154,173,155,-1,155,173,174,-1,155,174,171,-1,171,174,175,-1,171,175,176,-1,61,68,48,-1,48,68,69,-1,48,69,49,-1,49,69,177,-1,49,177,84,-1,84,177,178,-1,84,178,154,-1,154,178,176,-1,154,176,172,-1,172,176,175,-1,7,6,179,-1,179,6,142,-1,179,142,13,-1,13,142,165,-1,13,165,11,-1,11,165,180,-1,11,180,65,-1,181,165,182,-1,182,165,164,-1,182,164,183,-1,183,164,184,-1,183,184,185,-1,185,184,180,-1,185,180,181,-1,181,180,165,-1,186,164,187,-1,187,164,163,-1,187,163,188,-1,188,163,189,-1,188,189,190,-1,190,189,184,-1,190,184,186,-1,186,184,164,-1,0,2,148,-1,148,2,191,-1,148,191,152,-1,152,191,192,-1,152,192,163,-1,163,192,193,-1,163,193,189,-1,194,195,196,-1,197,198,199,-1,200,201,202,-1,195,194,203,-1,203,194,204,-1,203,204,199,-1,199,204,205,-1,199,205,197,-1,206,207,198,-1,198,207,208,-1,198,208,199,-1,196,209,194,-1,194,209,210,-1,194,210,202,-1,202,210,211,-1,202,211,200,-1,132,212,133,-1,133,212,213,-1,133,213,214,-1,203,199,167,-1,167,199,215,-1,167,215,156,-1,156,215,212,-1,156,212,131,-1,131,212,132,-1,216,217,218,-1,218,217,219,-1,196,195,193,-1,220,221,1,-1,1,221,222,-1,1,222,2,-1,196,193,223,-1,223,193,192,-1,223,192,222,-1,222,192,191,-1,222,191,2,-1,204,194,224,-1,224,194,225,-1,219,220,218,-1,218,220,214,-1,218,214,213,-1,226,227,219,-1,219,227,221,-1,219,221,220,-1,213,228,218,-1,218,228,229,-1,218,229,230,-1,230,231,218,-1,218,231,232,-1,218,232,233,-1,219,234,235,-1,235,236,219,-1,219,236,237,-1,219,237,226,-1,238,239,240,-1,238,241,242,-1,242,241,243,-1,242,243,244,-1,244,243,245,-1,244,245,246,-1,246,245,247,-1,246,247,248,-1,248,247,249,-1,248,249,250,-1,250,249,251,-1,252,253,254,-1,254,253,251,-1,254,251,255,-1,255,251,249,-1,255,249,256,-1,256,249,257,-1,256,257,252,-1,252,257,253,-1,258,257,259,-1,259,257,249,-1,259,249,260,-1,260,249,247,-1,260,247,261,-1,261,247,262,-1,261,262,258,-1,258,262,257,-1,263,262,264,-1,264,262,247,-1,264,247,265,-1,265,247,245,-1,265,245,266,-1,266,245,267,-1,266,267,263,-1,263,267,262,-1,268,267,269,-1,269,267,245,-1,269,245,270,-1,270,245,243,-1,270,243,271,-1,271,243,272,-1,271,272,268,-1,268,272,267,-1,273,272,274,-1,274,272,243,-1,274,243,275,-1,275,243,241,-1,275,241,276,-1,276,241,277,-1,276,277,273,-1,273,277,272,-1,278,279,280,-1,280,279,253,-1,280,253,281,-1,281,253,257,-1,281,257,282,-1,282,257,283,-1,282,283,278,-1,278,283,279,-1,284,283,285,-1,285,283,257,-1,285,257,286,-1,286,257,262,-1,286,262,287,-1,287,262,288,-1,287,288,284,-1,284,288,283,-1,289,288,290,-1,290,288,262,-1,290,262,291,-1,291,262,267,-1,291,267,292,-1,292,267,293,-1,292,293,289,-1,289,293,288,-1,294,293,295,-1,295,293,267,-1,295,267,296,-1,296,267,272,-1,296,272,297,-1,297,272,298,-1,297,298,294,-1,294,298,293,-1,299,298,300,-1,300,298,272,-1,300,272,301,-1,301,272,277,-1,301,277,302,-1,302,277,303,-1,302,303,299,-1,299,303,298,-1,238,240,241,-1,241,240,304,-1,241,304,277,-1,277,304,305,-1,277,305,303,-1,186,306,190,-1,190,306,307,-1,308,306,187,-1,187,306,186,-1,188,309,187,-1,187,309,308,-1,190,307,188,-1,188,307,309,-1,181,310,185,-1,185,310,311,-1,312,310,182,-1,182,310,181,-1,183,313,182,-1,182,313,312,-1,185,311,183,-1,183,311,313,-1,68,314,66,-1,66,314,315,-1,66,315,64,-1,64,315,63,-1,63,315,316,-1,63,316,62,-1,62,316,317,-1,62,317,61,-1,61,317,68,-1,68,317,314,-1,175,318,172,-1,172,318,319,-1,172,319,173,-1,173,319,320,-1,320,321,173,-1,173,321,174,-1,174,321,175,-1,175,321,318,-1,166,322,170,-1,170,322,323,-1,170,323,169,-1,169,323,324,-1,324,325,169,-1,169,325,168,-1,168,325,166,-1,166,325,322,-1,326,327,153,-1,153,327,151,-1,151,327,149,-1,149,327,328,-1,149,328,150,-1,150,328,329,-1,150,329,153,-1,153,329,326,-1,330,331,143,-1,143,331,146,-1,146,331,145,-1,145,331,332,-1,145,332,144,-1,144,332,333,-1,144,333,143,-1,143,333,330,-1,50,334,51,-1,51,334,335,-1,51,335,60,-1,60,335,58,-1,58,335,336,-1,58,336,56,-1,56,336,337,-1,56,337,54,-1,54,337,50,-1,50,337,334,-1,338,339,140,-1,140,339,138,-1,138,339,136,-1,136,339,340,-1,136,340,137,-1,137,340,341,-1,137,341,140,-1,140,341,338,-1,342,343,130,-1,130,343,128,-1,128,343,126,-1,126,343,344,-1,126,344,127,-1,127,344,345,-1,127,345,130,-1,130,345,342,-1,275,345,274,-1,274,345,344,-1,276,342,275,-1,275,342,345,-1,343,273,344,-1,344,273,274,-1,273,343,276,-1,276,343,342,-1,270,341,269,-1,269,341,340,-1,271,338,270,-1,270,338,341,-1,339,268,340,-1,340,268,269,-1,268,339,271,-1,271,339,338,-1,265,337,264,-1,264,337,336,-1,266,334,265,-1,265,334,337,-1,335,263,336,-1,336,263,264,-1,263,335,266,-1,266,335,334,-1,260,333,259,-1,259,333,332,-1,261,330,260,-1,260,330,333,-1,331,258,332,-1,332,258,259,-1,258,331,261,-1,261,331,330,-1,255,329,254,-1,254,329,328,-1,256,326,255,-1,255,326,329,-1,327,252,328,-1,328,252,254,-1,252,327,256,-1,256,327,326,-1,301,325,300,-1,300,325,324,-1,302,322,301,-1,301,322,325,-1,323,299,324,-1,324,299,300,-1,299,323,302,-1,302,323,322,-1,296,321,295,-1,295,321,320,-1,297,318,296,-1,296,318,321,-1,319,294,320,-1,320,294,295,-1,294,319,297,-1,297,319,318,-1,291,317,290,-1,290,317,316,-1,292,314,291,-1,291,314,317,-1,315,289,316,-1,316,289,290,-1,289,315,292,-1,292,315,314,-1,346,347,279,-1,346,279,348,-1,347,349,279,-1,279,349,350,-1,279,350,351,-1,293,224,288,-1,288,224,225,-1,348,279,225,-1,225,279,283,-1,225,283,288,-1,352,353,305,-1,305,353,354,-1,305,354,355,-1,293,298,224,-1,224,298,303,-1,224,303,356,-1,356,303,305,-1,356,305,357,-1,357,305,355,-1,358,359,250,-1,250,359,360,-1,250,360,361,-1,279,351,362,-1,222,363,250,-1,250,363,364,-1,250,364,358,-1,362,365,279,-1,279,365,366,-1,279,366,367,-1,367,368,279,-1,279,368,223,-1,279,223,253,-1,253,223,222,-1,253,222,251,-1,251,222,250,-1,369,370,305,-1,370,371,305,-1,305,371,372,-1,305,372,352,-1,373,374,239,-1,239,374,375,-1,239,375,376,-1,376,377,239,-1,239,377,378,-1,239,378,240,-1,240,378,212,-1,240,212,304,-1,304,212,215,-1,304,215,305,-1,305,215,379,-1,305,379,369,-1,380,381,239,-1,381,382,239,-1,239,382,383,-1,239,383,373,-1,238,216,239,-1,239,216,384,-1,239,384,380,-1,246,217,244,-1,244,217,216,-1,244,216,242,-1,242,216,238,-1,250,361,385,-1,385,386,250,-1,250,386,387,-1,250,387,388,-1,388,389,250,-1,250,389,217,-1,250,217,248,-1,248,217,246,-1,282,307,281,-1,281,307,306,-1,278,309,282,-1,282,309,307,-1,308,280,306,-1,306,280,281,-1,280,308,278,-1,278,308,309,-1,287,311,286,-1,286,311,310,-1,284,313,287,-1,287,313,311,-1,312,285,310,-1,310,285,286,-1,285,312,284,-1,284,312,313,-1,167,171,203,-1,203,171,176,-1,176,178,203,-1,203,178,177,-1,203,177,195,-1,195,177,69,-1,69,67,195,-1,195,67,65,-1,195,65,180,-1,180,184,195,-1,195,184,189,-1,195,189,193,-1,1,0,220,-1,220,0,116,-1,220,116,118,-1,134,133,214,-1,118,120,220,-1,220,120,121,-1,220,121,214,-1,214,121,122,-1,214,122,123,-1,123,124,214,-1,214,124,141,-1,214,141,134,-1,371,370,208,-1,208,370,369,-1,208,369,199,-1,199,369,379,-1,199,379,215,-1,353,352,372,-1,208,207,371,-1,371,207,206,-1,371,206,372,-1,372,206,198,-1,372,198,353,-1,353,198,197,-1,353,197,354,-1,205,204,224,-1,224,356,205,-1,205,356,357,-1,205,357,197,-1,197,357,355,-1,197,355,354,-1,382,381,233,-1,233,381,380,-1,233,380,218,-1,218,380,384,-1,218,384,216,-1,233,232,382,-1,382,232,231,-1,382,231,383,-1,383,231,374,-1,383,374,373,-1,231,230,374,-1,374,230,229,-1,374,229,375,-1,228,213,212,-1,212,378,228,-1,228,378,377,-1,228,377,229,-1,229,377,376,-1,229,376,375,-1,359,358,227,-1,227,358,364,-1,227,364,221,-1,221,364,363,-1,221,363,222,-1,227,226,359,-1,359,226,237,-1,359,237,360,-1,360,237,385,-1,360,385,361,-1,237,236,385,-1,385,236,235,-1,385,235,386,-1,234,219,217,-1,217,389,234,-1,234,389,388,-1,234,388,235,-1,235,388,387,-1,235,387,386,-1,349,347,202,-1,202,347,346,-1,202,346,194,-1,194,346,348,-1,194,348,225,-1,202,201,349,-1,349,201,200,-1,349,200,350,-1,350,200,362,-1,350,362,351,-1,200,211,362,-1,362,211,210,-1,362,210,365,-1,209,196,223,-1,223,368,209,-1,209,368,367,-1,209,367,210,-1,210,367,366,-1,210,366,365,-1,
        ]
    }
}
Shape{
    appearance Appearance {
        material  Material 	{
            diffuseColor 0.4 0.4 0.4
            specularColor 0.5019607843137255 0.5019607843137255 0.5019607843137255
            ambientIntensity 0.2
            transparency 0
            shininess 0.5
        }
    }
    geometry IndexedFaceSet {
        ccw TRUE
        solid FALSE
        coord DEF co Coordinate {
            point [
                0.2688 -0.0437 -2.5945, 0.2688 -0.0566 -2.5945, 0.2688 -0.0437 -2.5984, 0.2688 -0.0566 -2.5984, 0.3293 -0.0566 -2.5945, 0.3293 -0.0566 -2.5984, 0.3293 0.0615 -2.5945, 0.3293 0.0615 -2.5984, 0.3134 0.0615 -2.5945, 0.3134 0.0615 -2.5984, 0.3134 -0.0437 -2.5945, 0.3134 -0.0437 -2.5984, 0.1708 -0.0375 -2.5945, 0.1708 -0.0505 -2.5945, 0.1708 -0.0375 -2.5984, 0.1708 -0.0505 -2.5984, 0.1834 -0.0557 -2.5945, 0.2033 -0.0581 -2.5945, 0.2033 -0.0581 -2.5984, 0.2001 -0.058 -2.5984, 0.2001 -0.058 -2.5945, 0.1954 -0.0573 -2.5984, 0.1834 -0.0557 -2.5984, 0.2587 0.0002 -2.5945, 0.2587 0.0002 -2.5984, 0.2575 -0.0135 -2.5984, 0.2575 -0.0135 -2.5945, 0.254 -0.026 -2.5984, 0.254 -0.026 -2.5945, 0.2477 -0.0372 -2.5984, 0.2477 -0.0372 -2.5945, 0.2388 -0.0465 -2.5984, 0.2388 -0.0465 -2.5945, 0.2293 -0.0526 -2.5984, 0.2293 -0.0526 -2.5945, 0.2179 -0.0566 -2.5984, 0.2179 -0.0566 -2.5945, 0.2103 -0.0573 -2.5984, 0.1986 0.0629 -2.5945, 0.1986 0.0629 -2.5984, 0.2105 0.062 -2.5984, 0.2105 0.062 -2.5945, 0.2237 0.0581 -2.5984, 0.2237 0.0581 -2.5945, 0.2349 0.0517 -2.5984, 0.2349 0.0517 -2.5945, 0.2455 0.0414 -2.5984, 0.2455 0.0414 -2.5945, 0.2525 0.0304 -2.5984, 0.2525 0.0304 -2.5945, 0.257 0.017 -2.5984, 0.257 0.017 -2.5945, 0.1708 0.0582 -2.5945, 0.1708 0.0582 -2.5984, 0.1845 0.062 -2.5984, 0.1845 0.062 -2.5945, 0.1708 0.0424 -2.5945, 0.1708 0.0424 -2.5984, 0.1985 0.05 -2.5945, 0.1985 0.05 -2.5984, 0.1841 0.0481 -2.5984, 0.1841 0.0481 -2.5945, 0.2428 0.0012 -2.5945, 0.2428 0.0012 -2.5984, 0.2423 0.0104 -2.5984, 0.2423 0.0104 -2.5945, 0.2391 0.023 -2.5984, 0.2391 0.023 -2.5945, 0.2343 0.0321 -2.5984, 0.2343 0.0321 -2.5945, 0.2271 0.04 -2.5984, 0.2271 0.04 -2.5945, 0.219 0.0455 -2.5984, 0.219 0.0455 -2.5945, 0.2101 0.0487 -2.5984, 0.2101 0.0487 -2.5945, 0.2011 -0.0451 -2.5945, 0.2011 -0.0451 -2.5984, 0.2122 -0.0439 -2.5984, 0.2122 -0.0439 -2.5945, 0.2208 -0.0407 -2.5984, 0.2208 -0.0407 -2.5945, 0.228 -0.0358 -2.5984, 0.228 -0.0358 -2.5945, 0.2336 -0.03 -2.5984, 0.2336 -0.03 -2.5945, 0.2384 -0.0218 -2.5984, 0.2384 -0.0218 -2.5945, 0.2417 -0.0116 -2.5984, 0.2417 -0.0116 -2.5945, 0.1729 -0.0387 -2.5984, 0.1729 -0.0387 -2.5945, 0.1855 -0.0434 -2.5984, 0.1855 -0.0434 -2.5945, 0.0844 -0.0437 -2.5945, 0.0844 -0.0566 -2.5945, 0.0844 -0.0437 -2.5984, 0.0844 -0.0566 -2.5984, 0.1329 -0.0566 -2.5984, 0.1478 -0.0566 -2.5945, 0.1478 -0.0566 -2.5984, 0.1478 0.0615 -2.5945, 0.1478 0.0615 -2.5984, 0.1329 0.0615 -2.5984, 0.0873 0.0615 -2.5945, 0.0873 0.0615 -2.5984, 0.0873 0.0485 -2.5945, 0.0873 0.0485 -2.5984, 0.1319 0.0485 -2.5945, 0.1319 0.0485 -2.5984, 0.1319 0.0096 -2.5945, 0.1319 0.0096 -2.5984, 0.0902 0.0096 -2.5945, 0.0902 0.0096 -2.5984, 0.0902 -0.0033 -2.5945, 0.0902 -0.0033 -2.5984, 0.1319 -0.0033 -2.5945, 0.1319 -0.0033 -2.5984, 0.1319 -0.0437 -2.5945, 0.1319 -0.0437 -2.5984, 0.0292 -0.0566 -2.5945, 0.0614 -0.0566 -2.5945, 0.0292 -0.0566 -2.5984, 0.0614 -0.0566 -2.5984, 0.0614 0.0615 -2.5945, 0.0614 0.0615 -2.5984, 0.028 0.0615 -2.5945, 0.028 0.0615 -2.5984, -0.0337 0.0039 -2.5945, -0.0337 0.0039 -2.5984, -0.0328 0.015 -2.5984, -0.0328 0.015 -2.5945, -0.0297 0.0267 -2.5984, -0.0297 0.0267 -2.5945, -0.0242 0.0368 -2.5984, -0.0242 0.0368 -2.5945, -0.0158 0.0461 -2.5984, -0.0158 0.0461 -2.5945, -0.0157 0.0462 -2.5984, -0.0157 0.0462 -2.5945, -0.0029 0.0548 -2.5984, -0.0029 0.0548 -2.5945, 0.011 0.0597 -2.5984, 0.011 0.0597 -2.5945, 0.0146 -0.0553 -2.5984, 0.0146 -0.0553 -2.5945, 0.001 -0.0513 -2.5984, 0.001 -0.0513 -2.5945, -0.0113 -0.0441 -2.5984, -0.0113 -0.0441 -2.5945, -0.021 -0.0348 -2.5984, -0.021 -0.0348 -2.5945, -0.0278 -0.0242 -2.5984, -0.0278 -0.0242 -2.5945, -0.032 -0.0119 -2.5984, -0.032 -0.0119 -2.5945, -0.01 0.032 -2.5945, -0.0043 0.0381 -2.5945, 0.0044 0.0436 -2.5945, 0.0141 0.047 -2.5945, 0.0281 0.0485 -2.5945, 0.0455 0.0485 -2.5945, 0.0455 -0.0437 -2.5945, 0.0288 -0.0437 -2.5945, 0.0163 -0.0425 -2.5945, 0.0064 -0.0394 -2.5945, -0.0017 -0.0346 -2.5945, -0.0083 -0.0281 -2.5945, -0.0133 -0.0199 -2.5945, -0.0168 -0.0088 -2.5945, -0.0179 0.0036 -2.5945, -0.0169 0.0153 -2.5945, -0.0141 0.0247 -2.5945, 0.0281 0.0485 -2.5984, 0.0455 0.0485 -2.5984, 0.0141 0.047 -2.5984, 0.0044 0.0436 -2.5984, -0.0043 0.0381 -2.5984, -0.01 0.032 -2.5984, -0.0141 0.0247 -2.5984, -0.0169 0.0153 -2.5984, -0.0179 0.0036 -2.5984, -0.0168 -0.0088 -2.5984, -0.0133 -0.0199 -2.5984, -0.0083 -0.0281 -2.5984, -0.0017 -0.0346 -2.5984, 0.0064 -0.0394 -2.5984, 0.0163 -0.0425 -2.5984, 0.0288 -0.0437 -2.5984, 0.0455 -0.0437 -2.5984, 0.0455 -0.0437 -2.5984
            ]
        }
        coordIndex [
            0,1,2,-1,2,1,3,-1,1,4,3,-1,3,4,5,-1,4,6,5,-1,5,6,7,-1,6,8,7,-1,7,8,9,-1,8,10,9,-1,9,10,11,-1,10,0,11,-1,11,0,2,-1,8,6,10,-1,10,6,4,-1,10,4,0,-1,0,4,1,-1,12,13,14,-1,14,13,15,-1,15,13,16,-1,17,18,19,-1,17,19,20,-1,20,19,21,-1,20,21,16,-1,16,21,22,-1,16,22,15,-1,23,24,25,-1,23,25,26,-1,26,25,27,-1,26,27,28,-1,28,27,29,-1,28,29,30,-1,30,29,31,-1,30,31,32,-1,32,31,33,-1,32,33,34,-1,34,33,35,-1,34,35,36,-1,36,35,17,-1,17,35,37,-1,17,37,18,-1,38,39,40,-1,38,40,41,-1,41,40,42,-1,41,42,43,-1,43,42,44,-1,43,44,45,-1,45,44,46,-1,45,46,47,-1,47,46,48,-1,47,48,49,-1,49,48,50,-1,49,50,51,-1,51,50,24,-1,51,24,23,-1,52,53,54,-1,52,54,55,-1,55,54,39,-1,55,39,38,-1,52,56,53,-1,53,56,57,-1,58,59,60,-1,58,60,61,-1,61,60,57,-1,61,57,56,-1,62,63,64,-1,62,64,65,-1,65,64,66,-1,65,66,67,-1,67,66,68,-1,67,68,69,-1,69,68,70,-1,69,70,71,-1,71,70,72,-1,71,72,73,-1,73,72,74,-1,73,74,75,-1,75,74,59,-1,75,59,58,-1,76,77,78,-1,76,78,79,-1,79,78,80,-1,79,80,81,-1,81,80,82,-1,81,82,83,-1,83,82,84,-1,83,84,85,-1,85,84,86,-1,85,86,87,-1,87,86,88,-1,87,88,89,-1,89,88,63,-1,89,63,62,-1,12,14,90,-1,12,90,91,-1,91,90,92,-1,91,92,93,-1,93,92,77,-1,93,77,76,-1,79,17,76,-1,76,17,20,-1,76,20,93,-1,93,20,16,-1,93,16,91,-1,91,16,13,-1,91,13,12,-1,56,52,61,-1,61,52,55,-1,61,55,58,-1,58,55,38,-1,58,38,75,-1,75,38,41,-1,75,41,73,-1,73,41,43,-1,73,43,71,-1,71,43,45,-1,71,45,69,-1,69,45,47,-1,69,47,67,-1,67,47,49,-1,67,49,65,-1,65,49,51,-1,65,51,62,-1,62,51,23,-1,62,23,89,-1,89,23,26,-1,89,26,87,-1,87,26,28,-1,87,28,85,-1,85,28,30,-1,85,30,83,-1,83,30,32,-1,83,32,81,-1,81,32,34,-1,81,34,79,-1,79,34,36,-1,79,36,17,-1,94,95,96,-1,96,95,97,-1,97,95,98,-1,98,95,99,-1,98,99,100,-1,99,101,100,-1,100,101,102,-1,102,101,103,-1,103,101,104,-1,103,104,105,-1,104,106,105,-1,105,106,107,-1,106,108,107,-1,107,108,109,-1,108,110,109,-1,109,110,111,-1,110,112,111,-1,111,112,113,-1,112,114,113,-1,113,114,115,-1,114,116,115,-1,115,116,117,-1,116,118,117,-1,117,118,119,-1,118,94,119,-1,119,94,96,-1,99,95,94,-1,94,118,99,-1,99,118,116,-1,99,116,101,-1,106,104,108,-1,108,104,101,-1,108,101,110,-1,110,101,116,-1,110,116,112,-1,112,116,114,-1,120,121,122,-1,122,121,123,-1,121,124,123,-1,123,124,125,-1,124,126,125,-1,125,126,127,-1,128,129,130,-1,128,130,131,-1,131,130,132,-1,131,132,133,-1,133,132,134,-1,133,134,135,-1,135,134,136,-1,135,136,137,-1,137,136,138,-1,137,138,139,-1,139,138,140,-1,139,140,141,-1,141,140,142,-1,141,142,143,-1,143,142,127,-1,143,127,126,-1,120,122,144,-1,120,144,145,-1,145,144,146,-1,145,146,147,-1,147,146,148,-1,147,148,149,-1,149,148,150,-1,149,150,151,-1,151,150,152,-1,151,152,153,-1,153,152,154,-1,153,154,155,-1,155,154,129,-1,155,129,128,-1,133,135,156,-1,156,135,137,-1,156,137,157,-1,157,137,139,-1,157,139,158,-1,158,139,141,-1,158,141,159,-1,159,141,143,-1,159,143,160,-1,160,143,126,-1,160,126,161,-1,161,126,124,-1,161,124,162,-1,162,124,121,-1,162,121,163,-1,163,121,120,-1,163,120,164,-1,164,120,145,-1,164,145,165,-1,165,145,147,-1,165,147,166,-1,166,147,149,-1,166,149,167,-1,167,149,151,-1,167,151,168,-1,168,151,153,-1,168,153,169,-1,169,153,155,-1,169,155,170,-1,170,155,128,-1,170,128,171,-1,171,128,131,-1,171,131,172,-1,172,131,133,-1,172,133,156,-1,160,161,173,-1,173,161,174,-1,160,173,175,-1,160,175,159,-1,159,175,176,-1,159,176,158,-1,158,176,177,-1,158,177,157,-1,157,177,178,-1,157,178,156,-1,156,178,179,-1,156,179,172,-1,172,179,180,-1,172,180,171,-1,171,180,181,-1,171,181,170,-1,170,181,182,-1,170,182,169,-1,169,182,183,-1,169,183,168,-1,168,183,184,-1,168,184,167,-1,167,184,185,-1,167,185,166,-1,166,185,186,-1,166,186,165,-1,165,186,187,-1,165,187,164,-1,164,187,188,-1,164,188,163,-1,162,163,189,-1,189,163,188,-1,161,162,174,-1,174,162,189,-1,
        ]
    }
}
Shape{
    appearance Appearance {
        material  Material 	{
            diffuseColor 0.2 0.2 0.2
            specularColor 0.25098039215686274 0.25098039215686274 0.25098039215686274
            ambientIntensity 0.2
            transparency 0
            shininess 0.5
        }
    }
    geometry IndexedFaceSet {
        ccw TRUE
        solid FALSE
        coord DEF co Coordinate {
            point [
                0.0455 0.0485 -2.5984, 0.0455 -0.0437 -2.5984, 0.0281 0.0485 -2.5984, 0.0288 -0.0437 -2.5984, 0.0163 -0.0425 -2.5984, -0.0179 0.0036 -2.5984, -0.0169 0.0153 -2.5984, -0.0141 0.0247 -2.5984, 0.0141 0.047 -2.5984, 0.0064 -0.0394 -2.5984, -0.0017 -0.0346 -2.5984, -0.0083 -0.0281 -2.5984, -0.0133 -0.0199 -2.5984, -0.0168 -0.0088 -2.5984, -0.01 0.032 -2.5984, -0.0043 0.0381 -2.5984, 0.0044 0.0436 -2.5984, 0.0044 0.0436 -2.5984
            ]
        }
        coordIndex [
            0,1,2,-1,2,1,3,-1,2,3,4,-1,5,6,2,-1,2,6,7,-1,2,7,8,-1,4,9,2,-1,2,9,10,-1,2,10,11,-1,11,12,2,-1,2,12,13,-1,2,13,5,-1,14,15,7,-1,7,15,16,-1,7,16,8,-1,
        ]
    }
}
Shape{
    appearance Appearance {
        material  Material 	{
            diffuseColor 0.4 0.4 0.4
            specularColor 0.5019607843137255 0.5019607843137255 0.5019607843137255
            ambientIntensity 0.2
            transparency 0
            shininess 0.5
        }
    }
    geometry IndexedFaceSet {
        ccw TRUE
        solid FALSE
        coord DEF co Coordinate {
            point [
                -0.1028 0.0615 -2.5984, -0.1028 0.0615 -2.5945, -0.1335 -0.0171 -2.5984, -0.1489 -0.0566 -2.5945, -0.1489 -0.0566 -2.5984, -0.1335 -0.0566 -2.5984, -0.1316 -0.0566 -2.5945, -0.1316 -0.0566 -2.5984, -0.1197 -0.0235 -2.5945, -0.1197 -0.0235 -2.5984, -0.0709 -0.0235 -2.5945, -0.0709 -0.0235 -2.5984, -0.0596 -0.0566 -2.5945, -0.0596 -0.0566 -2.5984, -0.0423 -0.0566 -2.5945, -0.0423 -0.0566 -2.5984, -0.087 0.0615 -2.5945, -0.087 0.0615 -2.5984, -0.0749 -0.0105 -2.5945, -0.1144 -0.0105 -2.5945, -0.0925 0.0388 -2.5945, -0.0936 0.0429 -2.5945, -0.0944 0.0471 -2.5945, -0.0948 0.0471 -2.5945, -0.0956 0.0429 -2.5945, -0.0966 0.0388 -2.5945, -0.0749 -0.0105 -2.5984, -0.1144 -0.0105 -2.5984, -0.0925 0.0388 -2.5984, -0.0936 0.0429 -2.5984, -0.0944 0.0471 -2.5984, -0.0948 0.0471 -2.5984, -0.0956 0.0429 -2.5984, -0.0966 0.0388 -2.5984, -0.0966 0.0388 -2.5984
            ]
        }
        coordIndex [
            0,1,2,-1,2,1,3,-1,2,3,4,-1,4,3,5,-1,5,3,6,-1,5,6,7,-1,6,8,7,-1,7,8,9,-1,8,10,9,-1,9,10,11,-1,10,12,11,-1,11,12,13,-1,12,14,13,-1,13,14,15,-1,14,16,15,-1,15,16,17,-1,16,1,17,-1,17,1,0,-1,18,10,19,-1,19,10,8,-1,20,16,18,-1,18,16,14,-1,18,14,10,-1,10,14,12,-1,20,21,16,-1,16,21,22,-1,16,22,1,-1,1,22,23,-1,1,23,24,-1,24,25,1,-1,1,25,19,-1,1,19,3,-1,3,19,8,-1,3,8,6,-1,18,19,26,-1,26,19,27,-1,20,18,28,-1,28,18,26,-1,20,28,29,-1,20,29,21,-1,21,29,30,-1,21,30,22,-1,23,22,31,-1,31,22,30,-1,23,31,32,-1,23,32,24,-1,24,32,33,-1,24,33,25,-1,19,25,27,-1,27,25,33,-1,
        ]
    }
}
Shape{
    appearance Appearance {
        material  Material 	{
            diffuseColor 0.2 0.2 0.2
            specularColor 0.25098039215686274 0.25098039215686274 0.25098039215686274
            ambientIntensity 0.2
            transparency 0
            shininess 0.5
        }
    }
    geometry IndexedFaceSet {
        ccw TRUE
        solid FALSE
        coord DEF co Coordinate {
            point [
                -0.0749 -0.0105 -2.5984, -0.1144 -0.0105 -2.5984, -0.0925 0.0388 -2.5984, -0.0966 0.0388 -2.5984, -0.0936 0.0429 -2.5984, -0.0956 0.0429 -2.5984, -0.0944 0.0471 -2.5984, -0.0948 0.0471 -2.5984, -0.0948 0.0471 -2.5984
            ]
        }
        coordIndex [
            0,1,2,-1,2,1,3,-1,2,3,4,-1,4,3,5,-1,4,5,6,-1,6,5,7,-1,
        ]
    }
}
Shape{
    appearance Appearance {
        material  Material 	{
            diffuseColor 0.8 0.8 0.8
            specularColor 1.0 1.0 1.0
            ambientIntensity 0.2
            transparency 0
            shininess 0.5
        }
    }
    geometry IndexedFaceSet {
        ccw TRUE
        solid FALSE
        coord DEF co Coordinate {
            point [
                -0.8819 -0.685 -2.8543, -1.1181 -0.685 -2.8543, -0.8819 -1.2008 -2.8543, -1.1181 -1.2008 -2.8543, -0.9264 -1.2931 -2.8543, -0.9077 -1.2744 -2.8543, -1.0923 -1.2744 -2.8543, -1.1151 -1.2271 -2.8543, -1.1064 -1.252 -2.8543, -0.9488 -1.3072 -2.8543, -0.8936 -1.252 -2.8543, -0.8849 -1.2271 -2.8543, -1.0512 -1.3072 -2.8543, -1.0263 -1.3159 -2.8543, -1.0736 -1.2931 -2.8543, -1.0 -1.3189 -2.8543, -0.9737 -1.3159 -2.8543, -1.1181 -0.685 -2.9528, -0.8819 -0.685 -2.9528, -1.1181 -1.2008 -2.9528, -0.8819 -1.2008 -2.9528, -1.0736 -1.2931 -2.9528, -1.0923 -1.2744 -2.9528, -0.9077 -1.2744 -2.9528, -0.8849 -1.2271 -2.9528, -0.8936 -1.252 -2.9528, -1.0512 -1.3072 -2.9528, -1.1064 -1.252 -2.9528, -1.1151 -1.2271 -2.9528, -0.9488 -1.3072 -2.9528, -0.9737 -1.3159 -2.9528, -0.9264 -1.2931 -2.9528, -1.0 -1.3189 -2.9528, -1.0263 -1.3159 -2.9528, -1.1181 -0.6524 -2.9495, -0.8819 -0.6524 -2.9495, -1.1181 -0.621 -2.94, -0.8819 -0.621 -2.94, -1.1181 -0.5921 -2.9246, -0.8819 -0.5921 -2.9246, -1.1181 -0.5667 -2.9037, -0.8819 -0.5667 -2.9037, -1.1181 -0.5459 -2.8784, -0.8819 -0.5459 -2.8784, -1.1181 -0.5305 -2.8495, -0.8819 -0.5305 -2.8495, -1.1181 -0.5209 -2.8181, -0.8819 -0.5209 -2.8181, -1.1181 -0.5177 -2.7854, -0.8819 -0.5177 -2.7854, -0.8819 -0.5177 -1.5748, -1.1181 -0.5177 -1.5748, -0.8819 -0.6161 -1.5748, -1.1181 -0.6161 -1.5748, -0.8819 -0.6161 -2.7854, -1.1181 -0.6161 -2.7854, -0.8819 -0.6185 -2.8033, -1.1181 -0.6185 -2.8033, -0.8819 -0.6254 -2.8199, -1.1181 -0.6254 -2.8199, -0.8819 -0.6363 -2.8342, -1.1181 -0.6363 -2.8342, -0.8819 -0.6506 -2.8451, -1.1181 -0.6506 -2.8451, -0.8819 -0.6672 -2.852, -1.1181 -0.6672 -2.852, 0.1181 -0.685 -2.8543, -0.1181 -0.685 -2.8543, 0.1181 -1.2008 -2.8543, -0.1181 -1.2008 -2.8543, -0.1151 -1.2271 -2.8543, -0.0 -1.3189 -2.8543, 0.0263 -1.3159 -2.8543, 0.0512 -1.3072 -2.8543, 0.0736 -1.2931 -2.8543, 0.0923 -1.2744 -2.8543, -0.1064 -1.252 -2.8543, -0.0923 -1.2744 -2.8543, -0.0263 -1.3159 -2.8543, -0.0736 -1.2931 -2.8543, -0.0512 -1.3072 -2.8543, 0.1064 -1.252 -2.8543, 0.1151 -1.2271 -2.8543, -0.1181 -1.2008 -2.9528, 0.0 -1.3189 -2.9528, -0.0263 -1.3159 -2.9528, -0.1181 -0.685 -2.9528, 0.1181 -0.685 -2.9528, 0.1181 -1.2008 -2.9528, 0.1151 -1.2271 -2.9528, 0.0736 -1.2931 -2.9528, 0.0512 -1.3072 -2.9528, 0.0263 -1.3159 -2.9528, -0.1151 -1.2271 -2.9528, -0.1064 -1.252 -2.9528, -0.0923 -1.2744 -2.9528, 0.1064 -1.252 -2.9528, 0.0923 -1.2744 -2.9528, -0.0512 -1.3072 -2.9528, -0.0736 -1.2931 -2.9528, -0.1181 -0.6524 -2.9495, 0.1181 -0.6524 -2.9495, -0.1181 -0.621 -2.94, 0.1181 -0.621 -2.94, -0.1181 -0.5921 -2.9246, 0.1181 -0.5921 -2.9246, -0.1181 -0.5667 -2.9037, 0.1181 -0.5667 -2.9037, -0.1181 -0.5459 -2.8784, 0.1181 -0.5459 -2.8784, -0.1181 -0.5305 -2.8495, 0.1181 -0.5305 -2.8495, -0.1181 -0.5209 -2.8181, 0.1181 -0.5209 -2.8181, -0.1181 -0.5177 -2.7854, 0.1181 -0.5177 -2.7854, 0.1181 -0.5177 -1.5748, -0.1181 -0.5177 -1.5748, 0.1181 -0.6161 -1.5748, -0.1181 -0.6161 -1.5748, 0.1181 -0.6161 -2.7854, -0.1181 -0.6161 -2.7854, 0.1181 -0.6185 -2.8033, -0.1181 -0.6185 -2.8033, 0.1181 -0.6254 -2.8199, -0.1181 -0.6254 -2.8199, 0.1181 -0.6363 -2.8342, -0.1181 -0.6363 -2.8342, 0.1181 -0.6506 -2.8451, -0.1181 -0.6506 -2.8451, 0.1181 -0.6672 -2.852, -0.1181 -0.6672 -2.852, 1.1181 -0.685 -2.8543, 0.8819 -0.685 -2.8543, 1.1181 -1.2008 -2.8543, 0.8819 -1.2008 -2.8543, 1.0736 -1.2931 -2.8543, 1.0923 -1.2744 -2.8543, 0.9077 -1.2744 -2.8543, 0.8849 -1.2271 -2.8543, 0.8936 -1.252 -2.8543, 1.0512 -1.3072 -2.8543, 1.1064 -1.252 -2.8543, 1.1151 -1.2271 -2.8543, 0.9488 -1.3072 -2.8543, 0.9737 -1.3159 -2.8543, 0.9264 -1.2931 -2.8543, 1.0 -1.3189 -2.8543, 1.0263 -1.3159 -2.8543, 0.8819 -0.685 -2.9528, 1.1181 -0.685 -2.9528, 0.8819 -1.2008 -2.9528, 1.1181 -1.2008 -2.9528, 0.9264 -1.2931 -2.9528, 0.9077 -1.2744 -2.9528, 1.0923 -1.2744 -2.9528, 1.1151 -1.2271 -2.9528, 1.1064 -1.252 -2.9528, 0.9488 -1.3072 -2.9528, 0.8936 -1.252 -2.9528, 0.8849 -1.2271 -2.9528, 1.0512 -1.3072 -2.9528, 1.0263 -1.3159 -2.9528, 1.0736 -1.2931 -2.9528, 1.0 -1.3189 -2.9528, 0.9737 -1.3159 -2.9528, 0.8819 -0.6524 -2.9495, 1.1181 -0.6524 -2.9495, 0.8819 -0.621 -2.94, 1.1181 -0.621 -2.94, 0.8819 -0.5921 -2.9246, 1.1181 -0.5921 -2.9246, 0.8819 -0.5667 -2.9037, 1.1181 -0.5667 -2.9037, 0.8819 -0.5459 -2.8784, 1.1181 -0.5459 -2.8784, 0.8819 -0.5305 -2.8495, 1.1181 -0.5305 -2.8495, 0.8819 -0.5209 -2.8181, 1.1181 -0.5209 -2.8181, 0.8819 -0.5177 -2.7854, 1.1181 -0.5177 -2.7854, 1.1181 -0.5177 -1.5748, 0.8819 -0.5177 -1.5748, 1.1181 -0.6161 -1.5748, 0.8819 -0.6161 -1.5748, 1.1181 -0.6161 -2.7854, 0.8819 -0.6161 -2.7854, 1.1181 -0.6185 -2.8033, 0.8819 -0.6185 -2.8033, 1.1181 -0.6254 -2.8199, 0.8819 -0.6254 -2.8199, 1.1181 -0.6363 -2.8342, 0.8819 -0.6363 -2.8342, 1.1181 -0.6506 -2.8451, 0.8819 -0.6506 -2.8451, 1.1181 -0.6672 -2.852, 0.8819 -0.6672 -2.852, 2.1181 -0.685 -2.8543, 1.8819 -0.685 -2.8543, 2.1181 -1.2008 -2.8543, 1.8819 -1.2008 -2.8543, 1.8849 -1.2271 -2.8543, 1.8936 -1.252 -2.8543, 2.1151 -1.2271 -2.8543, 2.1064 -1.252 -2.8543, 1.9077 -1.2744 -2.8543, 1.9264 -1.2931 -2.8543, 1.9488 -1.3072 -2.8543, 1.9737 -1.3159 -2.8543, 2.0 -1.3189 -2.8543, 2.0263 -1.3159 -2.8543, 2.0512 -1.3072 -2.8543, 2.0736 -1.2931 -2.8543, 2.0923 -1.2744 -2.8543, 1.8819 -0.685 -2.9528, 2.1181 -0.685 -2.9528, 1.8819 -1.2008 -2.9528, 2.1181 -1.2008 -2.9528, 2.1151 -1.2271 -2.9528, 2.1064 -1.252 -2.9528, 1.8849 -1.2271 -2.9528, 1.8936 -1.252 -2.9528, 2.0923 -1.2744 -2.9528, 2.0736 -1.2931 -2.9528, 2.0512 -1.3072 -2.9528, 2.0263 -1.3159 -2.9528, 2.0 -1.3189 -2.9528, 1.9737 -1.3159 -2.9528, 1.9488 -1.3072 -2.9528, 1.9264 -1.2931 -2.9528, 1.9077 -1.2744 -2.9528, 1.8819 -0.6524 -2.9495, 2.1181 -0.6524 -2.9495, 1.8819 -0.621 -2.94, 2.1181 -0.621 -2.94, 1.8819 -0.5921 -2.9246, 2.1181 -0.5921 -2.9246, 1.8819 -0.5667 -2.9037, 2.1181 -0.5667 -2.9037, 1.8819 -0.5459 -2.8784, 2.1181 -0.5459 -2.8784, 1.8819 -0.5305 -2.8495, 2.1181 -0.5305 -2.8495, 1.8819 -0.5209 -2.8181, 2.1181 -0.5209 -2.8181, 1.8819 -0.5177 -2.7854, 2.1181 -0.5177 -2.7854, 2.1181 -0.5177 -1.5748, 1.8819 -0.5177 -1.5748, 2.1181 -0.6161 -1.5748, 1.8819 -0.6161 -1.5748, 2.1181 -0.6161 -2.7854, 1.8819 -0.6161 -2.7854, 2.1181 -0.6185 -2.8033, 1.8819 -0.6185 -2.8033, 2.1181 -0.6254 -2.8199, 1.8819 -0.6254 -2.8199, 2.1181 -0.6363 -2.8342, 1.8819 -0.6363 -2.8342, 2.1181 -0.6506 -2.8451, 1.8819 -0.6506 -2.8451, 2.1181 -0.6672 -2.852, 1.8819 -0.6672 -2.852, -0.8819 0.685 -2.9528, -1.1181 0.685 -2.9528, -0.8819 1.2008 -2.9528, -1.1181 1.2008 -2.9528, -0.9264 1.2931 -2.9528, -0.9077 1.2744 -2.9528, -1.0923 1.2744 -2.9528, -1.1151 1.2271 -2.9528, -1.1064 1.252 -2.9528, -0.9488 1.3072 -2.9528, -0.8936 1.252 -2.9528, -0.8849 1.2271 -2.9528, -1.0512 1.3072 -2.9528, -1.0263 1.3159 -2.9528, -1.0736 1.2931 -2.9528, -1.0 1.3189 -2.9528, -0.9737 1.3159 -2.9528, -1.1181 0.685 -2.8543, -0.8819 0.685 -2.8543, -1.1181 1.2008 -2.8543, -0.8819 1.2008 -2.8543, -1.0736 1.2931 -2.8543, -1.0923 1.2744 -2.8543, -0.9077 1.2744 -2.8543, -0.8849 1.2271 -2.8543, -0.8936 1.252 -2.8543, -1.0512 1.3072 -2.8543, -1.1064 1.252 -2.8543, -1.1151 1.2271 -2.8543, -0.9488 1.3072 -2.8543, -0.9737 1.3159 -2.8543, -0.9264 1.2931 -2.8543, -1.0 1.3189 -2.8543, -1.0263 1.3159 -2.8543, -0.8819 0.6672 -2.852, -1.1181 0.6672 -2.852, -0.8819 0.6506 -2.8451, -1.1181 0.6506 -2.8451, -0.8819 0.6363 -2.8342, -1.1181 0.6363 -2.8342, -0.8819 0.6254 -2.8199, -1.1181 0.6254 -2.8199, -0.8819 0.6185 -2.8033, -1.1181 0.6185 -2.8033, -0.8819 0.6161 -2.7854, -1.1181 0.6161 -2.7854, -0.8819 0.6161 -1.5748, -1.1181 0.6161 -1.5748, -0.8819 0.5177 -1.5748, -1.1181 0.5177 -1.5748, -0.8819 0.5177 -2.7854, -1.1181 0.5177 -2.7854, -1.1181 0.5209 -2.8181, -0.8819 0.5209 -2.8181, -1.1181 0.5305 -2.8495, -0.8819 0.5305 -2.8495, -1.1181 0.5459 -2.8784, -0.8819 0.5459 -2.8784, -1.1181 0.5667 -2.9037, -0.8819 0.5667 -2.9037, -1.1181 0.5921 -2.9246, -0.8819 0.5921 -2.9246, -1.1181 0.621 -2.94, -0.8819 0.621 -2.94, -1.1181 0.6524 -2.9495, -0.8819 0.6524 -2.9495, 0.1181 0.685 -2.9528, -0.1181 0.685 -2.9528, 0.1181 1.2008 -2.9528, -0.1181 1.2008 -2.9528, -0.1151 1.2271 -2.9528, -0.1064 1.252 -2.9528, -0.0923 1.2744 -2.9528, -0.0736 1.2931 -2.9528, 0.0263 1.3159 -2.9528, 0.0512 1.3072 -2.9528, 0.0736 1.2931 -2.9528, -0.0512 1.3072 -2.9528, -0.0263 1.3159 -2.9528, 0.0 1.3189 -2.9528, 0.0923 1.2744 -2.9528, 0.1064 1.252 -2.9528, 0.1151 1.2271 -2.9528, -0.1181 0.685 -2.8543, 0.1181 0.685 -2.8543, -0.1181 1.2008 -2.8543, 0.1181 1.2008 -2.8543, 0.1151 1.2271 -2.8543, 0.1064 1.252 -2.8543, 0.0923 1.2744 -2.8543, 0.0736 1.2931 -2.8543, -0.0263 1.3159 -2.8543, -0.0512 1.3072 -2.8543, -0.0736 1.2931 -2.8543, 0.0512 1.3072 -2.8543, 0.0263 1.3159 -2.8543, 0.0 1.3189 -2.8543, -0.0923 1.2744 -2.8543, -0.1064 1.252 -2.8543, -0.1151 1.2271 -2.8543, 0.1181 0.6672 -2.852, -0.1181 0.6672 -2.852, 0.1181 0.6506 -2.8451, -0.1181 0.6506 -2.8451, 0.1181 0.6363 -2.8342, -0.1181 0.6363 -2.8342, 0.1181 0.6254 -2.8199, -0.1181 0.6254 -2.8199, 0.1181 0.6185 -2.8033, -0.1181 0.6185 -2.8033, 0.1181 0.6161 -2.7854, -0.1181 0.6161 -2.7854, 0.1181 0.6161 -1.5748, -0.1181 0.6161 -1.5748, 0.1181 0.5177 -1.5748, -0.1181 0.5177 -1.5748, 0.1181 0.5177 -2.7854, -0.1181 0.5177 -2.7854, -0.1181 0.5209 -2.8181, 0.1181 0.5209 -2.8181, -0.1181 0.5305 -2.8495, 0.1181 0.5305 -2.8495, -0.1181 0.5459 -2.8784, 0.1181 0.5459 -2.8784, -0.1181 0.5667 -2.9037, 0.1181 0.5667 -2.9037, -0.1181 0.5921 -2.9246, 0.1181 0.5921 -2.9246, -0.1181 0.621 -2.94, 0.1181 0.621 -2.94, -0.1181 0.6524 -2.9495, 0.1181 0.6524 -2.9495, 1.1181 0.685 -2.9528, 0.8819 0.685 -2.9528, 1.1181 1.2008 -2.9528, 0.8819 1.2008 -2.9528, 0.8849 1.2271 -2.9528, 0.8936 1.252 -2.9528, 0.9077 1.2744 -2.9528, 1.1151 1.2271 -2.9528, 1.1064 1.252 -2.9528, 0.9737 1.3159 -2.9528, 0.9488 1.3072 -2.9528, 0.9264 1.2931 -2.9528, 1.0 1.3189 -2.9528, 1.0263 1.3159 -2.9528, 1.0512 1.3072 -2.9528, 1.0736 1.2931 -2.9528, 1.0923 1.2744 -2.9528, 0.8819 0.685 -2.8543, 1.1181 0.685 -2.8543, 0.8819 1.2008 -2.8543, 1.1181 1.2008 -2.8543, 1.1151 1.2271 -2.8543, 1.1064 1.252 -2.8543, 1.0923 1.2744 -2.8543, 0.8849 1.2271 -2.8543, 0.8936 1.252 -2.8543, 1.0263 1.3159 -2.8543, 1.0512 1.3072 -2.8543, 1.0736 1.2931 -2.8543, 1.0 1.3189 -2.8543, 0.9737 1.3159 -2.8543, 0.9488 1.3072 -2.8543, 0.9264 1.2931 -2.8543, 0.9077 1.2744 -2.8543, 1.1181 0.6672 -2.852, 0.8819 0.6672 -2.852, 1.1181 0.6506 -2.8451, 0.8819 0.6506 -2.8451, 1.1181 0.6363 -2.8342, 0.8819 0.6363 -2.8342, 1.1181 0.6254 -2.8199, 0.8819 0.6254 -2.8199, 1.1181 0.6185 -2.8033, 0.8819 0.6185 -2.8033, 1.1181 0.6161 -2.7854, 0.8819 0.6161 -2.7854, 1.1181 0.6161 -1.5748, 0.8819 0.6161 -1.5748, 1.1181 0.5177 -1.5748, 0.8819 0.5177 -1.5748, 1.1181 0.5177 -2.7854, 0.8819 0.5177 -2.7854, 0.8819 0.5209 -2.8181, 1.1181 0.5209 -2.8181, 0.8819 0.5305 -2.8495, 1.1181 0.5305 -2.8495, 0.8819 0.5459 -2.8784, 1.1181 0.5459 -2.8784, 0.8819 0.5667 -2.9037, 1.1181 0.5667 -2.9037, 0.8819 0.5921 -2.9246, 1.1181 0.5921 -2.9246, 0.8819 0.621 -2.94, 1.1181 0.621 -2.94, 0.8819 0.6524 -2.9495, 1.1181 0.6524 -2.9495, 2.1181 0.685 -2.9528, 1.8819 0.685 -2.9528, 2.1181 1.2008 -2.9528, 1.8819 1.2008 -2.9528, 1.8849 1.2271 -2.9528, 1.8936 1.252 -2.9528, 2.1151 1.2271 -2.9528, 2.1064 1.252 -2.9528, 1.9077 1.2744 -2.9528, 1.9264 1.2931 -2.9528, 1.9488 1.3072 -2.9528, 1.9737 1.3159 -2.9528, 2.0 1.3189 -2.9528, 2.0263 1.3159 -2.9528, 2.0512 1.3072 -2.9528, 2.0736 1.2931 -2.9528, 2.0923 1.2744 -2.9528, 1.8819 0.685 -2.8543, 2.1181 0.685 -2.8543, 1.8819 1.2008 -2.8543, 2.1181 1.2008 -2.8543, 2.1151 1.2271 -2.8543, 2.1064 1.252 -2.8543, 1.8849 1.2271 -2.8543, 1.8936 1.252 -2.8543, 2.0923 1.2744 -2.8543, 2.0736 1.2931 -2.8543, 2.0512 1.3072 -2.8543, 2.0263 1.3159 -2.8543, 2.0 1.3189 -2.8543, 1.9737 1.3159 -2.8543, 1.9488 1.3072 -2.8543, 1.9264 1.2931 -2.8543, 1.9077 1.2744 -2.8543, 2.1181 0.6672 -2.852, 1.8819 0.6672 -2.852, 2.1181 0.6506 -2.8451, 1.8819 0.6506 -2.8451, 2.1181 0.6363 -2.8342, 1.8819 0.6363 -2.8342, 2.1181 0.6254 -2.8199, 1.8819 0.6254 -2.8199, 2.1181 0.6185 -2.8033, 1.8819 0.6185 -2.8033, 2.1181 0.6161 -2.7854, 1.8819 0.6161 -2.7854, 2.1181 0.6161 -1.5748, 1.8819 0.6161 -1.5748, 2.1181 0.5177 -1.5748, 1.8819 0.5177 -1.5748, 2.1181 0.5177 -2.7854, 1.8819 0.5177 -2.7854, 1.8819 0.5209 -2.8181, 2.1181 0.5209 -2.8181, 1.8819 0.5305 -2.8495, 2.1181 0.5305 -2.8495, 1.8819 0.5459 -2.8784, 2.1181 0.5459 -2.8784, 1.8819 0.5667 -2.9037, 2.1181 0.5667 -2.9037, 1.8819 0.5921 -2.9246, 2.1181 0.5921 -2.9246, 1.8819 0.621 -2.94, 2.1181 0.621 -2.94, 1.8819 0.6524 -2.9495, 2.1181 0.6524 -2.9495, -2.1181 0.3819 -0.3937, -2.1181 0.3819 -1.5748, -2.0787 0.3819 -0.3937, -2.0787 0.3819 -1.5748, -2.1181 0.6181 -1.5748, -2.1181 0.6181 -0.3937, -1.8819 0.6181 -1.5748, -1.8819 0.6181 -0.3937, -1.8819 0.3819 -1.5748, -1.8819 0.3819 -0.3937, -1.9213 0.3819 -1.5748, -1.9213 0.3819 -0.3937, -2.0787 0.5 -1.5748, -1.9213 0.5 -1.5748, -1.9213 0.5 -0.3937, -2.0787 0.5 -0.3937, -2.1181 -0.3819 -1.5748, -2.1181 -0.3819 -0.3937, -2.0787 -0.3819 -1.5748, -2.0787 -0.3819 -0.3937, -2.1181 -0.6181 -1.5748, -2.1181 -0.6181 -0.3937, -1.8819 -0.3819 -0.3937, -1.8819 -0.3819 -1.5748, -1.9213 -0.3819 -0.3937, -1.9213 -0.3819 -1.5748, -1.8819 -0.6181 -1.5748, -1.8819 -0.6181 -0.3937, -1.9213 -0.5 -1.5748, -2.0787 -0.5 -1.5748, -2.0787 -0.5 -0.3937, -1.9213 -0.5 -0.3937, -1.1181 0.3819 -0.3937, -1.1181 0.3819 -1.5748, -1.0787 0.3819 -0.3937, -1.0787 0.3819 -1.5748, -1.1181 0.6181 -1.5748, -1.1181 0.6181 -0.3937, -0.8819 0.6181 -1.5748, -0.8819 0.6181 -0.3937, -0.8819 0.3819 -1.5748, -0.8819 0.3819 -0.3937, -0.9213 0.3819 -1.5748, -0.9213 0.3819 -0.3937, -1.0787 0.5 -1.5748, -0.9213 0.5 -1.5748, -0.9213 0.5 -0.3937, -1.0787 0.5 -0.3937, -1.1181 -0.3819 -1.5748, -1.1181 -0.3819 -0.3937, -1.0787 -0.3819 -1.5748, -1.0787 -0.3819 -0.3937, -1.1181 -0.6181 -1.5748, -1.1181 -0.6181 -0.3937, -0.8819 -0.3819 -0.3937, -0.8819 -0.3819 -1.5748, -0.9213 -0.3819 -0.3937, -0.9213 -0.3819 -1.5748, -0.8819 -0.6181 -1.5748, -0.8819 -0.6181 -0.3937, -0.9213 -0.5 -1.5748, -1.0787 -0.5 -1.5748, -1.0787 -0.5 -0.3937, -0.9213 -0.5 -0.3937, -0.1181 0.3819 -0.3937, -0.1181 0.3819 -1.5748, -0.0787 0.3819 -0.3937, -0.0787 0.3819 -1.5748, -0.1181 0.6181 -1.5748, -0.1181 0.6181 -0.3937, 0.1181 0.6181 -1.5748, 0.1181 0.6181 -0.3937, 0.1181 0.3819 -1.5748, 0.1181 0.3819 -0.3937, 0.0787 0.3819 -1.5748, 0.0787 0.3819 -0.3937, -0.0787 0.5 -1.5748, 0.0787 0.5 -1.5748, 0.0787 0.5 -0.3937, -0.0787 0.5 -0.3937, -0.1181 -0.3819 -1.5748, -0.1181 -0.3819 -0.3937, -0.0787 -0.3819 -1.5748, -0.0787 -0.3819 -0.3937, -0.1181 -0.6181 -1.5748, -0.1181 -0.6181 -0.3937, 0.1181 -0.3819 -0.3937, 0.1181 -0.3819 -1.5748, 0.0787 -0.3819 -0.3937, 0.0787 -0.3819 -1.5748, 0.1181 -0.6181 -1.5748, 0.1181 -0.6181 -0.3937, 0.0787 -0.5 -1.5748, -0.0787 -0.5 -1.5748, -0.0787 -0.5 -0.3937, 0.0787 -0.5 -0.3937, 0.8819 0.3819 -0.3937, 0.8819 0.3819 -1.5748, 0.9213 0.3819 -0.3937, 0.9213 0.3819 -1.5748, 0.8819 0.6181 -1.5748, 0.8819 0.6181 -0.3937, 1.1181 0.6181 -1.5748, 1.1181 0.6181 -0.3937, 1.1181 0.3819 -1.5748, 1.1181 0.3819 -0.3937, 1.0787 0.3819 -1.5748, 1.0787 0.3819 -0.3937, 0.9213 0.5 -1.5748, 1.0787 0.5 -1.5748, 1.0787 0.5 -0.3937, 0.9213 0.5 -0.3937, 0.8819 -0.3819 -1.5748, 0.8819 -0.3819 -0.3937, 0.9213 -0.3819 -1.5748, 0.9213 -0.3819 -0.3937, 0.8819 -0.6181 -1.5748, 0.8819 -0.6181 -0.3937, 1.1181 -0.3819 -0.3937, 1.1181 -0.3819 -1.5748, 1.0787 -0.3819 -0.3937, 1.0787 -0.3819 -1.5748, 1.1181 -0.6181 -1.5748, 1.1181 -0.6181 -0.3937, 1.0787 -0.5 -1.5748, 0.9213 -0.5 -1.5748, 0.9213 -0.5 -0.3937, 1.0787 -0.5 -0.3937, 1.8819 0.3819 -0.3937, 1.8819 0.3819 -1.5748, 1.9213 0.3819 -0.3937, 1.9213 0.3819 -1.5748, 1.8819 0.6181 -1.5748, 1.8819 0.6181 -0.3937, 2.1181 0.6181 -1.5748, 2.1181 0.6181 -0.3937, 2.1181 0.3819 -1.5748, 2.1181 0.3819 -0.3937, 2.0787 0.3819 -1.5748, 2.0787 0.3819 -0.3937, 1.9213 0.5 -1.5748, 2.0787 0.5 -1.5748, 2.0787 0.5 -0.3937, 1.9213 0.5 -0.3937, 1.8819 -0.3819 -1.5748, 1.8819 -0.3819 -0.3937, 1.9213 -0.3819 -1.5748, 1.9213 -0.3819 -0.3937, 1.8819 -0.6181 -1.5748, 1.8819 -0.6181 -0.3937, 2.1181 -0.3819 -0.3937, 2.1181 -0.3819 -1.5748, 2.0787 -0.3819 -0.3937, 2.0787 -0.3819 -1.5748, 2.1181 -0.6181 -1.5748, 2.1181 -0.6181 -0.3937, 2.0787 -0.5 -1.5748, 1.9213 -0.5 -1.5748, 1.9213 -0.5 -0.3937, 2.0787 -0.5 -0.3937, 2.0787 -0.5 -0.3937
            ]
        }
        coordIndex [
            0,1,2,-1,2,1,3,-1,4,5,6,-1,3,7,2,-1,2,7,8,-1,2,8,6,-1,4,6,9,-1,5,10,6,-1,6,10,11,-1,6,11,2,-1,12,13,14,-1,14,13,15,-1,14,15,6,-1,6,15,16,-1,6,16,9,-1,17,18,19,-1,19,18,20,-1,21,22,23,-1,20,24,19,-1,19,24,25,-1,19,25,23,-1,21,23,26,-1,22,27,23,-1,23,27,28,-1,23,28,19,-1,29,30,31,-1,31,30,32,-1,31,32,23,-1,23,32,33,-1,23,33,26,-1,18,17,34,-1,18,34,35,-1,35,34,36,-1,35,36,37,-1,37,36,38,-1,37,38,39,-1,39,38,40,-1,39,40,41,-1,41,40,42,-1,41,42,43,-1,43,42,44,-1,43,44,45,-1,45,44,46,-1,45,46,47,-1,47,46,48,-1,47,48,49,-1,50,49,51,-1,51,49,48,-1,52,50,53,-1,53,50,51,-1,54,52,55,-1,55,52,53,-1,54,55,56,-1,56,55,57,-1,56,57,58,-1,58,57,59,-1,58,59,60,-1,60,59,61,-1,60,61,62,-1,62,61,63,-1,62,63,64,-1,64,63,65,-1,64,65,0,-1,0,65,1,-1,2,20,0,-1,0,20,18,-1,0,18,64,-1,18,35,64,-1,64,35,37,-1,64,37,62,-1,62,37,39,-1,62,39,60,-1,60,39,41,-1,60,41,58,-1,41,43,58,-1,58,43,45,-1,58,45,56,-1,56,45,47,-1,56,47,54,-1,54,47,49,-1,54,49,52,-1,52,49,50,-1,19,3,17,-1,17,3,1,-1,17,1,34,-1,34,1,65,-1,34,65,36,-1,36,65,63,-1,57,44,59,-1,59,44,42,-1,59,42,61,-1,61,42,40,-1,61,40,63,-1,63,40,38,-1,63,38,36,-1,53,51,55,-1,55,51,48,-1,55,48,57,-1,57,48,46,-1,57,46,44,-1,3,19,28,-1,3,28,7,-1,7,28,27,-1,7,27,8,-1,8,27,22,-1,8,22,6,-1,6,22,21,-1,6,21,14,-1,14,21,26,-1,14,26,12,-1,12,26,33,-1,12,33,13,-1,13,33,32,-1,13,32,15,-1,20,2,11,-1,20,11,24,-1,24,11,10,-1,24,10,25,-1,25,10,5,-1,25,5,23,-1,23,5,4,-1,23,4,31,-1,31,4,9,-1,31,9,29,-1,29,9,16,-1,29,16,30,-1,30,16,15,-1,30,15,32,-1,66,67,68,-1,68,67,69,-1,70,71,69,-1,69,71,72,-1,72,73,69,-1,69,73,74,-1,69,74,75,-1,70,76,71,-1,71,76,77,-1,71,77,78,-1,78,77,79,-1,78,79,80,-1,75,81,69,-1,69,81,82,-1,69,82,68,-1,83,84,85,-1,86,87,83,-1,83,87,88,-1,83,88,89,-1,90,91,83,-1,83,91,92,-1,83,92,84,-1,93,83,94,-1,94,83,95,-1,89,96,83,-1,83,96,97,-1,83,97,90,-1,85,98,83,-1,83,98,99,-1,83,99,95,-1,87,86,100,-1,87,100,101,-1,101,100,102,-1,101,102,103,-1,103,102,104,-1,103,104,105,-1,105,104,106,-1,105,106,107,-1,107,106,108,-1,107,108,109,-1,109,108,110,-1,109,110,111,-1,111,110,112,-1,111,112,113,-1,113,112,114,-1,113,114,115,-1,116,115,117,-1,117,115,114,-1,118,116,119,-1,119,116,117,-1,120,118,121,-1,121,118,119,-1,120,121,122,-1,122,121,123,-1,122,123,124,-1,124,123,125,-1,124,125,126,-1,126,125,127,-1,126,127,128,-1,128,127,129,-1,128,129,130,-1,130,129,131,-1,130,131,66,-1,66,131,67,-1,68,88,66,-1,66,88,87,-1,66,87,130,-1,87,101,130,-1,130,101,103,-1,130,103,128,-1,128,103,105,-1,128,105,126,-1,126,105,107,-1,126,107,124,-1,107,109,124,-1,124,109,111,-1,124,111,122,-1,122,111,113,-1,122,113,120,-1,120,113,115,-1,120,115,118,-1,118,115,116,-1,83,69,86,-1,86,69,67,-1,86,67,100,-1,100,67,131,-1,100,131,102,-1,102,131,129,-1,123,110,125,-1,125,110,108,-1,125,108,127,-1,127,108,106,-1,127,106,129,-1,129,106,104,-1,129,104,102,-1,119,117,121,-1,121,117,114,-1,121,114,123,-1,123,114,112,-1,123,112,110,-1,69,83,93,-1,69,93,70,-1,70,93,94,-1,70,94,76,-1,76,94,95,-1,76,95,77,-1,77,95,99,-1,77,99,79,-1,79,99,98,-1,79,98,80,-1,80,98,85,-1,80,85,78,-1,78,85,84,-1,78,84,71,-1,88,68,82,-1,88,82,89,-1,89,82,81,-1,89,81,96,-1,96,81,75,-1,96,75,97,-1,97,75,74,-1,97,74,90,-1,90,74,73,-1,90,73,91,-1,91,73,72,-1,91,72,92,-1,92,72,71,-1,92,71,84,-1,132,133,134,-1,134,133,135,-1,136,137,138,-1,135,139,134,-1,134,139,140,-1,134,140,138,-1,136,138,141,-1,137,142,138,-1,138,142,143,-1,138,143,134,-1,144,145,146,-1,146,145,147,-1,146,147,138,-1,138,147,148,-1,138,148,141,-1,149,150,151,-1,151,150,152,-1,153,154,155,-1,152,156,151,-1,151,156,157,-1,151,157,155,-1,153,155,158,-1,154,159,155,-1,155,159,160,-1,155,160,151,-1,161,162,163,-1,163,162,164,-1,163,164,155,-1,155,164,165,-1,155,165,158,-1,150,149,166,-1,150,166,167,-1,167,166,168,-1,167,168,169,-1,169,168,170,-1,169,170,171,-1,171,170,172,-1,171,172,173,-1,173,172,174,-1,173,174,175,-1,175,174,176,-1,175,176,177,-1,177,176,178,-1,177,178,179,-1,179,178,180,-1,179,180,181,-1,182,181,183,-1,183,181,180,-1,184,182,185,-1,185,182,183,-1,186,184,187,-1,187,184,185,-1,186,187,188,-1,188,187,189,-1,188,189,190,-1,190,189,191,-1,190,191,192,-1,192,191,193,-1,192,193,194,-1,194,193,195,-1,194,195,196,-1,196,195,197,-1,196,197,132,-1,132,197,133,-1,134,152,132,-1,132,152,150,-1,132,150,196,-1,150,167,196,-1,196,167,169,-1,196,169,194,-1,194,169,171,-1,194,171,192,-1,192,171,173,-1,192,173,190,-1,173,175,190,-1,190,175,177,-1,190,177,188,-1,188,177,179,-1,188,179,186,-1,186,179,181,-1,186,181,184,-1,184,181,182,-1,151,135,149,-1,149,135,133,-1,149,133,166,-1,166,133,197,-1,166,197,168,-1,168,197,195,-1,189,176,191,-1,191,176,174,-1,191,174,193,-1,193,174,172,-1,193,172,195,-1,195,172,170,-1,195,170,168,-1,185,183,187,-1,187,183,180,-1,187,180,189,-1,189,180,178,-1,189,178,176,-1,135,151,160,-1,135,160,139,-1,139,160,159,-1,139,159,140,-1,140,159,154,-1,140,154,138,-1,138,154,153,-1,138,153,146,-1,146,153,158,-1,146,158,144,-1,144,158,165,-1,144,165,145,-1,145,165,164,-1,145,164,147,-1,152,134,143,-1,152,143,156,-1,156,143,142,-1,156,142,157,-1,157,142,137,-1,157,137,155,-1,155,137,136,-1,155,136,163,-1,163,136,141,-1,163,141,161,-1,161,141,148,-1,161,148,162,-1,162,148,147,-1,162,147,164,-1,198,199,200,-1,200,199,201,-1,201,202,200,-1,200,202,203,-1,200,203,204,-1,204,203,205,-1,203,206,205,-1,205,206,207,-1,205,207,208,-1,208,209,205,-1,205,209,210,-1,205,210,211,-1,211,212,205,-1,205,212,213,-1,205,213,214,-1,215,216,217,-1,217,216,218,-1,218,219,217,-1,217,219,220,-1,217,220,221,-1,221,220,222,-1,220,223,222,-1,222,223,224,-1,222,224,225,-1,225,226,222,-1,222,226,227,-1,222,227,228,-1,228,229,222,-1,222,229,230,-1,222,230,231,-1,216,215,232,-1,216,232,233,-1,233,232,234,-1,233,234,235,-1,235,234,236,-1,235,236,237,-1,237,236,238,-1,237,238,239,-1,239,238,240,-1,239,240,241,-1,241,240,242,-1,241,242,243,-1,243,242,244,-1,243,244,245,-1,245,244,246,-1,245,246,247,-1,248,247,249,-1,249,247,246,-1,250,248,251,-1,251,248,249,-1,252,250,253,-1,253,250,251,-1,252,253,254,-1,254,253,255,-1,254,255,256,-1,256,255,257,-1,256,257,258,-1,258,257,259,-1,258,259,260,-1,260,259,261,-1,260,261,262,-1,262,261,263,-1,262,263,198,-1,198,263,199,-1,200,218,198,-1,198,218,216,-1,198,216,262,-1,216,233,262,-1,262,233,235,-1,262,235,260,-1,260,235,237,-1,260,237,258,-1,258,237,239,-1,258,239,256,-1,239,241,256,-1,256,241,243,-1,256,243,254,-1,254,243,245,-1,254,245,252,-1,252,245,247,-1,252,247,250,-1,250,247,248,-1,217,201,215,-1,215,201,199,-1,215,199,232,-1,232,199,263,-1,232,263,234,-1,234,263,261,-1,255,242,257,-1,257,242,240,-1,257,240,259,-1,259,240,238,-1,259,238,261,-1,261,238,236,-1,261,236,234,-1,251,249,253,-1,253,249,246,-1,253,246,255,-1,255,246,244,-1,255,244,242,-1,201,217,221,-1,201,221,202,-1,202,221,222,-1,202,222,203,-1,203,222,231,-1,203,231,206,-1,206,231,230,-1,206,230,207,-1,207,230,229,-1,207,229,208,-1,208,229,228,-1,208,228,209,-1,209,228,227,-1,209,227,210,-1,218,200,204,-1,218,204,219,-1,219,204,205,-1,219,205,220,-1,220,205,214,-1,220,214,223,-1,223,214,213,-1,223,213,224,-1,224,213,212,-1,224,212,225,-1,225,212,211,-1,225,211,226,-1,226,211,210,-1,226,210,227,-1,264,265,266,-1,266,265,267,-1,268,269,270,-1,267,271,266,-1,266,271,272,-1,266,272,270,-1,268,270,273,-1,269,274,270,-1,270,274,275,-1,270,275,266,-1,276,277,278,-1,278,277,279,-1,278,279,270,-1,270,279,280,-1,270,280,273,-1,281,282,283,-1,283,282,284,-1,285,286,287,-1,284,288,283,-1,283,288,289,-1,283,289,287,-1,285,287,290,-1,286,291,287,-1,287,291,292,-1,287,292,283,-1,293,294,295,-1,295,294,296,-1,295,296,287,-1,287,296,297,-1,287,297,290,-1,282,281,298,-1,298,281,299,-1,298,299,300,-1,300,299,301,-1,300,301,302,-1,302,301,303,-1,302,303,304,-1,304,303,305,-1,304,305,306,-1,306,305,307,-1,306,307,308,-1,308,307,309,-1,310,308,311,-1,311,308,309,-1,312,310,313,-1,313,310,311,-1,314,312,315,-1,315,312,313,-1,314,315,316,-1,314,316,317,-1,317,316,318,-1,317,318,319,-1,319,318,320,-1,319,320,321,-1,321,320,322,-1,321,322,323,-1,323,322,324,-1,323,324,325,-1,325,324,326,-1,325,326,327,-1,327,326,328,-1,327,328,329,-1,329,328,265,-1,329,265,264,-1,266,284,264,-1,264,284,282,-1,264,282,329,-1,329,282,298,-1,329,298,327,-1,327,298,300,-1,306,319,304,-1,304,319,321,-1,304,321,302,-1,302,321,323,-1,302,323,300,-1,300,323,325,-1,300,325,327,-1,310,312,308,-1,308,312,314,-1,308,314,306,-1,306,314,317,-1,306,317,319,-1,283,267,281,-1,281,267,265,-1,281,265,299,-1,313,311,315,-1,315,311,309,-1,315,309,316,-1,316,309,307,-1,316,307,318,-1,318,307,305,-1,265,328,299,-1,299,328,326,-1,299,326,301,-1,301,326,324,-1,301,324,303,-1,303,324,322,-1,303,322,305,-1,305,322,320,-1,305,320,318,-1,267,283,292,-1,267,292,271,-1,271,292,291,-1,271,291,272,-1,272,291,286,-1,272,286,270,-1,270,286,285,-1,270,285,278,-1,278,285,290,-1,278,290,276,-1,276,290,297,-1,276,297,277,-1,277,297,296,-1,277,296,279,-1,284,266,275,-1,284,275,288,-1,288,275,274,-1,288,274,289,-1,289,274,269,-1,289,269,287,-1,287,269,268,-1,287,268,295,-1,295,268,273,-1,295,273,293,-1,293,273,280,-1,293,280,294,-1,294,280,279,-1,294,279,296,-1,330,331,332,-1,332,331,333,-1,332,333,334,-1,334,335,332,-1,332,335,336,-1,332,336,337,-1,338,339,340,-1,337,341,332,-1,332,341,342,-1,332,342,343,-1,340,344,338,-1,338,344,345,-1,338,345,343,-1,343,345,346,-1,343,346,332,-1,347,348,349,-1,349,348,350,-1,349,350,351,-1,351,352,349,-1,349,352,353,-1,349,353,354,-1,355,356,357,-1,354,358,349,-1,349,358,359,-1,349,359,360,-1,357,361,355,-1,355,361,362,-1,355,362,360,-1,360,362,363,-1,360,363,349,-1,348,347,364,-1,364,347,365,-1,364,365,366,-1,366,365,367,-1,366,367,368,-1,368,367,369,-1,368,369,370,-1,370,369,371,-1,370,371,372,-1,372,371,373,-1,372,373,374,-1,374,373,375,-1,376,374,377,-1,377,374,375,-1,378,376,379,-1,379,376,377,-1,380,378,381,-1,381,378,379,-1,380,381,382,-1,380,382,383,-1,383,382,384,-1,383,384,385,-1,385,384,386,-1,385,386,387,-1,387,386,388,-1,387,388,389,-1,389,388,390,-1,389,390,391,-1,391,390,392,-1,391,392,393,-1,393,392,394,-1,393,394,395,-1,395,394,331,-1,395,331,330,-1,332,350,330,-1,330,350,348,-1,330,348,395,-1,395,348,364,-1,395,364,393,-1,393,364,366,-1,372,385,370,-1,370,385,387,-1,370,387,368,-1,368,387,389,-1,368,389,366,-1,366,389,391,-1,366,391,393,-1,376,378,374,-1,374,378,380,-1,374,380,372,-1,372,380,383,-1,372,383,385,-1,349,333,347,-1,347,333,331,-1,347,331,365,-1,379,377,381,-1,381,377,375,-1,381,375,382,-1,382,375,373,-1,382,373,384,-1,384,373,371,-1,331,394,365,-1,365,394,392,-1,365,392,367,-1,367,392,390,-1,367,390,369,-1,369,390,388,-1,369,388,371,-1,371,388,386,-1,371,386,384,-1,333,349,363,-1,333,363,334,-1,334,363,362,-1,334,362,335,-1,335,362,361,-1,335,361,336,-1,336,361,357,-1,336,357,337,-1,337,357,356,-1,337,356,341,-1,341,356,355,-1,341,355,342,-1,342,355,360,-1,342,360,343,-1,350,332,346,-1,350,346,351,-1,351,346,345,-1,351,345,352,-1,352,345,344,-1,352,344,353,-1,353,344,340,-1,353,340,354,-1,354,340,339,-1,354,339,358,-1,358,339,338,-1,358,338,359,-1,359,338,343,-1,359,343,360,-1,396,397,398,-1,398,397,399,-1,398,399,400,-1,400,401,398,-1,398,401,402,-1,398,402,403,-1,403,402,404,-1,405,402,406,-1,406,402,407,-1,405,408,402,-1,402,408,409,-1,402,409,410,-1,410,411,402,-1,402,411,412,-1,402,412,404,-1,413,414,415,-1,415,414,416,-1,415,416,417,-1,417,418,415,-1,415,418,419,-1,415,419,420,-1,420,419,421,-1,422,419,423,-1,423,419,424,-1,422,425,419,-1,419,425,426,-1,419,426,427,-1,427,428,419,-1,419,428,429,-1,419,429,421,-1,414,413,430,-1,430,413,431,-1,430,431,432,-1,432,431,433,-1,432,433,434,-1,434,433,435,-1,434,435,436,-1,436,435,437,-1,436,437,438,-1,438,437,439,-1,438,439,440,-1,440,439,441,-1,442,440,443,-1,443,440,441,-1,444,442,445,-1,445,442,443,-1,446,444,447,-1,447,444,445,-1,446,447,448,-1,446,448,449,-1,449,448,450,-1,449,450,451,-1,451,450,452,-1,451,452,453,-1,453,452,454,-1,453,454,455,-1,455,454,456,-1,455,456,457,-1,457,456,458,-1,457,458,459,-1,459,458,460,-1,459,460,461,-1,461,460,397,-1,461,397,396,-1,398,416,396,-1,396,416,414,-1,396,414,461,-1,461,414,430,-1,461,430,459,-1,459,430,432,-1,438,451,436,-1,436,451,453,-1,436,453,434,-1,434,453,455,-1,434,455,432,-1,432,455,457,-1,432,457,459,-1,442,444,440,-1,440,444,446,-1,440,446,438,-1,438,446,449,-1,438,449,451,-1,415,399,413,-1,413,399,397,-1,413,397,431,-1,445,443,447,-1,447,443,441,-1,447,441,448,-1,448,441,439,-1,448,439,450,-1,450,439,437,-1,397,460,431,-1,431,460,458,-1,431,458,433,-1,433,458,456,-1,433,456,435,-1,435,456,454,-1,435,454,437,-1,437,454,452,-1,437,452,450,-1,399,415,420,-1,399,420,400,-1,400,420,421,-1,400,421,401,-1,401,421,429,-1,401,429,402,-1,402,429,428,-1,402,428,407,-1,407,428,427,-1,407,427,406,-1,406,427,426,-1,406,426,405,-1,405,426,425,-1,405,425,408,-1,416,398,403,-1,416,403,417,-1,417,403,404,-1,417,404,418,-1,418,404,412,-1,418,412,419,-1,419,412,411,-1,419,411,424,-1,424,411,410,-1,424,410,423,-1,423,410,409,-1,423,409,422,-1,422,409,408,-1,422,408,425,-1,462,463,464,-1,464,463,465,-1,465,466,464,-1,464,466,467,-1,464,467,468,-1,468,467,469,-1,467,470,469,-1,469,470,471,-1,469,471,472,-1,472,473,469,-1,469,473,474,-1,469,474,475,-1,475,476,469,-1,469,476,477,-1,469,477,478,-1,479,480,481,-1,481,480,482,-1,482,483,481,-1,481,483,484,-1,481,484,485,-1,485,484,486,-1,484,487,486,-1,486,487,488,-1,486,488,489,-1,489,490,486,-1,486,490,491,-1,486,491,492,-1,492,493,486,-1,486,493,494,-1,486,494,495,-1,480,479,496,-1,496,479,497,-1,496,497,498,-1,498,497,499,-1,498,499,500,-1,500,499,501,-1,500,501,502,-1,502,501,503,-1,502,503,504,-1,504,503,505,-1,504,505,506,-1,506,505,507,-1,508,506,509,-1,509,506,507,-1,510,508,511,-1,511,508,509,-1,512,510,513,-1,513,510,511,-1,512,513,514,-1,512,514,515,-1,515,514,516,-1,515,516,517,-1,517,516,518,-1,517,518,519,-1,519,518,520,-1,519,520,521,-1,521,520,522,-1,521,522,523,-1,523,522,524,-1,523,524,525,-1,525,524,526,-1,525,526,527,-1,527,526,463,-1,527,463,462,-1,464,482,462,-1,462,482,480,-1,462,480,527,-1,527,480,496,-1,527,496,525,-1,525,496,498,-1,504,517,502,-1,502,517,519,-1,502,519,500,-1,500,519,521,-1,500,521,498,-1,498,521,523,-1,498,523,525,-1,508,510,506,-1,506,510,512,-1,506,512,504,-1,504,512,515,-1,504,515,517,-1,481,465,479,-1,479,465,463,-1,479,463,497,-1,511,509,513,-1,513,509,507,-1,513,507,514,-1,514,507,505,-1,514,505,516,-1,516,505,503,-1,463,526,497,-1,497,526,524,-1,497,524,499,-1,499,524,522,-1,499,522,501,-1,501,522,520,-1,501,520,503,-1,503,520,518,-1,503,518,516,-1,465,481,485,-1,465,485,466,-1,466,485,486,-1,466,486,467,-1,467,486,495,-1,467,495,470,-1,470,495,494,-1,470,494,471,-1,471,494,493,-1,471,493,472,-1,472,493,492,-1,472,492,473,-1,473,492,491,-1,473,491,474,-1,482,464,468,-1,482,468,483,-1,483,468,469,-1,483,469,484,-1,484,469,478,-1,484,478,487,-1,487,478,477,-1,487,477,488,-1,488,477,476,-1,488,476,489,-1,489,476,475,-1,489,475,490,-1,490,475,474,-1,490,474,491,-1,528,529,530,-1,530,529,531,-1,532,529,533,-1,533,529,528,-1,534,532,535,-1,535,532,533,-1,536,534,537,-1,537,534,535,-1,536,537,538,-1,538,537,539,-1,531,529,540,-1,540,529,532,-1,540,532,541,-1,541,532,534,-1,541,534,538,-1,538,534,536,-1,539,537,542,-1,542,537,535,-1,542,535,543,-1,543,535,533,-1,543,533,530,-1,530,533,528,-1,530,531,543,-1,543,531,540,-1,543,540,542,-1,542,540,541,-1,542,541,539,-1,539,541,538,-1,544,545,546,-1,546,545,547,-1,544,548,545,-1,545,548,549,-1,550,551,552,-1,552,551,553,-1,554,551,555,-1,555,551,550,-1,548,554,549,-1,549,554,555,-1,553,551,556,-1,556,551,554,-1,556,554,557,-1,557,554,548,-1,557,548,546,-1,546,548,544,-1,547,545,558,-1,558,545,549,-1,558,549,559,-1,559,549,555,-1,559,555,552,-1,552,555,550,-1,559,556,558,-1,558,556,557,-1,558,557,547,-1,547,557,546,-1,552,553,559,-1,559,553,556,-1,560,561,562,-1,562,561,563,-1,564,561,565,-1,565,561,560,-1,566,564,567,-1,567,564,565,-1,568,566,569,-1,569,566,567,-1,568,569,570,-1,570,569,571,-1,563,561,572,-1,572,561,564,-1,572,564,573,-1,573,564,566,-1,573,566,570,-1,570,566,568,-1,571,569,574,-1,574,569,567,-1,574,567,575,-1,575,567,565,-1,575,565,562,-1,562,565,560,-1,562,563,575,-1,575,563,572,-1,575,572,574,-1,574,572,573,-1,574,573,571,-1,571,573,570,-1,576,577,578,-1,578,577,579,-1,576,580,577,-1,577,580,581,-1,582,583,584,-1,584,583,585,-1,586,583,587,-1,587,583,582,-1,580,586,581,-1,581,586,587,-1,585,583,588,-1,588,583,586,-1,588,586,589,-1,589,586,580,-1,589,580,578,-1,578,580,576,-1,579,577,590,-1,590,577,581,-1,590,581,591,-1,591,581,587,-1,591,587,584,-1,584,587,582,-1,591,588,590,-1,590,588,589,-1,590,589,579,-1,579,589,578,-1,584,585,591,-1,591,585,588,-1,592,593,594,-1,594,593,595,-1,596,593,597,-1,597,593,592,-1,598,596,599,-1,599,596,597,-1,600,598,601,-1,601,598,599,-1,600,601,602,-1,602,601,603,-1,595,593,604,-1,604,593,596,-1,604,596,605,-1,605,596,598,-1,605,598,602,-1,602,598,600,-1,603,601,606,-1,606,601,599,-1,606,599,607,-1,607,599,597,-1,607,597,594,-1,594,597,592,-1,594,595,607,-1,607,595,604,-1,607,604,606,-1,606,604,605,-1,606,605,603,-1,603,605,602,-1,608,609,610,-1,610,609,611,-1,608,612,609,-1,609,612,613,-1,614,615,616,-1,616,615,617,-1,618,615,619,-1,619,615,614,-1,612,618,613,-1,613,618,619,-1,617,615,620,-1,620,615,618,-1,620,618,621,-1,621,618,612,-1,621,612,610,-1,610,612,608,-1,611,609,622,-1,622,609,613,-1,622,613,623,-1,623,613,619,-1,623,619,616,-1,616,619,614,-1,623,620,622,-1,622,620,621,-1,622,621,611,-1,611,621,610,-1,616,617,623,-1,623,617,620,-1,624,625,626,-1,626,625,627,-1,628,625,629,-1,629,625,624,-1,630,628,631,-1,631,628,629,-1,632,630,633,-1,633,630,631,-1,632,633,634,-1,634,633,635,-1,627,625,636,-1,636,625,628,-1,636,628,637,-1,637,628,630,-1,637,630,634,-1,634,630,632,-1,635,633,638,-1,638,633,631,-1,638,631,639,-1,639,631,629,-1,639,629,626,-1,626,629,624,-1,626,627,639,-1,639,627,636,-1,639,636,638,-1,638,636,637,-1,638,637,635,-1,635,637,634,-1,640,641,642,-1,642,641,643,-1,640,644,641,-1,641,644,645,-1,646,647,648,-1,648,647,649,-1,650,647,651,-1,651,647,646,-1,644,650,645,-1,645,650,651,-1,649,647,652,-1,652,647,650,-1,652,650,653,-1,653,650,644,-1,653,644,642,-1,642,644,640,-1,643,641,654,-1,654,641,645,-1,654,645,655,-1,655,645,651,-1,655,651,648,-1,648,651,646,-1,655,652,654,-1,654,652,653,-1,654,653,643,-1,643,653,642,-1,648,649,655,-1,655,649,652,-1,656,657,658,-1,658,657,659,-1,660,657,661,-1,661,657,656,-1,662,660,663,-1,663,660,661,-1,664,662,665,-1,665,662,663,-1,664,665,666,-1,666,665,667,-1,659,657,668,-1,668,657,660,-1,668,660,669,-1,669,660,662,-1,669,662,666,-1,666,662,664,-1,667,665,670,-1,670,665,663,-1,670,663,671,-1,671,663,661,-1,671,661,658,-1,658,661,656,-1,658,659,671,-1,671,659,668,-1,671,668,670,-1,670,668,669,-1,670,669,667,-1,667,669,666,-1,672,673,674,-1,674,673,675,-1,672,676,673,-1,673,676,677,-1,678,679,680,-1,680,679,681,-1,682,679,683,-1,683,679,678,-1,676,682,677,-1,677,682,683,-1,681,679,684,-1,684,679,682,-1,684,682,685,-1,685,682,676,-1,685,676,674,-1,674,676,672,-1,675,673,686,-1,686,673,677,-1,686,677,687,-1,687,677,683,-1,687,683,680,-1,680,683,678,-1,687,684,686,-1,686,684,685,-1,686,685,675,-1,675,685,674,-1,680,681,687,-1,687,681,684,-1,
        ]
    }
}