#VRML V2.0 utf8
# 3D model generated by easyeda2kicad.py (https://github.com/uPesy/easyeda2kicad.py)

Shape{
    appearance Appearance {
        material  Material 	{
            diffuseColor 0.25098039215686274 0.25098039215686274 0.25098039215686274
            specularColor 0.12549019607843137 0.12549019607843137 0.12549019607843137
            ambientIntensity 0.2
            transparency 0
            shininess 0.5
        }
    }
    geometry IndexedFaceSet {
        ccw TRUE
        solid FALSE
        coord DEF co Coordinate {
            point [
                0.1246 -0.374 0.1181, 0.0 -0.374 0.1181, 0.0 0.168 0.1181, 0.3601 -0.374 0.1181, 0.1246 0.168 0.1181, 0.374 -0.126 0.1181, 0.3601 0.168 0.1181, 0.471 -0.374 0.1181, 0.471 -0.126 0.1181, 0.5574 -0.374 0.1181, 0.5574 -0.126 0.1181, 0.6618 -0.374 0.1181, 0.626 -0.126 0.1181, 0.6618 0.168 0.1181, 0.626 0.126 0.1181, 0.5574 0.168 0.1181, 0.5574 0.126 0.1181, 0.471 0.168 0.1181, 0.471 0.126 0.1181, 0.374 0.126 0.1181, 0.5689 0.2305 0.1181, 0.5689 0.2175 0.1181, 0.5574 0.2107 0.1181, 0.5815 0.2124 0.1181, 0.5863 0.3302 0.1181, 0.5826 0.33 0.1181, 0.5574 0.3302 0.1181, 0.5689 0.3263 0.1181, 0.5689 0.3104 0.1181, 0.5822 0.3161 0.1181, 0.5711 0.2293 0.1181, 0.5966 0.318 0.1181, 0.6082 0.3167 0.1181, 0.6171 0.3135 0.1181, 0.6253 0.308 0.1181, 0.6324 0.3002 0.1181, 0.641 0.2692 0.1181, 0.6398 0.2564 0.1181, 0.6366 0.2463 0.1181, 0.6103 0.2242 0.1181, 0.5993 0.2229 0.1181, 0.6189 0.2273 0.1181, 0.6261 0.2322 0.1181, 0.6317 0.2381 0.1181, 0.5836 0.2247 0.1181, 0.6373 0.291 0.1181, 0.6404 0.2784 0.1181, 0.5967 0.331 0.1181, 0.5574 0.374 0.1181, 0.6056 0.3302 0.1181, 0.6618 0.374 0.1181, 0.6506 0.2984 0.1181, 0.6437 0.3095 0.1181, 0.6618 0.3302 0.1181, 0.6274 0.2154 0.1181, 0.6369 0.2215 0.1181, 0.6618 0.2107 0.1181, 0.6458 0.2308 0.1181, 0.6521 0.2421 0.1181, 0.633 0.3197 0.1181, 0.6218 0.3262 0.1181, 0.6086 0.33 0.1181, 0.6557 0.2546 0.1181, 0.6568 0.2682 0.1181, 0.6551 0.285 0.1181, 0.5935 0.2107 0.1181, 0.5982 0.21 0.1181, 0.6014 0.21 0.1181, 0.6084 0.2107 0.1181, 0.616 0.2115 0.1181, 0.3601 0.2107 0.1181, 0.471 0.2107 0.1181, 0.0 0.2107 0.1181, 0.1246 0.2107 0.1181, 0.7115 0.3295 0.1181, 0.7274 0.3295 0.1181, 1.0 0.3302 0.1181, 0.7274 0.2114 0.1181, 1.0 0.2107 0.1181, 1.0 0.168 0.1181, 1.0 -0.374 0.1181, 0.7115 0.2244 0.1181, 0.6669 0.2244 0.1181, 0.6669 0.2114 0.1181, 0.4825 0.2244 0.1181, 0.4825 0.2114 0.1181, 0.5459 0.2114 0.1181, 0.5459 0.3295 0.1181, 0.4854 0.3295 0.1181, 0.471 0.3302 0.1181, 0.4854 0.3166 0.1181, 0.4883 0.2647 0.1181, 0.5301 0.2647 0.1181, 0.5301 0.2244 0.1181, 0.4883 0.2777 0.1181, 0.5301 0.2777 0.1181, 0.5301 0.3166 0.1181, 0.3703 0.2438 0.1181, 0.3771 0.2332 0.1181, 0.3868 0.2239 0.1181, 0.3991 0.2167 0.1181, 0.4261 0.3295 0.1181, 0.3601 0.3302 0.1181, 0.4091 0.3277 0.1181, 0.3953 0.3228 0.1181, 0.3824 0.3142 0.1181, 0.3823 0.3141 0.1181, 0.3739 0.3049 0.1181, 0.3684 0.2947 0.1181, 0.4127 0.2127 0.1181, 0.4274 0.2114 0.1181, 0.4595 0.2114 0.1181, 0.4595 0.3295 0.1181, 0.3653 0.2831 0.1181, 0.3644 0.272 0.1181, 0.3661 0.2561 0.1181, 0.2784 0.2445 0.1181, 0.3272 0.2445 0.1181, 0.2665 0.2114 0.1181, 0.3385 0.2114 0.1181, 0.3558 0.2114 0.1181, 0.2953 0.3295 0.1181, 0.2492 0.2114 0.1181, 0.0 0.3302 0.1181, 0.1246 0.3302 0.1181, 0.3111 0.3295 0.1181, 1.0 0.374 0.1181, 0.0 0.374 0.1181, 0.1246 0.374 0.1181, 0.3601 0.374 0.1181, 0.471 0.374 0.1181, 0.1181 -0.4921 0.0, 0.0 -0.374 0.0, 0.374 -0.4921 0.0, 0.374 -0.374 0.0, 0.626 -0.374 0.0, 1.0 -0.374 0.0, 0.626 -0.4921 0.0, 0.8819 -0.4921 0.0, 0.1181 -0.4921 0.9843, 0.0 -0.374 0.9843, 0.0 0.374 0.9843, 0.1181 0.4921 0.9843, 0.1181 0.4921 0.0, 0.0 0.374 0.0, 0.8819 0.4921 0.0, 0.8819 0.4921 0.9843, 1.0 0.374 0.9843, 1.0 0.374 0.0, 1.0 -0.374 0.9843, 0.8819 -0.4921 0.9843, 0.626 -0.126 0.9843, 0.374 -0.126 0.9843, 0.626 0.126 0.9843, 0.374 0.126 0.9843, 0.374 0.126 0.9843
            ]
        }
        coordIndex [
            0,1,2,-1,3,0,4,-1,5,3,6,-1,3,5,7,-1,7,5,8,-1,7,8,9,-1,9,8,10,-1,9,10,11,-1,11,10,12,-1,11,12,13,-1,13,12,14,-1,13,14,15,-1,15,14,16,-1,15,16,17,-1,17,16,18,-1,17,18,6,-1,6,18,19,-1,6,19,5,-1,20,21,22,-1,22,21,23,-1,24,25,26,-1,26,25,27,-1,26,27,28,-1,20,29,30,-1,30,29,31,-1,30,31,32,-1,32,33,30,-1,30,33,34,-1,30,34,35,-1,36,37,30,-1,30,37,38,-1,39,40,41,-1,41,40,42,-1,38,43,30,-1,30,43,42,-1,30,42,44,-1,44,42,40,-1,35,45,30,-1,30,45,46,-1,30,46,36,-1,47,48,49,-1,49,48,50,-1,51,52,53,-1,54,55,56,-1,56,55,57,-1,56,57,58,-1,52,59,53,-1,53,59,60,-1,53,60,61,-1,58,62,56,-1,56,62,63,-1,56,63,53,-1,53,63,64,-1,53,64,51,-1,65,66,15,-1,15,66,67,-1,15,67,13,-1,13,67,68,-1,13,68,56,-1,56,68,69,-1,56,69,54,-1,6,70,17,-1,17,70,71,-1,17,71,15,-1,15,71,22,-1,15,22,65,-1,65,22,23,-1,0,2,4,-1,4,2,72,-1,4,72,73,-1,74,53,75,-1,75,53,76,-1,75,76,77,-1,77,76,78,-1,77,78,56,-1,56,78,79,-1,56,79,13,-1,13,79,80,-1,13,80,11,-1,74,81,53,-1,53,81,82,-1,53,82,56,-1,56,82,83,-1,56,83,77,-1,84,85,71,-1,71,85,86,-1,71,86,22,-1,22,86,26,-1,22,26,20,-1,20,26,28,-1,20,28,29,-1,86,87,26,-1,26,87,88,-1,26,88,89,-1,89,88,90,-1,89,90,71,-1,91,92,93,-1,93,84,91,-1,91,84,71,-1,91,71,94,-1,94,71,90,-1,94,90,95,-1,95,90,96,-1,97,98,70,-1,70,98,99,-1,70,99,100,-1,101,102,89,-1,101,103,102,-1,102,103,104,-1,102,104,105,-1,105,106,102,-1,102,106,107,-1,102,107,108,-1,100,109,70,-1,70,109,110,-1,70,110,71,-1,71,110,111,-1,71,111,89,-1,89,111,112,-1,89,112,101,-1,108,113,102,-1,102,113,114,-1,102,114,70,-1,70,114,115,-1,70,115,97,-1,116,117,118,-1,118,117,119,-1,118,119,70,-1,70,119,120,-1,70,120,102,-1,121,122,73,-1,3,4,6,-1,6,4,73,-1,6,73,70,-1,70,73,122,-1,70,122,118,-1,72,123,73,-1,73,123,124,-1,73,124,121,-1,121,124,102,-1,121,102,125,-1,125,102,120,-1,61,49,53,-1,53,49,50,-1,53,50,76,-1,76,50,126,-1,123,127,124,-1,124,127,128,-1,124,128,102,-1,102,128,129,-1,102,129,89,-1,89,129,130,-1,89,130,26,-1,26,130,48,-1,26,48,24,-1,24,48,47,-1,131,132,133,-1,133,132,134,-1,135,136,137,-1,137,136,138,-1,139,140,131,-1,131,140,1,-1,131,1,132,-1,141,127,123,-1,1,140,2,-1,2,140,141,-1,2,141,72,-1,72,141,123,-1,141,142,127,-1,127,142,143,-1,127,143,144,-1,145,143,146,-1,146,143,142,-1,146,147,145,-1,145,147,126,-1,145,126,148,-1,149,80,147,-1,147,80,79,-1,79,78,147,-1,147,78,76,-1,147,76,126,-1,149,150,80,-1,80,150,138,-1,80,138,136,-1,138,150,137,-1,137,150,139,-1,137,139,133,-1,133,139,131,-1,144,143,148,-1,148,143,145,-1,150,151,139,-1,139,151,152,-1,150,149,151,-1,151,149,147,-1,151,147,153,-1,153,147,146,-1,153,146,154,-1,154,146,142,-1,154,142,152,-1,152,142,141,-1,152,141,139,-1,139,141,140,-1,80,136,11,-1,11,136,135,-1,132,1,0,-1,132,0,134,-1,0,3,134,-1,134,3,7,-1,134,7,135,-1,135,7,9,-1,135,9,11,-1,128,127,144,-1,148,126,50,-1,50,48,148,-1,148,48,130,-1,148,130,144,-1,144,130,129,-1,144,129,128,-1,
        ]
    }
}
Shape{
    appearance Appearance {
        material  Material 	{
            diffuseColor 0.7529411764705882 0.7529411764705882 0.7529411764705882
            specularColor 0.3764705882352941 0.3764705882352941 0.3764705882352941
            ambientIntensity 0.2
            transparency 0
            shininess 0.5
        }
    }
    geometry IndexedFaceSet {
        ccw TRUE
        solid FALSE
        coord DEF co Coordinate {
            point [
                0.626 -0.126 0.0118, 0.374 -0.126 0.0118, 0.626 -0.1264 0.0088, 0.374 -0.1264 0.0088, 0.626 -0.1276 0.0059, 0.374 -0.1276 0.0059, 0.626 -0.1294 0.0035, 0.374 -0.1294 0.0035, 0.626 -0.1319 0.0016, 0.374 -0.1319 0.0016, 0.626 -0.1347 0.0004, 0.374 -0.1347 0.0004, 0.626 -0.1378 0.0, 0.374 -0.1378 0.0, 0.4422 -0.9449 -0.0682, 0.4422 -0.9449 -0.1838, 0.5578 -0.9449 -0.0682, 0.5578 -0.9449 -0.1838, 0.374 -0.8268 -0.252, 0.374 -0.1378 -0.252, 0.626 -0.8268 -0.252, 0.626 -0.1378 -0.252, 0.374 -0.0695 -0.243, 0.626 -0.0695 -0.243, 0.374 -0.0059 -0.2166, 0.626 -0.0059 -0.2166, 0.374 0.0487 -0.1747, 0.626 0.0487 -0.1747, 0.374 0.0906 -0.1201, 0.626 0.0906 -0.1201, 0.374 0.117 -0.0565, 0.626 0.117 -0.0565, 0.374 0.126 0.0118, 0.626 0.126 0.0118, 0.374 -0.126 0.1181, 0.374 0.126 0.1181, 0.374 -0.374 0.0, 0.374 -0.4921 0.0, 0.374 -0.8268 0.0, 0.626 0.126 0.1181, 0.626 -0.126 0.1181, 0.626 -0.374 0.0, 0.626 -0.4921 0.0, 0.626 -0.8268 0.0, 0.5574 -0.126 0.1181, 0.471 -0.126 0.1181, 0.471 0.126 0.1181, 0.5574 0.126 0.1181, 0.626 0.126 3.2283, 0.626 0.126 0.9843, 0.374 0.126 3.2283, 0.374 0.126 0.9843, 0.4422 0.0578 3.3465, 0.4422 -0.0578 3.3465, 0.5578 0.0578 3.3465, 0.5578 -0.0578 3.3465, 0.374 -0.126 3.2283, 0.374 -0.126 0.9843, 0.626 -0.126 3.2283, 0.626 -0.126 0.9843, 0.3232 0.2575 0.122, 0.3272 0.2445 0.122, 0.2837 0.2575 0.122, 0.2784 0.2445 0.122, 0.3056 0.3068 0.122, 0.3111 0.3295 0.122, 0.3558 0.2114 0.122, 0.3385 0.2114 0.122, 0.3045 0.3109 0.122, 0.3037 0.3151 0.122, 0.2953 0.3295 0.122, 0.3033 0.3151 0.122, 0.3026 0.3109 0.122, 0.3015 0.3068 0.122, 0.2492 0.2114 0.122, 0.2665 0.2114 0.122, 0.2784 0.2445 0.1181, 0.2665 0.2114 0.1181, 0.3272 0.2445 0.1181, 0.3385 0.2114 0.1181, 0.3558 0.2114 0.1181, 0.3111 0.3295 0.1181, 0.2953 0.3295 0.1181, 0.2492 0.2114 0.1181, 0.3015 0.3068 0.1181, 0.3026 0.3109 0.1181, 0.3033 0.3151 0.1181, 0.3037 0.3151 0.1181, 0.3045 0.3109 0.1181, 0.3056 0.3068 0.1181, 0.3232 0.2575 0.1181, 0.2837 0.2575 0.1181, 0.4261 0.3295 0.122, 0.4261 0.3295 0.1181, 0.4595 0.3295 0.122, 0.4595 0.3295 0.1181, 0.4091 0.3277 0.122, 0.4091 0.3277 0.1181, 0.3953 0.3228 0.122, 0.3953 0.3228 0.1181, 0.3824 0.3142 0.122, 0.3824 0.3142 0.1181, 0.3823 0.3141 0.122, 0.3823 0.3141 0.1181, 0.3739 0.3049 0.122, 0.3739 0.3049 0.1181, 0.3684 0.2947 0.122, 0.3684 0.2947 0.1181, 0.3653 0.2831 0.122, 0.3653 0.2831 0.1181, 0.3644 0.272 0.122, 0.3644 0.272 0.1181, 0.3661 0.2561 0.122, 0.3661 0.2561 0.1181, 0.3703 0.2438 0.122, 0.3703 0.2438 0.1181, 0.3771 0.2332 0.122, 0.3771 0.2332 0.1181, 0.3868 0.2239 0.122, 0.3868 0.2239 0.1181, 0.3991 0.2167 0.122, 0.3991 0.2167 0.1181, 0.4127 0.2127 0.122, 0.4127 0.2127 0.1181, 0.4274 0.2114 0.122, 0.4274 0.2114 0.1181, 0.4595 0.2114 0.122, 0.4595 0.2114 0.1181, 0.3881 0.3 0.122, 0.3939 0.3061 0.122, 0.4025 0.3117 0.122, 0.4122 0.3151 0.122, 0.4262 0.3166 0.122, 0.4436 0.3166 0.122, 0.4436 0.2244 0.122, 0.4269 0.2244 0.122, 0.4144 0.2255 0.122, 0.4045 0.2286 0.122, 0.3964 0.2334 0.122, 0.3898 0.24 0.122, 0.3848 0.2481 0.122, 0.3813 0.2592 0.122, 0.3803 0.2716 0.122, 0.3813 0.2834 0.122, 0.384 0.2927 0.122, 0.4269 0.2244 0.1181, 0.4436 0.2244 0.1181, 0.4144 0.2255 0.1181, 0.4045 0.2286 0.1181, 0.3964 0.2334 0.1181, 0.3898 0.24 0.1181, 0.3848 0.2481 0.1181, 0.3813 0.2592 0.1181, 0.3803 0.2716 0.1181, 0.3813 0.2834 0.1181, 0.384 0.2927 0.1181, 0.3881 0.3 0.1181, 0.3939 0.3061 0.1181, 0.4025 0.3117 0.1181, 0.4122 0.3151 0.1181, 0.4262 0.3166 0.1181, 0.4436 0.3166 0.1181, 0.5459 0.3295 0.122, 0.5459 0.3295 0.1181, 0.5459 0.2114 0.122, 0.5459 0.2114 0.1181, 0.4854 0.3295 0.122, 0.4854 0.3295 0.1181, 0.4854 0.3166 0.122, 0.4854 0.3166 0.1181, 0.5301 0.3166 0.122, 0.5301 0.3166 0.1181, 0.5301 0.2777 0.122, 0.5301 0.2777 0.1181, 0.4883 0.2777 0.122, 0.4883 0.2777 0.1181, 0.4883 0.2647 0.122, 0.4883 0.2647 0.1181, 0.5301 0.2647 0.122, 0.5301 0.2647 0.1181, 0.5301 0.2244 0.122, 0.5301 0.2244 0.1181, 0.4825 0.2244 0.122, 0.4825 0.2244 0.1181, 0.4825 0.2114 0.122, 0.4825 0.2114 0.1181, 0.6084 0.2107 0.1181, 0.6014 0.21 0.1181, 0.6014 0.21 0.122, 0.616 0.2115 0.1181, 0.616 0.2115 0.122, 0.6274 0.2154 0.122, 0.6274 0.2154 0.1181, 0.6369 0.2215 0.122, 0.6369 0.2215 0.1181, 0.6458 0.2308 0.122, 0.6458 0.2308 0.1181, 0.6521 0.2421 0.122, 0.6521 0.2421 0.1181, 0.6557 0.2546 0.122, 0.6557 0.2546 0.1181, 0.6568 0.2682 0.122, 0.6568 0.2682 0.1181, 0.6551 0.285 0.122, 0.6551 0.285 0.1181, 0.6506 0.2984 0.122, 0.6506 0.2984 0.1181, 0.6437 0.3095 0.122, 0.6437 0.3095 0.1181, 0.633 0.3197 0.122, 0.633 0.3197 0.1181, 0.6218 0.3262 0.122, 0.6218 0.3262 0.1181, 0.6086 0.33 0.122, 0.6086 0.33 0.1181, 0.5967 0.331 0.122, 0.5967 0.331 0.1181, 0.6056 0.3302 0.1181, 0.5863 0.3302 0.1181, 0.5826 0.33 0.122, 0.5826 0.33 0.1181, 0.5689 0.3263 0.122, 0.5689 0.3263 0.1181, 0.5689 0.3104 0.122, 0.5689 0.3104 0.1181, 0.5822 0.3161 0.122, 0.5822 0.3161 0.1181, 0.5966 0.318 0.122, 0.5966 0.318 0.1181, 0.6082 0.3167 0.122, 0.6082 0.3167 0.1181, 0.6171 0.3135 0.122, 0.6171 0.3135 0.1181, 0.6253 0.308 0.122, 0.6253 0.308 0.1181, 0.6324 0.3002 0.122, 0.6324 0.3002 0.1181, 0.6373 0.291 0.122, 0.6373 0.291 0.1181, 0.6404 0.2784 0.122, 0.6404 0.2784 0.1181, 0.641 0.2692 0.122, 0.641 0.2692 0.1181, 0.6398 0.2564 0.122, 0.6398 0.2564 0.1181, 0.6366 0.2463 0.122, 0.6366 0.2463 0.1181, 0.6317 0.2381 0.122, 0.6317 0.2381 0.1181, 0.6261 0.2322 0.122, 0.6261 0.2322 0.1181, 0.6189 0.2273 0.122, 0.6189 0.2273 0.1181, 0.6103 0.2242 0.122, 0.6103 0.2242 0.1181, 0.5993 0.2229 0.122, 0.5993 0.2229 0.1181, 0.5836 0.2247 0.122, 0.5836 0.2247 0.1181, 0.5711 0.2293 0.122, 0.5711 0.2293 0.1181, 0.5689 0.2305 0.122, 0.5689 0.2305 0.1181, 0.5689 0.2175 0.122, 0.5689 0.2175 0.1181, 0.5815 0.2124 0.1181, 0.5815 0.2124 0.122, 0.5935 0.2107 0.1181, 0.5982 0.21 0.122, 0.5982 0.21 0.1181, 0.7274 0.3295 0.122, 0.7274 0.3295 0.1181, 0.7274 0.2114 0.122, 0.7274 0.2114 0.1181, 0.7115 0.3295 0.122, 0.7115 0.3295 0.1181, 0.7115 0.2244 0.122, 0.7115 0.2244 0.1181, 0.6669 0.2244 0.122, 0.6669 0.2244 0.1181, 0.6669 0.2114 0.122, 0.6669 0.2114 0.1181, 0.6669 0.2114 0.1181
            ]
        }
        coordIndex [
            0,1,2,-1,2,1,3,-1,2,3,4,-1,4,3,5,-1,4,5,6,-1,6,5,7,-1,6,7,8,-1,8,7,9,-1,8,9,10,-1,10,9,11,-1,10,11,12,-1,12,11,13,-1,14,15,16,-1,16,15,17,-1,18,19,20,-1,20,19,21,-1,21,19,22,-1,21,22,23,-1,23,22,24,-1,23,24,25,-1,25,24,26,-1,25,26,27,-1,27,26,28,-1,27,28,29,-1,29,28,30,-1,29,30,31,-1,31,30,32,-1,31,32,33,-1,34,35,1,-1,1,35,32,-1,1,32,3,-1,3,32,30,-1,3,30,5,-1,5,30,28,-1,5,28,7,-1,7,28,26,-1,7,26,9,-1,9,26,24,-1,9,24,11,-1,11,24,22,-1,11,22,13,-1,13,22,19,-1,13,19,36,-1,36,19,37,-1,37,19,18,-1,37,18,38,-1,39,40,33,-1,33,40,0,-1,33,0,31,-1,31,0,2,-1,31,2,29,-1,29,2,4,-1,29,4,27,-1,27,4,6,-1,27,6,25,-1,25,6,8,-1,25,8,23,-1,23,8,10,-1,23,10,21,-1,10,12,21,-1,21,12,41,-1,21,41,20,-1,20,41,42,-1,20,42,43,-1,0,40,44,-1,0,44,1,-1,1,44,45,-1,1,45,34,-1,32,35,46,-1,32,46,33,-1,33,46,47,-1,33,47,39,-1,41,12,36,-1,36,12,13,-1,43,42,38,-1,38,42,37,-1,48,49,50,-1,50,49,51,-1,52,53,54,-1,54,53,55,-1,56,57,58,-1,58,57,59,-1,58,59,48,-1,48,59,49,-1,50,51,56,-1,56,51,57,-1,20,17,18,-1,18,17,15,-1,43,16,20,-1,20,16,17,-1,14,38,15,-1,15,38,18,-1,38,14,43,-1,43,14,16,-1,58,55,56,-1,56,55,53,-1,48,54,58,-1,58,54,55,-1,52,50,53,-1,53,50,56,-1,50,52,48,-1,48,52,54,-1,60,61,62,-1,62,61,63,-1,64,65,60,-1,60,65,66,-1,60,66,61,-1,61,66,67,-1,64,68,65,-1,65,68,69,-1,65,69,70,-1,70,69,71,-1,70,71,72,-1,72,73,70,-1,70,73,62,-1,70,62,74,-1,74,62,63,-1,74,63,75,-1,63,76,75,-1,75,76,77,-1,61,78,63,-1,63,78,76,-1,67,79,61,-1,61,79,78,-1,66,80,67,-1,67,80,79,-1,65,81,66,-1,66,81,80,-1,70,82,65,-1,65,82,81,-1,74,83,70,-1,70,83,82,-1,74,75,83,-1,83,75,77,-1,84,73,72,-1,84,72,85,-1,85,72,71,-1,85,71,86,-1,69,87,71,-1,71,87,86,-1,87,69,68,-1,87,68,88,-1,88,68,64,-1,88,64,89,-1,60,90,64,-1,64,90,89,-1,62,91,60,-1,60,91,90,-1,84,91,73,-1,73,91,62,-1,92,93,94,-1,94,93,95,-1,93,92,96,-1,93,96,97,-1,97,96,98,-1,97,98,99,-1,99,98,100,-1,99,100,101,-1,101,100,102,-1,101,102,103,-1,103,102,104,-1,103,104,105,-1,105,104,106,-1,105,106,107,-1,107,106,108,-1,107,108,109,-1,109,108,110,-1,109,110,111,-1,111,110,112,-1,111,112,113,-1,113,112,114,-1,113,114,115,-1,115,114,116,-1,115,116,117,-1,117,116,118,-1,117,118,119,-1,119,118,120,-1,119,120,121,-1,121,120,122,-1,121,122,123,-1,123,122,124,-1,123,124,125,-1,126,127,124,-1,124,127,125,-1,126,94,127,-1,127,94,95,-1,106,104,128,-1,128,104,102,-1,128,102,129,-1,129,102,100,-1,129,100,130,-1,130,100,98,-1,130,98,131,-1,131,98,96,-1,131,96,132,-1,132,96,92,-1,132,92,133,-1,133,92,94,-1,133,94,134,-1,134,94,126,-1,134,126,135,-1,135,126,124,-1,135,124,136,-1,136,124,122,-1,136,122,137,-1,137,122,120,-1,137,120,138,-1,138,120,118,-1,138,118,139,-1,139,118,116,-1,139,116,140,-1,140,116,114,-1,140,114,141,-1,141,114,112,-1,141,112,142,-1,142,112,110,-1,142,110,143,-1,143,110,108,-1,143,108,144,-1,144,108,106,-1,144,106,128,-1,135,145,134,-1,134,145,146,-1,145,135,136,-1,145,136,147,-1,147,136,137,-1,147,137,148,-1,148,137,138,-1,148,138,149,-1,149,138,139,-1,149,139,150,-1,150,139,140,-1,150,140,151,-1,151,140,141,-1,151,141,152,-1,152,141,142,-1,152,142,153,-1,153,142,143,-1,153,143,154,-1,154,143,144,-1,154,144,155,-1,155,144,128,-1,155,128,156,-1,156,128,129,-1,156,129,157,-1,157,129,130,-1,157,130,158,-1,158,130,131,-1,158,131,159,-1,159,131,132,-1,159,132,160,-1,133,161,132,-1,132,161,160,-1,146,161,134,-1,134,161,133,-1,162,163,164,-1,164,163,165,-1,166,167,162,-1,162,167,163,-1,168,169,166,-1,166,169,167,-1,170,171,168,-1,168,171,169,-1,172,173,170,-1,170,173,171,-1,174,175,172,-1,172,175,173,-1,176,177,174,-1,174,177,175,-1,178,179,176,-1,176,179,177,-1,180,181,178,-1,178,181,179,-1,182,183,180,-1,180,183,181,-1,184,185,182,-1,182,185,183,-1,184,164,185,-1,185,164,165,-1,164,184,182,-1,182,180,164,-1,164,180,178,-1,164,178,162,-1,168,166,170,-1,170,166,162,-1,170,162,172,-1,172,162,178,-1,172,178,174,-1,174,178,176,-1,186,187,188,-1,186,188,189,-1,188,190,189,-1,189,190,191,-1,189,191,192,-1,192,191,193,-1,192,193,194,-1,194,193,195,-1,194,195,196,-1,196,195,197,-1,196,197,198,-1,198,197,199,-1,198,199,200,-1,200,199,201,-1,200,201,202,-1,202,201,203,-1,202,203,204,-1,204,203,205,-1,204,205,206,-1,206,205,207,-1,206,207,208,-1,208,207,209,-1,208,209,210,-1,210,209,211,-1,210,211,212,-1,212,211,213,-1,212,213,214,-1,215,216,213,-1,213,216,217,-1,213,217,214,-1,216,215,218,-1,218,215,219,-1,218,219,220,-1,220,219,221,-1,220,221,222,-1,223,224,221,-1,221,224,222,-1,224,223,225,-1,224,225,226,-1,226,225,227,-1,226,227,228,-1,228,227,229,-1,228,229,230,-1,230,229,231,-1,230,231,232,-1,232,231,233,-1,232,233,234,-1,234,233,235,-1,234,235,236,-1,236,235,237,-1,236,237,238,-1,238,237,239,-1,238,239,240,-1,240,239,241,-1,240,241,242,-1,242,241,243,-1,242,243,244,-1,244,243,245,-1,244,245,246,-1,246,245,247,-1,246,247,248,-1,248,247,249,-1,248,249,250,-1,250,249,251,-1,250,251,252,-1,252,251,253,-1,252,253,254,-1,254,253,255,-1,254,255,256,-1,256,255,257,-1,256,257,258,-1,258,257,259,-1,258,259,260,-1,260,259,261,-1,260,261,262,-1,263,264,261,-1,261,264,262,-1,265,264,266,-1,266,264,263,-1,265,266,267,-1,267,266,268,-1,267,268,269,-1,269,268,188,-1,269,188,187,-1,253,188,255,-1,255,188,268,-1,255,268,257,-1,257,268,266,-1,257,266,259,-1,259,266,263,-1,259,263,261,-1,223,221,225,-1,225,221,219,-1,225,219,227,-1,227,219,215,-1,227,215,229,-1,229,215,213,-1,229,213,231,-1,231,213,211,-1,231,211,233,-1,233,211,209,-1,233,209,235,-1,235,209,207,-1,235,207,237,-1,237,207,205,-1,237,205,239,-1,239,205,203,-1,239,203,241,-1,241,203,201,-1,241,201,243,-1,243,201,199,-1,243,199,245,-1,245,199,197,-1,245,197,247,-1,247,197,195,-1,247,195,249,-1,249,195,193,-1,249,193,251,-1,251,193,191,-1,251,191,253,-1,253,191,190,-1,253,190,188,-1,270,271,272,-1,272,271,273,-1,274,275,270,-1,270,275,271,-1,276,277,274,-1,274,277,275,-1,278,279,276,-1,276,279,277,-1,280,281,278,-1,278,281,279,-1,280,272,281,-1,281,272,273,-1,274,270,276,-1,276,270,272,-1,276,272,278,-1,278,272,280,-1,
        ]
    }
}
Shape{
    appearance Appearance {
        material  Material 	{
            diffuseColor 0.25098039215686274 0.25098039215686274 0.25098039215686274
            specularColor 0.12549019607843137 0.12549019607843137 0.12549019607843137
            ambientIntensity 0.2
            transparency 0
            shininess 0.5
        }
    }
    geometry IndexedFaceSet {
        ccw TRUE
        solid FALSE
        coord DEF co Coordinate {
            point [
                0.3232 0.2575 0.1181, 0.2837 0.2575 0.1181, 0.3056 0.3068 0.1181, 0.3015 0.3068 0.1181, 0.3045 0.3109 0.1181, 0.3026 0.3109 0.1181, 0.3037 0.3151 0.1181, 0.3033 0.3151 0.1181, 0.4436 0.3166 0.1181, 0.4436 0.2244 0.1181, 0.4262 0.3166 0.1181, 0.4269 0.2244 0.1181, 0.4144 0.2255 0.1181, 0.3803 0.2716 0.1181, 0.3813 0.2834 0.1181, 0.384 0.2927 0.1181, 0.4122 0.3151 0.1181, 0.4045 0.2286 0.1181, 0.3964 0.2334 0.1181, 0.3898 0.24 0.1181, 0.3848 0.2481 0.1181, 0.3813 0.2592 0.1181, 0.3881 0.3 0.1181, 0.3939 0.3061 0.1181, 0.4025 0.3117 0.1181, -1.0 0.374 0.0, -0.8819 0.4921 0.0, -0.626 0.374 0.0, -0.626 0.4921 0.0, 0.0 -0.374 0.0, -0.1181 -0.4921 0.0, -1.0 -0.374 0.0, -0.8819 -0.4921 0.0, 0.0 0.374 0.1181, 0.0 0.374 0.9843, 0.0 -0.374 0.1181, 0.0 -0.374 0.9843, -0.8819 0.4921 0.9843, -0.1181 0.4921 0.9843, -0.374 0.4921 0.0, -0.1181 0.4921 0.0, -1.0 -0.374 0.1181, -1.0 -0.374 0.9843, -1.0 0.374 0.1181, -1.0 0.374 0.9843, -0.1181 -0.4921 0.9843, -0.8819 -0.4921 0.9843, -0.374 -0.126 0.9843, -0.626 -0.126 0.9843, -0.626 0.126 0.9843, -0.374 0.126 0.9843, -0.374 0.374 0.0, 0.0 0.374 0.0, -0.374 0.126 0.1181, -0.374 -0.126 0.1181, -0.626 -0.126 0.1181, -0.626 0.126 0.1181, -0.626 0.126 0.1181
            ]
        }
        coordIndex [
            0,1,2,-1,2,1,3,-1,2,3,4,-1,4,3,5,-1,4,5,6,-1,6,5,7,-1,8,9,10,-1,10,9,11,-1,10,11,12,-1,13,14,10,-1,10,14,15,-1,10,15,16,-1,12,17,10,-1,10,17,18,-1,10,18,19,-1,19,20,10,-1,10,20,21,-1,10,21,13,-1,22,23,15,-1,15,23,24,-1,15,24,16,-1,25,26,27,-1,27,26,28,-1,29,30,31,-1,31,30,32,-1,33,34,35,-1,35,34,36,-1,26,37,28,-1,28,37,38,-1,28,38,39,-1,39,38,40,-1,41,42,43,-1,43,42,44,-1,45,46,30,-1,30,46,32,-1,45,47,46,-1,46,47,48,-1,46,48,42,-1,42,48,49,-1,42,49,44,-1,45,36,47,-1,47,36,34,-1,47,34,50,-1,50,34,38,-1,50,38,49,-1,49,38,37,-1,49,37,44,-1,39,40,51,-1,51,40,52,-1,36,45,35,-1,35,45,30,-1,35,30,29,-1,46,42,32,-1,32,42,41,-1,32,41,31,-1,44,37,43,-1,43,37,26,-1,43,26,25,-1,38,34,40,-1,40,34,33,-1,40,33,52,-1,41,35,31,-1,31,35,29,-1,51,52,33,-1,51,33,27,-1,27,33,43,-1,27,43,25,-1,53,33,54,-1,54,33,35,-1,54,35,55,-1,55,35,41,-1,55,41,56,-1,56,41,43,-1,56,43,53,-1,53,43,33,-1,
        ]
    }
}
Shape{
    appearance Appearance {
        material  Material 	{
            diffuseColor 0.7529411764705882 0.7529411764705882 0.7529411764705882
            specularColor 0.3764705882352941 0.3764705882352941 0.3764705882352941
            ambientIntensity 0.2
            transparency 0
            shininess 0.5
        }
    }
    geometry IndexedFaceSet {
        ccw TRUE
        solid FALSE
        coord DEF co Coordinate {
            point [
                -0.374 -0.126 0.0118, -0.626 -0.126 0.0118, -0.626 -0.117 -0.0565, -0.374 -0.117 -0.0565, -0.626 -0.0906 -0.1201, -0.374 -0.0906 -0.1201, -0.626 -0.0487 -0.1747, -0.374 -0.0487 -0.1747, -0.626 0.0059 -0.2166, -0.374 0.0059 -0.2166, -0.626 0.0695 -0.243, -0.374 0.0695 -0.243, -0.626 0.1378 -0.252, -0.374 0.1378 -0.252, -0.374 0.8268 -0.252, -0.626 0.8268 -0.252, -0.5578 0.9449 -0.1838, -0.5578 0.9449 -0.0682, -0.4422 0.9449 -0.1838, -0.4422 0.9449 -0.0682, -0.374 0.1378 0.0, -0.626 0.1378 0.0, -0.374 0.1347 0.0004, -0.626 0.1347 0.0004, -0.374 0.1319 0.0016, -0.626 0.1319 0.0016, -0.374 0.1294 0.0035, -0.626 0.1294 0.0035, -0.374 0.1276 0.0059, -0.626 0.1276 0.0059, -0.374 0.1264 0.0088, -0.626 0.1264 0.0088, -0.374 0.126 0.0118, -0.626 0.126 0.0118, -0.626 -0.126 0.1181, -0.626 0.126 0.1181, -0.626 0.374 0.0, -0.626 0.4921 0.0, -0.626 0.8268 0.0, -0.374 0.126 0.1181, -0.374 -0.126 0.1181, -0.374 0.374 0.0, -0.374 0.4921 0.0, -0.374 0.8268 0.0, -0.374 0.126 3.2283, -0.374 0.126 0.9843, -0.626 0.126 3.2283, -0.626 0.126 0.9843, -0.5578 0.0578 3.3465, -0.5578 -0.0578 3.3465, -0.4422 0.0578 3.3465, -0.4422 -0.0578 3.3465, -0.626 -0.126 3.2283, -0.626 -0.126 0.9843, -0.374 -0.126 3.2283, -0.374 -0.126 0.9843, -0.374 -0.126 0.9843
            ]
        }
        coordIndex [
            0,1,2,-1,0,2,3,-1,3,2,4,-1,3,4,5,-1,5,4,6,-1,5,6,7,-1,7,6,8,-1,7,8,9,-1,9,8,10,-1,9,10,11,-1,11,10,12,-1,11,12,13,-1,14,13,15,-1,15,13,12,-1,16,17,18,-1,18,17,19,-1,20,21,22,-1,22,21,23,-1,22,23,24,-1,24,23,25,-1,24,25,26,-1,26,25,27,-1,26,27,28,-1,28,27,29,-1,28,29,30,-1,30,29,31,-1,30,31,32,-1,32,31,33,-1,34,35,1,-1,1,35,33,-1,1,33,2,-1,2,33,31,-1,2,31,4,-1,4,31,29,-1,4,29,6,-1,6,29,27,-1,6,27,8,-1,8,27,25,-1,8,25,10,-1,10,25,23,-1,10,23,12,-1,23,21,12,-1,12,21,36,-1,12,36,15,-1,15,36,37,-1,15,37,38,-1,39,40,32,-1,32,40,0,-1,32,0,30,-1,30,0,3,-1,30,3,28,-1,28,3,5,-1,28,5,26,-1,26,5,7,-1,26,7,24,-1,24,7,9,-1,24,9,22,-1,22,9,11,-1,22,11,20,-1,20,11,13,-1,20,13,41,-1,41,13,42,-1,42,13,14,-1,42,14,43,-1,34,1,40,-1,40,1,0,-1,32,33,39,-1,39,33,35,-1,21,20,36,-1,36,20,41,-1,38,37,43,-1,43,37,42,-1,44,45,46,-1,46,45,47,-1,48,49,50,-1,50,49,51,-1,52,53,54,-1,54,53,55,-1,54,55,44,-1,44,55,45,-1,46,47,52,-1,52,47,53,-1,43,19,38,-1,38,19,17,-1,14,18,43,-1,43,18,19,-1,16,15,17,-1,17,15,38,-1,15,16,14,-1,14,16,18,-1,54,51,52,-1,52,51,49,-1,44,50,54,-1,54,50,51,-1,48,46,49,-1,49,46,52,-1,46,48,44,-1,44,48,50,-1,
        ]
    }
}
Shape{
    appearance Appearance {
        material  Material 	{
            diffuseColor 0.25098039215686274 0.25098039215686274 0.25098039215686274
            specularColor 0.12549019607843137 0.12549019607843137 0.12549019607843137
            ambientIntensity 0.2
            transparency 0
            shininess 0.5
        }
    }
    geometry IndexedFaceSet {
        ccw TRUE
        solid FALSE
        coord DEF co Coordinate {
            point [
                -1.8819 -0.4921 0.0, -2.0 -0.374 0.0, -1.626 -0.4921 0.0, -1.626 -0.374 0.0, -1.374 -0.374 0.0, -1.0 -0.374 0.0, -1.374 -0.4921 0.0, -1.1181 -0.4921 0.0, -1.8819 -0.4921 0.9843, -2.0 -0.374 0.9843, -2.0 -0.374 0.1181, -2.0 0.374 0.9843, -2.0 0.374 0.1181, -1.8819 0.4921 0.9843, -1.8819 0.4921 0.0, -2.0 0.374 0.0, -1.1181 0.4921 0.0, -1.1181 0.4921 0.9843, -1.0 0.374 0.9843, -1.0 0.374 0.1181, -1.0 0.374 0.0, -1.0 -0.374 0.9843, -1.0 -0.374 0.1181, -1.1181 -0.4921 0.9843, -1.374 -0.126 0.9843, -1.626 -0.126 0.9843, -1.374 0.126 0.9843, -1.626 0.126 0.9843, -1.374 0.126 0.1181, -1.374 -0.126 0.1181, -1.626 -0.126 0.1181, -1.626 0.126 0.1181, -1.626 0.126 0.1181
            ]
        }
        coordIndex [
            0,1,2,-1,2,1,3,-1,4,5,6,-1,6,5,7,-1,8,9,0,-1,0,9,10,-1,0,10,1,-1,9,11,10,-1,10,11,12,-1,11,13,12,-1,12,13,14,-1,12,14,15,-1,16,14,17,-1,17,14,13,-1,17,18,16,-1,16,18,19,-1,16,19,20,-1,18,21,19,-1,19,21,22,-1,21,23,22,-1,22,23,7,-1,22,7,5,-1,7,23,6,-1,6,23,8,-1,6,8,2,-1,2,8,0,-1,15,14,20,-1,20,14,16,-1,23,24,8,-1,8,24,25,-1,23,21,24,-1,24,21,18,-1,24,18,26,-1,26,18,17,-1,26,17,27,-1,27,17,13,-1,27,13,25,-1,25,13,11,-1,25,11,8,-1,8,11,9,-1,3,1,10,-1,3,10,4,-1,4,10,22,-1,4,22,5,-1,19,12,20,-1,20,12,15,-1,28,19,29,-1,29,19,22,-1,29,22,30,-1,30,22,10,-1,30,10,31,-1,31,10,12,-1,31,12,28,-1,28,12,19,-1,
        ]
    }
}
Shape{
    appearance Appearance {
        material  Material 	{
            diffuseColor 0.7529411764705882 0.7529411764705882 0.7529411764705882
            specularColor 0.3764705882352941 0.3764705882352941 0.3764705882352941
            ambientIntensity 0.2
            transparency 0
            shininess 0.5
        }
    }
    geometry IndexedFaceSet {
        ccw TRUE
        solid FALSE
        coord DEF co Coordinate {
            point [
                -1.374 -0.126 0.0118, -1.626 -0.126 0.0118, -1.374 -0.1264 0.0088, -1.626 -0.1264 0.0088, -1.374 -0.1276 0.0059, -1.626 -0.1276 0.0059, -1.374 -0.1294 0.0035, -1.626 -0.1294 0.0035, -1.374 -0.1319 0.0016, -1.626 -0.1319 0.0016, -1.374 -0.1347 0.0004, -1.626 -0.1347 0.0004, -1.374 -0.1378 0.0, -1.626 -0.1378 0.0, -1.5578 -0.9449 -0.0682, -1.5578 -0.9449 -0.1838, -1.4422 -0.9449 -0.0682, -1.4422 -0.9449 -0.1838, -1.626 -0.8268 -0.252, -1.626 -0.1378 -0.252, -1.374 -0.8268 -0.252, -1.374 -0.1378 -0.252, -1.626 -0.0695 -0.243, -1.374 -0.0695 -0.243, -1.626 -0.0059 -0.2166, -1.374 -0.0059 -0.2166, -1.626 0.0487 -0.1747, -1.374 0.0487 -0.1747, -1.626 0.0906 -0.1201, -1.374 0.0906 -0.1201, -1.626 0.117 -0.0565, -1.374 0.117 -0.0565, -1.626 0.126 0.0118, -1.374 0.126 0.0118, -1.626 -0.126 0.1181, -1.626 0.126 0.1181, -1.626 -0.374 0.0, -1.626 -0.4921 0.0, -1.626 -0.8268 0.0, -1.374 0.126 0.1181, -1.374 -0.126 0.1181, -1.374 -0.374 0.0, -1.374 -0.4921 0.0, -1.374 -0.8268 0.0, -1.374 0.126 3.2283, -1.374 0.126 0.9843, -1.626 0.126 3.2283, -1.626 0.126 0.9843, -1.5578 0.0578 3.3465, -1.5578 -0.0578 3.3465, -1.4422 0.0578 3.3465, -1.4422 -0.0578 3.3465, -1.626 -0.126 3.2283, -1.626 -0.126 0.9843, -1.374 -0.126 3.2283, -1.374 -0.126 0.9843, -1.374 -0.126 0.9843
            ]
        }
        coordIndex [
            0,1,2,-1,2,1,3,-1,2,3,4,-1,4,3,5,-1,4,5,6,-1,6,5,7,-1,6,7,8,-1,8,7,9,-1,8,9,10,-1,10,9,11,-1,10,11,12,-1,12,11,13,-1,14,15,16,-1,16,15,17,-1,18,19,20,-1,20,19,21,-1,21,19,22,-1,21,22,23,-1,23,22,24,-1,23,24,25,-1,25,24,26,-1,25,26,27,-1,27,26,28,-1,27,28,29,-1,29,28,30,-1,29,30,31,-1,31,30,32,-1,31,32,33,-1,34,35,1,-1,1,35,32,-1,1,32,3,-1,3,32,30,-1,3,30,5,-1,5,30,28,-1,5,28,7,-1,7,28,26,-1,7,26,9,-1,9,26,24,-1,9,24,11,-1,11,24,22,-1,11,22,13,-1,13,22,19,-1,13,19,36,-1,36,19,37,-1,37,19,18,-1,37,18,38,-1,39,40,33,-1,33,40,0,-1,33,0,31,-1,31,0,2,-1,31,2,29,-1,29,2,4,-1,29,4,27,-1,27,4,6,-1,27,6,25,-1,25,6,8,-1,25,8,23,-1,23,8,10,-1,23,10,21,-1,10,12,21,-1,21,12,41,-1,21,41,20,-1,20,41,42,-1,20,42,43,-1,34,1,40,-1,40,1,0,-1,33,32,39,-1,39,32,35,-1,41,12,36,-1,36,12,13,-1,43,42,38,-1,38,42,37,-1,44,45,46,-1,46,45,47,-1,48,49,50,-1,50,49,51,-1,52,53,54,-1,54,53,55,-1,54,55,44,-1,44,55,45,-1,46,47,52,-1,52,47,53,-1,20,17,18,-1,18,17,15,-1,43,16,20,-1,20,16,17,-1,14,38,15,-1,15,38,18,-1,38,14,43,-1,43,14,16,-1,54,51,52,-1,52,51,49,-1,44,50,54,-1,54,50,51,-1,48,46,49,-1,49,46,52,-1,46,48,44,-1,44,48,50,-1,
        ]
    }
}
Shape{
    appearance Appearance {
        material  Material 	{
            diffuseColor 0.25098039215686274 0.25098039215686274 0.25098039215686274
            specularColor 0.12549019607843137 0.12549019607843137 0.12549019607843137
            ambientIntensity 0.2
            transparency 0
            shininess 0.5
        }
    }
    geometry IndexedFaceSet {
        ccw TRUE
        solid FALSE
        coord DEF co Coordinate {
            point [
                1.0 0.374 0.0, 1.1181 0.4921 0.0, 1.374 0.374 0.0, 1.374 0.4921 0.0, 2.0 -0.374 0.0, 1.8819 -0.4921 0.0, 1.0 -0.374 0.0, 1.1181 -0.4921 0.0, 2.0 0.374 0.1181, 2.0 0.374 0.9843, 2.0 -0.374 0.1181, 2.0 -0.374 0.9843, 1.1181 0.4921 0.9843, 1.8819 0.4921 0.9843, 1.626 0.4921 0.0, 1.8819 0.4921 0.0, 1.0 -0.374 0.1181, 1.0 -0.374 0.9843, 1.0 0.374 0.1181, 1.0 0.374 0.9843, 1.8819 -0.4921 0.9843, 1.1181 -0.4921 0.9843, 1.626 -0.126 0.9843, 1.374 -0.126 0.9843, 1.374 0.126 0.9843, 1.626 0.126 0.9843, 1.626 0.374 0.0, 2.0 0.374 0.0, 1.626 0.126 0.1181, 1.626 -0.126 0.1181, 1.374 -0.126 0.1181, 1.374 0.126 0.1181, 1.374 0.126 0.1181
            ]
        }
        coordIndex [
            0,1,2,-1,2,1,3,-1,4,5,6,-1,6,5,7,-1,8,9,10,-1,10,9,11,-1,1,12,3,-1,3,12,13,-1,3,13,14,-1,14,13,15,-1,16,17,18,-1,18,17,19,-1,20,21,5,-1,5,21,7,-1,20,22,21,-1,21,22,23,-1,21,23,17,-1,17,23,24,-1,17,24,19,-1,20,11,22,-1,22,11,9,-1,22,9,25,-1,25,9,13,-1,25,13,24,-1,24,13,12,-1,24,12,19,-1,14,15,26,-1,26,15,27,-1,11,20,10,-1,10,20,5,-1,10,5,4,-1,21,17,7,-1,7,17,16,-1,7,16,6,-1,19,12,18,-1,18,12,1,-1,18,1,0,-1,13,9,15,-1,15,9,8,-1,15,8,27,-1,16,10,6,-1,6,10,4,-1,26,27,8,-1,26,8,2,-1,2,8,18,-1,2,18,0,-1,28,8,29,-1,29,8,10,-1,29,10,30,-1,30,10,16,-1,30,16,31,-1,31,16,18,-1,31,18,28,-1,28,18,8,-1,
        ]
    }
}
Shape{
    appearance Appearance {
        material  Material 	{
            diffuseColor 0.7529411764705882 0.7529411764705882 0.7529411764705882
            specularColor 0.3764705882352941 0.3764705882352941 0.3764705882352941
            ambientIntensity 0.2
            transparency 0
            shininess 0.5
        }
    }
    geometry IndexedFaceSet {
        ccw TRUE
        solid FALSE
        coord DEF co Coordinate {
            point [
                1.626 -0.126 0.0118, 1.374 -0.126 0.0118, 1.374 -0.117 -0.0565, 1.626 -0.117 -0.0565, 1.374 -0.0906 -0.1201, 1.626 -0.0906 -0.1201, 1.374 -0.0487 -0.1747, 1.626 -0.0487 -0.1747, 1.374 0.0059 -0.2166, 1.626 0.0059 -0.2166, 1.374 0.0695 -0.243, 1.626 0.0695 -0.243, 1.374 0.1378 -0.252, 1.626 0.1378 -0.252, 1.626 0.8268 -0.252, 1.374 0.8268 -0.252, 1.4422 0.9449 -0.1838, 1.4422 0.9449 -0.0682, 1.5578 0.9449 -0.1838, 1.5578 0.9449 -0.0682, 1.626 0.1378 0.0, 1.374 0.1378 0.0, 1.626 0.1347 0.0004, 1.374 0.1347 0.0004, 1.626 0.1319 0.0016, 1.374 0.1319 0.0016, 1.626 0.1294 0.0035, 1.374 0.1294 0.0035, 1.626 0.1276 0.0059, 1.374 0.1276 0.0059, 1.626 0.1264 0.0088, 1.374 0.1264 0.0088, 1.626 0.126 0.0118, 1.374 0.126 0.0118, 1.374 -0.126 0.1181, 1.374 0.126 0.1181, 1.374 0.374 0.0, 1.374 0.4921 0.0, 1.374 0.8268 0.0, 1.626 0.126 0.1181, 1.626 -0.126 0.1181, 1.626 0.374 0.0, 1.626 0.4921 0.0, 1.626 0.8268 0.0, 1.626 0.126 3.2283, 1.626 0.126 0.9843, 1.374 0.126 3.2283, 1.374 0.126 0.9843, 1.4422 0.0578 3.3465, 1.4422 -0.0578 3.3465, 1.5578 0.0578 3.3465, 1.5578 -0.0578 3.3465, 1.374 -0.126 3.2283, 1.374 -0.126 0.9843, 1.626 -0.126 3.2283, 1.626 -0.126 0.9843, 1.626 -0.126 0.9843
            ]
        }
        coordIndex [
            0,1,2,-1,0,2,3,-1,3,2,4,-1,3,4,5,-1,5,4,6,-1,5,6,7,-1,7,6,8,-1,7,8,9,-1,9,8,10,-1,9,10,11,-1,11,10,12,-1,11,12,13,-1,14,13,15,-1,15,13,12,-1,16,17,18,-1,18,17,19,-1,20,21,22,-1,22,21,23,-1,22,23,24,-1,24,23,25,-1,24,25,26,-1,26,25,27,-1,26,27,28,-1,28,27,29,-1,28,29,30,-1,30,29,31,-1,30,31,32,-1,32,31,33,-1,34,35,1,-1,1,35,33,-1,1,33,2,-1,2,33,31,-1,2,31,4,-1,4,31,29,-1,4,29,6,-1,6,29,27,-1,6,27,8,-1,8,27,25,-1,8,25,10,-1,10,25,23,-1,10,23,12,-1,23,21,12,-1,12,21,36,-1,12,36,15,-1,15,36,37,-1,15,37,38,-1,39,40,32,-1,32,40,0,-1,32,0,30,-1,30,0,3,-1,30,3,28,-1,28,3,5,-1,28,5,26,-1,26,5,7,-1,26,7,24,-1,24,7,9,-1,24,9,22,-1,22,9,11,-1,22,11,20,-1,20,11,13,-1,20,13,41,-1,41,13,42,-1,42,13,14,-1,42,14,43,-1,34,1,40,-1,40,1,0,-1,32,33,39,-1,39,33,35,-1,21,20,36,-1,36,20,41,-1,38,37,43,-1,43,37,42,-1,44,45,46,-1,46,45,47,-1,48,49,50,-1,50,49,51,-1,52,53,54,-1,54,53,55,-1,54,55,44,-1,44,55,45,-1,46,47,52,-1,52,47,53,-1,43,19,38,-1,38,19,17,-1,14,18,43,-1,43,18,19,-1,16,15,17,-1,17,15,38,-1,15,16,14,-1,14,16,18,-1,54,51,52,-1,52,51,49,-1,44,50,54,-1,54,50,51,-1,48,46,49,-1,49,46,52,-1,46,48,44,-1,44,48,50,-1,
        ]
    }
}