#VRML V2.0 utf8
# 3D model generated by easyeda2kicad.py (https://github.com/uPesy/easyeda2kicad.py)

Shape{
    appearance Appearance {
        material  Material 	{
            diffuseColor 1.0 1.0 0.0
            specularColor 0.5019607843137255 0.5019607843137255 0.0
            ambientIntensity 0.2
            transparency 0
            shininess 0.5
        }
    }
    geometry IndexedFaceSet {
        ccw TRUE
        solid FALSE
        coord DEF co Coordinate {
            point [
                0.0591 0.3543 -0.0039, 0.0591 0.2165 -0.0039, 0.0591 0.3543 0.0079, 0.0591 0.2165 0.0079, 0.1969 0.3543 -0.0039, 0.1969 0.3543 0.0079, 0.1969 0.2165 -0.0039, 0.1969 0.2165 0.0079, 0.315 0.3543 -0.0039, 0.315 0.2165 -0.0039, 0.315 0.3543 0.0079, 0.315 0.2165 0.0079, 0.4528 0.3543 -0.0039, 0.4528 0.3543 0.0079, 0.4528 0.2165 -0.0039, 0.4528 0.2165 0.0079, -0.1969 0.3543 -0.0039, -0.1969 0.2165 -0.0039, -0.1969 0.3543 0.0079, -0.1969 0.2165 0.0079, -0.0591 0.3543 -0.0039, -0.0591 0.3543 0.0079, -0.0591 0.2165 -0.0039, -0.0591 0.2165 0.0079, -0.4528 0.3543 -0.0039, -0.4528 0.2165 -0.0039, -0.4528 0.3543 0.0079, -0.4528 0.2165 0.0079, -0.315 0.3543 -0.0039, -0.315 0.3543 0.0079, -0.315 0.2165 -0.0039, -0.315 0.2165 0.0079, 0.315 -0.2165 -0.0039, 0.315 -0.3543 -0.0039, 0.315 -0.2165 0.0079, 0.315 -0.3543 0.0079, 0.4528 -0.3543 -0.0039, 0.4528 -0.3543 0.0079, 0.4528 -0.2165 -0.0039, 0.4528 -0.2165 0.0079, 0.0591 -0.2165 -0.0039, 0.0591 -0.3543 -0.0039, 0.0591 -0.2165 0.0079, 0.0591 -0.3543 0.0079, 0.1969 -0.3543 -0.0039, 0.1969 -0.3543 0.0079, 0.1969 -0.2165 -0.0039, 0.1969 -0.2165 0.0079, -0.1969 -0.2165 -0.0039, -0.1969 -0.3543 -0.0039, -0.1969 -0.2165 0.0079, -0.1969 -0.3543 0.0079, -0.0591 -0.3543 -0.0039, -0.0591 -0.3543 0.0079, -0.0591 -0.2165 -0.0039, -0.0591 -0.2165 0.0079, -0.4528 -0.2165 -0.0039, -0.4528 -0.3543 -0.0039, -0.4528 -0.2165 0.0079, -0.4528 -0.3543 0.0079, -0.315 -0.3543 -0.0039, -0.315 -0.3543 0.0079, -0.315 -0.2165 -0.0039, -0.315 -0.2165 0.0079, -0.315 -0.2165 0.0079
            ]
        }
        coordIndex [
            0,1,2,-1,2,1,3,-1,4,0,5,-1,5,0,2,-1,6,4,7,-1,7,4,5,-1,1,6,3,-1,3,6,7,-1,4,6,0,-1,0,6,1,-1,7,5,3,-1,3,5,2,-1,8,9,10,-1,10,9,11,-1,12,8,13,-1,13,8,10,-1,14,12,15,-1,15,12,13,-1,9,14,11,-1,11,14,15,-1,12,14,8,-1,8,14,9,-1,15,13,11,-1,11,13,10,-1,16,17,18,-1,18,17,19,-1,20,16,21,-1,21,16,18,-1,22,20,23,-1,23,20,21,-1,17,22,19,-1,19,22,23,-1,20,22,16,-1,16,22,17,-1,23,21,19,-1,19,21,18,-1,24,25,26,-1,26,25,27,-1,28,24,29,-1,29,24,26,-1,30,28,31,-1,31,28,29,-1,25,30,27,-1,27,30,31,-1,28,30,24,-1,24,30,25,-1,31,29,27,-1,27,29,26,-1,32,33,34,-1,34,33,35,-1,33,36,35,-1,35,36,37,-1,36,38,37,-1,37,38,39,-1,38,32,39,-1,39,32,34,-1,38,36,32,-1,32,36,33,-1,37,39,35,-1,35,39,34,-1,40,41,42,-1,42,41,43,-1,41,44,43,-1,43,44,45,-1,44,46,45,-1,45,46,47,-1,46,40,47,-1,47,40,42,-1,46,44,40,-1,40,44,41,-1,45,47,43,-1,43,47,42,-1,48,49,50,-1,50,49,51,-1,49,52,51,-1,51,52,53,-1,52,54,53,-1,53,54,55,-1,54,48,55,-1,55,48,50,-1,54,52,48,-1,48,52,49,-1,53,55,51,-1,51,55,50,-1,56,57,58,-1,58,57,59,-1,57,60,59,-1,59,60,61,-1,60,62,61,-1,61,62,63,-1,62,56,63,-1,63,56,58,-1,62,60,56,-1,56,60,57,-1,61,63,59,-1,59,63,58,-1,
        ]
    }
}
Shape{
    appearance Appearance {
        material  Material 	{
            diffuseColor 0.25098039215686274 0.25098039215686274 0.25098039215686274
            specularColor 0.12549019607843137 0.12549019607843137 0.12549019607843137
            ambientIntensity 0.2
            transparency 0
            shininess 0.5
        }
    }
    geometry IndexedFaceSet {
        ccw TRUE
        solid FALSE
        coord DEF co Coordinate {
            point [
                -0.3132 -0.3937 0.2064, -0.3132 -0.3937 0.1959, -0.2875 -0.3937 0.1959, -0.3132 -0.3937 0.2488, -0.3132 -0.3937 0.241, -0.2875 -0.3937 0.241, -0.2773 -0.3937 0.2757, -0.2753 -0.3937 0.2759, -0.2859 -0.3937 0.2759, -0.2704 -0.3937 0.2489, -0.2721 -0.3937 0.2488, -0.2633 -0.3937 0.2488, 0.315 -0.3937 0.0079, 0.4921 -0.3937 0.0079, 0.4921 -0.3937 0.1959, -0.2583 -0.3937 0.2726, -0.2583 -0.3937 0.2641, -0.2511 -0.3937 0.2641, -0.2567 -0.3937 0.2066, -0.2578 -0.3937 0.2064, -0.2511 -0.3937 0.2064, -0.2625 -0.3937 0.2065, -0.2633 -0.3937 0.2068, -0.2633 -0.3937 0.2064, -0.2249 -0.3937 0.2187, -0.2249 -0.3937 0.2097, -0.2199 -0.3937 0.2097, -0.4451 -0.3937 0.2391, -0.4447 -0.3937 0.241, -0.4687 -0.3937 0.241, -0.3363 -0.3937 0.2549, -0.3312 -0.3937 0.2505, -0.3132 -0.3937 0.2759, -0.3575 -0.3937 0.2759, -0.3531 -0.3937 0.273, -0.347 -0.3937 0.2659, -0.3429 -0.3937 0.258, -0.342 -0.3937 0.2577, -0.3711 -0.3937 0.282, -0.3616 -0.3937 0.2787, -0.3132 -0.3937 0.3252, -0.3971 -0.3937 0.2783, -0.3884 -0.3937 0.2817, -0.4687 -0.3937 0.3252, -0.379 -0.3937 0.2829, -0.4363 -0.3937 0.2584, -0.4348 -0.3937 0.2598, -0.4687 -0.3937 0.2759, -0.401 -0.3937 0.2759, -0.4017 -0.3937 0.2755, -0.4285 -0.3937 0.2641, -0.4214 -0.3937 0.2667, -0.4144 -0.3937 0.2675, -0.4062 -0.3937 0.2716, -0.4123 -0.3937 0.2674, -0.4101 -0.3937 0.2671, -0.4687 -0.3937 0.2488, -0.4437 -0.3937 0.2462, -0.4425 -0.3937 0.2488, -0.4406 -0.3937 0.2529, -0.422 -0.3937 0.207, -0.425 -0.3937 0.2079, -0.4687 -0.3937 0.2064, -0.4318 -0.3937 0.2114, -0.4372 -0.3937 0.2161, -0.4418 -0.3937 0.2227, -0.4444 -0.3937 0.2298, -0.4452 -0.3937 0.2367, -0.4136 -0.3937 0.1966, -0.4173 -0.3937 0.1994, -0.4687 -0.3937 0.1959, -0.4201 -0.3937 0.2029, -0.4218 -0.3937 0.2064, -0.3961 -0.3937 0.1959, -0.315 -0.3937 0.0079, -0.3994 -0.3937 0.1946, -0.4687 -0.3937 0.0079, -0.404 -0.3937 0.194, -0.4047 -0.3937 0.1941, -0.4092 -0.3937 0.1948, -0.4119 -0.3937 0.1959, -0.3862 -0.3937 0.2064, -0.3862 -0.3937 0.2064, -0.3885 -0.3937 0.2022, -0.3914 -0.3937 0.1989, -0.3952 -0.3937 0.1962, -0.325 -0.3937 0.2393, -0.3241 -0.3937 0.2331, -0.362 -0.3937 0.2176, -0.3607 -0.3937 0.2182, -0.3585 -0.3937 0.229, -0.3311 -0.3937 0.2151, -0.3363 -0.3937 0.2107, -0.3898 -0.3937 0.2257, -0.3643 -0.3937 0.239, -0.3931 -0.3937 0.2288, -0.3971 -0.3937 0.2309, -0.3631 -0.3937 0.2168, -0.3274 -0.3937 0.2204, -0.336 -0.3937 0.2346, -0.3369 -0.3937 0.2382, -0.3383 -0.3937 0.241, -0.4328 -0.3937 0.241, -0.325 -0.3937 0.2264, -0.3592 -0.3937 0.2183, -0.359 -0.3937 0.2183, -0.3585 -0.3937 0.2182, -0.4316 -0.3937 0.2296, -0.4294 -0.3937 0.2257, -0.4197 -0.3937 0.2238, -0.426 -0.3937 0.2222, -0.4218 -0.3937 0.2197, -0.4127 -0.3937 0.23, -0.4166 -0.3937 0.2273, -0.4332 -0.3937 0.2371, -0.433 -0.3937 0.2342, -0.4085 -0.3937 0.2316, -0.404 -0.3937 0.2322, -0.4017 -0.3937 0.2321, -0.3651 -0.3937 0.2125, -0.3651 -0.3937 0.2131, -0.385 -0.3937 0.2149, -0.3647 -0.3937 0.2146, -0.364 -0.3937 0.2159, -0.3397 -0.3937 0.2229, -0.3376 -0.3937 0.2259, -0.3363 -0.3937 0.2293, -0.3359 -0.3937 0.233, -0.3607 -0.3937 0.2067, -0.3619 -0.3937 0.2072, -0.3632 -0.3937 0.2081, -0.3636 -0.3937 0.2086, -0.3644 -0.3937 0.2098, -0.3649 -0.3937 0.211, -0.3851 -0.3937 0.2111, -0.385 -0.3937 0.213, -0.3421 -0.3937 0.2079, -0.3484 -0.3937 0.2066, -0.3596 -0.3937 0.2066, -0.3581 -0.3937 0.2181, -0.3495 -0.3937 0.2181, -0.3462 -0.3937 0.2188, -0.3428 -0.3937 0.2203, -0.34 -0.3937 0.2226, -0.3522 -0.3937 0.2478, -0.431 -0.3937 0.2459, -0.4327 -0.3937 0.2417, -0.3507 -0.3937 0.2478, -0.3386 -0.3937 0.2415, -0.3408 -0.3937 0.244, -0.3438 -0.3937 0.246, -0.3471 -0.3937 0.2473, -0.3562 -0.3937 0.259, -0.3605 -0.3937 0.2642, -0.4042 -0.3937 0.2533, -0.4291 -0.3937 0.2488, -0.4056 -0.3937 0.254, -0.3611 -0.3937 0.2647, -0.3664 -0.3937 0.2684, -0.3724 -0.3937 0.2707, -0.3524 -0.3937 0.2488, -0.3533 -0.3937 0.2529, -0.4098 -0.3937 0.2556, -0.4143 -0.3937 0.2561, -0.4162 -0.3937 0.256, -0.4209 -0.3937 0.2549, -0.4251 -0.3937 0.2527, -0.4284 -0.3937 0.2497, -0.3856 -0.3937 0.2706, -0.3919 -0.3937 0.2681, -0.3788 -0.3937 0.2715, -0.3971 -0.3937 0.2643, -0.4013 -0.3937 0.2592, -0.3299 -0.3937 0.2488, -0.3273 -0.3937 0.2451, -0.3256 -0.3937 0.241, -0.214 -0.3937 0.2097, -0.214 -0.3937 0.2067, -0.2115 -0.3937 0.2064, -0.2199 -0.3937 0.2064, -0.2115 -0.3937 0.241, -0.2146 -0.3937 0.2334, -0.2146 -0.3937 0.2303, -0.2154 -0.3937 0.2217, -0.2154 -0.3937 0.2187, -0.2199 -0.3937 0.2187, -0.2199 -0.3937 0.2303, -0.2199 -0.3937 0.2217, -0.2249 -0.3937 0.2303, -0.2249 -0.3937 0.2217, -0.2199 -0.3937 0.2067, -0.2283 -0.3937 0.2067, -0.2301 -0.3937 0.2064, -0.2283 -0.3937 0.2334, -0.2835 -0.3937 0.2156, -0.2828 -0.3937 0.2211, -0.2841 -0.3937 0.2145, -0.2846 -0.3937 0.2133, -0.2755 -0.3937 0.2233, -0.2766 -0.3937 0.2234, -0.2784 -0.3937 0.218, -0.2649 -0.3937 0.2108, -0.2694 -0.3937 0.2189, -0.2649 -0.3937 0.2073, -0.2694 -0.3937 0.2067, -0.2744 -0.3937 0.2076, -0.2756 -0.3937 0.2069, -0.2727 -0.3937 0.2067, -0.2768 -0.3937 0.2064, -0.2825 -0.3937 0.2165, -0.2811 -0.3937 0.2173, -0.2805 -0.3937 0.2226, -0.2784 -0.3937 0.2233, -0.2859 -0.3937 0.1959, -0.2806 -0.3937 0.2064, -0.2859 -0.3937 0.2064, -0.2807 -0.3937 0.2064, -0.2819 -0.3937 0.2069, -0.2797 -0.3937 0.2258, -0.2859 -0.3937 0.241, -0.2822 -0.3937 0.2248, -0.2828 -0.3937 0.2244, -0.2831 -0.3937 0.2077, -0.2834 -0.3937 0.208, -0.2841 -0.3937 0.209, -0.2633 -0.3937 0.2099, -0.2633 -0.3937 0.2099, -0.2633 -0.3937 0.217, -0.2727 -0.3937 0.2096, -0.2728 -0.3937 0.2096, -0.2734 -0.3937 0.2088, -0.2845 -0.3937 0.2101, -0.2847 -0.3937 0.2118, -0.2647 -0.3937 0.2193, -0.2697 -0.3937 0.2217, -0.2648 -0.3937 0.2206, -0.2727 -0.3937 0.2188, -0.2728 -0.3937 0.2202, -0.2732 -0.3937 0.2214, -0.2736 -0.3937 0.2221, -0.2763 -0.3937 0.2262, -0.274 -0.3937 0.2259, -0.2726 -0.3937 0.2254, -0.2633 -0.3937 0.217, -0.2639 -0.3937 0.2176, -0.2643 -0.3937 0.2183, -0.2741 -0.3937 0.2227, -0.2747 -0.3937 0.2231, -0.2647 -0.3937 0.2218, -0.2643 -0.3937 0.2228, -0.2703 -0.3937 0.2232, -0.2637 -0.3937 0.2238, -0.271 -0.3937 0.2242, -0.2716 -0.3937 0.2248, -0.2618 -0.3937 0.2064, -0.2633 -0.3937 0.1959, -0.2597 -0.3937 0.2062, -0.2529 -0.3937 0.2253, -0.2529 -0.3937 0.2221, -0.2633 -0.3937 0.2241, -0.2633 -0.3937 0.241, -0.2627 -0.3937 0.2246, -0.2619 -0.3937 0.2252, -0.2521 -0.3937 0.2105, -0.2525 -0.3937 0.2095, -0.2532 -0.3937 0.2086, -0.2601 -0.3937 0.2258, -0.2574 -0.3937 0.2262, -0.2511 -0.3937 0.241, -0.2551 -0.3937 0.226, -0.2531 -0.3937 0.215, -0.2525 -0.3937 0.2141, -0.2521 -0.3937 0.2131, -0.252 -0.3937 0.2119, -0.2541 -0.3937 0.2077, -0.2549 -0.3937 0.2073, -0.2577 -0.3937 0.2234, -0.2587 -0.3937 0.2234, -0.2614 -0.3937 0.2209, -0.2596 -0.3937 0.2231, -0.2604 -0.3937 0.2227, -0.2614 -0.3937 0.2204, -0.2612 -0.3937 0.2199, -0.261 -0.3937 0.2195, -0.2607 -0.3937 0.2191, -0.2595 -0.3937 0.2184, -0.2554 -0.3937 0.2232, -0.2574 -0.3937 0.2175, -0.2535 -0.3937 0.2224, -0.2561 -0.3937 0.2169, -0.2539 -0.3937 0.2157, -0.2609 -0.3937 0.2223, -0.2612 -0.3937 0.2219, -0.2613 -0.3937 0.2214, -0.2612 -0.3937 0.2091, -0.2598 -0.3937 0.215, -0.2618 -0.3937 0.216, -0.2594 -0.3937 0.2089, -0.2592 -0.3937 0.2089, -0.2576 -0.3937 0.2141, -0.2575 -0.3937 0.2091, -0.2554 -0.3937 0.2115, -0.2554 -0.3937 0.2119, -0.2566 -0.3937 0.2095, -0.2563 -0.3937 0.2096, -0.2559 -0.3937 0.21, -0.2557 -0.3937 0.2104, -0.2555 -0.3937 0.2109, -0.2556 -0.3937 0.2125, -0.2559 -0.3937 0.2129, -0.2563 -0.3937 0.2133, -0.2017 -0.3937 0.2563, -0.2115 -0.3937 0.2563, -0.1989 -0.3937 0.249, -0.2115 -0.3937 0.2488, -0.1951 -0.3937 0.249, 0.4921 -0.3937 0.2488, 0.4921 -0.3937 0.2759, -0.2053 -0.3937 0.2757, -0.2115 -0.3937 0.2759, -0.2128 -0.3937 0.2563, -0.2154 -0.3937 0.249, -0.2199 -0.3937 0.2488, -0.2192 -0.3937 0.249, -0.2199 -0.3937 0.2759, -0.2115 -0.3937 0.2692, -0.209 -0.3937 0.2757, -0.2301 -0.3937 0.2488, -0.2305 -0.3937 0.2496, -0.235 -0.3937 0.249, -0.2348 -0.3937 0.2757, -0.2301 -0.3937 0.2759, -0.2449 -0.3937 0.2759, -0.2449 -0.3937 0.2488, -0.2424 -0.3937 0.249, -0.2424 -0.3937 0.2757, -0.2214 -0.3937 0.2579, -0.2227 -0.3937 0.2551, -0.2237 -0.3937 0.2713, -0.2221 -0.3937 0.2689, -0.2247 -0.3937 0.2527, -0.2274 -0.3937 0.2508, -0.2301 -0.3937 0.2497, -0.2247 -0.3937 0.2722, -0.2307 -0.3937 0.2752, -0.2301 -0.3937 0.2751, -0.2275 -0.3937 0.2741, -0.2211 -0.3937 0.2664, -0.2206 -0.3937 0.2627, -0.2207 -0.3937 0.261, -0.2511 -0.3937 0.2759, -0.248 -0.3937 0.2757, -0.2511 -0.3937 0.2757, -0.248 -0.3937 0.2726, -0.2474 -0.3937 0.252, -0.2474 -0.3937 0.249, -0.2511 -0.3937 0.2488, -0.2583 -0.3937 0.252, -0.2511 -0.3937 0.252, -0.2583 -0.3937 0.261, -0.2511 -0.3937 0.261, -0.2488 -0.3937 0.261, -0.2488 -0.3937 0.2641, -0.2511 -0.3937 0.2726, -0.2618 -0.3937 0.2757, -0.2633 -0.3937 0.2759, -0.2618 -0.3937 0.249, -0.2115 -0.3937 0.0, -0.1969 -0.3937 0.0, -0.1969 -0.3937 0.0079, -0.2115 -0.3937 0.1959, -0.0591 -0.3937 0.0079, -0.0591 -0.3937 0.0, 0.0591 -0.3937 0.0, 0.0591 -0.3937 0.0079, 0.1969 -0.3937 0.0079, -0.2671 -0.3937 0.2751, -0.2699 -0.3937 0.2759, -0.2706 -0.3937 0.2759, -0.2511 -0.3937 0.249, -0.2671 -0.3937 0.2715, -0.2676 -0.3937 0.2499, -0.274 -0.3937 0.2516, -0.2727 -0.3937 0.2517, -0.2674 -0.3937 0.2716, -0.2697 -0.3937 0.2522, -0.2671 -0.3937 0.2534, -0.2671 -0.3937 0.2501, -0.2809 -0.3937 0.2544, -0.2803 -0.3937 0.2539, -0.2834 -0.3937 0.2606, -0.2701 -0.3937 0.2726, -0.2829 -0.3937 0.258, -0.282 -0.3937 0.2559, -0.2786 -0.3937 0.2527, -0.2767 -0.3937 0.2519, -0.2807 -0.3937 0.2701, -0.2821 -0.3937 0.268, -0.2789 -0.3937 0.2716, -0.2768 -0.3937 0.2725, -0.2734 -0.3937 0.273, -0.2744 -0.3937 0.273, -0.2835 -0.3937 0.2621, -0.283 -0.3937 0.2657, -0.2734 -0.3937 0.2761, -0.2859 -0.3937 0.3252, -0.2633 -0.3937 0.3252, -0.2734 -0.3937 0.2761, -0.2852 -0.3937 0.2697, -0.2832 -0.3937 0.2722, -0.2826 -0.3937 0.2728, -0.2801 -0.3937 0.2746, -0.2859 -0.3937 0.2558, -0.2866 -0.3937 0.2575, -0.2875 -0.3937 0.2488, -0.2871 -0.3937 0.2618, -0.287 -0.3937 0.2632, -0.2875 -0.3937 0.2759, -0.2864 -0.3937 0.2667, -0.2859 -0.3937 0.268, -0.2815 -0.3937 0.2504, -0.2837 -0.3937 0.2522, -0.2859 -0.3937 0.2488, -0.2855 -0.3937 0.2547, -0.2745 -0.3937 0.2486, -0.2761 -0.3937 0.2486, -0.2768 -0.3937 0.2488, -0.279 -0.3937 0.2492, -0.2769 -0.3937 0.2064, -0.2787 -0.3937 0.2062, -0.2354 -0.3937 0.2257, -0.2319 -0.3937 0.2257, -0.2301 -0.3937 0.241, -0.2199 -0.3937 0.2334, -0.2199 -0.3937 0.241, -0.2395 -0.3937 0.2064, -0.2415 -0.3937 0.2114, -0.2411 -0.3937 0.2098, -0.241 -0.3937 0.2098, -0.2449 -0.3937 0.241, -0.2449 -0.3937 0.2211, -0.2406 -0.3937 0.2114, -0.2409 -0.3937 0.2105, -0.2449 -0.3937 0.2064, -0.2449 -0.3937 0.2121, -0.2502 -0.3937 0.2257, -0.2465 -0.3937 0.2257, -0.2428 -0.3937 0.2067, -0.2429 -0.3937 0.2064, -0.2442 -0.3937 0.2032, -0.2511 -0.3937 0.1959, -0.2496 -0.3937 0.198, -0.2496 -0.3937 0.2009, -0.2455 -0.3937 0.2013, -0.2449 -0.3937 0.202, -0.2449 -0.3937 0.202, -0.2489 -0.3937 0.2007, -0.2477 -0.3937 0.2006, -0.2449 -0.3937 0.1983, -0.246 -0.3937 0.1978, -0.2449 -0.3937 0.1959, -0.2474 -0.3937 0.1977, -0.2481 -0.3937 0.1977, -0.2468 -0.3937 0.2007, -0.246 -0.3937 0.201, -0.2406 -0.3937 0.2038, -0.2421 -0.3937 0.2008, -0.2301 -0.3937 0.1959, -0.2433 -0.3937 0.1994, -0.2436 -0.3937 0.1992, -0.2447 -0.3937 0.1983, -0.4921 -0.3937 0.0079, -0.4921 -0.3937 0.1959, -0.4921 -0.3937 0.2064, -0.4921 -0.3937 0.241, -0.4921 -0.3937 0.2488, -0.4921 -0.3937 0.2759, -0.4921 -0.3937 0.3252, -0.2882 -0.3937 0.252, -0.2882 -0.3937 0.249, -0.3023 -0.3937 0.249, -0.2988 -0.3937 0.2757, -0.2988 -0.3937 0.252, -0.3023 -0.3937 0.2757, -0.2875 -0.3937 0.2064, -0.2879 -0.3937 0.2067, -0.3023 -0.3937 0.2067, -0.2879 -0.3937 0.2097, -0.2885 -0.3937 0.2303, -0.2988 -0.3937 0.2187, -0.2988 -0.3937 0.2097, -0.2893 -0.3937 0.2187, -0.2893 -0.3937 0.2217, -0.2988 -0.3937 0.2217, -0.2988 -0.3937 0.2303, -0.3023 -0.3937 0.2334, -0.2885 -0.3937 0.2334, -0.2875 -0.3937 0.3252, -0.2199 -0.3937 0.1959, -0.2199 -0.3937 0.0, -0.2301 -0.3937 0.0, -0.2449 -0.3937 0.0, -0.2511 -0.3937 0.0, -0.2633 -0.3937 0.0, -0.2859 -0.3937 0.0, -0.2875 -0.3937 0.0, -0.3132 -0.3937 0.0, -0.315 -0.3937 0.0, -0.2511 -0.3937 0.3252, -0.2449 -0.3937 0.3252, -0.2301 -0.3937 0.3252, -0.2199 -0.3937 0.3252, -0.2115 -0.3937 0.3252, 0.4921 -0.3937 0.3252, -0.2089 -0.3937 0.2067, -0.2089 -0.3937 0.2334, 0.4921 -0.3937 0.2064, 0.4921 -0.3937 0.241, -0.1719 -0.3937 0.2334, -0.1756 -0.3937 0.2334, -0.1617 -0.3937 0.2067, -0.1655 -0.3937 0.2067, -0.1819 -0.3937 0.2067, -0.1857 -0.3937 0.2067, -0.2016 -0.3937 0.2067, -0.1682 -0.3937 0.214, -0.1794 -0.3937 0.214, -0.1893 -0.3937 0.2128, -0.1912 -0.3937 0.2104, -0.194 -0.3937 0.2084, -0.197 -0.3937 0.2072, -0.1912 -0.3937 0.2298, -0.1903 -0.3937 0.2289, -0.1887 -0.3937 0.2266, -0.1877 -0.3937 0.224, -0.2013 -0.3937 0.2334, -0.1973 -0.3937 0.2329, -0.194 -0.3937 0.2317, -0.1872 -0.3937 0.2204, -0.1873 -0.3937 0.2187, -0.1879 -0.3937 0.2155, 0.1969 -0.3937 0.0, 0.315 -0.3937 0.0, -0.315 -0.2165 0.0, -0.4921 -0.2165 0.0, -0.4921 0.2165 0.0, 0.1969 0.2165 0.0, 0.1969 0.3937 0.0, 0.315 0.3937 0.0, 0.4921 0.2165 0.0, 0.4921 -0.2165 0.0, 0.315 -0.2165 0.0, -0.315 0.3937 0.0, -0.1969 0.3937 0.0, -0.315 0.2165 0.0, -0.1969 0.2165 0.0, 0.0591 -0.2165 0.0, -0.0591 -0.2165 0.0, -0.1969 -0.2165 0.0, 0.1969 -0.2165 0.0, 0.315 0.2165 0.0, -0.0591 0.2165 0.0, -0.0591 0.3937 0.0, 0.0591 0.3937 0.0, 0.0591 0.2165 0.0, 0.4921 0.3937 0.3252, 0.4921 -0.2165 0.0079, 0.4921 0.3937 0.0079, 0.4921 0.2165 0.0079, -0.315 0.3937 0.0079, -0.4921 0.3937 0.0079, -0.4921 0.3937 0.3252, 0.315 0.3937 0.0079, 0.0591 0.3937 0.0079, 0.1969 0.3937 0.0079, -0.1969 0.3937 0.0079, -0.0591 0.3937 0.0079, -0.4921 -0.2165 0.0079, -0.4921 0.2165 0.0079, 0.4711 -0.3448 0.3252, 0.4672 -0.3543 0.3252, 0.4609 -0.3625 0.3252, 0.4528 -0.3687 0.3252, -0.4433 -0.3727 0.3252, -0.4528 -0.3687 0.3252, -0.4609 -0.3625 0.3252, -0.4672 -0.3543 0.3252, -0.4711 0.3448 0.3252, -0.4672 0.3543 0.3252, -0.4609 0.3625 0.3252, -0.4528 0.3687 0.3252, 0.4433 0.3727 0.3252, 0.4528 0.3687 0.3252, 0.4609 0.3625 0.3252, 0.4672 0.3543 0.3252, 0.4711 0.3448 0.3252, 0.4724 0.3346 0.3252, 0.4724 -0.3346 0.3252, -0.4711 -0.3448 0.3252, -0.4724 -0.3346 0.3252, -0.4724 0.3346 0.3252, 0.4433 -0.3727 0.3252, 0.4331 -0.374 0.3252, -0.4331 -0.374 0.3252, -0.4433 0.3727 0.3252, -0.4331 0.374 0.3252, 0.4331 0.374 0.3252, 0.4331 0.374 0.3252
            ]
        }
        coordIndex [
            0,1,2,-1,3,4,5,-1,6,7,8,-1,9,10,11,-1,12,13,14,-1,15,16,17,-1,18,19,20,-1,21,22,23,-1,24,25,26,-1,27,28,29,-1,30,31,32,-1,32,31,3,-1,33,34,32,-1,32,34,35,-1,35,36,32,-1,32,36,37,-1,32,37,30,-1,38,39,40,-1,41,42,43,-1,43,42,40,-1,40,42,44,-1,40,44,38,-1,45,46,47,-1,41,43,48,-1,48,43,47,-1,48,47,49,-1,46,50,47,-1,47,50,51,-1,47,51,49,-1,49,51,52,-1,49,52,53,-1,53,52,54,-1,53,54,55,-1,29,28,56,-1,28,57,56,-1,56,57,58,-1,56,58,47,-1,47,58,59,-1,47,59,45,-1,60,61,62,-1,62,61,63,-1,62,63,64,-1,64,65,62,-1,62,65,66,-1,62,66,29,-1,29,66,67,-1,29,67,27,-1,68,69,70,-1,70,69,71,-1,70,71,62,-1,62,71,72,-1,62,72,60,-1,1,73,74,-1,74,73,75,-1,74,75,76,-1,76,75,77,-1,77,78,76,-1,76,78,79,-1,76,79,70,-1,70,79,80,-1,70,80,68,-1,0,81,1,-1,1,81,82,-1,1,82,83,-1,83,84,1,-1,1,84,85,-1,1,85,73,-1,86,87,4,-1,88,89,90,-1,91,92,0,-1,93,94,95,-1,95,94,96,-1,88,90,97,-1,91,0,98,-1,99,100,94,-1,94,100,101,-1,94,101,102,-1,4,87,0,-1,0,87,103,-1,0,103,98,-1,89,104,90,-1,90,104,105,-1,90,105,106,-1,107,108,109,-1,109,108,110,-1,109,110,111,-1,112,102,113,-1,113,102,114,-1,113,114,109,-1,109,114,115,-1,109,115,107,-1,112,116,102,-1,102,116,117,-1,102,117,94,-1,94,117,118,-1,94,118,96,-1,119,120,121,-1,121,120,122,-1,121,122,90,-1,90,122,123,-1,90,123,97,-1,124,125,90,-1,90,125,126,-1,90,126,94,-1,94,126,127,-1,94,127,99,-1,128,129,81,-1,81,129,130,-1,81,130,131,-1,131,132,81,-1,81,132,133,-1,81,133,134,-1,134,133,119,-1,134,119,135,-1,135,119,121,-1,92,136,0,-1,0,136,137,-1,0,137,81,-1,81,137,138,-1,81,138,128,-1,106,139,90,-1,90,139,140,-1,90,140,141,-1,141,142,90,-1,90,142,143,-1,90,143,124,-1,144,145,146,-1,146,102,144,-1,144,102,101,-1,144,101,147,-1,147,101,148,-1,148,149,147,-1,147,149,150,-1,147,150,151,-1,152,153,154,-1,155,154,156,-1,153,157,154,-1,154,157,158,-1,154,158,159,-1,145,144,155,-1,155,144,160,-1,155,160,154,-1,154,160,161,-1,154,161,152,-1,156,162,155,-1,155,162,163,-1,155,163,164,-1,165,166,164,-1,164,166,167,-1,164,167,155,-1,168,169,170,-1,170,169,171,-1,170,171,159,-1,159,171,172,-1,159,172,154,-1,31,173,3,-1,3,173,174,-1,3,174,4,-1,4,174,175,-1,4,175,86,-1,176,177,178,-1,178,177,179,-1,180,181,182,-1,183,184,176,-1,176,184,26,-1,26,184,185,-1,26,185,24,-1,182,186,187,-1,187,186,188,-1,187,188,189,-1,177,190,179,-1,179,190,191,-1,179,191,192,-1,192,191,193,-1,194,195,196,-1,196,195,197,-1,198,199,200,-1,201,202,203,-1,203,202,204,-1,203,204,22,-1,205,206,207,-1,207,206,208,-1,207,208,204,-1,194,209,195,-1,195,209,210,-1,195,210,211,-1,211,210,200,-1,211,200,212,-1,212,200,199,-1,213,214,215,-1,215,214,216,-1,215,216,217,-1,218,219,220,-1,220,219,221,-1,217,222,215,-1,215,222,223,-1,215,223,224,-1,225,226,227,-1,228,229,207,-1,207,229,230,-1,207,230,205,-1,224,231,215,-1,215,231,232,-1,215,232,219,-1,219,232,197,-1,219,197,221,-1,221,197,195,-1,202,233,234,-1,234,233,235,-1,236,237,200,-1,200,237,238,-1,200,238,239,-1,218,240,219,-1,219,240,241,-1,219,241,242,-1,225,227,201,-1,227,243,201,-1,201,243,244,-1,201,244,202,-1,202,244,245,-1,202,245,233,-1,239,246,200,-1,200,246,247,-1,200,247,198,-1,235,248,234,-1,234,248,249,-1,234,249,250,-1,250,249,251,-1,250,251,252,-1,252,251,253,-1,21,23,254,-1,254,23,255,-1,254,255,256,-1,257,258,20,-1,251,259,260,-1,260,259,261,-1,260,261,262,-1,263,264,20,-1,20,264,265,-1,262,266,260,-1,260,266,267,-1,260,267,268,-1,268,267,269,-1,268,269,257,-1,270,271,258,-1,258,271,272,-1,258,272,20,-1,20,272,273,-1,20,273,263,-1,265,274,20,-1,20,274,275,-1,20,275,18,-1,276,277,278,-1,278,277,279,-1,278,279,280,-1,278,281,276,-1,276,281,282,-1,276,282,283,-1,283,284,276,-1,276,284,285,-1,276,285,286,-1,286,285,287,-1,286,287,288,-1,288,287,289,-1,288,289,258,-1,258,289,290,-1,258,290,270,-1,291,292,280,-1,280,292,293,-1,280,293,278,-1,294,295,226,-1,226,295,296,-1,226,296,227,-1,294,297,295,-1,295,297,298,-1,295,298,299,-1,299,298,300,-1,299,301,302,-1,300,303,299,-1,299,303,304,-1,299,304,305,-1,305,306,299,-1,299,306,307,-1,299,307,301,-1,302,308,299,-1,299,308,309,-1,299,309,310,-1,311,312,313,-1,313,312,314,-1,313,314,315,-1,316,317,318,-1,318,317,319,-1,312,320,314,-1,314,320,321,-1,314,321,322,-1,322,321,323,-1,322,323,324,-1,324,323,325,-1,324,325,319,-1,319,325,326,-1,319,326,318,-1,327,328,329,-1,330,331,332,-1,327,329,333,-1,333,329,334,-1,333,334,332,-1,332,334,335,-1,332,335,330,-1,336,337,322,-1,338,339,324,-1,337,340,322,-1,322,340,341,-1,322,341,327,-1,327,341,342,-1,327,342,328,-1,338,324,343,-1,330,344,331,-1,331,344,345,-1,331,345,324,-1,324,345,346,-1,324,346,343,-1,339,347,324,-1,324,347,348,-1,324,348,322,-1,322,348,349,-1,322,349,336,-1,332,350,351,-1,351,350,352,-1,351,353,332,-1,332,353,354,-1,332,354,333,-1,333,354,355,-1,333,355,356,-1,357,358,359,-1,359,358,360,-1,360,358,361,-1,361,358,354,-1,361,354,362,-1,362,354,353,-1,362,353,17,-1,17,353,363,-1,17,363,15,-1,352,350,364,-1,364,350,365,-1,364,365,366,-1,367,368,369,-1,370,369,371,-1,372,373,371,-1,371,373,374,-1,371,374,370,-1,370,374,375,-1,376,365,377,-1,377,365,378,-1,355,379,356,-1,356,379,366,-1,356,366,11,-1,11,366,365,-1,11,365,380,-1,380,365,376,-1,9,11,381,-1,382,383,384,-1,384,383,385,-1,384,385,380,-1,380,385,386,-1,380,386,11,-1,11,386,387,-1,11,387,381,-1,384,388,389,-1,390,384,391,-1,390,392,384,-1,384,392,393,-1,384,393,388,-1,389,394,384,-1,384,394,395,-1,384,395,382,-1,396,397,398,-1,398,397,399,-1,391,400,390,-1,390,400,401,-1,390,401,402,-1,402,401,399,-1,402,399,403,-1,403,399,397,-1,7,404,405,-1,405,404,406,-1,406,404,407,-1,406,407,378,-1,8,408,409,-1,409,410,8,-1,8,410,411,-1,8,411,6,-1,412,413,414,-1,415,416,417,-1,417,416,418,-1,417,418,8,-1,8,418,419,-1,8,419,408,-1,420,421,422,-1,422,421,423,-1,424,425,219,-1,219,425,426,-1,219,426,422,-1,422,426,427,-1,422,427,420,-1,10,424,260,-1,260,424,219,-1,260,219,251,-1,251,219,242,-1,251,242,253,-1,22,204,23,-1,23,204,208,-1,23,208,255,-1,255,208,428,-1,255,428,213,-1,213,428,429,-1,213,429,214,-1,430,431,432,-1,181,180,433,-1,433,180,434,-1,433,434,193,-1,193,434,432,-1,193,432,192,-1,192,432,431,-1,192,431,435,-1,436,437,438,-1,432,439,430,-1,430,439,440,-1,430,440,441,-1,441,440,436,-1,441,436,442,-1,442,436,438,-1,443,444,20,-1,20,444,445,-1,257,20,268,-1,268,20,445,-1,268,445,439,-1,439,445,446,-1,439,446,440,-1,447,444,448,-1,448,444,443,-1,448,443,449,-1,450,451,452,-1,453,454,443,-1,443,454,455,-1,443,455,449,-1,256,255,19,-1,19,255,450,-1,19,450,20,-1,20,450,452,-1,20,452,443,-1,443,452,456,-1,443,456,457,-1,458,459,460,-1,460,459,461,-1,460,461,450,-1,450,461,462,-1,450,462,451,-1,457,463,443,-1,443,463,464,-1,443,464,453,-1,465,466,467,-1,465,467,435,-1,466,468,467,-1,467,468,469,-1,467,469,460,-1,460,469,470,-1,460,470,458,-1,471,76,472,-1,472,76,70,-1,472,70,473,-1,473,70,62,-1,473,62,474,-1,474,62,29,-1,474,29,475,-1,475,29,56,-1,475,56,476,-1,476,56,47,-1,476,47,477,-1,477,47,43,-1,478,479,414,-1,414,479,480,-1,481,417,32,-1,413,415,414,-1,414,415,417,-1,414,417,478,-1,478,417,481,-1,478,481,482,-1,5,414,3,-1,3,414,480,-1,3,480,32,-1,32,480,483,-1,32,483,481,-1,484,485,486,-1,485,484,487,-1,487,484,5,-1,487,5,488,-1,489,490,491,-1,491,490,487,-1,491,487,492,-1,492,487,488,-1,492,488,493,-1,493,488,494,-1,2,484,0,-1,0,484,486,-1,0,486,4,-1,4,486,495,-1,4,495,5,-1,5,495,496,-1,5,496,488,-1,7,405,8,-1,8,405,497,-1,8,497,417,-1,417,497,40,-1,417,40,32,-1,32,40,39,-1,32,39,33,-1,2,213,484,-1,484,213,215,-1,484,215,5,-1,5,215,219,-1,5,219,414,-1,414,219,422,-1,414,422,412,-1,412,422,423,-1,10,260,11,-1,11,260,268,-1,11,268,356,-1,356,268,439,-1,356,439,333,-1,333,439,432,-1,333,432,327,-1,327,432,434,-1,327,434,322,-1,322,434,180,-1,322,180,314,-1,435,467,192,-1,192,467,498,-1,192,498,179,-1,179,498,370,-1,179,370,178,-1,369,370,367,-1,367,370,498,-1,367,498,499,-1,499,498,467,-1,499,467,500,-1,500,467,460,-1,500,460,501,-1,501,460,450,-1,501,450,502,-1,502,450,255,-1,502,255,503,-1,503,255,213,-1,503,213,504,-1,504,213,2,-1,504,2,505,-1,505,2,1,-1,505,1,506,-1,506,1,74,-1,506,74,507,-1,378,365,406,-1,406,365,350,-1,406,350,508,-1,508,350,332,-1,508,332,509,-1,509,332,331,-1,509,331,510,-1,510,331,324,-1,510,324,511,-1,511,324,319,-1,511,319,512,-1,512,319,317,-1,512,317,513,-1,514,515,180,-1,187,183,182,-1,182,183,176,-1,182,176,180,-1,180,176,178,-1,180,178,514,-1,516,517,518,-1,318,315,316,-1,316,315,314,-1,316,314,517,-1,517,314,180,-1,517,180,518,-1,518,180,519,-1,520,521,178,-1,522,523,178,-1,178,523,524,-1,178,524,514,-1,178,521,522,-1,522,521,525,-1,522,525,526,-1,523,527,528,-1,528,529,523,-1,523,529,530,-1,523,530,524,-1,531,532,519,-1,519,532,533,-1,519,533,534,-1,515,535,180,-1,180,535,536,-1,180,536,519,-1,519,536,537,-1,519,537,531,-1,534,538,519,-1,519,538,539,-1,519,539,523,-1,523,539,540,-1,523,540,527,-1,541,542,375,-1,375,542,12,-1,375,12,370,-1,370,12,14,-1,370,14,178,-1,178,14,516,-1,178,516,520,-1,520,516,518,-1,543,544,545,-1,546,547,548,-1,549,550,551,-1,552,553,554,-1,554,553,555,-1,373,372,556,-1,556,372,557,-1,558,368,507,-1,542,541,551,-1,551,541,559,-1,551,559,549,-1,549,559,560,-1,507,543,558,-1,558,543,545,-1,558,545,557,-1,557,545,554,-1,557,554,556,-1,556,554,555,-1,556,555,559,-1,559,555,561,-1,562,563,561,-1,561,563,564,-1,561,564,559,-1,559,564,546,-1,559,546,560,-1,560,546,548,-1,513,13,565,-1,565,13,566,-1,567,565,568,-1,568,565,566,-1,568,566,549,-1,549,566,550,-1,569,570,571,-1,565,567,571,-1,571,567,572,-1,573,571,574,-1,574,571,572,-1,574,572,547,-1,547,572,548,-1,575,553,552,-1,552,569,575,-1,575,569,571,-1,575,571,576,-1,576,571,573,-1,576,573,562,-1,562,573,563,-1,577,471,477,-1,571,570,578,-1,545,544,578,-1,578,544,577,-1,578,577,571,-1,571,577,477,-1,579,580,513,-1,513,580,581,-1,513,581,582,-1,583,584,477,-1,477,584,585,-1,477,585,586,-1,587,588,571,-1,571,588,589,-1,571,589,590,-1,591,592,565,-1,565,592,593,-1,565,593,594,-1,594,595,565,-1,565,595,596,-1,565,596,513,-1,513,596,597,-1,513,597,579,-1,586,598,477,-1,477,598,599,-1,477,599,571,-1,571,599,600,-1,571,600,587,-1,582,601,513,-1,513,601,602,-1,513,602,477,-1,477,602,603,-1,477,603,583,-1,590,604,571,-1,571,604,605,-1,571,605,565,-1,565,605,606,-1,565,606,591,-1,
        ]
    }
}
Shape{
    appearance Appearance {
        material  Material 	{
            diffuseColor 1.0 1.0 0.0
            specularColor 0.5019607843137255 0.5019607843137255 0.0
            ambientIntensity 0.2
            transparency 0
            shininess 0.5
        }
    }
    geometry IndexedFaceSet {
        ccw TRUE
        solid FALSE
        coord DEF co Coordinate {
            point [
                0.4724 -0.3346 0.3937, 0.4724 -0.3346 0.3252, 0.4724 0.3346 0.3937, 0.4724 0.3346 0.3252, 0.4331 0.374 0.3937, 0.4331 0.374 0.3252, -0.4331 0.374 0.3937, -0.4331 0.374 0.3252, -0.4724 0.3346 0.3937, -0.4724 0.3346 0.3252, -0.4724 -0.3346 0.3937, -0.4724 -0.3346 0.3252, -0.4331 -0.374 0.3937, -0.4331 -0.374 0.3252, 0.4331 -0.374 0.3937, 0.4331 -0.374 0.3252, 0.4331 -0.374 0.3252
            ]
        }
        coordIndex [
            0,1,2,-1,2,1,3,-1,4,5,6,-1,6,5,7,-1,8,9,10,-1,10,9,11,-1,12,13,14,-1,14,13,15,-1,
        ]
    }
}
Shape{
    appearance Appearance {
        material  Material 	{
            diffuseColor 0.7529411764705882 0.7529411764705882 0.7529411764705882
            specularColor 0.3764705882352941 0.3764705882352941 0.3764705882352941
            ambientIntensity 0.2
            transparency 0
            shininess 0.5
        }
    }
    geometry IndexedFaceSet {
        ccw TRUE
        solid FALSE
        coord DEF co Coordinate {
            point [
                -0.3578 0.2815 0.4331, -0.3599 0.2764 0.4331, 0.4331 0.3346 0.4331, -0.398 0.2922 0.4331, -0.396 0.2973 0.4331, -0.4331 0.3346 0.4331, -0.3632 0.3016 0.4331, -0.3599 0.2973 0.4331, -0.3779 0.266 0.4331, -0.3833 0.2667 0.4331, -0.4331 -0.3346 0.4331, -0.3883 0.2688 0.4331, -0.3926 0.2721 0.4331, -0.396 0.2764 0.4331, -0.398 0.2815 0.4331, -0.3987 0.2869 0.4331, -0.3926 0.3016 0.4331, -0.3883 0.3049 0.4331, -0.3833 0.307 0.4331, -0.3578 0.2922 0.4331, -0.3571 0.2869 0.4331, 0.4331 -0.3346 0.4331, 0.332 -0.1582 0.4331, 0.3241 -0.1772 0.4331, 0.3116 -0.1935 0.4331, 0.2953 -0.206 0.4331, 0.2763 -0.2139 0.4331, 0.3116 -0.0821 0.4331, 0.3241 -0.0984 0.4331, 0.332 -0.1174 0.4331, 0.3346 -0.1378 0.4331, -0.3779 0.3077 0.4331, -0.3725 0.307 0.4331, -0.3675 0.3049 0.4331, 0.2002 -0.1935 0.4331, 0.1877 -0.1772 0.4331, 0.1798 -0.1582 0.4331, 0.1772 -0.1378 0.4331, 0.2559 -0.2165 0.4331, 0.2355 -0.2139 0.4331, 0.2165 -0.206 0.4331, 0.2002 -0.0821 0.4331, 0.2165 -0.0696 0.4331, 0.2559 -0.0591 0.4331, 0.2763 -0.0617 0.4331, 0.2953 -0.0696 0.4331, 0.2355 -0.0617 0.4331, 0.1798 -0.1174 0.4331, 0.1877 -0.0984 0.4331, -0.3725 0.2667 0.4331, -0.3675 0.2688 0.4331, -0.3632 0.2721 0.4331, -0.3632 0.2721 0.4331
            ]
        }
        coordIndex [
            0,1,2,-1,3,4,5,-1,2,6,7,-1,8,9,10,-1,10,9,11,-1,10,11,12,-1,12,13,10,-1,10,13,14,-1,10,14,5,-1,5,14,15,-1,5,15,3,-1,4,16,5,-1,5,16,17,-1,5,17,18,-1,7,19,2,-1,2,19,20,-1,2,20,0,-1,21,22,23,-1,23,24,21,-1,21,24,25,-1,21,25,26,-1,27,28,2,-1,2,28,29,-1,2,29,21,-1,21,29,30,-1,21,30,22,-1,18,31,5,-1,5,31,32,-1,5,32,2,-1,2,32,33,-1,2,33,6,-1,10,34,35,-1,35,36,10,-1,10,36,37,-1,10,37,8,-1,26,38,21,-1,21,38,39,-1,21,39,10,-1,10,39,40,-1,10,40,34,-1,41,42,1,-1,43,44,2,-1,2,44,45,-1,2,45,27,-1,1,42,2,-1,2,42,46,-1,2,46,43,-1,37,47,8,-1,8,47,48,-1,8,48,49,-1,49,48,50,-1,41,1,48,-1,48,1,51,-1,48,51,50,-1,
        ]
    }
}
Shape{
    appearance Appearance {
        material  Material 	{
            diffuseColor 1.0 1.0 0.0
            specularColor 0.5019607843137255 0.5019607843137255 0.0
            ambientIntensity 0.2
            transparency 0
            shininess 0.5
        }
    }
    geometry IndexedFaceSet {
        ccw TRUE
        solid FALSE
        coord DEF co Coordinate {
            point [
                0.4724 0.3346 0.3937, 0.4724 0.3346 0.3252, 0.4711 0.3448 0.3252, 0.4711 0.3448 0.3937, 0.4672 0.3543 0.3252, 0.4672 0.3543 0.3937, 0.4609 0.3625 0.3252, 0.4609 0.3625 0.3937, 0.4528 0.3687 0.3252, 0.4528 0.3687 0.3937, 0.4433 0.3727 0.3252, 0.4433 0.3727 0.3937, 0.4331 0.374 0.3252, 0.4331 0.374 0.3937, -0.4331 0.374 0.3937, -0.4331 0.374 0.3252, -0.4433 0.3727 0.3252, -0.4433 0.3727 0.3937, -0.4528 0.3687 0.3252, -0.4528 0.3687 0.3937, -0.4609 0.3625 0.3252, -0.4609 0.3625 0.3937, -0.4672 0.3543 0.3252, -0.4672 0.3543 0.3937, -0.4711 0.3448 0.3252, -0.4711 0.3448 0.3937, -0.4724 0.3346 0.3252, -0.4724 0.3346 0.3937, -0.4724 -0.3346 0.3937, -0.4724 -0.3346 0.3252, -0.4711 -0.3448 0.3252, -0.4711 -0.3448 0.3937, -0.4672 -0.3543 0.3252, -0.4672 -0.3543 0.3937, -0.4609 -0.3625 0.3252, -0.4609 -0.3625 0.3937, -0.4528 -0.3687 0.3252, -0.4528 -0.3687 0.3937, -0.4433 -0.3727 0.3252, -0.4433 -0.3727 0.3937, -0.4331 -0.374 0.3252, -0.4331 -0.374 0.3937, 0.4331 -0.374 0.3937, 0.4331 -0.374 0.3252, 0.4433 -0.3727 0.3252, 0.4433 -0.3727 0.3937, 0.4528 -0.3687 0.3252, 0.4528 -0.3687 0.3937, 0.4609 -0.3625 0.3252, 0.4609 -0.3625 0.3937, 0.4672 -0.3543 0.3252, 0.4672 -0.3543 0.3937, 0.4711 -0.3448 0.3252, 0.4711 -0.3448 0.3937, 0.4724 -0.3346 0.3252, 0.4724 -0.3346 0.3937, -0.4331 0.3346 0.4331, -0.4331 -0.3346 0.4331, 0.4331 0.3346 0.4331, 0.4331 -0.3346 0.4331, 0.4331 -0.3346 0.4331
            ]
        }
        coordIndex [
            0,1,2,-1,0,2,3,-1,3,2,4,-1,3,4,5,-1,5,4,6,-1,5,6,7,-1,7,6,8,-1,7,8,9,-1,9,8,10,-1,9,10,11,-1,11,10,12,-1,11,12,13,-1,14,15,16,-1,14,16,17,-1,17,16,18,-1,17,18,19,-1,19,18,20,-1,19,20,21,-1,21,20,22,-1,21,22,23,-1,23,22,24,-1,23,24,25,-1,25,24,26,-1,25,26,27,-1,28,29,30,-1,28,30,31,-1,31,30,32,-1,31,32,33,-1,33,32,34,-1,33,34,35,-1,35,34,36,-1,35,36,37,-1,37,36,38,-1,37,38,39,-1,39,38,40,-1,39,40,41,-1,42,43,44,-1,42,44,45,-1,45,44,46,-1,45,46,47,-1,47,46,48,-1,47,48,49,-1,49,48,50,-1,49,50,51,-1,51,50,52,-1,51,52,53,-1,53,52,54,-1,53,54,55,-1,25,27,56,-1,25,56,23,-1,21,23,56,-1,19,21,56,-1,17,19,56,-1,14,17,56,-1,28,57,27,-1,27,57,56,-1,58,13,56,-1,56,13,14,-1,39,41,57,-1,39,57,37,-1,35,37,57,-1,33,35,57,-1,31,33,57,-1,28,31,57,-1,11,13,58,-1,11,58,9,-1,7,9,58,-1,5,7,58,-1,3,5,58,-1,0,3,58,-1,42,59,41,-1,41,59,57,-1,59,55,58,-1,58,55,0,-1,53,55,59,-1,53,59,51,-1,49,51,59,-1,47,49,59,-1,45,47,59,-1,42,45,59,-1,
        ]
    }
}
Shape{
    appearance Appearance {
        material  Material 	{
            diffuseColor 0.25098039215686274 0.25098039215686274 0.25098039215686274
            specularColor 0.12549019607843137 0.12549019607843137 0.12549019607843137
            ambientIntensity 0.2
            transparency 0
            shininess 0.5
        }
    }
    geometry IndexedFaceSet {
        ccw TRUE
        solid FALSE
        coord DEF co Coordinate {
            point [
                0.0591 0.3937 0.0079, 0.0591 0.2165 0.0079, 0.0591 0.3937 0.0, 0.0591 0.2165 0.0, 0.1969 0.2165 0.0079, 0.1969 0.2165 0.0, 0.1969 0.3937 0.0079, 0.1969 0.3937 0.0, -0.4921 0.2165 0.0079, -0.315 0.2165 0.0079, -0.4921 0.2165 0.0, -0.315 0.2165 0.0, -0.315 0.3937 0.0079, -0.315 0.3937 0.0, -0.4921 0.3937 0.0079, -0.1969 0.3937 0.0079, -0.1969 0.2165 0.0079, -0.1969 0.3937 0.0, -0.1969 0.2165 0.0, -0.0591 0.2165 0.0079, -0.0591 0.2165 0.0, -0.0591 0.3937 0.0079, -0.0591 0.3937 0.0, 0.315 0.3937 0.0079, 0.315 0.2165 0.0079, 0.315 0.3937 0.0, 0.315 0.2165 0.0, 0.4921 0.2165 0.0, 0.4921 0.2165 0.0079, 0.4921 0.3937 0.0079, 0.0591 -0.2165 0.0079, 0.0591 -0.3937 0.0079, 0.0591 -0.2165 0.0, 0.0591 -0.3937 0.0, 0.1969 -0.3937 0.0079, 0.1969 -0.2165 0.0079, 0.1969 -0.3937 0.0, 0.1969 -0.2165 0.0, -0.1969 -0.2165 0.0079, -0.1969 -0.3937 0.0079, -0.1969 -0.2165 0.0, -0.1969 -0.3937 0.0, -0.0591 -0.3937 0.0079, -0.0591 -0.2165 0.0079, -0.0591 -0.3937 0.0, -0.0591 -0.2165 0.0, -0.315 -0.3937 0.0079, -0.315 -0.2165 0.0079, -0.315 -0.3937 0.0, -0.315 -0.2165 0.0, -0.4921 -0.2165 0.0, -0.4921 -0.2165 0.0079, -0.4921 -0.3937 0.0079, 0.315 -0.2165 0.0079, 0.315 -0.3937 0.0079, 0.315 -0.2165 0.0, 0.315 -0.3937 0.0, 0.4921 -0.2165 0.0079, 0.4921 -0.2165 0.0, 0.4921 -0.3937 0.0079, 0.4921 -0.3937 0.0079
            ]
        }
        coordIndex [
            0,1,2,-1,2,1,3,-1,1,4,3,-1,3,4,5,-1,4,6,5,-1,5,6,7,-1,6,4,0,-1,0,4,1,-1,8,9,10,-1,10,9,11,-1,9,12,11,-1,11,12,13,-1,12,9,14,-1,14,9,8,-1,15,16,17,-1,17,16,18,-1,16,19,18,-1,18,19,20,-1,19,21,20,-1,20,21,22,-1,21,19,15,-1,15,19,16,-1,23,24,25,-1,25,24,26,-1,26,24,27,-1,27,24,28,-1,28,24,29,-1,29,24,23,-1,30,31,32,-1,32,31,33,-1,34,35,36,-1,36,35,37,-1,35,30,37,-1,37,30,32,-1,35,34,30,-1,30,34,31,-1,38,39,40,-1,40,39,41,-1,42,43,44,-1,44,43,45,-1,43,38,45,-1,45,38,40,-1,43,42,38,-1,38,42,39,-1,46,47,48,-1,48,47,49,-1,50,49,51,-1,51,49,47,-1,51,47,52,-1,52,47,46,-1,53,54,55,-1,55,54,56,-1,53,55,57,-1,57,55,58,-1,54,53,59,-1,59,53,57,-1,
        ]
    }
}
Shape{
    appearance Appearance {
        material  Material 	{
            diffuseColor 0.0 0.0 0.0
            specularColor 0.0 0.0 0.0
            ambientIntensity 0.2
            transparency 0
            shininess 0.5
        }
    }
    geometry IndexedFaceSet {
        ccw TRUE
        solid FALSE
        coord DEF co Coordinate {
            point [
                0.3346 -0.1378 0.315, 0.3346 -0.1378 0.4331, 0.332 -0.1174 0.315, 0.332 -0.1174 0.4331, 0.3241 -0.0984 0.315, 0.3241 -0.0984 0.4331, 0.3116 -0.0821 0.315, 0.3116 -0.0821 0.4331, 0.2953 -0.0696 0.315, 0.2953 -0.0696 0.4331, 0.2763 -0.0617 0.315, 0.2763 -0.0617 0.4331, 0.2559 -0.0591 0.315, 0.2559 -0.0591 0.4331, 0.2355 -0.0617 0.315, 0.2355 -0.0617 0.4331, 0.2165 -0.0696 0.315, 0.2165 -0.0696 0.4331, 0.2002 -0.0821 0.315, 0.2002 -0.0821 0.4331, 0.1877 -0.0984 0.315, 0.1877 -0.0984 0.4331, 0.1798 -0.1174 0.315, 0.1798 -0.1174 0.4331, 0.1772 -0.1378 0.315, 0.1772 -0.1378 0.4331, 0.1798 -0.1582 0.315, 0.1798 -0.1582 0.4331, 0.1877 -0.1772 0.315, 0.1877 -0.1772 0.4331, 0.2002 -0.1935 0.315, 0.2002 -0.1935 0.4331, 0.2165 -0.206 0.315, 0.2165 -0.206 0.4331, 0.2355 -0.2139 0.315, 0.2355 -0.2139 0.4331, 0.2559 -0.2165 0.315, 0.2559 -0.2165 0.4331, 0.2763 -0.2139 0.315, 0.2763 -0.2139 0.4331, 0.2953 -0.206 0.315, 0.2953 -0.206 0.4331, 0.3116 -0.1935 0.315, 0.3116 -0.1935 0.4331, 0.3241 -0.1772 0.315, 0.3241 -0.1772 0.4331, 0.332 -0.1582 0.315, 0.332 -0.1582 0.4331, 0.2559 -0.1378 0.315, -0.3571 0.2869 0.4291, -0.3571 0.2869 0.4331, -0.3578 0.2922 0.4291, -0.3578 0.2922 0.4331, -0.3599 0.2973 0.4291, -0.3599 0.2973 0.4331, -0.3632 0.3016 0.4291, -0.3632 0.3016 0.4331, -0.3675 0.3049 0.4291, -0.3675 0.3049 0.4331, -0.3725 0.307 0.4291, -0.3725 0.307 0.4331, -0.3779 0.3077 0.4291, -0.3779 0.3077 0.4331, -0.3833 0.307 0.4291, -0.3833 0.307 0.4331, -0.3883 0.3049 0.4291, -0.3883 0.3049 0.4331, -0.3926 0.3016 0.4291, -0.3926 0.3016 0.4331, -0.396 0.2973 0.4291, -0.396 0.2973 0.4331, -0.398 0.2922 0.4291, -0.398 0.2922 0.4331, -0.3987 0.2869 0.4291, -0.3987 0.2869 0.4331, -0.398 0.2815 0.4291, -0.398 0.2815 0.4331, -0.396 0.2764 0.4291, -0.396 0.2764 0.4331, -0.3926 0.2721 0.4291, -0.3926 0.2721 0.4331, -0.3883 0.2688 0.4291, -0.3883 0.2688 0.4331, -0.3833 0.2667 0.4291, -0.3833 0.2667 0.4331, -0.3779 0.266 0.4291, -0.3779 0.266 0.4331, -0.3725 0.2667 0.4291, -0.3725 0.2667 0.4331, -0.3675 0.2688 0.4291, -0.3675 0.2688 0.4331, -0.3632 0.2721 0.4291, -0.3632 0.2721 0.4331, -0.3599 0.2764 0.4291, -0.3599 0.2764 0.4331, -0.3578 0.2815 0.4291, -0.3578 0.2815 0.4331, -0.3779 0.2869 0.4291, -0.3779 0.2869 0.4291
            ]
        }
        coordIndex [
            0,1,2,-1,2,1,3,-1,2,3,4,-1,4,3,5,-1,4,5,6,-1,6,5,7,-1,6,7,8,-1,8,7,9,-1,8,9,10,-1,10,9,11,-1,10,11,12,-1,12,11,13,-1,12,13,14,-1,14,13,15,-1,14,15,16,-1,16,15,17,-1,16,17,18,-1,18,17,19,-1,18,19,20,-1,20,19,21,-1,20,21,22,-1,22,21,23,-1,22,23,24,-1,24,23,25,-1,24,25,26,-1,26,25,27,-1,26,27,28,-1,28,27,29,-1,28,29,30,-1,30,29,31,-1,30,31,32,-1,32,31,33,-1,32,33,34,-1,34,33,35,-1,34,35,36,-1,36,35,37,-1,36,37,38,-1,38,37,39,-1,38,39,40,-1,40,39,41,-1,40,41,42,-1,42,41,43,-1,42,43,44,-1,44,43,45,-1,44,45,46,-1,46,45,47,-1,46,47,0,-1,0,47,1,-1,44,46,48,-1,48,46,0,-1,48,0,2,-1,38,40,48,-1,48,40,42,-1,48,42,44,-1,32,34,48,-1,48,34,36,-1,48,36,38,-1,26,28,48,-1,48,28,30,-1,48,30,32,-1,20,22,48,-1,48,22,24,-1,48,24,26,-1,14,16,48,-1,48,16,18,-1,48,18,20,-1,8,10,48,-1,48,10,12,-1,48,12,14,-1,2,4,48,-1,48,4,6,-1,48,6,8,-1,49,50,51,-1,51,50,52,-1,51,52,53,-1,53,52,54,-1,53,54,55,-1,55,54,56,-1,55,56,57,-1,57,56,58,-1,57,58,59,-1,59,58,60,-1,59,60,61,-1,61,60,62,-1,61,62,63,-1,63,62,64,-1,63,64,65,-1,65,64,66,-1,65,66,67,-1,67,66,68,-1,67,68,69,-1,69,68,70,-1,69,70,71,-1,71,70,72,-1,71,72,73,-1,73,72,74,-1,73,74,75,-1,75,74,76,-1,75,76,77,-1,77,76,78,-1,77,78,79,-1,79,78,80,-1,79,80,81,-1,81,80,82,-1,81,82,83,-1,83,82,84,-1,83,84,85,-1,85,84,86,-1,85,86,87,-1,87,86,88,-1,87,88,89,-1,89,88,90,-1,89,90,91,-1,91,90,92,-1,91,92,93,-1,93,92,94,-1,93,94,95,-1,95,94,96,-1,95,96,49,-1,49,96,50,-1,93,95,97,-1,97,95,49,-1,97,49,51,-1,87,89,97,-1,97,89,91,-1,97,91,93,-1,81,83,97,-1,97,83,85,-1,97,85,87,-1,75,77,97,-1,97,77,79,-1,97,79,81,-1,69,71,97,-1,97,71,73,-1,97,73,75,-1,63,65,97,-1,97,65,67,-1,97,67,69,-1,57,59,97,-1,97,59,61,-1,97,61,63,-1,51,53,97,-1,97,53,55,-1,97,55,57,-1,
        ]
    }
}
Shape{
    appearance Appearance {
        material  Material 	{
            diffuseColor 1.0 1.0 1.0
            specularColor 0.5019607843137255 0.5019607843137255 0.5019607843137255
            ambientIntensity 0.2
            transparency 0
            shininess 0.5
        }
    }
    geometry IndexedFaceSet {
        ccw TRUE
        solid FALSE
        coord DEF co Coordinate {
            point [
                -0.2882 -0.3976 0.252, -0.2882 -0.3976 0.249, -0.2882 -0.3937 0.252, -0.2882 -0.3937 0.249, -0.2988 -0.3976 0.252, -0.2988 -0.3937 0.252, -0.2988 -0.3976 0.2757, -0.2988 -0.3937 0.2757, -0.3023 -0.3976 0.2757, -0.3023 -0.3937 0.2757, -0.3023 -0.3976 0.249, -0.3023 -0.3937 0.249, -0.2745 -0.3937 0.2486, -0.2721 -0.3937 0.2488, -0.2745 -0.3976 0.2486, -0.2704 -0.3976 0.2489, -0.2704 -0.3937 0.2489, -0.2676 -0.3937 0.2499, -0.2676 -0.3976 0.2499, -0.2671 -0.3937 0.2501, -0.2671 -0.3976 0.2501, -0.2671 -0.3976 0.2534, -0.2671 -0.3937 0.2534, -0.2697 -0.3937 0.2522, -0.2697 -0.3976 0.2522, -0.2727 -0.3937 0.2517, -0.2727 -0.3976 0.2517, -0.274 -0.3937 0.2516, -0.274 -0.3976 0.2516, -0.2767 -0.3937 0.2519, -0.2767 -0.3976 0.2519, -0.2786 -0.3937 0.2527, -0.2786 -0.3976 0.2527, -0.2803 -0.3937 0.2539, -0.2803 -0.3976 0.2539, -0.2809 -0.3937 0.2544, -0.2809 -0.3976 0.2544, -0.282 -0.3937 0.2559, -0.282 -0.3976 0.2559, -0.2829 -0.3937 0.258, -0.2829 -0.3976 0.258, -0.2834 -0.3937 0.2606, -0.2834 -0.3976 0.2606, -0.2835 -0.3937 0.2621, -0.2835 -0.3976 0.2621, -0.283 -0.3937 0.2657, -0.283 -0.3976 0.2657, -0.2821 -0.3937 0.268, -0.2821 -0.3976 0.268, -0.2807 -0.3937 0.2701, -0.2807 -0.3976 0.2701, -0.2789 -0.3937 0.2716, -0.2789 -0.3976 0.2716, -0.2768 -0.3937 0.2725, -0.2768 -0.3976 0.2725, -0.2744 -0.3937 0.273, -0.2744 -0.3976 0.273, -0.2734 -0.3937 0.273, -0.2734 -0.3976 0.273, -0.2701 -0.3937 0.2726, -0.2701 -0.3976 0.2726, -0.2674 -0.3937 0.2716, -0.2674 -0.3976 0.2716, -0.2671 -0.3937 0.2715, -0.2671 -0.3976 0.2715, -0.2671 -0.3976 0.2751, -0.2671 -0.3937 0.2751, -0.2734 -0.3937 0.2761, -0.2734 -0.3976 0.2761, -0.2734 -0.3976 0.2761, -0.2699 -0.3937 0.2759, -0.2699 -0.3976 0.2759, -0.2706 -0.3937 0.2759, -0.2734 -0.3937 0.2761, -0.2753 -0.3937 0.2759, -0.2773 -0.3976 0.2757, -0.2773 -0.3937 0.2757, -0.2801 -0.3937 0.2746, -0.2801 -0.3976 0.2746, -0.2826 -0.3937 0.2728, -0.2826 -0.3976 0.2728, -0.2832 -0.3937 0.2722, -0.2832 -0.3976 0.2722, -0.2852 -0.3937 0.2697, -0.2852 -0.3976 0.2697, -0.2859 -0.3937 0.268, -0.2864 -0.3976 0.2667, -0.2864 -0.3937 0.2667, -0.287 -0.3937 0.2632, -0.287 -0.3976 0.2632, -0.2871 -0.3937 0.2618, -0.2871 -0.3976 0.2618, -0.2837 -0.3937 0.2522, -0.2837 -0.3976 0.2522, -0.2855 -0.3976 0.2547, -0.2866 -0.3937 0.2575, -0.2866 -0.3976 0.2575, -0.2859 -0.3937 0.2558, -0.2855 -0.3937 0.2547, -0.2761 -0.3976 0.2486, -0.2815 -0.3937 0.2504, -0.2815 -0.3976 0.2504, -0.279 -0.3937 0.2492, -0.279 -0.3976 0.2492, -0.2768 -0.3937 0.2488, -0.2761 -0.3937 0.2486, -0.2474 -0.3976 0.252, -0.2474 -0.3976 0.249, -0.2474 -0.3937 0.252, -0.2474 -0.3937 0.249, -0.2583 -0.3937 0.252, -0.2583 -0.3976 0.252, -0.2511 -0.3937 0.252, -0.2583 -0.3976 0.261, -0.2583 -0.3937 0.261, -0.2488 -0.3976 0.261, -0.2511 -0.3937 0.261, -0.2488 -0.3937 0.261, -0.2488 -0.3976 0.2641, -0.2488 -0.3937 0.2641, -0.2583 -0.3937 0.2641, -0.2583 -0.3976 0.2641, -0.2511 -0.3937 0.2641, -0.2583 -0.3976 0.2726, -0.2583 -0.3937 0.2726, -0.248 -0.3976 0.2726, -0.2511 -0.3937 0.2726, -0.248 -0.3937 0.2726, -0.248 -0.3976 0.2757, -0.248 -0.3937 0.2757, -0.2618 -0.3937 0.2757, -0.2618 -0.3976 0.2757, -0.2511 -0.3937 0.2757, -0.2618 -0.3976 0.249, -0.2618 -0.3937 0.249, -0.2511 -0.3937 0.249, -0.2259 -0.3976 0.2562, -0.2271 -0.3976 0.2548, -0.2247 -0.3976 0.2527, -0.2274 -0.3976 0.2546, -0.2274 -0.3976 0.2508, -0.2291 -0.3976 0.2534, -0.2305 -0.3976 0.2496, -0.2313 -0.3976 0.2525, -0.235 -0.3976 0.249, -0.235 -0.3976 0.252, -0.2424 -0.3976 0.249, -0.2389 -0.3976 0.252, -0.2424 -0.3976 0.2757, -0.2389 -0.3976 0.2726, -0.2348 -0.3976 0.2757, -0.2349 -0.3976 0.2726, -0.2307 -0.3976 0.2752, -0.2315 -0.3976 0.2722, -0.2275 -0.3976 0.2741, -0.2291 -0.3976 0.2714, -0.2247 -0.3976 0.2722, -0.2272 -0.3976 0.2701, -0.2237 -0.3976 0.2713, -0.2265 -0.3976 0.2694, -0.2221 -0.3976 0.2689, -0.2254 -0.3976 0.2679, -0.2211 -0.3976 0.2664, -0.2247 -0.3976 0.266, -0.2206 -0.3976 0.2627, -0.2243 -0.3976 0.2626, -0.2207 -0.3976 0.261, -0.2244 -0.3976 0.2605, -0.2214 -0.3976 0.2579, -0.225 -0.3976 0.2582, -0.2227 -0.3976 0.2551, -0.235 -0.3937 0.249, -0.2424 -0.3937 0.249, -0.2247 -0.3937 0.2527, -0.2305 -0.3937 0.2496, -0.2301 -0.3937 0.2497, -0.2274 -0.3937 0.2508, -0.2227 -0.3937 0.2551, -0.2214 -0.3937 0.2579, -0.2207 -0.3937 0.261, -0.2206 -0.3937 0.2627, -0.2211 -0.3937 0.2664, -0.2221 -0.3937 0.2689, -0.2237 -0.3937 0.2713, -0.2247 -0.3937 0.2722, -0.2348 -0.3937 0.2757, -0.2275 -0.3937 0.2741, -0.2301 -0.3937 0.2751, -0.2307 -0.3937 0.2752, -0.2424 -0.3937 0.2757, -0.2349 -0.3937 0.2726, -0.2389 -0.3937 0.2726, -0.2389 -0.3937 0.252, -0.235 -0.3937 0.252, -0.2271 -0.3937 0.2548, -0.2274 -0.3937 0.2546, -0.2291 -0.3937 0.2534, -0.2313 -0.3937 0.2525, -0.2243 -0.3937 0.2626, -0.2244 -0.3937 0.2605, -0.225 -0.3937 0.2582, -0.2259 -0.3937 0.2562, -0.2272 -0.3937 0.2701, -0.2265 -0.3937 0.2694, -0.2254 -0.3937 0.2679, -0.2247 -0.3937 0.266, -0.2315 -0.3937 0.2722, -0.2291 -0.3937 0.2714, -0.2291 -0.3937 0.2714
            ]
        }
        coordIndex [
            0,1,2,-1,2,1,3,-1,4,0,5,-1,5,0,2,-1,6,4,7,-1,7,4,5,-1,8,6,9,-1,9,6,7,-1,10,8,11,-1,11,8,9,-1,1,10,3,-1,3,10,11,-1,6,8,4,-1,4,8,10,-1,4,10,0,-1,0,10,1,-1,12,13,14,-1,14,13,15,-1,13,16,15,-1,15,16,17,-1,15,17,18,-1,18,17,19,-1,18,19,20,-1,21,20,22,-1,22,20,19,-1,21,22,23,-1,21,23,24,-1,24,23,25,-1,24,25,26,-1,26,25,27,-1,26,27,28,-1,28,27,29,-1,28,29,30,-1,30,29,31,-1,30,31,32,-1,32,31,33,-1,32,33,34,-1,34,33,35,-1,34,35,36,-1,36,35,37,-1,36,37,38,-1,38,37,39,-1,38,39,40,-1,40,39,41,-1,40,41,42,-1,42,41,43,-1,42,43,44,-1,44,43,45,-1,44,45,46,-1,46,45,47,-1,46,47,48,-1,48,47,49,-1,48,49,50,-1,50,49,51,-1,50,51,52,-1,52,51,53,-1,52,53,54,-1,54,53,55,-1,54,55,56,-1,56,55,57,-1,56,57,58,-1,58,57,59,-1,58,59,60,-1,60,59,61,-1,60,61,62,-1,62,61,63,-1,62,63,64,-1,65,64,66,-1,66,64,63,-1,67,68,69,-1,65,66,70,-1,65,70,71,-1,71,70,72,-1,71,72,69,-1,69,72,73,-1,69,73,67,-1,68,67,74,-1,68,74,75,-1,74,76,75,-1,75,76,77,-1,75,77,78,-1,78,77,79,-1,78,79,80,-1,80,79,81,-1,80,81,82,-1,82,81,83,-1,82,83,84,-1,84,83,85,-1,84,85,86,-1,85,87,86,-1,86,87,88,-1,86,88,89,-1,89,88,90,-1,89,90,91,-1,92,93,94,-1,91,90,95,-1,91,95,96,-1,96,95,97,-1,96,97,94,-1,94,97,98,-1,94,98,92,-1,12,14,99,-1,93,92,100,-1,93,100,101,-1,101,100,102,-1,101,102,103,-1,103,102,104,-1,103,104,99,-1,99,104,105,-1,99,105,12,-1,62,64,65,-1,52,80,50,-1,50,80,82,-1,50,82,48,-1,48,82,84,-1,48,84,46,-1,91,44,89,-1,89,44,46,-1,89,46,86,-1,86,46,84,-1,62,65,60,-1,60,65,71,-1,60,71,58,-1,58,71,69,-1,58,69,56,-1,56,69,68,-1,56,68,54,-1,54,68,75,-1,54,75,52,-1,52,75,78,-1,52,78,80,-1,20,21,18,-1,18,21,24,-1,18,24,15,-1,15,24,26,-1,15,26,14,-1,14,26,28,-1,14,28,99,-1,99,28,30,-1,99,30,103,-1,103,30,32,-1,103,32,101,-1,101,32,34,-1,101,34,93,-1,93,34,36,-1,93,36,94,-1,94,36,38,-1,94,38,96,-1,96,38,40,-1,96,40,91,-1,91,40,42,-1,91,42,44,-1,106,107,108,-1,108,107,109,-1,110,111,112,-1,112,111,106,-1,112,106,108,-1,113,111,114,-1,114,111,110,-1,113,114,115,-1,115,114,116,-1,115,116,117,-1,118,115,119,-1,119,115,117,-1,120,121,122,-1,122,121,118,-1,122,118,119,-1,123,121,124,-1,124,121,120,-1,123,124,125,-1,125,124,126,-1,125,126,127,-1,128,125,129,-1,129,125,127,-1,130,131,132,-1,132,131,128,-1,132,128,129,-1,133,131,134,-1,134,131,130,-1,133,134,107,-1,107,134,135,-1,107,135,109,-1,133,107,106,-1,106,111,133,-1,133,111,113,-1,133,113,131,-1,125,128,123,-1,123,128,131,-1,123,131,121,-1,121,131,113,-1,121,113,118,-1,118,113,115,-1,136,137,138,-1,138,137,139,-1,138,139,140,-1,140,139,141,-1,140,141,142,-1,142,141,143,-1,142,143,144,-1,144,143,145,-1,144,145,146,-1,146,145,147,-1,146,147,148,-1,148,147,149,-1,148,149,150,-1,150,149,151,-1,150,151,152,-1,152,151,153,-1,152,153,154,-1,154,153,155,-1,154,155,156,-1,156,155,157,-1,156,157,158,-1,158,157,159,-1,158,159,160,-1,160,159,161,-1,160,161,162,-1,162,161,163,-1,162,163,164,-1,164,163,165,-1,164,165,166,-1,166,165,167,-1,166,167,168,-1,168,167,169,-1,168,169,170,-1,170,169,136,-1,170,136,138,-1,144,146,171,-1,171,146,172,-1,173,138,140,-1,144,171,174,-1,144,174,142,-1,142,174,175,-1,142,175,140,-1,140,175,176,-1,140,176,173,-1,138,173,177,-1,138,177,170,-1,170,177,178,-1,170,178,168,-1,168,178,179,-1,168,179,166,-1,166,179,180,-1,166,180,164,-1,164,180,181,-1,164,181,162,-1,162,181,182,-1,162,182,160,-1,160,182,183,-1,160,183,158,-1,158,183,184,-1,158,184,156,-1,185,150,152,-1,156,184,186,-1,156,186,154,-1,154,186,187,-1,154,187,152,-1,152,187,188,-1,152,188,185,-1,148,150,189,-1,189,150,185,-1,146,148,172,-1,172,148,189,-1,151,149,190,-1,190,149,191,-1,149,147,191,-1,191,147,192,-1,147,145,192,-1,192,145,193,-1,137,194,195,-1,137,195,139,-1,139,195,196,-1,139,196,141,-1,141,196,197,-1,141,197,143,-1,143,197,193,-1,143,193,145,-1,165,198,199,-1,165,199,167,-1,167,199,200,-1,167,200,169,-1,169,200,201,-1,169,201,136,-1,136,201,194,-1,136,194,137,-1,157,202,203,-1,157,203,159,-1,159,203,204,-1,159,204,161,-1,161,204,205,-1,161,205,163,-1,163,205,198,-1,163,198,165,-1,151,190,206,-1,151,206,153,-1,153,206,207,-1,153,207,155,-1,155,207,202,-1,155,202,157,-1,
        ]
    }
}
Shape{
    appearance Appearance {
        material  Material 	{
            diffuseColor 0.25098039215686274 0.25098039215686274 0.25098039215686274
            specularColor 0.12549019607843137 0.12549019607843137 0.12549019607843137
            ambientIntensity 0.2
            transparency 0
            shininess 0.5
        }
    }
    geometry IndexedFaceSet {
        ccw TRUE
        solid FALSE
        coord DEF co Coordinate {
            point [
                -0.2274 -0.3937 0.2546, -0.2271 -0.3937 0.2548, -0.2349 -0.3937 0.2726, -0.2389 -0.3937 0.2726, -0.2389 -0.3937 0.252, -0.235 -0.3937 0.252, -0.2313 -0.3937 0.2525, -0.2291 -0.3937 0.2534, -0.2259 -0.3937 0.2562, -0.225 -0.3937 0.2582, -0.2244 -0.3937 0.2605, -0.2243 -0.3937 0.2626, -0.2247 -0.3937 0.266, -0.2254 -0.3937 0.2679, -0.2265 -0.3937 0.2694, -0.2272 -0.3937 0.2701, -0.2315 -0.3937 0.2722, -0.2291 -0.3937 0.2714, -0.2291 -0.3937 0.2714
            ]
        }
        coordIndex [
            0,1,2,-1,3,4,2,-1,2,4,5,-1,5,6,2,-1,2,6,7,-1,2,7,0,-1,1,8,2,-1,2,8,9,-1,2,9,10,-1,10,11,2,-1,2,11,12,-1,2,12,13,-1,13,14,2,-1,2,14,15,-1,2,15,16,-1,16,15,17,-1,
        ]
    }
}
Shape{
    appearance Appearance {
        material  Material 	{
            diffuseColor 1.0 1.0 1.0
            specularColor 0.5019607843137255 0.5019607843137255 0.5019607843137255
            ambientIntensity 0.2
            transparency 0
            shininess 0.5
        }
    }
    geometry IndexedFaceSet {
        ccw TRUE
        solid FALSE
        coord DEF co Coordinate {
            point [
                -0.2117 -0.3976 0.2593, -0.2128 -0.3976 0.2563, -0.2027 -0.3976 0.2593, -0.2017 -0.3976 0.2563, -0.2077 -0.3976 0.2704, -0.209 -0.3976 0.2757, -0.2192 -0.3976 0.249, -0.2154 -0.3976 0.249, -0.2075 -0.3976 0.2712, -0.2073 -0.3976 0.2723, -0.2053 -0.3976 0.2757, -0.2072 -0.3976 0.2723, -0.207 -0.3976 0.2712, -0.2068 -0.3976 0.2704, -0.1951 -0.3976 0.249, -0.1989 -0.3976 0.249, -0.2053 -0.3937 0.2757, -0.1951 -0.3937 0.249, -0.209 -0.3937 0.2757, -0.2192 -0.3937 0.249, -0.2115 -0.3937 0.2692, -0.2154 -0.3937 0.249, -0.2128 -0.3937 0.2563, -0.2017 -0.3937 0.2563, -0.2115 -0.3937 0.2563, -0.1989 -0.3937 0.249, -0.2117 -0.3937 0.2593, -0.2027 -0.3937 0.2593, -0.2068 -0.3937 0.2704, -0.2072 -0.3937 0.2723, -0.207 -0.3937 0.2712, -0.2073 -0.3937 0.2723, -0.2077 -0.3937 0.2704, -0.2075 -0.3937 0.2712, -0.2075 -0.3937 0.2712
            ]
        }
        coordIndex [
            0,1,2,-1,2,1,3,-1,4,5,0,-1,0,5,6,-1,0,6,1,-1,1,6,7,-1,4,8,5,-1,5,8,9,-1,5,9,10,-1,10,9,11,-1,10,11,12,-1,12,13,10,-1,10,13,2,-1,10,2,14,-1,14,2,3,-1,14,3,15,-1,10,14,16,-1,16,14,17,-1,5,10,18,-1,18,10,16,-1,19,6,20,-1,20,6,5,-1,20,5,18,-1,7,6,21,-1,21,6,19,-1,1,7,22,-1,22,7,21,-1,23,3,24,-1,24,3,1,-1,24,1,22,-1,15,3,25,-1,25,3,23,-1,14,15,17,-1,17,15,25,-1,0,2,26,-1,26,2,27,-1,2,13,27,-1,27,13,28,-1,11,29,30,-1,11,30,12,-1,12,30,28,-1,12,28,13,-1,11,9,29,-1,29,9,31,-1,4,32,33,-1,4,33,8,-1,8,33,31,-1,8,31,9,-1,4,0,32,-1,32,0,26,-1,
        ]
    }
}
Shape{
    appearance Appearance {
        material  Material 	{
            diffuseColor 0.25098039215686274 0.25098039215686274 0.25098039215686274
            specularColor 0.12549019607843137 0.12549019607843137 0.12549019607843137
            ambientIntensity 0.2
            transparency 0
            shininess 0.5
        }
    }
    geometry IndexedFaceSet {
        ccw TRUE
        solid FALSE
        coord DEF co Coordinate {
            point [
                -0.2072 -0.3937 0.2723, -0.2073 -0.3937 0.2723, -0.207 -0.3937 0.2712, -0.2075 -0.3937 0.2712, -0.2068 -0.3937 0.2704, -0.2077 -0.3937 0.2704, -0.2027 -0.3937 0.2593, -0.2117 -0.3937 0.2593, -0.2117 -0.3937 0.2593
            ]
        }
        coordIndex [
            0,1,2,-1,2,1,3,-1,2,3,4,-1,4,3,5,-1,4,5,6,-1,6,5,7,-1,
        ]
    }
}
Shape{
    appearance Appearance {
        material  Material 	{
            diffuseColor 1.0 1.0 1.0
            specularColor 0.5019607843137255 0.5019607843137255 0.5019607843137255
            ambientIntensity 0.2
            transparency 0
            shininess 0.5
        }
    }
    geometry IndexedFaceSet {
        ccw TRUE
        solid FALSE
        coord DEF co Coordinate {
            point [
                -0.2879 -0.3976 0.2097, -0.2879 -0.3976 0.2067, -0.2879 -0.3937 0.2097, -0.2879 -0.3937 0.2067, -0.2988 -0.3976 0.2097, -0.2988 -0.3937 0.2097, -0.2988 -0.3976 0.2187, -0.2988 -0.3937 0.2187, -0.2893 -0.3976 0.2187, -0.2893 -0.3937 0.2187, -0.2893 -0.3976 0.2217, -0.2893 -0.3937 0.2217, -0.2988 -0.3976 0.2217, -0.2988 -0.3937 0.2217, -0.2988 -0.3976 0.2303, -0.2988 -0.3937 0.2303, -0.2885 -0.3976 0.2303, -0.2885 -0.3937 0.2303, -0.2885 -0.3976 0.2334, -0.2885 -0.3937 0.2334, -0.3023 -0.3976 0.2334, -0.3023 -0.3937 0.2334, -0.3023 -0.3976 0.2067, -0.3023 -0.3937 0.2067, -0.2728 -0.3976 0.2096, -0.2727 -0.3976 0.2096, -0.2729 -0.3976 0.2127, -0.2801 -0.3976 0.2148, -0.2793 -0.3976 0.2151, -0.2811 -0.3976 0.2173, -0.2727 -0.3976 0.2142, -0.2694 -0.3976 0.2189, -0.2727 -0.3976 0.2144, -0.2727 -0.3976 0.2162, -0.2727 -0.3976 0.2067, -0.2694 -0.3976 0.2067, -0.274 -0.3976 0.2259, -0.2747 -0.3976 0.2231, -0.2726 -0.3976 0.2254, -0.2741 -0.3976 0.2227, -0.2734 -0.3976 0.2115, -0.2742 -0.3976 0.2105, -0.2734 -0.3976 0.2088, -0.2746 -0.3976 0.2101, -0.2744 -0.3976 0.2076, -0.2755 -0.3976 0.2095, -0.2756 -0.3976 0.2069, -0.2765 -0.3976 0.2091, -0.2769 -0.3976 0.2064, -0.2778 -0.3976 0.209, -0.2787 -0.3976 0.2062, -0.2789 -0.3976 0.2091, -0.2807 -0.3976 0.2064, -0.2797 -0.3976 0.2094, -0.2819 -0.3976 0.2069, -0.2803 -0.3976 0.2098, -0.2831 -0.3976 0.2077, -0.2806 -0.3976 0.2101, -0.2784 -0.3976 0.218, -0.2772 -0.3976 0.2156, -0.2727 -0.3976 0.2188, -0.2828 -0.3976 0.2244, -0.2828 -0.3976 0.2211, -0.2822 -0.3976 0.2248, -0.2805 -0.3976 0.2226, -0.2797 -0.3976 0.2258, -0.2784 -0.3976 0.2233, -0.2763 -0.3976 0.2262, -0.2766 -0.3976 0.2234, -0.2755 -0.3976 0.2233, -0.2728 -0.3976 0.2202, -0.2697 -0.3976 0.2217, -0.2732 -0.3976 0.2214, -0.2703 -0.3976 0.2232, -0.2736 -0.3976 0.2221, -0.271 -0.3976 0.2242, -0.2716 -0.3976 0.2248, -0.2804 -0.3976 0.2145, -0.2825 -0.3976 0.2165, -0.2808 -0.3976 0.214, -0.2835 -0.3976 0.2156, -0.2811 -0.3976 0.2133, -0.2841 -0.3976 0.2145, -0.2813 -0.3976 0.2126, -0.2846 -0.3976 0.2133, -0.2813 -0.3976 0.212, -0.2847 -0.3976 0.2118, -0.2812 -0.3976 0.2113, -0.2845 -0.3976 0.2101, -0.281 -0.3976 0.2107, -0.2841 -0.3976 0.209, -0.2834 -0.3976 0.208, -0.2763 -0.3937 0.2262, -0.2797 -0.3937 0.2258, -0.2822 -0.3937 0.2248, -0.2828 -0.3937 0.2244, -0.2828 -0.3937 0.2211, -0.2805 -0.3937 0.2226, -0.2784 -0.3937 0.2233, -0.2766 -0.3937 0.2234, -0.2755 -0.3937 0.2233, -0.2747 -0.3937 0.2231, -0.2741 -0.3937 0.2227, -0.2736 -0.3937 0.2221, -0.2732 -0.3937 0.2214, -0.2728 -0.3937 0.2202, -0.2727 -0.3937 0.2188, -0.2784 -0.3937 0.218, -0.2811 -0.3937 0.2173, -0.2825 -0.3937 0.2165, -0.2835 -0.3937 0.2156, -0.2841 -0.3937 0.2145, -0.2846 -0.3937 0.2133, -0.2847 -0.3937 0.2118, -0.2845 -0.3937 0.2101, -0.2841 -0.3937 0.209, -0.2834 -0.3937 0.208, -0.2831 -0.3937 0.2077, -0.2787 -0.3937 0.2062, -0.2806 -0.3937 0.2064, -0.2807 -0.3937 0.2064, -0.2819 -0.3937 0.2069, -0.2769 -0.3937 0.2064, -0.2768 -0.3937 0.2064, -0.2756 -0.3937 0.2069, -0.2744 -0.3937 0.2076, -0.2734 -0.3937 0.2088, -0.2728 -0.3937 0.2096, -0.2727 -0.3937 0.2096, -0.2727 -0.3937 0.2067, -0.2694 -0.3937 0.2067, -0.2694 -0.3937 0.2189, -0.2697 -0.3937 0.2217, -0.2703 -0.3937 0.2232, -0.271 -0.3937 0.2242, -0.2716 -0.3937 0.2248, -0.2726 -0.3937 0.2254, -0.274 -0.3937 0.2259, -0.2804 -0.3937 0.2145, -0.2801 -0.3937 0.2148, -0.2793 -0.3937 0.2151, -0.2772 -0.3937 0.2156, -0.2813 -0.3937 0.212, -0.2813 -0.3937 0.2126, -0.2811 -0.3937 0.2133, -0.2808 -0.3937 0.214, -0.2803 -0.3937 0.2098, -0.2806 -0.3937 0.2101, -0.281 -0.3937 0.2107, -0.2812 -0.3937 0.2113, -0.2778 -0.3937 0.209, -0.2789 -0.3937 0.2091, -0.2797 -0.3937 0.2094, -0.2742 -0.3937 0.2105, -0.2746 -0.3937 0.2101, -0.2755 -0.3937 0.2095, -0.2765 -0.3937 0.2091, -0.2727 -0.3937 0.2144, -0.2727 -0.3937 0.2142, -0.2729 -0.3937 0.2127, -0.2734 -0.3937 0.2115, -0.2727 -0.3937 0.2162, -0.2727 -0.3937 0.2162
            ]
        }
        coordIndex [
            0,1,2,-1,2,1,3,-1,4,0,5,-1,5,0,2,-1,6,4,7,-1,7,4,5,-1,8,6,9,-1,9,6,7,-1,10,8,11,-1,11,8,9,-1,12,10,13,-1,13,10,11,-1,14,12,15,-1,15,12,13,-1,16,14,17,-1,17,14,15,-1,18,16,19,-1,19,16,17,-1,20,18,21,-1,21,18,19,-1,22,20,23,-1,23,20,21,-1,1,22,3,-1,3,22,23,-1,22,1,0,-1,0,4,22,-1,22,4,6,-1,22,6,20,-1,16,18,14,-1,14,18,20,-1,14,20,12,-1,12,20,6,-1,12,6,10,-1,10,6,8,-1,24,25,26,-1,27,28,29,-1,30,31,32,-1,32,31,33,-1,34,35,25,-1,25,35,31,-1,25,31,26,-1,26,31,30,-1,36,37,38,-1,38,37,39,-1,26,40,24,-1,24,40,41,-1,24,41,42,-1,42,41,43,-1,42,43,44,-1,44,43,45,-1,44,45,46,-1,46,45,47,-1,46,47,48,-1,48,47,49,-1,48,49,50,-1,50,49,51,-1,50,51,52,-1,52,51,53,-1,52,53,54,-1,54,53,55,-1,54,55,56,-1,56,55,57,-1,29,28,58,-1,58,28,59,-1,58,59,60,-1,61,62,63,-1,63,62,64,-1,63,64,65,-1,65,64,66,-1,65,66,67,-1,67,66,68,-1,67,68,36,-1,36,68,69,-1,36,69,37,-1,59,33,60,-1,60,33,31,-1,60,31,70,-1,70,31,71,-1,70,71,72,-1,72,71,73,-1,72,73,74,-1,74,73,75,-1,74,75,39,-1,39,75,76,-1,39,76,38,-1,27,29,77,-1,77,29,78,-1,77,78,79,-1,79,78,80,-1,79,80,81,-1,81,80,82,-1,81,82,83,-1,83,82,84,-1,83,84,85,-1,85,84,86,-1,85,86,87,-1,87,86,88,-1,87,88,89,-1,89,88,90,-1,89,90,57,-1,57,90,91,-1,57,91,56,-1,67,92,93,-1,67,93,65,-1,65,93,94,-1,65,94,63,-1,63,94,95,-1,63,95,61,-1,62,61,96,-1,96,61,95,-1,62,96,97,-1,62,97,64,-1,64,97,98,-1,64,98,66,-1,66,98,99,-1,66,99,68,-1,68,99,100,-1,68,100,69,-1,69,100,101,-1,69,101,37,-1,37,101,102,-1,37,102,39,-1,39,102,103,-1,39,103,74,-1,74,103,104,-1,74,104,72,-1,72,104,105,-1,72,105,70,-1,70,105,106,-1,70,106,60,-1,58,60,107,-1,107,60,106,-1,58,107,108,-1,58,108,29,-1,29,108,109,-1,29,109,78,-1,78,109,110,-1,78,110,80,-1,80,110,111,-1,80,111,82,-1,82,111,112,-1,82,112,84,-1,84,112,113,-1,84,113,86,-1,86,113,114,-1,86,114,88,-1,88,114,115,-1,88,115,90,-1,90,115,116,-1,90,116,91,-1,91,116,117,-1,91,117,56,-1,118,50,119,-1,119,50,52,-1,119,52,120,-1,120,52,54,-1,120,54,121,-1,121,54,56,-1,121,56,117,-1,50,118,122,-1,50,122,48,-1,48,122,123,-1,48,123,46,-1,123,124,46,-1,46,124,125,-1,46,125,44,-1,44,125,126,-1,44,126,42,-1,42,126,127,-1,42,127,24,-1,25,24,128,-1,128,24,127,-1,34,25,129,-1,129,25,128,-1,35,34,130,-1,130,34,129,-1,31,35,131,-1,131,35,130,-1,31,131,132,-1,31,132,71,-1,71,132,133,-1,71,133,73,-1,73,133,134,-1,73,134,75,-1,75,134,135,-1,75,135,76,-1,76,135,136,-1,76,136,38,-1,38,136,137,-1,38,137,36,-1,36,137,92,-1,36,92,67,-1,77,138,139,-1,77,139,27,-1,27,139,140,-1,27,140,28,-1,28,140,141,-1,28,141,59,-1,85,142,143,-1,85,143,83,-1,83,143,144,-1,83,144,81,-1,81,144,145,-1,81,145,79,-1,79,145,138,-1,79,138,77,-1,55,146,147,-1,55,147,57,-1,57,147,148,-1,57,148,89,-1,89,148,149,-1,89,149,87,-1,87,149,142,-1,87,142,85,-1,49,150,151,-1,49,151,51,-1,51,151,152,-1,51,152,53,-1,53,152,146,-1,53,146,55,-1,41,153,154,-1,41,154,43,-1,43,154,155,-1,43,155,45,-1,45,155,156,-1,45,156,47,-1,47,156,150,-1,47,150,49,-1,32,157,158,-1,32,158,30,-1,30,158,159,-1,30,159,26,-1,26,159,160,-1,26,160,40,-1,40,160,153,-1,40,153,41,-1,32,33,157,-1,157,33,161,-1,33,59,161,-1,161,59,141,-1,
        ]
    }
}
Shape{
    appearance Appearance {
        material  Material 	{
            diffuseColor 0.25098039215686274 0.25098039215686274 0.25098039215686274
            specularColor 0.12549019607843137 0.12549019607843137 0.12549019607843137
            ambientIntensity 0.2
            transparency 0
            shininess 0.5
        }
    }
    geometry IndexedFaceSet {
        ccw TRUE
        solid FALSE
        coord DEF co Coordinate {
            point [
                -0.2727 -0.3937 0.2142, -0.2727 -0.3937 0.2144, -0.2804 -0.3937 0.2145, -0.2727 -0.3937 0.2162, -0.2772 -0.3937 0.2156, -0.2793 -0.3937 0.2151, -0.2801 -0.3937 0.2148, -0.2729 -0.3937 0.2127, -0.2808 -0.3937 0.214, -0.2734 -0.3937 0.2115, -0.2806 -0.3937 0.2101, -0.2803 -0.3937 0.2098, -0.2746 -0.3937 0.2101, -0.281 -0.3937 0.2107, -0.2755 -0.3937 0.2095, -0.2765 -0.3937 0.2091, -0.2778 -0.3937 0.209, -0.2811 -0.3937 0.2133, -0.2813 -0.3937 0.2126, -0.2742 -0.3937 0.2105, -0.2813 -0.3937 0.212, -0.2812 -0.3937 0.2113, -0.2797 -0.3937 0.2094, -0.2789 -0.3937 0.2091, -0.2789 -0.3937 0.2091
            ]
        }
        coordIndex [
            0,1,2,-1,1,3,4,-1,4,5,1,-1,1,5,6,-1,1,6,2,-1,0,2,7,-1,7,2,8,-1,7,8,9,-1,10,11,12,-1,10,12,13,-1,14,12,15,-1,15,12,16,-1,8,17,9,-1,9,17,18,-1,9,18,19,-1,19,18,20,-1,19,20,12,-1,12,20,21,-1,12,21,13,-1,11,22,12,-1,12,22,23,-1,12,23,16,-1,
        ]
    }
}
Shape{
    appearance Appearance {
        material  Material 	{
            diffuseColor 1.0 1.0 1.0
            specularColor 0.5019607843137255 0.5019607843137255 0.5019607843137255
            ambientIntensity 0.2
            transparency 0
            shininess 0.5
        }
    }
    geometry IndexedFaceSet {
        ccw TRUE
        solid FALSE
        coord DEF co Coordinate {
            point [
                -0.2649 -0.3937 0.2108, -0.2649 -0.3976 0.2108, -0.2633 -0.3976 0.2099, -0.2594 -0.3976 0.2089, -0.2594 -0.3937 0.2089, -0.2612 -0.3937 0.2091, -0.2612 -0.3976 0.2091, -0.2633 -0.3937 0.2099, -0.2633 -0.3937 0.2099, -0.2649 -0.3976 0.2073, -0.2649 -0.3937 0.2073, -0.2633 -0.3937 0.2068, -0.2625 -0.3976 0.2065, -0.2597 -0.3937 0.2062, -0.2597 -0.3976 0.2062, -0.2618 -0.3937 0.2064, -0.2625 -0.3937 0.2065, -0.2578 -0.3937 0.2064, -0.2567 -0.3976 0.2066, -0.2567 -0.3937 0.2066, -0.2549 -0.3937 0.2073, -0.2549 -0.3976 0.2073, -0.2541 -0.3937 0.2077, -0.2541 -0.3976 0.2077, -0.2532 -0.3937 0.2086, -0.2532 -0.3976 0.2086, -0.2525 -0.3937 0.2095, -0.2525 -0.3976 0.2095, -0.2521 -0.3937 0.2105, -0.2521 -0.3976 0.2105, -0.252 -0.3937 0.2119, -0.252 -0.3976 0.2119, -0.2521 -0.3937 0.2131, -0.2521 -0.3976 0.2131, -0.2525 -0.3937 0.2141, -0.2525 -0.3976 0.2141, -0.2531 -0.3937 0.215, -0.2531 -0.3976 0.215, -0.2539 -0.3937 0.2157, -0.2539 -0.3976 0.2157, -0.2561 -0.3937 0.2169, -0.2561 -0.3976 0.2169, -0.2574 -0.3937 0.2175, -0.2574 -0.3976 0.2175, -0.2595 -0.3937 0.2184, -0.2595 -0.3976 0.2184, -0.2607 -0.3937 0.2191, -0.2607 -0.3976 0.2191, -0.261 -0.3937 0.2195, -0.261 -0.3976 0.2195, -0.2612 -0.3937 0.2199, -0.2612 -0.3976 0.2199, -0.2614 -0.3937 0.2204, -0.2614 -0.3976 0.2204, -0.2614 -0.3937 0.2209, -0.2614 -0.3976 0.2209, -0.2613 -0.3937 0.2214, -0.2613 -0.3976 0.2214, -0.2612 -0.3937 0.2219, -0.2612 -0.3976 0.2219, -0.2609 -0.3937 0.2223, -0.2609 -0.3976 0.2223, -0.2604 -0.3937 0.2227, -0.2604 -0.3976 0.2227, -0.2596 -0.3937 0.2231, -0.2596 -0.3976 0.2231, -0.2587 -0.3937 0.2234, -0.2587 -0.3976 0.2234, -0.2577 -0.3937 0.2234, -0.2577 -0.3976 0.2234, -0.2554 -0.3937 0.2232, -0.2554 -0.3976 0.2232, -0.2535 -0.3937 0.2224, -0.2535 -0.3976 0.2224, -0.2529 -0.3937 0.2221, -0.2529 -0.3976 0.2221, -0.2529 -0.3976 0.2253, -0.2529 -0.3937 0.2253, -0.2551 -0.3937 0.226, -0.2551 -0.3976 0.226, -0.2574 -0.3937 0.2262, -0.2574 -0.3976 0.2262, -0.2601 -0.3937 0.2258, -0.2601 -0.3976 0.2258, -0.2619 -0.3937 0.2252, -0.2619 -0.3976 0.2252, -0.2627 -0.3937 0.2246, -0.2627 -0.3976 0.2246, -0.2633 -0.3937 0.2241, -0.2637 -0.3976 0.2238, -0.2637 -0.3937 0.2238, -0.2643 -0.3937 0.2228, -0.2643 -0.3976 0.2228, -0.2647 -0.3937 0.2218, -0.2647 -0.3976 0.2218, -0.2648 -0.3937 0.2206, -0.2648 -0.3976 0.2206, -0.2647 -0.3937 0.2193, -0.2647 -0.3976 0.2193, -0.2643 -0.3937 0.2183, -0.2643 -0.3976 0.2183, -0.2639 -0.3937 0.2176, -0.2639 -0.3976 0.2176, -0.2598 -0.3937 0.215, -0.2598 -0.3976 0.215, -0.2618 -0.3976 0.216, -0.2633 -0.3937 0.217, -0.2633 -0.3976 0.217, -0.2633 -0.3937 0.217, -0.2618 -0.3937 0.216, -0.2576 -0.3937 0.2141, -0.2576 -0.3976 0.2141, -0.2563 -0.3937 0.2133, -0.2563 -0.3976 0.2133, -0.2559 -0.3937 0.2129, -0.2559 -0.3976 0.2129, -0.2556 -0.3937 0.2125, -0.2556 -0.3976 0.2125, -0.2554 -0.3937 0.2119, -0.2554 -0.3976 0.2119, -0.2554 -0.3937 0.2115, -0.2554 -0.3976 0.2115, -0.2555 -0.3937 0.2109, -0.2555 -0.3976 0.2109, -0.2557 -0.3937 0.2104, -0.2557 -0.3976 0.2104, -0.2559 -0.3937 0.21, -0.2559 -0.3976 0.21, -0.2563 -0.3937 0.2096, -0.2563 -0.3976 0.2096, -0.2566 -0.3937 0.2095, -0.2566 -0.3976 0.2095, -0.2575 -0.3937 0.2091, -0.2575 -0.3976 0.2091, -0.2592 -0.3937 0.2089, -0.2592 -0.3976 0.2089, -0.2354 -0.3976 0.2257, -0.2319 -0.3976 0.2257, -0.2354 -0.3937 0.2257, -0.2319 -0.3937 0.2257, -0.2406 -0.3976 0.2114, -0.2406 -0.3937 0.2114, -0.2409 -0.3937 0.2105, -0.2409 -0.3976 0.2105, -0.241 -0.3937 0.2098, -0.241 -0.3976 0.2098, -0.2411 -0.3976 0.2098, -0.2411 -0.3937 0.2098, -0.2415 -0.3976 0.2114, -0.2415 -0.3937 0.2114, -0.2465 -0.3976 0.2257, -0.2449 -0.3937 0.2211, -0.2465 -0.3937 0.2257, -0.2502 -0.3976 0.2257, -0.2502 -0.3937 0.2257, -0.2428 -0.3976 0.2067, -0.2449 -0.3937 0.2121, -0.2428 -0.3937 0.2067, -0.2442 -0.3937 0.2032, -0.2442 -0.3976 0.2032, -0.2429 -0.3937 0.2064, -0.2449 -0.3937 0.202, -0.2449 -0.3976 0.202, -0.2449 -0.3937 0.202, -0.2455 -0.3937 0.2013, -0.2455 -0.3976 0.2013, -0.246 -0.3937 0.201, -0.246 -0.3976 0.201, -0.2468 -0.3937 0.2007, -0.2468 -0.3976 0.2007, -0.2477 -0.3937 0.2006, -0.2477 -0.3976 0.2006, -0.2489 -0.3937 0.2007, -0.2489 -0.3976 0.2007, -0.2496 -0.3937 0.2009, -0.2496 -0.3976 0.2009, -0.2496 -0.3976 0.198, -0.2496 -0.3937 0.198, -0.2481 -0.3937 0.1977, -0.2481 -0.3976 0.1977, -0.2474 -0.3937 0.1977, -0.2474 -0.3976 0.1977, -0.246 -0.3937 0.1978, -0.246 -0.3976 0.1978, -0.2449 -0.3937 0.1983, -0.2447 -0.3976 0.1983, -0.2447 -0.3937 0.1983, -0.2436 -0.3937 0.1992, -0.2436 -0.3976 0.1992, -0.2433 -0.3937 0.1994, -0.2433 -0.3976 0.1994, -0.2421 -0.3937 0.2008, -0.2421 -0.3976 0.2008, -0.2406 -0.3937 0.2038, -0.2406 -0.3976 0.2038, -0.2395 -0.3937 0.2064, -0.214 -0.3976 0.2097, -0.214 -0.3976 0.2067, -0.214 -0.3937 0.2097, -0.214 -0.3937 0.2067, -0.2249 -0.3976 0.2097, -0.2199 -0.3937 0.2097, -0.2249 -0.3937 0.2097, -0.2249 -0.3976 0.2187, -0.2249 -0.3937 0.2187, -0.2154 -0.3976 0.2187, -0.2199 -0.3937 0.2187, -0.2154 -0.3937 0.2187, -0.2154 -0.3976 0.2217, -0.2154 -0.3937 0.2217, -0.2249 -0.3937 0.2217, -0.2249 -0.3976 0.2217, -0.2199 -0.3937 0.2217, -0.2249 -0.3976 0.2303, -0.2249 -0.3937 0.2303, -0.2146 -0.3937 0.2303, -0.2146 -0.3976 0.2303, -0.2199 -0.3937 0.2303, -0.2146 -0.3976 0.2334, -0.2146 -0.3937 0.2334, -0.2283 -0.3937 0.2334, -0.2283 -0.3976 0.2334, -0.2199 -0.3937 0.2334, -0.2283 -0.3976 0.2067, -0.2283 -0.3937 0.2067, -0.2199 -0.3937 0.2067, -0.1925 -0.3976 0.2139, -0.1937 -0.3976 0.2125, -0.1912 -0.3976 0.2104, -0.194 -0.3976 0.2122, -0.194 -0.3976 0.2084, -0.1957 -0.3976 0.211, -0.197 -0.3976 0.2072, -0.1979 -0.3976 0.2102, -0.2016 -0.3976 0.2067, -0.2016 -0.3976 0.2097, -0.2089 -0.3976 0.2067, -0.2055 -0.3976 0.2097, -0.2089 -0.3976 0.2334, -0.2055 -0.3976 0.2303, -0.2013 -0.3976 0.2334, -0.2015 -0.3976 0.2303, -0.1973 -0.3976 0.2329, -0.198 -0.3976 0.2299, -0.194 -0.3976 0.2317, -0.1957 -0.3976 0.2291, -0.1912 -0.3976 0.2298, -0.1938 -0.3976 0.2278, -0.1903 -0.3976 0.2289, -0.193 -0.3976 0.2271, -0.1887 -0.3976 0.2266, -0.192 -0.3976 0.2256, -0.1877 -0.3976 0.224, -0.1912 -0.3976 0.2236, -0.1872 -0.3976 0.2204, -0.1908 -0.3976 0.2203, -0.1873 -0.3976 0.2187, -0.191 -0.3976 0.2182, -0.1879 -0.3976 0.2155, -0.1915 -0.3976 0.2158, -0.1893 -0.3976 0.2128, -0.2016 -0.3937 0.2067, -0.2089 -0.3937 0.2067, -0.197 -0.3937 0.2072, -0.194 -0.3937 0.2084, -0.1912 -0.3937 0.2104, -0.1893 -0.3937 0.2128, -0.1879 -0.3937 0.2155, -0.1873 -0.3937 0.2187, -0.1872 -0.3937 0.2204, -0.1877 -0.3937 0.224, -0.1887 -0.3937 0.2266, -0.1903 -0.3937 0.2289, -0.1912 -0.3937 0.2298, -0.194 -0.3937 0.2317, -0.1973 -0.3937 0.2329, -0.2013 -0.3937 0.2334, -0.2089 -0.3937 0.2334, -0.2015 -0.3937 0.2303, -0.2055 -0.3937 0.2303, -0.2055 -0.3937 0.2097, -0.2016 -0.3937 0.2097, -0.1937 -0.3937 0.2125, -0.194 -0.3937 0.2122, -0.1957 -0.3937 0.211, -0.1979 -0.3937 0.2102, -0.1908 -0.3937 0.2203, -0.191 -0.3937 0.2182, -0.1915 -0.3937 0.2158, -0.1925 -0.3937 0.2139, -0.1938 -0.3937 0.2278, -0.193 -0.3937 0.2271, -0.192 -0.3937 0.2256, -0.1912 -0.3937 0.2236, -0.198 -0.3937 0.2299, -0.1957 -0.3937 0.2291, -0.1957 -0.3937 0.2291
            ]
        }
        coordIndex [
            0,1,2,-1,3,4,5,-1,3,5,6,-1,6,5,7,-1,6,7,2,-1,2,7,8,-1,2,8,0,-1,9,1,10,-1,10,1,0,-1,10,11,9,-1,9,11,12,-1,13,14,15,-1,15,14,12,-1,15,12,16,-1,16,12,11,-1,13,17,14,-1,14,17,18,-1,17,19,18,-1,18,19,20,-1,18,20,21,-1,21,20,22,-1,21,22,23,-1,23,22,24,-1,23,24,25,-1,25,24,26,-1,25,26,27,-1,27,26,28,-1,27,28,29,-1,29,28,30,-1,29,30,31,-1,31,30,32,-1,31,32,33,-1,33,32,34,-1,33,34,35,-1,35,34,36,-1,35,36,37,-1,37,36,38,-1,37,38,39,-1,39,38,40,-1,39,40,41,-1,41,40,42,-1,41,42,43,-1,43,42,44,-1,43,44,45,-1,45,44,46,-1,45,46,47,-1,47,46,48,-1,47,48,49,-1,49,48,50,-1,49,50,51,-1,51,50,52,-1,51,52,53,-1,53,52,54,-1,53,54,55,-1,55,54,56,-1,55,56,57,-1,57,56,58,-1,57,58,59,-1,59,58,60,-1,59,60,61,-1,61,60,62,-1,61,62,63,-1,63,62,64,-1,63,64,65,-1,65,64,66,-1,65,66,67,-1,67,66,68,-1,67,68,69,-1,69,68,70,-1,69,70,71,-1,71,70,72,-1,71,72,73,-1,73,72,74,-1,73,74,75,-1,76,75,77,-1,77,75,74,-1,76,77,78,-1,76,78,79,-1,79,78,80,-1,79,80,81,-1,81,80,82,-1,81,82,83,-1,83,82,84,-1,83,84,85,-1,85,84,86,-1,85,86,87,-1,86,88,87,-1,87,88,89,-1,88,90,89,-1,89,90,91,-1,89,91,92,-1,92,91,93,-1,92,93,94,-1,94,93,95,-1,94,95,96,-1,96,95,97,-1,96,97,98,-1,98,97,99,-1,98,99,100,-1,100,99,101,-1,100,101,102,-1,103,104,105,-1,102,101,106,-1,102,106,107,-1,107,106,108,-1,107,108,105,-1,105,108,109,-1,105,109,103,-1,104,103,110,-1,104,110,111,-1,111,110,112,-1,111,112,113,-1,113,112,114,-1,113,114,115,-1,115,114,116,-1,115,116,117,-1,117,116,118,-1,117,118,119,-1,119,118,120,-1,119,120,121,-1,121,120,122,-1,121,122,123,-1,123,122,124,-1,123,124,125,-1,125,124,126,-1,125,126,127,-1,127,126,128,-1,127,128,129,-1,129,128,130,-1,129,130,131,-1,131,130,132,-1,131,132,133,-1,133,132,134,-1,133,134,135,-1,135,134,4,-1,135,4,3,-1,61,63,85,-1,85,63,83,-1,111,43,104,-1,104,43,45,-1,21,23,127,-1,127,23,25,-1,127,25,125,-1,125,25,27,-1,125,27,123,-1,123,27,29,-1,123,29,121,-1,121,29,31,-1,121,31,119,-1,119,31,33,-1,119,33,117,-1,117,33,35,-1,117,35,115,-1,115,35,37,-1,115,37,113,-1,113,37,39,-1,113,39,111,-1,111,39,41,-1,111,41,43,-1,14,3,12,-1,12,3,6,-1,12,6,9,-1,9,6,2,-1,9,2,1,-1,63,65,83,-1,83,65,67,-1,83,67,81,-1,81,67,69,-1,81,69,79,-1,79,69,71,-1,79,71,76,-1,76,71,73,-1,76,73,75,-1,127,129,21,-1,21,129,131,-1,21,131,18,-1,18,131,133,-1,18,133,14,-1,14,133,135,-1,14,135,3,-1,85,87,61,-1,61,87,89,-1,61,89,59,-1,59,89,92,-1,59,92,57,-1,57,92,94,-1,57,94,55,-1,55,94,96,-1,55,96,53,-1,53,96,98,-1,53,98,51,-1,51,98,100,-1,51,100,49,-1,49,100,102,-1,49,102,47,-1,47,102,107,-1,47,107,45,-1,45,107,105,-1,45,105,104,-1,136,137,138,-1,138,137,139,-1,140,136,141,-1,141,136,138,-1,140,141,142,-1,140,142,143,-1,143,142,144,-1,143,144,145,-1,146,145,147,-1,147,145,144,-1,148,146,149,-1,149,146,147,-1,148,149,150,-1,150,149,151,-1,150,151,152,-1,153,150,154,-1,154,150,152,-1,153,154,155,-1,155,154,156,-1,155,156,157,-1,158,159,160,-1,160,159,155,-1,160,155,157,-1,158,161,159,-1,159,161,162,-1,161,163,162,-1,162,163,164,-1,162,164,165,-1,165,164,166,-1,165,166,167,-1,167,166,168,-1,167,168,169,-1,169,168,170,-1,169,170,171,-1,171,170,172,-1,171,172,173,-1,173,172,174,-1,173,174,175,-1,176,175,177,-1,177,175,174,-1,176,177,178,-1,176,178,179,-1,179,178,180,-1,179,180,181,-1,181,180,182,-1,181,182,183,-1,183,182,184,-1,183,184,185,-1,184,186,185,-1,185,186,187,-1,185,187,188,-1,188,187,189,-1,188,189,190,-1,190,189,191,-1,190,191,192,-1,192,191,193,-1,192,193,194,-1,139,137,195,-1,195,137,194,-1,195,194,193,-1,143,145,194,-1,137,136,194,-1,194,136,140,-1,194,140,143,-1,150,153,148,-1,148,153,155,-1,148,155,146,-1,175,176,173,-1,173,176,179,-1,173,179,171,-1,171,179,181,-1,171,181,169,-1,169,181,183,-1,169,183,167,-1,167,183,185,-1,167,185,165,-1,145,146,194,-1,194,146,155,-1,194,155,192,-1,155,159,192,-1,192,159,162,-1,192,162,190,-1,190,162,165,-1,190,165,188,-1,188,165,185,-1,196,197,198,-1,198,197,199,-1,196,198,200,-1,200,198,201,-1,200,201,202,-1,203,200,204,-1,204,200,202,-1,203,204,205,-1,205,204,206,-1,205,206,207,-1,208,205,209,-1,209,205,207,-1,210,211,212,-1,212,211,208,-1,212,208,209,-1,213,211,214,-1,214,211,210,-1,215,216,217,-1,217,216,213,-1,217,213,214,-1,218,216,219,-1,219,216,215,-1,220,221,222,-1,222,221,218,-1,222,218,219,-1,223,221,224,-1,224,221,220,-1,223,224,197,-1,197,224,225,-1,197,225,199,-1,223,197,196,-1,196,200,223,-1,223,200,203,-1,223,203,221,-1,216,218,213,-1,213,218,221,-1,213,221,211,-1,211,221,203,-1,211,203,208,-1,208,203,205,-1,226,227,228,-1,228,227,229,-1,228,229,230,-1,230,229,231,-1,230,231,232,-1,232,231,233,-1,232,233,234,-1,234,233,235,-1,234,235,236,-1,236,235,237,-1,236,237,238,-1,238,237,239,-1,238,239,240,-1,240,239,241,-1,240,241,242,-1,242,241,243,-1,242,243,244,-1,244,243,245,-1,244,245,246,-1,246,245,247,-1,246,247,248,-1,248,247,249,-1,248,249,250,-1,250,249,251,-1,250,251,252,-1,252,251,253,-1,252,253,254,-1,254,253,255,-1,254,255,256,-1,256,255,257,-1,256,257,258,-1,258,257,259,-1,258,259,260,-1,260,259,226,-1,260,226,228,-1,234,236,261,-1,261,236,262,-1,234,261,263,-1,234,263,232,-1,232,263,264,-1,232,264,230,-1,230,264,265,-1,230,265,228,-1,228,265,266,-1,228,266,260,-1,260,266,267,-1,260,267,258,-1,258,267,268,-1,258,268,256,-1,256,268,269,-1,256,269,254,-1,254,269,270,-1,254,270,252,-1,252,270,271,-1,252,271,250,-1,250,271,272,-1,250,272,248,-1,248,272,273,-1,248,273,246,-1,246,273,274,-1,246,274,244,-1,244,274,275,-1,244,275,242,-1,242,275,276,-1,242,276,240,-1,238,240,277,-1,277,240,276,-1,236,238,262,-1,262,238,277,-1,241,239,278,-1,278,239,279,-1,239,237,279,-1,279,237,280,-1,237,235,280,-1,280,235,281,-1,227,282,283,-1,227,283,229,-1,229,283,284,-1,229,284,231,-1,231,284,285,-1,231,285,233,-1,233,285,281,-1,233,281,235,-1,255,286,287,-1,255,287,257,-1,257,287,288,-1,257,288,259,-1,259,288,289,-1,259,289,226,-1,226,289,282,-1,226,282,227,-1,247,290,291,-1,247,291,249,-1,249,291,292,-1,249,292,251,-1,251,292,293,-1,251,293,253,-1,253,293,286,-1,253,286,255,-1,241,278,294,-1,241,294,243,-1,243,294,295,-1,243,295,245,-1,245,295,290,-1,245,290,247,-1,
        ]
    }
}
Shape{
    appearance Appearance {
        material  Material 	{
            diffuseColor 0.25098039215686274 0.25098039215686274 0.25098039215686274
            specularColor 0.12549019607843137 0.12549019607843137 0.12549019607843137
            ambientIntensity 0.2
            transparency 0
            shininess 0.5
        }
    }
    geometry IndexedFaceSet {
        ccw TRUE
        solid FALSE
        coord DEF co Coordinate {
            point [
                -0.194 -0.3937 0.2122, -0.1937 -0.3937 0.2125, -0.2015 -0.3937 0.2303, -0.2055 -0.3937 0.2303, -0.2055 -0.3937 0.2097, -0.2016 -0.3937 0.2097, -0.1979 -0.3937 0.2102, -0.1957 -0.3937 0.211, -0.1925 -0.3937 0.2139, -0.1915 -0.3937 0.2158, -0.191 -0.3937 0.2182, -0.1908 -0.3937 0.2203, -0.1912 -0.3937 0.2236, -0.192 -0.3937 0.2256, -0.193 -0.3937 0.2271, -0.1938 -0.3937 0.2278, -0.198 -0.3937 0.2299, -0.1957 -0.3937 0.2291, -0.1957 -0.3937 0.2291
            ]
        }
        coordIndex [
            0,1,2,-1,3,4,2,-1,2,4,5,-1,5,6,2,-1,2,6,7,-1,2,7,0,-1,1,8,2,-1,2,8,9,-1,2,9,10,-1,10,11,2,-1,2,11,12,-1,2,12,13,-1,13,14,2,-1,2,14,15,-1,2,15,16,-1,16,15,17,-1,
        ]
    }
}
Shape{
    appearance Appearance {
        material  Material 	{
            diffuseColor 1.0 1.0 1.0
            specularColor 0.5019607843137255 0.5019607843137255 0.5019607843137255
            ambientIntensity 0.2
            transparency 0
            shininess 0.5
        }
    }
    geometry IndexedFaceSet {
        ccw TRUE
        solid FALSE
        coord DEF co Coordinate {
            point [
                -0.1783 -0.3976 0.217, -0.1794 -0.3976 0.214, -0.1693 -0.3976 0.217, -0.1682 -0.3976 0.214, -0.1743 -0.3976 0.2281, -0.1756 -0.3976 0.2334, -0.1857 -0.3976 0.2067, -0.1819 -0.3976 0.2067, -0.174 -0.3976 0.2289, -0.1738 -0.3976 0.2299, -0.1719 -0.3976 0.2334, -0.1738 -0.3976 0.2299, -0.1735 -0.3976 0.2288, -0.1733 -0.3976 0.2281, -0.1617 -0.3976 0.2067, -0.1655 -0.3976 0.2067, -0.1719 -0.3937 0.2334, -0.1617 -0.3937 0.2067, -0.1756 -0.3937 0.2334, -0.1857 -0.3937 0.2067, -0.1819 -0.3937 0.2067, -0.1794 -0.3937 0.214, -0.1682 -0.3937 0.214, -0.1655 -0.3937 0.2067, -0.1783 -0.3937 0.217, -0.1693 -0.3937 0.217, -0.1733 -0.3937 0.2281, -0.1738 -0.3937 0.2299, -0.1735 -0.3937 0.2288, -0.1738 -0.3937 0.2299, -0.1743 -0.3937 0.2281, -0.174 -0.3937 0.2289, -0.174 -0.3937 0.2289
            ]
        }
        coordIndex [
            0,1,2,-1,2,1,3,-1,4,5,0,-1,0,5,6,-1,0,6,1,-1,1,6,7,-1,4,8,5,-1,5,8,9,-1,5,9,10,-1,10,9,11,-1,10,11,12,-1,12,13,10,-1,10,13,2,-1,10,2,14,-1,14,2,3,-1,14,3,15,-1,10,14,16,-1,16,14,17,-1,5,10,18,-1,18,10,16,-1,6,5,19,-1,19,5,18,-1,7,6,20,-1,20,6,19,-1,1,7,21,-1,21,7,20,-1,3,1,22,-1,22,1,21,-1,15,3,23,-1,23,3,22,-1,14,15,17,-1,17,15,23,-1,0,2,24,-1,24,2,25,-1,2,13,25,-1,25,13,26,-1,11,27,28,-1,11,28,12,-1,12,28,26,-1,12,26,13,-1,11,9,27,-1,27,9,29,-1,4,30,31,-1,4,31,8,-1,8,31,29,-1,8,29,9,-1,4,0,30,-1,30,0,24,-1,
        ]
    }
}
Shape{
    appearance Appearance {
        material  Material 	{
            diffuseColor 0.25098039215686274 0.25098039215686274 0.25098039215686274
            specularColor 0.12549019607843137 0.12549019607843137 0.12549019607843137
            ambientIntensity 0.2
            transparency 0
            shininess 0.5
        }
    }
    geometry IndexedFaceSet {
        ccw TRUE
        solid FALSE
        coord DEF co Coordinate {
            point [
                -0.1738 -0.3937 0.2299, -0.1738 -0.3937 0.2299, -0.1735 -0.3937 0.2288, -0.174 -0.3937 0.2289, -0.1733 -0.3937 0.2281, -0.1743 -0.3937 0.2281, -0.1693 -0.3937 0.217, -0.1783 -0.3937 0.217, -0.1783 -0.3937 0.217
            ]
        }
        coordIndex [
            0,1,2,-1,2,1,3,-1,2,3,4,-1,4,3,5,-1,4,5,6,-1,6,5,7,-1,
        ]
    }
}
Shape{
    appearance Appearance {
        material  Material 	{
            diffuseColor 1.0 1.0 1.0
            specularColor 0.5019607843137255 0.5019607843137255 0.5019607843137255
            ambientIntensity 0.2
            transparency 0
            shininess 0.5
        }
    }
    geometry IndexedFaceSet {
        ccw TRUE
        solid FALSE
        coord DEF co Coordinate {
            point [
                -0.4201 -0.3976 0.2029, -0.4173 -0.3976 0.1994, -0.4218 -0.3976 0.2197, -0.4251 -0.3976 0.2527, -0.4209 -0.3976 0.2549, -0.4214 -0.3976 0.2667, -0.3885 -0.3976 0.2022, -0.3862 -0.3976 0.2064, -0.3851 -0.3976 0.2111, -0.4144 -0.3976 0.2675, -0.3585 -0.3976 0.229, -0.3643 -0.3976 0.239, -0.385 -0.3976 0.2149, -0.3898 -0.3976 0.2257, -0.385 -0.3976 0.213, -0.3952 -0.3976 0.1962, -0.3914 -0.3976 0.1989, -0.4089 -0.3976 0.2071, -0.4074 -0.3976 0.2061, -0.4136 -0.3976 0.1966, -0.4056 -0.3976 0.2056, -0.3919 -0.3976 0.2681, -0.3971 -0.3976 0.2783, -0.4017 -0.3976 0.2755, -0.426 -0.3976 0.2222, -0.425 -0.3976 0.2079, -0.422 -0.3976 0.207, -0.3522 -0.3976 0.2478, -0.3507 -0.3976 0.2478, -0.3429 -0.3976 0.258, -0.3471 -0.3976 0.2473, -0.342 -0.3976 0.2577, -0.3438 -0.3976 0.246, -0.3363 -0.3976 0.2549, -0.3312 -0.3976 0.2505, -0.3971 -0.3976 0.2643, -0.4062 -0.3976 0.2716, -0.4013 -0.3976 0.2592, -0.4101 -0.3976 0.2671, -0.4042 -0.3976 0.2533, -0.4162 -0.3976 0.256, -0.4143 -0.3976 0.2561, -0.4123 -0.3976 0.2674, -0.4098 -0.3976 0.2556, -0.4056 -0.3976 0.254, -0.4115 -0.3976 0.2117, -0.411 -0.3976 0.21, -0.4102 -0.3976 0.2085, -0.4092 -0.3976 0.1948, -0.4047 -0.3976 0.1941, -0.4042 -0.3976 0.2054, -0.404 -0.3976 0.194, -0.4025 -0.3976 0.2056, -0.3994 -0.3976 0.1946, -0.4009 -0.3976 0.2062, -0.3994 -0.3976 0.2072, -0.3982 -0.3976 0.2086, -0.3311 -0.3976 0.2151, -0.34 -0.3976 0.2226, -0.3363 -0.3976 0.2107, -0.3428 -0.3976 0.2203, -0.3421 -0.3976 0.2079, -0.3462 -0.3976 0.2188, -0.3484 -0.3976 0.2066, -0.3495 -0.3976 0.2181, -0.3596 -0.3976 0.2066, -0.3581 -0.3976 0.2181, -0.3607 -0.3976 0.2067, -0.4327 -0.3976 0.2417, -0.4451 -0.3976 0.2391, -0.4332 -0.3976 0.2371, -0.4452 -0.3976 0.2367, -0.433 -0.3976 0.2342, -0.4444 -0.3976 0.2298, -0.4316 -0.3976 0.2296, -0.4418 -0.3976 0.2227, -0.4294 -0.3976 0.2257, -0.4372 -0.3976 0.2161, -0.4318 -0.3976 0.2114, -0.3973 -0.3976 0.2154, -0.3968 -0.3976 0.2137, -0.3968 -0.3976 0.212, -0.3973 -0.3976 0.2102, -0.3408 -0.3976 0.244, -0.3386 -0.3976 0.2415, -0.3273 -0.3976 0.2451, -0.3369 -0.3976 0.2382, -0.325 -0.3976 0.2393, -0.336 -0.3976 0.2346, -0.3241 -0.3976 0.2331, -0.3359 -0.3976 0.233, -0.325 -0.3976 0.2264, -0.3363 -0.3976 0.2293, -0.3274 -0.3976 0.2204, -0.3376 -0.3976 0.2259, -0.3397 -0.3976 0.2229, -0.3531 -0.3976 0.273, -0.3605 -0.3976 0.2642, -0.347 -0.3976 0.2659, -0.3562 -0.3976 0.259, -0.3533 -0.3976 0.2529, -0.4285 -0.3976 0.2641, -0.4348 -0.3976 0.2598, -0.4284 -0.3976 0.2497, -0.4363 -0.3976 0.2584, -0.431 -0.3976 0.2459, -0.4406 -0.3976 0.2529, -0.4437 -0.3976 0.2462, -0.3884 -0.3976 0.2817, -0.3856 -0.3976 0.2706, -0.379 -0.3976 0.2829, -0.3788 -0.3976 0.2715, -0.3711 -0.3976 0.282, -0.3724 -0.3976 0.2707, -0.3616 -0.3976 0.2787, -0.3664 -0.3976 0.2684, -0.3611 -0.3976 0.2647, -0.4116 -0.3976 0.2136, -0.4111 -0.3976 0.2154, -0.4197 -0.3976 0.2238, -0.4103 -0.3976 0.2171, -0.4166 -0.3976 0.2273, -0.409 -0.3976 0.2184, -0.4127 -0.3976 0.23, -0.4075 -0.3976 0.2194, -0.4085 -0.3976 0.2316, -0.4058 -0.3976 0.22, -0.404 -0.3976 0.2322, -0.4042 -0.3976 0.2202, -0.4017 -0.3976 0.2321, -0.4026 -0.3976 0.2201, -0.3971 -0.3976 0.2309, -0.4008 -0.3976 0.2194, -0.3931 -0.3976 0.2288, -0.3993 -0.3976 0.2184, -0.3981 -0.3976 0.217, -0.359 -0.3976 0.2183, -0.3636 -0.3976 0.2086, -0.3632 -0.3976 0.2081, -0.3585 -0.3976 0.2182, -0.3619 -0.3976 0.2072, -0.3651 -0.3976 0.2125, -0.3649 -0.3976 0.211, -0.3644 -0.3976 0.2098, -0.3607 -0.3976 0.2182, -0.362 -0.3976 0.2176, -0.3651 -0.3976 0.2131, -0.3631 -0.3976 0.2168, -0.364 -0.3976 0.2159, -0.3647 -0.3976 0.2146, -0.3592 -0.3976 0.2183, -0.3241 -0.3937 0.2331, -0.325 -0.3937 0.2393, -0.3256 -0.3937 0.241, -0.3273 -0.3937 0.2451, -0.3299 -0.3937 0.2488, -0.3312 -0.3937 0.2505, -0.3363 -0.3937 0.2549, -0.342 -0.3937 0.2577, -0.3429 -0.3937 0.258, -0.347 -0.3937 0.2659, -0.3531 -0.3937 0.273, -0.3575 -0.3937 0.2759, -0.3616 -0.3937 0.2787, -0.3711 -0.3937 0.282, -0.379 -0.3937 0.2829, -0.4017 -0.3937 0.2755, -0.401 -0.3937 0.2759, -0.3971 -0.3937 0.2783, -0.3884 -0.3937 0.2817, -0.4062 -0.3937 0.2716, -0.4101 -0.3937 0.2671, -0.4123 -0.3937 0.2674, -0.4144 -0.3937 0.2675, -0.4214 -0.3937 0.2667, -0.4285 -0.3937 0.2641, -0.4348 -0.3937 0.2598, -0.4363 -0.3937 0.2584, -0.4452 -0.3937 0.2367, -0.4406 -0.3937 0.2529, -0.4425 -0.3937 0.2488, -0.4437 -0.3937 0.2462, -0.4447 -0.3937 0.241, -0.4451 -0.3937 0.2391, -0.4444 -0.3937 0.2298, -0.4418 -0.3937 0.2227, -0.4372 -0.3937 0.2161, -0.4318 -0.3937 0.2114, -0.425 -0.3937 0.2079, -0.422 -0.3937 0.207, -0.4218 -0.3937 0.2064, -0.4201 -0.3937 0.2029, -0.4173 -0.3937 0.1994, -0.4136 -0.3937 0.1966, -0.4119 -0.3937 0.1959, -0.4092 -0.3937 0.1948, -0.4047 -0.3937 0.1941, -0.404 -0.3937 0.194, -0.385 -0.3937 0.213, -0.3994 -0.3937 0.1946, -0.3961 -0.3937 0.1959, -0.3952 -0.3937 0.1962, -0.3914 -0.3937 0.1989, -0.3885 -0.3937 0.2022, -0.3862 -0.3937 0.2064, -0.3862 -0.3937 0.2064, -0.3851 -0.3937 0.2111, -0.385 -0.3937 0.2149, -0.3585 -0.3937 0.229, -0.3643 -0.3937 0.239, -0.3898 -0.3937 0.2257, -0.3931 -0.3937 0.2288, -0.3971 -0.3937 0.2309, -0.4017 -0.3937 0.2321, -0.404 -0.3937 0.2322, -0.4085 -0.3937 0.2316, -0.4127 -0.3937 0.23, -0.4166 -0.3937 0.2273, -0.4197 -0.3937 0.2238, -0.4218 -0.3937 0.2197, -0.426 -0.3937 0.2222, -0.4294 -0.3937 0.2257, -0.4316 -0.3937 0.2296, -0.433 -0.3937 0.2342, -0.4332 -0.3937 0.2371, -0.4328 -0.3937 0.241, -0.4327 -0.3937 0.2417, -0.431 -0.3937 0.2459, -0.4291 -0.3937 0.2488, -0.4284 -0.3937 0.2497, -0.4251 -0.3937 0.2527, -0.4209 -0.3937 0.2549, -0.4162 -0.3937 0.256, -0.4143 -0.3937 0.2561, -0.4098 -0.3937 0.2556, -0.4056 -0.3937 0.254, -0.4042 -0.3937 0.2533, -0.4013 -0.3937 0.2592, -0.3971 -0.3937 0.2643, -0.3919 -0.3937 0.2681, -0.3856 -0.3937 0.2706, -0.3788 -0.3937 0.2715, -0.3522 -0.3937 0.2478, -0.3524 -0.3937 0.2488, -0.3533 -0.3937 0.2529, -0.3562 -0.3937 0.259, -0.3605 -0.3937 0.2642, -0.3611 -0.3937 0.2647, -0.3664 -0.3937 0.2684, -0.3724 -0.3937 0.2707, -0.3507 -0.3937 0.2478, -0.3471 -0.3937 0.2473, -0.3438 -0.3937 0.246, -0.3408 -0.3937 0.244, -0.3386 -0.3937 0.2415, -0.3383 -0.3937 0.241, -0.3369 -0.3937 0.2382, -0.336 -0.3937 0.2346, -0.3359 -0.3937 0.233, -0.3363 -0.3937 0.2293, -0.3376 -0.3937 0.2259, -0.3397 -0.3937 0.2229, -0.34 -0.3937 0.2226, -0.3428 -0.3937 0.2203, -0.3462 -0.3937 0.2188, -0.3495 -0.3937 0.2181, -0.3581 -0.3937 0.2181, -0.3585 -0.3937 0.2182, -0.359 -0.3937 0.2183, -0.3592 -0.3937 0.2183, -0.3607 -0.3937 0.2182, -0.362 -0.3937 0.2176, -0.3631 -0.3937 0.2168, -0.364 -0.3937 0.2159, -0.3647 -0.3937 0.2146, -0.3651 -0.3937 0.2131, -0.3651 -0.3937 0.2125, -0.3649 -0.3937 0.211, -0.3644 -0.3937 0.2098, -0.3636 -0.3937 0.2086, -0.3632 -0.3937 0.2081, -0.3619 -0.3937 0.2072, -0.3607 -0.3937 0.2067, -0.3596 -0.3937 0.2066, -0.3484 -0.3937 0.2066, -0.3421 -0.3937 0.2079, -0.3363 -0.3937 0.2107, -0.3311 -0.3937 0.2151, -0.3274 -0.3937 0.2204, -0.325 -0.3937 0.2264, -0.4042 -0.3937 0.2202, -0.4026 -0.3937 0.2201, -0.4008 -0.3937 0.2194, -0.3993 -0.3937 0.2184, -0.3981 -0.3937 0.217, -0.3973 -0.3937 0.2154, -0.3968 -0.3937 0.2137, -0.3968 -0.3937 0.212, -0.3973 -0.3937 0.2102, -0.3982 -0.3937 0.2086, -0.3994 -0.3937 0.2072, -0.4009 -0.3937 0.2062, -0.4025 -0.3937 0.2056, -0.4042 -0.3937 0.2054, -0.4056 -0.3937 0.2056, -0.4074 -0.3937 0.2061, -0.4089 -0.3937 0.2071, -0.4102 -0.3937 0.2085, -0.411 -0.3937 0.21, -0.4115 -0.3937 0.2117, -0.4116 -0.3937 0.2136, -0.4111 -0.3937 0.2154, -0.4103 -0.3937 0.2171, -0.409 -0.3937 0.2184, -0.4075 -0.3937 0.2194, -0.4058 -0.3937 0.22, -0.4058 -0.3937 0.22
            ]
        }
        coordIndex [
            0,1,2,-1,3,4,5,-1,6,7,8,-1,5,4,9,-1,10,11,12,-1,12,11,13,-1,12,13,14,-1,14,13,15,-1,14,15,8,-1,8,15,16,-1,8,16,6,-1,17,1,18,-1,18,1,19,-1,18,19,20,-1,21,22,23,-1,24,25,2,-1,2,25,26,-1,2,26,0,-1,27,28,29,-1,29,28,30,-1,29,30,31,-1,31,30,32,-1,31,32,33,-1,33,32,34,-1,21,23,35,-1,35,23,36,-1,35,36,37,-1,37,36,38,-1,37,38,39,-1,4,40,9,-1,9,40,41,-1,9,41,42,-1,42,41,43,-1,42,43,38,-1,38,43,44,-1,38,44,39,-1,45,2,46,-1,46,2,1,-1,46,1,47,-1,47,1,17,-1,19,48,20,-1,20,48,49,-1,20,49,50,-1,50,49,51,-1,50,51,52,-1,52,51,53,-1,52,53,54,-1,54,53,15,-1,54,15,55,-1,55,15,56,-1,57,58,59,-1,59,58,60,-1,59,60,61,-1,61,60,62,-1,61,62,63,-1,63,62,64,-1,63,64,65,-1,65,64,66,-1,65,66,67,-1,68,69,70,-1,70,69,71,-1,70,71,72,-1,72,71,73,-1,72,73,74,-1,74,73,75,-1,74,75,76,-1,76,75,77,-1,76,77,24,-1,24,77,78,-1,24,78,25,-1,79,80,13,-1,13,80,81,-1,13,81,15,-1,15,81,82,-1,15,82,56,-1,32,83,34,-1,34,83,84,-1,34,84,85,-1,85,84,86,-1,85,86,87,-1,87,86,88,-1,87,88,89,-1,89,88,90,-1,89,90,91,-1,91,90,92,-1,91,92,93,-1,93,92,94,-1,93,94,57,-1,57,94,95,-1,57,95,58,-1,96,97,98,-1,98,97,99,-1,98,99,29,-1,29,99,100,-1,29,100,27,-1,5,101,3,-1,3,101,102,-1,3,102,103,-1,103,102,104,-1,103,104,105,-1,105,104,106,-1,105,106,68,-1,68,106,107,-1,68,107,69,-1,22,21,108,-1,108,21,109,-1,108,109,110,-1,110,109,111,-1,110,111,112,-1,112,111,113,-1,112,113,114,-1,114,113,115,-1,114,115,96,-1,96,115,116,-1,96,116,97,-1,45,117,2,-1,2,117,118,-1,2,118,119,-1,119,118,120,-1,119,120,121,-1,121,120,122,-1,121,122,123,-1,123,122,124,-1,123,124,125,-1,125,124,126,-1,125,126,127,-1,127,126,128,-1,127,128,129,-1,129,128,130,-1,129,130,131,-1,131,130,132,-1,131,132,133,-1,133,132,134,-1,133,134,13,-1,13,134,135,-1,13,135,79,-1,136,137,138,-1,66,139,67,-1,67,139,136,-1,67,136,140,-1,140,136,138,-1,141,142,136,-1,136,142,143,-1,136,143,137,-1,144,145,146,-1,145,147,146,-1,146,147,148,-1,146,148,149,-1,141,136,146,-1,146,136,150,-1,146,150,144,-1,89,151,152,-1,89,152,87,-1,87,152,153,-1,87,153,85,-1,153,154,85,-1,85,154,155,-1,85,155,34,-1,155,156,34,-1,34,156,157,-1,34,157,33,-1,33,157,158,-1,33,158,31,-1,31,158,159,-1,31,159,29,-1,29,159,160,-1,29,160,98,-1,98,160,161,-1,98,161,96,-1,96,161,114,-1,114,161,162,-1,162,163,114,-1,114,163,164,-1,114,164,112,-1,112,164,165,-1,112,165,110,-1,166,23,167,-1,167,23,22,-1,167,22,168,-1,168,22,108,-1,168,108,169,-1,169,108,110,-1,169,110,165,-1,23,166,170,-1,23,170,36,-1,36,170,171,-1,36,171,38,-1,38,171,172,-1,38,172,42,-1,42,172,173,-1,42,173,9,-1,9,173,174,-1,9,174,5,-1,5,174,175,-1,5,175,101,-1,101,175,176,-1,101,176,102,-1,102,176,177,-1,102,177,104,-1,178,71,69,-1,104,177,179,-1,180,107,179,-1,179,107,106,-1,179,106,104,-1,180,181,107,-1,107,181,182,-1,107,182,69,-1,69,182,183,-1,69,183,178,-1,71,178,184,-1,71,184,73,-1,73,184,185,-1,73,185,75,-1,75,185,186,-1,75,186,77,-1,77,186,187,-1,77,187,78,-1,78,187,188,-1,78,188,25,-1,25,188,189,-1,25,189,26,-1,26,189,190,-1,26,190,0,-1,190,191,0,-1,0,191,192,-1,0,192,1,-1,1,192,193,-1,1,193,19,-1,19,193,194,-1,19,194,48,-1,194,195,48,-1,48,195,196,-1,48,196,49,-1,49,196,197,-1,49,197,51,-1,198,14,8,-1,51,197,199,-1,51,199,53,-1,53,199,200,-1,53,200,15,-1,200,201,15,-1,15,201,202,-1,15,202,16,-1,16,202,203,-1,16,203,6,-1,6,203,204,-1,6,204,7,-1,7,204,205,-1,7,205,8,-1,8,205,206,-1,8,206,198,-1,12,14,207,-1,207,14,198,-1,10,12,208,-1,208,12,207,-1,11,10,209,-1,209,10,208,-1,13,11,210,-1,210,11,209,-1,13,210,211,-1,13,211,133,-1,133,211,212,-1,133,212,131,-1,131,212,213,-1,131,213,129,-1,129,213,214,-1,129,214,127,-1,127,214,215,-1,127,215,125,-1,125,215,216,-1,125,216,123,-1,123,216,217,-1,123,217,121,-1,121,217,218,-1,121,218,119,-1,119,218,219,-1,119,219,2,-1,2,219,220,-1,2,220,24,-1,24,220,221,-1,24,221,76,-1,76,221,222,-1,76,222,74,-1,74,222,223,-1,74,223,72,-1,72,223,224,-1,72,224,70,-1,224,225,70,-1,70,225,68,-1,225,226,68,-1,68,226,227,-1,68,227,105,-1,105,227,228,-1,105,228,103,-1,228,229,103,-1,103,229,230,-1,103,230,3,-1,3,230,231,-1,3,231,4,-1,4,231,232,-1,4,232,40,-1,40,232,233,-1,40,233,41,-1,41,233,234,-1,41,234,43,-1,43,234,235,-1,43,235,44,-1,44,235,236,-1,44,236,39,-1,39,236,237,-1,39,237,37,-1,37,237,238,-1,37,238,35,-1,35,238,239,-1,35,239,21,-1,21,239,240,-1,21,240,109,-1,109,240,241,-1,109,241,111,-1,242,27,243,-1,243,27,100,-1,243,100,244,-1,244,100,99,-1,244,99,245,-1,245,99,97,-1,245,97,246,-1,246,97,116,-1,246,116,247,-1,247,116,115,-1,247,115,248,-1,248,115,113,-1,248,113,249,-1,249,113,111,-1,249,111,241,-1,28,27,250,-1,250,27,242,-1,28,250,251,-1,28,251,30,-1,30,251,252,-1,30,252,32,-1,32,252,253,-1,32,253,83,-1,83,253,254,-1,83,254,84,-1,84,254,255,-1,84,255,86,-1,255,256,86,-1,86,256,257,-1,86,257,88,-1,88,257,258,-1,88,258,90,-1,90,258,259,-1,90,259,92,-1,92,259,260,-1,92,260,94,-1,94,260,261,-1,94,261,95,-1,95,261,262,-1,95,262,58,-1,58,262,263,-1,58,263,60,-1,60,263,264,-1,60,264,62,-1,62,264,265,-1,62,265,64,-1,66,64,266,-1,266,64,265,-1,66,266,267,-1,66,267,139,-1,139,267,268,-1,139,268,136,-1,136,268,269,-1,136,269,150,-1,150,269,270,-1,150,270,144,-1,144,270,271,-1,144,271,145,-1,145,271,272,-1,145,272,147,-1,147,272,273,-1,147,273,148,-1,148,273,274,-1,148,274,149,-1,149,274,275,-1,149,275,146,-1,146,275,276,-1,146,276,141,-1,141,276,277,-1,141,277,142,-1,142,277,278,-1,142,278,143,-1,143,278,279,-1,143,279,137,-1,137,279,280,-1,137,280,138,-1,138,280,281,-1,138,281,140,-1,140,281,282,-1,140,282,67,-1,67,282,283,-1,67,283,65,-1,63,65,284,-1,284,65,283,-1,63,284,285,-1,63,285,61,-1,61,285,286,-1,61,286,59,-1,59,286,287,-1,59,287,57,-1,57,287,288,-1,57,288,93,-1,93,288,289,-1,93,289,91,-1,91,289,151,-1,91,151,89,-1,128,290,291,-1,128,291,130,-1,130,291,292,-1,130,292,132,-1,132,292,293,-1,132,293,134,-1,134,293,294,-1,134,294,135,-1,135,294,295,-1,135,295,79,-1,79,295,296,-1,79,296,80,-1,80,296,297,-1,80,297,81,-1,81,297,298,-1,81,298,82,-1,82,298,299,-1,82,299,56,-1,56,299,300,-1,56,300,55,-1,55,300,301,-1,55,301,54,-1,54,301,302,-1,54,302,52,-1,52,302,303,-1,52,303,50,-1,50,303,304,-1,50,304,20,-1,20,304,305,-1,20,305,18,-1,18,305,306,-1,18,306,17,-1,17,306,307,-1,17,307,47,-1,47,307,308,-1,47,308,46,-1,46,308,309,-1,46,309,45,-1,45,309,310,-1,45,310,117,-1,117,310,311,-1,117,311,118,-1,118,311,312,-1,118,312,120,-1,120,312,313,-1,120,313,122,-1,122,313,314,-1,122,314,124,-1,124,314,315,-1,124,315,126,-1,126,315,290,-1,126,290,128,-1,
        ]
    }
}
Shape{
    appearance Appearance {
        material  Material 	{
            diffuseColor 0.25098039215686274 0.25098039215686274 0.25098039215686274
            specularColor 0.12549019607843137 0.12549019607843137 0.12549019607843137
            ambientIntensity 0.2
            transparency 0
            shininess 0.5
        }
    }
    geometry IndexedFaceSet {
        ccw TRUE
        solid FALSE
        coord DEF co Coordinate {
            point [
                -0.4056 -0.3937 0.2056, -0.4042 -0.3937 0.2054, -0.4042 -0.3937 0.2202, -0.4009 -0.3937 0.2062, -0.3968 -0.3937 0.212, -0.4025 -0.3937 0.2056, -0.3968 -0.3937 0.2137, -0.3973 -0.3937 0.2154, -0.3981 -0.3937 0.217, -0.3993 -0.3937 0.2184, -0.4075 -0.3937 0.2194, -0.4102 -0.3937 0.2085, -0.4089 -0.3937 0.2071, -0.4008 -0.3937 0.2194, -0.4026 -0.3937 0.2201, -0.411 -0.3937 0.21, -0.409 -0.3937 0.2184, -0.4115 -0.3937 0.2117, -0.4058 -0.3937 0.22, -0.4074 -0.3937 0.2061, -0.3994 -0.3937 0.2072, -0.3982 -0.3937 0.2086, -0.3973 -0.3937 0.2102, -0.4116 -0.3937 0.2136, -0.4103 -0.3937 0.2171, -0.4111 -0.3937 0.2154, -0.4111 -0.3937 0.2154
            ]
        }
        coordIndex [
            0,1,2,-1,3,4,5,-1,5,4,6,-1,5,6,1,-1,6,7,1,-1,1,7,8,-1,1,8,9,-1,10,11,12,-1,9,13,1,-1,1,13,14,-1,1,14,2,-1,11,10,15,-1,15,10,16,-1,15,16,17,-1,2,18,0,-1,0,18,10,-1,0,10,19,-1,19,10,12,-1,3,20,4,-1,4,20,21,-1,4,21,22,-1,17,16,23,-1,23,16,24,-1,23,24,25,-1,
        ]
    }
}