#VRML V2.0 utf8
# 3D model generated by easyeda2kicad.py (https://github.com/uPesy/easyeda2kicad.py)

Shape{
    appearance Appearance {
        material  Material 	{
            diffuseColor 0.25098039215686274 0.25098039215686274 0.25098039215686274
            specularColor 0.12549019607843137 0.12549019607843137 0.12549019607843137
            ambientIntensity 0.2
            transparency 0
            shininess 0.5
        }
    }
    geometry IndexedFaceSet {
        ccw TRUE
        solid FALSE
        coord DEF co Coordinate {
            point [
                -0.0546 -0.1181 0.0848, -0.0546 -0.1181 0.0796, -0.0418 -0.1181 0.0796, -0.0546 -0.1181 0.106, -0.0546 -0.1181 0.1021, -0.0418 -0.1181 0.1021, -0.0367 -0.1181 0.1195, -0.0356 -0.1181 0.1196, -0.041 -0.1181 0.1196, -0.0332 -0.1181 0.1061, -0.0341 -0.1181 0.106, -0.0297 -0.1181 0.106, -0.0272 -0.1181 0.1179, -0.0272 -0.1181 0.1137, -0.0236 -0.1181 0.1137, -0.0265 -0.1181 0.0849, -0.0268 -0.1181 0.0848, -0.0236 -0.1181 0.0848, -0.0105 -0.1181 0.0968, -0.0105 -0.1181 0.0925, -0.008 -0.1181 0.0925, -0.0662 -0.1181 0.1091, -0.0636 -0.1181 0.1069, -0.0546 -0.1181 0.1196, -0.0768 -0.1181 0.1196, -0.0746 -0.1181 0.1181, -0.0715 -0.1181 0.1145, -0.0695 -0.1181 0.1106, -0.069 -0.1181 0.1105, -0.0966 -0.1181 0.1208, -0.0922 -0.1181 0.1225, -0.1282 -0.1181 0.1378, -0.0875 -0.1181 0.1231, -0.0546 -0.1181 0.1378, -0.0836 -0.1181 0.1226, -0.0788 -0.1181 0.121, -0.1282 -0.1181 0.1196, -0.109 -0.1181 0.1149, -0.1052 -0.1181 0.1154, -0.1282 -0.1181 0.106, -0.1193 -0.1181 0.106, -0.1184 -0.1181 0.1079, -0.1161 -0.1181 0.1108, -0.0985 -0.1181 0.1196, -0.0989 -0.1181 0.1194, -0.1011 -0.1181 0.1174, -0.1041 -0.1181 0.1153, -0.103 -0.1181 0.1152, -0.1155 -0.1181 0.1114, -0.1125 -0.1181 0.1135, -0.109 -0.1181 0.0851, -0.1102 -0.1181 0.0855, -0.1282 -0.1181 0.0848, -0.1137 -0.1181 0.0871, -0.1166 -0.1181 0.0897, -0.1188 -0.1181 0.0927, -0.1201 -0.1181 0.0963, -0.1282 -0.1181 0.1021, -0.1206 -0.1181 0.1, -0.1206 -0.1181 0.1009, -0.1204 -0.1181 0.1021, -0.1199 -0.1181 0.1045, -0.1282 -0.1181 0.0796, -0.1039 -0.1181 0.0796, -0.105 -0.1181 0.08, -0.1068 -0.1181 0.0815, -0.1082 -0.1181 0.0832, -0.1089 -0.1181 0.0848, -0.1028 -0.1181 0.0791, -0.1282 -0.1181 0.0, -0.1006 -0.1181 0.0787, -0.096 -0.1181 0.0796, -0.0979 -0.1181 0.0789, -0.0546 -0.1181 0.0, -0.1 -0.1181 0.0786, -0.0911 -0.1181 0.0848, -0.0912 -0.1181 0.0847, -0.0923 -0.1181 0.0826, -0.0939 -0.1181 0.0809, -0.0958 -0.1181 0.0796, -0.0605 -0.1181 0.1013, -0.0601 -0.1181 0.0982, -0.079 -0.1181 0.0905, -0.0783 -0.1181 0.0907, -0.0772 -0.1181 0.0961, -0.0929 -0.1181 0.0945, -0.0802 -0.1181 0.1011, -0.0944 -0.1181 0.0959, -0.0964 -0.1181 0.097, -0.0636 -0.1181 0.0892, -0.0662 -0.1181 0.087, -0.066 -0.1181 0.0989, -0.0664 -0.1181 0.1007, -0.0672 -0.1181 0.1021, -0.1144 -0.1181 0.1021, -0.0796 -0.1181 0.09, -0.0617 -0.1181 0.0918, -0.0776 -0.1181 0.0908, -0.0775 -0.1181 0.0908, -0.0772 -0.1181 0.0907, -0.0605 -0.1181 0.0948, -0.1145 -0.1181 0.0986, -0.1077 -0.1181 0.0937, -0.1146 -0.1181 0.1002, -0.1061 -0.1181 0.0954, -0.1042 -0.1181 0.0967, -0.1138 -0.1181 0.0963, -0.1125 -0.1181 0.0942, -0.1088 -0.1181 0.0917, -0.1108 -0.1181 0.0926, -0.1089 -0.1181 0.0915, -0.069 -0.1181 0.0856, -0.0722 -0.1181 0.0849, -0.0778 -0.1181 0.0849, -0.0783 -0.1181 0.085, -0.0789 -0.1181 0.0852, -0.0795 -0.1181 0.0856, -0.0798 -0.1181 0.0859, -0.1021 -0.1181 0.0975, -0.1 -0.1181 0.0977, -0.0987 -0.1181 0.0976, -0.0679 -0.1181 0.0931, -0.0668 -0.1181 0.0946, -0.0662 -0.1181 0.0963, -0.0659 -0.1181 0.0981, -0.0806 -0.1181 0.0878, -0.0805 -0.1181 0.0881, -0.0905 -0.1181 0.0891, -0.0804 -0.1181 0.0889, -0.08 -0.1181 0.0895, -0.077 -0.1181 0.0907, -0.0728 -0.1181 0.0907, -0.0711 -0.1181 0.091, -0.0802 -0.1181 0.0865, -0.0805 -0.1181 0.0872, -0.0906 -0.1181 0.0871, -0.0905 -0.1181 0.0881, -0.0694 -0.1181 0.0918, -0.068 -0.1181 0.0929, -0.1136 -0.1181 0.1044, -0.1144 -0.1181 0.1022, -0.0741 -0.1181 0.1055, -0.0733 -0.1181 0.1055, -0.0673 -0.1181 0.1024, -0.0684 -0.1181 0.1036, -0.0699 -0.1181 0.1046, -0.0716 -0.1181 0.1053, -0.0762 -0.1181 0.1112, -0.0783 -0.1181 0.1138, -0.1001 -0.1181 0.1082, -0.0785 -0.1181 0.114, -0.0812 -0.1181 0.1158, -0.0986 -0.1181 0.1113, -0.1126 -0.1181 0.106, -0.101 -0.1181 0.1087, -0.0742 -0.1181 0.106, -0.0747 -0.1181 0.1082, -0.1031 -0.1181 0.1095, -0.1051 -0.1181 0.1097, -0.1062 -0.1181 0.1096, -0.0965 -0.1181 0.1138, -0.0842 -0.1181 0.117, -0.094 -0.1181 0.1156, -0.0874 -0.1181 0.1174, -0.0909 -0.1181 0.1169, -0.1085 -0.1181 0.109, -0.1106 -0.1181 0.1079, -0.1124 -0.1181 0.1063, -0.063 -0.1181 0.106, -0.0617 -0.1181 0.1042, -0.0608 -0.1181 0.1021, -0.0053 -0.1181 0.0983, -0.0053 -0.1181 0.0968, -0.0037 -0.1181 0.1021, -0.005 -0.1181 0.0865, -0.0037 -0.1181 0.0848, -0.005 -0.1181 0.085, -0.008 -0.1181 0.0848, -0.0105 -0.1181 0.0865, -0.008 -0.1181 0.0865, -0.0105 -0.1181 0.091, -0.008 -0.1181 0.091, -0.0057 -0.1181 0.091, -0.0057 -0.1181 0.0925, -0.008 -0.1181 0.0968, -0.008 -0.1181 0.085, -0.0122 -0.1181 0.085, -0.0131 -0.1181 0.0848, -0.0122 -0.1181 0.0983, -0.0344 -0.1181 0.085, -0.0364 -0.1181 0.0848, -0.0327 -0.1181 0.085, -0.0297 -0.1181 0.0848, -0.0397 -0.1181 0.0895, -0.0394 -0.1181 0.0922, -0.04 -0.1181 0.089, -0.0402 -0.1181 0.0884, -0.0344 -0.1181 0.0864, -0.0344 -0.1181 0.0864, -0.0348 -0.1181 0.0859, -0.041 -0.1181 0.0848, -0.04 -0.1181 0.0861, -0.0403 -0.1181 0.0867, -0.0379 -0.1181 0.0945, -0.041 -0.1181 0.1021, -0.0391 -0.1181 0.094, -0.0394 -0.1181 0.0938, -0.0354 -0.1181 0.0853, -0.0357 -0.1181 0.0851, -0.0357 -0.1181 0.0933, -0.0363 -0.1181 0.0933, -0.0372 -0.1181 0.0906, -0.039 -0.1181 0.0851, -0.0395 -0.1181 0.0855, -0.0397 -0.1181 0.0856, -0.0392 -0.1181 0.0899, -0.0385 -0.1181 0.0903, -0.0383 -0.1181 0.0929, -0.0372 -0.1181 0.0933, -0.0404 -0.1181 0.0875, -0.0404 -0.1181 0.0877, -0.0297 -0.1181 0.0901, -0.0304 -0.1181 0.087, -0.0297 -0.1181 0.0901, -0.0298 -0.1181 0.0866, -0.0297 -0.1181 0.0866, -0.0361 -0.1181 0.0947, -0.0352 -0.1181 0.0946, -0.0344 -0.1181 0.0944, -0.0344 -0.1181 0.091, -0.0344 -0.1181 0.0918, -0.0346 -0.1181 0.0924, -0.0348 -0.1181 0.0927, -0.0328 -0.1181 0.0924, -0.0304 -0.1181 0.0925, -0.0331 -0.1181 0.0931, -0.0302 -0.1181 0.093, -0.0334 -0.1181 0.0937, -0.0351 -0.1181 0.093, -0.0354 -0.1181 0.0932, -0.03 -0.1181 0.0904, -0.0301 -0.1181 0.0907, -0.0327 -0.1181 0.0911, -0.0303 -0.1181 0.0912, -0.0304 -0.1181 0.0919, -0.0304 -0.1181 0.0853, -0.0297 -0.1181 0.085, -0.0293 -0.1181 0.0849, -0.0289 -0.1181 0.0848, -0.0245 -0.1181 0.0943, -0.0245 -0.1181 0.0927, -0.0243 -0.1181 0.0864, -0.0246 -0.1181 0.0859, -0.0241 -0.1181 0.0869, -0.0299 -0.1181 0.0935, -0.0297 -0.1181 0.0937, -0.0297 -0.1181 0.1021, -0.0294 -0.1181 0.0939, -0.029 -0.1181 0.0942, -0.0251 -0.1181 0.0855, -0.0256 -0.1181 0.0852, -0.0281 -0.1181 0.0945, -0.0267 -0.1181 0.0947, -0.0236 -0.1181 0.1021, -0.0255 -0.1181 0.0946, -0.0246 -0.1181 0.0891, -0.0245 -0.1181 0.0891, -0.0242 -0.1181 0.0886, -0.0241 -0.1181 0.0881, -0.024 -0.1181 0.0875, -0.0269 -0.1181 0.0933, -0.0274 -0.1181 0.0933, -0.0287 -0.1181 0.0921, -0.0278 -0.1181 0.0932, -0.0282 -0.1181 0.093, -0.0287 -0.1181 0.0918, -0.0286 -0.1181 0.0916, -0.0285 -0.1181 0.0914, -0.0283 -0.1181 0.0912, -0.0277 -0.1181 0.0908, -0.0257 -0.1181 0.0932, -0.0267 -0.1181 0.0904, -0.0248 -0.1181 0.0928, -0.0262 -0.1181 0.0902, -0.025 -0.1181 0.0895, -0.0284 -0.1181 0.0928, -0.0286 -0.1181 0.0926, -0.0287 -0.1181 0.0923, -0.0288 -0.1181 0.0862, -0.0279 -0.1181 0.0891, -0.0289 -0.1181 0.0896, -0.0277 -0.1181 0.0861, -0.0276 -0.1181 0.0861, -0.0268 -0.1181 0.0887, -0.0268 -0.1181 0.0862, -0.0257 -0.1181 0.0874, -0.0257 -0.1181 0.0876, -0.0263 -0.1181 0.0863, -0.0262 -0.1181 0.0864, -0.026 -0.1181 0.0866, -0.0258 -0.1181 0.0868, -0.0257 -0.1181 0.0871, -0.0258 -0.1181 0.0879, -0.0259 -0.1181 0.0881, -0.0261 -0.1181 0.0883, 0.0012 -0.1181 0.1098, -0.0037 -0.1181 0.1098, 0.0025 -0.1181 0.1061, -0.0037 -0.1181 0.106, 0.0044 -0.1181 0.1061, 0.1358 -0.1181 0.106, 0.1358 -0.1181 0.1196, -0.0007 -0.1181 0.1195, -0.0037 -0.1181 0.1196, -0.0044 -0.1181 0.1098, -0.0057 -0.1181 0.1061, -0.008 -0.1181 0.106, -0.0076 -0.1181 0.1061, -0.008 -0.1181 0.1196, -0.0037 -0.1181 0.1162, -0.0025 -0.1181 0.1195, -0.0131 -0.1181 0.106, -0.0134 -0.1181 0.1064, -0.0155 -0.1181 0.1061, -0.0154 -0.1181 0.1195, -0.0131 -0.1181 0.1196, -0.0205 -0.1181 0.1196, -0.0205 -0.1181 0.106, -0.0192 -0.1181 0.1061, -0.0192 -0.1181 0.1195, -0.0087 -0.1181 0.1106, -0.0093 -0.1181 0.1092, -0.0103 -0.1181 0.108, -0.0099 -0.1181 0.1173, -0.0091 -0.1181 0.1161, -0.0106 -0.1181 0.1078, -0.0119 -0.1181 0.1069, -0.0131 -0.1181 0.1065, -0.0103 -0.1181 0.1177, -0.0134 -0.1181 0.1192, -0.0131 -0.1181 0.1191, -0.0117 -0.1181 0.1187, -0.0086 -0.1181 0.1148, -0.0083 -0.1181 0.113, -0.0084 -0.1181 0.1121, -0.0236 -0.1181 0.1196, -0.022 -0.1181 0.1195, -0.0236 -0.1181 0.1195, -0.022 -0.1181 0.1179, -0.0217 -0.1181 0.1076, -0.0217 -0.1181 0.1061, -0.0236 -0.1181 0.106, -0.0272 -0.1181 0.1076, -0.0236 -0.1181 0.1076, -0.0272 -0.1181 0.1121, -0.0236 -0.1181 0.1121, -0.0224 -0.1181 0.1121, -0.0224 -0.1181 0.1137, -0.0236 -0.1181 0.1179, -0.0289 -0.1181 0.1195, -0.0297 -0.1181 0.1196, -0.0289 -0.1181 0.1061, -0.0316 -0.1181 0.1191, -0.0329 -0.1181 0.1195, -0.0333 -0.1181 0.1196, -0.0236 -0.1181 0.1061, -0.0316 -0.1181 0.1173, -0.0318 -0.1181 0.1066, -0.0344 -0.1181 0.1075, -0.0329 -0.1181 0.1077, -0.0316 -0.1181 0.1083, -0.0316 -0.1181 0.1067, -0.0391 -0.1181 0.1097, -0.0384 -0.1181 0.1088, -0.0382 -0.1181 0.1086, -0.0373 -0.1181 0.108, -0.0364 -0.1181 0.1076, -0.035 -0.1181 0.1074, -0.0331 -0.1181 0.1179, -0.0385 -0.1181 0.1165, -0.0317 -0.1181 0.1174, -0.0391 -0.1181 0.1155, -0.0396 -0.1181 0.1143, -0.0347 -0.1181 0.1181, -0.0352 -0.1181 0.1181, -0.0383 -0.1181 0.1167, -0.0364 -0.1181 0.1179, -0.0374 -0.1181 0.1174, -0.0397 -0.1181 0.1126, -0.0397 -0.1181 0.1122, -0.0395 -0.1181 0.1108, -0.0347 -0.1181 0.1197, -0.041 -0.1181 0.1378, -0.0297 -0.1181 0.1378, -0.0347 -0.1181 0.1197, -0.0406 -0.1181 0.1165, -0.0396 -0.1181 0.1177, -0.0393 -0.1181 0.118, -0.0381 -0.1181 0.1189, -0.041 -0.1181 0.1095, -0.0413 -0.1181 0.1105, -0.0418 -0.1181 0.106, -0.0416 -0.1181 0.1125, -0.0415 -0.1181 0.1132, -0.0418 -0.1181 0.1196, -0.0412 -0.1181 0.115, -0.041 -0.1181 0.1156, -0.0388 -0.1181 0.1068, -0.0398 -0.1181 0.1077, -0.041 -0.1181 0.106, -0.04 -0.1181 0.1079, -0.0408 -0.1181 0.1091, -0.0353 -0.1181 0.1059, -0.0361 -0.1181 0.1059, -0.0364 -0.1181 0.106, -0.0375 -0.1181 0.1062, -0.0339 -0.1181 0.0941, -0.0279 -0.1181 0.0847, -0.0297 -0.1181 0.0796, -0.041 -0.1181 0.0796, -0.0373 -0.1181 0.0847, -0.0376 -0.1181 0.0847, -0.0383 -0.1181 0.0848, -0.0384 -0.1181 0.0849, -0.0157 -0.1181 0.0945, -0.014 -0.1181 0.0945, -0.0131 -0.1181 0.1021, -0.008 -0.1181 0.0983, -0.008 -0.1181 0.1021, -0.0178 -0.1181 0.0848, -0.0188 -0.1181 0.0873, -0.0186 -0.1181 0.0865, -0.0185 -0.1181 0.0865, -0.0205 -0.1181 0.1021, -0.0205 -0.1181 0.0922, -0.0183 -0.1181 0.0873, -0.0184 -0.1181 0.0869, -0.0205 -0.1181 0.0848, -0.0205 -0.1181 0.0877, -0.0231 -0.1181 0.0945, -0.0213 -0.1181 0.0945, -0.0194 -0.1181 0.085, -0.0194 -0.1181 0.0848, -0.0201 -0.1181 0.0832, -0.0236 -0.1181 0.0796, -0.0228 -0.1181 0.0806, -0.0228 -0.1181 0.0821, -0.0224 -0.1181 0.082, -0.0218 -0.1181 0.0819, -0.0205 -0.1181 0.0808, -0.021 -0.1181 0.0806, -0.0205 -0.1181 0.0796, -0.0217 -0.1181 0.0805, -0.0223 -0.1181 0.0805, -0.0215 -0.1181 0.0819, -0.0211 -0.1181 0.082, -0.0208 -0.1181 0.0822, -0.0205 -0.1181 0.0826, -0.0205 -0.1181 0.0827, -0.0131 -0.1181 0.0796, -0.0198 -0.1181 0.0812, -0.0203 -0.1181 0.0808, -0.0183 -0.1181 0.0835, -0.0191 -0.1181 0.082, -0.1358 -0.1181 0.0, -0.1358 -0.1181 0.0796, -0.1358 -0.1181 0.0848, -0.1358 -0.1181 0.1021, -0.1358 -0.1181 0.106, -0.1358 -0.1181 0.1196, -0.1358 -0.1181 0.1378, -0.0421 -0.1181 0.1076, -0.0421 -0.1181 0.1061, -0.0491 -0.1181 0.1061, -0.0474 -0.1181 0.1195, -0.0474 -0.1181 0.1076, -0.0491 -0.1181 0.1195, -0.0418 -0.1181 0.0848, -0.042 -0.1181 0.085, -0.0491 -0.1181 0.085, -0.042 -0.1181 0.0865, -0.0423 -0.1181 0.0968, -0.0474 -0.1181 0.091, -0.0474 -0.1181 0.0865, -0.0426 -0.1181 0.091, -0.0426 -0.1181 0.0925, -0.0474 -0.1181 0.0925, -0.0474 -0.1181 0.0968, -0.0491 -0.1181 0.0983, -0.0423 -0.1181 0.0983, -0.0418 -0.1181 0.1378, -0.0236 -0.1181 0.1378, -0.0205 -0.1181 0.1378, -0.0131 -0.1181 0.1378, -0.008 -0.1181 0.1378, -0.0037 -0.1181 0.1378, 0.1358 -0.1181 0.1378, 0.011 -0.1181 0.085, 0.0091 -0.1181 0.085, -0.0025 -0.1181 0.0983, -0.0025 -0.1181 0.085, 0.0012 -0.1181 0.085, 0.0033 -0.1181 0.0852, 0.1358 -0.1181 0.1021, 0.016 -0.1181 0.0983, 0.1358 -0.1181 0.0848, 0.0211 -0.1181 0.085, 0.0192 -0.1181 0.085, 0.0179 -0.1181 0.0886, 0.0123 -0.1181 0.0886, 0.0142 -0.1181 0.0983, 0.0074 -0.1181 0.088, 0.0064 -0.1181 0.0868, 0.0064 -0.1181 0.0965, 0.0068 -0.1181 0.0961, 0.0077 -0.1181 0.0949, 0.0082 -0.1181 0.0937, 0.0062 -0.1181 0.0866, 0.0049 -0.1181 0.0858, 0.0013 -0.1181 0.0983, 0.0034 -0.1181 0.0981, 0.005 -0.1181 0.0975, 0.0084 -0.1181 0.0918, 0.0083 -0.1181 0.091, 0.008 -0.1181 0.0894, -0.008 -0.1181 0.0796, -0.0037 -0.1181 0.0796, 0.1358 -0.1181 0.0796, -0.0418 -0.1181 0.0, -0.041 -0.1181 0.0, -0.0297 -0.1181 0.0, -0.0236 -0.1181 0.0, -0.0205 -0.1181 0.0, -0.0131 -0.1181 0.0, -0.008 -0.1181 0.0, -0.0037 -0.1181 0.0, 0.1358 -0.1181 0.0, 0.1063 -0.0984 0.0, 0.1094 -0.098 0.0, -0.1063 0.0984 0.0, -0.1094 0.098 0.0, -0.1358 0.1181 0.0, -0.1165 0.0925 0.0, -0.1177 0.0897 0.0, -0.1181 0.0866 0.0, 0.1358 0.1181 0.0, 0.1177 0.0897 0.0, 0.1165 0.0925 0.0, 0.1147 0.095 0.0, 0.1122 0.0968 0.0, 0.1094 0.098 0.0, -0.0231 -0.0428 0.0, -0.0256 -0.041 0.0, 0.0591 0.0866 0.0, -0.1177 -0.0481 0.0, -0.1181 -0.0512 0.0, 0.1122 -0.0968 0.0, 0.1147 -0.095 0.0, 0.1165 -0.0925 0.0, 0.1063 0.0984 0.0, 0.0709 0.0984 0.0, 0.0678 0.098 0.0, 0.065 0.0968 0.0, 0.0625 0.095 0.0, -0.0284 0.098 0.0, 0.0606 0.0925 0.0, -0.0256 0.0968 0.0, -0.1122 0.0968 0.0, -0.1147 0.095 0.0, -0.1177 -0.0897 0.0, -0.1165 -0.0925 0.0, -0.1147 -0.095 0.0, -0.1122 -0.0968 0.0, 0.065 -0.0968 0.0, 0.0678 -0.098 0.0, -0.0284 -0.098 0.0, 0.1177 -0.0897 0.0, 0.1181 -0.0866 0.0, 0.1181 0.0866 0.0, -0.0315 0.0984 0.0, -0.1181 -0.0866 0.0, -0.1094 -0.098 0.0, -0.1063 -0.0984 0.0, -0.0315 -0.0984 0.0, 0.0709 -0.0984 0.0, -0.1147 0.0428 0.0, -0.1122 0.041 0.0, -0.1122 -0.041 0.0, -0.1094 0.0398 0.0, -0.1094 -0.0398 0.0, -0.1147 -0.0428 0.0, -0.1165 -0.0453 0.0, -0.0231 -0.095 0.0, -0.0213 -0.0925 0.0, 0.0625 -0.095 0.0, -0.0201 -0.0897 0.0, 0.0606 -0.0925 0.0, -0.0201 0.0897 0.0, 0.0595 0.0897 0.0, -0.0213 0.0925 0.0, -0.0231 0.095 0.0, -0.0256 -0.0968 0.0, -0.1181 0.0512 0.0, -0.1177 0.0481 0.0, -0.1165 0.0453 0.0, 0.0591 -0.0866 0.0, -0.0201 -0.0481 0.0, -0.0213 -0.0453 0.0, -0.0213 0.0453 0.0, -0.0201 0.0481 0.0, -0.0197 0.0512 0.0, -0.0197 0.0866 0.0, 0.0595 -0.0897 0.0, -0.0197 -0.0866 0.0, -0.0197 -0.0512 0.0, -0.1063 -0.0394 0.0, -0.1063 0.0394 0.0, -0.0315 -0.0394 0.0, -0.0315 0.0394 0.0, -0.0284 -0.0398 0.0, -0.0284 0.0398 0.0, -0.0256 0.041 0.0, -0.0231 0.0428 0.0, 0.1358 0.1181 0.1378, -0.1358 0.1181 0.1378, -0.1143 0.0815 0.1378, -0.1123 0.0863 0.1378, -0.1091 0.0905 0.1378, -0.105 0.0936 0.1378, -0.1002 0.0956 0.1378, -0.075 0.0763 0.1378, -0.0757 0.0712 0.1378, -0.0777 0.0663 0.1378, -0.095 0.0563 0.1378, -0.1002 0.057 0.1378, -0.105 0.059 0.1378, -0.1091 0.0622 0.1378, -0.1123 0.0663 0.1378, -0.1143 0.0712 0.1378, -0.115 0.0763 0.1378, -0.095 0.0963 0.1378, -0.0898 0.0956 0.1378, -0.085 0.0936 0.1378, -0.0808 0.0905 0.1378, -0.0808 0.0622 0.1378, -0.085 0.059 0.1378, -0.0898 0.057 0.1378, -0.0777 0.0863 0.1378, -0.0757 0.0815 0.1378, -0.0757 0.0815 0.1378
            ]
        }
        coordIndex [
            0,1,2,-1,3,4,5,-1,6,7,8,-1,9,10,11,-1,12,13,14,-1,15,16,17,-1,18,19,20,-1,21,22,23,-1,23,22,3,-1,24,25,23,-1,23,25,26,-1,26,27,23,-1,23,27,28,-1,23,28,21,-1,29,30,31,-1,31,30,32,-1,31,32,33,-1,33,32,34,-1,33,34,35,-1,36,37,38,-1,39,40,36,-1,36,40,41,-1,36,41,42,-1,29,31,43,-1,43,31,36,-1,43,36,44,-1,44,36,38,-1,44,38,45,-1,45,38,46,-1,45,46,47,-1,42,48,36,-1,36,48,49,-1,36,49,37,-1,50,51,52,-1,52,51,53,-1,52,53,54,-1,54,55,52,-1,52,55,56,-1,52,56,57,-1,57,56,58,-1,58,59,57,-1,57,59,60,-1,57,60,39,-1,39,60,61,-1,39,61,40,-1,62,63,64,-1,64,65,62,-1,62,65,66,-1,62,66,52,-1,52,66,67,-1,52,67,50,-1,63,62,68,-1,68,62,69,-1,68,69,70,-1,71,72,73,-1,73,72,69,-1,69,72,74,-1,69,74,70,-1,0,75,1,-1,1,75,76,-1,1,76,77,-1,77,78,1,-1,1,78,79,-1,1,79,71,-1,80,81,4,-1,82,83,84,-1,85,86,87,-1,87,86,88,-1,89,90,0,-1,91,92,86,-1,86,92,93,-1,86,93,94,-1,82,84,95,-1,89,0,96,-1,83,97,84,-1,84,97,98,-1,84,98,99,-1,4,81,0,-1,0,81,100,-1,0,100,96,-1,101,102,103,-1,103,102,104,-1,103,104,94,-1,94,104,105,-1,101,106,102,-1,102,106,107,-1,102,107,108,-1,108,107,109,-1,108,109,110,-1,90,111,0,-1,0,111,112,-1,0,112,75,-1,75,112,113,-1,75,113,114,-1,114,115,75,-1,75,115,116,-1,75,116,117,-1,105,118,94,-1,94,118,119,-1,94,119,86,-1,86,119,120,-1,86,120,88,-1,121,122,84,-1,84,122,123,-1,84,123,86,-1,86,123,124,-1,86,124,91,-1,125,126,127,-1,127,126,128,-1,127,128,84,-1,84,128,129,-1,84,129,95,-1,99,130,84,-1,84,130,131,-1,84,131,132,-1,117,133,75,-1,75,133,134,-1,75,134,135,-1,135,134,125,-1,135,125,136,-1,136,125,127,-1,132,137,84,-1,84,137,138,-1,84,138,121,-1,139,140,141,-1,140,94,141,-1,141,94,93,-1,141,93,142,-1,142,93,143,-1,143,144,142,-1,142,144,145,-1,142,145,146,-1,147,148,149,-1,148,150,149,-1,149,150,151,-1,149,151,152,-1,153,149,154,-1,139,141,153,-1,153,141,155,-1,153,155,149,-1,149,155,156,-1,149,156,147,-1,154,157,153,-1,153,157,158,-1,153,158,159,-1,152,151,160,-1,160,151,161,-1,160,161,162,-1,162,161,163,-1,162,163,164,-1,165,166,159,-1,159,166,167,-1,159,167,153,-1,22,168,3,-1,3,168,169,-1,3,169,4,-1,4,169,170,-1,4,170,80,-1,171,172,173,-1,173,172,174,-1,173,174,175,-1,175,174,176,-1,175,176,177,-1,178,179,180,-1,180,179,181,-1,181,179,182,-1,182,179,174,-1,182,174,183,-1,183,174,172,-1,183,172,20,-1,20,172,184,-1,20,184,18,-1,176,185,177,-1,177,185,186,-1,177,186,187,-1,187,186,188,-1,189,190,191,-1,191,190,192,-1,193,194,195,-1,195,194,196,-1,197,198,189,-1,189,198,199,-1,200,201,202,-1,203,204,205,-1,205,204,206,-1,199,207,189,-1,189,207,208,-1,189,208,190,-1,209,210,211,-1,212,213,200,-1,200,213,214,-1,200,214,201,-1,193,215,194,-1,194,215,216,-1,194,216,217,-1,217,216,211,-1,217,211,218,-1,218,211,210,-1,202,219,200,-1,200,219,220,-1,200,220,204,-1,204,220,196,-1,204,196,206,-1,206,196,194,-1,221,222,223,-1,223,222,224,-1,223,224,225,-1,203,226,204,-1,204,226,227,-1,204,227,228,-1,229,230,211,-1,211,230,231,-1,211,231,232,-1,233,234,235,-1,235,234,236,-1,235,236,237,-1,232,238,211,-1,211,238,239,-1,211,239,209,-1,240,241,242,-1,242,241,243,-1,242,243,233,-1,233,243,244,-1,233,244,234,-1,221,240,222,-1,222,240,242,-1,222,242,245,-1,245,242,191,-1,245,191,246,-1,246,191,192,-1,246,192,247,-1,247,192,248,-1,249,250,17,-1,251,252,17,-1,251,17,253,-1,254,255,256,-1,256,255,257,-1,256,257,258,-1,252,259,17,-1,17,259,260,-1,17,260,15,-1,258,261,256,-1,256,261,262,-1,256,262,263,-1,263,262,264,-1,263,264,249,-1,250,265,266,-1,266,267,250,-1,250,267,268,-1,250,268,17,-1,17,268,269,-1,17,269,253,-1,270,271,272,-1,272,271,273,-1,272,273,274,-1,272,275,270,-1,270,275,276,-1,270,276,277,-1,277,278,270,-1,270,278,279,-1,270,279,280,-1,280,279,281,-1,280,281,282,-1,282,281,283,-1,282,283,250,-1,250,283,284,-1,250,284,265,-1,285,286,274,-1,274,286,287,-1,274,287,272,-1,288,289,225,-1,225,289,290,-1,225,290,223,-1,288,291,289,-1,289,291,292,-1,289,292,293,-1,293,292,294,-1,293,295,296,-1,294,297,293,-1,293,297,298,-1,293,298,299,-1,299,300,293,-1,293,300,301,-1,293,301,295,-1,296,302,293,-1,293,302,303,-1,293,303,304,-1,305,306,307,-1,307,306,308,-1,307,308,309,-1,310,311,312,-1,312,311,313,-1,306,314,308,-1,308,314,315,-1,308,315,316,-1,316,315,317,-1,316,317,318,-1,318,317,319,-1,318,319,313,-1,313,319,320,-1,313,320,312,-1,321,322,323,-1,324,325,326,-1,321,323,327,-1,327,323,328,-1,327,328,326,-1,326,328,329,-1,326,329,324,-1,330,331,316,-1,316,331,332,-1,333,334,318,-1,332,335,316,-1,316,335,336,-1,316,336,321,-1,321,336,337,-1,321,337,322,-1,333,318,338,-1,324,339,325,-1,325,339,340,-1,325,340,318,-1,318,340,341,-1,318,341,338,-1,334,342,318,-1,318,342,343,-1,318,343,316,-1,316,343,344,-1,316,344,330,-1,326,345,346,-1,346,345,347,-1,346,348,326,-1,326,348,349,-1,326,349,327,-1,327,349,350,-1,327,350,351,-1,352,353,354,-1,354,353,355,-1,355,353,356,-1,356,353,349,-1,356,349,357,-1,357,349,348,-1,357,348,14,-1,14,348,358,-1,14,358,12,-1,347,345,359,-1,359,345,360,-1,359,360,361,-1,362,360,363,-1,363,360,364,-1,350,365,351,-1,351,365,361,-1,351,361,11,-1,11,361,360,-1,11,360,366,-1,366,360,362,-1,9,11,367,-1,368,369,366,-1,366,369,370,-1,366,370,11,-1,11,370,371,-1,11,371,367,-1,372,373,366,-1,366,373,374,-1,366,374,375,-1,375,376,366,-1,366,376,377,-1,366,377,368,-1,378,379,380,-1,380,379,381,-1,380,381,382,-1,378,383,379,-1,379,383,384,-1,379,384,385,-1,385,384,386,-1,385,386,387,-1,382,388,380,-1,380,388,389,-1,380,389,366,-1,366,389,390,-1,366,390,372,-1,7,391,392,-1,392,391,393,-1,393,391,394,-1,393,394,364,-1,8,395,396,-1,396,397,8,-1,8,397,398,-1,8,398,6,-1,399,400,401,-1,402,403,404,-1,404,403,405,-1,404,405,8,-1,8,405,406,-1,8,406,395,-1,407,408,409,-1,409,408,410,-1,409,410,411,-1,412,413,204,-1,204,413,414,-1,204,414,409,-1,409,414,415,-1,409,415,407,-1,10,412,256,-1,256,412,204,-1,256,204,254,-1,254,204,228,-1,254,228,236,-1,236,228,416,-1,236,416,237,-1,417,248,418,-1,418,248,192,-1,418,192,419,-1,419,192,190,-1,419,190,420,-1,420,421,419,-1,419,421,422,-1,419,422,200,-1,200,422,423,-1,200,423,212,-1,424,425,426,-1,171,173,427,-1,427,173,428,-1,427,428,188,-1,188,428,426,-1,188,426,187,-1,187,426,425,-1,187,425,429,-1,430,431,432,-1,426,433,424,-1,424,433,434,-1,424,434,435,-1,435,434,430,-1,435,430,436,-1,436,430,432,-1,437,438,17,-1,17,438,439,-1,249,17,263,-1,263,17,439,-1,263,439,433,-1,433,439,440,-1,433,440,434,-1,441,438,442,-1,442,438,437,-1,442,437,443,-1,444,445,446,-1,417,418,16,-1,16,418,444,-1,16,444,17,-1,17,444,446,-1,17,446,437,-1,437,446,447,-1,437,447,448,-1,449,450,451,-1,451,450,452,-1,451,452,444,-1,444,452,453,-1,444,453,445,-1,448,454,437,-1,437,454,455,-1,437,455,456,-1,456,457,437,-1,437,457,458,-1,437,458,443,-1,459,460,451,-1,451,460,461,-1,451,461,449,-1,429,462,459,-1,459,462,463,-1,459,463,460,-1,464,69,465,-1,465,69,62,-1,465,62,466,-1,466,62,52,-1,466,52,467,-1,467,52,57,-1,467,57,468,-1,468,57,39,-1,468,39,469,-1,469,39,36,-1,469,36,470,-1,470,36,31,-1,471,472,401,-1,401,472,473,-1,474,404,23,-1,400,402,401,-1,401,402,404,-1,401,404,471,-1,471,404,474,-1,471,474,475,-1,5,401,3,-1,3,401,473,-1,3,473,23,-1,23,473,476,-1,23,476,474,-1,477,478,479,-1,478,477,480,-1,480,477,5,-1,480,5,481,-1,482,483,484,-1,484,483,480,-1,484,480,485,-1,485,480,481,-1,485,481,486,-1,486,481,487,-1,2,477,0,-1,0,477,479,-1,0,479,4,-1,4,479,488,-1,4,488,5,-1,5,488,489,-1,5,489,481,-1,7,392,8,-1,8,392,490,-1,8,490,404,-1,404,490,33,-1,404,33,23,-1,23,33,35,-1,23,35,24,-1,2,419,477,-1,477,419,200,-1,477,200,5,-1,5,200,204,-1,5,204,401,-1,401,204,409,-1,401,409,399,-1,399,409,411,-1,10,256,11,-1,11,256,263,-1,11,263,351,-1,351,263,433,-1,351,433,327,-1,327,433,426,-1,327,426,321,-1,321,426,428,-1,321,428,316,-1,316,428,173,-1,316,173,308,-1,364,360,393,-1,393,360,345,-1,393,345,491,-1,491,345,326,-1,491,326,492,-1,492,326,325,-1,492,325,493,-1,493,325,318,-1,493,318,494,-1,494,318,313,-1,494,313,495,-1,495,313,311,-1,495,311,496,-1,175,497,498,-1,499,173,500,-1,500,173,175,-1,500,175,501,-1,501,175,498,-1,501,498,502,-1,503,504,505,-1,505,504,506,-1,505,506,175,-1,175,506,507,-1,175,507,497,-1,497,507,508,-1,497,508,509,-1,312,309,310,-1,310,309,308,-1,310,308,503,-1,503,308,173,-1,503,173,504,-1,504,173,510,-1,498,511,512,-1,513,514,510,-1,510,514,515,-1,510,515,516,-1,512,517,498,-1,498,517,518,-1,498,518,502,-1,499,519,173,-1,173,519,520,-1,173,520,510,-1,510,520,521,-1,510,521,513,-1,516,522,510,-1,510,522,523,-1,510,523,498,-1,498,523,524,-1,498,524,511,-1,429,459,187,-1,187,459,525,-1,187,525,177,-1,177,525,526,-1,177,526,175,-1,175,526,527,-1,175,527,505,-1,71,73,1,-1,1,73,528,-1,1,528,2,-1,2,528,529,-1,2,529,419,-1,419,529,530,-1,419,530,418,-1,418,530,531,-1,418,531,444,-1,444,531,532,-1,444,532,451,-1,451,532,533,-1,451,533,459,-1,459,533,534,-1,459,534,525,-1,525,534,535,-1,525,535,526,-1,526,535,536,-1,526,536,527,-1,537,538,536,-1,539,540,541,-1,542,543,541,-1,541,543,544,-1,545,546,547,-1,547,548,545,-1,545,548,549,-1,545,549,550,-1,551,552,553,-1,541,554,555,-1,538,556,536,-1,536,556,557,-1,536,557,558,-1,550,559,545,-1,545,559,560,-1,545,560,561,-1,562,563,564,-1,564,563,565,-1,564,565,566,-1,540,567,541,-1,541,567,568,-1,541,568,542,-1,569,570,464,-1,464,570,571,-1,464,571,572,-1,573,574,575,-1,558,576,536,-1,536,576,577,-1,536,577,545,-1,545,577,578,-1,545,578,546,-1,539,541,579,-1,579,541,545,-1,579,545,564,-1,564,545,561,-1,564,561,562,-1,541,555,464,-1,464,555,580,-1,464,580,569,-1,572,581,464,-1,464,581,582,-1,464,582,583,-1,537,536,584,-1,584,536,464,-1,584,464,574,-1,574,464,583,-1,574,583,575,-1,585,586,587,-1,587,586,588,-1,587,588,589,-1,587,590,541,-1,541,590,591,-1,541,591,554,-1,592,593,594,-1,594,593,595,-1,594,595,596,-1,597,565,598,-1,597,599,565,-1,565,599,600,-1,565,600,566,-1,573,575,594,-1,594,575,601,-1,594,601,592,-1,544,602,541,-1,541,602,603,-1,541,603,587,-1,587,603,604,-1,587,604,585,-1,605,606,553,-1,553,606,607,-1,553,607,551,-1,608,609,553,-1,553,609,610,-1,553,610,598,-1,598,610,611,-1,598,611,597,-1,596,595,612,-1,612,595,613,-1,612,613,605,-1,605,613,614,-1,605,614,606,-1,589,588,615,-1,615,588,616,-1,615,616,617,-1,617,616,618,-1,617,618,619,-1,619,618,620,-1,619,620,552,-1,552,620,621,-1,552,621,553,-1,553,621,622,-1,553,622,608,-1,623,496,545,-1,545,496,536,-1,624,623,541,-1,541,623,545,-1,470,624,464,-1,464,624,541,-1,624,625,626,-1,626,627,624,-1,624,627,628,-1,624,628,629,-1,623,630,496,-1,496,630,631,-1,496,631,632,-1,633,634,470,-1,470,634,635,-1,470,635,636,-1,636,637,470,-1,470,637,638,-1,470,638,624,-1,624,638,639,-1,624,639,625,-1,629,640,624,-1,624,640,641,-1,624,641,623,-1,623,641,642,-1,623,642,643,-1,632,644,496,-1,496,644,645,-1,496,645,470,-1,470,645,646,-1,470,646,633,-1,643,647,623,-1,623,647,648,-1,623,648,630,-1,
        ]
    }
}
Shape{
    appearance Appearance {
        material  Material 	{
            diffuseColor 0.7529411764705882 0.7529411764705882 0.7529411764705882
            specularColor 0.3764705882352941 0.3764705882352941 0.3764705882352941
            ambientIntensity 0.2
            transparency 0
            shininess 0.5
        }
    }
    geometry IndexedFaceSet {
        ccw TRUE
        solid FALSE
        coord DEF co Coordinate {
            point [
                -0.075 0.0763 0.1339, -0.075 0.0763 0.1378, -0.0757 0.0815 0.1339, -0.0757 0.0815 0.1378, -0.0777 0.0863 0.1339, -0.0777 0.0863 0.1378, -0.0808 0.0905 0.1339, -0.0808 0.0905 0.1378, -0.085 0.0936 0.1339, -0.085 0.0936 0.1378, -0.0898 0.0956 0.1339, -0.0898 0.0956 0.1378, -0.095 0.0963 0.1339, -0.095 0.0963 0.1378, -0.1002 0.0956 0.1339, -0.1002 0.0956 0.1378, -0.105 0.0936 0.1339, -0.105 0.0936 0.1378, -0.1091 0.0905 0.1339, -0.1091 0.0905 0.1378, -0.1123 0.0863 0.1339, -0.1123 0.0863 0.1378, -0.1143 0.0815 0.1339, -0.1143 0.0815 0.1378, -0.115 0.0763 0.1339, -0.115 0.0763 0.1378, -0.1143 0.0712 0.1339, -0.1143 0.0712 0.1378, -0.1123 0.0663 0.1339, -0.1123 0.0663 0.1378, -0.1091 0.0622 0.1339, -0.1091 0.0622 0.1378, -0.105 0.059 0.1339, -0.105 0.059 0.1378, -0.1002 0.057 0.1339, -0.1002 0.057 0.1378, -0.095 0.0563 0.1339, -0.095 0.0563 0.1378, -0.0898 0.057 0.1339, -0.0898 0.057 0.1378, -0.085 0.059 0.1339, -0.085 0.059 0.1378, -0.0808 0.0622 0.1339, -0.0808 0.0622 0.1378, -0.0777 0.0663 0.1339, -0.0777 0.0663 0.1378, -0.0757 0.0712 0.1339, -0.0757 0.0712 0.1378, -0.095 0.0763 0.1339, -0.0197 -0.0512 0.0, -0.0197 -0.0866 0.0, -0.0197 -0.0512 -0.0039, -0.0197 -0.0866 -0.0039, -0.1063 -0.0984 -0.0039, -0.0315 -0.0984 -0.0039, -0.1063 -0.0984 0.0, -0.0315 -0.0984 0.0, -0.1181 -0.0512 -0.0039, -0.1181 -0.0866 -0.0039, -0.1181 -0.0512 0.0, -0.1181 -0.0866 0.0, -0.0315 -0.0394 -0.0039, -0.1063 -0.0394 -0.0039, -0.0315 -0.0394 0.0, -0.1063 -0.0394 0.0, -0.0256 -0.0968 -0.0039, -0.0284 -0.098 -0.0039, -0.0284 -0.0398 -0.0039, -0.0231 -0.095 -0.0039, -0.0201 -0.0897 -0.0039, -0.0213 -0.0925 -0.0039, -0.1147 -0.095 -0.0039, -0.1165 -0.0925 -0.0039, -0.1177 -0.0897 -0.0039, -0.0256 -0.041 -0.0039, -0.0231 -0.0428 -0.0039, -0.1177 -0.0481 -0.0039, -0.0213 -0.0453 -0.0039, -0.0201 -0.0481 -0.0039, -0.1094 -0.098 -0.0039, -0.1122 -0.0968 -0.0039, -0.1122 -0.041 -0.0039, -0.1094 -0.0398 -0.0039, -0.1147 -0.0428 -0.0039, -0.1165 -0.0453 -0.0039, 0.1181 -0.0866 -0.0039, 0.1181 0.0866 -0.0039, 0.1181 -0.0866 0.0, 0.1181 0.0866 0.0, 0.1063 -0.0984 0.0, 0.0709 -0.0984 0.0, 0.1063 -0.0984 -0.0039, 0.0709 -0.0984 -0.0039, 0.0591 -0.0866 0.0, 0.0591 0.0866 0.0, 0.0591 -0.0866 -0.0039, 0.0591 0.0866 -0.0039, 0.1063 0.0984 -0.0039, 0.0709 0.0984 -0.0039, 0.1063 0.0984 0.0, 0.0709 0.0984 0.0, 0.1094 -0.098 -0.0039, 0.1177 -0.0897 -0.0039, 0.1165 -0.0925 -0.0039, 0.0595 -0.0897 -0.0039, 0.1094 0.098 -0.0039, 0.1122 0.0968 -0.0039, 0.1147 -0.095 -0.0039, 0.1122 -0.0968 -0.0039, 0.1147 0.095 -0.0039, 0.1165 0.0925 -0.0039, 0.1177 0.0897 -0.0039, 0.0678 -0.098 -0.0039, 0.065 -0.0968 -0.0039, 0.0606 -0.0925 -0.0039, 0.0625 -0.095 -0.0039, 0.0606 0.0925 -0.0039, 0.0625 0.095 -0.0039, 0.0595 0.0897 -0.0039, 0.065 0.0968 -0.0039, 0.0678 0.098 -0.0039, -0.1181 0.0512 0.0, -0.1181 0.0866 0.0, -0.1181 0.0512 -0.0039, -0.1181 0.0866 -0.0039, -0.1063 0.0984 0.0, -0.0315 0.0984 0.0, -0.1063 0.0984 -0.0039, -0.0315 0.0984 -0.0039, -0.0197 0.0512 -0.0039, -0.0197 0.0866 -0.0039, -0.0197 0.0512 0.0, -0.0197 0.0866 0.0, -0.1063 0.0394 -0.0039, -0.0315 0.0394 -0.0039, -0.1063 0.0394 0.0, -0.0315 0.0394 0.0, -0.0201 0.0481 -0.0039, -0.0213 0.0453 -0.0039, -0.0231 0.0428 -0.0039, -0.0256 0.041 -0.0039, -0.0284 0.0398 -0.0039, -0.1094 0.098 -0.0039, -0.1122 0.0968 -0.0039, -0.1122 0.041 -0.0039, -0.1147 0.0428 -0.0039, -0.1094 0.0398 -0.0039, -0.1165 0.0453 -0.0039, -0.1177 0.0481 -0.0039, -0.1177 0.0897 -0.0039, -0.1165 0.0925 -0.0039, -0.1147 0.095 -0.0039, -0.0256 0.0968 -0.0039, -0.0231 0.095 -0.0039, -0.0213 0.0925 -0.0039, -0.0284 0.098 -0.0039, -0.0201 0.0897 -0.0039, 0.1177 -0.0897 0.0, 0.1165 -0.0925 0.0, 0.1147 -0.095 0.0, 0.1122 -0.0968 0.0, 0.1094 -0.098 0.0, 0.0678 -0.098 0.0, 0.065 -0.0968 0.0, 0.0625 -0.095 0.0, 0.0606 -0.0925 0.0, 0.0595 -0.0897 0.0, 0.1094 0.098 0.0, 0.1122 0.0968 0.0, 0.1147 0.095 0.0, 0.1165 0.0925 0.0, 0.1177 0.0897 0.0, 0.0595 0.0897 0.0, 0.0606 0.0925 0.0, 0.0625 0.095 0.0, 0.065 0.0968 0.0, 0.0678 0.098 0.0, -0.1094 0.0398 0.0, -0.1122 0.041 0.0, -0.1147 0.0428 0.0, -0.1165 0.0453 0.0, -0.1177 0.0481 0.0, -0.1177 0.0897 0.0, -0.1165 0.0925 0.0, -0.1147 0.095 0.0, -0.1122 0.0968 0.0, -0.1094 0.098 0.0, -0.0201 0.0481 0.0, -0.0213 0.0453 0.0, -0.0231 0.0428 0.0, -0.0256 0.041 0.0, -0.0284 0.0398 0.0, -0.0284 0.098 0.0, -0.0256 0.0968 0.0, -0.0231 0.095 0.0, -0.0213 0.0925 0.0, -0.0201 0.0897 0.0, -0.0284 -0.0398 0.0, -0.0256 -0.041 0.0, -0.0231 -0.0428 0.0, -0.0213 -0.0453 0.0, -0.0201 -0.0481 0.0, -0.1177 -0.0481 0.0, -0.1165 -0.0453 0.0, -0.1147 -0.0428 0.0, -0.1122 -0.041 0.0, -0.1094 -0.0398 0.0, -0.1094 -0.098 0.0, -0.1122 -0.0968 0.0, -0.1147 -0.095 0.0, -0.1165 -0.0925 0.0, -0.1177 -0.0897 0.0, -0.0201 -0.0897 0.0, -0.0213 -0.0925 0.0, -0.0231 -0.095 0.0, -0.0256 -0.0968 0.0, -0.0284 -0.098 0.0, -0.0284 -0.098 0.0
            ]
        }
        coordIndex [
            0,1,2,-1,2,1,3,-1,2,3,4,-1,4,3,5,-1,4,5,6,-1,6,5,7,-1,6,7,8,-1,8,7,9,-1,8,9,10,-1,10,9,11,-1,10,11,12,-1,12,11,13,-1,12,13,14,-1,14,13,15,-1,14,15,16,-1,16,15,17,-1,16,17,18,-1,18,17,19,-1,18,19,20,-1,20,19,21,-1,20,21,22,-1,22,21,23,-1,22,23,24,-1,24,23,25,-1,24,25,26,-1,26,25,27,-1,26,27,28,-1,28,27,29,-1,28,29,30,-1,30,29,31,-1,30,31,32,-1,32,31,33,-1,32,33,34,-1,34,33,35,-1,34,35,36,-1,36,35,37,-1,36,37,38,-1,38,37,39,-1,38,39,40,-1,40,39,41,-1,40,41,42,-1,42,41,43,-1,42,43,44,-1,44,43,45,-1,44,45,46,-1,46,45,47,-1,46,47,0,-1,0,47,1,-1,44,46,48,-1,48,46,0,-1,48,0,2,-1,38,40,48,-1,48,40,42,-1,48,42,44,-1,32,34,48,-1,48,34,36,-1,48,36,38,-1,26,28,48,-1,48,28,30,-1,48,30,32,-1,20,22,48,-1,48,22,24,-1,48,24,26,-1,14,16,48,-1,48,16,18,-1,48,18,20,-1,8,10,48,-1,48,10,12,-1,48,12,14,-1,2,4,48,-1,48,4,6,-1,48,6,8,-1,49,50,51,-1,51,50,52,-1,53,54,55,-1,55,54,56,-1,57,58,59,-1,59,58,60,-1,61,62,63,-1,63,62,64,-1,62,61,54,-1,65,66,52,-1,52,66,54,-1,52,54,51,-1,51,54,61,-1,51,61,67,-1,65,52,68,-1,68,52,69,-1,68,69,70,-1,71,72,73,-1,67,74,75,-1,54,58,62,-1,62,58,57,-1,62,57,76,-1,75,77,67,-1,67,77,78,-1,67,78,51,-1,54,53,58,-1,58,53,79,-1,58,79,73,-1,73,79,80,-1,73,80,71,-1,81,82,83,-1,83,82,62,-1,83,62,84,-1,84,62,76,-1,85,86,87,-1,87,86,88,-1,89,90,91,-1,91,90,92,-1,93,94,95,-1,95,94,96,-1,97,98,99,-1,99,98,100,-1,101,91,85,-1,98,95,96,-1,85,102,103,-1,85,91,95,-1,95,91,92,-1,95,92,104,-1,95,98,85,-1,85,98,97,-1,85,97,86,-1,86,97,105,-1,86,105,106,-1,103,107,85,-1,85,107,108,-1,85,108,101,-1,106,109,86,-1,86,109,110,-1,86,110,111,-1,92,112,104,-1,104,112,113,-1,104,113,114,-1,114,113,115,-1,116,117,118,-1,118,117,119,-1,118,119,96,-1,96,119,120,-1,96,120,98,-1,121,122,123,-1,123,122,124,-1,125,126,127,-1,127,126,128,-1,129,130,131,-1,131,130,132,-1,133,134,135,-1,135,134,136,-1,130,129,128,-1,137,138,139,-1,134,133,123,-1,128,129,127,-1,137,139,129,-1,129,139,140,-1,129,140,141,-1,141,134,129,-1,129,134,123,-1,129,123,127,-1,127,123,124,-1,127,124,142,-1,142,124,143,-1,144,145,146,-1,146,145,147,-1,146,147,133,-1,133,147,148,-1,133,148,123,-1,149,150,124,-1,124,150,151,-1,124,151,143,-1,152,153,154,-1,128,155,130,-1,130,155,152,-1,130,152,156,-1,156,152,154,-1,85,87,157,-1,85,157,102,-1,102,157,158,-1,102,158,103,-1,103,158,159,-1,103,159,107,-1,107,159,160,-1,107,160,108,-1,108,160,161,-1,108,161,101,-1,101,161,89,-1,101,89,91,-1,92,90,162,-1,92,162,112,-1,112,162,163,-1,112,163,113,-1,113,163,164,-1,113,164,115,-1,115,164,165,-1,115,165,114,-1,114,165,166,-1,114,166,104,-1,104,166,93,-1,104,93,95,-1,97,99,167,-1,97,167,105,-1,105,167,168,-1,105,168,106,-1,106,168,169,-1,106,169,109,-1,109,169,170,-1,109,170,110,-1,110,170,171,-1,110,171,111,-1,111,171,88,-1,111,88,86,-1,96,94,172,-1,96,172,118,-1,118,172,173,-1,118,173,116,-1,116,173,174,-1,116,174,117,-1,117,174,175,-1,117,175,119,-1,119,175,176,-1,119,176,120,-1,120,176,100,-1,120,100,98,-1,133,135,177,-1,133,177,146,-1,146,177,178,-1,146,178,144,-1,144,178,179,-1,144,179,145,-1,145,179,180,-1,145,180,147,-1,147,180,181,-1,147,181,148,-1,148,181,121,-1,148,121,123,-1,124,122,182,-1,124,182,149,-1,149,182,183,-1,149,183,150,-1,150,183,184,-1,150,184,151,-1,151,184,185,-1,151,185,143,-1,143,185,186,-1,143,186,142,-1,142,186,125,-1,142,125,127,-1,129,131,187,-1,129,187,137,-1,137,187,188,-1,137,188,138,-1,138,188,189,-1,138,189,139,-1,139,189,190,-1,139,190,140,-1,140,190,191,-1,140,191,141,-1,141,191,136,-1,141,136,134,-1,128,126,192,-1,128,192,155,-1,155,192,193,-1,155,193,152,-1,152,193,194,-1,152,194,153,-1,153,194,195,-1,153,195,154,-1,154,195,196,-1,154,196,156,-1,156,196,132,-1,156,132,130,-1,61,63,197,-1,61,197,67,-1,67,197,198,-1,67,198,74,-1,74,198,199,-1,74,199,75,-1,75,199,200,-1,75,200,77,-1,77,200,201,-1,77,201,78,-1,78,201,49,-1,78,49,51,-1,57,59,202,-1,57,202,76,-1,76,202,203,-1,76,203,84,-1,84,203,204,-1,84,204,83,-1,83,204,205,-1,83,205,81,-1,81,205,206,-1,81,206,82,-1,82,206,64,-1,82,64,62,-1,53,55,207,-1,53,207,79,-1,79,207,208,-1,79,208,80,-1,80,208,209,-1,80,209,71,-1,71,209,210,-1,71,210,72,-1,72,210,211,-1,72,211,73,-1,73,211,60,-1,73,60,58,-1,52,50,212,-1,52,212,69,-1,69,212,213,-1,69,213,70,-1,70,213,214,-1,70,214,68,-1,68,214,215,-1,68,215,65,-1,65,215,216,-1,65,216,66,-1,66,216,56,-1,66,56,54,-1,
        ]
    }
}
Shape{
    appearance Appearance {
        material  Material 	{
            diffuseColor 1.0 1.0 1.0
            specularColor 0.5019607843137255 0.5019607843137255 0.5019607843137255
            ambientIntensity 0.2
            transparency 0
            shininess 0.5
        }
    }
    geometry IndexedFaceSet {
        ccw TRUE
        solid FALSE
        coord DEF co Coordinate {
            point [
                -0.0421 -0.1185 0.1076, -0.0421 -0.1185 0.1061, -0.0421 -0.1181 0.1076, -0.0421 -0.1181 0.1061, -0.0474 -0.1185 0.1076, -0.0474 -0.1181 0.1076, -0.0474 -0.1185 0.1195, -0.0474 -0.1181 0.1195, -0.0491 -0.1185 0.1195, -0.0491 -0.1181 0.1195, -0.0491 -0.1185 0.1061, -0.0491 -0.1181 0.1061, -0.0353 -0.1185 0.1059, -0.0353 -0.1181 0.1059, -0.0332 -0.1185 0.1061, -0.0341 -0.1181 0.106, -0.0332 -0.1181 0.1061, -0.0318 -0.1181 0.1066, -0.0318 -0.1185 0.1066, -0.0316 -0.1181 0.1067, -0.0316 -0.1185 0.1067, -0.0316 -0.1185 0.1083, -0.0316 -0.1181 0.1083, -0.0329 -0.1181 0.1077, -0.0329 -0.1185 0.1077, -0.0344 -0.1181 0.1075, -0.0344 -0.1185 0.1075, -0.035 -0.1181 0.1074, -0.035 -0.1185 0.1074, -0.0364 -0.1181 0.1076, -0.0364 -0.1185 0.1076, -0.0373 -0.1181 0.108, -0.0373 -0.1185 0.108, -0.0382 -0.1181 0.1086, -0.0382 -0.1185 0.1086, -0.0384 -0.1181 0.1088, -0.0384 -0.1185 0.1088, -0.0391 -0.1181 0.1097, -0.0391 -0.1185 0.1097, -0.0395 -0.1181 0.1108, -0.0395 -0.1185 0.1108, -0.0397 -0.1181 0.1122, -0.0397 -0.1185 0.1122, -0.0397 -0.1181 0.1126, -0.0397 -0.1185 0.1126, -0.0396 -0.1181 0.1143, -0.0396 -0.1185 0.1143, -0.0391 -0.1181 0.1155, -0.0391 -0.1185 0.1155, -0.0385 -0.1181 0.1165, -0.0385 -0.1185 0.1165, -0.0383 -0.1181 0.1167, -0.0383 -0.1185 0.1167, -0.0374 -0.1181 0.1174, -0.0374 -0.1185 0.1174, -0.0364 -0.1181 0.1179, -0.0364 -0.1185 0.1179, -0.0352 -0.1181 0.1181, -0.0352 -0.1185 0.1181, -0.0347 -0.1181 0.1181, -0.0347 -0.1185 0.1181, -0.0331 -0.1181 0.1179, -0.0331 -0.1185 0.1179, -0.0317 -0.1181 0.1174, -0.0317 -0.1185 0.1174, -0.0316 -0.1181 0.1173, -0.0316 -0.1185 0.1173, -0.0316 -0.1185 0.1191, -0.0316 -0.1181 0.1191, -0.0347 -0.1181 0.1197, -0.0347 -0.1185 0.1197, -0.0347 -0.1185 0.1197, -0.0329 -0.1181 0.1195, -0.0329 -0.1185 0.1195, -0.0333 -0.1181 0.1196, -0.0347 -0.1181 0.1197, -0.0356 -0.1181 0.1196, -0.0367 -0.1185 0.1195, -0.0367 -0.1181 0.1195, -0.0381 -0.1181 0.1189, -0.0381 -0.1185 0.1189, -0.0393 -0.1181 0.118, -0.0393 -0.1185 0.118, -0.0396 -0.1181 0.1177, -0.0396 -0.1185 0.1177, -0.0406 -0.1181 0.1165, -0.041 -0.1181 0.1156, -0.0412 -0.1185 0.115, -0.0406 -0.1185 0.1165, -0.0412 -0.1181 0.115, -0.0415 -0.1181 0.1132, -0.0415 -0.1185 0.1132, -0.0416 -0.1181 0.1125, -0.0416 -0.1185 0.1125, -0.0413 -0.1181 0.1105, -0.041 -0.1181 0.1095, -0.0408 -0.1185 0.1091, -0.0413 -0.1185 0.1105, -0.0408 -0.1181 0.1091, -0.04 -0.1181 0.1079, -0.04 -0.1185 0.1079, -0.0398 -0.1181 0.1077, -0.0398 -0.1185 0.1077, -0.0375 -0.1181 0.1062, -0.0388 -0.1185 0.1068, -0.0388 -0.1181 0.1068, -0.0364 -0.1181 0.106, -0.0361 -0.1185 0.1059, -0.0375 -0.1185 0.1062, -0.0361 -0.1181 0.1059, -0.0217 -0.1185 0.1076, -0.0217 -0.1185 0.1061, -0.0217 -0.1181 0.1076, -0.0217 -0.1181 0.1061, -0.0272 -0.1181 0.1076, -0.0272 -0.1185 0.1076, -0.0236 -0.1181 0.1076, -0.0272 -0.1185 0.1121, -0.0272 -0.1181 0.1121, -0.0224 -0.1185 0.1121, -0.0236 -0.1181 0.1121, -0.0224 -0.1181 0.1121, -0.0224 -0.1185 0.1137, -0.0224 -0.1181 0.1137, -0.0272 -0.1181 0.1137, -0.0272 -0.1185 0.1137, -0.0236 -0.1181 0.1137, -0.0272 -0.1185 0.1179, -0.0272 -0.1181 0.1179, -0.022 -0.1181 0.1179, -0.022 -0.1185 0.1179, -0.0236 -0.1181 0.1179, -0.022 -0.1185 0.1195, -0.022 -0.1181 0.1195, -0.0289 -0.1181 0.1195, -0.0289 -0.1185 0.1195, -0.0236 -0.1181 0.1195, -0.0289 -0.1185 0.1061, -0.0289 -0.1181 0.1061, -0.0236 -0.1181 0.1061, -0.0102 -0.1185 0.1121, -0.0084 -0.1185 0.1121, -0.0101 -0.1185 0.1129, -0.0083 -0.1185 0.113, -0.0103 -0.1185 0.1145, -0.0086 -0.1185 0.1148, -0.0107 -0.1185 0.1155, -0.0091 -0.1185 0.1161, -0.0112 -0.1185 0.1162, -0.0099 -0.1185 0.1173, -0.0116 -0.1185 0.1167, -0.0103 -0.1185 0.1177, -0.0126 -0.1185 0.1173, -0.0117 -0.1185 0.1187, -0.0137 -0.1185 0.1177, -0.0134 -0.1185 0.1192, -0.0155 -0.1185 0.1179, -0.0154 -0.1185 0.1195, -0.0175 -0.1185 0.1179, -0.0192 -0.1185 0.1195, -0.0175 -0.1185 0.1076, -0.0192 -0.1185 0.1061, -0.0155 -0.1185 0.1076, -0.0155 -0.1185 0.1061, -0.0138 -0.1185 0.1078, -0.0134 -0.1185 0.1064, -0.0127 -0.1185 0.1082, -0.0119 -0.1185 0.1069, -0.0118 -0.1185 0.1088, -0.0106 -0.1185 0.1078, -0.0116 -0.1185 0.109, -0.0103 -0.1185 0.108, -0.0109 -0.1185 0.1099, -0.0093 -0.1185 0.1092, -0.0104 -0.1185 0.1109, -0.0087 -0.1185 0.1106, -0.0155 -0.1181 0.1061, -0.0192 -0.1181 0.1061, -0.0134 -0.1181 0.1064, -0.0131 -0.1181 0.1065, -0.0119 -0.1181 0.1069, -0.0106 -0.1181 0.1078, -0.0103 -0.1181 0.108, -0.0093 -0.1181 0.1092, -0.0087 -0.1181 0.1106, -0.0084 -0.1181 0.1121, -0.0083 -0.1181 0.113, -0.0086 -0.1181 0.1148, -0.0091 -0.1181 0.1161, -0.0099 -0.1181 0.1173, -0.0103 -0.1181 0.1177, -0.0117 -0.1181 0.1187, -0.0131 -0.1181 0.1191, -0.0134 -0.1181 0.1192, -0.0154 -0.1181 0.1195, -0.0192 -0.1181 0.1195, -0.0155 -0.1181 0.1179, -0.0175 -0.1181 0.1179, -0.0175 -0.1181 0.1076, -0.0155 -0.1181 0.1076, -0.0116 -0.1181 0.109, -0.0118 -0.1181 0.1088, -0.0127 -0.1181 0.1082, -0.0138 -0.1181 0.1078, -0.0101 -0.1181 0.1129, -0.0102 -0.1181 0.1121, -0.0104 -0.1181 0.1109, -0.0109 -0.1181 0.1099, -0.0116 -0.1181 0.1167, -0.0112 -0.1181 0.1162, -0.0107 -0.1181 0.1155, -0.0103 -0.1181 0.1145, -0.0137 -0.1181 0.1177, -0.0126 -0.1181 0.1173, -0.0126 -0.1181 0.1173
            ]
        }
        coordIndex [
            0,1,2,-1,2,1,3,-1,4,0,5,-1,5,0,2,-1,6,4,7,-1,7,4,5,-1,8,6,9,-1,9,6,7,-1,10,8,11,-1,11,8,9,-1,1,10,3,-1,3,10,11,-1,6,8,4,-1,4,8,10,-1,4,10,0,-1,0,10,1,-1,12,13,14,-1,14,13,15,-1,15,16,14,-1,14,16,17,-1,14,17,18,-1,18,17,19,-1,18,19,20,-1,21,20,22,-1,22,20,19,-1,21,22,23,-1,21,23,24,-1,24,23,25,-1,24,25,26,-1,26,25,27,-1,26,27,28,-1,28,27,29,-1,28,29,30,-1,30,29,31,-1,30,31,32,-1,32,31,33,-1,32,33,34,-1,34,33,35,-1,34,35,36,-1,36,35,37,-1,36,37,38,-1,38,37,39,-1,38,39,40,-1,40,39,41,-1,40,41,42,-1,42,41,43,-1,42,43,44,-1,44,43,45,-1,44,45,46,-1,46,45,47,-1,46,47,48,-1,48,47,49,-1,48,49,50,-1,50,49,51,-1,50,51,52,-1,52,51,53,-1,52,53,54,-1,54,53,55,-1,54,55,56,-1,56,55,57,-1,56,57,58,-1,58,57,59,-1,58,59,60,-1,60,59,61,-1,60,61,62,-1,62,61,63,-1,62,63,64,-1,64,63,65,-1,64,65,66,-1,67,66,68,-1,68,66,65,-1,69,70,71,-1,67,68,72,-1,67,72,73,-1,73,72,74,-1,73,74,71,-1,71,74,75,-1,71,75,69,-1,70,69,76,-1,70,76,77,-1,76,78,77,-1,77,78,79,-1,77,79,80,-1,80,79,81,-1,80,81,82,-1,82,81,83,-1,82,83,84,-1,84,83,85,-1,86,87,85,-1,85,87,88,-1,85,88,84,-1,86,89,87,-1,87,89,90,-1,87,90,91,-1,91,90,92,-1,91,92,93,-1,93,92,94,-1,95,96,94,-1,94,96,97,-1,94,97,93,-1,95,98,96,-1,96,98,99,-1,96,99,100,-1,100,99,101,-1,100,101,102,-1,103,104,105,-1,105,104,102,-1,105,102,101,-1,106,107,103,-1,103,107,108,-1,103,108,104,-1,106,109,107,-1,107,109,13,-1,107,13,12,-1,64,66,67,-1,46,48,88,-1,64,67,62,-1,62,67,73,-1,62,73,60,-1,60,73,71,-1,60,71,58,-1,58,71,70,-1,58,70,56,-1,56,70,77,-1,56,77,54,-1,20,21,18,-1,18,21,24,-1,18,24,14,-1,14,24,26,-1,14,26,12,-1,12,26,28,-1,12,28,107,-1,107,28,30,-1,107,30,108,-1,108,30,32,-1,108,32,104,-1,104,32,34,-1,104,34,102,-1,102,34,36,-1,102,36,100,-1,100,36,38,-1,100,38,96,-1,88,48,84,-1,77,80,54,-1,54,80,82,-1,54,82,52,-1,52,82,84,-1,52,84,50,-1,50,84,48,-1,93,44,91,-1,91,44,46,-1,91,46,87,-1,87,46,88,-1,96,38,97,-1,97,38,40,-1,97,40,93,-1,93,40,42,-1,93,42,44,-1,110,111,112,-1,112,111,113,-1,114,115,116,-1,116,115,110,-1,116,110,112,-1,117,115,118,-1,118,115,114,-1,117,118,119,-1,119,118,120,-1,119,120,121,-1,122,119,123,-1,123,119,121,-1,124,125,126,-1,126,125,122,-1,126,122,123,-1,127,125,128,-1,128,125,124,-1,129,130,131,-1,131,130,127,-1,131,127,128,-1,132,130,133,-1,133,130,129,-1,134,135,136,-1,136,135,132,-1,136,132,133,-1,137,135,138,-1,138,135,134,-1,113,111,139,-1,139,111,137,-1,139,137,138,-1,137,111,110,-1,110,115,137,-1,137,115,117,-1,137,117,135,-1,130,132,127,-1,127,132,135,-1,127,135,125,-1,125,135,117,-1,125,117,122,-1,122,117,119,-1,140,141,142,-1,142,141,143,-1,142,143,144,-1,144,143,145,-1,144,145,146,-1,146,145,147,-1,146,147,148,-1,148,147,149,-1,148,149,150,-1,150,149,151,-1,150,151,152,-1,152,151,153,-1,152,153,154,-1,154,153,155,-1,154,155,156,-1,156,155,157,-1,156,157,158,-1,158,157,159,-1,158,159,160,-1,160,159,161,-1,160,161,162,-1,162,161,163,-1,162,163,164,-1,164,163,165,-1,164,165,166,-1,166,165,167,-1,166,167,168,-1,168,167,169,-1,168,169,170,-1,170,169,171,-1,170,171,172,-1,172,171,173,-1,172,173,174,-1,174,173,175,-1,174,175,140,-1,140,175,141,-1,163,161,176,-1,176,161,177,-1,163,176,178,-1,163,178,165,-1,165,178,179,-1,165,179,167,-1,179,180,167,-1,167,180,181,-1,167,181,169,-1,169,181,182,-1,169,182,171,-1,171,182,183,-1,171,183,173,-1,173,183,184,-1,173,184,175,-1,175,184,185,-1,175,185,141,-1,141,185,186,-1,141,186,143,-1,143,186,187,-1,143,187,145,-1,145,187,188,-1,145,188,147,-1,147,188,189,-1,147,189,149,-1,149,189,190,-1,149,190,151,-1,151,190,191,-1,192,155,191,-1,191,155,153,-1,191,153,151,-1,192,193,155,-1,155,193,194,-1,155,194,157,-1,159,157,195,-1,195,157,194,-1,161,159,177,-1,177,159,195,-1,156,158,196,-1,196,158,197,-1,158,160,197,-1,197,160,198,-1,160,162,198,-1,198,162,199,-1,170,200,201,-1,170,201,168,-1,168,201,202,-1,168,202,166,-1,166,202,203,-1,166,203,164,-1,164,203,199,-1,164,199,162,-1,142,204,205,-1,142,205,140,-1,140,205,206,-1,140,206,174,-1,174,206,207,-1,174,207,172,-1,172,207,200,-1,172,200,170,-1,150,208,209,-1,150,209,148,-1,148,209,210,-1,148,210,146,-1,146,210,211,-1,146,211,144,-1,144,211,204,-1,144,204,142,-1,156,196,212,-1,156,212,154,-1,154,212,213,-1,154,213,152,-1,152,213,208,-1,152,208,150,-1,
        ]
    }
}
Shape{
    appearance Appearance {
        material  Material 	{
            diffuseColor 0.25098039215686274 0.25098039215686274 0.25098039215686274
            specularColor 0.12549019607843137 0.12549019607843137 0.12549019607843137
            ambientIntensity 0.2
            transparency 0
            shininess 0.5
        }
    }
    geometry IndexedFaceSet {
        ccw TRUE
        solid FALSE
        coord DEF co Coordinate {
            point [
                -0.0175 -0.1181 0.1179, -0.0175 -0.1181 0.1076, -0.0155 -0.1181 0.1179, -0.0155 -0.1181 0.1076, -0.0138 -0.1181 0.1078, -0.0127 -0.1181 0.1082, -0.0118 -0.1181 0.1088, -0.0116 -0.1181 0.109, -0.0109 -0.1181 0.1099, -0.0104 -0.1181 0.1109, -0.0102 -0.1181 0.1121, -0.0101 -0.1181 0.1129, -0.0103 -0.1181 0.1145, -0.0107 -0.1181 0.1155, -0.0112 -0.1181 0.1162, -0.0116 -0.1181 0.1167, -0.0137 -0.1181 0.1177, -0.0126 -0.1181 0.1173, -0.0126 -0.1181 0.1173
            ]
        }
        coordIndex [
            0,1,2,-1,2,1,3,-1,2,3,4,-1,4,5,2,-1,2,5,6,-1,2,6,7,-1,7,8,2,-1,2,8,9,-1,2,9,10,-1,10,11,2,-1,2,11,12,-1,2,12,13,-1,13,14,2,-1,2,14,15,-1,2,15,16,-1,16,15,17,-1,
        ]
    }
}
Shape{
    appearance Appearance {
        material  Material 	{
            diffuseColor 1.0 1.0 1.0
            specularColor 0.5019607843137255 0.5019607843137255 0.5019607843137255
            ambientIntensity 0.2
            transparency 0
            shininess 0.5
        }
    }
    geometry IndexedFaceSet {
        ccw TRUE
        solid FALSE
        coord DEF co Coordinate {
            point [
                -0.0039 -0.1185 0.1113, -0.0044 -0.1185 0.1098, 0.0006 -0.1185 0.1113, 0.0012 -0.1185 0.1098, -0.0019 -0.1185 0.1168, -0.0025 -0.1185 0.1195, -0.0076 -0.1185 0.1061, -0.0057 -0.1185 0.1061, -0.0017 -0.1185 0.1172, -0.0016 -0.1185 0.1178, -0.0007 -0.1185 0.1195, -0.0016 -0.1185 0.1178, -0.0015 -0.1185 0.1172, -0.0014 -0.1185 0.1168, 0.0044 -0.1185 0.1061, 0.0025 -0.1185 0.1061, -0.0007 -0.1181 0.1195, 0.0044 -0.1181 0.1061, -0.0025 -0.1181 0.1195, -0.0076 -0.1181 0.1061, -0.0037 -0.1181 0.1162, -0.0057 -0.1181 0.1061, -0.0044 -0.1181 0.1098, 0.0012 -0.1181 0.1098, -0.0037 -0.1181 0.1098, 0.0025 -0.1181 0.1061, -0.0039 -0.1181 0.1113, 0.0006 -0.1181 0.1113, -0.0014 -0.1181 0.1168, -0.0016 -0.1181 0.1178, -0.0015 -0.1181 0.1172, -0.0016 -0.1181 0.1178, -0.0019 -0.1181 0.1168, -0.0017 -0.1181 0.1172, -0.0017 -0.1181 0.1172
            ]
        }
        coordIndex [
            0,1,2,-1,2,1,3,-1,4,5,0,-1,0,5,6,-1,0,6,1,-1,1,6,7,-1,4,8,5,-1,5,8,9,-1,5,9,10,-1,10,9,11,-1,10,11,12,-1,12,13,10,-1,10,13,2,-1,10,2,14,-1,14,2,3,-1,14,3,15,-1,10,14,16,-1,16,14,17,-1,5,10,18,-1,18,10,16,-1,19,6,20,-1,20,6,5,-1,20,5,18,-1,7,6,21,-1,21,6,19,-1,1,7,22,-1,22,7,21,-1,23,3,24,-1,24,3,1,-1,24,1,22,-1,15,3,25,-1,25,3,23,-1,14,15,17,-1,17,15,25,-1,0,2,26,-1,26,2,27,-1,2,13,27,-1,27,13,28,-1,11,29,30,-1,11,30,12,-1,12,30,28,-1,12,28,13,-1,11,9,29,-1,29,9,31,-1,4,32,33,-1,4,33,8,-1,8,33,31,-1,8,31,9,-1,4,0,32,-1,32,0,26,-1,
        ]
    }
}
Shape{
    appearance Appearance {
        material  Material 	{
            diffuseColor 0.25098039215686274 0.25098039215686274 0.25098039215686274
            specularColor 0.12549019607843137 0.12549019607843137 0.12549019607843137
            ambientIntensity 0.2
            transparency 0
            shininess 0.5
        }
    }
    geometry IndexedFaceSet {
        ccw TRUE
        solid FALSE
        coord DEF co Coordinate {
            point [
                -0.0016 -0.1181 0.1178, -0.0016 -0.1181 0.1178, -0.0015 -0.1181 0.1172, -0.0017 -0.1181 0.1172, -0.0014 -0.1181 0.1168, -0.0019 -0.1181 0.1168, 0.0006 -0.1181 0.1113, -0.0039 -0.1181 0.1113, -0.0039 -0.1181 0.1113
            ]
        }
        coordIndex [
            0,1,2,-1,2,1,3,-1,2,3,4,-1,4,3,5,-1,4,5,6,-1,6,5,7,-1,
        ]
    }
}
Shape{
    appearance Appearance {
        material  Material 	{
            diffuseColor 1.0 1.0 1.0
            specularColor 0.5019607843137255 0.5019607843137255 0.5019607843137255
            ambientIntensity 0.2
            transparency 0
            shininess 0.5
        }
    }
    geometry IndexedFaceSet {
        ccw TRUE
        solid FALSE
        coord DEF co Coordinate {
            point [
                -0.042 -0.1185 0.0865, -0.042 -0.1185 0.085, -0.042 -0.1181 0.0865, -0.042 -0.1181 0.085, -0.0474 -0.1185 0.0865, -0.0474 -0.1181 0.0865, -0.0474 -0.1185 0.091, -0.0474 -0.1181 0.091, -0.0426 -0.1185 0.091, -0.0426 -0.1181 0.091, -0.0426 -0.1185 0.0925, -0.0426 -0.1181 0.0925, -0.0474 -0.1185 0.0925, -0.0474 -0.1181 0.0925, -0.0474 -0.1185 0.0968, -0.0474 -0.1181 0.0968, -0.0423 -0.1185 0.0968, -0.0423 -0.1181 0.0968, -0.0423 -0.1185 0.0983, -0.0423 -0.1181 0.0983, -0.0491 -0.1185 0.0983, -0.0491 -0.1181 0.0983, -0.0491 -0.1185 0.085, -0.0491 -0.1181 0.085, -0.0344 -0.1185 0.0864, -0.0344 -0.1185 0.0864, -0.0345 -0.1185 0.0879, -0.0385 -0.1185 0.0903, -0.0392 -0.1185 0.0899, -0.0382 -0.1185 0.0889, -0.0344 -0.1185 0.0886, -0.0327 -0.1185 0.0911, -0.0344 -0.1185 0.0888, -0.0344 -0.1185 0.0897, -0.0344 -0.1185 0.085, -0.0327 -0.1185 0.085, -0.0348 -0.1185 0.0873, -0.0351 -0.1185 0.0869, -0.0348 -0.1185 0.0859, -0.0353 -0.1185 0.0866, -0.0354 -0.1185 0.0853, -0.0358 -0.1185 0.0863, -0.0357 -0.1185 0.0851, -0.0363 -0.1185 0.0862, -0.0383 -0.1185 0.0867, -0.0395 -0.1185 0.0855, -0.0382 -0.1185 0.0865, -0.039 -0.1185 0.0851, -0.0378 -0.1185 0.0863, -0.0384 -0.1185 0.0849, -0.0375 -0.1185 0.0862, -0.0376 -0.1185 0.0847, -0.0369 -0.1185 0.0861, -0.0373 -0.1185 0.0847, -0.0364 -0.1185 0.0848, -0.0384 -0.1185 0.0886, -0.0397 -0.1185 0.0895, -0.0386 -0.1185 0.0883, -0.04 -0.1185 0.089, -0.0386 -0.1185 0.0879, -0.038 -0.1185 0.089, -0.0376 -0.1185 0.0892, -0.0372 -0.1185 0.0906, -0.0366 -0.1185 0.0894, -0.0344 -0.1185 0.091, -0.0394 -0.1185 0.0938, -0.0394 -0.1185 0.0922, -0.0391 -0.1185 0.094, -0.0383 -0.1185 0.0929, -0.0379 -0.1185 0.0945, -0.0372 -0.1185 0.0933, -0.0361 -0.1185 0.0947, -0.0363 -0.1185 0.0933, -0.0352 -0.1185 0.0946, -0.0357 -0.1185 0.0933, -0.0344 -0.1185 0.0944, -0.0354 -0.1185 0.0932, -0.0339 -0.1185 0.0941, -0.0351 -0.1185 0.093, -0.0334 -0.1185 0.0937, -0.0348 -0.1185 0.0927, -0.0331 -0.1185 0.0931, -0.0346 -0.1185 0.0924, -0.0328 -0.1185 0.0924, -0.0344 -0.1185 0.0918, -0.0402 -0.1185 0.0884, -0.0404 -0.1185 0.0877, -0.0387 -0.1185 0.0876, -0.0404 -0.1185 0.0875, -0.0386 -0.1185 0.0873, -0.0403 -0.1185 0.0867, -0.0385 -0.1185 0.087, -0.04 -0.1185 0.0861, -0.0397 -0.1185 0.0856, -0.0361 -0.1181 0.0947, -0.0379 -0.1181 0.0945, -0.0391 -0.1181 0.094, -0.0394 -0.1181 0.0938, -0.0394 -0.1181 0.0922, -0.0383 -0.1181 0.0929, -0.0372 -0.1181 0.0933, -0.0363 -0.1181 0.0933, -0.0357 -0.1181 0.0933, -0.0354 -0.1181 0.0932, -0.0351 -0.1181 0.093, -0.0348 -0.1181 0.0927, -0.0346 -0.1181 0.0924, -0.0344 -0.1181 0.0918, -0.0344 -0.1181 0.091, -0.0372 -0.1181 0.0906, -0.0385 -0.1181 0.0903, -0.0392 -0.1181 0.0899, -0.0397 -0.1181 0.0895, -0.04 -0.1181 0.089, -0.0402 -0.1181 0.0884, -0.0404 -0.1181 0.0877, -0.0404 -0.1181 0.0875, -0.0403 -0.1181 0.0867, -0.04 -0.1181 0.0861, -0.0397 -0.1181 0.0856, -0.0395 -0.1181 0.0855, -0.0373 -0.1181 0.0847, -0.039 -0.1181 0.0851, -0.0384 -0.1181 0.0849, -0.0383 -0.1181 0.0848, -0.0376 -0.1181 0.0847, -0.0364 -0.1181 0.0848, -0.0357 -0.1181 0.0851, -0.0354 -0.1181 0.0853, -0.0348 -0.1181 0.0859, -0.0344 -0.1181 0.0864, -0.0344 -0.1181 0.0864, -0.0344 -0.1181 0.085, -0.0327 -0.1181 0.085, -0.0327 -0.1181 0.0911, -0.0328 -0.1181 0.0924, -0.0331 -0.1181 0.0931, -0.0334 -0.1181 0.0937, -0.0339 -0.1181 0.0941, -0.0344 -0.1181 0.0944, -0.0352 -0.1181 0.0946, -0.0382 -0.1181 0.0889, -0.038 -0.1181 0.089, -0.0376 -0.1181 0.0892, -0.0366 -0.1181 0.0894, -0.0387 -0.1181 0.0876, -0.0386 -0.1181 0.0879, -0.0386 -0.1181 0.0883, -0.0384 -0.1181 0.0886, -0.0382 -0.1181 0.0865, -0.0383 -0.1181 0.0867, -0.0385 -0.1181 0.087, -0.0386 -0.1181 0.0873, -0.0369 -0.1181 0.0861, -0.0375 -0.1181 0.0862, -0.0378 -0.1181 0.0863, -0.0351 -0.1181 0.0869, -0.0353 -0.1181 0.0866, -0.0358 -0.1181 0.0863, -0.0363 -0.1181 0.0862, -0.0344 -0.1181 0.0888, -0.0344 -0.1181 0.0886, -0.0345 -0.1181 0.0879, -0.0348 -0.1181 0.0873, -0.0344 -0.1181 0.0897, -0.0344 -0.1181 0.0897
            ]
        }
        coordIndex [
            0,1,2,-1,2,1,3,-1,4,0,5,-1,5,0,2,-1,6,4,7,-1,7,4,5,-1,8,6,9,-1,9,6,7,-1,10,8,11,-1,11,8,9,-1,12,10,13,-1,13,10,11,-1,14,12,15,-1,15,12,13,-1,16,14,17,-1,17,14,15,-1,18,16,19,-1,19,16,17,-1,20,18,21,-1,21,18,19,-1,22,20,23,-1,23,20,21,-1,1,22,3,-1,3,22,23,-1,22,1,0,-1,0,4,22,-1,22,4,6,-1,22,6,20,-1,16,18,14,-1,14,18,20,-1,14,20,12,-1,12,20,6,-1,12,6,10,-1,10,6,8,-1,24,25,26,-1,27,28,29,-1,30,31,32,-1,32,31,33,-1,34,35,25,-1,25,35,31,-1,25,31,26,-1,26,31,30,-1,26,36,24,-1,24,36,37,-1,24,37,38,-1,38,37,39,-1,38,39,40,-1,40,39,41,-1,40,41,42,-1,42,41,43,-1,44,45,46,-1,46,45,47,-1,46,47,48,-1,48,47,49,-1,48,49,50,-1,50,49,51,-1,50,51,52,-1,52,51,53,-1,52,53,43,-1,43,53,54,-1,43,54,42,-1,29,28,55,-1,55,28,56,-1,55,56,57,-1,57,56,58,-1,57,58,59,-1,29,60,27,-1,27,60,61,-1,27,61,62,-1,62,61,63,-1,62,63,64,-1,65,66,67,-1,67,66,68,-1,67,68,69,-1,69,68,70,-1,69,70,71,-1,71,70,72,-1,71,72,73,-1,73,72,74,-1,73,74,75,-1,75,74,76,-1,75,76,77,-1,77,76,78,-1,77,78,79,-1,79,78,80,-1,79,80,81,-1,81,80,82,-1,81,82,83,-1,83,82,84,-1,83,84,31,-1,31,84,64,-1,31,64,33,-1,33,64,63,-1,58,85,59,-1,59,85,86,-1,59,86,87,-1,87,86,88,-1,87,88,89,-1,89,88,90,-1,89,90,91,-1,91,90,92,-1,91,92,44,-1,44,92,93,-1,44,93,45,-1,71,94,95,-1,71,95,69,-1,69,95,96,-1,69,96,67,-1,67,96,97,-1,67,97,65,-1,66,65,98,-1,98,65,97,-1,66,98,99,-1,66,99,68,-1,68,99,100,-1,68,100,70,-1,70,100,101,-1,70,101,72,-1,72,101,102,-1,72,102,74,-1,74,102,103,-1,74,103,76,-1,76,103,104,-1,76,104,78,-1,78,104,105,-1,78,105,80,-1,80,105,106,-1,80,106,82,-1,82,106,107,-1,82,107,84,-1,84,107,108,-1,84,108,64,-1,62,64,109,-1,109,64,108,-1,62,109,110,-1,62,110,27,-1,27,110,111,-1,27,111,28,-1,28,111,112,-1,28,112,56,-1,56,112,113,-1,56,113,58,-1,58,113,114,-1,58,114,85,-1,85,114,115,-1,85,115,86,-1,86,115,116,-1,86,116,88,-1,88,116,117,-1,88,117,90,-1,90,117,118,-1,90,118,92,-1,92,118,119,-1,92,119,93,-1,93,119,120,-1,93,120,45,-1,121,53,51,-1,45,120,122,-1,45,122,47,-1,47,122,123,-1,47,123,49,-1,49,123,124,-1,49,124,51,-1,51,124,125,-1,51,125,121,-1,53,121,126,-1,53,126,54,-1,54,126,127,-1,54,127,42,-1,42,127,128,-1,42,128,40,-1,40,128,129,-1,40,129,38,-1,38,129,130,-1,38,130,24,-1,25,24,131,-1,131,24,130,-1,34,25,132,-1,132,25,131,-1,35,34,133,-1,133,34,132,-1,31,35,134,-1,134,35,133,-1,31,134,135,-1,31,135,83,-1,83,135,136,-1,83,136,81,-1,81,136,137,-1,81,137,79,-1,79,137,138,-1,79,138,77,-1,77,138,139,-1,77,139,75,-1,75,139,140,-1,75,140,73,-1,73,140,94,-1,73,94,71,-1,29,141,142,-1,29,142,60,-1,60,142,143,-1,60,143,61,-1,61,143,144,-1,61,144,63,-1,87,145,146,-1,87,146,59,-1,59,146,147,-1,59,147,57,-1,57,147,148,-1,57,148,55,-1,55,148,141,-1,55,141,29,-1,46,149,150,-1,46,150,44,-1,44,150,151,-1,44,151,91,-1,91,151,152,-1,91,152,89,-1,89,152,145,-1,89,145,87,-1,52,153,154,-1,52,154,50,-1,50,154,155,-1,50,155,48,-1,48,155,149,-1,48,149,46,-1,37,156,157,-1,37,157,39,-1,39,157,158,-1,39,158,41,-1,41,158,159,-1,41,159,43,-1,43,159,153,-1,43,153,52,-1,32,160,161,-1,32,161,30,-1,30,161,162,-1,30,162,26,-1,26,162,163,-1,26,163,36,-1,36,163,156,-1,36,156,37,-1,32,33,160,-1,160,33,164,-1,33,63,164,-1,164,63,144,-1,
        ]
    }
}
Shape{
    appearance Appearance {
        material  Material 	{
            diffuseColor 0.25098039215686274 0.25098039215686274 0.25098039215686274
            specularColor 0.12549019607843137 0.12549019607843137 0.12549019607843137
            ambientIntensity 0.2
            transparency 0
            shininess 0.5
        }
    }
    geometry IndexedFaceSet {
        ccw TRUE
        solid FALSE
        coord DEF co Coordinate {
            point [
                -0.0351 -0.1181 0.0869, -0.0348 -0.1181 0.0873, -0.0386 -0.1181 0.0879, -0.0344 -0.1181 0.0888, -0.0344 -0.1181 0.0897, -0.0366 -0.1181 0.0894, -0.0386 -0.1181 0.0883, -0.0376 -0.1181 0.0892, -0.038 -0.1181 0.089, -0.0382 -0.1181 0.0889, -0.0384 -0.1181 0.0886, -0.0345 -0.1181 0.0879, -0.0344 -0.1181 0.0886, -0.0387 -0.1181 0.0876, -0.0386 -0.1181 0.0873, -0.0385 -0.1181 0.087, -0.0375 -0.1181 0.0862, -0.0369 -0.1181 0.0861, -0.0353 -0.1181 0.0866, -0.0363 -0.1181 0.0862, -0.0358 -0.1181 0.0863, -0.0383 -0.1181 0.0867, -0.0382 -0.1181 0.0865, -0.0378 -0.1181 0.0863, -0.0378 -0.1181 0.0863
            ]
        }
        coordIndex [
            0,1,2,-1,3,4,5,-1,2,1,6,-1,5,7,3,-1,3,7,8,-1,3,8,9,-1,6,1,10,-1,10,1,11,-1,10,11,9,-1,9,11,12,-1,9,12,3,-1,2,13,0,-1,0,13,14,-1,0,14,15,-1,16,17,18,-1,18,17,19,-1,18,19,20,-1,15,21,0,-1,0,21,22,-1,0,22,18,-1,18,22,23,-1,18,23,16,-1,
        ]
    }
}
Shape{
    appearance Appearance {
        material  Material 	{
            diffuseColor 1.0 1.0 1.0
            specularColor 0.5019607843137255 0.5019607843137255 0.5019607843137255
            ambientIntensity 0.2
            transparency 0
            shininess 0.5
        }
    }
    geometry IndexedFaceSet {
        ccw TRUE
        solid FALSE
        coord DEF co Coordinate {
            point [
                -0.0304 -0.1181 0.087, -0.0304 -0.1185 0.087, -0.0298 -0.1185 0.0866, -0.0277 -0.1185 0.0861, -0.0277 -0.1181 0.0861, -0.0288 -0.1181 0.0862, -0.0288 -0.1185 0.0862, -0.0297 -0.1181 0.0866, -0.0298 -0.1181 0.0866, -0.0304 -0.1185 0.0853, -0.0304 -0.1181 0.0853, -0.0293 -0.1185 0.0849, -0.0297 -0.1181 0.085, -0.0279 -0.1181 0.0847, -0.0279 -0.1185 0.0847, -0.0289 -0.1181 0.0848, -0.0293 -0.1181 0.0849, -0.0265 -0.1185 0.0849, -0.0268 -0.1181 0.0848, -0.0265 -0.1181 0.0849, -0.0256 -0.1181 0.0852, -0.0256 -0.1185 0.0852, -0.0251 -0.1181 0.0855, -0.0251 -0.1185 0.0855, -0.0246 -0.1181 0.0859, -0.0246 -0.1185 0.0859, -0.0243 -0.1181 0.0864, -0.0243 -0.1185 0.0864, -0.0241 -0.1181 0.0869, -0.0241 -0.1185 0.0869, -0.024 -0.1181 0.0875, -0.024 -0.1185 0.0875, -0.0241 -0.1181 0.0881, -0.0241 -0.1185 0.0881, -0.0242 -0.1181 0.0886, -0.0242 -0.1185 0.0886, -0.0245 -0.1181 0.0891, -0.0245 -0.1185 0.0891, -0.0246 -0.1181 0.0891, -0.0246 -0.1185 0.0891, -0.025 -0.1181 0.0895, -0.025 -0.1185 0.0895, -0.0262 -0.1181 0.0902, -0.0262 -0.1185 0.0902, -0.0267 -0.1181 0.0904, -0.0267 -0.1185 0.0904, -0.0277 -0.1181 0.0908, -0.0277 -0.1185 0.0908, -0.0283 -0.1181 0.0912, -0.0283 -0.1185 0.0912, -0.0285 -0.1181 0.0914, -0.0285 -0.1185 0.0914, -0.0286 -0.1181 0.0916, -0.0286 -0.1185 0.0916, -0.0287 -0.1181 0.0918, -0.0287 -0.1185 0.0918, -0.0287 -0.1181 0.0921, -0.0287 -0.1185 0.0921, -0.0287 -0.1181 0.0923, -0.0287 -0.1185 0.0923, -0.0286 -0.1181 0.0926, -0.0286 -0.1185 0.0926, -0.0284 -0.1181 0.0928, -0.0284 -0.1185 0.0928, -0.0282 -0.1181 0.093, -0.0282 -0.1185 0.093, -0.0278 -0.1181 0.0932, -0.0278 -0.1185 0.0932, -0.0274 -0.1181 0.0933, -0.0274 -0.1185 0.0933, -0.0269 -0.1181 0.0933, -0.0269 -0.1185 0.0933, -0.0257 -0.1181 0.0932, -0.0257 -0.1185 0.0932, -0.0248 -0.1181 0.0928, -0.0248 -0.1185 0.0928, -0.0245 -0.1181 0.0927, -0.0245 -0.1185 0.0927, -0.0245 -0.1185 0.0943, -0.0245 -0.1181 0.0943, -0.0255 -0.1181 0.0946, -0.0255 -0.1185 0.0946, -0.0267 -0.1181 0.0947, -0.0267 -0.1185 0.0947, -0.0281 -0.1181 0.0945, -0.0281 -0.1185 0.0945, -0.029 -0.1181 0.0942, -0.029 -0.1185 0.0942, -0.0294 -0.1181 0.0939, -0.0294 -0.1185 0.0939, -0.0299 -0.1185 0.0935, -0.0297 -0.1181 0.0937, -0.0299 -0.1181 0.0935, -0.0302 -0.1181 0.093, -0.0302 -0.1185 0.093, -0.0304 -0.1181 0.0925, -0.0304 -0.1185 0.0925, -0.0304 -0.1181 0.0919, -0.0304 -0.1185 0.0919, -0.0303 -0.1181 0.0912, -0.0303 -0.1185 0.0912, -0.0301 -0.1181 0.0907, -0.0301 -0.1185 0.0907, -0.03 -0.1181 0.0904, -0.03 -0.1185 0.0904, -0.0279 -0.1181 0.0891, -0.0279 -0.1185 0.0891, -0.0289 -0.1185 0.0896, -0.0297 -0.1181 0.0901, -0.0297 -0.1185 0.0901, -0.0297 -0.1181 0.0901, -0.0289 -0.1181 0.0896, -0.0268 -0.1181 0.0887, -0.0268 -0.1185 0.0887, -0.0261 -0.1181 0.0883, -0.0261 -0.1185 0.0883, -0.0259 -0.1181 0.0881, -0.0259 -0.1185 0.0881, -0.0258 -0.1181 0.0879, -0.0258 -0.1185 0.0879, -0.0257 -0.1181 0.0876, -0.0257 -0.1185 0.0876, -0.0257 -0.1181 0.0874, -0.0257 -0.1185 0.0874, -0.0257 -0.1181 0.0871, -0.0257 -0.1185 0.0871, -0.0258 -0.1181 0.0868, -0.0258 -0.1185 0.0868, -0.026 -0.1181 0.0866, -0.026 -0.1185 0.0866, -0.0262 -0.1181 0.0864, -0.0262 -0.1185 0.0864, -0.0263 -0.1181 0.0863, -0.0263 -0.1185 0.0863, -0.0268 -0.1181 0.0862, -0.0268 -0.1185 0.0862, -0.0276 -0.1181 0.0861, -0.0276 -0.1185 0.0861, -0.0157 -0.1185 0.0945, -0.014 -0.1185 0.0945, -0.0157 -0.1181 0.0945, -0.014 -0.1181 0.0945, -0.0183 -0.1185 0.0873, -0.0183 -0.1181 0.0873, -0.0184 -0.1181 0.0869, -0.0184 -0.1185 0.0869, -0.0185 -0.1181 0.0865, -0.0185 -0.1185 0.0865, -0.0186 -0.1185 0.0865, -0.0186 -0.1181 0.0865, -0.0188 -0.1185 0.0873, -0.0188 -0.1181 0.0873, -0.0213 -0.1181 0.0945, -0.0213 -0.1185 0.0945, -0.0205 -0.1181 0.0922, -0.0231 -0.1185 0.0945, -0.0231 -0.1181 0.0945, -0.0194 -0.1181 0.085, -0.0194 -0.1185 0.085, -0.0205 -0.1181 0.0877, -0.0201 -0.1181 0.0832, -0.0201 -0.1185 0.0832, -0.0194 -0.1181 0.0848, -0.0205 -0.1181 0.0827, -0.0205 -0.1185 0.0826, -0.0205 -0.1181 0.0826, -0.0208 -0.1181 0.0822, -0.0208 -0.1185 0.0822, -0.0211 -0.1181 0.082, -0.0211 -0.1185 0.082, -0.0215 -0.1181 0.0819, -0.0215 -0.1185 0.0819, -0.0218 -0.1181 0.0819, -0.0218 -0.1185 0.0819, -0.0224 -0.1181 0.082, -0.0224 -0.1185 0.082, -0.0228 -0.1181 0.0821, -0.0228 -0.1185 0.0821, -0.0228 -0.1185 0.0806, -0.0228 -0.1181 0.0806, -0.0223 -0.1181 0.0805, -0.0223 -0.1185 0.0805, -0.0217 -0.1181 0.0805, -0.0217 -0.1185 0.0805, -0.021 -0.1181 0.0806, -0.021 -0.1185 0.0806, -0.0205 -0.1181 0.0808, -0.0203 -0.1185 0.0808, -0.0203 -0.1181 0.0808, -0.0198 -0.1181 0.0812, -0.0198 -0.1185 0.0812, -0.0191 -0.1181 0.082, -0.0191 -0.1185 0.082, -0.0183 -0.1181 0.0835, -0.0183 -0.1185 0.0835, -0.0178 -0.1181 0.0848, -0.005 -0.1185 0.0865, -0.005 -0.1185 0.085, -0.005 -0.1181 0.0865, -0.005 -0.1181 0.085, -0.0105 -0.1181 0.0865, -0.0105 -0.1185 0.0865, -0.008 -0.1181 0.0865, -0.0105 -0.1185 0.091, -0.0105 -0.1181 0.091, -0.0057 -0.1181 0.091, -0.0057 -0.1185 0.091, -0.008 -0.1181 0.091, -0.0057 -0.1185 0.0925, -0.0057 -0.1181 0.0925, -0.0105 -0.1181 0.0925, -0.0105 -0.1185 0.0925, -0.008 -0.1181 0.0925, -0.0105 -0.1185 0.0968, -0.0105 -0.1181 0.0968, -0.0053 -0.1181 0.0968, -0.0053 -0.1185 0.0968, -0.008 -0.1181 0.0968, -0.0053 -0.1185 0.0983, -0.0053 -0.1181 0.0983, -0.0122 -0.1181 0.0983, -0.0122 -0.1185 0.0983, -0.008 -0.1181 0.0983, -0.0122 -0.1185 0.085, -0.0122 -0.1181 0.085, -0.008 -0.1181 0.085, 0.0065 -0.1185 0.0909, 0.0083 -0.1185 0.091, 0.0066 -0.1185 0.0918, 0.0084 -0.1185 0.0918, 0.0064 -0.1185 0.0933, 0.0082 -0.1185 0.0937, 0.006 -0.1185 0.0943, 0.0077 -0.1185 0.0949, 0.0055 -0.1185 0.0951, 0.0068 -0.1185 0.0961, 0.0051 -0.1185 0.0955, 0.0064 -0.1185 0.0965, 0.0041 -0.1185 0.0962, 0.005 -0.1185 0.0975, 0.003 -0.1185 0.0966, 0.0034 -0.1185 0.0981, 0.0013 -0.1185 0.0968, 0.0013 -0.1185 0.0983, -0.0008 -0.1185 0.0968, -0.0025 -0.1185 0.0983, -0.0008 -0.1185 0.0865, -0.0025 -0.1185 0.085, 0.0012 -0.1185 0.0865, 0.0012 -0.1185 0.085, 0.0029 -0.1185 0.0867, 0.0033 -0.1185 0.0852, 0.004 -0.1185 0.0871, 0.0049 -0.1185 0.0858, 0.0049 -0.1185 0.0876, 0.0062 -0.1185 0.0866, 0.0051 -0.1185 0.0879, 0.0064 -0.1185 0.0868, 0.0058 -0.1185 0.0887, 0.0074 -0.1185 0.088, 0.0063 -0.1185 0.0897, 0.008 -0.1185 0.0894, 0.0012 -0.1181 0.085, -0.0025 -0.1181 0.085, 0.0033 -0.1181 0.0852, 0.0049 -0.1181 0.0858, 0.0062 -0.1181 0.0866, 0.0064 -0.1181 0.0868, 0.0074 -0.1181 0.088, 0.008 -0.1181 0.0894, 0.0083 -0.1181 0.091, 0.0084 -0.1181 0.0918, 0.0082 -0.1181 0.0937, 0.0077 -0.1181 0.0949, 0.0068 -0.1181 0.0961, 0.0064 -0.1181 0.0965, 0.005 -0.1181 0.0975, 0.0034 -0.1181 0.0981, 0.0013 -0.1181 0.0983, -0.0025 -0.1181 0.0983, 0.0013 -0.1181 0.0968, -0.0008 -0.1181 0.0968, -0.0008 -0.1181 0.0865, 0.0012 -0.1181 0.0865, 0.0051 -0.1181 0.0879, 0.0049 -0.1181 0.0876, 0.004 -0.1181 0.0871, 0.0029 -0.1181 0.0867, 0.0066 -0.1181 0.0918, 0.0065 -0.1181 0.0909, 0.0063 -0.1181 0.0897, 0.0058 -0.1181 0.0887, 0.0051 -0.1181 0.0955, 0.0055 -0.1181 0.0951, 0.006 -0.1181 0.0943, 0.0064 -0.1181 0.0933, 0.003 -0.1181 0.0966, 0.0041 -0.1181 0.0962, 0.0041 -0.1181 0.0962
            ]
        }
        coordIndex [
            0,1,2,-1,3,4,5,-1,3,5,6,-1,6,5,7,-1,6,7,2,-1,2,7,8,-1,2,8,0,-1,9,1,10,-1,10,1,0,-1,9,10,11,-1,11,10,12,-1,13,14,15,-1,15,14,11,-1,15,11,16,-1,16,11,12,-1,14,13,17,-1,17,13,18,-1,18,19,17,-1,17,19,20,-1,17,20,21,-1,21,20,22,-1,21,22,23,-1,23,22,24,-1,23,24,25,-1,25,24,26,-1,25,26,27,-1,27,26,28,-1,27,28,29,-1,29,28,30,-1,29,30,31,-1,31,30,32,-1,31,32,33,-1,33,32,34,-1,33,34,35,-1,35,34,36,-1,35,36,37,-1,37,36,38,-1,37,38,39,-1,39,38,40,-1,39,40,41,-1,41,40,42,-1,41,42,43,-1,43,42,44,-1,43,44,45,-1,45,44,46,-1,45,46,47,-1,47,46,48,-1,47,48,49,-1,49,48,50,-1,49,50,51,-1,51,50,52,-1,51,52,53,-1,53,52,54,-1,53,54,55,-1,55,54,56,-1,55,56,57,-1,57,56,58,-1,57,58,59,-1,59,58,60,-1,59,60,61,-1,61,60,62,-1,61,62,63,-1,63,62,64,-1,63,64,65,-1,65,64,66,-1,65,66,67,-1,67,66,68,-1,67,68,69,-1,69,68,70,-1,69,70,71,-1,71,70,72,-1,71,72,73,-1,73,72,74,-1,73,74,75,-1,75,74,76,-1,75,76,77,-1,78,77,79,-1,79,77,76,-1,78,79,80,-1,78,80,81,-1,81,80,82,-1,81,82,83,-1,83,82,84,-1,83,84,85,-1,85,84,86,-1,85,86,87,-1,87,86,88,-1,87,88,89,-1,89,88,90,-1,90,88,91,-1,91,92,90,-1,90,92,93,-1,90,93,94,-1,94,93,95,-1,94,95,96,-1,96,95,97,-1,96,97,98,-1,98,97,99,-1,98,99,100,-1,100,99,101,-1,100,101,102,-1,102,101,103,-1,102,103,104,-1,105,106,107,-1,104,103,108,-1,104,108,109,-1,109,108,110,-1,109,110,107,-1,107,110,111,-1,107,111,105,-1,106,105,112,-1,106,112,113,-1,113,112,114,-1,113,114,115,-1,115,114,116,-1,115,116,117,-1,117,116,118,-1,117,118,119,-1,119,118,120,-1,119,120,121,-1,121,120,122,-1,121,122,123,-1,123,122,124,-1,123,124,125,-1,125,124,126,-1,125,126,127,-1,127,126,128,-1,127,128,129,-1,129,128,130,-1,129,130,131,-1,131,130,132,-1,131,132,133,-1,133,132,134,-1,133,134,135,-1,135,134,136,-1,135,136,137,-1,137,136,4,-1,137,4,3,-1,61,63,89,-1,89,63,87,-1,87,63,65,-1,87,65,85,-1,119,37,117,-1,117,37,39,-1,117,39,115,-1,115,39,41,-1,115,41,113,-1,127,25,27,-1,41,43,113,-1,113,43,45,-1,113,45,106,-1,106,45,47,-1,127,27,125,-1,125,27,29,-1,125,29,123,-1,123,29,31,-1,123,31,121,-1,121,31,33,-1,121,33,119,-1,119,33,35,-1,119,35,37,-1,25,127,23,-1,23,127,129,-1,23,129,21,-1,14,3,11,-1,11,3,6,-1,11,6,9,-1,9,6,2,-1,9,2,1,-1,65,67,85,-1,85,67,69,-1,85,69,83,-1,83,69,71,-1,83,71,81,-1,81,71,73,-1,81,73,78,-1,78,73,75,-1,78,75,77,-1,129,131,21,-1,21,131,133,-1,21,133,17,-1,17,133,135,-1,17,135,14,-1,14,135,137,-1,14,137,3,-1,89,90,61,-1,61,90,94,-1,61,94,59,-1,59,94,96,-1,59,96,57,-1,57,96,98,-1,57,98,55,-1,55,98,100,-1,55,100,53,-1,53,100,102,-1,53,102,51,-1,51,102,104,-1,51,104,49,-1,49,104,109,-1,49,109,47,-1,47,109,107,-1,47,107,106,-1,138,139,140,-1,140,139,141,-1,142,138,143,-1,143,138,140,-1,142,143,144,-1,142,144,145,-1,145,144,146,-1,145,146,147,-1,148,147,149,-1,149,147,146,-1,150,148,151,-1,151,148,149,-1,152,153,154,-1,154,153,150,-1,154,150,151,-1,155,153,156,-1,156,153,152,-1,157,158,159,-1,159,158,155,-1,159,155,156,-1,160,161,162,-1,162,161,158,-1,162,158,157,-1,160,163,161,-1,161,163,164,-1,163,165,164,-1,164,165,166,-1,164,166,167,-1,167,166,168,-1,167,168,169,-1,169,168,170,-1,169,170,171,-1,171,170,172,-1,171,172,173,-1,173,172,174,-1,173,174,175,-1,175,174,176,-1,175,176,177,-1,178,177,179,-1,179,177,176,-1,178,179,180,-1,178,180,181,-1,181,180,182,-1,181,182,183,-1,183,182,184,-1,183,184,185,-1,185,184,186,-1,185,186,187,-1,186,188,187,-1,187,188,189,-1,187,189,190,-1,190,189,191,-1,190,191,192,-1,192,191,193,-1,192,193,194,-1,141,139,195,-1,195,139,194,-1,195,194,193,-1,145,147,194,-1,139,138,194,-1,194,138,142,-1,194,142,145,-1,153,155,150,-1,150,155,158,-1,150,158,148,-1,147,148,194,-1,194,148,158,-1,194,158,192,-1,158,161,192,-1,192,161,164,-1,192,164,190,-1,190,164,167,-1,190,167,187,-1,187,167,169,-1,187,169,185,-1,185,169,171,-1,185,171,183,-1,183,171,173,-1,183,173,181,-1,181,173,175,-1,181,175,178,-1,178,175,177,-1,196,197,198,-1,198,197,199,-1,200,201,202,-1,202,201,196,-1,202,196,198,-1,203,201,204,-1,204,201,200,-1,205,206,207,-1,207,206,203,-1,207,203,204,-1,208,206,209,-1,209,206,205,-1,210,211,212,-1,212,211,208,-1,212,208,209,-1,213,211,214,-1,214,211,210,-1,215,216,217,-1,217,216,213,-1,217,213,214,-1,218,216,219,-1,219,216,215,-1,220,221,222,-1,222,221,218,-1,222,218,219,-1,223,221,224,-1,224,221,220,-1,199,197,225,-1,225,197,223,-1,225,223,224,-1,223,197,196,-1,196,201,223,-1,223,201,203,-1,223,203,221,-1,216,218,213,-1,213,218,221,-1,213,221,211,-1,211,221,203,-1,211,203,208,-1,208,203,206,-1,226,227,228,-1,228,227,229,-1,228,229,230,-1,230,229,231,-1,230,231,232,-1,232,231,233,-1,232,233,234,-1,234,233,235,-1,234,235,236,-1,236,235,237,-1,236,237,238,-1,238,237,239,-1,238,239,240,-1,240,239,241,-1,240,241,242,-1,242,241,243,-1,242,243,244,-1,244,243,245,-1,244,245,246,-1,246,245,247,-1,246,247,248,-1,248,247,249,-1,248,249,250,-1,250,249,251,-1,250,251,252,-1,252,251,253,-1,252,253,254,-1,254,253,255,-1,254,255,256,-1,256,255,257,-1,256,257,258,-1,258,257,259,-1,258,259,260,-1,260,259,261,-1,260,261,226,-1,226,261,227,-1,249,247,262,-1,262,247,263,-1,249,262,264,-1,249,264,251,-1,251,264,265,-1,251,265,253,-1,253,265,266,-1,253,266,255,-1,255,266,267,-1,255,267,257,-1,257,267,268,-1,257,268,259,-1,259,268,269,-1,259,269,261,-1,261,269,270,-1,261,270,227,-1,227,270,271,-1,227,271,229,-1,229,271,272,-1,229,272,231,-1,231,272,273,-1,231,273,233,-1,233,273,274,-1,233,274,235,-1,235,274,275,-1,235,275,237,-1,237,275,276,-1,237,276,239,-1,239,276,277,-1,239,277,241,-1,241,277,278,-1,241,278,243,-1,245,243,279,-1,279,243,278,-1,247,245,263,-1,263,245,279,-1,242,244,280,-1,280,244,281,-1,244,246,281,-1,281,246,282,-1,246,248,282,-1,282,248,283,-1,256,284,285,-1,256,285,254,-1,254,285,286,-1,254,286,252,-1,252,286,287,-1,252,287,250,-1,250,287,283,-1,250,283,248,-1,228,288,289,-1,228,289,226,-1,226,289,290,-1,226,290,260,-1,260,290,291,-1,260,291,258,-1,258,291,284,-1,258,284,256,-1,236,292,293,-1,236,293,234,-1,234,293,294,-1,234,294,232,-1,232,294,295,-1,232,295,230,-1,230,295,288,-1,230,288,228,-1,242,280,296,-1,242,296,240,-1,240,296,297,-1,240,297,238,-1,238,297,292,-1,238,292,236,-1,
        ]
    }
}
Shape{
    appearance Appearance {
        material  Material 	{
            diffuseColor 0.25098039215686274 0.25098039215686274 0.25098039215686274
            specularColor 0.12549019607843137 0.12549019607843137 0.12549019607843137
            ambientIntensity 0.2
            transparency 0
            shininess 0.5
        }
    }
    geometry IndexedFaceSet {
        ccw TRUE
        solid FALSE
        coord DEF co Coordinate {
            point [
                -0.0008 -0.1181 0.0968, -0.0008 -0.1181 0.0865, 0.0013 -0.1181 0.0968, 0.0012 -0.1181 0.0865, 0.0029 -0.1181 0.0867, 0.004 -0.1181 0.0871, 0.0049 -0.1181 0.0876, 0.0051 -0.1181 0.0879, 0.0058 -0.1181 0.0887, 0.0063 -0.1181 0.0897, 0.0065 -0.1181 0.0909, 0.0066 -0.1181 0.0918, 0.0064 -0.1181 0.0933, 0.006 -0.1181 0.0943, 0.0055 -0.1181 0.0951, 0.0051 -0.1181 0.0955, 0.003 -0.1181 0.0966, 0.0041 -0.1181 0.0962, 0.0041 -0.1181 0.0962
            ]
        }
        coordIndex [
            0,1,2,-1,2,1,3,-1,2,3,4,-1,4,5,2,-1,2,5,6,-1,2,6,7,-1,7,8,2,-1,2,8,9,-1,2,9,10,-1,10,11,2,-1,2,11,12,-1,2,12,13,-1,13,14,2,-1,2,14,15,-1,2,15,16,-1,16,15,17,-1,
        ]
    }
}
Shape{
    appearance Appearance {
        material  Material 	{
            diffuseColor 1.0 1.0 1.0
            specularColor 0.5019607843137255 0.5019607843137255 0.5019607843137255
            ambientIntensity 0.2
            transparency 0
            shininess 0.5
        }
    }
    geometry IndexedFaceSet {
        ccw TRUE
        solid FALSE
        coord DEF co Coordinate {
            point [
                0.0129 -0.1185 0.0901, 0.0123 -0.1185 0.0886, 0.0173 -0.1185 0.0901, 0.0179 -0.1185 0.0886, 0.0149 -0.1185 0.0957, 0.0142 -0.1185 0.0983, 0.0091 -0.1185 0.085, 0.011 -0.1185 0.085, 0.015 -0.1185 0.0961, 0.0151 -0.1185 0.0966, 0.016 -0.1185 0.0983, 0.0151 -0.1185 0.0966, 0.0152 -0.1185 0.096, 0.0153 -0.1185 0.0957, 0.0211 -0.1185 0.085, 0.0192 -0.1185 0.085, 0.016 -0.1181 0.0983, 0.0211 -0.1181 0.085, 0.0142 -0.1181 0.0983, 0.0091 -0.1181 0.085, 0.011 -0.1181 0.085, 0.0123 -0.1181 0.0886, 0.0179 -0.1181 0.0886, 0.0192 -0.1181 0.085, 0.0129 -0.1181 0.0901, 0.0173 -0.1181 0.0901, 0.0153 -0.1181 0.0957, 0.0151 -0.1181 0.0966, 0.0152 -0.1181 0.096, 0.0151 -0.1181 0.0966, 0.0149 -0.1181 0.0957, 0.015 -0.1181 0.0961, 0.015 -0.1181 0.0961
            ]
        }
        coordIndex [
            0,1,2,-1,2,1,3,-1,4,5,0,-1,0,5,6,-1,0,6,1,-1,1,6,7,-1,4,8,5,-1,5,8,9,-1,5,9,10,-1,10,9,11,-1,10,11,12,-1,12,13,10,-1,10,13,2,-1,10,2,14,-1,14,2,3,-1,14,3,15,-1,10,14,16,-1,16,14,17,-1,5,10,18,-1,18,10,16,-1,6,5,19,-1,19,5,18,-1,7,6,20,-1,20,6,19,-1,1,7,21,-1,21,7,20,-1,3,1,22,-1,22,1,21,-1,15,3,23,-1,23,3,22,-1,14,15,17,-1,17,15,23,-1,0,2,24,-1,24,2,25,-1,2,13,25,-1,25,13,26,-1,11,27,28,-1,11,28,12,-1,12,28,26,-1,12,26,13,-1,11,9,27,-1,27,9,29,-1,4,30,31,-1,4,31,8,-1,8,31,29,-1,8,29,9,-1,4,0,30,-1,30,0,24,-1,
        ]
    }
}
Shape{
    appearance Appearance {
        material  Material 	{
            diffuseColor 0.25098039215686274 0.25098039215686274 0.25098039215686274
            specularColor 0.12549019607843137 0.12549019607843137 0.12549019607843137
            ambientIntensity 0.2
            transparency 0
            shininess 0.5
        }
    }
    geometry IndexedFaceSet {
        ccw TRUE
        solid FALSE
        coord DEF co Coordinate {
            point [
                0.0151 -0.1181 0.0966, 0.0151 -0.1181 0.0966, 0.0152 -0.1181 0.096, 0.015 -0.1181 0.0961, 0.0153 -0.1181 0.0957, 0.0149 -0.1181 0.0957, 0.0173 -0.1181 0.0901, 0.0129 -0.1181 0.0901, 0.0129 -0.1181 0.0901
            ]
        }
        coordIndex [
            0,1,2,-1,2,1,3,-1,2,3,4,-1,4,3,5,-1,4,5,6,-1,6,5,7,-1,
        ]
    }
}
Shape{
    appearance Appearance {
        material  Material 	{
            diffuseColor 1.0 1.0 1.0
            specularColor 0.5019607843137255 0.5019607843137255 0.5019607843137255
            ambientIntensity 0.2
            transparency 0
            shininess 0.5
        }
    }
    geometry IndexedFaceSet {
        ccw TRUE
        solid FALSE
        coord DEF co Coordinate {
            point [
                -0.0964 -0.1185 0.0877, -0.0966 -0.1185 0.0868, -0.0939 -0.1185 0.0809, -0.1106 -0.1185 0.1079, -0.1085 -0.1185 0.109, -0.109 -0.1185 0.1149, -0.103 -0.1185 0.1152, -0.1001 -0.1185 0.1082, -0.0986 -0.1185 0.1113, -0.0772 -0.1185 0.0961, -0.0802 -0.1185 0.1011, -0.0905 -0.1185 0.0891, -0.0929 -0.1185 0.0945, -0.0905 -0.1185 0.0881, -0.0906 -0.1185 0.0871, -0.0923 -0.1185 0.0826, -0.0912 -0.1185 0.0847, -0.1052 -0.1185 0.1154, -0.0965 -0.1185 0.0886, -0.0967 -0.1185 0.0895, -0.0741 -0.1185 0.1055, -0.0733 -0.1185 0.1055, -0.0695 -0.1185 0.1106, -0.0716 -0.1185 0.1053, -0.069 -0.1185 0.1105, -0.0699 -0.1185 0.1046, -0.0662 -0.1185 0.1091, -0.0636 -0.1185 0.1069, -0.1011 -0.1185 0.1174, -0.0965 -0.1185 0.1138, -0.0989 -0.1185 0.1194, -0.094 -0.1185 0.1156, -0.0966 -0.1185 0.1208, -0.1108 -0.1185 0.0926, -0.1102 -0.1185 0.0855, -0.1089 -0.1185 0.0915, -0.109 -0.1185 0.0851, -0.1082 -0.1185 0.0832, -0.1062 -0.1185 0.1096, -0.1051 -0.1185 0.1097, -0.1041 -0.1185 0.1153, -0.1031 -0.1185 0.1095, -0.101 -0.1185 0.1087, -0.101 -0.1185 0.0844, -0.1018 -0.1185 0.0848, -0.105 -0.1185 0.08, -0.1026 -0.1185 0.0853, -0.1032 -0.1185 0.086, -0.1036 -0.1185 0.0868, -0.1068 -0.1185 0.0815, -0.1028 -0.1185 0.0791, -0.1006 -0.1185 0.0787, -0.1001 -0.1185 0.0843, -0.1 -0.1185 0.0786, -0.0992 -0.1185 0.0845, -0.0979 -0.1185 0.0789, -0.0984 -0.1185 0.0848, -0.0958 -0.1185 0.0796, -0.0976 -0.1185 0.0853, -0.097 -0.1185 0.086, -0.0684 -0.1185 0.1036, -0.0673 -0.1185 0.1024, -0.0617 -0.1185 0.1042, -0.0664 -0.1185 0.1007, -0.0605 -0.1185 0.1013, -0.0601 -0.1185 0.0982, -0.066 -0.1185 0.0989, -0.0659 -0.1185 0.0981, -0.0605 -0.1185 0.0948, -0.0662 -0.1185 0.0963, -0.0617 -0.1185 0.0918, -0.0668 -0.1185 0.0946, -0.0636 -0.1185 0.0892, -0.1125 -0.1185 0.1135, -0.1155 -0.1185 0.1114, -0.1124 -0.1185 0.1063, -0.1161 -0.1185 0.1108, -0.1136 -0.1185 0.1044, -0.1184 -0.1185 0.1079, -0.1144 -0.1185 0.1022, -0.0679 -0.1185 0.0931, -0.068 -0.1185 0.0929, -0.0662 -0.1185 0.087, -0.0694 -0.1185 0.0918, -0.069 -0.1185 0.0856, -0.0711 -0.1185 0.091, -0.0722 -0.1185 0.0849, -0.0728 -0.1185 0.0907, -0.0778 -0.1185 0.0849, -0.077 -0.1185 0.0907, -0.0783 -0.1185 0.085, -0.0746 -0.1185 0.1181, -0.0783 -0.1185 0.1138, -0.0715 -0.1185 0.1145, -0.0762 -0.1185 0.1112, -0.0747 -0.1185 0.1082, -0.1038 -0.1185 0.0877, -0.1038 -0.1185 0.0886, -0.1088 -0.1185 0.0917, -0.1035 -0.1185 0.0895, -0.1077 -0.1185 0.0937, -0.103 -0.1185 0.0903, -0.1061 -0.1185 0.0954, -0.1026 -0.1185 0.0908, -0.1042 -0.1185 0.0967, -0.1018 -0.1185 0.0913, -0.1021 -0.1185 0.0975, -0.101 -0.1185 0.0916, -0.1 -0.1185 0.0977, -0.1001 -0.1185 0.0917, -0.0987 -0.1185 0.0976, -0.0995 -0.1185 0.0917, -0.0964 -0.1185 0.097, -0.0986 -0.1185 0.0914, -0.0944 -0.1185 0.0959, -0.0978 -0.1185 0.0909, -0.0971 -0.1185 0.0903, -0.0922 -0.1185 0.1225, -0.0909 -0.1185 0.1169, -0.0875 -0.1185 0.1231, -0.0874 -0.1185 0.1174, -0.0836 -0.1185 0.1226, -0.0842 -0.1185 0.117, -0.0788 -0.1185 0.121, -0.0812 -0.1185 0.1158, -0.0785 -0.1185 0.114, -0.1199 -0.1185 0.1045, -0.1206 -0.1185 0.1009, -0.1146 -0.1185 0.1002, -0.1206 -0.1185 0.1, -0.1145 -0.1185 0.0986, -0.1201 -0.1185 0.0963, -0.1138 -0.1185 0.0963, -0.1188 -0.1185 0.0927, -0.1125 -0.1185 0.0942, -0.1166 -0.1185 0.0897, -0.1137 -0.1185 0.0871, -0.0775 -0.1185 0.0908, -0.0798 -0.1185 0.0859, -0.0795 -0.1185 0.0856, -0.0806 -0.1185 0.0878, -0.0805 -0.1185 0.0872, -0.0802 -0.1185 0.0865, -0.0772 -0.1185 0.0907, -0.0789 -0.1185 0.0852, -0.0783 -0.1185 0.0907, -0.079 -0.1185 0.0905, -0.0805 -0.1185 0.0881, -0.0796 -0.1185 0.09, -0.08 -0.1185 0.0895, -0.0804 -0.1185 0.0889, -0.0776 -0.1185 0.0908, -0.063 -0.1181 0.106, -0.0617 -0.1181 0.1042, -0.0608 -0.1181 0.1021, -0.0605 -0.1181 0.1013, -0.0601 -0.1181 0.0982, -0.0636 -0.1181 0.1069, -0.0662 -0.1181 0.1091, -0.069 -0.1181 0.1105, -0.0695 -0.1181 0.1106, -0.0715 -0.1181 0.1145, -0.0746 -0.1181 0.1181, -0.0768 -0.1181 0.1196, -0.0788 -0.1181 0.121, -0.0836 -0.1181 0.1226, -0.0875 -0.1181 0.1231, -0.0922 -0.1181 0.1225, -0.0966 -0.1181 0.1208, -0.0985 -0.1181 0.1196, -0.0989 -0.1181 0.1194, -0.1011 -0.1181 0.1174, -0.103 -0.1181 0.1152, -0.1041 -0.1181 0.1153, -0.1052 -0.1181 0.1154, -0.109 -0.1181 0.1149, -0.1125 -0.1181 0.1135, -0.1155 -0.1181 0.1114, -0.1161 -0.1181 0.1108, -0.1206 -0.1181 0.1, -0.1184 -0.1181 0.1079, -0.1193 -0.1181 0.106, -0.1199 -0.1181 0.1045, -0.1204 -0.1181 0.1021, -0.1206 -0.1181 0.1009, -0.1201 -0.1181 0.0963, -0.1188 -0.1181 0.0927, -0.1166 -0.1181 0.0897, -0.1137 -0.1181 0.0871, -0.1102 -0.1181 0.0855, -0.109 -0.1181 0.0851, -0.1089 -0.1181 0.0848, -0.1082 -0.1181 0.0832, -0.1068 -0.1181 0.0815, -0.105 -0.1181 0.08, -0.1039 -0.1181 0.0796, -0.1028 -0.1181 0.0791, -0.1006 -0.1181 0.0787, -0.1 -0.1181 0.0786, -0.0905 -0.1181 0.0881, -0.0979 -0.1181 0.0789, -0.096 -0.1181 0.0796, -0.0958 -0.1181 0.0796, -0.0939 -0.1181 0.0809, -0.0923 -0.1181 0.0826, -0.0912 -0.1181 0.0847, -0.0911 -0.1181 0.0848, -0.0906 -0.1181 0.0871, -0.0905 -0.1181 0.0891, -0.0772 -0.1181 0.0961, -0.0802 -0.1181 0.1011, -0.0929 -0.1181 0.0945, -0.0944 -0.1181 0.0959, -0.0964 -0.1181 0.097, -0.0987 -0.1181 0.0976, -0.1 -0.1181 0.0977, -0.1021 -0.1181 0.0975, -0.1042 -0.1181 0.0967, -0.1061 -0.1181 0.0954, -0.1077 -0.1181 0.0937, -0.1088 -0.1181 0.0917, -0.1089 -0.1181 0.0915, -0.1108 -0.1181 0.0926, -0.1125 -0.1181 0.0942, -0.1138 -0.1181 0.0963, -0.1145 -0.1181 0.0986, -0.1146 -0.1181 0.1002, -0.1144 -0.1181 0.1021, -0.1144 -0.1181 0.1022, -0.1136 -0.1181 0.1044, -0.1126 -0.1181 0.106, -0.1124 -0.1181 0.1063, -0.1106 -0.1181 0.1079, -0.1085 -0.1181 0.109, -0.1062 -0.1181 0.1096, -0.1051 -0.1181 0.1097, -0.1031 -0.1181 0.1095, -0.101 -0.1181 0.1087, -0.1001 -0.1181 0.1082, -0.0986 -0.1181 0.1113, -0.0965 -0.1181 0.1138, -0.094 -0.1181 0.1156, -0.0909 -0.1181 0.1169, -0.0874 -0.1181 0.1174, -0.0842 -0.1181 0.117, -0.0812 -0.1181 0.1158, -0.0785 -0.1181 0.114, -0.0783 -0.1181 0.1138, -0.0762 -0.1181 0.1112, -0.0747 -0.1181 0.1082, -0.0742 -0.1181 0.106, -0.0741 -0.1181 0.1055, -0.0733 -0.1181 0.1055, -0.0716 -0.1181 0.1053, -0.0699 -0.1181 0.1046, -0.0684 -0.1181 0.1036, -0.0673 -0.1181 0.1024, -0.0672 -0.1181 0.1021, -0.0664 -0.1181 0.1007, -0.066 -0.1181 0.0989, -0.0659 -0.1181 0.0981, -0.0662 -0.1181 0.0963, -0.0668 -0.1181 0.0946, -0.0679 -0.1181 0.0931, -0.068 -0.1181 0.0929, -0.0694 -0.1181 0.0918, -0.0711 -0.1181 0.091, -0.0728 -0.1181 0.0907, -0.077 -0.1181 0.0907, -0.0772 -0.1181 0.0907, -0.0775 -0.1181 0.0908, -0.0776 -0.1181 0.0908, -0.0783 -0.1181 0.0907, -0.079 -0.1181 0.0905, -0.0796 -0.1181 0.09, -0.08 -0.1181 0.0895, -0.0804 -0.1181 0.0889, -0.0805 -0.1181 0.0881, -0.0806 -0.1181 0.0878, -0.0805 -0.1181 0.0872, -0.0802 -0.1181 0.0865, -0.0798 -0.1181 0.0859, -0.0795 -0.1181 0.0856, -0.0789 -0.1181 0.0852, -0.0783 -0.1181 0.085, -0.0778 -0.1181 0.0849, -0.0722 -0.1181 0.0849, -0.069 -0.1181 0.0856, -0.0662 -0.1181 0.087, -0.0636 -0.1181 0.0892, -0.0617 -0.1181 0.0918, -0.0605 -0.1181 0.0948, -0.1001 -0.1181 0.0917, -0.0995 -0.1181 0.0917, -0.0986 -0.1181 0.0914, -0.0978 -0.1181 0.0909, -0.0971 -0.1181 0.0903, -0.0967 -0.1181 0.0895, -0.0965 -0.1181 0.0886, -0.0964 -0.1181 0.0877, -0.0966 -0.1181 0.0868, -0.097 -0.1181 0.086, -0.0976 -0.1181 0.0853, -0.0984 -0.1181 0.0848, -0.0992 -0.1181 0.0845, -0.1001 -0.1181 0.0843, -0.101 -0.1181 0.0844, -0.1018 -0.1181 0.0848, -0.1026 -0.1181 0.0853, -0.1032 -0.1181 0.086, -0.1036 -0.1181 0.0868, -0.1038 -0.1181 0.0877, -0.1038 -0.1181 0.0886, -0.1035 -0.1181 0.0895, -0.103 -0.1181 0.0903, -0.1026 -0.1181 0.0908, -0.1018 -0.1181 0.0913, -0.101 -0.1181 0.0916, -0.101 -0.1181 0.0916
            ]
        }
        coordIndex [
            0,1,2,-1,3,4,5,-1,6,7,8,-1,9,10,11,-1,11,10,12,-1,11,12,13,-1,13,12,2,-1,13,2,14,-1,14,2,15,-1,14,15,16,-1,5,4,17,-1,0,2,18,-1,18,2,12,-1,18,12,19,-1,20,21,22,-1,22,21,23,-1,22,23,24,-1,24,23,25,-1,24,25,26,-1,26,25,27,-1,6,8,28,-1,28,8,29,-1,28,29,30,-1,30,29,31,-1,30,31,32,-1,33,34,35,-1,35,34,36,-1,35,36,37,-1,4,38,17,-1,17,38,39,-1,17,39,40,-1,40,39,41,-1,40,41,6,-1,6,41,42,-1,6,42,7,-1,43,44,45,-1,45,44,46,-1,45,46,47,-1,47,48,45,-1,45,48,35,-1,45,35,49,-1,49,35,37,-1,45,50,43,-1,43,50,51,-1,43,51,52,-1,52,51,53,-1,52,53,54,-1,54,53,55,-1,54,55,56,-1,56,55,57,-1,56,57,58,-1,58,57,2,-1,58,2,59,-1,59,2,1,-1,25,60,27,-1,27,60,61,-1,27,61,62,-1,62,61,63,-1,62,63,64,-1,64,63,65,-1,63,66,65,-1,65,66,67,-1,65,67,68,-1,68,67,69,-1,68,69,70,-1,70,69,71,-1,70,71,72,-1,5,73,3,-1,3,73,74,-1,3,74,75,-1,75,74,76,-1,75,76,77,-1,77,76,78,-1,77,78,79,-1,71,80,72,-1,72,80,81,-1,72,81,82,-1,82,81,83,-1,82,83,84,-1,84,83,85,-1,84,85,86,-1,86,85,87,-1,86,87,88,-1,88,87,89,-1,88,89,90,-1,91,92,93,-1,93,92,94,-1,93,94,22,-1,22,94,95,-1,22,95,20,-1,48,96,35,-1,35,96,97,-1,35,97,98,-1,98,97,99,-1,98,99,100,-1,100,99,101,-1,100,101,102,-1,102,101,103,-1,102,103,104,-1,104,103,105,-1,104,105,106,-1,106,105,107,-1,106,107,108,-1,108,107,109,-1,108,109,110,-1,110,109,111,-1,110,111,112,-1,112,111,113,-1,112,113,114,-1,114,113,115,-1,114,115,12,-1,12,115,116,-1,12,116,19,-1,32,31,117,-1,117,31,118,-1,117,118,119,-1,119,118,120,-1,119,120,121,-1,121,120,122,-1,121,122,123,-1,123,122,124,-1,123,124,91,-1,91,124,125,-1,91,125,92,-1,78,126,79,-1,79,126,127,-1,79,127,128,-1,128,127,129,-1,128,129,130,-1,130,129,131,-1,130,131,132,-1,132,131,133,-1,132,133,134,-1,134,133,135,-1,134,135,33,-1,33,135,136,-1,33,136,34,-1,137,138,139,-1,140,141,137,-1,137,141,142,-1,137,142,138,-1,89,143,90,-1,90,143,137,-1,90,137,144,-1,144,137,139,-1,145,146,147,-1,146,148,147,-1,147,148,149,-1,147,149,150,-1,140,137,147,-1,147,137,151,-1,147,151,145,-1,152,27,153,-1,153,27,62,-1,153,62,154,-1,154,62,64,-1,154,64,155,-1,155,64,65,-1,155,65,156,-1,152,157,27,-1,27,157,158,-1,27,158,26,-1,26,158,159,-1,26,159,24,-1,24,159,160,-1,24,160,22,-1,22,160,161,-1,22,161,93,-1,93,161,162,-1,93,162,91,-1,123,91,163,-1,163,91,162,-1,163,164,123,-1,123,164,165,-1,123,165,121,-1,121,165,166,-1,121,166,119,-1,119,166,167,-1,119,167,117,-1,117,167,168,-1,117,168,32,-1,32,168,30,-1,30,168,169,-1,30,169,170,-1,30,170,171,-1,30,171,28,-1,28,171,172,-1,28,172,6,-1,6,172,173,-1,6,173,40,-1,40,173,174,-1,40,174,17,-1,17,174,175,-1,17,175,5,-1,5,175,176,-1,5,176,73,-1,73,176,177,-1,73,177,74,-1,74,177,178,-1,74,178,76,-1,179,129,127,-1,76,178,180,-1,76,180,78,-1,78,180,181,-1,78,181,126,-1,181,182,126,-1,126,182,183,-1,126,183,127,-1,127,183,184,-1,127,184,179,-1,129,179,185,-1,129,185,131,-1,131,185,186,-1,131,186,133,-1,133,186,187,-1,133,187,135,-1,135,187,188,-1,135,188,136,-1,136,188,189,-1,136,189,34,-1,34,189,190,-1,34,190,36,-1,36,190,191,-1,36,191,37,-1,191,192,37,-1,37,192,193,-1,37,193,49,-1,49,193,194,-1,49,194,45,-1,45,194,195,-1,45,195,50,-1,195,196,50,-1,50,196,197,-1,50,197,51,-1,51,197,198,-1,51,198,53,-1,199,13,14,-1,53,198,200,-1,53,200,55,-1,55,200,201,-1,55,201,57,-1,201,202,57,-1,57,202,203,-1,57,203,2,-1,2,203,204,-1,2,204,15,-1,15,204,205,-1,15,205,16,-1,16,205,206,-1,16,206,14,-1,14,206,207,-1,14,207,199,-1,11,13,208,-1,208,13,199,-1,9,11,209,-1,209,11,208,-1,10,9,210,-1,210,9,209,-1,12,10,211,-1,211,10,210,-1,12,211,212,-1,12,212,114,-1,114,212,213,-1,114,213,112,-1,112,213,214,-1,112,214,110,-1,110,214,215,-1,110,215,108,-1,108,215,216,-1,108,216,106,-1,106,216,217,-1,106,217,104,-1,104,217,218,-1,104,218,102,-1,102,218,219,-1,102,219,100,-1,100,219,220,-1,100,220,98,-1,98,220,221,-1,98,221,35,-1,35,221,222,-1,35,222,33,-1,33,222,223,-1,33,223,134,-1,134,223,224,-1,134,224,132,-1,132,224,225,-1,132,225,130,-1,130,225,226,-1,130,226,128,-1,128,226,227,-1,128,227,79,-1,79,227,228,-1,79,228,229,-1,230,75,229,-1,229,75,77,-1,229,77,79,-1,230,231,75,-1,75,231,232,-1,75,232,3,-1,3,232,233,-1,3,233,4,-1,4,233,234,-1,4,234,38,-1,38,234,235,-1,38,235,39,-1,39,235,236,-1,39,236,41,-1,41,236,237,-1,41,237,42,-1,42,237,238,-1,42,238,7,-1,7,238,239,-1,7,239,8,-1,8,239,240,-1,8,240,29,-1,29,240,241,-1,29,241,31,-1,31,241,242,-1,31,242,118,-1,118,242,243,-1,118,243,120,-1,120,243,244,-1,120,244,122,-1,122,244,245,-1,122,245,124,-1,124,245,246,-1,124,246,125,-1,125,246,247,-1,125,247,92,-1,92,247,248,-1,92,248,94,-1,94,248,249,-1,94,249,95,-1,95,249,20,-1,20,249,250,-1,20,250,251,-1,21,20,252,-1,252,20,251,-1,21,252,253,-1,21,253,23,-1,23,253,254,-1,23,254,25,-1,25,254,255,-1,25,255,60,-1,60,255,256,-1,60,256,61,-1,61,256,257,-1,61,257,63,-1,257,258,63,-1,63,258,259,-1,63,259,66,-1,66,259,260,-1,66,260,67,-1,67,260,261,-1,67,261,69,-1,69,261,262,-1,69,262,71,-1,71,262,263,-1,71,263,80,-1,80,263,264,-1,80,264,81,-1,81,264,265,-1,81,265,83,-1,83,265,266,-1,83,266,85,-1,85,266,267,-1,85,267,87,-1,89,87,268,-1,268,87,267,-1,89,268,269,-1,89,269,143,-1,143,269,270,-1,143,270,137,-1,137,270,271,-1,137,271,151,-1,151,271,272,-1,151,272,145,-1,145,272,273,-1,145,273,146,-1,146,273,274,-1,146,274,148,-1,148,274,275,-1,148,275,149,-1,149,275,276,-1,149,276,150,-1,150,276,277,-1,150,277,147,-1,147,277,278,-1,147,278,140,-1,140,278,279,-1,140,279,141,-1,141,279,280,-1,141,280,142,-1,142,280,281,-1,142,281,138,-1,138,281,282,-1,138,282,139,-1,139,282,283,-1,139,283,144,-1,144,283,284,-1,144,284,90,-1,90,284,285,-1,90,285,88,-1,86,88,286,-1,286,88,285,-1,86,286,287,-1,86,287,84,-1,84,287,288,-1,84,288,82,-1,82,288,289,-1,82,289,72,-1,72,289,290,-1,72,290,70,-1,70,290,291,-1,70,291,68,-1,68,291,156,-1,68,156,65,-1,109,292,293,-1,109,293,111,-1,111,293,294,-1,111,294,113,-1,113,294,295,-1,113,295,115,-1,115,295,296,-1,115,296,116,-1,116,296,297,-1,116,297,19,-1,19,297,298,-1,19,298,18,-1,18,298,299,-1,18,299,0,-1,0,299,300,-1,0,300,1,-1,1,300,301,-1,1,301,59,-1,59,301,302,-1,59,302,58,-1,58,302,303,-1,58,303,56,-1,56,303,304,-1,56,304,54,-1,54,304,305,-1,54,305,52,-1,52,305,306,-1,52,306,43,-1,43,306,307,-1,43,307,44,-1,44,307,308,-1,44,308,46,-1,46,308,309,-1,46,309,47,-1,47,309,310,-1,47,310,48,-1,48,310,311,-1,48,311,96,-1,96,311,312,-1,96,312,97,-1,97,312,313,-1,97,313,99,-1,99,313,314,-1,99,314,101,-1,101,314,315,-1,101,315,103,-1,103,315,316,-1,103,316,105,-1,105,316,317,-1,105,317,107,-1,107,317,292,-1,107,292,109,-1,
        ]
    }
}
Shape{
    appearance Appearance {
        material  Material 	{
            diffuseColor 0.25098039215686274 0.25098039215686274 0.25098039215686274
            specularColor 0.12549019607843137 0.12549019607843137 0.12549019607843137
            ambientIntensity 0.2
            transparency 0
            shininess 0.5
        }
    }
    geometry IndexedFaceSet {
        ccw TRUE
        solid FALSE
        coord DEF co Coordinate {
            point [
                -0.1001 -0.1181 0.0843, -0.1026 -0.1181 0.0908, -0.103 -0.1181 0.0903, -0.1001 -0.1181 0.0917, -0.0995 -0.1181 0.0917, -0.0992 -0.1181 0.0845, -0.101 -0.1181 0.0916, -0.1018 -0.1181 0.0913, -0.0976 -0.1181 0.0853, -0.0971 -0.1181 0.0903, -0.0978 -0.1181 0.0909, -0.1036 -0.1181 0.0868, -0.1032 -0.1181 0.086, -0.1026 -0.1181 0.0853, -0.0984 -0.1181 0.0848, -0.0986 -0.1181 0.0914, -0.1035 -0.1181 0.0895, -0.1038 -0.1181 0.0886, -0.1038 -0.1181 0.0877, -0.1018 -0.1181 0.0848, -0.101 -0.1181 0.0844, -0.0966 -0.1181 0.0868, -0.0964 -0.1181 0.0877, -0.097 -0.1181 0.086, -0.0965 -0.1181 0.0886, -0.0967 -0.1181 0.0895, -0.0967 -0.1181 0.0895
            ]
        }
        coordIndex [
            0,1,2,-1,3,0,4,-1,4,0,5,-1,3,6,0,-1,0,6,7,-1,0,7,1,-1,8,9,10,-1,11,12,2,-1,2,12,13,-1,5,14,4,-1,4,14,8,-1,4,8,15,-1,15,8,10,-1,16,17,2,-1,2,17,18,-1,2,18,11,-1,13,19,2,-1,2,19,20,-1,2,20,0,-1,21,22,23,-1,23,22,24,-1,23,24,8,-1,8,24,25,-1,8,25,9,-1,
        ]
    }
}