#VRML V2.0 utf8
# 3D model generated by easyeda2kicad.py (https://github.com/uPesy/easyeda2kicad.py)

Shape{
    appearance Appearance {
        material  Material 	{
            diffuseColor 0.25098039215686274 0.25098039215686274 0.25098039215686274
            specularColor 0.12549019607843137 0.12549019607843137 0.12549019607843137
            ambientIntensity 0.2
            transparency 0
            shininess 0.5
        }
    }
    geometry IndexedFaceSet {
        ccw TRUE
        solid FALSE
        coord DEF co Coordinate {
            point [
                0.565 -0.0585 0.346, 0.565 -0.0585 0.2751, 0.565 -0.0267 0.2751, 0.565 0.7079 0.0, 0.565 1.063 0.0, 0.565 1.063 0.1065, 0.565 0.2785 0.0, 0.565 0.7079 0.1065, 0.565 0.2035 0.0, 0.565 0.2785 0.1065, 0.565 0.0672 0.1385, 0.565 0.0651 0.1382, 0.565 0.0846 0.1382, 0.565 0.1529 0.219, 0.565 0.1782 0.219, 0.565 0.1782 0.2418, 0.565 -0.3206 0.1388, 0.565 -0.3208 0.1382, 0.565 -0.1017 0.1382, 0.565 -0.1712 0.2837, 0.565 -0.1558 0.2706, 0.565 -0.1017 0.3467, 0.565 -0.1017 0.2653, 0.565 -0.2469 0.355, 0.565 -0.2346 0.3467, 0.565 -0.2216 0.3379, 0.565 -0.2029 0.3163, 0.565 -0.1908 0.2929, 0.565 -0.1882 0.292, 0.565 -0.3534 0.3539, 0.565 -0.3272 0.364, 0.565 -1.063 0.5906, 0.565 -0.1017 0.5906, 0.565 -0.299 0.3675, 0.565 -0.2755 0.365, 0.565 -0.365 0.3467, 0.565 -1.063 0.3467, 0.565 -0.3673 0.3453, 0.565 -1.063 0.2653, 0.565 -0.4896 0.2653, 0.565 -0.4847 0.2764, 0.565 -0.4709 0.2941, 0.565 -0.4279 0.3186, 0.565 -0.4054 0.3214, 0.565 -0.3807 0.3338, 0.565 -0.3989 0.321, 0.565 -0.3923 0.3202, 0.565 -0.4671 0.2976, 0.565 -0.449 0.3104, 0.565 -0.4561 0.152, 0.565 -0.4738 0.1671, 0.565 -1.063 0.1382, 0.565 -0.4355 0.142, 0.565 -0.4867 0.1855, 0.565 -0.4949 0.2067, 0.565 -1.063 0.2418, 0.565 -0.4977 0.2292, 0.565 -0.4975 0.2345, 0.565 -0.4962 0.2418, 0.565 -0.4937 0.2559, 0.565 -0.403 0.1088, 0.565 -0.4141 0.1172, 0.565 -0.4282 0.1398, 0.565 -0.4275 0.1382, 0.565 -0.4225 0.1276, 0.565 -0.3977 0.1065, 0.565 -1.063 0.1065, 0.565 -0.3898 0.1032, 0.565 -1.063 0.0, 0.565 -0.3764 0.1011, 0.565 -0.1017 0.0, 0.565 -0.3741 0.1011, 0.565 -0.1017 0.1065, 0.565 -0.3271 0.126, 0.565 -0.3365 0.1153, 0.565 -0.3479 0.1075, 0.565 -0.3505 0.1065, 0.565 -0.3606 0.1027, 0.565 -0.1371 0.2371, 0.565 -0.1345 0.2183, 0.565 -0.1017 0.2418, 0.565 -0.3314 0.1961, 0.565 -0.2551 0.236, 0.565 -0.3413 0.2052, 0.565 -0.3534 0.2117, 0.565 -0.2461 0.1398, 0.565 -0.2501 0.142, 0.565 -0.2534 0.1451, 0.565 -0.17 0.2226, 0.565 -0.1727 0.2336, 0.565 -0.1771 0.2418, 0.565 -0.4604 0.2418, 0.565 -0.4572 0.2079, 0.565 -0.4499 0.1956, 0.565 -0.4212 0.1903, 0.565 -0.4396 0.1852, 0.565 -0.4276 0.1779, 0.565 -0.251 0.1698, 0.565 -0.2474 0.1722, 0.565 -0.2375 0.2058, 0.565 -0.2435 0.1735, 0.565 -0.4001 0.2091, 0.565 -0.4118 0.2011, 0.565 -0.4618 0.2303, 0.565 -0.4612 0.2219, 0.565 -0.1442 0.1801, 0.565 -0.1555 0.1643, 0.565 -0.1709 0.1512, 0.565 -0.1883 0.1427, 0.565 -0.137 0.1981, 0.565 -0.2398 0.1739, 0.565 -0.2392 0.1739, 0.565 -0.2375 0.1735, 0.565 -0.3875 0.2139, 0.565 -0.3741 0.2155, 0.565 -0.3672 0.2151, 0.565 -0.2073 0.1386, 0.565 -0.2409 0.1386, 0.565 -0.2422 0.1388, 0.565 -0.2574 0.1563, 0.565 -0.2573 0.1583, 0.565 -0.3172 0.1637, 0.565 -0.2562 0.1627, 0.565 -0.254 0.1666, 0.565 -0.2557 0.1488, 0.565 -0.257 0.1527, 0.565 -0.3174 0.1529, 0.565 -0.3172 0.158, 0.565 -0.1813 0.1877, 0.565 -0.175 0.1966, 0.565 -0.1711 0.2067, 0.565 -0.1698 0.2178, 0.565 -0.2364 0.1734, 0.565 -0.2107 0.1734, 0.565 -0.2006 0.1753, 0.565 -0.1906 0.1799, 0.565 -0.1821 0.1868, 0.565 -0.2187 0.2622, 0.565 -0.4554 0.2565, 0.565 -0.4602 0.2438, 0.565 -0.2142 0.2622, 0.565 -0.1779 0.2434, 0.565 -0.1846 0.2509, 0.565 -0.1934 0.257, 0.565 -0.2034 0.2608, 0.565 -0.2312 0.2967, 0.565 -0.2441 0.312, 0.565 -0.3747 0.2787, 0.565 -0.2452 0.3129, 0.565 -0.2611 0.3241, 0.565 -0.3659 0.2968, 0.565 -0.4493 0.2653, 0.565 -0.3791 0.2811, 0.565 -0.2194 0.2653, 0.565 -0.2223 0.2784, 0.565 -0.3919 0.2856, 0.565 -0.4049 0.2872, 0.565 -0.41 0.287, 0.565 -0.3532 0.312, 0.565 -0.279 0.3309, 0.565 -0.3381 0.323, 0.565 -0.2984 0.3333, 0.565 -0.3195 0.3306, 0.565 -0.4241 0.2839, 0.565 -0.4369 0.2773, 0.565 -0.4475 0.2679, 0.565 -0.1519 0.2653, 0.565 -0.1441 0.2545, 0.565 -0.139 0.2418, 0.565 0.1959 0.148, 0.565 0.1959 0.1389, 0.565 0.2035 0.1382, 0.565 0.2035 0.2418, 0.565 0.1941 0.219, 0.565 0.1941 0.2098, 0.565 0.1632 0.175, 0.565 0.1632 0.148, 0.565 0.1782 0.175, 0.565 0.1782 0.148, 0.565 0.1918 0.175, 0.565 0.1918 0.1841, 0.565 0.1632 0.2098, 0.565 0.1632 0.1841, 0.565 0.1782 0.2098, 0.565 0.1782 0.1841, 0.565 0.1782 0.1382, 0.565 0.1782 0.1389, 0.565 0.1529 0.1389, 0.565 0.1133 0.1531, 0.565 0.1145 0.1484, 0.565 0.1148 0.1484, 0.565 0.1421 0.1961, 0.565 0.1032 0.2418, 0.565 0.1317 0.1961, 0.565 0.1032 0.1822, 0.565 0.116 0.153, 0.565 0.1153 0.1504, 0.565 0.0433 0.1513, 0.565 0.0331 0.2418, 0.565 0.0331 0.1382, 0.565 0.0469 0.149, 0.565 0.048 0.1486, 0.565 0.048 0.1698, 0.565 0.0462 0.1716, 0.565 0.0449 0.1738, 0.565 0.0438 0.1769, 0.565 0.0434 0.1807, 0.565 0.0438 0.1843, 0.565 0.0479 0.1699, 0.565 0.0524 0.1382, 0.565 0.0503 0.1385, 0.565 0.048 0.1382, 0.565 0.048 0.1393, 0.565 0.0433 0.1409, 0.565 0.0588 0.1376, 0.565 0.048 0.1065, 0.565 0.0846 0.1065, 0.565 0.0792 0.1949, 0.565 0.0792 0.1851, 0.565 0.0498 0.1929, 0.565 0.0522 0.1943, 0.565 0.048 0.2418, 0.565 0.0815 0.1504, 0.565 0.0802 0.1472, 0.565 0.0783 0.1446, 0.565 0.045 0.1876, 0.565 0.0469 0.1903, 0.565 0.048 0.1912, 0.565 0.0575 0.1964, 0.565 0.0657 0.1974, 0.565 0.0846 0.2418, 0.565 0.0727 0.1968, 0.565 0.0786 0.1639, 0.565 0.0805 0.1611, 0.565 0.0815 0.1582, 0.565 0.0819 0.1545, 0.565 0.0755 0.1421, 0.565 0.0726 0.1404, 0.565 0.0647 0.1893, 0.565 0.0617 0.189, 0.565 0.0537 0.1816, 0.565 0.059 0.1883, 0.565 0.0568 0.1871, 0.565 0.0538 0.1802, 0.565 0.0542 0.1787, 0.565 0.0549 0.1773, 0.565 0.0559 0.1762, 0.565 0.0594 0.174, 0.565 0.0717 0.1884, 0.565 0.0657 0.1713, 0.565 0.0774 0.1862, 0.565 0.0695 0.1698, 0.565 0.0762 0.1661, 0.565 0.0553 0.1858, 0.565 0.0544 0.1845, 0.565 0.0539 0.1832, 0.565 0.0532 0.1466, 0.565 0.0586 0.164, 0.565 0.0526 0.1668, 0.565 0.0598 0.1458, 0.565 0.0603 0.1458, 0.565 0.0652 0.1613, 0.565 0.0654 0.1463, 0.565 0.0716 0.1535, 0.565 0.0716 0.1547, 0.565 0.068 0.1473, 0.565 0.0689 0.1478, 0.565 0.0701 0.1489, 0.565 0.0709 0.1501, 0.565 0.0714 0.1516, 0.565 0.0711 0.1563, 0.565 0.0703 0.1576, 0.565 0.0691 0.1589, 0.565 0.2785 0.2653, 0.565 0.2525 0.2659, 0.565 0.241 0.2659, 0.565 0.2329 0.2878, 0.565 0.2035 0.2878, 0.565 0.2035 0.2653, 0.565 0.222 0.346, 0.565 0.2785 0.3467, 0.565 0.2035 0.3467, 0.565 0.1995 0.2878, 0.565 0.1918 0.2659, 0.565 0.1782 0.2653, 0.565 0.1804 0.2659, 0.565 0.1782 0.3467, 0.565 0.2035 0.3265, 0.565 0.2109 0.346, 0.565 0.0938 0.346, 0.565 0.1032 0.3467, 0.565 0.0846 0.3467, 0.565 0.0629 0.302, 0.565 0.0629 0.2751, 0.565 0.0846 0.302, 0.565 0.0846 0.2751, 0.565 0.0916 0.302, 0.565 0.0957 0.2751, 0.565 0.0916 0.3112, 0.565 0.0938 0.3368, 0.565 0.0846 0.3112, 0.565 0.0846 0.3368, 0.565 0.0629 0.3112, 0.565 0.0629 0.3368, 0.565 0.0526 0.2659, 0.565 0.048 0.2653, 0.565 0.0846 0.2653, 0.565 0.1032 0.2653, 0.565 0.0957 0.2659, 0.565 0.0846 0.2659, 0.565 0.048 0.3467, 0.565 0.0526 0.346, 0.565 0.0846 0.346, 0.565 0.0197 0.2739, 0.565 0.0287 0.2756, 0.565 0.0331 0.3347, 0.565 0.0331 0.2776, 0.565 0.0357 0.3338, 0.565 0.0366 0.2792, 0.565 0.0366 0.3333, 0.565 -0.0032 0.2807, 0.565 0.0021 0.277, 0.565 0.0276 0.3368, 0.565 -0.0051 0.328, 0.565 -0.0089 0.3223, 0.565 -0.0114 0.3152, 0.565 0.0177 0.338, 0.565 0.0146 0.3379, 0.565 -0.0041 0.3291, 0.565 0.0076 0.3366, 0.565 0.0014 0.3337, 0.565 -0.0125 0.3051, 0.565 -0.0124 0.3021, 0.565 -0.0112 0.2941, 0.565 0.0078 0.2748, 0.565 0.0159 0.2738, 0.565 -0.0086 0.2876, 0.565 -0.0047 0.2822, 0.565 0.026 0.3467, 0.565 0.0283 0.3465, 0.565 0.0331 0.3467, 0.565 0.0331 0.3451, 0.565 0.0366 0.3441, 0.565 0.0179 0.3474, 0.565 0.0331 0.5906, 0.565 0.0176 0.3474, 0.565 -0.0198 0.5906, 0.565 0.0121 0.3467, 0.565 -0.0198 0.3467, 0.565 -0.0176 0.328, 0.565 -0.0118 0.3356, 0.565 -0.01 0.3373, 0.565 -0.0025 0.3426, 0.565 0.0059 0.3459, 0.565 -0.0246 0.3467, 0.565 -0.0214 0.3191, 0.565 -0.0198 0.3229, 0.565 -0.0198 0.2862, 0.565 -0.0221 0.2925, 0.565 -0.0246 0.2653, 0.565 -0.0234 0.3045, 0.565 -0.0232 0.3086, 0.565 0.0009 0.2666, 0.565 -0.0067 0.2702, 0.565 -0.0198 0.2653, 0.565 -0.0131 0.2755, 0.565 -0.0144 0.2769, 0.565 -0.019 0.2839, 0.565 0.0074 0.2653, 0.565 -0.0198 0.2418, 0.565 0.0096 0.2648, 0.565 0.0144 0.2646, 0.565 0.0215 0.2653, 0.565 0.0366 0.2693, 0.565 0.0352 0.2686, 0.565 0.0331 0.2653, 0.565 0.0331 0.2679, 0.565 0.0266 0.2658, 0.565 -0.0122 0.1662, 0.565 -0.0106 0.1823, 0.565 -0.0142 0.1633, 0.565 -0.0156 0.1598, 0.565 -0.0198 0.1382, 0.565 -0.0144 0.146, 0.565 -0.0156 0.1493, 0.565 0.015 0.1969, 0.565 0.0193 0.1956, 0.565 0.0197 0.1478, 0.565 0.0194 0.1478, 0.565 0.0197 0.1389, 0.565 0.0171 0.1444, 0.565 0.0138 0.1412, 0.565 -0.0091 0.1688, 0.565 -0.0048 0.171, 0.565 -0.0036 0.1867, 0.565 0.0028 0.1729, 0.565 0.0026 0.1887, 0.565 -0.0084 0.14, 0.565 -0.0113 0.1421, 0.565 -0.0122 0.143, 0.565 0.0226 0.1937, 0.565 0.0253 0.1912, 0.565 0.0273 0.188, 0.565 -0.0106 0.1921, 0.565 -0.0087 0.1932, 0.565 -0.0012 0.1961, 0.565 0.0091 0.1974, 0.565 0.0197 0.1753, 0.565 0.0194 0.1794, 0.565 0.0184 0.1831, 0.565 -0.0162 0.1542, 0.565 -0.0162 0.1554, 0.565 0.0172 0.1852, 0.565 0.0158 0.1868, 0.565 0.014 0.188, 0.565 0.0117 0.1889, 0.565 0.0081 0.1893, 0.565 0.0289 0.1834, 0.565 0.0297 0.1757, 0.565 0.0297 0.1389, 0.565 0.0019 0.1376, 0.565 -0.0198 0.1065, 0.565 0.0075 0.1382, 0.565 0.0331 0.1065, 0.565 -0.0 0.1376, 0.565 -0.0036 0.1382, 0.565 -0.0047 0.1384, 0.565 0.1032 0.1553, 0.565 0.0872 0.1961, 0.565 0.0984 0.1961, 0.565 0.1093 0.1382, 0.565 0.1096 0.139, 0.565 0.1032 0.125, 0.565 0.1032 0.125, 0.565 0.1032 0.1382, 0.565 0.1052 0.1286, 0.565 0.0892 0.1217, 0.565 0.0892 0.1128, 0.565 0.0915 0.121, 0.565 0.0949 0.1206, 0.565 0.0973 0.1208, 0.565 0.1032 0.1137, 0.565 0.0995 0.1124, 0.565 0.1032 0.1065, 0.565 0.0957 0.112, 0.565 0.0922 0.1122, 0.565 0.0995 0.1217, 0.565 0.1014 0.1229, 0.565 0.1161 0.1303, 0.565 0.1128 0.1234, 0.565 0.1782 0.1065, 0.565 0.1192 0.1382, 0.565 0.1085 0.1176, 0.565 0.107 0.1162, 0.565 0.1035 0.1138, 0.565 0.2035 0.1065, 0.565 0.1782 0.0, 0.565 0.1032 0.0, 0.565 0.0846 0.0, 0.565 0.048 0.0, 0.565 0.0331 0.0, 0.565 -0.0198 0.0, 0.565 0.0115 0.1398, 0.565 0.7079 0.1382, 0.565 0.2785 0.1382, 0.565 -0.0689 0.219, 0.565 -0.0689 0.1389, 0.565 -0.0246 0.1382, 0.565 -0.0246 0.1065, 0.565 -0.0246 0.0, 0.565 -0.0276 0.219, 0.565 -0.0246 0.2418, 0.565 -0.0276 0.2098, 0.565 -0.0258 0.148, 0.565 -0.0258 0.1389, 0.565 -0.0585 0.175, 0.565 -0.0585 0.148, 0.565 -0.0299 0.175, 0.565 -0.0299 0.1841, 0.565 -0.0585 0.1841, 0.565 -0.0585 0.2098, 0.565 0.2111 0.1389, 0.565 0.2741 0.1655, 0.565 0.2701 0.1572, 0.565 0.2642 0.1501, 0.565 0.2719 0.1988, 0.565 0.2749 0.1912, 0.565 0.2785 0.2418, 0.565 0.2762 0.18, 0.565 0.276 0.1749, 0.565 0.2559 0.1442, 0.565 0.2468 0.1406, 0.565 0.2331 0.1389, 0.565 0.2111 0.219, 0.565 0.2339 0.219, 0.565 0.2461 0.2176, 0.565 0.2558 0.2141, 0.565 0.2642 0.2084, 0.565 0.2669 0.2057, 0.565 0.2921 0.1389, 0.565 0.2807 0.1389, 0.565 0.3413 0.1389, 0.565 0.3331 0.1608, 0.565 0.2998 0.1608, 0.565 0.3112 0.219, 0.565 0.3222 0.219, 0.565 -0.0689 0.2659, 0.565 -0.0689 0.346, 0.565 -0.0267 0.2659, 0.565 0.1716 0.3258, 0.565 0.1746 0.3182, 0.565 0.176 0.307, 0.565 0.1757 0.3019, 0.565 0.1738 0.2926, 0.565 0.1699 0.2843, 0.565 0.1639 0.2772, 0.565 0.1557 0.2712, 0.565 0.1336 0.346, 0.565 0.1458 0.3447, 0.565 0.1555 0.3411, 0.565 0.1466 0.2676, 0.565 0.1328 0.2659, 0.565 0.1108 0.2659, 0.565 0.1108 0.346, 0.565 0.1639 0.3354, 0.565 0.1666 0.3328, 0.565 0.3527 0.1389, 0.565 0.7079 0.2418, 0.565 0.7079 0.2653, 0.565 0.7079 0.3467, 0.565 1.063 0.1382, 0.565 1.063 0.2418, 0.565 1.063 0.2653, 0.565 1.063 0.3467, 0.565 -0.0246 0.5906, 0.565 1.063 0.5906, 0.565 0.7079 0.5906, 0.565 0.2785 0.5906, 0.565 0.2035 0.5906, 0.565 0.1782 0.5906, 0.565 0.1032 0.5906, 0.565 0.0846 0.5906, 0.565 0.048 0.5906, 0.0154 -0.737 0.6693, 0.1969 -0.689 0.6693, -0.1969 -0.689 0.6693, -0.0133 -0.7554 0.6693, -0.4862 -0.9843 0.6693, -0.4862 0.9843 0.6693, -0.1969 0.689 0.6693, 0.0007 -0.769 0.6693, -0.0174 -0.7812 0.6693, 0.0007 -0.9362 0.6693, -0.0412 -0.7912 0.6693, -0.0449 -0.7922 0.6693, 0.4862 0.9843 0.6693, 0.1969 0.689 0.6693, 0.4862 -0.9843 0.6693, 0.0248 -0.737 0.6693, 0.0248 -0.9362 0.6693, -0.0449 -0.7682 0.6693, 0.0449 0.9066 0.6693, 0.0443 0.9066 0.6693, 0.0473 0.9013 0.6693, 0.0448 0.8956 0.6693, 0.0502 0.8963 0.6693, 0.0238 0.7741 0.6693, 0.0449 0.7741 0.6693, 0.1274 0.7741 0.6693, 0.0238 0.9316 0.6693, 0.0507 0.9316 0.6693, 0.1314 0.9316 0.6693, 0.1525 0.9316 0.6693, 0.1525 0.7741 0.6693, 0.0449 0.8846 0.6693, -0.0235 0.7992 0.6693, -0.0354 0.7871 0.6693, -0.0147 0.8139 0.6693, -0.1398 0.9067 0.6693, -0.1276 0.9188 0.6693, -0.113 0.9273 0.6693, -0.0461 0.9261 0.6693, -0.0324 0.9169 0.6693, -0.0207 0.9037 0.6693, -0.0125 0.888 0.6693, 0.132 0.801 0.6693, 0.1324 0.801 0.6693, 0.1289 0.8065 0.6693, 0.1315 0.8124 0.6693, 0.1256 0.8118 0.6693, 0.1314 0.8238 0.6693, -0.1018 0.7742 0.6693, -0.1166 0.7793 0.6693, -0.1295 0.7875 0.6693, -0.008 0.8705 0.6693, -0.0069 0.8547 0.6693, -0.009 0.8319 0.6693, -0.0971 0.932 0.6693, -0.08 0.9335 0.6693, -0.061 0.9314 0.6693, -0.0484 0.7791 0.6693, -0.0636 0.774 0.6693, -0.0825 0.7722 0.6693, -0.1567 0.851 0.6693, -0.1546 0.8737 0.6693, -0.1487 0.8919 0.6693, -0.1408 0.7992 0.6693, -0.1495 0.8139 0.6693, -0.1549 0.8309 0.6693, -0.1969 -0.348 0.4724, -0.1929 -0.2693 0.4724, -0.1929 0.0457 0.4724, 0.1929 -0.2693 0.4724, 0.1969 -0.348 0.4724, 0.1929 0.0457 0.4724, 0.1969 0.348 0.4724, -0.1969 0.348 0.4724, -0.565 1.063 0.0, -0.4862 0.9843 0.0, -0.565 -1.063 0.0, -0.4862 -0.9843 0.0, -0.0787 -0.9843 0.0, -0.0787 -1.0236 0.0, 0.0787 -1.0236 0.0, 0.0787 -0.9843 0.0, 0.4862 -0.9843 0.0, 0.4862 0.9843 0.0, -0.0787 0.9843 0.0, -0.0787 1.0236 0.0, 0.0787 1.0236 0.0, 0.0787 0.9843 0.0, -0.565 1.063 0.5906, -0.565 -1.063 0.5906, -0.4862 0.9843 0.5906, -0.4862 -0.9843 0.5906, 0.4862 -0.9843 0.5906, 0.4862 0.9843 0.5906, -0.4862 0.9843 -0.2362, -0.4862 -0.9843 -0.2362, 0.0787 0.9843 -0.0591, 0.4862 0.9843 -0.2362, -0.0787 0.9843 -0.0591, 0.4862 -0.9843 -0.2362, -0.0787 -0.9843 -0.0591, 0.0787 -0.9843 -0.0591, 0.0787 -0.9843 -0.0591
            ]
        }
        coordIndex [
            0,1,2,-1,3,4,5,-1,6,3,7,-1,8,6,9,-1,10,11,12,-1,13,14,15,-1,16,17,18,-1,19,20,21,-1,21,20,22,-1,23,24,21,-1,21,24,25,-1,21,25,26,-1,26,27,21,-1,21,27,28,-1,21,28,19,-1,29,30,31,-1,31,30,32,-1,32,30,33,-1,32,33,34,-1,29,31,35,-1,35,31,36,-1,35,36,37,-1,38,39,36,-1,36,39,40,-1,36,40,41,-1,36,42,37,-1,37,42,43,-1,37,43,44,-1,44,43,45,-1,44,45,46,-1,41,47,36,-1,36,47,48,-1,36,48,42,-1,49,50,51,-1,49,51,52,-1,50,53,51,-1,51,53,54,-1,51,54,55,-1,55,54,56,-1,56,57,55,-1,55,57,58,-1,55,58,38,-1,38,58,59,-1,38,59,39,-1,51,60,61,-1,62,52,63,-1,63,52,51,-1,63,51,64,-1,64,51,61,-1,60,51,65,-1,65,51,66,-1,65,66,67,-1,67,66,68,-1,67,68,69,-1,69,68,70,-1,69,70,71,-1,18,17,72,-1,72,17,73,-1,72,73,74,-1,74,75,72,-1,72,75,76,-1,72,76,70,-1,70,76,77,-1,70,77,71,-1,78,79,80,-1,81,82,83,-1,83,82,84,-1,85,86,16,-1,16,86,87,-1,88,89,82,-1,82,89,90,-1,82,90,91,-1,92,93,94,-1,94,93,95,-1,94,95,96,-1,97,98,99,-1,99,98,100,-1,101,91,102,-1,102,91,103,-1,102,103,94,-1,94,103,104,-1,94,104,92,-1,105,106,18,-1,18,106,107,-1,18,107,108,-1,80,79,18,-1,18,79,109,-1,18,109,105,-1,100,110,99,-1,99,110,111,-1,99,111,112,-1,101,113,91,-1,91,113,114,-1,91,114,82,-1,82,114,115,-1,82,115,84,-1,108,116,18,-1,18,116,117,-1,18,117,16,-1,16,117,118,-1,16,118,85,-1,119,120,121,-1,121,120,122,-1,121,122,99,-1,99,122,123,-1,99,123,97,-1,87,124,16,-1,16,124,125,-1,16,125,126,-1,126,125,119,-1,126,119,127,-1,127,119,121,-1,128,129,99,-1,99,129,130,-1,99,130,82,-1,82,130,131,-1,82,131,88,-1,112,132,99,-1,99,132,133,-1,99,133,134,-1,134,135,99,-1,99,135,136,-1,99,136,128,-1,137,138,139,-1,139,91,137,-1,137,91,90,-1,137,90,140,-1,140,90,141,-1,141,142,140,-1,140,142,143,-1,140,143,144,-1,145,146,147,-1,146,148,147,-1,147,148,149,-1,147,149,150,-1,151,147,152,-1,138,137,151,-1,151,137,153,-1,151,153,147,-1,147,153,154,-1,147,154,145,-1,152,155,151,-1,151,155,156,-1,151,156,157,-1,150,149,158,-1,158,149,159,-1,158,159,160,-1,160,159,161,-1,160,161,162,-1,163,164,157,-1,157,164,165,-1,157,165,151,-1,20,166,22,-1,22,166,167,-1,22,167,80,-1,80,167,168,-1,80,168,78,-1,169,170,171,-1,15,14,172,-1,172,14,173,-1,172,173,174,-1,175,176,177,-1,177,176,178,-1,177,178,179,-1,179,178,169,-1,179,169,180,-1,181,182,183,-1,183,182,184,-1,183,184,174,-1,171,170,185,-1,185,170,186,-1,185,186,187,-1,188,189,190,-1,191,192,193,-1,193,192,194,-1,193,194,195,-1,195,194,188,-1,195,188,196,-1,196,188,190,-1,197,198,199,-1,200,201,202,-1,203,204,197,-1,204,205,197,-1,197,205,206,-1,197,206,198,-1,198,206,207,-1,200,202,197,-1,197,202,208,-1,197,208,203,-1,209,210,211,-1,211,210,212,-1,211,212,199,-1,199,212,213,-1,199,213,197,-1,214,215,11,-1,11,215,216,-1,11,216,12,-1,217,218,12,-1,219,220,221,-1,222,223,12,-1,12,223,224,-1,207,225,198,-1,198,225,226,-1,198,226,221,-1,221,226,227,-1,221,227,219,-1,220,228,221,-1,221,228,229,-1,221,229,230,-1,230,229,231,-1,230,231,217,-1,232,233,218,-1,218,233,234,-1,218,234,12,-1,12,234,235,-1,12,235,222,-1,224,236,12,-1,12,236,237,-1,12,237,10,-1,238,239,240,-1,240,239,241,-1,240,241,242,-1,240,243,238,-1,238,243,244,-1,238,244,245,-1,245,246,238,-1,238,246,247,-1,238,247,248,-1,248,247,249,-1,248,249,250,-1,250,249,251,-1,250,251,218,-1,218,251,252,-1,218,252,232,-1,253,254,242,-1,242,254,255,-1,242,255,240,-1,256,257,201,-1,201,257,258,-1,201,258,202,-1,256,259,257,-1,257,259,260,-1,257,260,261,-1,261,260,262,-1,261,263,264,-1,262,265,261,-1,261,265,266,-1,261,266,267,-1,267,268,261,-1,261,268,269,-1,261,269,263,-1,264,270,261,-1,261,270,271,-1,261,271,272,-1,273,274,275,-1,276,277,275,-1,275,277,278,-1,275,278,273,-1,274,273,279,-1,279,273,280,-1,279,280,281,-1,277,282,278,-1,278,282,283,-1,278,283,284,-1,284,283,285,-1,284,285,286,-1,286,285,287,-1,286,287,281,-1,281,287,288,-1,281,288,279,-1,289,290,291,-1,292,293,294,-1,294,293,295,-1,294,295,296,-1,296,295,297,-1,296,297,298,-1,298,297,299,-1,298,299,300,-1,300,299,301,-1,300,301,302,-1,302,301,303,-1,304,305,306,-1,289,299,290,-1,290,299,297,-1,290,297,307,-1,307,297,308,-1,307,308,306,-1,306,308,309,-1,306,309,304,-1,310,311,291,-1,291,311,312,-1,291,312,289,-1,313,314,315,-1,315,314,316,-1,315,316,317,-1,317,316,318,-1,317,318,319,-1,319,318,305,-1,319,305,310,-1,310,305,304,-1,310,304,311,-1,315,320,321,-1,322,323,315,-1,315,323,324,-1,315,324,325,-1,322,326,323,-1,323,326,327,-1,323,327,328,-1,328,327,329,-1,328,329,330,-1,325,331,315,-1,315,331,332,-1,315,332,333,-1,321,334,315,-1,315,334,335,-1,315,335,313,-1,333,336,315,-1,315,336,337,-1,315,337,320,-1,338,339,340,-1,340,339,341,-1,340,341,310,-1,310,341,342,-1,310,342,319,-1,343,344,345,-1,345,344,346,-1,345,346,347,-1,348,349,350,-1,350,351,348,-1,348,351,352,-1,348,352,353,-1,354,355,348,-1,348,355,356,-1,348,356,349,-1,357,358,359,-1,359,358,360,-1,359,360,354,-1,354,360,361,-1,354,361,355,-1,362,363,364,-1,364,363,365,-1,365,366,364,-1,364,366,367,-1,364,367,357,-1,362,364,368,-1,368,364,369,-1,368,369,370,-1,370,369,371,-1,371,369,198,-1,371,198,372,-1,318,373,305,-1,305,373,374,-1,305,374,375,-1,375,374,376,-1,375,376,377,-1,378,379,380,-1,380,379,381,-1,382,383,384,-1,385,386,198,-1,387,388,389,-1,389,388,390,-1,389,390,391,-1,378,392,379,-1,379,392,393,-1,379,393,394,-1,394,393,395,-1,394,395,396,-1,397,398,382,-1,382,398,399,-1,382,399,383,-1,386,400,198,-1,198,400,401,-1,198,401,402,-1,403,404,369,-1,369,404,405,-1,369,405,198,-1,198,405,406,-1,198,406,385,-1,407,408,395,-1,395,408,409,-1,384,410,382,-1,382,410,411,-1,382,411,369,-1,369,411,381,-1,369,381,403,-1,403,381,379,-1,409,412,395,-1,395,412,413,-1,395,413,414,-1,414,415,395,-1,395,415,416,-1,395,416,396,-1,402,417,198,-1,198,417,418,-1,198,418,199,-1,199,418,419,-1,199,419,389,-1,420,421,422,-1,422,421,423,-1,420,424,421,-1,421,424,425,-1,421,425,382,-1,382,425,426,-1,382,426,397,-1,427,428,12,-1,217,12,230,-1,230,12,428,-1,230,428,192,-1,192,428,429,-1,192,429,194,-1,430,431,427,-1,432,433,434,-1,434,433,435,-1,434,435,430,-1,430,427,434,-1,434,427,12,-1,434,12,436,-1,436,12,216,-1,436,216,437,-1,436,438,434,-1,434,438,439,-1,434,439,440,-1,441,442,443,-1,443,442,444,-1,443,444,216,-1,216,444,445,-1,216,445,437,-1,440,446,434,-1,434,446,447,-1,434,447,432,-1,448,449,450,-1,448,450,451,-1,449,452,450,-1,450,452,453,-1,450,453,443,-1,443,453,454,-1,443,454,441,-1,8,455,456,-1,456,455,450,-1,456,450,457,-1,457,450,443,-1,457,443,458,-1,458,443,216,-1,458,216,459,-1,459,216,215,-1,459,215,460,-1,460,215,423,-1,460,423,461,-1,461,423,421,-1,214,209,215,-1,215,209,211,-1,215,211,423,-1,423,211,199,-1,423,199,422,-1,422,199,389,-1,422,389,462,-1,462,389,391,-1,455,171,450,-1,450,171,185,-1,450,185,451,-1,451,185,187,-1,451,187,191,-1,191,187,13,-1,191,13,192,-1,192,13,15,-1,6,7,9,-1,9,7,463,-1,9,463,464,-1,465,80,466,-1,466,80,18,-1,466,18,467,-1,467,18,72,-1,467,72,468,-1,468,72,70,-1,468,70,469,-1,465,470,471,-1,470,472,471,-1,471,472,473,-1,471,473,467,-1,467,473,474,-1,467,474,466,-1,475,476,477,-1,477,476,473,-1,477,473,478,-1,478,473,472,-1,478,472,479,-1,479,472,480,-1,184,180,174,-1,174,180,169,-1,174,169,172,-1,172,169,171,-1,172,171,481,-1,482,483,464,-1,464,483,484,-1,485,486,487,-1,487,486,488,-1,487,488,464,-1,464,488,489,-1,464,489,482,-1,484,490,464,-1,464,490,491,-1,464,491,492,-1,8,9,455,-1,455,9,464,-1,455,464,171,-1,171,464,492,-1,171,492,481,-1,481,493,172,-1,172,493,494,-1,172,494,487,-1,487,494,495,-1,487,495,496,-1,496,497,487,-1,487,497,498,-1,487,498,485,-1,499,500,464,-1,501,502,503,-1,464,500,487,-1,487,500,504,-1,487,504,505,-1,357,359,364,-1,364,359,471,-1,364,471,369,-1,369,471,467,-1,369,467,382,-1,382,467,468,-1,382,468,421,-1,421,468,469,-1,421,469,461,-1,487,273,172,-1,172,273,278,-1,172,278,15,-1,15,278,284,-1,15,284,192,-1,192,284,307,-1,192,307,230,-1,230,307,306,-1,230,306,221,-1,221,306,305,-1,221,305,198,-1,198,305,375,-1,198,375,372,-1,372,375,377,-1,465,471,80,-1,80,471,359,-1,80,359,22,-1,22,359,506,-1,22,506,21,-1,506,507,21,-1,21,507,0,-1,21,0,354,-1,354,0,2,-1,354,2,359,-1,359,2,508,-1,359,508,506,-1,509,510,286,-1,286,510,511,-1,286,511,284,-1,284,511,512,-1,284,512,513,-1,513,514,284,-1,284,514,515,-1,284,515,516,-1,290,517,286,-1,286,517,518,-1,286,518,519,-1,516,520,284,-1,284,520,521,-1,284,521,307,-1,307,521,522,-1,307,522,290,-1,290,522,523,-1,290,523,517,-1,519,524,286,-1,286,524,525,-1,286,525,509,-1,503,499,501,-1,501,499,464,-1,501,464,526,-1,526,464,463,-1,526,463,505,-1,505,463,527,-1,505,527,487,-1,487,527,528,-1,487,528,273,-1,273,528,529,-1,273,529,280,-1,3,5,7,-1,7,5,530,-1,7,530,463,-1,463,530,531,-1,463,531,527,-1,527,531,532,-1,527,532,528,-1,528,532,533,-1,528,533,529,-1,353,347,348,-1,348,347,346,-1,348,346,354,-1,354,346,534,-1,354,534,21,-1,21,534,32,-1,21,32,23,-1,23,32,34,-1,533,535,529,-1,529,535,536,-1,529,536,280,-1,280,536,537,-1,280,537,281,-1,281,537,538,-1,281,538,286,-1,286,538,539,-1,286,539,290,-1,290,539,540,-1,290,540,291,-1,291,540,541,-1,291,541,310,-1,310,541,542,-1,310,542,340,-1,340,542,344,-1,340,344,338,-1,338,344,343,-1,543,544,545,-1,543,545,546,-1,547,545,548,-1,548,545,549,-1,550,551,552,-1,552,551,553,-1,552,553,554,-1,555,556,557,-1,557,556,544,-1,543,558,544,-1,544,558,559,-1,544,559,557,-1,557,559,552,-1,557,552,547,-1,547,552,554,-1,547,554,545,-1,545,554,560,-1,545,560,546,-1,561,562,563,-1,563,562,564,-1,563,564,565,-1,566,549,567,-1,567,549,556,-1,567,556,568,-1,569,570,548,-1,548,570,571,-1,548,571,555,-1,555,571,572,-1,555,572,556,-1,556,572,573,-1,556,573,568,-1,565,564,568,-1,568,564,574,-1,568,574,567,-1,575,576,566,-1,575,566,577,-1,578,579,548,-1,548,579,580,-1,581,582,569,-1,569,582,583,-1,569,583,584,-1,585,586,587,-1,587,586,588,-1,587,588,589,-1,589,588,570,-1,570,588,590,-1,570,590,571,-1,591,592,549,-1,549,592,593,-1,584,594,569,-1,569,594,595,-1,569,595,566,-1,566,595,596,-1,566,596,577,-1,580,597,548,-1,548,597,598,-1,548,598,569,-1,569,598,599,-1,569,599,581,-1,576,600,566,-1,566,600,601,-1,566,601,549,-1,549,601,602,-1,549,602,591,-1,603,604,548,-1,548,604,605,-1,548,605,578,-1,593,606,549,-1,549,606,607,-1,549,607,548,-1,548,607,608,-1,548,608,603,-1,609,610,611,-1,610,609,612,-1,612,609,613,-1,612,613,614,-1,614,613,615,-1,614,615,611,-1,611,615,616,-1,611,616,609,-1,617,618,619,-1,619,618,620,-1,619,620,621,-1,621,622,619,-1,619,622,623,-1,619,623,68,-1,623,624,68,-1,68,624,625,-1,68,625,4,-1,4,625,626,-1,627,618,628,-1,628,618,617,-1,628,617,629,-1,629,617,4,-1,629,4,630,-1,630,4,626,-1,631,535,617,-1,617,535,4,-1,632,631,619,-1,619,631,617,-1,31,632,68,-1,68,632,619,-1,633,631,634,-1,634,631,632,-1,634,632,635,-1,635,632,31,-1,635,31,636,-1,636,31,535,-1,636,535,633,-1,633,535,631,-1,557,547,635,-1,635,547,634,-1,555,557,636,-1,636,557,635,-1,548,555,633,-1,633,555,636,-1,547,548,634,-1,634,548,633,-1,637,638,618,-1,618,638,620,-1,630,626,639,-1,639,626,640,-1,639,640,641,-1,641,640,637,-1,641,637,627,-1,627,637,618,-1,642,640,625,-1,625,640,626,-1,621,620,643,-1,643,620,638,-1,643,638,644,-1,644,638,642,-1,644,642,624,-1,624,642,625,-1,640,642,637,-1,637,642,638,-1,
        ]
    }
}
Shape{
    appearance Appearance {
        material  Material 	{
            diffuseColor 1.0 1.0 0.5019607843137255
            specularColor 0.5019607843137255 0.5019607843137255 0.25098039215686274
            ambientIntensity 0.2
            transparency 0
            shininess 0.5
        }
    }
    geometry IndexedFaceSet {
        ccw TRUE
        solid FALSE
        coord DEF co Coordinate {
            point [
                0.0787 -0.8465 -0.3504, 0.0787 -1.0236 -0.3504, -0.0787 -0.8465 -0.3504, -0.0787 -1.0236 -0.3504, 0.0787 -0.8465 -0.2913, -0.0787 -0.8465 -0.2913, 0.0787 -1.0236 -0.2913, -0.0787 -1.0236 -0.2913, 0.0787 -1.044 -0.2887, -0.0787 -1.044 -0.2887, 0.0787 -1.063 -0.2808, -0.0787 -1.063 -0.2808, 0.0787 -1.0793 -0.2683, -0.0787 -1.0793 -0.2683, 0.0787 -1.0918 -0.252, -0.0787 -1.0918 -0.252, 0.0787 -1.0997 -0.233, -0.0787 -1.0997 -0.233, 0.0787 -1.1024 -0.2126, -0.0787 -1.1024 -0.2126, 0.0787 -1.1024 -0.1378, -0.0787 -1.1024 -0.1378, 0.0787 -1.1004 -0.1203, -0.0787 -1.1004 -0.1203, 0.0787 -1.0946 -0.1036, -0.0787 -1.0946 -0.1036, 0.0787 -1.0852 -0.0887, -0.0787 -1.0852 -0.0887, 0.0787 -1.0727 -0.0762, -0.0787 -1.0727 -0.0762, 0.0787 -1.0578 -0.0669, -0.0787 -1.0578 -0.0669, 0.0787 -1.0411 -0.061, -0.0787 -1.0411 -0.061, 0.0787 -1.0236 -0.0591, -0.0787 -1.0236 -0.0591, 0.0787 -0.9843 -0.0591, -0.0787 -0.9843 -0.0591, 0.0787 -1.0236 0.0, -0.0787 -1.0236 0.0, -0.0787 -1.0543 -0.0035, 0.0787 -1.0543 -0.0035, -0.0787 -1.0834 -0.0136, 0.0787 -1.0834 -0.0136, -0.0787 -1.1095 -0.0301, 0.0787 -1.1095 -0.0301, -0.0787 -1.1314 -0.0519, 0.0787 -1.1314 -0.0519, -0.0787 -1.1478 -0.078, 0.0787 -1.1478 -0.078, -0.0787 -1.158 -0.1071, 0.0787 -1.158 -0.1071, -0.0787 -1.1614 -0.1378, 0.0787 -1.1614 -0.1378, 0.0787 -1.1614 -0.2126, -0.0787 -1.1614 -0.2126, -0.0787 -1.1567 -0.2483, 0.0787 -1.1567 -0.2483, -0.0787 -1.143 -0.2815, 0.0787 -1.143 -0.2815, -0.0787 -1.1211 -0.31, 0.0787 -1.1211 -0.31, -0.0787 -1.0925 -0.3319, 0.0787 -1.0925 -0.3319, -0.0787 -1.0593 -0.3457, 0.0787 -1.0593 -0.3457, 0.0787 -0.9843 0.0, -0.0787 -0.9843 0.0, 0.0787 1.0236 -0.3504, 0.0787 0.8465 -0.3504, -0.0787 1.0236 -0.3504, -0.0787 0.8465 -0.3504, -0.0787 1.0593 -0.3457, 0.0787 1.0593 -0.3457, -0.0787 1.0925 -0.3319, 0.0787 1.0925 -0.3319, -0.0787 1.1211 -0.31, 0.0787 1.1211 -0.31, -0.0787 1.143 -0.2815, 0.0787 1.143 -0.2815, -0.0787 1.1567 -0.2483, 0.0787 1.1567 -0.2483, -0.0787 1.1614 -0.2126, 0.0787 1.1614 -0.2126, 0.0787 1.1614 -0.1378, -0.0787 1.1614 -0.1378, -0.0787 1.158 -0.1071, 0.0787 1.158 -0.1071, -0.0787 1.1478 -0.078, 0.0787 1.1478 -0.078, -0.0787 1.1314 -0.0519, 0.0787 1.1314 -0.0519, -0.0787 1.1095 -0.0301, 0.0787 1.1095 -0.0301, -0.0787 1.0834 -0.0136, 0.0787 1.0834 -0.0136, -0.0787 1.0543 -0.0035, 0.0787 1.0543 -0.0035, -0.0787 1.0236 0.0, 0.0787 1.0236 0.0, 0.0787 1.0236 -0.0591, 0.0787 0.9843 -0.0591, -0.0787 1.0236 -0.0591, -0.0787 0.9843 -0.0591, 0.0787 1.0411 -0.061, -0.0787 1.0411 -0.061, 0.0787 1.0578 -0.0669, -0.0787 1.0578 -0.0669, 0.0787 1.0727 -0.0762, -0.0787 1.0727 -0.0762, 0.0787 1.0852 -0.0887, -0.0787 1.0852 -0.0887, 0.0787 1.0946 -0.1036, -0.0787 1.0946 -0.1036, 0.0787 1.1004 -0.1203, -0.0787 1.1004 -0.1203, 0.0787 1.1024 -0.1378, -0.0787 1.1024 -0.1378, 0.0787 1.1024 -0.2126, -0.0787 1.1024 -0.2126, 0.0787 1.0997 -0.233, -0.0787 1.0997 -0.233, 0.0787 1.0918 -0.252, -0.0787 1.0918 -0.252, 0.0787 1.0793 -0.2683, -0.0787 1.0793 -0.2683, 0.0787 1.063 -0.2808, -0.0787 1.063 -0.2808, 0.0787 1.044 -0.2887, -0.0787 1.044 -0.2887, 0.0787 1.0236 -0.2913, -0.0787 1.0236 -0.2913, 0.0787 0.8465 -0.2913, -0.0787 0.8465 -0.2913, 0.0787 0.9843 0.0, -0.0787 0.9843 0.0, -0.0787 0.9843 0.0
            ]
        }
        coordIndex [
            0,1,2,-1,2,1,3,-1,4,0,5,-1,5,0,2,-1,6,4,7,-1,7,4,5,-1,6,7,8,-1,8,7,9,-1,8,9,10,-1,10,9,11,-1,10,11,12,-1,12,11,13,-1,12,13,14,-1,14,13,15,-1,14,15,16,-1,16,15,17,-1,16,17,18,-1,18,17,19,-1,20,18,21,-1,21,18,19,-1,20,21,22,-1,22,21,23,-1,22,23,24,-1,24,23,25,-1,24,25,26,-1,26,25,27,-1,26,27,28,-1,28,27,29,-1,28,29,30,-1,30,29,31,-1,30,31,32,-1,32,31,33,-1,32,33,34,-1,34,33,35,-1,36,34,37,-1,37,34,35,-1,38,39,40,-1,38,40,41,-1,41,40,42,-1,41,42,43,-1,43,42,44,-1,43,44,45,-1,45,44,46,-1,45,46,47,-1,47,46,48,-1,47,48,49,-1,49,48,50,-1,49,50,51,-1,51,50,52,-1,51,52,53,-1,54,53,55,-1,55,53,52,-1,54,55,56,-1,54,56,57,-1,57,56,58,-1,57,58,59,-1,59,58,60,-1,59,60,61,-1,61,60,62,-1,61,62,63,-1,63,62,64,-1,63,64,65,-1,65,64,3,-1,65,3,1,-1,36,66,34,-1,34,66,38,-1,34,38,32,-1,32,38,41,-1,32,41,30,-1,30,41,43,-1,30,43,28,-1,28,43,45,-1,28,45,26,-1,26,45,47,-1,26,47,24,-1,24,47,49,-1,24,49,22,-1,22,49,51,-1,22,51,20,-1,20,51,53,-1,20,53,18,-1,18,53,54,-1,18,54,16,-1,16,54,57,-1,16,57,14,-1,14,57,59,-1,14,59,12,-1,12,59,61,-1,12,61,10,-1,10,61,63,-1,10,63,8,-1,8,63,65,-1,8,65,6,-1,6,65,1,-1,6,1,4,-1,4,1,0,-1,5,2,7,-1,7,2,3,-1,7,3,9,-1,9,3,64,-1,9,64,11,-1,11,64,62,-1,11,62,13,-1,13,62,60,-1,13,60,15,-1,15,60,58,-1,15,58,17,-1,17,58,56,-1,17,56,19,-1,19,56,55,-1,19,55,21,-1,21,55,52,-1,21,52,23,-1,23,52,50,-1,23,50,25,-1,25,50,48,-1,25,48,27,-1,27,48,46,-1,27,46,29,-1,29,46,44,-1,29,44,31,-1,31,44,42,-1,31,42,33,-1,33,42,40,-1,33,40,35,-1,35,40,39,-1,35,39,37,-1,37,39,67,-1,68,69,70,-1,70,69,71,-1,68,70,72,-1,68,72,73,-1,73,72,74,-1,73,74,75,-1,75,74,76,-1,75,76,77,-1,77,76,78,-1,77,78,79,-1,79,78,80,-1,79,80,81,-1,81,80,82,-1,81,82,83,-1,84,83,85,-1,85,83,82,-1,84,85,86,-1,84,86,87,-1,87,86,88,-1,87,88,89,-1,89,88,90,-1,89,90,91,-1,91,90,92,-1,91,92,93,-1,93,92,94,-1,93,94,95,-1,95,94,96,-1,95,96,97,-1,97,96,98,-1,97,98,99,-1,100,101,102,-1,102,101,103,-1,100,102,104,-1,104,102,105,-1,104,105,106,-1,106,105,107,-1,106,107,108,-1,108,107,109,-1,108,109,110,-1,110,109,111,-1,110,111,112,-1,112,111,113,-1,112,113,114,-1,114,113,115,-1,114,115,116,-1,116,115,117,-1,118,116,119,-1,119,116,117,-1,118,119,120,-1,120,119,121,-1,120,121,122,-1,122,121,123,-1,122,123,124,-1,124,123,125,-1,124,125,126,-1,126,125,127,-1,126,127,128,-1,128,127,129,-1,128,129,130,-1,130,129,131,-1,132,130,133,-1,133,130,131,-1,69,132,71,-1,71,132,133,-1,132,69,130,-1,130,69,68,-1,130,68,128,-1,128,68,73,-1,128,73,126,-1,126,73,75,-1,126,75,124,-1,124,75,77,-1,124,77,122,-1,122,77,79,-1,122,79,120,-1,120,79,81,-1,120,81,118,-1,118,81,83,-1,118,83,116,-1,116,83,84,-1,116,84,114,-1,114,84,87,-1,114,87,112,-1,112,87,89,-1,112,89,110,-1,110,89,91,-1,110,91,108,-1,108,91,93,-1,108,93,106,-1,106,93,95,-1,106,95,104,-1,104,95,97,-1,104,97,100,-1,100,97,99,-1,100,99,101,-1,101,99,134,-1,103,135,102,-1,102,135,98,-1,102,98,105,-1,105,98,96,-1,105,96,107,-1,107,96,94,-1,107,94,109,-1,109,94,92,-1,109,92,111,-1,111,92,90,-1,111,90,113,-1,113,90,88,-1,113,88,115,-1,115,88,86,-1,115,86,117,-1,117,86,85,-1,117,85,119,-1,119,85,82,-1,119,82,121,-1,121,82,80,-1,121,80,123,-1,123,80,78,-1,123,78,125,-1,125,78,76,-1,125,76,127,-1,127,76,74,-1,127,74,129,-1,129,74,72,-1,129,72,131,-1,131,72,70,-1,131,70,133,-1,133,70,71,-1,
        ]
    }
}
Shape{
    appearance Appearance {
        material  Material 	{
            diffuseColor 0.25098039215686274 0.25098039215686274 0.25098039215686274
            specularColor 0.12549019607843137 0.12549019607843137 0.12549019607843137
            ambientIntensity 0.2
            transparency 0
            shininess 0.5
        }
    }
    geometry IndexedFaceSet {
        ccw TRUE
        solid FALSE
        coord DEF co Coordinate {
            point [
                0.1969 -0.689 0.6693, 0.1969 0.689 0.6693, 0.1969 -0.348 0.4724, 0.1969 0.348 0.4724, -0.1969 -0.348 0.4724, -0.1969 0.348 0.4724, -0.1969 -0.689 0.6693, -0.1969 0.689 0.6693, -0.1969 0.689 0.6693
            ]
        }
        coordIndex [
            0,1,2,-1,2,1,3,-1,4,5,6,-1,6,5,7,-1,0,2,6,-1,6,2,4,-1,7,5,1,-1,1,5,3,-1,
        ]
    }
}
Shape{
    appearance Appearance {
        material  Material 	{
            diffuseColor 1.0 1.0 1.0
            specularColor 0.5019607843137255 0.5019607843137255 0.5019607843137255
            ambientIntensity 0.2
            transparency 0
            shininess 0.5
        }
    }
    geometry IndexedFaceSet {
        ccw TRUE
        solid FALSE
        coord DEF co Coordinate {
            point [
                -0.1929 -0.2693 0.6299, -0.1929 0.0457 0.6299, -0.1929 -0.2693 0.4724, -0.1929 0.0457 0.4724, 0.1929 -0.2693 0.6299, 0.1929 -0.2693 0.4724, 0.1929 0.0457 0.6299, 0.1929 0.0457 0.4724, 0.1929 0.0457 0.4724
            ]
        }
        coordIndex [
            0,1,2,-1,2,1,3,-1,4,0,5,-1,5,0,2,-1,6,4,7,-1,7,4,5,-1,1,6,3,-1,3,6,7,-1,4,6,0,-1,0,6,1,-1,
        ]
    }
}
Shape{
    appearance Appearance {
        material  Material 	{
            diffuseColor 0.7529411764705882 0.7529411764705882 0.7529411764705882
            specularColor 0.3764705882352941 0.3764705882352941 0.3764705882352941
            ambientIntensity 0.2
            transparency 0
            shininess 0.5
        }
    }
    geometry IndexedFaceSet {
        ccw TRUE
        solid FALSE
        coord DEF co Coordinate {
            point [
                0.1525 0.9316 0.6689, 0.1525 0.7741 0.6689, 0.1525 0.9316 0.6693, 0.1525 0.7741 0.6693, 0.1274 0.7741 0.6689, 0.1274 0.7741 0.6693, 0.0502 0.8963 0.6689, 0.0502 0.8963 0.6693, 0.0449 0.9066 0.6689, 0.0449 0.9066 0.6693, 0.0473 0.9013 0.6693, 0.0473 0.9013 0.6689, 0.0443 0.9066 0.6689, 0.0443 0.9066 0.6693, 0.0449 0.8846 0.6689, 0.0449 0.8846 0.6693, 0.0448 0.8956 0.6693, 0.0448 0.8956 0.6689, 0.0449 0.7741 0.6689, 0.0449 0.7741 0.6693, 0.0238 0.7741 0.6689, 0.0238 0.7741 0.6693, 0.0238 0.9316 0.6689, 0.0238 0.9316 0.6693, 0.0507 0.9316 0.6689, 0.0507 0.9316 0.6693, 0.1256 0.8118 0.6689, 0.1256 0.8118 0.6693, 0.132 0.801 0.6689, 0.132 0.801 0.6693, 0.1289 0.8065 0.6693, 0.1289 0.8065 0.6689, 0.1324 0.801 0.6689, 0.1324 0.801 0.6693, 0.1314 0.8238 0.6689, 0.1314 0.8238 0.6693, 0.1315 0.8124 0.6693, 0.1315 0.8124 0.6689, 0.1314 0.9316 0.6689, 0.1314 0.9316 0.6693, -0.1567 0.851 0.6689, -0.1567 0.851 0.6693, -0.1549 0.8309 0.6693, -0.1549 0.8309 0.6689, -0.1495 0.8139 0.6693, -0.1495 0.8139 0.6689, -0.1408 0.7992 0.6693, -0.1408 0.7992 0.6689, -0.1295 0.7875 0.6693, -0.1295 0.7875 0.6689, -0.1166 0.7793 0.6693, -0.1166 0.7793 0.6689, -0.1018 0.7742 0.6693, -0.1018 0.7742 0.6689, -0.0825 0.7722 0.6693, -0.0825 0.7722 0.6689, -0.08 0.9335 0.6689, -0.08 0.9335 0.6693, -0.0971 0.932 0.6693, -0.0971 0.932 0.6689, -0.113 0.9273 0.6693, -0.113 0.9273 0.6689, -0.1276 0.9188 0.6693, -0.1276 0.9188 0.6689, -0.1398 0.9067 0.6693, -0.1398 0.9067 0.6689, -0.1487 0.8919 0.6693, -0.1487 0.8919 0.6689, -0.1546 0.8737 0.6693, -0.1546 0.8737 0.6689, -0.0069 0.8547 0.6689, -0.0069 0.8547 0.6693, -0.008 0.8705 0.6693, -0.008 0.8705 0.6689, -0.0125 0.888 0.6693, -0.0125 0.888 0.6689, -0.0207 0.9037 0.6693, -0.0207 0.9037 0.6689, -0.0324 0.9169 0.6693, -0.0324 0.9169 0.6689, -0.0461 0.9261 0.6693, -0.0461 0.9261 0.6689, -0.061 0.9314 0.6693, -0.061 0.9314 0.6689, -0.0636 0.774 0.6693, -0.0636 0.774 0.6689, -0.0484 0.7791 0.6693, -0.0484 0.7791 0.6689, -0.0354 0.7871 0.6693, -0.0354 0.7871 0.6689, -0.0235 0.7992 0.6693, -0.0235 0.7992 0.6689, -0.0147 0.8139 0.6693, -0.0147 0.8139 0.6689, -0.009 0.8319 0.6693, -0.009 0.8319 0.6689, -0.1356 0.8527 0.6689, -0.1339 0.8345 0.6689, -0.1294 0.8202 0.6689, -0.1227 0.809 0.6689, -0.1142 0.8001 0.6689, -0.1049 0.7942 0.6689, -0.094 0.7906 0.6689, -0.0825 0.7894 0.6689, -0.0683 0.7909 0.6689, -0.0574 0.7947 0.6689, -0.0482 0.8005 0.6689, -0.041 0.8079 0.6689, -0.0348 0.8179 0.6689, -0.0299 0.8329 0.6689, -0.028 0.8524 0.6689, -0.0296 0.871 0.6689, -0.0336 0.8852 0.6689, -0.0402 0.897 0.6689, -0.0479 0.9052 0.6689, -0.0567 0.9109 0.6689, -0.0671 0.9146 0.6689, -0.0812 0.9162 0.6689, -0.0952 0.9145 0.6689, -0.1058 0.9105 0.6689, -0.1153 0.904 0.6689, -0.1243 0.8937 0.6689, -0.1308 0.8814 0.6689, -0.135 0.8639 0.6689, -0.1356 0.8527 0.6693, -0.135 0.8639 0.6693, -0.1308 0.8814 0.6693, -0.1243 0.8937 0.6693, -0.1153 0.904 0.6693, -0.1058 0.9105 0.6693, -0.0952 0.9145 0.6693, -0.0812 0.9162 0.6693, -0.0671 0.9146 0.6693, -0.0567 0.9109 0.6693, -0.0479 0.9052 0.6693, -0.0402 0.897 0.6693, -0.0336 0.8852 0.6693, -0.0296 0.871 0.6693, -0.028 0.8524 0.6693, -0.0299 0.8329 0.6693, -0.0348 0.8179 0.6693, -0.041 0.8079 0.6693, -0.0482 0.8005 0.6693, -0.0574 0.7947 0.6693, -0.0683 0.7909 0.6693, -0.0825 0.7894 0.6693, -0.094 0.7906 0.6693, -0.1049 0.7942 0.6693, -0.1142 0.8001 0.6693, -0.1227 0.809 0.6693, -0.1294 0.8202 0.6693, -0.1339 0.8345 0.6693, 0.0248 -0.9362 0.6689, 0.0007 -0.9362 0.6689, 0.0248 -0.9362 0.6693, 0.0007 -0.9362 0.6693, 0.0007 -0.769 0.6689, 0.0007 -0.769 0.6693, -0.0449 -0.7922 0.6689, -0.0449 -0.7922 0.6693, -0.0412 -0.7912 0.6693, -0.0412 -0.7912 0.6689, -0.0174 -0.7812 0.6693, -0.0174 -0.7812 0.6689, -0.0449 -0.7682 0.6689, -0.0449 -0.7682 0.6693, 0.0154 -0.737 0.6689, 0.0154 -0.737 0.6693, -0.0133 -0.7554 0.6693, -0.0133 -0.7554 0.6689, 0.0248 -0.737 0.6689, 0.0248 -0.737 0.6693, 0.0248 -0.737 0.6693
            ]
        }
        coordIndex [
            0,1,2,-1,2,1,3,-1,1,4,3,-1,3,4,5,-1,4,6,5,-1,5,6,7,-1,8,9,10,-1,8,10,11,-1,11,10,7,-1,11,7,6,-1,8,12,9,-1,9,12,13,-1,14,15,16,-1,14,16,17,-1,17,16,13,-1,17,13,12,-1,14,18,15,-1,15,18,19,-1,18,20,19,-1,19,20,21,-1,20,22,21,-1,21,22,23,-1,22,24,23,-1,23,24,25,-1,24,26,25,-1,25,26,27,-1,28,29,30,-1,28,30,31,-1,31,30,27,-1,31,27,26,-1,28,32,29,-1,29,32,33,-1,34,35,36,-1,34,36,37,-1,37,36,33,-1,37,33,32,-1,34,38,35,-1,35,38,39,-1,38,0,39,-1,39,0,2,-1,0,38,1,-1,1,38,34,-1,20,18,22,-1,22,18,14,-1,14,17,22,-1,22,17,12,-1,22,12,24,-1,24,12,8,-1,34,37,1,-1,1,37,32,-1,1,32,4,-1,4,32,28,-1,28,31,4,-1,4,31,26,-1,4,26,6,-1,6,26,24,-1,6,24,11,-1,11,24,8,-1,40,41,42,-1,40,42,43,-1,43,42,44,-1,43,44,45,-1,45,44,46,-1,45,46,47,-1,47,46,48,-1,47,48,49,-1,49,48,50,-1,49,50,51,-1,51,50,52,-1,51,52,53,-1,53,52,54,-1,53,54,55,-1,56,57,58,-1,56,58,59,-1,59,58,60,-1,59,60,61,-1,61,60,62,-1,61,62,63,-1,63,62,64,-1,63,64,65,-1,65,64,66,-1,65,66,67,-1,67,66,68,-1,67,68,69,-1,69,68,41,-1,69,41,40,-1,70,71,72,-1,70,72,73,-1,73,72,74,-1,73,74,75,-1,75,74,76,-1,75,76,77,-1,77,76,78,-1,77,78,79,-1,79,78,80,-1,79,80,81,-1,81,80,82,-1,81,82,83,-1,83,82,57,-1,83,57,56,-1,55,54,84,-1,55,84,85,-1,85,84,86,-1,85,86,87,-1,87,86,88,-1,87,88,89,-1,89,88,90,-1,89,90,91,-1,91,90,92,-1,91,92,93,-1,93,92,94,-1,93,94,95,-1,95,94,71,-1,95,71,70,-1,96,40,97,-1,97,40,43,-1,97,43,98,-1,98,43,45,-1,98,45,99,-1,99,45,47,-1,99,47,100,-1,100,47,49,-1,100,49,101,-1,101,49,51,-1,101,51,102,-1,102,51,53,-1,102,53,103,-1,103,53,55,-1,103,55,104,-1,104,55,85,-1,104,85,105,-1,105,85,87,-1,105,87,106,-1,106,87,89,-1,106,89,107,-1,107,89,91,-1,107,91,108,-1,108,91,93,-1,108,93,109,-1,109,93,95,-1,109,95,110,-1,110,95,70,-1,110,70,111,-1,111,70,73,-1,111,73,112,-1,112,73,75,-1,112,75,113,-1,113,75,77,-1,113,77,114,-1,114,77,79,-1,114,79,115,-1,115,79,81,-1,115,81,116,-1,116,81,83,-1,116,83,117,-1,117,83,56,-1,117,56,118,-1,118,56,59,-1,118,59,119,-1,119,59,61,-1,119,61,120,-1,120,61,63,-1,120,63,121,-1,121,63,65,-1,121,65,122,-1,122,65,67,-1,122,67,123,-1,123,67,69,-1,123,69,96,-1,96,69,40,-1,96,124,125,-1,96,125,123,-1,123,125,126,-1,123,126,122,-1,122,126,127,-1,122,127,121,-1,121,127,128,-1,121,128,120,-1,120,128,129,-1,120,129,119,-1,119,129,130,-1,119,130,118,-1,118,130,131,-1,118,131,117,-1,117,131,132,-1,117,132,116,-1,116,132,133,-1,116,133,115,-1,115,133,134,-1,115,134,114,-1,114,134,135,-1,114,135,113,-1,113,135,136,-1,113,136,112,-1,112,136,137,-1,112,137,111,-1,111,137,138,-1,111,138,110,-1,110,138,139,-1,110,139,109,-1,109,139,140,-1,109,140,108,-1,108,140,141,-1,108,141,107,-1,107,141,142,-1,107,142,106,-1,106,142,143,-1,106,143,105,-1,105,143,144,-1,105,144,104,-1,104,144,145,-1,104,145,103,-1,103,145,146,-1,103,146,102,-1,102,146,147,-1,102,147,101,-1,101,147,148,-1,101,148,100,-1,100,148,149,-1,100,149,99,-1,99,149,150,-1,99,150,98,-1,98,150,151,-1,98,151,97,-1,97,151,124,-1,97,124,96,-1,152,153,154,-1,154,153,155,-1,153,156,155,-1,155,156,157,-1,158,159,160,-1,158,160,161,-1,161,160,162,-1,161,162,163,-1,163,162,157,-1,163,157,156,-1,158,164,159,-1,159,164,165,-1,166,167,168,-1,166,168,169,-1,169,168,165,-1,169,165,164,-1,166,170,167,-1,167,170,171,-1,170,152,171,-1,171,152,154,-1,153,152,156,-1,156,152,170,-1,170,166,156,-1,156,166,169,-1,156,169,163,-1,163,169,164,-1,163,164,161,-1,161,164,158,-1,
        ]
    }
}
Shape{
    appearance Appearance {
        material  Material 	{
            diffuseColor 0.25098039215686274 0.25098039215686274 0.25098039215686274
            specularColor 0.12549019607843137 0.12549019607843137 0.12549019607843137
            ambientIntensity 0.2
            transparency 0
            shininess 0.5
        }
    }
    geometry IndexedFaceSet {
        ccw TRUE
        solid FALSE
        coord DEF co Coordinate {
            point [
                -0.1356 0.8527 0.6693, -0.028 0.8524 0.6693, -0.135 0.8639 0.6693, -0.0296 0.871 0.6693, -0.0482 0.8005 0.6693, -0.041 0.8079 0.6693, -0.0574 0.7947 0.6693, -0.0348 0.8179 0.6693, -0.0299 0.8329 0.6693, -0.1058 0.9105 0.6693, -0.0952 0.9145 0.6693, -0.0812 0.9162 0.6693, -0.1294 0.8202 0.6693, -0.1227 0.809 0.6693, -0.094 0.7906 0.6693, -0.1142 0.8001 0.6693, -0.1049 0.7942 0.6693, -0.1339 0.8345 0.6693, -0.0825 0.7894 0.6693, -0.0683 0.7909 0.6693, -0.1153 0.904 0.6693, -0.1243 0.8937 0.6693, -0.1308 0.8814 0.6693, -0.0336 0.8852 0.6693, -0.0402 0.897 0.6693, -0.0479 0.9052 0.6693, -0.0567 0.9109 0.6693, -0.0671 0.9146 0.6693, -0.0671 0.9146 0.6693
            ]
        }
        coordIndex [
            0,1,2,-1,2,1,3,-1,4,5,0,-1,4,0,6,-1,5,7,0,-1,0,7,8,-1,0,8,1,-1,9,2,10,-1,10,2,11,-1,12,13,14,-1,14,13,15,-1,14,15,16,-1,12,14,17,-1,17,14,18,-1,17,18,0,-1,0,18,19,-1,0,19,6,-1,9,20,2,-1,2,20,21,-1,2,21,22,-1,3,23,2,-1,2,23,24,-1,2,24,25,-1,25,26,2,-1,2,26,27,-1,2,27,11,-1,
        ]
    }
}
Shape{
    appearance Appearance {
        material  Material 	{
            diffuseColor 1.0 1.0 1.0
            specularColor 0.5019607843137255 0.5019607843137255 0.5019607843137255
            ambientIntensity 0.2
            transparency 0
            shininess 0.5
        }
    }
    geometry IndexedFaceSet {
        ccw TRUE
        solid FALSE
        coord DEF co Coordinate {
            point [
                0.5689 -0.0267 0.2751, 0.5689 -0.0267 0.2659, 0.565 -0.0267 0.2751, 0.565 -0.0267 0.2659, 0.5689 -0.0585 0.2751, 0.565 -0.0585 0.2751, 0.5689 -0.0585 0.346, 0.565 -0.0585 0.346, 0.5689 -0.0689 0.346, 0.565 -0.0689 0.346, 0.5689 -0.0689 0.2659, 0.565 -0.0689 0.2659, 0.565 0.0366 0.2693, 0.5689 0.0366 0.2693, 0.5689 0.0352 0.2686, 0.5689 0.0144 0.2646, 0.565 0.0144 0.2646, 0.5689 0.0266 0.2658, 0.565 0.0215 0.2653, 0.565 0.0266 0.2658, 0.565 0.0331 0.2679, 0.565 0.0352 0.2686, 0.5689 0.0366 0.2792, 0.565 0.0366 0.2792, 0.565 0.0331 0.2776, 0.5689 0.0287 0.2756, 0.565 0.0287 0.2756, 0.565 0.0197 0.2739, 0.5689 0.0197 0.2739, 0.565 0.0159 0.2738, 0.5689 0.0159 0.2738, 0.565 0.0078 0.2748, 0.5689 0.0078 0.2748, 0.565 0.0021 0.277, 0.5689 0.0021 0.277, 0.565 -0.0032 0.2807, 0.5689 -0.0032 0.2807, 0.565 -0.0047 0.2822, 0.5689 -0.0047 0.2822, 0.565 -0.0086 0.2876, 0.5689 -0.0086 0.2876, 0.565 -0.0112 0.2941, 0.5689 -0.0112 0.2941, 0.565 -0.0124 0.3021, 0.5689 -0.0124 0.3021, 0.565 -0.0125 0.3051, 0.5689 -0.0125 0.3051, 0.565 -0.0114 0.3152, 0.5689 -0.0114 0.3152, 0.565 -0.0089 0.3223, 0.5689 -0.0089 0.3223, 0.565 -0.0051 0.328, 0.5689 -0.0051 0.328, 0.565 -0.0041 0.3291, 0.5689 -0.0041 0.3291, 0.565 0.0014 0.3337, 0.5689 0.0014 0.3337, 0.565 0.0076 0.3366, 0.5689 0.0076 0.3366, 0.565 0.0146 0.3379, 0.5689 0.0146 0.3379, 0.565 0.0177 0.338, 0.5689 0.0177 0.338, 0.565 0.0276 0.3368, 0.565 0.0331 0.3347, 0.5689 0.0357 0.3338, 0.5689 0.0276 0.3368, 0.565 0.0357 0.3338, 0.565 0.0366 0.3333, 0.5689 0.0366 0.3333, 0.5689 0.0366 0.3441, 0.565 0.0366 0.3441, 0.565 0.0176 0.3474, 0.5689 0.0176 0.3474, 0.5689 0.0179 0.3474, 0.565 0.0331 0.3451, 0.5689 0.0283 0.3465, 0.565 0.0283 0.3465, 0.565 0.026 0.3467, 0.565 0.0179 0.3474, 0.565 0.0121 0.3467, 0.5689 0.0059 0.3459, 0.565 0.0059 0.3459, 0.565 -0.0025 0.3426, 0.5689 -0.0025 0.3426, 0.565 -0.01 0.3373, 0.5689 -0.01 0.3373, 0.565 -0.0118 0.3356, 0.5689 -0.0118 0.3356, 0.565 -0.0176 0.328, 0.565 -0.0198 0.3229, 0.5689 -0.0214 0.3191, 0.5689 -0.0176 0.328, 0.565 -0.0214 0.3191, 0.565 -0.0232 0.3086, 0.5689 -0.0232 0.3086, 0.565 -0.0234 0.3045, 0.5689 -0.0234 0.3045, 0.565 -0.0221 0.2925, 0.565 -0.0198 0.2862, 0.5689 -0.019 0.2839, 0.5689 -0.0221 0.2925, 0.565 -0.019 0.2839, 0.565 -0.0144 0.2769, 0.5689 -0.0144 0.2769, 0.565 -0.0131 0.2755, 0.5689 -0.0131 0.2755, 0.5689 0.0096 0.2648, 0.565 -0.0067 0.2702, 0.5689 -0.0067 0.2702, 0.565 0.0009 0.2666, 0.5689 0.0009 0.2666, 0.565 0.0074 0.2653, 0.565 0.0096 0.2648, 0.5689 0.0957 0.2751, 0.5689 0.0957 0.2659, 0.565 0.0957 0.2751, 0.565 0.0957 0.2659, 0.565 0.0629 0.2751, 0.5689 0.0629 0.2751, 0.565 0.0846 0.2751, 0.5689 0.0629 0.302, 0.565 0.0629 0.302, 0.5689 0.0916 0.302, 0.565 0.0846 0.302, 0.565 0.0916 0.302, 0.5689 0.0916 0.3112, 0.565 0.0916 0.3112, 0.565 0.0629 0.3112, 0.5689 0.0629 0.3112, 0.565 0.0846 0.3112, 0.5689 0.0629 0.3368, 0.565 0.0629 0.3368, 0.5689 0.0938 0.3368, 0.565 0.0846 0.3368, 0.565 0.0938 0.3368, 0.5689 0.0938 0.346, 0.565 0.0938 0.346, 0.565 0.0526 0.346, 0.5689 0.0526 0.346, 0.565 0.0846 0.346, 0.5689 0.0526 0.2659, 0.565 0.0526 0.2659, 0.565 0.0846 0.2659, 0.5689 0.1605 0.2884, 0.5689 0.1565 0.2834, 0.5689 0.1639 0.2772, 0.5689 0.1551 0.2821, 0.5689 0.1557 0.2712, 0.5689 0.1498 0.2786, 0.5689 0.1466 0.2676, 0.5689 0.1429 0.2762, 0.5689 0.1328 0.2659, 0.5689 0.1327 0.2751, 0.5689 0.1108 0.2659, 0.5689 0.1211 0.2751, 0.5689 0.1108 0.346, 0.5689 0.1211 0.3368, 0.5689 0.1336 0.346, 0.5689 0.1332 0.3368, 0.5689 0.1458 0.3447, 0.5689 0.1435 0.3357, 0.5689 0.1555 0.3411, 0.5689 0.1505 0.3331, 0.5689 0.1639 0.3354, 0.5689 0.1563 0.3293, 0.5689 0.1666 0.3328, 0.5689 0.159 0.3266, 0.5689 0.1716 0.3258, 0.5689 0.162 0.322, 0.5689 0.1746 0.3182, 0.5689 0.1641 0.3159, 0.5689 0.176 0.307, 0.5689 0.1651 0.3067, 0.5689 0.1757 0.3019, 0.5689 0.1648 0.3016, 0.5689 0.1738 0.2926, 0.5689 0.1633 0.2943, 0.5689 0.1699 0.2843, 0.565 0.1328 0.2659, 0.565 0.1108 0.2659, 0.565 0.1466 0.2676, 0.565 0.1557 0.2712, 0.565 0.1639 0.2772, 0.565 0.1699 0.2843, 0.565 0.1738 0.2926, 0.565 0.1757 0.3019, 0.565 0.176 0.307, 0.565 0.1746 0.3182, 0.565 0.1716 0.3258, 0.565 0.1666 0.3328, 0.565 0.1639 0.3354, 0.565 0.1555 0.3411, 0.565 0.1458 0.3447, 0.565 0.1336 0.346, 0.565 0.1108 0.346, 0.565 0.1332 0.3368, 0.565 0.1211 0.3368, 0.565 0.1211 0.2751, 0.565 0.1327 0.2751, 0.565 0.1565 0.2834, 0.565 0.1551 0.2821, 0.565 0.1498 0.2786, 0.565 0.1429 0.2762, 0.565 0.1651 0.3067, 0.565 0.1648 0.3016, 0.565 0.1633 0.2943, 0.565 0.1605 0.2884, 0.565 0.1563 0.3293, 0.565 0.159 0.3266, 0.565 0.162 0.322, 0.565 0.1641 0.3159, 0.565 0.1435 0.3357, 0.565 0.1505 0.3331, 0.565 0.1505 0.3331
            ]
        }
        coordIndex [
            0,1,2,-1,2,1,3,-1,4,0,5,-1,5,0,2,-1,6,4,7,-1,7,4,5,-1,8,6,9,-1,9,6,7,-1,10,8,11,-1,11,8,9,-1,1,10,3,-1,3,10,11,-1,6,8,4,-1,4,8,10,-1,4,10,0,-1,0,10,1,-1,12,13,14,-1,15,16,17,-1,17,16,18,-1,18,19,17,-1,17,19,20,-1,17,20,14,-1,14,20,21,-1,14,21,12,-1,22,13,23,-1,23,13,12,-1,22,23,24,-1,22,24,25,-1,24,26,25,-1,25,26,27,-1,25,27,28,-1,28,27,29,-1,28,29,30,-1,30,29,31,-1,30,31,32,-1,32,31,33,-1,32,33,34,-1,34,33,35,-1,34,35,36,-1,36,35,37,-1,36,37,38,-1,38,37,39,-1,38,39,40,-1,40,39,41,-1,40,41,42,-1,42,41,43,-1,42,43,44,-1,44,43,45,-1,44,45,46,-1,46,45,47,-1,46,47,48,-1,48,47,49,-1,48,49,50,-1,50,49,51,-1,50,51,52,-1,52,51,53,-1,52,53,54,-1,54,53,55,-1,54,55,56,-1,56,55,57,-1,56,57,58,-1,58,57,59,-1,58,59,60,-1,60,59,61,-1,60,61,62,-1,62,61,63,-1,64,65,63,-1,63,65,66,-1,63,66,62,-1,64,67,65,-1,65,67,68,-1,65,68,69,-1,70,69,71,-1,71,69,68,-1,72,73,74,-1,70,71,75,-1,70,75,76,-1,75,77,76,-1,76,77,78,-1,76,78,74,-1,74,78,79,-1,74,79,72,-1,73,72,80,-1,73,80,81,-1,80,82,81,-1,81,82,83,-1,81,83,84,-1,84,83,85,-1,84,85,86,-1,86,85,87,-1,86,87,88,-1,88,87,89,-1,90,91,89,-1,89,91,92,-1,89,92,88,-1,90,93,91,-1,91,93,94,-1,91,94,95,-1,95,94,96,-1,95,96,97,-1,97,96,98,-1,99,100,98,-1,98,100,101,-1,98,101,97,-1,99,102,100,-1,100,102,103,-1,100,103,104,-1,104,103,105,-1,104,105,106,-1,16,15,107,-1,106,105,108,-1,106,108,109,-1,109,108,110,-1,109,110,111,-1,111,110,112,-1,111,112,107,-1,107,112,113,-1,107,113,16,-1,65,69,70,-1,48,50,92,-1,65,70,66,-1,66,70,76,-1,66,76,62,-1,62,76,74,-1,62,74,60,-1,60,74,73,-1,60,73,58,-1,58,73,81,-1,58,81,56,-1,13,22,14,-1,14,22,25,-1,14,25,17,-1,17,25,28,-1,17,28,15,-1,15,28,30,-1,15,30,107,-1,107,30,32,-1,107,32,111,-1,111,32,34,-1,111,34,109,-1,109,34,36,-1,109,36,106,-1,106,36,38,-1,106,38,104,-1,104,38,40,-1,104,40,100,-1,92,50,88,-1,81,84,56,-1,56,84,86,-1,56,86,54,-1,54,86,88,-1,54,88,52,-1,52,88,50,-1,97,46,95,-1,95,46,48,-1,95,48,91,-1,91,48,92,-1,100,40,101,-1,101,40,42,-1,101,42,97,-1,97,42,44,-1,97,44,46,-1,114,115,116,-1,116,115,117,-1,118,119,120,-1,120,119,114,-1,120,114,116,-1,121,119,122,-1,122,119,118,-1,121,122,123,-1,123,122,124,-1,123,124,125,-1,126,123,127,-1,127,123,125,-1,128,129,130,-1,130,129,126,-1,130,126,127,-1,131,129,132,-1,132,129,128,-1,131,132,133,-1,133,132,134,-1,133,134,135,-1,136,133,137,-1,137,133,135,-1,138,139,140,-1,140,139,136,-1,140,136,137,-1,141,139,142,-1,142,139,138,-1,141,142,115,-1,115,142,143,-1,115,143,117,-1,141,115,114,-1,114,119,141,-1,141,119,121,-1,141,121,139,-1,133,136,131,-1,131,136,139,-1,131,139,129,-1,129,139,121,-1,129,121,126,-1,126,121,123,-1,144,145,146,-1,146,145,147,-1,146,147,148,-1,148,147,149,-1,148,149,150,-1,150,149,151,-1,150,151,152,-1,152,151,153,-1,152,153,154,-1,154,153,155,-1,154,155,156,-1,156,155,157,-1,156,157,158,-1,158,157,159,-1,158,159,160,-1,160,159,161,-1,160,161,162,-1,162,161,163,-1,162,163,164,-1,164,163,165,-1,164,165,166,-1,166,165,167,-1,166,167,168,-1,168,167,169,-1,168,169,170,-1,170,169,171,-1,170,171,172,-1,172,171,173,-1,172,173,174,-1,174,173,175,-1,174,175,176,-1,176,175,177,-1,176,177,178,-1,178,177,144,-1,178,144,146,-1,152,154,179,-1,179,154,180,-1,152,179,181,-1,152,181,150,-1,150,181,182,-1,150,182,148,-1,148,182,183,-1,148,183,146,-1,146,183,184,-1,146,184,178,-1,178,184,185,-1,178,185,176,-1,176,185,186,-1,176,186,174,-1,174,186,187,-1,174,187,172,-1,172,187,188,-1,172,188,170,-1,170,188,189,-1,170,189,168,-1,168,189,190,-1,168,190,166,-1,166,190,191,-1,166,191,164,-1,164,191,192,-1,164,192,162,-1,162,192,193,-1,162,193,160,-1,160,193,194,-1,160,194,158,-1,156,158,195,-1,195,158,194,-1,154,156,180,-1,180,156,195,-1,159,157,196,-1,196,157,197,-1,157,155,197,-1,197,155,198,-1,155,153,198,-1,198,153,199,-1,145,200,201,-1,145,201,147,-1,147,201,202,-1,147,202,149,-1,149,202,203,-1,149,203,151,-1,151,203,199,-1,151,199,153,-1,173,204,205,-1,173,205,175,-1,175,205,206,-1,175,206,177,-1,177,206,207,-1,177,207,144,-1,144,207,200,-1,144,200,145,-1,165,208,209,-1,165,209,167,-1,167,209,210,-1,167,210,169,-1,169,210,211,-1,169,211,171,-1,171,211,204,-1,171,204,173,-1,159,196,212,-1,159,212,161,-1,161,212,213,-1,161,213,163,-1,163,213,208,-1,163,208,165,-1,
        ]
    }
}
Shape{
    appearance Appearance {
        material  Material 	{
            diffuseColor 0.25098039215686274 0.25098039215686274 0.25098039215686274
            specularColor 0.12549019607843137 0.12549019607843137 0.12549019607843137
            ambientIntensity 0.2
            transparency 0
            shininess 0.5
        }
    }
    geometry IndexedFaceSet {
        ccw TRUE
        solid FALSE
        coord DEF co Coordinate {
            point [
                0.565 0.1211 0.3368, 0.565 0.1211 0.2751, 0.565 0.1332 0.3368, 0.565 0.1327 0.2751, 0.565 0.1429 0.2762, 0.565 0.1498 0.2786, 0.565 0.1551 0.2821, 0.565 0.1565 0.2834, 0.565 0.1605 0.2884, 0.565 0.1633 0.2943, 0.565 0.1648 0.3016, 0.565 0.1651 0.3067, 0.565 0.1641 0.3159, 0.565 0.162 0.322, 0.565 0.159 0.3266, 0.565 0.1563 0.3293, 0.565 0.1435 0.3357, 0.565 0.1505 0.3331, 0.565 0.1505 0.3331
            ]
        }
        coordIndex [
            0,1,2,-1,2,1,3,-1,2,3,4,-1,4,5,2,-1,2,5,6,-1,2,6,7,-1,7,8,2,-1,2,8,9,-1,2,9,10,-1,10,11,2,-1,2,11,12,-1,2,12,13,-1,13,14,2,-1,2,14,15,-1,2,15,16,-1,16,15,17,-1,
        ]
    }
}
Shape{
    appearance Appearance {
        material  Material 	{
            diffuseColor 1.0 1.0 1.0
            specularColor 0.5019607843137255 0.5019607843137255 0.5019607843137255
            ambientIntensity 0.2
            transparency 0
            shininess 0.5
        }
    }
    geometry IndexedFaceSet {
        ccw TRUE
        solid FALSE
        coord DEF co Coordinate {
            point [
                0.5689 0.2028 0.2969, 0.5689 0.1995 0.2878, 0.5689 0.2297 0.2969, 0.5689 0.2329 0.2878, 0.5689 0.2148 0.3302, 0.5689 0.2109 0.346, 0.5689 0.1804 0.2659, 0.5689 0.1918 0.2659, 0.5689 0.2155 0.3326, 0.5689 0.2161 0.3358, 0.5689 0.222 0.346, 0.5689 0.2163 0.3358, 0.5689 0.217 0.3324, 0.5689 0.2176 0.3302, 0.5689 0.2525 0.2659, 0.5689 0.241 0.2659, 0.565 0.222 0.346, 0.565 0.2525 0.2659, 0.565 0.2109 0.346, 0.565 0.1804 0.2659, 0.565 0.2035 0.3265, 0.565 0.1918 0.2659, 0.565 0.1995 0.2878, 0.565 0.2329 0.2878, 0.565 0.2035 0.2878, 0.565 0.241 0.2659, 0.565 0.2028 0.2969, 0.565 0.2297 0.2969, 0.565 0.2176 0.3302, 0.565 0.2163 0.3358, 0.565 0.217 0.3324, 0.565 0.2161 0.3358, 0.565 0.2148 0.3302, 0.565 0.2155 0.3326, 0.565 0.2155 0.3326
            ]
        }
        coordIndex [
            0,1,2,-1,2,1,3,-1,4,5,0,-1,0,5,6,-1,0,6,1,-1,1,6,7,-1,4,8,5,-1,5,8,9,-1,5,9,10,-1,10,9,11,-1,10,11,12,-1,12,13,10,-1,10,13,2,-1,10,2,14,-1,14,2,3,-1,14,3,15,-1,10,14,16,-1,16,14,17,-1,5,10,18,-1,18,10,16,-1,19,6,20,-1,20,6,5,-1,20,5,18,-1,7,6,21,-1,21,6,19,-1,1,7,22,-1,22,7,21,-1,23,3,24,-1,24,3,1,-1,24,1,22,-1,15,3,25,-1,25,3,23,-1,14,15,17,-1,17,15,25,-1,0,2,26,-1,26,2,27,-1,2,13,27,-1,27,13,28,-1,11,29,30,-1,11,30,12,-1,12,30,28,-1,12,28,13,-1,11,9,29,-1,29,9,31,-1,4,32,33,-1,4,33,8,-1,8,33,31,-1,8,31,9,-1,4,0,32,-1,32,0,26,-1,
        ]
    }
}
Shape{
    appearance Appearance {
        material  Material 	{
            diffuseColor 0.25098039215686274 0.25098039215686274 0.25098039215686274
            specularColor 0.12549019607843137 0.12549019607843137 0.12549019607843137
            ambientIntensity 0.2
            transparency 0
            shininess 0.5
        }
    }
    geometry IndexedFaceSet {
        ccw TRUE
        solid FALSE
        coord DEF co Coordinate {
            point [
                0.565 0.2163 0.3358, 0.565 0.2161 0.3358, 0.565 0.217 0.3324, 0.565 0.2155 0.3326, 0.565 0.2176 0.3302, 0.565 0.2148 0.3302, 0.565 0.2297 0.2969, 0.565 0.2028 0.2969, 0.565 0.2028 0.2969
            ]
        }
        coordIndex [
            0,1,2,-1,2,1,3,-1,2,3,4,-1,4,3,5,-1,4,5,6,-1,6,5,7,-1,
        ]
    }
}
Shape{
    appearance Appearance {
        material  Material 	{
            diffuseColor 1.0 1.0 1.0
            specularColor 0.5019607843137255 0.5019607843137255 0.5019607843137255
            ambientIntensity 0.2
            transparency 0
            shininess 0.5
        }
    }
    geometry IndexedFaceSet {
        ccw TRUE
        solid FALSE
        coord DEF co Coordinate {
            point [
                0.5689 -0.0258 0.148, 0.5689 -0.0258 0.1389, 0.565 -0.0258 0.148, 0.565 -0.0258 0.1389, 0.5689 -0.0585 0.148, 0.565 -0.0585 0.148, 0.5689 -0.0585 0.175, 0.565 -0.0585 0.175, 0.5689 -0.0299 0.175, 0.565 -0.0299 0.175, 0.5689 -0.0299 0.1841, 0.565 -0.0299 0.1841, 0.5689 -0.0585 0.1841, 0.565 -0.0585 0.1841, 0.5689 -0.0585 0.2098, 0.565 -0.0585 0.2098, 0.5689 -0.0276 0.2098, 0.565 -0.0276 0.2098, 0.5689 -0.0276 0.219, 0.565 -0.0276 0.219, 0.5689 -0.0689 0.219, 0.565 -0.0689 0.219, 0.5689 -0.0689 0.1389, 0.565 -0.0689 0.1389, 0.5689 0.0194 0.1478, 0.5689 0.0197 0.1478, 0.5689 0.019 0.1569, 0.5689 -0.0048 0.171, 0.5689 -0.0091 0.1688, 0.5689 -0.0034 0.1623, 0.5689 0.0197 0.161, 0.5689 0.0297 0.1757, 0.5689 0.0197 0.1621, 0.5689 0.0197 0.1676, 0.5689 0.0197 0.1389, 0.5689 0.0297 0.1389, 0.5689 0.0175 0.1533, 0.5689 0.0154 0.1505, 0.5689 0.0171 0.1444, 0.5689 0.0141 0.1492, 0.5689 0.0138 0.1412, 0.5689 0.0113 0.1473, 0.5689 0.0115 0.1398, 0.5689 0.0082 0.1462, 0.5689 0.0075 0.1382, 0.5689 0.0045 0.1458, 0.5689 -0.004 0.1492, 0.5689 -0.0113 0.1421, 0.5689 -0.0031 0.1484, 0.5689 -0.0084 0.14, 0.5689 -0.0011 0.147, 0.5689 -0.0047 0.1384, 0.5689 0.0011 0.1462, 0.5689 -0.0 0.1376, 0.5689 0.0019 0.1376, 0.5689 -0.0046 0.1608, 0.5689 -0.0122 0.1662, 0.5689 -0.0055 0.1589, 0.5689 -0.0142 0.1633, 0.5689 -0.006 0.1566, 0.5689 -0.002 0.1633, 0.5689 0.0004 0.1644, 0.5689 0.0028 0.1729, 0.5689 0.0063 0.1658, 0.5689 0.0197 0.1753, 0.5689 -0.0106 0.1921, 0.5689 -0.0106 0.1823, 0.5689 -0.0087 0.1932, 0.5689 -0.0036 0.1867, 0.5689 -0.0012 0.1961, 0.5689 0.0026 0.1887, 0.5689 0.0091 0.1974, 0.5689 0.0081 0.1893, 0.5689 0.015 0.1969, 0.5689 0.0117 0.1889, 0.5689 0.0193 0.1956, 0.5689 0.014 0.188, 0.5689 0.0226 0.1937, 0.5689 0.0158 0.1868, 0.5689 0.0253 0.1912, 0.5689 0.0172 0.1852, 0.5689 0.0273 0.188, 0.5689 0.0184 0.1831, 0.5689 0.0289 0.1834, 0.5689 0.0194 0.1794, 0.5689 -0.0156 0.1598, 0.5689 -0.0162 0.1554, 0.5689 -0.006 0.155, 0.5689 -0.0162 0.1542, 0.5689 -0.0058 0.1527, 0.5689 -0.0156 0.1493, 0.5689 -0.0051 0.1509, 0.5689 -0.0144 0.146, 0.5689 -0.0122 0.143, 0.565 0.0091 0.1974, 0.565 -0.0012 0.1961, 0.565 -0.0087 0.1932, 0.565 -0.0106 0.1921, 0.565 -0.0106 0.1823, 0.565 -0.0036 0.1867, 0.565 0.0026 0.1887, 0.565 0.0081 0.1893, 0.565 0.0117 0.1889, 0.565 0.014 0.188, 0.565 0.0158 0.1868, 0.565 0.0172 0.1852, 0.565 0.0184 0.1831, 0.565 0.0194 0.1794, 0.565 0.0197 0.1753, 0.565 0.0028 0.1729, 0.565 -0.0048 0.171, 0.565 -0.0091 0.1688, 0.565 -0.0122 0.1662, 0.565 -0.0142 0.1633, 0.565 -0.0156 0.1598, 0.565 -0.0162 0.1554, 0.565 -0.0162 0.1542, 0.565 -0.0156 0.1493, 0.565 -0.0144 0.146, 0.565 -0.0122 0.143, 0.565 -0.0113 0.1421, 0.565 0.0019 0.1376, 0.565 -0.0084 0.14, 0.565 -0.0047 0.1384, 0.565 -0.0036 0.1382, 0.565 -0.0 0.1376, 0.565 0.0075 0.1382, 0.565 0.0115 0.1398, 0.565 0.0138 0.1412, 0.565 0.0171 0.1444, 0.565 0.0194 0.1478, 0.565 0.0197 0.1478, 0.565 0.0197 0.1389, 0.565 0.0297 0.1389, 0.565 0.0297 0.1757, 0.565 0.0289 0.1834, 0.565 0.0273 0.188, 0.565 0.0253 0.1912, 0.565 0.0226 0.1937, 0.565 0.0193 0.1956, 0.565 0.015 0.1969, 0.565 -0.0034 0.1623, 0.565 -0.002 0.1633, 0.565 0.0004 0.1644, 0.565 0.0063 0.1658, 0.565 -0.006 0.155, 0.565 -0.006 0.1566, 0.565 -0.0055 0.1589, 0.565 -0.0046 0.1608, 0.565 -0.0031 0.1484, 0.565 -0.004 0.1492, 0.565 -0.0051 0.1509, 0.565 -0.0058 0.1527, 0.565 0.0045 0.1458, 0.565 0.0011 0.1462, 0.565 -0.0011 0.147, 0.565 0.0154 0.1505, 0.565 0.0141 0.1492, 0.565 0.0113 0.1473, 0.565 0.0082 0.1462, 0.565 0.0197 0.1621, 0.565 0.0197 0.161, 0.565 0.019 0.1569, 0.565 0.0175 0.1533, 0.565 0.0197 0.1676, 0.565 0.0197 0.1676
            ]
        }
        coordIndex [
            0,1,2,-1,2,1,3,-1,4,0,5,-1,5,0,2,-1,6,4,7,-1,7,4,5,-1,8,6,9,-1,9,6,7,-1,10,8,11,-1,11,8,9,-1,12,10,13,-1,13,10,11,-1,14,12,15,-1,15,12,13,-1,16,14,17,-1,17,14,15,-1,18,16,19,-1,19,16,17,-1,20,18,21,-1,21,18,19,-1,22,20,23,-1,23,20,21,-1,1,22,3,-1,3,22,23,-1,1,0,22,-1,22,0,4,-1,8,10,6,-1,6,10,12,-1,16,18,14,-1,14,18,20,-1,14,20,12,-1,12,20,22,-1,12,22,6,-1,6,22,4,-1,24,25,26,-1,27,28,29,-1,30,31,32,-1,32,31,33,-1,34,35,25,-1,25,35,31,-1,25,31,26,-1,26,31,30,-1,26,36,24,-1,24,36,37,-1,24,37,38,-1,38,37,39,-1,38,39,40,-1,40,39,41,-1,40,41,42,-1,42,41,43,-1,42,43,44,-1,44,43,45,-1,46,47,48,-1,48,47,49,-1,48,49,50,-1,50,49,51,-1,50,51,52,-1,52,51,53,-1,52,53,45,-1,45,53,54,-1,45,54,44,-1,29,28,55,-1,55,28,56,-1,55,56,57,-1,57,56,58,-1,57,58,59,-1,29,60,27,-1,27,60,61,-1,27,61,62,-1,62,61,63,-1,62,63,64,-1,65,66,67,-1,67,66,68,-1,67,68,69,-1,69,68,70,-1,69,70,71,-1,71,70,72,-1,71,72,73,-1,73,72,74,-1,73,74,75,-1,75,74,76,-1,75,76,77,-1,77,76,78,-1,77,78,79,-1,79,78,80,-1,79,80,81,-1,81,80,82,-1,81,82,83,-1,83,82,84,-1,83,84,31,-1,31,84,64,-1,31,64,33,-1,33,64,63,-1,58,85,59,-1,59,85,86,-1,59,86,87,-1,87,86,88,-1,87,88,89,-1,89,88,90,-1,89,90,91,-1,91,90,92,-1,91,92,46,-1,46,92,93,-1,46,93,47,-1,71,94,95,-1,71,95,69,-1,69,95,96,-1,69,96,67,-1,67,96,97,-1,67,97,65,-1,66,65,98,-1,98,65,97,-1,66,98,99,-1,66,99,68,-1,68,99,100,-1,68,100,70,-1,70,100,101,-1,70,101,72,-1,72,101,102,-1,72,102,74,-1,74,102,103,-1,74,103,76,-1,76,103,104,-1,76,104,78,-1,78,104,105,-1,78,105,80,-1,80,105,106,-1,80,106,82,-1,82,106,107,-1,82,107,84,-1,84,107,108,-1,84,108,64,-1,62,64,109,-1,109,64,108,-1,62,109,110,-1,62,110,27,-1,27,110,111,-1,27,111,28,-1,28,111,112,-1,28,112,56,-1,56,112,113,-1,56,113,58,-1,58,113,114,-1,58,114,85,-1,85,114,115,-1,85,115,86,-1,86,115,116,-1,86,116,88,-1,88,116,117,-1,88,117,90,-1,90,117,118,-1,90,118,92,-1,92,118,119,-1,92,119,93,-1,93,119,120,-1,93,120,47,-1,121,54,53,-1,47,120,122,-1,47,122,49,-1,49,122,123,-1,49,123,51,-1,51,123,124,-1,51,124,53,-1,53,124,125,-1,53,125,121,-1,54,121,126,-1,54,126,44,-1,44,126,127,-1,44,127,42,-1,42,127,128,-1,42,128,40,-1,40,128,129,-1,40,129,38,-1,38,129,130,-1,38,130,24,-1,25,24,131,-1,131,24,130,-1,34,25,132,-1,132,25,131,-1,35,34,133,-1,133,34,132,-1,31,35,134,-1,134,35,133,-1,31,134,135,-1,31,135,83,-1,83,135,136,-1,83,136,81,-1,81,136,137,-1,81,137,79,-1,79,137,138,-1,79,138,77,-1,77,138,139,-1,77,139,75,-1,75,139,140,-1,75,140,73,-1,73,140,94,-1,73,94,71,-1,29,141,142,-1,29,142,60,-1,60,142,143,-1,60,143,61,-1,61,143,144,-1,61,144,63,-1,87,145,146,-1,87,146,59,-1,59,146,147,-1,59,147,57,-1,57,147,148,-1,57,148,55,-1,55,148,141,-1,55,141,29,-1,48,149,150,-1,48,150,46,-1,46,150,151,-1,46,151,91,-1,91,151,152,-1,91,152,89,-1,89,152,145,-1,89,145,87,-1,45,153,154,-1,45,154,52,-1,52,154,155,-1,52,155,50,-1,50,155,149,-1,50,149,48,-1,37,156,157,-1,37,157,39,-1,39,157,158,-1,39,158,41,-1,41,158,159,-1,41,159,43,-1,43,159,153,-1,43,153,45,-1,32,160,161,-1,32,161,30,-1,30,161,162,-1,30,162,26,-1,26,162,163,-1,26,163,36,-1,36,163,156,-1,36,156,37,-1,32,33,160,-1,160,33,164,-1,33,63,164,-1,164,63,144,-1,
        ]
    }
}
Shape{
    appearance Appearance {
        material  Material 	{
            diffuseColor 0.25098039215686274 0.25098039215686274 0.25098039215686274
            specularColor 0.12549019607843137 0.12549019607843137 0.12549019607843137
            ambientIntensity 0.2
            transparency 0
            shininess 0.5
        }
    }
    geometry IndexedFaceSet {
        ccw TRUE
        solid FALSE
        coord DEF co Coordinate {
            point [
                0.565 0.0197 0.1676, 0.565 0.0063 0.1658, 0.565 0.0197 0.1621, 0.565 0.0004 0.1644, 0.565 -0.002 0.1633, 0.565 -0.0034 0.1623, 0.565 0.0197 0.161, 0.565 0.019 0.1569, 0.565 -0.0046 0.1608, 0.565 0.0175 0.1533, 0.565 -0.004 0.1492, 0.565 -0.0031 0.1484, 0.565 0.0141 0.1492, 0.565 -0.0051 0.1509, 0.565 0.0113 0.1473, 0.565 0.0082 0.1462, 0.565 0.0045 0.1458, 0.565 -0.0055 0.1589, 0.565 -0.006 0.1566, 0.565 0.0154 0.1505, 0.565 -0.006 0.155, 0.565 -0.0058 0.1527, 0.565 -0.0011 0.147, 0.565 0.0011 0.1462, 0.565 0.0011 0.1462
            ]
        }
        coordIndex [
            0,1,2,-1,2,1,3,-1,3,4,2,-1,2,4,5,-1,2,5,6,-1,6,5,7,-1,7,5,8,-1,7,8,9,-1,10,11,12,-1,10,12,13,-1,14,12,15,-1,15,12,16,-1,8,17,9,-1,9,17,18,-1,9,18,19,-1,19,18,20,-1,19,20,12,-1,12,20,21,-1,12,21,13,-1,11,22,12,-1,12,22,23,-1,12,23,16,-1,
        ]
    }
}
Shape{
    appearance Appearance {
        material  Material 	{
            diffuseColor 1.0 1.0 1.0
            specularColor 0.5019607843137255 0.5019607843137255 0.5019607843137255
            ambientIntensity 0.2
            transparency 0
            shininess 0.5
        }
    }
    geometry IndexedFaceSet {
        ccw TRUE
        solid FALSE
        coord DEF co Coordinate {
            point [
                0.565 0.0433 0.1513, 0.5689 0.0433 0.1513, 0.5689 0.0469 0.149, 0.5689 0.0598 0.1458, 0.565 0.0598 0.1458, 0.565 0.0532 0.1466, 0.5689 0.0532 0.1466, 0.565 0.048 0.1486, 0.565 0.0469 0.149, 0.5689 0.0433 0.1409, 0.565 0.0433 0.1409, 0.5689 0.0503 0.1385, 0.565 0.048 0.1393, 0.565 0.0588 0.1376, 0.5689 0.0588 0.1376, 0.565 0.0524 0.1382, 0.565 0.0503 0.1385, 0.565 0.0651 0.1382, 0.5689 0.0672 0.1385, 0.565 0.0672 0.1385, 0.565 0.0726 0.1404, 0.5689 0.0726 0.1404, 0.565 0.0755 0.1421, 0.5689 0.0755 0.1421, 0.565 0.0783 0.1446, 0.5689 0.0783 0.1446, 0.565 0.0802 0.1472, 0.5689 0.0802 0.1472, 0.565 0.0815 0.1504, 0.5689 0.0815 0.1504, 0.565 0.0819 0.1545, 0.5689 0.0819 0.1545, 0.565 0.0815 0.1582, 0.5689 0.0815 0.1582, 0.565 0.0805 0.1611, 0.5689 0.0805 0.1611, 0.565 0.0786 0.1639, 0.5689 0.0786 0.1639, 0.565 0.0762 0.1661, 0.5689 0.0762 0.1661, 0.565 0.0695 0.1698, 0.5689 0.0695 0.1698, 0.565 0.0657 0.1713, 0.5689 0.0657 0.1713, 0.565 0.0594 0.174, 0.5689 0.0594 0.174, 0.565 0.0559 0.1762, 0.5689 0.0559 0.1762, 0.565 0.0549 0.1773, 0.5689 0.0549 0.1773, 0.565 0.0542 0.1787, 0.5689 0.0542 0.1787, 0.565 0.0538 0.1802, 0.5689 0.0538 0.1802, 0.565 0.0537 0.1816, 0.5689 0.0537 0.1816, 0.565 0.0539 0.1832, 0.5689 0.0539 0.1832, 0.565 0.0544 0.1845, 0.5689 0.0544 0.1845, 0.565 0.0553 0.1858, 0.5689 0.0553 0.1858, 0.565 0.0568 0.1871, 0.5689 0.0568 0.1871, 0.565 0.059 0.1883, 0.5689 0.059 0.1883, 0.565 0.0617 0.189, 0.5689 0.0617 0.189, 0.565 0.0647 0.1893, 0.5689 0.0647 0.1893, 0.565 0.0717 0.1884, 0.5689 0.0717 0.1884, 0.565 0.0774 0.1862, 0.5689 0.0774 0.1862, 0.565 0.0792 0.1851, 0.5689 0.0792 0.1851, 0.5689 0.0792 0.1949, 0.565 0.0792 0.1949, 0.565 0.0727 0.1968, 0.5689 0.0727 0.1968, 0.565 0.0657 0.1974, 0.5689 0.0657 0.1974, 0.565 0.0575 0.1964, 0.5689 0.0575 0.1964, 0.565 0.0522 0.1943, 0.5689 0.0522 0.1943, 0.565 0.0498 0.1929, 0.5689 0.0498 0.1929, 0.565 0.048 0.1912, 0.5689 0.0469 0.1903, 0.565 0.0469 0.1903, 0.565 0.045 0.1876, 0.5689 0.045 0.1876, 0.565 0.0438 0.1843, 0.5689 0.0438 0.1843, 0.565 0.0434 0.1807, 0.5689 0.0434 0.1807, 0.565 0.0438 0.1769, 0.5689 0.0438 0.1769, 0.565 0.0449 0.1738, 0.5689 0.0449 0.1738, 0.565 0.0462 0.1716, 0.5689 0.0462 0.1716, 0.565 0.0586 0.164, 0.5689 0.0586 0.164, 0.5689 0.0526 0.1668, 0.565 0.0479 0.1699, 0.5689 0.0479 0.1699, 0.565 0.048 0.1698, 0.565 0.0526 0.1668, 0.565 0.0652 0.1613, 0.5689 0.0652 0.1613, 0.565 0.0691 0.1589, 0.5689 0.0691 0.1589, 0.565 0.0703 0.1576, 0.5689 0.0703 0.1576, 0.565 0.0711 0.1563, 0.5689 0.0711 0.1563, 0.565 0.0716 0.1547, 0.5689 0.0716 0.1547, 0.565 0.0716 0.1535, 0.5689 0.0716 0.1535, 0.565 0.0714 0.1516, 0.5689 0.0714 0.1516, 0.565 0.0709 0.1501, 0.5689 0.0709 0.1501, 0.565 0.0701 0.1489, 0.5689 0.0701 0.1489, 0.565 0.0689 0.1478, 0.5689 0.0689 0.1478, 0.565 0.068 0.1473, 0.5689 0.068 0.1473, 0.565 0.0654 0.1463, 0.5689 0.0654 0.1463, 0.565 0.0603 0.1458, 0.5689 0.0603 0.1458, 0.5689 0.1317 0.1961, 0.5689 0.1421 0.1961, 0.565 0.1317 0.1961, 0.565 0.1421 0.1961, 0.5689 0.116 0.153, 0.565 0.116 0.153, 0.565 0.1153 0.1504, 0.5689 0.1153 0.1504, 0.565 0.1148 0.1484, 0.5689 0.1148 0.1484, 0.5689 0.1145 0.1484, 0.565 0.1145 0.1484, 0.5689 0.1133 0.1531, 0.565 0.1133 0.1531, 0.565 0.0984 0.1961, 0.5689 0.0984 0.1961, 0.565 0.1032 0.1822, 0.5689 0.0872 0.1961, 0.565 0.0872 0.1961, 0.565 0.1096 0.139, 0.5689 0.1096 0.139, 0.565 0.1032 0.1553, 0.565 0.1052 0.1286, 0.5689 0.1052 0.1286, 0.565 0.1093 0.1382, 0.565 0.1032 0.125, 0.565 0.1032 0.125, 0.5689 0.1014 0.1229, 0.5689 0.1032 0.125, 0.565 0.1014 0.1229, 0.565 0.0995 0.1217, 0.5689 0.0995 0.1217, 0.565 0.0973 0.1208, 0.5689 0.0973 0.1208, 0.565 0.0949 0.1206, 0.5689 0.0949 0.1206, 0.565 0.0915 0.121, 0.5689 0.0915 0.121, 0.565 0.0892 0.1217, 0.5689 0.0892 0.1217, 0.5689 0.0892 0.1128, 0.565 0.0892 0.1128, 0.565 0.0922 0.1122, 0.5689 0.0922 0.1122, 0.565 0.0957 0.112, 0.5689 0.0957 0.112, 0.565 0.0995 0.1124, 0.5689 0.0995 0.1124, 0.565 0.1032 0.1137, 0.5689 0.1035 0.1138, 0.565 0.1035 0.1138, 0.565 0.107 0.1162, 0.5689 0.107 0.1162, 0.565 0.1085 0.1176, 0.5689 0.1085 0.1176, 0.565 0.1128 0.1234, 0.5689 0.1128 0.1234, 0.565 0.1161 0.1303, 0.5689 0.1161 0.1303, 0.565 0.1192 0.1382, 0.5689 0.1959 0.148, 0.5689 0.1959 0.1389, 0.565 0.1959 0.148, 0.565 0.1959 0.1389, 0.565 0.1632 0.148, 0.5689 0.1632 0.148, 0.565 0.1782 0.148, 0.5689 0.1632 0.175, 0.565 0.1632 0.175, 0.565 0.1918 0.175, 0.5689 0.1918 0.175, 0.565 0.1782 0.175, 0.5689 0.1918 0.1841, 0.565 0.1918 0.1841, 0.565 0.1632 0.1841, 0.5689 0.1632 0.1841, 0.565 0.1782 0.1841, 0.5689 0.1632 0.2098, 0.565 0.1632 0.2098, 0.565 0.1941 0.2098, 0.5689 0.1941 0.2098, 0.565 0.1782 0.2098, 0.5689 0.1941 0.219, 0.565 0.1941 0.219, 0.565 0.1529 0.219, 0.5689 0.1529 0.219, 0.565 0.1782 0.219, 0.5689 0.1529 0.1389, 0.565 0.1529 0.1389, 0.565 0.1782 0.1389, 0.5689 0.2608 0.1613, 0.5689 0.2568 0.1564, 0.5689 0.2642 0.1501, 0.5689 0.2553 0.155, 0.5689 0.2559 0.1442, 0.5689 0.25 0.1516, 0.5689 0.2468 0.1406, 0.5689 0.2432 0.1491, 0.5689 0.2331 0.1389, 0.5689 0.233 0.148, 0.5689 0.2111 0.1389, 0.5689 0.2214 0.148, 0.5689 0.2111 0.219, 0.5689 0.2214 0.2098, 0.5689 0.2339 0.219, 0.5689 0.2335 0.2098, 0.5689 0.2461 0.2176, 0.5689 0.2438 0.2086, 0.5689 0.2558 0.2141, 0.5689 0.2508 0.2061, 0.5689 0.2642 0.2084, 0.5689 0.2566 0.2022, 0.5689 0.2669 0.2057, 0.5689 0.2592 0.1996, 0.5689 0.2719 0.1988, 0.5689 0.2622 0.195, 0.5689 0.2749 0.1912, 0.5689 0.2644 0.1889, 0.5689 0.2762 0.18, 0.5689 0.2654 0.1797, 0.5689 0.276 0.1749, 0.5689 0.2651 0.1746, 0.5689 0.2741 0.1655, 0.5689 0.2636 0.1673, 0.5689 0.2701 0.1572, 0.565 0.2331 0.1389, 0.565 0.2111 0.1389, 0.565 0.2468 0.1406, 0.565 0.2559 0.1442, 0.565 0.2642 0.1501, 0.565 0.2701 0.1572, 0.565 0.2741 0.1655, 0.565 0.276 0.1749, 0.565 0.2762 0.18, 0.565 0.2749 0.1912, 0.565 0.2719 0.1988, 0.565 0.2669 0.2057, 0.565 0.2642 0.2084, 0.565 0.2558 0.2141, 0.565 0.2461 0.2176, 0.565 0.2339 0.219, 0.565 0.2111 0.219, 0.565 0.2335 0.2098, 0.565 0.2214 0.2098, 0.565 0.2214 0.148, 0.565 0.233 0.148, 0.565 0.2568 0.1564, 0.565 0.2553 0.155, 0.565 0.25 0.1516, 0.565 0.2432 0.1491, 0.565 0.2654 0.1797, 0.565 0.2651 0.1746, 0.565 0.2636 0.1673, 0.565 0.2608 0.1613, 0.565 0.2566 0.2022, 0.565 0.2592 0.1996, 0.565 0.2622 0.195, 0.565 0.2644 0.1889, 0.565 0.2438 0.2086, 0.565 0.2508 0.2061, 0.565 0.2508 0.2061
            ]
        }
        coordIndex [
            0,1,2,-1,3,4,5,-1,3,5,6,-1,6,5,7,-1,6,7,2,-1,2,7,8,-1,2,8,0,-1,9,1,10,-1,10,1,0,-1,9,10,11,-1,11,10,12,-1,13,14,15,-1,15,14,11,-1,15,11,16,-1,16,11,12,-1,13,17,14,-1,14,17,18,-1,17,19,18,-1,18,19,20,-1,18,20,21,-1,21,20,22,-1,21,22,23,-1,23,22,24,-1,23,24,25,-1,25,24,26,-1,25,26,27,-1,27,26,28,-1,27,28,29,-1,29,28,30,-1,29,30,31,-1,31,30,32,-1,31,32,33,-1,33,32,34,-1,33,34,35,-1,35,34,36,-1,35,36,37,-1,37,36,38,-1,37,38,39,-1,39,38,40,-1,39,40,41,-1,41,40,42,-1,41,42,43,-1,43,42,44,-1,43,44,45,-1,45,44,46,-1,45,46,47,-1,47,46,48,-1,47,48,49,-1,49,48,50,-1,49,50,51,-1,51,50,52,-1,51,52,53,-1,53,52,54,-1,53,54,55,-1,55,54,56,-1,55,56,57,-1,57,56,58,-1,57,58,59,-1,59,58,60,-1,59,60,61,-1,61,60,62,-1,61,62,63,-1,63,62,64,-1,63,64,65,-1,65,64,66,-1,65,66,67,-1,67,66,68,-1,67,68,69,-1,69,68,70,-1,69,70,71,-1,71,70,72,-1,71,72,73,-1,73,72,74,-1,73,74,75,-1,76,75,77,-1,77,75,74,-1,76,77,78,-1,76,78,79,-1,79,78,80,-1,79,80,81,-1,81,80,82,-1,81,82,83,-1,83,82,84,-1,83,84,85,-1,85,84,86,-1,85,86,87,-1,86,88,87,-1,87,88,89,-1,88,90,89,-1,89,90,91,-1,89,91,92,-1,92,91,93,-1,92,93,94,-1,94,93,95,-1,94,95,96,-1,96,95,97,-1,96,97,98,-1,98,97,99,-1,98,99,100,-1,100,99,101,-1,100,101,102,-1,103,104,105,-1,102,101,106,-1,102,106,107,-1,107,106,108,-1,107,108,105,-1,105,108,109,-1,105,109,103,-1,104,103,110,-1,104,110,111,-1,111,110,112,-1,111,112,113,-1,113,112,114,-1,113,114,115,-1,115,114,116,-1,115,116,117,-1,117,116,118,-1,117,118,119,-1,119,118,120,-1,119,120,121,-1,121,120,122,-1,121,122,123,-1,123,122,124,-1,123,124,125,-1,125,124,126,-1,125,126,127,-1,127,126,128,-1,127,128,129,-1,129,128,130,-1,129,130,131,-1,131,130,132,-1,131,132,133,-1,133,132,134,-1,133,134,135,-1,135,134,4,-1,135,4,3,-1,61,63,85,-1,85,63,83,-1,111,43,104,-1,104,43,45,-1,21,23,127,-1,127,23,25,-1,127,25,125,-1,125,25,27,-1,125,27,123,-1,123,27,29,-1,123,29,121,-1,121,29,31,-1,121,31,119,-1,119,31,33,-1,119,33,117,-1,117,33,35,-1,117,35,115,-1,115,35,37,-1,115,37,113,-1,113,37,39,-1,113,39,111,-1,111,39,41,-1,111,41,43,-1,14,3,11,-1,11,3,6,-1,11,6,9,-1,9,6,2,-1,9,2,1,-1,63,65,83,-1,83,65,67,-1,83,67,81,-1,81,67,69,-1,81,69,79,-1,79,69,71,-1,79,71,76,-1,76,71,73,-1,76,73,75,-1,127,129,21,-1,21,129,131,-1,21,131,18,-1,18,131,133,-1,18,133,14,-1,14,133,135,-1,14,135,3,-1,85,87,61,-1,61,87,89,-1,61,89,59,-1,59,89,92,-1,59,92,57,-1,57,92,94,-1,57,94,55,-1,55,94,96,-1,55,96,53,-1,53,96,98,-1,53,98,51,-1,51,98,100,-1,51,100,49,-1,49,100,102,-1,49,102,47,-1,47,102,107,-1,47,107,45,-1,45,107,105,-1,45,105,104,-1,136,137,138,-1,138,137,139,-1,140,136,141,-1,141,136,138,-1,140,141,142,-1,140,142,143,-1,143,142,144,-1,143,144,145,-1,146,145,147,-1,147,145,144,-1,148,146,149,-1,149,146,147,-1,150,151,152,-1,152,151,148,-1,152,148,149,-1,153,151,154,-1,154,151,150,-1,155,156,157,-1,157,156,153,-1,157,153,154,-1,158,159,160,-1,160,159,156,-1,160,156,155,-1,159,158,161,-1,162,163,161,-1,161,163,164,-1,161,164,159,-1,162,165,163,-1,163,165,166,-1,163,166,167,-1,167,166,168,-1,167,168,169,-1,169,168,170,-1,169,170,171,-1,171,170,172,-1,171,172,173,-1,173,172,174,-1,173,174,175,-1,176,175,177,-1,177,175,174,-1,176,177,178,-1,176,178,179,-1,179,178,180,-1,179,180,181,-1,181,180,182,-1,181,182,183,-1,183,182,184,-1,183,184,185,-1,184,186,185,-1,185,186,187,-1,185,187,188,-1,188,187,189,-1,188,189,190,-1,190,189,191,-1,190,191,192,-1,192,191,193,-1,192,193,194,-1,139,137,195,-1,195,137,194,-1,195,194,193,-1,143,145,194,-1,137,136,194,-1,194,136,140,-1,194,140,143,-1,151,153,148,-1,148,153,156,-1,148,156,146,-1,175,176,173,-1,173,176,179,-1,173,179,171,-1,171,179,181,-1,171,181,169,-1,169,181,183,-1,169,183,167,-1,167,183,185,-1,167,185,163,-1,163,185,188,-1,163,188,164,-1,164,188,190,-1,164,190,159,-1,159,190,192,-1,159,192,156,-1,156,192,194,-1,156,194,146,-1,146,194,145,-1,196,197,198,-1,198,197,199,-1,200,201,202,-1,202,201,196,-1,202,196,198,-1,203,201,204,-1,204,201,200,-1,205,206,207,-1,207,206,203,-1,207,203,204,-1,208,206,209,-1,209,206,205,-1,210,211,212,-1,212,211,208,-1,212,208,209,-1,213,211,214,-1,214,211,210,-1,215,216,217,-1,217,216,213,-1,217,213,214,-1,218,216,219,-1,219,216,215,-1,220,221,222,-1,222,221,218,-1,222,218,219,-1,223,221,224,-1,224,221,220,-1,199,197,225,-1,225,197,223,-1,225,223,224,-1,197,196,223,-1,223,196,201,-1,206,208,203,-1,203,208,211,-1,216,218,213,-1,213,218,221,-1,213,221,211,-1,211,221,223,-1,211,223,203,-1,203,223,201,-1,226,227,228,-1,228,227,229,-1,228,229,230,-1,230,229,231,-1,230,231,232,-1,232,231,233,-1,232,233,234,-1,234,233,235,-1,234,235,236,-1,236,235,237,-1,236,237,238,-1,238,237,239,-1,238,239,240,-1,240,239,241,-1,240,241,242,-1,242,241,243,-1,242,243,244,-1,244,243,245,-1,244,245,246,-1,246,245,247,-1,246,247,248,-1,248,247,249,-1,248,249,250,-1,250,249,251,-1,250,251,252,-1,252,251,253,-1,252,253,254,-1,254,253,255,-1,254,255,256,-1,256,255,257,-1,256,257,258,-1,258,257,259,-1,258,259,260,-1,260,259,226,-1,260,226,228,-1,234,236,261,-1,261,236,262,-1,234,261,263,-1,234,263,232,-1,232,263,264,-1,232,264,230,-1,230,264,265,-1,230,265,228,-1,228,265,266,-1,228,266,260,-1,260,266,267,-1,260,267,258,-1,258,267,268,-1,258,268,256,-1,256,268,269,-1,256,269,254,-1,254,269,270,-1,254,270,252,-1,252,270,271,-1,252,271,250,-1,250,271,272,-1,250,272,248,-1,248,272,273,-1,248,273,246,-1,246,273,274,-1,246,274,244,-1,244,274,275,-1,244,275,242,-1,242,275,276,-1,242,276,240,-1,238,240,277,-1,277,240,276,-1,236,238,262,-1,262,238,277,-1,241,239,278,-1,278,239,279,-1,239,237,279,-1,279,237,280,-1,237,235,280,-1,280,235,281,-1,227,282,283,-1,227,283,229,-1,229,283,284,-1,229,284,231,-1,231,284,285,-1,231,285,233,-1,233,285,281,-1,233,281,235,-1,255,286,287,-1,255,287,257,-1,257,287,288,-1,257,288,259,-1,259,288,289,-1,259,289,226,-1,226,289,282,-1,226,282,227,-1,247,290,291,-1,247,291,249,-1,249,291,292,-1,249,292,251,-1,251,292,293,-1,251,293,253,-1,253,293,286,-1,253,286,255,-1,241,278,294,-1,241,294,243,-1,243,294,295,-1,243,295,245,-1,245,295,290,-1,245,290,247,-1,
        ]
    }
}
Shape{
    appearance Appearance {
        material  Material 	{
            diffuseColor 0.25098039215686274 0.25098039215686274 0.25098039215686274
            specularColor 0.12549019607843137 0.12549019607843137 0.12549019607843137
            ambientIntensity 0.2
            transparency 0
            shininess 0.5
        }
    }
    geometry IndexedFaceSet {
        ccw TRUE
        solid FALSE
        coord DEF co Coordinate {
            point [
                0.565 0.2214 0.2098, 0.565 0.2214 0.148, 0.565 0.2335 0.2098, 0.565 0.233 0.148, 0.565 0.2432 0.1491, 0.565 0.25 0.1516, 0.565 0.2553 0.155, 0.565 0.2568 0.1564, 0.565 0.2608 0.1613, 0.565 0.2636 0.1673, 0.565 0.2651 0.1746, 0.565 0.2654 0.1797, 0.565 0.2644 0.1889, 0.565 0.2622 0.195, 0.565 0.2592 0.1996, 0.565 0.2566 0.2022, 0.565 0.2438 0.2086, 0.565 0.2508 0.2061, 0.565 0.2508 0.2061
            ]
        }
        coordIndex [
            0,1,2,-1,2,1,3,-1,2,3,4,-1,4,5,2,-1,2,5,6,-1,2,6,7,-1,7,8,2,-1,2,8,9,-1,2,9,10,-1,10,11,2,-1,2,11,12,-1,2,12,13,-1,13,14,2,-1,2,14,15,-1,2,15,16,-1,16,15,17,-1,
        ]
    }
}
Shape{
    appearance Appearance {
        material  Material 	{
            diffuseColor 1.0 1.0 1.0
            specularColor 0.5019607843137255 0.5019607843137255 0.5019607843137255
            ambientIntensity 0.2
            transparency 0
            shininess 0.5
        }
    }
    geometry IndexedFaceSet {
        ccw TRUE
        solid FALSE
        coord DEF co Coordinate {
            point [
                0.5689 0.3031 0.1699, 0.5689 0.2998 0.1608, 0.5689 0.33 0.1699, 0.5689 0.3331 0.1608, 0.5689 0.3151 0.2031, 0.5689 0.3112 0.219, 0.5689 0.2807 0.1389, 0.5689 0.2921 0.1389, 0.5689 0.3157 0.2055, 0.5689 0.3164 0.2087, 0.5689 0.3222 0.219, 0.5689 0.3166 0.2087, 0.5689 0.3173 0.2054, 0.5689 0.3179 0.2031, 0.5689 0.3527 0.1389, 0.5689 0.3413 0.1389, 0.565 0.3222 0.219, 0.565 0.3527 0.1389, 0.565 0.3112 0.219, 0.565 0.2807 0.1389, 0.565 0.2921 0.1389, 0.565 0.2998 0.1608, 0.565 0.3331 0.1608, 0.565 0.3413 0.1389, 0.565 0.3031 0.1699, 0.565 0.33 0.1699, 0.565 0.3179 0.2031, 0.565 0.3166 0.2087, 0.565 0.3173 0.2054, 0.565 0.3164 0.2087, 0.565 0.3151 0.2031, 0.565 0.3157 0.2055, 0.565 0.3157 0.2055
            ]
        }
        coordIndex [
            0,1,2,-1,2,1,3,-1,4,5,0,-1,0,5,6,-1,0,6,1,-1,1,6,7,-1,4,8,5,-1,5,8,9,-1,5,9,10,-1,10,9,11,-1,10,11,12,-1,12,13,10,-1,10,13,2,-1,10,2,14,-1,14,2,3,-1,14,3,15,-1,10,14,16,-1,16,14,17,-1,5,10,18,-1,18,10,16,-1,6,5,19,-1,19,5,18,-1,7,6,20,-1,20,6,19,-1,1,7,21,-1,21,7,20,-1,3,1,22,-1,22,1,21,-1,15,3,23,-1,23,3,22,-1,14,15,17,-1,17,15,23,-1,0,2,24,-1,24,2,25,-1,2,13,25,-1,25,13,26,-1,11,27,28,-1,11,28,12,-1,12,28,26,-1,12,26,13,-1,11,9,27,-1,27,9,29,-1,4,30,31,-1,4,31,8,-1,8,31,29,-1,8,29,9,-1,4,0,30,-1,30,0,24,-1,
        ]
    }
}
Shape{
    appearance Appearance {
        material  Material 	{
            diffuseColor 0.25098039215686274 0.25098039215686274 0.25098039215686274
            specularColor 0.12549019607843137 0.12549019607843137 0.12549019607843137
            ambientIntensity 0.2
            transparency 0
            shininess 0.5
        }
    }
    geometry IndexedFaceSet {
        ccw TRUE
        solid FALSE
        coord DEF co Coordinate {
            point [
                0.565 0.3166 0.2087, 0.565 0.3164 0.2087, 0.565 0.3173 0.2054, 0.565 0.3157 0.2055, 0.565 0.3179 0.2031, 0.565 0.3151 0.2031, 0.565 0.33 0.1699, 0.565 0.3031 0.1699, 0.565 0.3031 0.1699
            ]
        }
        coordIndex [
            0,1,2,-1,2,1,3,-1,2,3,4,-1,4,3,5,-1,4,5,6,-1,6,5,7,-1,
        ]
    }
}
Shape{
    appearance Appearance {
        material  Material 	{
            diffuseColor 1.0 1.0 1.0
            specularColor 0.5019607843137255 0.5019607843137255 0.5019607843137255
            ambientIntensity 0.2
            transparency 0
            shininess 0.5
        }
    }
    geometry IndexedFaceSet {
        ccw TRUE
        solid FALSE
        coord DEF co Coordinate {
            point [
                0.5689 -0.4225 0.1276, 0.5689 -0.4141 0.1172, 0.5689 -0.4276 0.1779, 0.5689 -0.4369 0.2773, 0.5689 -0.4241 0.2839, 0.5689 -0.4279 0.3186, 0.5689 -0.3271 0.126, 0.5689 -0.3206 0.1388, 0.5689 -0.3174 0.1529, 0.5689 -0.3923 0.3202, 0.5689 -0.3747 0.2787, 0.5689 -0.3659 0.2968, 0.5689 -0.4054 0.3214, 0.5689 -0.2375 0.2058, 0.5689 -0.2551 0.236, 0.5689 -0.3172 0.1637, 0.5689 -0.3314 0.1961, 0.5689 -0.3172 0.158, 0.5689 -0.3479 0.1075, 0.5689 -0.3365 0.1153, 0.5689 -0.3896 0.141, 0.5689 -0.3851 0.1378, 0.5689 -0.403 0.1088, 0.5689 -0.3799 0.1358, 0.5689 -0.3543 0.1662, 0.5689 -0.3528 0.161, 0.5689 -0.3526 0.1555, 0.5689 -0.3538 0.15, 0.5689 -0.3563 0.145, 0.5689 -0.2187 0.2622, 0.5689 -0.2142 0.2622, 0.5689 -0.1908 0.2929, 0.5689 -0.2034 0.2608, 0.5689 -0.1882 0.292, 0.5689 -0.1934 0.257, 0.5689 -0.1712 0.2837, 0.5689 -0.1558 0.2706, 0.5689 -0.3807 0.3338, 0.5689 -0.3532 0.312, 0.5689 -0.3673 0.3453, 0.5689 -0.3381 0.323, 0.5689 -0.3534 0.3539, 0.5689 -0.4396 0.1852, 0.5689 -0.4355 0.142, 0.5689 -0.4282 0.1398, 0.5689 -0.41 0.287, 0.5689 -0.4049 0.2872, 0.5689 -0.3989 0.321, 0.5689 -0.3919 0.2856, 0.5689 -0.3791 0.2811, 0.5689 -0.3968 0.1552, 0.5689 -0.3956 0.1499, 0.5689 -0.3932 0.1452, 0.5689 -0.3898 0.1032, 0.5689 -0.3764 0.1011, 0.5689 -0.3747 0.1352, 0.5689 -0.3741 0.1011, 0.5689 -0.3692 0.1359, 0.5689 -0.3606 0.1027, 0.5689 -0.3643 0.1378, 0.5689 -0.3599 0.1409, 0.5689 -0.1846 0.2509, 0.5689 -0.1779 0.2434, 0.5689 -0.1441 0.2545, 0.5689 -0.1727 0.2336, 0.5689 -0.1371 0.2371, 0.5689 -0.1345 0.2183, 0.5689 -0.17 0.2226, 0.5689 -0.1698 0.2178, 0.5689 -0.137 0.1981, 0.5689 -0.1711 0.2067, 0.5689 -0.1442 0.1801, 0.5689 -0.175 0.1966, 0.5689 -0.1555 0.1643, 0.5689 -0.2216 0.3379, 0.5689 -0.2441 0.312, 0.5689 -0.2029 0.3163, 0.5689 -0.2312 0.2967, 0.5689 -0.2223 0.2784, 0.5689 -0.449 0.3104, 0.5689 -0.4671 0.2976, 0.5689 -0.4475 0.2679, 0.5689 -0.4709 0.2941, 0.5689 -0.4554 0.2565, 0.5689 -0.4847 0.2764, 0.5689 -0.4602 0.2438, 0.5689 -0.3967 0.1607, 0.5689 -0.3951 0.1661, 0.5689 -0.4212 0.1903, 0.5689 -0.3923 0.1709, 0.5689 -0.4118 0.2011, 0.5689 -0.3895 0.1739, 0.5689 -0.4001 0.2091, 0.5689 -0.3851 0.177, 0.5689 -0.3875 0.2139, 0.5689 -0.3801 0.179, 0.5689 -0.3741 0.2155, 0.5689 -0.3747 0.1796, 0.5689 -0.3672 0.2151, 0.5689 -0.3709 0.1793, 0.5689 -0.3534 0.2117, 0.5689 -0.3655 0.1776, 0.5689 -0.3413 0.2052, 0.5689 -0.3608 0.1747, 0.5689 -0.3569 0.1708, 0.5689 -0.3272 0.364, 0.5689 -0.3195 0.3306, 0.5689 -0.299 0.3675, 0.5689 -0.2984 0.3333, 0.5689 -0.2755 0.365, 0.5689 -0.279 0.3309, 0.5689 -0.2469 0.355, 0.5689 -0.2611 0.3241, 0.5689 -0.2452 0.3129, 0.5689 -0.4937 0.2559, 0.5689 -0.4975 0.2345, 0.5689 -0.4618 0.2303, 0.5689 -0.4977 0.2292, 0.5689 -0.4612 0.2219, 0.5689 -0.4949 0.2067, 0.5689 -0.4572 0.2079, 0.5689 -0.4867 0.1855, 0.5689 -0.4499 0.1956, 0.5689 -0.4738 0.1671, 0.5689 -0.4561 0.152, 0.5689 -0.257 0.1527, 0.5689 -0.2557 0.1488, 0.5689 -0.2392 0.1739, 0.5689 -0.2534 0.1451, 0.5689 -0.2574 0.1563, 0.5689 -0.2398 0.1739, 0.5689 -0.2573 0.1583, 0.5689 -0.2435 0.1735, 0.5689 -0.2474 0.1722, 0.5689 -0.1813 0.1877, 0.5689 -0.1821 0.1868, 0.5689 -0.1709 0.1512, 0.5689 -0.1906 0.1799, 0.5689 -0.1883 0.1427, 0.5689 -0.2006 0.1753, 0.5689 -0.2073 0.1386, 0.5689 -0.2107 0.1734, 0.5689 -0.2409 0.1386, 0.5689 -0.2364 0.1734, 0.5689 -0.2422 0.1388, 0.5689 -0.2375 0.1735, 0.5689 -0.2461 0.1398, 0.5689 -0.2501 0.142, 0.5689 -0.251 0.1698, 0.5689 -0.254 0.1666, 0.5689 -0.2562 0.1627, 0.565 -0.1519 0.2653, 0.565 -0.1441 0.2545, 0.565 -0.139 0.2418, 0.565 -0.1371 0.2371, 0.565 -0.1345 0.2183, 0.565 -0.1558 0.2706, 0.565 -0.1712 0.2837, 0.565 -0.1882 0.292, 0.565 -0.1908 0.2929, 0.565 -0.2029 0.3163, 0.565 -0.2216 0.3379, 0.565 -0.2346 0.3467, 0.565 -0.2469 0.355, 0.565 -0.2755 0.365, 0.565 -0.299 0.3675, 0.565 -0.3272 0.364, 0.565 -0.3534 0.3539, 0.565 -0.365 0.3467, 0.565 -0.3673 0.3453, 0.565 -0.3807 0.3338, 0.565 -0.3923 0.3202, 0.565 -0.3989 0.321, 0.565 -0.4054 0.3214, 0.565 -0.4279 0.3186, 0.565 -0.449 0.3104, 0.565 -0.4671 0.2976, 0.565 -0.4709 0.2941, 0.565 -0.4847 0.2764, 0.565 -0.4896 0.2653, 0.565 -0.4937 0.2559, 0.565 -0.4962 0.2418, 0.565 -0.4975 0.2345, 0.565 -0.4977 0.2292, 0.565 -0.4949 0.2067, 0.565 -0.4867 0.1855, 0.565 -0.4738 0.1671, 0.565 -0.4561 0.152, 0.565 -0.4355 0.142, 0.565 -0.4282 0.1398, 0.565 -0.4275 0.1382, 0.565 -0.4225 0.1276, 0.565 -0.4141 0.1172, 0.565 -0.403 0.1088, 0.565 -0.3977 0.1065, 0.565 -0.3898 0.1032, 0.565 -0.3764 0.1011, 0.565 -0.3741 0.1011, 0.565 -0.3606 0.1027, 0.565 -0.3505 0.1065, 0.565 -0.3479 0.1075, 0.565 -0.3365 0.1153, 0.565 -0.3271 0.126, 0.565 -0.3208 0.1382, 0.565 -0.3206 0.1388, 0.565 -0.3174 0.1529, 0.565 -0.3172 0.158, 0.565 -0.3172 0.1637, 0.565 -0.2375 0.2058, 0.565 -0.2551 0.236, 0.565 -0.3314 0.1961, 0.565 -0.3413 0.2052, 0.565 -0.3534 0.2117, 0.565 -0.3672 0.2151, 0.565 -0.3741 0.2155, 0.565 -0.3875 0.2139, 0.565 -0.4001 0.2091, 0.565 -0.4118 0.2011, 0.565 -0.4212 0.1903, 0.565 -0.4276 0.1779, 0.565 -0.4396 0.1852, 0.565 -0.4499 0.1956, 0.565 -0.4572 0.2079, 0.565 -0.4612 0.2219, 0.565 -0.4618 0.2303, 0.565 -0.4604 0.2418, 0.565 -0.4602 0.2438, 0.565 -0.4554 0.2565, 0.565 -0.4493 0.2653, 0.565 -0.4475 0.2679, 0.565 -0.4369 0.2773, 0.565 -0.4241 0.2839, 0.565 -0.41 0.287, 0.565 -0.4049 0.2872, 0.565 -0.3919 0.2856, 0.565 -0.3791 0.2811, 0.565 -0.3747 0.2787, 0.565 -0.3659 0.2968, 0.565 -0.3532 0.312, 0.565 -0.3381 0.323, 0.565 -0.3195 0.3306, 0.565 -0.2984 0.3333, 0.565 -0.279 0.3309, 0.565 -0.2611 0.3241, 0.565 -0.2452 0.3129, 0.565 -0.2441 0.312, 0.565 -0.2312 0.2967, 0.565 -0.2223 0.2784, 0.565 -0.2194 0.2653, 0.565 -0.2187 0.2622, 0.565 -0.2142 0.2622, 0.565 -0.2034 0.2608, 0.565 -0.1934 0.257, 0.565 -0.1846 0.2509, 0.565 -0.1779 0.2434, 0.565 -0.1771 0.2418, 0.565 -0.1727 0.2336, 0.565 -0.17 0.2226, 0.565 -0.1698 0.2178, 0.565 -0.1711 0.2067, 0.565 -0.175 0.1966, 0.565 -0.1813 0.1877, 0.565 -0.1821 0.1868, 0.565 -0.1906 0.1799, 0.565 -0.2006 0.1753, 0.565 -0.2107 0.1734, 0.565 -0.2364 0.1734, 0.565 -0.2375 0.1735, 0.565 -0.2392 0.1739, 0.565 -0.2398 0.1739, 0.565 -0.2435 0.1735, 0.565 -0.2474 0.1722, 0.565 -0.251 0.1698, 0.565 -0.254 0.1666, 0.565 -0.2562 0.1627, 0.565 -0.2573 0.1583, 0.565 -0.2574 0.1563, 0.565 -0.257 0.1527, 0.565 -0.2557 0.1488, 0.565 -0.2534 0.1451, 0.565 -0.2501 0.142, 0.565 -0.2461 0.1398, 0.565 -0.2422 0.1388, 0.565 -0.2409 0.1386, 0.565 -0.2073 0.1386, 0.565 -0.1883 0.1427, 0.565 -0.1709 0.1512, 0.565 -0.1555 0.1643, 0.565 -0.1442 0.1801, 0.565 -0.137 0.1981, 0.565 -0.3747 0.1796, 0.565 -0.3709 0.1793, 0.565 -0.3655 0.1776, 0.565 -0.3608 0.1747, 0.565 -0.3569 0.1708, 0.565 -0.3543 0.1662, 0.565 -0.3528 0.161, 0.565 -0.3526 0.1555, 0.565 -0.3538 0.15, 0.565 -0.3563 0.145, 0.565 -0.3599 0.1409, 0.565 -0.3643 0.1378, 0.565 -0.3692 0.1359, 0.565 -0.3747 0.1352, 0.565 -0.3799 0.1358, 0.565 -0.3851 0.1378, 0.565 -0.3896 0.141, 0.565 -0.3932 0.1452, 0.565 -0.3956 0.1499, 0.565 -0.3968 0.1552, 0.565 -0.3967 0.1607, 0.565 -0.3951 0.1661, 0.565 -0.3923 0.1709, 0.565 -0.3895 0.1739, 0.565 -0.3851 0.177, 0.565 -0.3801 0.179, 0.565 -0.3801 0.179
            ]
        }
        coordIndex [
            0,1,2,-1,3,4,5,-1,6,7,8,-1,9,10,11,-1,5,4,12,-1,13,14,15,-1,15,14,16,-1,15,16,17,-1,17,16,18,-1,17,18,8,-1,8,18,19,-1,8,19,6,-1,20,1,21,-1,21,1,22,-1,21,22,23,-1,24,25,16,-1,16,25,26,-1,16,26,18,-1,18,26,27,-1,18,27,28,-1,29,30,31,-1,31,30,32,-1,31,32,33,-1,33,32,34,-1,33,34,35,-1,35,34,36,-1,9,11,37,-1,37,11,38,-1,37,38,39,-1,39,38,40,-1,39,40,41,-1,42,43,2,-1,2,43,44,-1,2,44,0,-1,4,45,12,-1,12,45,46,-1,12,46,47,-1,47,46,48,-1,47,48,9,-1,9,48,49,-1,9,49,10,-1,50,2,51,-1,51,2,1,-1,51,1,52,-1,52,1,20,-1,22,53,23,-1,23,53,54,-1,23,54,55,-1,55,54,56,-1,55,56,57,-1,57,56,58,-1,57,58,59,-1,59,58,18,-1,59,18,60,-1,60,18,28,-1,34,61,36,-1,36,61,62,-1,36,62,63,-1,63,62,64,-1,63,64,65,-1,65,64,66,-1,64,67,66,-1,66,67,68,-1,66,68,69,-1,69,68,70,-1,69,70,71,-1,71,70,72,-1,71,72,73,-1,74,75,76,-1,76,75,77,-1,76,77,31,-1,31,77,78,-1,31,78,29,-1,5,79,3,-1,3,79,80,-1,3,80,81,-1,81,80,82,-1,81,82,83,-1,83,82,84,-1,83,84,85,-1,50,86,2,-1,2,86,87,-1,2,87,88,-1,88,87,89,-1,88,89,90,-1,90,89,91,-1,90,91,92,-1,92,91,93,-1,92,93,94,-1,94,93,95,-1,94,95,96,-1,96,95,97,-1,96,97,98,-1,98,97,99,-1,98,99,100,-1,100,99,101,-1,100,101,102,-1,102,101,103,-1,102,103,16,-1,16,103,104,-1,16,104,24,-1,41,40,105,-1,105,40,106,-1,105,106,107,-1,107,106,108,-1,107,108,109,-1,109,108,110,-1,109,110,111,-1,111,110,112,-1,111,112,74,-1,74,112,113,-1,74,113,75,-1,84,114,85,-1,85,114,115,-1,85,115,116,-1,116,115,117,-1,116,117,118,-1,118,117,119,-1,118,119,120,-1,120,119,121,-1,120,121,122,-1,122,121,123,-1,122,123,42,-1,42,123,124,-1,42,124,43,-1,125,126,127,-1,127,126,128,-1,125,127,129,-1,129,127,130,-1,129,130,131,-1,131,130,132,-1,131,132,133,-1,72,134,73,-1,73,134,135,-1,73,135,136,-1,136,135,137,-1,136,137,138,-1,138,137,139,-1,138,139,140,-1,140,139,141,-1,140,141,142,-1,142,141,143,-1,142,143,144,-1,144,143,145,-1,144,145,146,-1,146,145,127,-1,146,127,147,-1,147,127,128,-1,133,148,131,-1,131,148,149,-1,131,149,150,-1,151,36,152,-1,152,36,63,-1,152,63,153,-1,153,63,65,-1,153,65,154,-1,154,65,66,-1,154,66,155,-1,151,156,36,-1,36,156,157,-1,36,157,35,-1,35,157,158,-1,35,158,33,-1,33,158,159,-1,33,159,31,-1,31,159,160,-1,31,160,76,-1,76,160,161,-1,76,161,74,-1,111,74,162,-1,162,74,161,-1,162,163,111,-1,111,163,164,-1,111,164,109,-1,109,164,165,-1,109,165,107,-1,107,165,166,-1,107,166,105,-1,105,166,167,-1,105,167,41,-1,41,167,39,-1,39,167,168,-1,39,168,169,-1,39,169,170,-1,39,170,37,-1,37,170,171,-1,37,171,9,-1,9,171,172,-1,9,172,47,-1,47,172,173,-1,47,173,12,-1,12,173,174,-1,12,174,5,-1,5,174,175,-1,5,175,79,-1,79,175,176,-1,79,176,80,-1,80,176,177,-1,80,177,82,-1,114,84,178,-1,178,84,82,-1,178,82,177,-1,178,179,114,-1,114,179,180,-1,114,180,115,-1,115,180,181,-1,181,182,115,-1,115,182,183,-1,115,183,117,-1,117,183,184,-1,117,184,119,-1,119,184,185,-1,119,185,121,-1,121,185,186,-1,121,186,123,-1,123,186,187,-1,123,187,124,-1,124,187,188,-1,124,188,43,-1,43,188,189,-1,43,189,44,-1,44,189,190,-1,44,190,0,-1,190,191,0,-1,0,191,192,-1,0,192,1,-1,1,192,193,-1,1,193,22,-1,22,193,194,-1,22,194,53,-1,194,195,53,-1,53,195,196,-1,53,196,54,-1,54,196,197,-1,54,197,56,-1,56,197,198,-1,199,18,198,-1,198,18,58,-1,198,58,56,-1,199,200,18,-1,18,200,201,-1,18,201,19,-1,19,201,202,-1,19,202,6,-1,6,202,203,-1,6,203,7,-1,203,204,7,-1,7,204,205,-1,7,205,8,-1,8,205,206,-1,8,206,17,-1,15,17,207,-1,207,17,206,-1,13,15,208,-1,208,15,207,-1,14,13,209,-1,209,13,208,-1,16,14,210,-1,210,14,209,-1,16,210,211,-1,16,211,102,-1,102,211,212,-1,102,212,100,-1,100,212,213,-1,100,213,98,-1,98,213,214,-1,98,214,96,-1,96,214,215,-1,96,215,94,-1,94,215,216,-1,94,216,92,-1,92,216,217,-1,92,217,90,-1,90,217,218,-1,90,218,88,-1,88,218,219,-1,88,219,2,-1,2,219,220,-1,2,220,42,-1,42,220,221,-1,42,221,122,-1,122,221,222,-1,122,222,120,-1,120,222,223,-1,120,223,118,-1,118,223,224,-1,118,224,116,-1,116,224,225,-1,116,225,85,-1,85,225,226,-1,85,226,227,-1,228,81,227,-1,227,81,83,-1,227,83,85,-1,228,229,81,-1,81,229,230,-1,81,230,3,-1,3,230,231,-1,3,231,4,-1,4,231,232,-1,4,232,45,-1,45,232,233,-1,45,233,46,-1,46,233,234,-1,46,234,48,-1,48,234,235,-1,48,235,49,-1,49,235,236,-1,49,236,10,-1,10,236,237,-1,10,237,11,-1,11,237,238,-1,11,238,38,-1,38,238,239,-1,38,239,40,-1,40,239,240,-1,40,240,106,-1,106,240,241,-1,106,241,108,-1,108,241,242,-1,108,242,110,-1,110,242,243,-1,110,243,112,-1,112,243,244,-1,112,244,113,-1,113,244,245,-1,113,245,75,-1,75,245,246,-1,75,246,77,-1,77,246,247,-1,77,247,78,-1,78,247,29,-1,29,247,248,-1,29,248,249,-1,30,29,250,-1,250,29,249,-1,30,250,251,-1,30,251,32,-1,32,251,252,-1,32,252,34,-1,34,252,253,-1,34,253,61,-1,61,253,254,-1,61,254,62,-1,62,254,255,-1,62,255,64,-1,255,256,64,-1,64,256,257,-1,64,257,67,-1,67,257,258,-1,67,258,68,-1,68,258,259,-1,68,259,70,-1,70,259,260,-1,70,260,72,-1,72,260,261,-1,72,261,134,-1,134,261,262,-1,134,262,135,-1,135,262,263,-1,135,263,137,-1,137,263,264,-1,137,264,139,-1,139,264,265,-1,139,265,141,-1,143,141,266,-1,266,141,265,-1,143,266,267,-1,143,267,145,-1,145,267,268,-1,145,268,127,-1,127,268,269,-1,127,269,130,-1,130,269,270,-1,130,270,132,-1,132,270,271,-1,132,271,133,-1,133,271,272,-1,133,272,148,-1,148,272,273,-1,148,273,149,-1,149,273,274,-1,149,274,150,-1,150,274,275,-1,150,275,131,-1,131,275,276,-1,131,276,129,-1,129,276,277,-1,129,277,125,-1,125,277,278,-1,125,278,126,-1,126,278,279,-1,126,279,128,-1,128,279,280,-1,128,280,147,-1,147,280,281,-1,147,281,146,-1,146,281,282,-1,146,282,144,-1,144,282,283,-1,144,283,142,-1,140,142,284,-1,284,142,283,-1,140,284,285,-1,140,285,138,-1,138,285,286,-1,138,286,136,-1,136,286,287,-1,136,287,73,-1,73,287,288,-1,73,288,71,-1,71,288,289,-1,71,289,69,-1,69,289,155,-1,69,155,66,-1,97,290,291,-1,97,291,99,-1,99,291,292,-1,99,292,101,-1,101,292,293,-1,101,293,103,-1,103,293,294,-1,103,294,104,-1,104,294,295,-1,104,295,24,-1,24,295,296,-1,24,296,25,-1,25,296,297,-1,25,297,26,-1,26,297,298,-1,26,298,27,-1,27,298,299,-1,27,299,28,-1,28,299,300,-1,28,300,60,-1,60,300,301,-1,60,301,59,-1,59,301,302,-1,59,302,57,-1,57,302,303,-1,57,303,55,-1,55,303,304,-1,55,304,23,-1,23,304,305,-1,23,305,21,-1,21,305,306,-1,21,306,20,-1,20,306,307,-1,20,307,52,-1,52,307,308,-1,52,308,51,-1,51,308,309,-1,51,309,50,-1,50,309,310,-1,50,310,86,-1,86,310,311,-1,86,311,87,-1,87,311,312,-1,87,312,89,-1,89,312,313,-1,89,313,91,-1,91,313,314,-1,91,314,93,-1,93,314,315,-1,93,315,95,-1,95,315,290,-1,95,290,97,-1,
        ]
    }
}
Shape{
    appearance Appearance {
        material  Material 	{
            diffuseColor 0.25098039215686274 0.25098039215686274 0.25098039215686274
            specularColor 0.12549019607843137 0.12549019607843137 0.12549019607843137
            ambientIntensity 0.2
            transparency 0
            shininess 0.5
        }
    }
    geometry IndexedFaceSet {
        ccw TRUE
        solid FALSE
        coord DEF co Coordinate {
            point [
                0.565 -0.3747 0.1352, 0.565 -0.3895 0.1739, 0.565 -0.3923 0.1709, 0.565 -0.3747 0.1796, 0.565 -0.3709 0.1793, 0.565 -0.3692 0.1359, 0.565 -0.3801 0.179, 0.565 -0.3851 0.177, 0.565 -0.3599 0.1409, 0.565 -0.3569 0.1708, 0.565 -0.3608 0.1747, 0.565 -0.3956 0.1499, 0.565 -0.3932 0.1452, 0.565 -0.3896 0.141, 0.565 -0.3643 0.1378, 0.565 -0.3655 0.1776, 0.565 -0.3951 0.1661, 0.565 -0.3967 0.1607, 0.565 -0.3968 0.1552, 0.565 -0.3851 0.1378, 0.565 -0.3799 0.1358, 0.565 -0.3538 0.15, 0.565 -0.3526 0.1555, 0.565 -0.3563 0.145, 0.565 -0.3528 0.161, 0.565 -0.3543 0.1662, 0.565 -0.3543 0.1662
            ]
        }
        coordIndex [
            0,1,2,-1,3,0,4,-1,4,0,5,-1,3,6,0,-1,0,6,7,-1,0,7,1,-1,8,9,10,-1,11,12,2,-1,2,12,13,-1,5,14,4,-1,4,14,8,-1,4,8,15,-1,15,8,10,-1,16,17,2,-1,2,17,18,-1,2,18,11,-1,13,19,2,-1,2,19,20,-1,2,20,0,-1,21,22,23,-1,23,22,24,-1,23,24,8,-1,8,24,25,-1,8,25,9,-1,
        ]
    }
}