#VRML V2.0 utf8
# 3D model generated by easyeda2kicad.py (https://github.com/uPesy/easyeda2kicad.py)

Shape{
    appearance Appearance {
        material  Material 	{
            diffuseColor 0.7529411764705882 0.7529411764705882 0.7529411764705882
            specularColor 0.3764705882352941 0.3764705882352941 0.3764705882352941
            ambientIntensity 0.2
            transparency 0
            shininess 0.5
        }
    }
    geometry IndexedFaceSet {
        ccw TRUE
        solid FALSE
        coord DEF co Coordinate {
            point [
                0.4892 -1.378 0.7058, 0.4892 -1.5354 0.7058, 0.4892 -1.378 -0.3328, 0.4892 -1.5354 -0.3328, 0.4892 1.3386 0.7058, 0.4892 1.1811 0.7058, 0.4892 1.3386 -0.3328, 0.4892 1.1811 -0.3328, 0.253 -1.378 -1.8926, 0.4892 -1.378 -1.8926, 0.253 -1.5354 -1.8926, 0.4892 -1.5354 -1.8926, -0.2194 -1.5354 -1.8926, -0.495 -1.5354 -1.8926, -0.2194 -1.378 -1.8926, -0.495 -1.378 -1.8926, 0.253 -1.5354 -1.6171, 0.6467 -1.5354 -0.7282, 0.6467 -1.5354 -0.3328, 0.4892 -1.5354 -0.7282, -0.2194 -1.5354 -1.6171, -0.1407 -1.5354 -1.6171, -0.495 -1.5354 0.7058, -0.1407 -1.5354 -1.6958, 0.1743 -1.5354 -1.6958, 0.1743 -1.5354 -1.6171, -0.495 -1.378 0.7058, -0.2194 -1.378 -1.6171, -0.1407 -1.378 -1.6171, 0.1743 -1.378 -1.6171, -0.1407 -1.378 -1.6958, 0.1743 -1.378 -1.6958, 0.6507 -1.378 -0.3328, 0.6507 -1.378 -0.7282, 0.4892 -1.378 -0.7282, 0.253 -1.378 -1.6171, -0.2194 1.1811 -1.8926, -0.495 1.1811 -1.8926, -0.2194 1.3386 -1.8926, -0.495 1.3386 -1.8926, 0.4892 1.3386 -1.8926, 0.4892 1.1811 -1.8926, 0.253 1.3386 -1.8926, 0.253 1.1811 -1.8926, -0.2194 1.3386 -1.6171, -0.495 1.3386 0.7058, 0.6467 1.3386 -0.3328, 0.6467 1.3386 -0.7282, 0.4892 1.3386 -0.7282, -0.1407 1.3386 -1.6171, 0.1743 1.3386 -1.6958, -0.1407 1.3386 -1.6958, 0.1743 1.3386 -1.6171, 0.253 1.3386 -1.6171, -0.495 1.1811 0.7058, 0.4892 1.1811 -0.7282, 0.6507 1.1811 -0.7282, 0.6507 1.1811 -0.3328, 0.253 1.1811 -1.6171, -0.2194 1.1811 -1.6171, -0.1407 1.1811 -1.6958, 0.1743 1.1811 -1.6958, -0.1407 1.1811 -1.6171, 0.1743 1.1811 -1.6171, -0.5344 -1.3386 0.7058, -0.5344 -1.3386 -1.8926, -0.5344 1.1417 0.7058, -0.5344 -0.4921 -1.8926, -0.5344 1.1417 -1.8926, -0.5344 0.2953 -1.8926, -0.5344 0.2953 -2.2863, -0.5344 -0.4921 -2.2863, -0.6919 -0.4921 -2.2863, -0.6919 -0.4921 -1.8926, -0.6919 -0.0984 -1.2209, -0.6919 -1.3386 -0.5147, -0.6919 -1.1234 -1.2613, -0.6919 -1.1547 -1.3021, -0.6919 -0.9843 -1.2037, -0.6919 -1.0352 -1.2104, -0.6919 -1.0827 -1.23, -0.6919 -0.8858 -1.571, -0.6919 -0.8451 -1.5397, -0.6919 -0.8138 -1.4989, -0.6919 -0.7941 -1.4515, -0.6919 -0.7874 -1.4005, -0.6919 -0.1993 -1.2161, -0.6919 -0.7941 -1.3496, -0.6919 -1.1744 -1.3496, -0.6919 -1.1811 -1.4005, -0.6919 -1.3386 -1.8926, -0.6919 -1.1744 -1.4515, -0.6919 -1.1547 -1.4989, -0.6919 -1.1234 -1.5397, -0.6919 -1.0827 -1.571, -0.6919 -1.0352 -1.5907, -0.6919 -0.9843 -1.5974, -0.6919 -0.9333 -1.5907, -0.6919 -0.8858 -1.23, -0.6919 -0.6555 -0.9528, -0.6919 -0.8451 -1.2613, -0.6919 -0.5625 -1.0503, -0.6919 -0.8138 -1.3021, -0.6919 -0.4528 -1.1284, -0.6919 -0.3302 -1.1844, -0.6919 -0.0984 -2.2863, -0.6919 0.2953 -1.8926, -0.6919 0.2953 -2.2863, -0.6919 0.9775 -1.4515, -0.6919 0.9843 -1.4005, -0.6919 1.1417 -1.8926, -0.6919 0.6169 -1.4989, -0.6919 0.6482 -1.5397, -0.6919 0.8384 -1.5907, -0.6919 0.8858 -1.571, -0.6919 1.1417 -0.5147, -0.6919 0.689 -1.571, -0.6919 0.7365 -1.5907, -0.6919 0.7874 -1.5974, -0.6919 0.9266 -1.5397, -0.6919 0.9579 -1.4989, -0.6919 0.9775 -1.3496, -0.6919 0.9579 -1.3021, -0.6919 0.9266 -1.2613, -0.6919 0.7365 -1.2104, -0.6919 0.5974 -0.6488, -0.6919 0.7874 -1.2037, -0.6919 0.6102 -0.5147, -0.6919 0.8384 -1.2104, -0.6919 0.8858 -1.23, -0.6919 0.5973 -1.3496, -0.6919 0.196 -1.1593, -0.6919 0.6169 -1.3021, -0.6919 0.3126 -1.092, -0.6919 0.6482 -1.2613, -0.6919 0.4145 -1.0037, -0.6919 0.689 -1.23, -0.6919 0.4977 -0.8978, -0.6919 0.5595 -0.7781, -0.6919 0.5973 -1.4515, -0.6919 0.5906 -1.4005, -0.6919 -0.0647 -1.2226, -0.6919 0.0686 -1.2034, -0.6919 -1.0352 0.181, -0.6919 -0.9843 0.1743, -0.6919 -0.8071 -0.5147, -0.6919 -0.7874 0.3711, -0.6919 -0.7941 0.4221, -0.6919 -0.0984 0.7058, -0.6919 -1.0827 0.5416, -0.6919 -1.1234 0.5103, -0.6919 -1.3386 0.7058, -0.6919 -1.1547 0.4696, -0.6919 -1.1547 0.2727, -0.6919 -1.1234 0.2319, -0.6919 -1.0827 0.2007, -0.6919 -0.8039 -0.5821, -0.6919 -0.9333 -1.2104, -0.6919 -0.7784 -0.7143, -0.6919 -0.7283 -0.8394, -0.6919 -0.8138 0.4696, -0.6919 -0.8451 0.5103, -0.6919 -0.8858 0.5416, -0.6919 -0.9333 0.5613, -0.6919 -0.9843 0.568, -0.6919 -1.0352 0.5613, -0.6919 -1.1744 0.4221, -0.6919 -1.1811 0.3711, -0.6919 -1.1744 0.3202, -0.6919 -0.8858 0.2007, -0.6919 -0.7283 -0.19, -0.6919 -0.9333 0.181, -0.6919 -0.7784 -0.315, -0.6919 -0.8039 -0.4473, -0.6919 -0.0984 0.1916, -0.6919 -0.1993 0.1868, -0.6919 -0.7941 0.3202, -0.6919 -0.3302 0.155, -0.6919 -0.8138 0.2727, -0.6919 -0.4528 0.099, -0.6919 -0.8451 0.2319, -0.6919 -0.5625 0.0209, -0.6919 -0.6555 -0.0766, -0.6919 0.689 0.5416, -0.6919 0.6482 0.5103, -0.6919 0.9775 0.4221, -0.6919 0.9579 0.4696, -0.6919 1.1417 0.7058, -0.6919 0.9266 0.5103, -0.6919 0.8858 0.5416, -0.6919 0.8384 0.5613, -0.6919 0.7874 0.568, -0.6919 0.7365 0.5613, -0.6919 0.9843 0.3711, -0.6919 0.9775 0.3202, -0.6919 0.5906 0.3711, -0.6919 0.5973 0.3202, -0.6919 0.0686 0.174, -0.6919 0.8384 0.181, -0.6919 0.8858 0.2007, -0.6919 0.6169 0.4696, -0.6919 0.5973 0.4221, -0.6919 -0.0647 0.1932, -0.6919 0.7365 0.181, -0.6919 0.5595 -0.2513, -0.6919 0.689 0.2007, -0.6919 0.4977 -0.1316, -0.6919 0.6482 0.2319, -0.6919 0.4145 -0.0257, -0.6919 0.6169 0.2727, -0.6919 0.3126 0.0626, -0.6919 0.196 0.1299, -0.6919 0.7874 0.1743, -0.6919 0.5974 -0.3806, -0.6919 0.9266 0.2319, -0.6919 0.9579 0.2727, -0.533 1.1519 -1.8926, -0.6852 1.1927 -1.8926, -0.5291 1.1614 -1.8926, -0.6655 1.2402 -1.8926, -0.5228 1.1696 -1.8926, -0.6342 1.2809 -1.8926, -0.5147 1.1758 -1.8926, -0.5934 1.3122 -1.8926, -0.5052 1.1798 -1.8926, -0.546 1.3319 -1.8926, -0.5052 1.1798 0.7058, -0.546 1.3319 0.7058, -0.5147 1.1758 0.7058, -0.5934 1.3122 0.7058, -0.5228 1.1696 0.7058, -0.6342 1.2809 0.7058, -0.5291 1.1614 0.7058, -0.6655 1.2402 0.7058, -0.533 1.1519 0.7058, -0.6852 1.1927 0.7058, -0.533 -1.3488 0.7058, -0.6852 -1.3895 0.7058, -0.5291 -1.3583 0.7058, -0.6655 -1.437 0.7058, -0.5228 -1.3664 0.7058, -0.6342 -1.4778 0.7058, -0.5147 -1.3727 0.7058, -0.5934 -1.5091 0.7058, -0.5052 -1.3766 0.7058, -0.546 -1.5287 0.7058, -0.5052 -1.3766 -1.8926, -0.546 -1.5287 -1.8926, -0.5147 -1.3727 -1.8926, -0.5934 -1.5091 -1.8926, -0.5228 -1.3664 -1.8926, -0.6342 -1.4778 -1.8926, -0.5291 -1.3583 -1.8926, -0.6655 -1.437 -1.8926, -0.533 -1.3488 -1.8926, -0.6852 -1.3895 -1.8926, -0.1407 1.1878 -1.7467, 0.1743 1.1878 -1.7467, -0.1407 1.2075 -1.7942, 0.1743 1.2075 -1.7942, -0.1407 1.2388 -1.835, 0.1743 1.2388 -1.835, -0.1407 1.2795 -1.8663, 0.1743 1.2795 -1.8663, -0.1407 1.327 -1.8859, 0.1743 1.327 -1.8859, -0.1407 1.378 -1.8926, 0.1743 1.378 -1.8926, 0.1743 1.378 -1.7352, -0.1407 1.378 -1.7352, 0.1743 1.3678 -1.7338, -0.1407 1.3678 -1.7338, 0.1743 1.3583 -1.7299, -0.1407 1.3583 -1.7299, 0.1743 1.3501 -1.7236, -0.1407 1.3501 -1.7236, 0.1743 1.3439 -1.7155, -0.1407 1.3439 -1.7155, 0.1743 1.3399 -1.706, -0.1407 1.3399 -1.706, -0.1407 1.9685 -1.8926, 0.1743 1.9685 -1.8926, 0.1743 1.9685 -1.7352, -0.1407 1.9685 -1.7352, -0.1407 -1.5368 -1.706, -0.1407 -1.3847 -1.7467, -0.1407 -1.5407 -1.7155, -0.1407 -1.4043 -1.7942, -0.1407 -1.547 -1.7236, -0.1407 -1.4356 -1.835, -0.1407 -1.5551 -1.7299, -0.1407 -1.4764 -1.8663, -0.1407 -1.5646 -1.7338, -0.1407 -1.5239 -1.8859, -0.1407 -1.5748 -1.7352, -0.1407 -1.5748 -1.8926, 0.1743 -1.5748 -1.7352, 0.1743 -1.5748 -1.8926, 0.1743 -1.5646 -1.7338, 0.1743 -1.5239 -1.8859, 0.1743 -1.5551 -1.7299, 0.1743 -1.4764 -1.8663, 0.1743 -1.547 -1.7236, 0.1743 -1.4356 -1.835, 0.1743 -1.5407 -1.7155, 0.1743 -1.4043 -1.7942, 0.1743 -1.5368 -1.706, 0.1743 -1.3847 -1.7467, -0.1407 -2.1654 -1.8926, -0.1407 -2.1654 -1.7352, 0.1743 -2.1654 -1.7352, 0.1743 -2.1654 -1.8926, 0.1743 -2.1654 -1.8926
            ]
        }
        coordIndex [
            0,1,2,-1,2,1,3,-1,4,5,6,-1,6,5,7,-1,8,9,10,-1,10,9,11,-1,12,13,14,-1,14,13,15,-1,16,10,11,-1,17,18,19,-1,19,18,3,-1,13,12,20,-1,20,21,3,-1,13,20,22,-1,22,20,3,-1,22,3,1,-1,23,24,21,-1,21,24,25,-1,21,25,3,-1,3,25,16,-1,3,16,19,-1,19,16,11,-1,26,0,2,-1,14,15,27,-1,27,15,26,-1,27,26,28,-1,28,26,29,-1,28,29,30,-1,30,29,31,-1,32,33,2,-1,2,33,34,-1,26,2,29,-1,29,2,34,-1,29,34,35,-1,35,34,9,-1,35,9,8,-1,36,37,38,-1,38,37,39,-1,40,41,42,-1,42,41,43,-1,38,39,44,-1,44,39,45,-1,46,47,6,-1,6,47,48,-1,45,4,44,-1,44,4,6,-1,44,6,49,-1,50,51,52,-1,52,51,49,-1,49,6,52,-1,52,6,48,-1,52,48,53,-1,53,48,40,-1,53,40,42,-1,7,5,54,-1,55,56,57,-1,43,41,58,-1,58,41,55,-1,37,36,59,-1,60,61,62,-1,62,61,63,-1,54,37,7,-1,7,37,59,-1,7,59,57,-1,57,59,62,-1,57,62,55,-1,55,62,63,-1,55,63,58,-1,64,65,66,-1,66,65,67,-1,68,66,69,-1,69,66,67,-1,69,67,70,-1,70,67,71,-1,72,73,74,-1,75,76,77,-1,78,79,75,-1,75,79,80,-1,75,80,76,-1,81,82,73,-1,73,82,83,-1,73,83,74,-1,83,84,74,-1,74,84,85,-1,74,85,86,-1,86,85,87,-1,77,88,75,-1,75,88,89,-1,75,89,90,-1,90,89,91,-1,91,92,90,-1,90,92,93,-1,90,93,94,-1,94,95,90,-1,90,95,96,-1,90,96,73,-1,73,96,97,-1,73,97,81,-1,98,99,100,-1,100,99,101,-1,100,101,102,-1,102,101,103,-1,102,103,87,-1,87,103,104,-1,87,104,86,-1,72,74,105,-1,105,74,106,-1,105,106,107,-1,108,109,110,-1,106,111,112,-1,113,114,110,-1,110,109,115,-1,112,116,106,-1,106,116,117,-1,106,117,110,-1,110,117,118,-1,110,118,113,-1,114,119,110,-1,110,119,120,-1,110,120,108,-1,109,121,115,-1,115,121,122,-1,115,122,123,-1,124,125,126,-1,126,125,127,-1,126,127,128,-1,128,127,115,-1,128,115,129,-1,129,115,123,-1,130,131,132,-1,132,131,133,-1,132,133,134,-1,134,133,135,-1,134,135,136,-1,136,135,137,-1,136,137,124,-1,124,137,138,-1,124,138,125,-1,111,106,139,-1,139,106,74,-1,139,74,140,-1,140,74,141,-1,140,141,130,-1,130,141,142,-1,130,142,131,-1,143,144,145,-1,146,147,148,-1,149,150,151,-1,151,150,152,-1,153,154,75,-1,75,154,155,-1,155,143,75,-1,75,143,145,-1,75,145,78,-1,78,145,156,-1,78,156,157,-1,157,156,158,-1,157,158,98,-1,98,158,159,-1,98,159,99,-1,147,160,148,-1,148,160,161,-1,148,161,162,-1,162,163,148,-1,148,163,164,-1,148,164,151,-1,151,164,165,-1,151,165,149,-1,152,166,151,-1,151,166,167,-1,151,167,75,-1,75,167,168,-1,75,168,153,-1,169,170,171,-1,171,170,172,-1,171,172,144,-1,144,172,173,-1,144,173,145,-1,148,174,146,-1,146,174,175,-1,146,175,176,-1,176,175,177,-1,176,177,178,-1,178,177,179,-1,178,179,180,-1,180,179,181,-1,180,181,169,-1,169,181,182,-1,169,182,170,-1,183,184,148,-1,185,186,187,-1,187,186,188,-1,187,188,189,-1,189,190,187,-1,187,190,191,-1,187,191,148,-1,148,191,192,-1,148,192,183,-1,185,187,193,-1,193,187,115,-1,193,115,194,-1,195,196,197,-1,115,198,199,-1,184,200,148,-1,148,200,201,-1,148,201,174,-1,174,201,195,-1,174,195,202,-1,202,195,197,-1,203,204,205,-1,205,204,206,-1,205,206,207,-1,207,206,208,-1,207,208,209,-1,209,208,210,-1,209,210,196,-1,196,210,211,-1,196,211,197,-1,198,115,212,-1,212,115,127,-1,212,127,203,-1,203,127,213,-1,203,213,204,-1,199,214,115,-1,115,214,215,-1,115,215,194,-1,90,73,65,-1,65,73,67,-1,151,64,148,-1,148,64,66,-1,148,66,187,-1,69,106,68,-1,68,106,110,-1,73,72,67,-1,67,72,71,-1,107,70,105,-1,105,70,71,-1,105,71,72,-1,69,70,106,-1,106,70,107,-1,68,110,216,-1,216,110,217,-1,216,217,218,-1,218,217,219,-1,218,219,220,-1,220,219,221,-1,220,221,222,-1,222,221,223,-1,222,223,224,-1,224,223,225,-1,224,225,37,-1,37,225,39,-1,54,45,226,-1,226,45,227,-1,226,227,228,-1,228,227,229,-1,228,229,230,-1,230,229,231,-1,230,231,232,-1,232,231,233,-1,232,233,234,-1,234,233,235,-1,234,235,66,-1,66,235,187,-1,115,187,235,-1,217,110,115,-1,115,235,217,-1,217,235,233,-1,217,233,219,-1,219,233,231,-1,219,231,221,-1,221,231,229,-1,221,229,223,-1,223,229,227,-1,223,227,225,-1,225,227,45,-1,225,45,39,-1,37,54,224,-1,224,54,226,-1,224,226,222,-1,222,226,228,-1,222,228,220,-1,220,228,230,-1,220,230,218,-1,218,230,232,-1,218,232,216,-1,216,232,234,-1,216,234,68,-1,68,234,66,-1,54,5,45,-1,45,5,4,-1,41,40,55,-1,55,40,48,-1,64,151,236,-1,236,151,237,-1,236,237,238,-1,238,237,239,-1,238,239,240,-1,240,239,241,-1,240,241,242,-1,242,241,243,-1,242,243,244,-1,244,243,245,-1,244,245,26,-1,26,245,22,-1,15,13,246,-1,246,13,247,-1,246,247,248,-1,248,247,249,-1,248,249,250,-1,250,249,251,-1,250,251,252,-1,252,251,253,-1,252,253,254,-1,254,253,255,-1,254,255,65,-1,65,255,90,-1,75,90,255,-1,237,151,75,-1,75,255,237,-1,237,255,253,-1,237,253,239,-1,239,253,251,-1,239,251,241,-1,241,251,249,-1,241,249,243,-1,243,249,247,-1,243,247,245,-1,245,247,13,-1,245,13,22,-1,26,15,244,-1,244,15,246,-1,244,246,242,-1,242,246,248,-1,242,248,240,-1,240,248,250,-1,240,250,238,-1,238,250,252,-1,238,252,236,-1,236,252,254,-1,236,254,64,-1,64,254,65,-1,22,1,26,-1,26,1,0,-1,11,9,19,-1,19,9,34,-1,49,62,44,-1,44,62,59,-1,53,58,52,-1,52,58,63,-1,10,16,8,-1,8,16,35,-1,16,25,35,-1,35,25,29,-1,25,24,29,-1,29,24,31,-1,23,21,30,-1,30,21,28,-1,21,20,28,-1,28,20,27,-1,20,12,27,-1,27,12,14,-1,61,60,256,-1,61,256,257,-1,257,256,258,-1,257,258,259,-1,259,258,260,-1,259,260,261,-1,261,260,262,-1,261,262,263,-1,263,262,264,-1,263,264,265,-1,265,264,266,-1,265,266,267,-1,268,269,270,-1,270,269,271,-1,270,271,272,-1,272,271,273,-1,272,273,274,-1,274,273,275,-1,274,275,276,-1,276,275,277,-1,276,277,278,-1,278,277,279,-1,278,279,50,-1,50,279,51,-1,280,281,266,-1,266,281,267,-1,268,282,269,-1,269,282,283,-1,282,281,283,-1,283,281,280,-1,23,30,284,-1,284,30,285,-1,284,285,286,-1,286,285,287,-1,286,287,288,-1,288,287,289,-1,288,289,290,-1,290,289,291,-1,290,291,292,-1,292,291,293,-1,292,293,294,-1,294,293,295,-1,296,297,298,-1,298,297,299,-1,298,299,300,-1,300,299,301,-1,300,301,302,-1,302,301,303,-1,302,303,304,-1,304,303,305,-1,304,305,306,-1,306,305,307,-1,306,307,24,-1,24,307,31,-1,30,31,307,-1,30,307,285,-1,285,307,305,-1,285,305,287,-1,287,305,303,-1,287,303,289,-1,289,303,301,-1,289,301,291,-1,291,301,299,-1,291,299,293,-1,293,299,297,-1,293,297,295,-1,294,296,292,-1,292,296,298,-1,292,298,290,-1,290,298,300,-1,290,300,288,-1,288,300,302,-1,288,302,286,-1,286,302,304,-1,286,304,284,-1,284,304,306,-1,284,306,23,-1,23,306,24,-1,295,308,294,-1,294,308,309,-1,296,310,297,-1,297,310,311,-1,311,308,297,-1,297,308,295,-1,294,309,296,-1,296,309,310,-1,308,311,309,-1,309,311,310,-1,
        ]
    }
}
Shape{
    appearance Appearance {
        material  Material 	{
            diffuseColor 0.2235294117647059 0.2235294117647059 0.2235294117647059
            specularColor 0.11372549019607843 0.11372549019607843 0.11372549019607843
            ambientIntensity 0.2
            transparency 0
            shininess 0.5
        }
    }
    geometry IndexedFaceSet {
        ccw TRUE
        solid FALSE
        coord DEF co Coordinate {
            point [
                -1.1643 -0.1993 -1.2161, -0.6919 -0.3302 -1.1844, -1.1643 -0.3302 -1.1844, -0.6919 -0.4528 -1.1284, -1.1643 -0.4528 -1.1284, -0.6919 -0.5625 -1.0503, -1.1643 -0.5625 -1.0503, -0.6919 -0.6555 -0.9528, -1.1643 -0.6555 -0.9528, -0.6919 -0.7283 -0.8394, -1.1643 -0.7283 -0.8394, -0.6919 -0.7784 -0.7143, -1.1643 -0.7784 -0.7143, -0.6919 -0.8039 -0.5821, -1.1643 -0.8039 -0.5821, -1.1643 -0.8071 -0.5147, -0.6919 -0.8071 -0.5147, -1.1643 -0.8039 -0.4473, -0.6919 -0.8039 -0.4473, -0.6919 -0.7784 -0.315, -1.1643 -0.7784 -0.315, -0.6919 -0.7283 -0.19, -1.1643 -0.7283 -0.19, -0.6919 -0.6555 -0.0766, -1.1643 -0.6555 -0.0766, -0.6919 -0.5625 0.0209, -1.1643 -0.5625 0.0209, -0.6919 -0.4528 0.099, -1.1643 -0.4528 0.099, -0.6919 -0.3302 0.155, -1.1643 -0.3302 0.155, -0.6919 -0.1993 0.1868, -1.1643 -0.1993 0.1868, -0.6919 -0.0984 0.1916, -1.1643 -0.0647 0.1932, -0.6919 -0.0647 0.1932, -0.6919 0.0686 0.174, -1.1643 0.0686 0.174, -0.6919 0.196 0.1299, -1.1643 0.196 0.1299, -0.6919 0.3126 0.0626, -1.1643 0.3126 0.0626, -0.6919 0.4145 -0.0257, -1.1643 0.4145 -0.0257, -0.6919 0.4977 -0.1316, -1.1643 0.4977 -0.1316, -0.6919 0.5595 -0.2513, -1.1643 0.5595 -0.2513, -0.6919 0.5974 -0.3806, -1.1643 0.5974 -0.3806, -0.6919 0.6102 -0.5147, -1.1643 0.6102 -0.5147, -0.6919 0.5974 -0.6488, -1.1643 0.5974 -0.6488, -0.6919 0.5595 -0.7781, -1.1643 0.5595 -0.7781, -0.6919 0.4977 -0.8978, -1.1643 0.4977 -0.8978, -0.6919 0.4145 -1.0037, -1.1643 0.4145 -1.0037, -0.6919 0.3126 -1.092, -1.1643 0.3126 -1.092, -0.6919 0.196 -1.1593, -1.1643 0.196 -1.1593, -0.6919 0.0686 -1.2034, -1.1643 0.0686 -1.2034, -0.6919 -0.0647 -1.2226, -1.1643 -0.0647 -1.2226, -0.6919 -0.0984 -1.2209, -0.6919 -0.1993 -1.2161, -1.1643 -0.0984 -0.5147, -0.6919 0.9843 0.3711, -0.81 0.9775 0.4221, -0.6919 0.9775 0.4221, -0.81 0.9579 0.4696, -0.6919 0.9579 0.4696, -0.81 0.9266 0.5103, -0.6919 0.9266 0.5103, -0.81 0.8858 0.5416, -0.6919 0.8858 0.5416, -0.81 0.8384 0.5613, -0.6919 0.8384 0.5613, -0.81 0.7874 0.568, -0.6919 0.7874 0.568, -0.81 0.7365 0.5613, -0.6919 0.7365 0.5613, -0.81 0.689 0.5416, -0.6919 0.689 0.5416, -0.81 0.6482 0.5103, -0.6919 0.6482 0.5103, -0.81 0.6169 0.4696, -0.6919 0.6169 0.4696, -0.81 0.5973 0.4221, -0.6919 0.5973 0.4221, -0.81 0.5906 0.3711, -0.6919 0.5906 0.3711, -0.81 0.5973 0.3202, -0.6919 0.5973 0.3202, -0.81 0.6169 0.2727, -0.6919 0.6169 0.2727, -0.81 0.6482 0.2319, -0.6919 0.6482 0.2319, -0.81 0.689 0.2007, -0.6919 0.689 0.2007, -0.81 0.7365 0.181, -0.6919 0.7365 0.181, -0.81 0.7874 0.1743, -0.6919 0.7874 0.1743, -0.81 0.8384 0.181, -0.6919 0.8384 0.181, -0.81 0.8858 0.2007, -0.6919 0.8858 0.2007, -0.81 0.9266 0.2319, -0.6919 0.9266 0.2319, -0.81 0.9579 0.2727, -0.6919 0.9579 0.2727, -0.81 0.9775 0.3202, -0.6919 0.9775 0.3202, -0.81 0.9843 0.3711, -0.81 0.7874 0.3711, -0.6919 -0.7874 0.3711, -0.81 -0.7941 0.4221, -0.6919 -0.7941 0.4221, -0.81 -0.8138 0.4696, -0.6919 -0.8138 0.4696, -0.81 -0.8451 0.5103, -0.6919 -0.8451 0.5103, -0.81 -0.8858 0.5416, -0.6919 -0.8858 0.5416, -0.81 -0.9333 0.5613, -0.6919 -0.9333 0.5613, -0.81 -0.9843 0.568, -0.6919 -0.9843 0.568, -0.81 -1.0352 0.5613, -0.6919 -1.0352 0.5613, -0.81 -1.0827 0.5416, -0.6919 -1.0827 0.5416, -0.81 -1.1234 0.5103, -0.6919 -1.1234 0.5103, -0.81 -1.1547 0.4696, -0.6919 -1.1547 0.4696, -0.81 -1.1744 0.4221, -0.6919 -1.1744 0.4221, -0.81 -1.1811 0.3711, -0.6919 -1.1811 0.3711, -0.81 -1.1744 0.3202, -0.6919 -1.1744 0.3202, -0.81 -1.1547 0.2727, -0.6919 -1.1547 0.2727, -0.81 -1.1234 0.2319, -0.6919 -1.1234 0.2319, -0.81 -1.0827 0.2007, -0.6919 -1.0827 0.2007, -0.81 -1.0352 0.181, -0.6919 -1.0352 0.181, -0.81 -0.9843 0.1743, -0.6919 -0.9843 0.1743, -0.81 -0.9333 0.181, -0.6919 -0.9333 0.181, -0.81 -0.8858 0.2007, -0.6919 -0.8858 0.2007, -0.81 -0.8451 0.2319, -0.6919 -0.8451 0.2319, -0.81 -0.8138 0.2727, -0.6919 -0.8138 0.2727, -0.81 -0.7941 0.3202, -0.6919 -0.7941 0.3202, -0.81 -0.7874 0.3711, -0.81 -0.9843 0.3711, -0.6919 0.9843 -1.4005, -0.81 0.9775 -1.3496, -0.6919 0.9775 -1.3496, -0.81 0.9579 -1.3021, -0.6919 0.9579 -1.3021, -0.81 0.9266 -1.2613, -0.6919 0.9266 -1.2613, -0.81 0.8858 -1.23, -0.6919 0.8858 -1.23, -0.81 0.8384 -1.2104, -0.6919 0.8384 -1.2104, -0.81 0.7874 -1.2037, -0.6919 0.7874 -1.2037, -0.81 0.7365 -1.2104, -0.6919 0.7365 -1.2104, -0.81 0.689 -1.23, -0.6919 0.689 -1.23, -0.81 0.6482 -1.2613, -0.6919 0.6482 -1.2613, -0.81 0.6169 -1.3021, -0.6919 0.6169 -1.3021, -0.81 0.5973 -1.3496, -0.6919 0.5973 -1.3496, -0.81 0.5906 -1.4005, -0.6919 0.5906 -1.4005, -0.81 0.5973 -1.4515, -0.6919 0.5973 -1.4515, -0.81 0.6169 -1.4989, -0.6919 0.6169 -1.4989, -0.81 0.6482 -1.5397, -0.6919 0.6482 -1.5397, -0.81 0.689 -1.571, -0.6919 0.689 -1.571, -0.81 0.7365 -1.5907, -0.6919 0.7365 -1.5907, -0.81 0.7874 -1.5974, -0.6919 0.7874 -1.5974, -0.81 0.8384 -1.5907, -0.6919 0.8384 -1.5907, -0.81 0.8858 -1.571, -0.6919 0.8858 -1.571, -0.81 0.9266 -1.5397, -0.6919 0.9266 -1.5397, -0.81 0.9579 -1.4989, -0.6919 0.9579 -1.4989, -0.81 0.9775 -1.4515, -0.6919 0.9775 -1.4515, -0.81 0.9843 -1.4005, -0.81 0.7874 -1.4005, -0.6919 -0.7874 -1.4005, -0.81 -0.7941 -1.3496, -0.6919 -0.7941 -1.3496, -0.81 -0.8138 -1.3021, -0.6919 -0.8138 -1.3021, -0.81 -0.8451 -1.2613, -0.6919 -0.8451 -1.2613, -0.81 -0.8858 -1.23, -0.6919 -0.8858 -1.23, -0.81 -0.9333 -1.2104, -0.6919 -0.9333 -1.2104, -0.81 -0.9843 -1.2037, -0.6919 -0.9843 -1.2037, -0.81 -1.0352 -1.2104, -0.6919 -1.0352 -1.2104, -0.81 -1.0827 -1.23, -0.6919 -1.0827 -1.23, -0.81 -1.1234 -1.2613, -0.6919 -1.1234 -1.2613, -0.81 -1.1547 -1.3021, -0.6919 -1.1547 -1.3021, -0.81 -1.1744 -1.3496, -0.6919 -1.1744 -1.3496, -0.81 -1.1811 -1.4005, -0.6919 -1.1811 -1.4005, -0.81 -1.1744 -1.4515, -0.6919 -1.1744 -1.4515, -0.81 -1.1547 -1.4989, -0.6919 -1.1547 -1.4989, -0.81 -1.1234 -1.5397, -0.6919 -1.1234 -1.5397, -0.81 -1.0827 -1.571, -0.6919 -1.0827 -1.571, -0.81 -1.0352 -1.5907, -0.6919 -1.0352 -1.5907, -0.81 -0.9843 -1.5974, -0.6919 -0.9843 -1.5974, -0.81 -0.9333 -1.5907, -0.6919 -0.9333 -1.5907, -0.81 -0.8858 -1.571, -0.6919 -0.8858 -1.571, -0.81 -0.8451 -1.5397, -0.6919 -0.8451 -1.5397, -0.81 -0.8138 -1.4989, -0.6919 -0.8138 -1.4989, -0.81 -0.7941 -1.4515, -0.6919 -0.7941 -1.4515, -0.81 -0.7874 -1.4005, -0.81 -0.9843 -1.4005, -0.81 -0.9843 -1.4005
            ]
        }
        coordIndex [
            0,1,2,-1,2,1,3,-1,2,3,4,-1,4,3,5,-1,4,5,6,-1,6,5,7,-1,6,7,8,-1,8,7,9,-1,8,9,10,-1,10,9,11,-1,10,11,12,-1,12,11,13,-1,12,13,14,-1,14,13,15,-1,15,13,16,-1,15,16,17,-1,16,18,17,-1,17,18,19,-1,17,19,20,-1,20,19,21,-1,20,21,22,-1,22,21,23,-1,22,23,24,-1,24,23,25,-1,24,25,26,-1,26,25,27,-1,26,27,28,-1,28,27,29,-1,28,29,30,-1,30,29,31,-1,30,31,32,-1,32,31,33,-1,32,33,34,-1,33,35,34,-1,34,35,36,-1,34,36,37,-1,37,36,38,-1,37,38,39,-1,39,38,40,-1,39,40,41,-1,41,40,42,-1,41,42,43,-1,43,42,44,-1,43,44,45,-1,45,44,46,-1,45,46,47,-1,47,46,48,-1,47,48,49,-1,49,48,50,-1,49,50,51,-1,51,50,52,-1,51,52,53,-1,53,52,54,-1,53,54,55,-1,55,54,56,-1,55,56,57,-1,57,56,58,-1,57,58,59,-1,59,58,60,-1,59,60,61,-1,61,60,62,-1,61,62,63,-1,63,62,64,-1,63,64,65,-1,65,64,66,-1,65,66,67,-1,67,66,68,-1,67,68,0,-1,0,68,69,-1,0,69,1,-1,15,17,70,-1,10,12,70,-1,70,12,14,-1,70,14,15,-1,4,6,70,-1,70,6,8,-1,70,8,10,-1,67,0,70,-1,70,0,2,-1,70,2,4,-1,61,63,70,-1,70,63,65,-1,70,65,67,-1,55,57,70,-1,70,57,59,-1,70,59,61,-1,49,51,70,-1,70,51,53,-1,70,53,55,-1,43,45,70,-1,70,45,47,-1,70,47,49,-1,37,39,70,-1,70,39,41,-1,70,41,43,-1,30,32,70,-1,70,32,34,-1,70,34,37,-1,24,26,70,-1,70,26,28,-1,70,28,30,-1,17,20,70,-1,70,20,22,-1,70,22,24,-1,71,72,73,-1,73,72,74,-1,73,74,75,-1,75,74,76,-1,75,76,77,-1,77,76,78,-1,77,78,79,-1,79,78,80,-1,79,80,81,-1,81,80,82,-1,81,82,83,-1,83,82,84,-1,83,84,85,-1,85,84,86,-1,85,86,87,-1,87,86,88,-1,87,88,89,-1,89,88,90,-1,89,90,91,-1,91,90,92,-1,91,92,93,-1,93,92,94,-1,93,94,95,-1,95,94,96,-1,95,96,97,-1,97,96,98,-1,97,98,99,-1,99,98,100,-1,99,100,101,-1,101,100,102,-1,101,102,103,-1,103,102,104,-1,103,104,105,-1,105,104,106,-1,105,106,107,-1,107,106,108,-1,107,108,109,-1,109,108,110,-1,109,110,111,-1,111,110,112,-1,111,112,113,-1,113,112,114,-1,113,114,115,-1,115,114,116,-1,115,116,117,-1,117,116,118,-1,117,118,71,-1,71,118,72,-1,98,96,119,-1,119,96,94,-1,119,94,92,-1,104,102,119,-1,119,102,100,-1,119,100,98,-1,110,108,119,-1,119,108,106,-1,119,106,104,-1,116,114,119,-1,119,114,112,-1,119,112,110,-1,74,72,119,-1,119,72,118,-1,119,118,116,-1,80,78,119,-1,119,78,76,-1,119,76,74,-1,86,84,119,-1,119,84,82,-1,119,82,80,-1,92,90,119,-1,119,90,88,-1,119,88,86,-1,120,121,122,-1,122,121,123,-1,122,123,124,-1,124,123,125,-1,124,125,126,-1,126,125,127,-1,126,127,128,-1,128,127,129,-1,128,129,130,-1,130,129,131,-1,130,131,132,-1,132,131,133,-1,132,133,134,-1,134,133,135,-1,134,135,136,-1,136,135,137,-1,136,137,138,-1,138,137,139,-1,138,139,140,-1,140,139,141,-1,140,141,142,-1,142,141,143,-1,142,143,144,-1,144,143,145,-1,144,145,146,-1,146,145,147,-1,146,147,148,-1,148,147,149,-1,148,149,150,-1,150,149,151,-1,150,151,152,-1,152,151,153,-1,152,153,154,-1,154,153,155,-1,154,155,156,-1,156,155,157,-1,156,157,158,-1,158,157,159,-1,158,159,160,-1,160,159,161,-1,160,161,162,-1,162,161,163,-1,162,163,164,-1,164,163,165,-1,164,165,166,-1,166,165,167,-1,166,167,120,-1,120,167,121,-1,147,145,168,-1,168,145,143,-1,168,143,141,-1,153,151,168,-1,168,151,149,-1,168,149,147,-1,159,157,168,-1,168,157,155,-1,168,155,153,-1,165,163,168,-1,168,163,161,-1,168,161,159,-1,123,121,168,-1,168,121,167,-1,168,167,165,-1,129,127,168,-1,168,127,125,-1,168,125,123,-1,135,133,168,-1,168,133,131,-1,168,131,129,-1,141,139,168,-1,168,139,137,-1,168,137,135,-1,169,170,171,-1,171,170,172,-1,171,172,173,-1,173,172,174,-1,173,174,175,-1,175,174,176,-1,175,176,177,-1,177,176,178,-1,177,178,179,-1,179,178,180,-1,179,180,181,-1,181,180,182,-1,181,182,183,-1,183,182,184,-1,183,184,185,-1,185,184,186,-1,185,186,187,-1,187,186,188,-1,187,188,189,-1,189,188,190,-1,189,190,191,-1,191,190,192,-1,191,192,193,-1,193,192,194,-1,193,194,195,-1,195,194,196,-1,195,196,197,-1,197,196,198,-1,197,198,199,-1,199,198,200,-1,199,200,201,-1,201,200,202,-1,201,202,203,-1,203,202,204,-1,203,204,205,-1,205,204,206,-1,205,206,207,-1,207,206,208,-1,207,208,209,-1,209,208,210,-1,209,210,211,-1,211,210,212,-1,211,212,213,-1,213,212,214,-1,213,214,215,-1,215,214,216,-1,215,216,169,-1,169,216,170,-1,196,194,217,-1,217,194,192,-1,217,192,190,-1,202,200,217,-1,217,200,198,-1,217,198,196,-1,208,206,217,-1,217,206,204,-1,217,204,202,-1,214,212,217,-1,217,212,210,-1,217,210,208,-1,172,170,217,-1,217,170,216,-1,217,216,214,-1,178,176,217,-1,217,176,174,-1,217,174,172,-1,184,182,217,-1,217,182,180,-1,217,180,178,-1,190,188,217,-1,217,188,186,-1,217,186,184,-1,218,219,220,-1,220,219,221,-1,220,221,222,-1,222,221,223,-1,222,223,224,-1,224,223,225,-1,224,225,226,-1,226,225,227,-1,226,227,228,-1,228,227,229,-1,228,229,230,-1,230,229,231,-1,230,231,232,-1,232,231,233,-1,232,233,234,-1,234,233,235,-1,234,235,236,-1,236,235,237,-1,236,237,238,-1,238,237,239,-1,238,239,240,-1,240,239,241,-1,240,241,242,-1,242,241,243,-1,242,243,244,-1,244,243,245,-1,244,245,246,-1,246,245,247,-1,246,247,248,-1,248,247,249,-1,248,249,250,-1,250,249,251,-1,250,251,252,-1,252,251,253,-1,252,253,254,-1,254,253,255,-1,254,255,256,-1,256,255,257,-1,256,257,258,-1,258,257,259,-1,258,259,260,-1,260,259,261,-1,260,261,262,-1,262,261,263,-1,262,263,264,-1,264,263,265,-1,264,265,218,-1,218,265,219,-1,245,243,266,-1,266,243,241,-1,266,241,239,-1,251,249,266,-1,266,249,247,-1,266,247,245,-1,257,255,266,-1,266,255,253,-1,266,253,251,-1,263,261,266,-1,266,261,259,-1,266,259,257,-1,221,219,266,-1,266,219,265,-1,266,265,263,-1,227,225,266,-1,266,225,223,-1,266,223,221,-1,233,231,266,-1,266,231,229,-1,266,229,227,-1,239,237,266,-1,266,237,235,-1,266,235,233,-1,
        ]
    }
}
Shape{
    appearance Appearance {
        material  Material 	{
            diffuseColor 0.7529411764705882 0.7529411764705882 0.7529411764705882
            specularColor 0.3764705882352941 0.3764705882352941 0.3764705882352941
            ambientIntensity 0.2
            transparency 0
            shininess 0.5
        }
    }
    geometry IndexedFaceSet {
        ccw TRUE
        solid FALSE
        coord DEF co Coordinate {
            point [
                0.6507 0.9449 -0.3328, 0.7648 0.9449 -0.3328, 0.6507 1.1811 -0.3328, 0.7648 1.2205 -0.3328, 0.7608 1.251 -0.3328, 0.749 1.2795 -0.3328, 0.7302 1.304 -0.3328, 0.7058 1.3228 -0.3328, 0.4892 1.3386 -0.3328, 0.4892 1.1811 -0.3328, 0.6467 1.3386 -0.3328, 0.6773 1.3346 -0.3328, 0.6507 1.1811 -0.7282, 0.4892 1.1811 -0.7282, 0.4892 1.3386 -0.7282, 0.7648 0.9449 -0.7282, 0.6507 0.9449 -0.7282, 0.7648 1.2205 -0.7282, 0.7608 1.251 -0.7282, 0.6467 1.3386 -0.7282, 0.6773 1.3346 -0.7282, 0.7058 1.3228 -0.7282, 0.7302 1.304 -0.7282, 0.749 1.2795 -0.7282, 0.7391 -1.491 -0.3328, 0.7531 -1.4686 -0.3328, 0.6507 -1.378 -0.3328, 0.7648 -1.1417 -0.3328, 0.6507 -1.1417 -0.3328, 0.7648 -1.4173 -0.3328, 0.7619 -1.4436 -0.3328, 0.4892 -1.378 -0.3328, 0.4892 -1.5354 -0.3328, 0.6467 -1.5354 -0.3328, 0.673 -1.5325 -0.3328, 0.698 -1.5237 -0.3328, 0.7204 -1.5097 -0.3328, 0.6507 -1.378 -0.7282, 0.6507 -1.1417 -0.7282, 0.7648 -1.1417 -0.7282, 0.7648 -1.4173 -0.7282, 0.7619 -1.4436 -0.7282, 0.7531 -1.4686 -0.7282, 0.7391 -1.491 -0.7282, 0.7204 -1.5097 -0.7282, 0.698 -1.5237 -0.7282, 0.4892 -1.5354 -0.7282, 0.4892 -1.378 -0.7282, 0.6467 -1.5354 -0.7282, 0.673 -1.5325 -0.7282, 0.253 1.1811 -1.8926, 0.253 1.1811 -1.6171, 0.253 1.3386 -1.8926, 0.253 1.3386 -1.6171, 0.1743 1.3386 -1.6171, 0.1743 1.1811 -1.6171, 0.1743 1.3386 -1.6958, 0.1743 1.1811 -1.6958, 0.1743 1.3399 -1.706, 0.1743 1.1878 -1.7467, 0.1743 1.3439 -1.7155, 0.1743 1.2075 -1.7942, 0.1743 1.3501 -1.7236, 0.1743 1.2388 -1.835, 0.1743 1.3583 -1.7299, 0.1743 1.2795 -1.8663, 0.1743 1.3678 -1.7338, 0.1743 1.327 -1.8859, 0.1743 1.378 -1.7352, 0.1743 1.378 -1.8926, 0.1743 1.9685 -1.7352, 0.1743 1.9685 -1.8926, -0.1407 1.9685 -1.7352, -0.1407 1.9685 -1.8926, -0.1407 1.378 -1.7352, -0.1407 1.378 -1.8926, -0.1407 1.3678 -1.7338, -0.1407 1.327 -1.8859, -0.1407 1.3583 -1.7299, -0.1407 1.2795 -1.8663, -0.1407 1.3501 -1.7236, -0.1407 1.2388 -1.835, -0.1407 1.3439 -1.7155, -0.1407 1.2075 -1.7942, -0.1407 1.3399 -1.706, -0.1407 1.1878 -1.7467, -0.1407 1.3386 -1.6958, -0.1407 1.1811 -1.6958, -0.1407 1.3386 -1.6171, -0.1407 1.1811 -1.6171, -0.2194 1.1811 -1.6171, -0.2194 1.1811 -1.8926, -0.2194 1.3386 -1.6171, -0.2194 1.3386 -1.8926, -0.2194 1.3386 -1.8926
            ]
        }
        coordIndex [
            0,1,2,-1,2,1,3,-1,2,3,4,-1,4,5,2,-1,2,5,6,-1,2,6,7,-1,8,9,10,-1,10,9,2,-1,10,2,11,-1,11,2,7,-1,12,13,14,-1,15,16,17,-1,17,16,12,-1,17,12,18,-1,14,19,12,-1,12,19,20,-1,12,20,21,-1,21,22,12,-1,12,22,23,-1,12,23,18,-1,24,25,26,-1,27,28,29,-1,29,28,26,-1,29,26,30,-1,30,26,25,-1,31,32,26,-1,26,32,33,-1,26,33,34,-1,34,35,26,-1,26,35,36,-1,26,36,24,-1,37,38,39,-1,39,40,37,-1,37,40,41,-1,37,41,42,-1,42,43,37,-1,37,43,44,-1,37,44,45,-1,46,47,48,-1,48,47,37,-1,48,37,49,-1,49,37,45,-1,12,16,2,-1,2,16,0,-1,15,1,16,-1,16,1,0,-1,3,1,17,-1,17,1,15,-1,27,39,28,-1,28,39,38,-1,40,39,29,-1,29,39,27,-1,26,28,37,-1,37,28,38,-1,19,10,11,-1,19,11,20,-1,20,11,7,-1,20,7,21,-1,21,7,6,-1,21,6,22,-1,22,6,5,-1,22,5,23,-1,23,5,4,-1,23,4,18,-1,18,4,3,-1,18,3,17,-1,33,48,49,-1,33,49,34,-1,34,49,45,-1,34,45,35,-1,35,45,44,-1,35,44,36,-1,36,44,43,-1,36,43,24,-1,24,43,42,-1,24,42,25,-1,25,42,41,-1,25,41,30,-1,30,41,40,-1,30,40,29,-1,50,51,52,-1,52,51,53,-1,54,55,56,-1,56,55,57,-1,56,57,58,-1,58,57,59,-1,58,59,60,-1,60,59,61,-1,60,61,62,-1,62,61,63,-1,62,63,64,-1,64,63,65,-1,64,65,66,-1,66,65,67,-1,66,67,68,-1,68,67,69,-1,68,69,70,-1,70,69,71,-1,72,73,74,-1,74,73,75,-1,74,75,76,-1,76,75,77,-1,76,77,78,-1,78,77,79,-1,78,79,80,-1,80,79,81,-1,80,81,82,-1,82,81,83,-1,82,83,84,-1,84,83,85,-1,84,85,86,-1,86,85,87,-1,86,87,88,-1,88,87,89,-1,90,91,92,-1,92,91,93,-1,
        ]
    }
}
Shape{
    appearance Appearance {
        material  Material 	{
            diffuseColor 0.25098039215686274 0.25098039215686274 0.25098039215686274
            specularColor 0.12549019607843137 0.12549019607843137 0.12549019607843137
            ambientIntensity 0.2
            transparency 0
            shininess 0.5
        }
    }
    geometry IndexedFaceSet {
        ccw TRUE
        solid FALSE
        coord DEF co Coordinate {
            point [
                0.6467 -0.1973 -0.1815, 0.6467 -0.0005 -0.1815, 0.6467 -0.0005 -0.1239, 0.6467 0.0792 -0.1815, 0.6467 0.2367 -0.1815, 0.6467 0.2367 -0.1239, 0.6467 -0.3937 0.6949, 0.6467 -0.3937 0.3421, 0.6467 -0.1973 0.3421, 0.6467 0.2367 -1.8533, 0.6467 0.6693 -1.8533, 0.6467 0.6693 -1.8139, 0.6467 0.9055 -1.8139, 0.6467 0.9055 -1.8533, 0.6467 1.1583 -1.5788, 0.6467 1.1696 -1.8533, 0.6467 1.1583 -1.1979, 0.6467 1.1696 -0.1815, 0.6467 0.6944 -1.1979, 0.6467 -1.357 -1.5788, 0.6467 -1.357 -1.1979, 0.6467 -1.3617 -1.8533, 0.6467 -1.3617 -0.1815, 0.6467 -1.3664 -1.8533, 0.6467 -1.3617 0.7058, 0.6467 -1.3617 0.3421, 0.6467 -1.357 0.4084, 0.6467 -1.357 0.3421, 0.6467 -0.6944 0.4084, 0.6467 -0.6944 0.6949, 0.6467 -0.1973 0.7058, 0.6467 -1.357 -0.0, 0.6467 -1.3617 -0.0543, 0.6467 -0.6944 -0.0, 0.6467 -0.6944 -0.0543, 0.6467 -1.3617 -0.1239, 0.6467 -0.6944 -0.1239, 0.6467 -0.6944 -0.1815, 0.6467 -0.6944 -1.1979, 0.6467 -0.1973 -0.1239, 0.6467 -0.3937 -0.1239, 0.6467 -0.3937 -0.1815, 0.6467 1.1583 -0.0, 0.6467 1.1696 -0.0543, 0.6467 1.1696 0.3421, 0.6467 0.6944 -0.1815, 0.6467 1.1696 -0.1239, 0.6467 0.6944 -0.1239, 0.6467 0.6944 -0.0543, 0.6467 0.6944 -0.0, 0.6467 0.3937 0.3421, 0.6467 0.3937 0.6949, 0.6467 0.2367 0.7058, 0.6467 0.6944 0.6949, 0.6467 1.1696 0.7058, 0.6467 0.6944 0.4084, 0.6467 1.1583 0.4084, 0.6467 1.1583 0.3421, 0.6467 0.0792 -0.1239, 0.6467 0.0127 -0.1162, 0.6467 0.0041 -0.1162, 0.6467 0.0006 -0.1078, 0.6467 0.0792 -0.1046, 0.6467 0.079 -0.1071, 0.6467 0.0766 -0.1162, 0.6467 0.066 -0.1162, 0.6467 0.0698 -0.1073, 0.6467 0.0119 -0.1148, 0.6467 0.0711 -0.0978, 0.6467 0.0702 -0.09, 0.6467 0.0681 -0.0841, 0.6467 0.0644 -0.0787, 0.6467 0.0592 -0.0739, 0.6467 0.0385 -0.0682, 0.6467 0.03 -0.069, 0.6467 0.0232 -0.0711, 0.6467 0.0085 -0.0886, 0.6467 0.0077 -0.096, 0.6467 0.0106 -0.0829, 0.6467 0.0139 -0.0781, 0.6467 0.0178 -0.0744, 0.6467 0.0088 -0.1064, 0.6467 0.0531 -0.0707, 0.6467 0.0447 -0.0686, 0.6467 0.0067 -0.0709, 0.6467 0.0129 -0.0649, 0.6467 -0.0005 -0.0543, 0.6467 0.0027 -0.0772, 0.6467 0.0792 -0.0543, 0.6467 0.0654 -0.0664, 0.6467 0.0722 -0.0735, 0.6467 0.0379 -0.0576, 0.6467 0.0491 -0.0587, 0.6467 0.058 -0.0618, 0.6467 0.0765 -0.081, 0.6467 0.0791 -0.0898, 0.6467 0.0792 -0.0918, 0.6467 0.0204 -0.0607, 0.6467 0.0288 -0.0584, 0.6467 -0.0005 -0.0998, 0.6467 -0.0009 -0.0967, 0.6467 -0.1973 -0.0543, 0.6467 -0.3937 -0.0543, 0.6467 -0.001 -0.0945, 0.6467 -0.0005 -0.0899, 0.6467 0.0 -0.0848, 0.6467 0.6944 -1.5788, 0.6467 0.6944 -1.788, 0.6467 0.3937 -1.788, 0.6467 0.0792 -1.8533, 0.6467 0.0797 -0.0977, 0.6467 0.2367 -0.0543, 0.6467 0.2367 0.3421, 0.6467 0.0792 0.3421, 0.6467 0.0 -0.2698, 0.6467 0.0 -0.2583, 0.6467 0.0 -0.3294, 0.6467 0.0 -0.3178, 0.6467 0.0216 -0.2486, 0.6467 0.0145 -0.2441, 0.6467 0.0083 -0.2376, 0.6467 0.0036 -0.2294, 0.6467 0.0221 -0.3099, 0.6467 0.0221 -0.2773, 0.6467 0.0775 -0.2228, 0.6467 0.0743 -0.232, 0.6467 0.0787 -0.2881, 0.6467 0.0685 -0.2405, 0.6467 -0.0005 -1.8533, 0.6467 0.0787 -0.2986, 0.6467 0.0787 -0.2114, 0.6467 0.0685 -0.2406, 0.6467 0.0623 -0.2462, 0.6467 0.0555 -0.2499, 0.6467 0.0009 -0.2203, 0.6467 0.0 -0.2106, 0.6467 0.0 -0.1892, 0.6467 0.0787 -0.1892, 0.6467 0.0478 -0.252, 0.6467 0.0404 -0.2525, 0.6467 0.0298 -0.2514, 0.6467 0.0701 -0.1421, 0.6467 0.0442 -0.1421, 0.6467 0.0701 -0.1719, 0.6467 0.0442 -0.17, 0.6467 0.0355 -0.1421, 0.6467 0.0086 -0.1421, 0.6467 0.0355 -0.17, 0.6467 0.0086 -0.1738, 0.6467 0.0 -0.1738, 0.6467 0.0 -0.1316, 0.6467 0.0787 -0.1316, 0.6467 0.0787 -0.1719, 0.6467 0.0086 -0.0509, 0.6467 0.0 -0.0509, 0.6467 0.0086 -0.0211, 0.6467 0.0787 -0.0211, 0.6467 0.0787 -0.0106, 0.6467 0.0 -0.0106, 0.6467 -0.0005 0.3421, 0.6467 -0.1973 -1.8533, 0.6467 -1.1024 -1.8533, 0.6467 -1.1024 -1.8139, 0.6467 -0.6944 -1.5788, 0.6467 -0.8661 -1.8139, 0.6467 -0.6944 -1.788, 0.6467 -0.8661 -1.8533, 0.6467 -0.3937 -1.788, 0.6467 0.3937 -0.1815, 0.6467 0.3937 -0.1239, 0.6467 0.3937 -0.0543, 0.6467 0.0792 0.7058, 0.6467 -0.0005 0.7058, 0.6467 -1.3664 -0.1815, 0.6467 -1.3664 -0.1239, 0.6467 -1.3664 -0.0543, 0.6467 -1.3664 0.3421, 0.6467 -1.3664 0.7058, 0.6467 -1.3664 0.7058
            ]
        }
        coordIndex [
            0,1,2,-1,3,4,5,-1,6,7,8,-1,9,10,11,-1,12,13,14,-1,14,13,15,-1,14,15,16,-1,16,15,17,-1,16,17,18,-1,19,20,21,-1,21,20,22,-1,21,22,23,-1,24,25,26,-1,26,25,27,-1,26,28,24,-1,24,28,29,-1,24,29,30,-1,27,25,31,-1,31,25,32,-1,31,32,33,-1,33,32,34,-1,34,32,35,-1,34,35,36,-1,36,35,22,-1,36,22,37,-1,37,22,20,-1,37,20,38,-1,39,40,41,-1,42,43,44,-1,18,17,45,-1,45,17,46,-1,45,46,47,-1,47,46,43,-1,47,43,48,-1,48,43,42,-1,48,42,49,-1,50,51,52,-1,52,51,53,-1,52,53,54,-1,53,55,54,-1,54,55,56,-1,54,56,44,-1,44,56,57,-1,44,57,42,-1,58,59,2,-1,2,59,60,-1,2,60,61,-1,58,62,63,-1,63,64,58,-1,58,64,65,-1,58,65,59,-1,59,65,66,-1,59,66,67,-1,67,66,68,-1,67,68,69,-1,69,70,67,-1,67,70,71,-1,67,71,72,-1,73,74,67,-1,67,74,75,-1,76,77,78,-1,78,77,79,-1,75,80,67,-1,67,80,79,-1,67,79,81,-1,81,79,77,-1,72,82,67,-1,67,82,83,-1,67,83,73,-1,84,85,86,-1,84,86,87,-1,88,89,90,-1,91,92,88,-1,88,92,93,-1,88,93,89,-1,90,94,88,-1,88,94,95,-1,88,95,96,-1,85,97,86,-1,86,97,98,-1,86,98,91,-1,99,100,39,-1,39,100,101,-1,39,101,40,-1,40,101,102,-1,100,103,101,-1,101,103,104,-1,101,104,86,-1,86,104,105,-1,86,105,87,-1,14,106,12,-1,12,106,107,-1,12,107,11,-1,11,107,108,-1,11,108,9,-1,9,108,4,-1,9,4,109,-1,109,4,3,-1,110,5,96,-1,96,5,111,-1,96,111,88,-1,88,111,112,-1,88,112,113,-1,114,115,1,-1,116,117,1,-1,118,119,115,-1,115,119,120,-1,115,120,121,-1,1,117,114,-1,114,117,122,-1,114,122,123,-1,124,125,126,-1,126,125,127,-1,128,109,129,-1,129,109,3,-1,129,3,126,-1,126,3,130,-1,126,130,124,-1,127,131,126,-1,126,131,132,-1,126,132,133,-1,121,134,115,-1,115,134,135,-1,115,135,1,-1,1,135,136,-1,1,136,3,-1,3,136,137,-1,3,137,130,-1,133,138,126,-1,126,138,139,-1,126,139,115,-1,115,139,140,-1,115,140,118,-1,141,142,143,-1,143,142,144,-1,145,146,147,-1,147,146,148,-1,3,148,1,-1,1,148,149,-1,1,149,2,-1,2,149,150,-1,2,150,58,-1,58,150,151,-1,58,151,152,-1,110,62,5,-1,5,62,58,-1,5,58,3,-1,3,58,152,-1,3,152,148,-1,148,152,143,-1,148,143,147,-1,147,143,144,-1,91,88,86,-1,86,88,153,-1,86,153,154,-1,155,153,156,-1,156,153,88,-1,156,88,157,-1,157,88,113,-1,157,113,158,-1,158,113,159,-1,129,116,128,-1,128,116,1,-1,128,1,160,-1,160,1,0,-1,21,161,19,-1,19,161,162,-1,19,162,163,-1,163,162,164,-1,163,164,165,-1,165,164,166,-1,165,166,167,-1,167,166,160,-1,167,160,41,-1,41,160,0,-1,41,0,39,-1,39,0,2,-1,39,2,99,-1,99,2,61,-1,154,158,86,-1,86,158,159,-1,86,159,101,-1,101,159,8,-1,101,8,102,-1,102,8,7,-1,108,168,4,-1,4,168,169,-1,4,169,5,-1,5,169,170,-1,5,170,111,-1,111,170,50,-1,111,50,112,-1,112,50,52,-1,112,52,113,-1,113,52,171,-1,113,171,159,-1,159,171,172,-1,159,172,8,-1,8,172,30,-1,8,30,6,-1,6,30,29,-1,23,22,173,-1,173,22,35,-1,173,35,174,-1,174,35,32,-1,174,32,175,-1,175,32,25,-1,175,25,176,-1,176,25,24,-1,176,24,177,-1,
        ]
    }
}
Shape{
    appearance Appearance {
        material  Material 	{
            diffuseColor 0.2235294117647059 0.2235294117647059 0.2235294117647059
            specularColor 0.11372549019607843 0.11372549019607843 0.11372549019607843
            ambientIntensity 0.2
            transparency 0
            shininess 0.5
        }
    }
    geometry IndexedFaceSet {
        ccw TRUE
        solid FALSE
        coord DEF co Coordinate {
            point [
                0.6467 -1.3617 -1.8533, 0.6467 -1.3664 -1.8533, -0.5228 -1.3664 -1.8533, -0.5228 1.1696 -1.8533, 0.6467 1.1696 -1.8533, 0.5441 0.9055 -1.8533, 0.6467 0.9055 -1.8533, 0.6467 -0.1973 -1.8533, 0.6467 -0.8661 -1.8533, 0.5441 -0.8661 -1.8533, 0.6467 -1.1024 -1.8533, 0.5441 -1.1024 -1.8533, 0.6467 0.6693 -1.8533, 0.6467 0.2367 -1.8533, 0.5441 0.6693 -1.8533, 0.6467 0.0792 -1.8533, 0.6467 -0.0005 -1.8533, 0.8042 0.655 0.0394, 0.8042 1.1189 0.0394, 0.8042 1.1189 0.369, 0.8042 0.655 0.6555, 0.8042 0.4331 0.6555, 0.8042 0.655 0.369, 0.8042 0.4331 -1.7486, 0.8042 0.655 -1.7486, 0.8042 0.655 -1.5395, 0.8042 1.1189 -1.5395, 0.8042 1.1189 -1.2373, 0.8042 0.655 -1.2373, 0.6467 1.1696 0.7058, 0.6467 1.1696 0.3421, -0.5228 1.1696 0.7058, 0.6467 1.1696 -0.0543, 0.6467 1.1696 -0.1815, 0.6467 1.1696 -0.1239, 0.8042 -0.655 -1.5395, 0.8042 -0.655 -1.7486, 0.8042 -0.4331 -1.7486, 0.8042 -0.4331 0.6555, 0.8042 -0.655 0.369, 0.8042 -0.655 0.6555, 0.8042 -0.655 -1.2373, 0.8042 -1.3177 -1.2373, 0.8042 -1.3177 -1.5395, 0.8042 -0.655 0.0394, 0.8042 -1.3177 0.0394, 0.8042 -1.3177 0.369, 0.6467 -1.3664 0.3421, 0.6467 -1.3664 0.7058, -0.5228 -1.3664 0.7058, 0.6467 -1.3664 -0.1815, 0.6467 -1.3664 -0.1239, 0.6467 -1.3664 -0.0543, 0.6467 -1.3617 0.7058, 0.6467 -0.1973 0.7058, 0.6467 -0.0005 0.7058, 0.6467 0.0792 0.7058, 0.6467 0.2367 0.7058, 0.6467 0.2367 0.7058
            ]
        }
        coordIndex [
            0,1,2,-1,3,4,5,-1,5,4,6,-1,7,8,9,-1,10,0,11,-1,11,0,2,-1,11,2,9,-1,12,13,14,-1,14,13,15,-1,14,15,16,-1,3,5,2,-1,2,5,14,-1,2,14,9,-1,9,14,16,-1,9,16,7,-1,17,18,19,-1,20,21,22,-1,22,21,23,-1,23,24,25,-1,26,27,25,-1,25,27,28,-1,25,28,23,-1,23,28,17,-1,23,17,22,-1,22,17,19,-1,29,30,31,-1,31,30,32,-1,4,3,33,-1,33,3,31,-1,33,31,34,-1,34,31,32,-1,35,36,37,-1,37,38,39,-1,39,38,40,-1,41,42,43,-1,43,35,41,-1,41,35,37,-1,41,37,44,-1,44,37,39,-1,44,39,45,-1,45,39,46,-1,47,48,49,-1,2,1,49,-1,49,1,50,-1,50,51,49,-1,49,51,52,-1,49,52,47,-1,31,49,48,-1,48,53,31,-1,31,53,54,-1,31,54,55,-1,55,56,31,-1,31,56,57,-1,31,57,29,-1,
        ]
    }
}
Shape{
    appearance Appearance {
        material  Material 	{
            diffuseColor 0.25098039215686274 0.25098039215686274 0.25098039215686274
            specularColor 0.12549019607843137 0.12549019607843137 0.12549019607843137
            ambientIntensity 0.2
            transparency 0
            shininess 0.5
        }
    }
    geometry IndexedFaceSet {
        ccw TRUE
        solid FALSE
        coord DEF co Coordinate {
            point [
                0.6467 0.3937 0.6949, 0.6467 0.3937 0.3421, 0.7648 0.3937 0.6949, 0.6467 0.3937 -0.0543, 0.6467 0.3937 -1.788, 0.7648 0.3937 -1.788, 0.6467 0.3937 -0.1815, 0.6467 0.3937 -0.1239, 0.6467 -0.3937 0.3421, 0.6467 -0.3937 0.6949, 0.7648 -0.3937 0.6949, 0.6467 -0.3937 -0.0543, 0.7648 -0.3937 -1.788, 0.6467 -0.3937 -1.788, 0.6467 -0.3937 -0.1815, 0.6467 -0.3937 -0.1239, 0.7648 -1.357 -1.5788, 0.6467 -1.357 -1.5788, 0.7648 -0.6944 -1.5788, 0.6467 -0.6944 -1.5788, 0.7648 -0.6944 -1.788, 0.6467 -0.6944 -1.788, 0.7648 0.6944 -1.788, 0.6467 0.6944 -1.788, 0.7648 0.6944 -1.5788, 0.6467 0.6944 -1.5788, 0.7648 1.1583 -1.5788, 0.6467 1.1583 -1.5788, 0.7648 1.1583 0.4084, 0.6467 1.1583 0.4084, 0.7648 0.6944 0.4084, 0.6467 0.6944 0.4084, 0.7648 0.6944 0.6949, 0.6467 0.6944 0.6949, 0.7648 -0.6944 0.6949, 0.6467 -0.6944 0.6949, 0.7648 -0.6944 0.4084, 0.6467 -0.6944 0.4084, 0.7648 -1.357 0.4084, 0.6467 -1.357 0.4084, 0.7648 -1.357 -0.0, 0.6467 -1.357 -0.0, 0.7648 -0.6944 -0.0, 0.6467 -0.6944 -0.0, 0.7648 -0.6944 -1.1979, 0.6467 -0.6944 -1.1979, 0.7648 -1.357 -1.1979, 0.6467 -1.357 -1.1979, 0.7648 1.1583 -1.1979, 0.6467 1.1583 -1.1979, 0.7648 0.6944 -1.1979, 0.6467 0.6944 -1.1979, 0.7648 0.6944 -0.0, 0.6467 0.6944 -0.0, 0.7648 1.1583 -0.0, 0.6467 1.1583 -0.0, 0.6467 1.1583 -0.0
            ]
        }
        coordIndex [
            0,1,2,-1,2,1,3,-1,4,5,6,-1,6,5,2,-1,6,2,7,-1,7,2,3,-1,8,9,10,-1,8,10,11,-1,12,13,14,-1,12,14,10,-1,10,14,15,-1,10,15,11,-1,16,17,18,-1,18,17,19,-1,18,19,20,-1,20,19,21,-1,22,23,24,-1,24,23,25,-1,24,25,26,-1,26,25,27,-1,28,29,30,-1,30,29,31,-1,30,31,32,-1,32,31,33,-1,34,35,36,-1,36,35,37,-1,36,37,38,-1,38,37,39,-1,40,41,42,-1,42,41,43,-1,44,45,46,-1,46,45,47,-1,48,49,50,-1,50,49,51,-1,52,53,54,-1,54,53,55,-1,
        ]
    }
}
Shape{
    appearance Appearance {
        material  Material 	{
            diffuseColor 0.2235294117647059 0.2235294117647059 0.2235294117647059
            specularColor 0.11372549019607843 0.11372549019607843 0.11372549019607843
            ambientIntensity 0.2
            transparency 0
            shininess 0.5
        }
    }
    geometry IndexedFaceSet {
        ccw TRUE
        solid FALSE
        coord DEF co Coordinate {
            point [
                -0.5228 1.1696 -1.8533, -0.5228 -1.3664 -1.8533, -0.5228 1.1696 0.7058, -0.5228 -1.3664 0.7058, -0.5228 -1.3664 0.7058
            ]
        }
        coordIndex [
            0,1,2,-1,2,1,3,-1,
        ]
    }
}
Shape{
    appearance Appearance {
        material  Material 	{
            diffuseColor 0.7529411764705882 0.7529411764705882 0.7529411764705882
            specularColor 0.3764705882352941 0.3764705882352941 0.3764705882352941
            ambientIntensity 0.2
            transparency 0
            shininess 0.5
        }
    }
    geometry IndexedFaceSet {
        ccw TRUE
        solid FALSE
        coord DEF co Coordinate {
            point [
                1.3554 0.6693 -1.8139, 0.6467 0.6693 -1.8139, 1.3554 0.6693 -1.8926, 0.6467 0.6693 -1.8533, 0.6322 0.6693 -1.8926, 0.5441 0.6693 -1.8533, 0.5625 0.6693 -1.8699, 0.584 0.6693 -1.8824, 0.6075 0.6693 -1.89, 1.3554 0.9055 -1.8139, 1.3554 0.9055 -1.8926, 0.6467 0.9055 -1.8533, 0.6467 0.9055 -1.8139, 0.6322 0.9055 -1.8926, 0.6075 0.9055 -1.89, 0.584 0.9055 -1.8824, 0.5625 0.9055 -1.8699, 0.5441 0.9055 -1.8533, 1.3554 -1.1024 -1.8139, 0.6467 -1.1024 -1.8139, 1.3554 -1.1024 -1.8926, 0.6467 -1.1024 -1.8533, 0.6322 -1.1024 -1.8926, 0.5441 -1.1024 -1.8533, 0.5625 -1.1024 -1.8699, 0.584 -1.1024 -1.8824, 0.6075 -1.1024 -1.89, 1.3554 -0.8661 -1.8139, 1.3554 -0.8661 -1.8926, 0.6467 -0.8661 -1.8533, 0.6467 -0.8661 -1.8139, 0.6322 -0.8661 -1.8926, 0.6075 -0.8661 -1.89, 0.584 -0.8661 -1.8824, 0.5625 -0.8661 -1.8699, 0.5441 -0.8661 -1.8533, 0.5441 -0.8661 -1.8533
            ]
        }
        coordIndex [
            0,1,2,-1,2,1,3,-1,2,3,4,-1,3,5,6,-1,6,7,3,-1,3,7,8,-1,3,8,4,-1,9,0,10,-1,10,0,2,-1,11,12,9,-1,9,10,11,-1,11,10,13,-1,11,13,14,-1,14,15,11,-1,11,15,16,-1,11,16,17,-1,1,0,12,-1,12,0,9,-1,13,10,4,-1,4,10,2,-1,18,19,20,-1,20,19,21,-1,20,21,22,-1,21,23,24,-1,24,25,21,-1,21,25,26,-1,21,26,22,-1,27,18,28,-1,28,18,20,-1,29,30,27,-1,27,28,29,-1,29,28,31,-1,29,31,32,-1,32,33,29,-1,29,33,34,-1,29,34,35,-1,19,18,30,-1,30,18,27,-1,31,28,22,-1,22,28,20,-1,
        ]
    }
}
Shape{
    appearance Appearance {
        material  Material 	{
            diffuseColor 0.25098039215686274 0.25098039215686274 0.25098039215686274
            specularColor 0.12549019607843137 0.12549019607843137 0.12549019607843137
            ambientIntensity 0.2
            transparency 0
            shininess 0.5
        }
    }
    geometry IndexedFaceSet {
        ccw TRUE
        solid FALSE
        coord DEF co Coordinate {
            point [
                0.7648 -0.6944 -0.0, 0.6467 -0.6944 -0.0, 0.6467 -0.6944 -0.0543, 0.6467 -0.6944 -1.1979, 0.7648 -0.6944 -1.1979, 0.6467 -0.6944 -0.1815, 0.6467 -0.6944 -0.1239, 0.6467 0.6944 -0.0, 0.7648 0.6944 -0.0, 0.6467 0.6944 -0.0543, 0.6467 0.6944 -0.1239, 0.7648 0.6944 -1.1979, 0.6467 0.6944 -1.1979, 0.6467 0.6944 -0.1815, 0.6467 1.1583 0.4084, 0.7648 1.1583 0.4084, 0.6467 1.1583 0.3421, 0.7648 1.1583 -0.0, 0.6467 1.1583 -0.0, 0.7648 1.1583 -1.5788, 0.6467 1.1583 -1.5788, 0.7648 1.1583 -1.1979, 0.6467 1.1583 -1.1979, 0.7648 -1.357 -1.1979, 0.6467 -1.357 -1.1979, 0.7648 -1.357 -1.5788, 0.6467 -1.357 -1.5788, 0.6467 -1.357 -0.0, 0.7648 -1.357 -0.0, 0.6467 -1.357 0.3421, 0.7648 -1.357 0.4084, 0.6467 -1.357 0.4084, 0.7648 -0.3937 0.6949, 0.6467 -0.3937 0.6949, 0.7648 -0.6944 0.6949, 0.6467 -0.6944 0.6949, 0.7648 0.6944 0.6949, 0.6467 0.6944 0.6949, 0.7648 0.3937 0.6949, 0.6467 0.3937 0.6949, 0.7648 0.3937 -1.788, 0.6467 0.3937 -1.788, 0.7648 0.6944 -1.788, 0.6467 0.6944 -1.788, 0.7648 -0.6944 -1.788, 0.6467 -0.6944 -1.788, 0.7648 -0.3937 -1.788, 0.6467 -0.3937 -1.788, 0.7927 -1.3455 0.0115, 0.7989 -0.6747 0.0197, 0.7989 -1.3374 0.0197, 0.8029 -0.6652 0.0292, 0.8029 -1.3279 0.0292, 0.8042 -0.655 0.0394, 0.8042 -1.3177 0.0394, 0.7845 -0.6891 0.0053, 0.7888 -0.6862 0.0081, 0.7927 -0.6828 0.0115, 0.77 -1.3567 0.0003, 0.77 -0.694 0.0003, 0.775 -1.3557 0.0013, 0.775 -0.693 0.0013, 0.7799 -1.354 0.003, 0.7799 -0.6914 0.003, 0.7845 -1.3518 0.0053, 0.7888 -1.3489 0.0081, 0.77 -0.694 -1.1983, 0.775 -0.693 -1.1993, 0.7799 -0.6914 -1.2009, 0.7845 -0.6891 -1.2032, 0.7888 -0.6862 -1.2061, 0.7927 -0.6828 -1.2095, 0.7989 -0.6747 -1.2176, 0.8029 -0.6652 -1.2271, 0.8042 -0.655 -1.2373, 0.77 -1.3567 0.4081, 0.775 -1.3557 0.4071, 0.7799 -1.354 0.4054, 0.7845 -1.3518 0.4031, 0.7888 -1.3489 0.4003, 0.7927 -1.3455 0.3969, 0.7989 -1.3374 0.3887, 0.8029 -1.3279 0.3792, 0.8042 -1.3177 0.369, 0.8042 -1.3177 -1.2373, 0.8029 -1.3279 -1.2271, 0.7989 -1.3374 -1.2176, 0.7927 -1.3455 -1.2095, 0.7888 -1.3489 -1.2061, 0.7845 -1.3518 -1.2032, 0.7799 -1.354 -1.2009, 0.775 -1.3557 -1.1993, 0.77 -1.3567 -1.1983, 0.7648 -0.6944 0.4084, 0.77 -0.694 0.4081, 0.775 -0.693 0.4071, 0.7799 -0.6914 0.4054, 0.7845 -0.6891 0.4031, 0.7888 -0.6862 0.4003, 0.7927 -0.6828 0.3969, 0.7989 -0.6747 0.3887, 0.8029 -0.6652 0.3792, 0.8042 -0.655 0.369, 0.8031 -1.3264 -1.5482, 0.8042 -1.3177 -1.5395, 0.8029 -1.3279 -1.5497, 0.8001 -1.3346 -1.5565, 0.7989 -1.3374 -1.5592, 0.7954 -1.342 -1.5638, 0.7927 -1.3455 -1.5673, 0.7894 -1.3485 -1.5703, 0.7844 -1.3516 -1.5734, 0.7819 -1.3531 -1.5749, 0.775 -1.3557 -1.5775, 0.7692 -1.3568 -1.5786, 0.7736 -1.3561 -1.5779, 0.7927 -0.6828 0.6833, 0.77 -0.694 0.6945, 0.775 -0.693 0.6935, 0.7799 -0.6914 0.6919, 0.7845 -0.6891 0.6896, 0.7888 -0.6862 0.6867, 0.7989 -0.6747 0.6752, 0.8029 -0.6652 0.6657, 0.8042 -0.655 0.6555, 0.8042 -0.655 -1.5395, 0.8001 -0.672 -1.5565, 0.8029 -0.6652 -1.5497, 0.8031 -0.6637 -1.5482, 0.7989 -0.6747 -1.5592, 0.7954 -0.6793 -1.5638, 0.7927 -0.6828 -1.5673, 0.7894 -0.6858 -1.5703, 0.7648 -0.6944 -1.5788, 0.7692 -0.6941 -1.5786, 0.7736 -0.6934 -1.5779, 0.775 -0.693 -1.5775, 0.7819 -0.6905 -1.5749, 0.7844 -0.6889 -1.5734, 0.77 -0.394 0.6945, 0.775 -0.395 0.6935, 0.7799 -0.3967 0.6919, 0.7845 -0.399 0.6896, 0.7888 -0.4018 0.6867, 0.7927 -0.4052 0.6833, 0.7989 -0.4134 0.6752, 0.8029 -0.4229 0.6657, 0.8042 -0.4331 0.6555, 0.8042 -0.655 -1.7486, 0.8029 -0.6652 -1.7588, 0.7989 -0.6747 -1.7683, 0.7927 -0.6828 -1.7764, 0.7888 -0.6862 -1.7798, 0.7845 -0.6891 -1.7827, 0.7799 -0.6914 -1.785, 0.775 -0.693 -1.7866, 0.77 -0.694 -1.7876, 0.77 -0.394 -1.7876, 0.775 -0.395 -1.7866, 0.7799 -0.3967 -1.785, 0.7845 -0.399 -1.7827, 0.7888 -0.4018 -1.7798, 0.7927 -0.4052 -1.7764, 0.7989 -0.4134 -1.7683, 0.8029 -0.4229 -1.7588, 0.8042 -0.4331 -1.7486, 0.7648 0.6944 -1.5788, 0.77 1.158 -1.5785, 0.77 0.694 -1.5785, 0.775 1.1569 -1.5775, 0.775 0.693 -1.5775, 0.7799 1.1553 -1.5758, 0.7799 0.6914 -1.5758, 0.7845 1.153 -1.5736, 0.7845 0.6891 -1.5736, 0.7888 1.1502 -1.5707, 0.7888 0.6862 -1.5707, 0.7927 1.1468 -1.5673, 0.7927 0.6828 -1.5673, 0.7989 1.1386 -1.5592, 0.7989 0.6747 -1.5592, 0.8029 1.1291 -1.5497, 0.8029 0.6652 -1.5497, 0.8042 1.1189 -1.5395, 0.8042 0.655 -1.5395, 0.7927 0.6828 -1.7764, 0.77 0.694 -1.7876, 0.775 0.693 -1.7866, 0.7799 0.6914 -1.785, 0.7845 0.6891 -1.7827, 0.7888 0.6862 -1.7798, 0.7989 0.6747 -1.7683, 0.8029 0.6652 -1.7588, 0.8042 0.655 -1.7486, 0.7888 1.1502 -1.2061, 0.7927 1.1468 -1.2095, 0.7989 1.1386 -1.2176, 0.8029 1.1291 -1.2271, 0.8042 1.1189 -1.2373, 0.7799 1.1553 -1.2009, 0.7845 1.153 -1.2032, 0.77 1.158 -1.1983, 0.775 1.1569 -1.1993, 0.77 0.394 -1.7876, 0.775 0.395 -1.7866, 0.7799 0.3967 -1.785, 0.7845 0.399 -1.7827, 0.7888 0.4018 -1.7798, 0.7927 0.4052 -1.7764, 0.7989 0.4134 -1.7683, 0.8029 0.4229 -1.7588, 0.8042 0.4331 -1.7486, 0.7989 0.6747 -1.2176, 0.8029 0.6652 -1.2271, 0.8042 0.655 -1.2373, 0.7845 0.6891 -1.2032, 0.7888 0.6862 -1.2061, 0.7927 0.6828 -1.2095, 0.77 0.694 -1.1983, 0.775 0.693 -1.1993, 0.7799 0.6914 -1.2009, 0.77 0.394 0.6945, 0.775 0.395 0.6935, 0.7799 0.3967 0.6919, 0.7845 0.399 0.6896, 0.7888 0.4018 0.6867, 0.7927 0.4052 0.6833, 0.7989 0.4134 0.6752, 0.8029 0.4229 0.6657, 0.8042 0.4331 0.6555, 0.7888 0.6862 0.0081, 0.7927 0.6828 0.0115, 0.7989 0.6747 0.0197, 0.8029 0.6652 0.0292, 0.8042 0.655 0.0394, 0.7845 0.6891 0.0053, 0.775 0.693 0.0013, 0.7799 0.6914 0.003, 0.77 0.694 0.0003, 0.7927 0.6828 0.6833, 0.7888 0.6862 0.6867, 0.7845 0.6891 0.6896, 0.7799 0.6914 0.6919, 0.775 0.693 0.6935, 0.77 0.694 0.6945, 0.7989 0.6747 0.6752, 0.8029 0.6652 0.6657, 0.8042 0.655 0.6555, 0.8042 1.1189 0.0394, 0.8029 1.1291 0.0292, 0.7989 1.1386 0.0197, 0.7927 1.1468 0.0115, 0.7888 1.1502 0.0081, 0.7845 1.153 0.0053, 0.7799 1.1553 0.003, 0.775 1.1569 0.0013, 0.77 1.158 0.0003, 0.7648 0.6944 0.4084, 0.77 0.694 0.4081, 0.775 0.693 0.4071, 0.7799 0.6914 0.4054, 0.7845 0.6891 0.4031, 0.7888 0.6862 0.4003, 0.7927 0.6828 0.3969, 0.7989 0.6747 0.3887, 0.8029 0.6652 0.3792, 0.8042 0.655 0.369, 0.7888 1.1502 0.4003, 0.7927 1.1468 0.3969, 0.7989 1.1386 0.3887, 0.8029 1.1291 0.3792, 0.8042 1.1189 0.369, 0.7845 1.153 0.4031, 0.7799 1.1553 0.4054, 0.775 1.1569 0.4071, 0.77 1.158 0.4081, 0.77 1.158 0.4081
            ]
        }
        coordIndex [
            0,1,2,-1,3,4,5,-1,5,4,0,-1,5,0,6,-1,6,0,2,-1,7,8,9,-1,9,8,10,-1,11,12,8,-1,8,12,13,-1,8,13,10,-1,14,15,16,-1,16,15,17,-1,16,17,18,-1,19,20,21,-1,21,20,22,-1,23,24,25,-1,25,24,26,-1,27,28,29,-1,29,28,30,-1,29,30,31,-1,32,33,34,-1,34,33,35,-1,36,37,38,-1,38,37,39,-1,40,41,42,-1,42,41,43,-1,44,45,46,-1,46,45,47,-1,48,49,50,-1,50,49,51,-1,50,51,52,-1,52,51,53,-1,52,53,54,-1,55,56,48,-1,48,56,57,-1,48,57,49,-1,28,0,58,-1,58,0,59,-1,58,59,60,-1,60,59,61,-1,60,61,62,-1,62,61,63,-1,62,63,64,-1,64,63,55,-1,64,55,65,-1,65,55,48,-1,66,67,61,-1,68,69,55,-1,70,71,57,-1,57,71,72,-1,57,72,49,-1,49,72,73,-1,49,73,51,-1,51,73,74,-1,51,74,53,-1,70,57,69,-1,69,57,56,-1,69,56,55,-1,68,55,67,-1,67,55,63,-1,67,63,61,-1,66,61,4,-1,4,61,59,-1,4,59,0,-1,30,28,75,-1,75,28,58,-1,75,58,76,-1,76,58,60,-1,76,60,77,-1,77,60,62,-1,77,62,78,-1,62,64,78,-1,78,64,65,-1,78,65,79,-1,79,65,80,-1,65,48,80,-1,80,48,50,-1,80,50,81,-1,81,50,52,-1,81,52,82,-1,82,52,54,-1,82,54,83,-1,84,74,73,-1,84,73,85,-1,85,73,72,-1,85,72,86,-1,86,72,71,-1,86,71,87,-1,87,71,70,-1,87,70,88,-1,88,70,69,-1,88,69,89,-1,89,69,68,-1,89,68,90,-1,90,68,67,-1,90,67,91,-1,91,67,66,-1,91,66,92,-1,92,66,4,-1,92,4,23,-1,93,30,75,-1,93,75,94,-1,94,75,76,-1,94,76,95,-1,95,76,77,-1,95,77,96,-1,96,77,78,-1,96,78,97,-1,97,78,79,-1,97,79,98,-1,98,79,80,-1,98,80,99,-1,99,80,81,-1,99,81,100,-1,100,81,82,-1,100,82,101,-1,101,82,83,-1,101,83,102,-1,103,104,84,-1,103,84,105,-1,105,84,85,-1,105,85,106,-1,106,85,86,-1,106,86,107,-1,107,86,108,-1,108,86,87,-1,108,87,109,-1,109,87,110,-1,110,87,88,-1,110,88,111,-1,111,88,89,-1,111,89,112,-1,112,89,90,-1,112,90,113,-1,25,114,23,-1,23,114,115,-1,23,115,92,-1,92,115,113,-1,92,113,91,-1,91,113,90,-1,97,98,116,-1,34,93,117,-1,117,93,94,-1,117,94,118,-1,118,94,95,-1,118,95,119,-1,119,95,96,-1,119,96,120,-1,120,96,97,-1,120,97,121,-1,121,97,116,-1,98,99,116,-1,116,99,100,-1,116,100,122,-1,122,100,101,-1,122,101,123,-1,123,101,102,-1,123,102,124,-1,125,104,103,-1,126,127,103,-1,103,127,128,-1,103,128,125,-1,103,105,126,-1,126,105,106,-1,126,106,129,-1,129,106,130,-1,106,107,130,-1,130,107,108,-1,130,108,131,-1,131,108,132,-1,25,133,114,-1,114,133,134,-1,114,134,115,-1,115,134,135,-1,115,135,113,-1,113,135,136,-1,113,136,112,-1,112,136,137,-1,112,137,111,-1,111,137,138,-1,111,138,110,-1,110,138,132,-1,110,132,109,-1,109,132,108,-1,32,34,117,-1,32,117,139,-1,139,117,118,-1,139,118,140,-1,140,118,119,-1,140,119,141,-1,141,119,120,-1,141,120,142,-1,142,120,143,-1,143,120,121,-1,143,121,144,-1,121,116,144,-1,144,116,122,-1,144,122,145,-1,145,122,123,-1,145,123,146,-1,146,123,124,-1,146,124,147,-1,148,125,128,-1,148,128,149,-1,128,127,149,-1,149,127,126,-1,149,126,150,-1,126,129,150,-1,150,129,130,-1,150,130,151,-1,130,131,151,-1,151,131,132,-1,151,132,152,-1,152,132,138,-1,152,138,153,-1,153,138,137,-1,153,137,154,-1,154,137,136,-1,154,136,155,-1,136,135,155,-1,155,135,134,-1,155,134,156,-1,156,134,133,-1,156,133,44,-1,46,32,157,-1,157,32,139,-1,157,139,158,-1,139,140,158,-1,158,140,141,-1,158,141,159,-1,159,141,142,-1,159,142,160,-1,160,142,143,-1,160,143,161,-1,161,143,162,-1,143,144,162,-1,162,144,145,-1,162,145,163,-1,163,145,146,-1,163,146,164,-1,164,146,147,-1,164,147,165,-1,165,148,149,-1,165,149,164,-1,164,149,150,-1,164,150,163,-1,163,150,151,-1,163,151,162,-1,162,151,161,-1,161,151,152,-1,161,152,153,-1,44,46,156,-1,156,46,157,-1,156,157,155,-1,155,157,158,-1,155,158,154,-1,154,158,159,-1,154,159,153,-1,153,159,160,-1,153,160,161,-1,166,19,167,-1,166,167,168,-1,168,167,169,-1,168,169,170,-1,170,169,171,-1,170,171,172,-1,172,171,173,-1,172,173,174,-1,174,173,175,-1,174,175,176,-1,176,175,177,-1,176,177,178,-1,178,177,179,-1,178,179,180,-1,180,179,181,-1,180,181,182,-1,182,181,183,-1,182,183,184,-1,174,176,185,-1,42,166,186,-1,186,166,168,-1,186,168,187,-1,187,168,170,-1,187,170,188,-1,188,170,172,-1,188,172,189,-1,189,172,174,-1,189,174,190,-1,190,174,185,-1,176,178,185,-1,185,178,180,-1,185,180,191,-1,191,180,182,-1,191,182,192,-1,192,182,184,-1,192,184,193,-1,194,195,177,-1,177,195,196,-1,177,196,179,-1,179,196,197,-1,179,197,181,-1,181,197,198,-1,181,198,183,-1,169,199,171,-1,171,199,200,-1,171,200,173,-1,173,200,194,-1,173,194,175,-1,175,194,177,-1,19,21,167,-1,167,21,201,-1,167,201,169,-1,169,201,202,-1,169,202,199,-1,40,42,203,-1,203,42,186,-1,203,186,204,-1,204,186,187,-1,204,187,205,-1,205,187,188,-1,205,188,206,-1,188,189,206,-1,206,189,190,-1,206,190,207,-1,207,190,208,-1,190,185,208,-1,208,185,191,-1,208,191,209,-1,209,191,192,-1,209,192,210,-1,210,192,193,-1,210,193,211,-1,195,212,196,-1,196,212,213,-1,196,213,197,-1,197,213,214,-1,197,214,198,-1,215,216,195,-1,195,216,217,-1,195,217,212,-1,21,11,201,-1,201,11,218,-1,201,218,202,-1,202,218,219,-1,202,219,199,-1,199,219,220,-1,199,220,200,-1,200,220,215,-1,200,215,194,-1,194,215,195,-1,38,40,221,-1,221,40,203,-1,221,203,222,-1,222,203,204,-1,222,204,223,-1,223,204,205,-1,223,205,224,-1,205,206,224,-1,224,206,207,-1,224,207,225,-1,225,207,226,-1,207,208,226,-1,226,208,209,-1,226,209,227,-1,227,209,210,-1,227,210,228,-1,228,210,211,-1,228,211,229,-1,230,231,217,-1,217,231,232,-1,217,232,212,-1,212,232,233,-1,212,233,213,-1,213,233,234,-1,213,234,214,-1,230,217,235,-1,235,217,216,-1,235,216,215,-1,220,219,236,-1,220,236,215,-1,215,236,237,-1,215,237,235,-1,218,11,8,-1,218,8,219,-1,219,8,238,-1,219,238,236,-1,239,240,225,-1,225,240,241,-1,225,241,224,-1,224,241,242,-1,224,242,223,-1,223,242,243,-1,223,243,222,-1,222,243,244,-1,222,244,221,-1,221,244,36,-1,221,36,38,-1,225,226,239,-1,239,226,227,-1,239,227,245,-1,245,227,228,-1,245,228,246,-1,246,228,229,-1,246,229,247,-1,248,234,233,-1,248,233,249,-1,249,233,232,-1,249,232,250,-1,250,232,231,-1,250,231,251,-1,251,231,230,-1,251,230,252,-1,252,230,235,-1,252,235,253,-1,253,235,237,-1,253,237,254,-1,254,237,236,-1,254,236,255,-1,255,236,238,-1,255,238,256,-1,256,238,8,-1,256,8,17,-1,257,36,244,-1,257,244,258,-1,258,244,243,-1,258,243,259,-1,259,243,242,-1,259,242,260,-1,260,242,241,-1,260,241,261,-1,261,241,240,-1,261,240,262,-1,262,240,239,-1,262,239,263,-1,263,239,245,-1,263,245,264,-1,264,245,246,-1,264,246,265,-1,265,246,247,-1,265,247,266,-1,267,268,251,-1,251,268,269,-1,251,269,250,-1,250,269,270,-1,250,270,249,-1,249,270,271,-1,249,271,248,-1,251,252,267,-1,267,252,253,-1,267,253,272,-1,272,253,254,-1,272,254,273,-1,273,254,255,-1,273,255,274,-1,274,255,256,-1,274,256,275,-1,275,256,17,-1,275,17,15,-1,261,262,268,-1,15,257,275,-1,275,257,258,-1,275,258,274,-1,274,258,259,-1,274,259,273,-1,273,259,260,-1,273,260,272,-1,272,260,261,-1,272,261,267,-1,267,261,268,-1,262,263,268,-1,268,263,264,-1,268,264,269,-1,269,264,265,-1,269,265,270,-1,270,265,266,-1,270,266,271,-1,
        ]
    }
}
Shape{
    appearance Appearance {
        material  Material 	{
            diffuseColor 1.0 1.0 1.0
            specularColor 0.8784313725490196 0.8784313725490196 0.8784313725490196
            ambientIntensity 0.2
            transparency 0
            shininess 0.5
        }
    }
    geometry IndexedFaceSet {
        ccw TRUE
        solid FALSE
        coord DEF co Coordinate {
            point [
                0.6507 0.0086 -0.0509, 0.6507 0.0 -0.0509, 0.6467 0.0086 -0.0509, 0.6467 0.0 -0.0509, 0.6507 0.0086 -0.0211, 0.6467 0.0086 -0.0211, 0.6507 0.0787 -0.0211, 0.6467 0.0787 -0.0211, 0.6507 0.0787 -0.0106, 0.6467 0.0787 -0.0106, 0.6507 0.0 -0.0106, 0.6467 0.0 -0.0106, 0.6507 0.0127 -0.1162, 0.6507 0.0041 -0.1162, 0.6467 0.0127 -0.1162, 0.6467 0.0041 -0.1162, 0.6467 0.0119 -0.1148, 0.6507 0.0119 -0.1148, 0.6467 0.0088 -0.1064, 0.6507 0.0088 -0.1064, 0.6467 0.0077 -0.096, 0.6507 0.0077 -0.096, 0.6467 0.0085 -0.0886, 0.6507 0.0085 -0.0886, 0.6467 0.0106 -0.0829, 0.6507 0.0106 -0.0829, 0.6467 0.0139 -0.0781, 0.6507 0.0139 -0.0781, 0.6467 0.0178 -0.0744, 0.6507 0.0178 -0.0744, 0.6467 0.0232 -0.0711, 0.6507 0.0232 -0.0711, 0.6467 0.03 -0.069, 0.6507 0.03 -0.069, 0.6467 0.0385 -0.0682, 0.6507 0.0385 -0.0682, 0.6467 0.0447 -0.0686, 0.6507 0.0447 -0.0686, 0.6467 0.0531 -0.0707, 0.6507 0.0531 -0.0707, 0.6467 0.0592 -0.0739, 0.6507 0.0592 -0.0739, 0.6467 0.0644 -0.0787, 0.6507 0.0644 -0.0787, 0.6467 0.0681 -0.0841, 0.6507 0.0681 -0.0841, 0.6467 0.0702 -0.09, 0.6507 0.0702 -0.09, 0.6467 0.0711 -0.0978, 0.6507 0.0711 -0.0978, 0.6467 0.0698 -0.1073, 0.6507 0.0698 -0.1073, 0.6467 0.066 -0.1162, 0.6507 0.066 -0.1162, 0.6507 0.0766 -0.1162, 0.6467 0.0766 -0.1162, 0.6467 0.0797 -0.0977, 0.6507 0.0797 -0.0977, 0.6467 0.0792 -0.1046, 0.6507 0.079 -0.1071, 0.6467 0.079 -0.1071, 0.6467 0.0792 -0.0918, 0.6507 0.0791 -0.0898, 0.6467 0.0791 -0.0898, 0.6467 0.0765 -0.081, 0.6507 0.0765 -0.081, 0.6467 0.0722 -0.0735, 0.6507 0.0722 -0.0735, 0.6467 0.0654 -0.0664, 0.6507 0.0654 -0.0664, 0.6467 0.058 -0.0618, 0.6507 0.058 -0.0618, 0.6467 0.0491 -0.0587, 0.6507 0.0491 -0.0587, 0.6467 0.0379 -0.0576, 0.6507 0.0379 -0.0576, 0.6467 0.0288 -0.0584, 0.6507 0.0288 -0.0584, 0.6467 0.0204 -0.0607, 0.6507 0.0204 -0.0607, 0.6467 0.0129 -0.0649, 0.6507 0.0129 -0.0649, 0.6467 0.0067 -0.0709, 0.6507 0.0067 -0.0709, 0.6467 0.0027 -0.0772, 0.6507 0.0027 -0.0772, 0.6467 0.0 -0.0848, 0.6507 0.0 -0.0848, 0.6507 -0.001 -0.0945, 0.6467 -0.0005 -0.0899, 0.6467 -0.001 -0.0945, 0.6507 0.0006 -0.1078, 0.6467 -0.0009 -0.0967, 0.6507 -0.0009 -0.0967, 0.6467 -0.0005 -0.0998, 0.6467 0.0006 -0.1078, 0.6507 0.0086 -0.1738, 0.6507 0.0 -0.1738, 0.6467 0.0086 -0.1738, 0.6467 0.0 -0.1738, 0.6507 0.0086 -0.1421, 0.6467 0.0086 -0.1421, 0.6507 0.0355 -0.1421, 0.6467 0.0355 -0.1421, 0.6507 0.0355 -0.17, 0.6467 0.0355 -0.17, 0.6507 0.0442 -0.17, 0.6467 0.0442 -0.17, 0.6507 0.0442 -0.1421, 0.6467 0.0442 -0.1421, 0.6507 0.0701 -0.1421, 0.6467 0.0701 -0.1421, 0.6507 0.0701 -0.1719, 0.6467 0.0701 -0.1719, 0.6507 0.0787 -0.1719, 0.6467 0.0787 -0.1719, 0.6507 0.0787 -0.1316, 0.6467 0.0787 -0.1316, 0.6507 0.0 -0.1316, 0.6467 0.0 -0.1316, 0.6507 0.0555 -0.2499, 0.6507 0.0623 -0.2462, 0.6507 0.0591 -0.2367, 0.6507 0.0685 -0.2406, 0.6507 0.0631 -0.2329, 0.6507 0.0685 -0.2405, 0.6507 0.0668 -0.2272, 0.6507 0.0743 -0.232, 0.6507 0.0691 -0.2207, 0.6507 0.0775 -0.2228, 0.6507 0.0701 -0.2113, 0.6507 0.0787 -0.2114, 0.6507 0.0701 -0.1997, 0.6507 0.0787 -0.1892, 0.6507 0.0086 -0.1997, 0.6507 0.0 -0.1892, 0.6507 0.0086 -0.2109, 0.6507 0.0 -0.2106, 0.6507 0.0094 -0.2192, 0.6507 0.0009 -0.2203, 0.6507 0.0115 -0.2258, 0.6507 0.0036 -0.2294, 0.6507 0.0147 -0.2312, 0.6507 0.0083 -0.2376, 0.6507 0.019 -0.2356, 0.6507 0.0145 -0.2441, 0.6507 0.0245 -0.2389, 0.6507 0.0216 -0.2486, 0.6507 0.0319 -0.2413, 0.6507 0.0298 -0.2514, 0.6507 0.0401 -0.242, 0.6507 0.0404 -0.2525, 0.6507 0.048 -0.2413, 0.6507 0.0478 -0.252, 0.6507 0.0542 -0.2395, 0.6467 0.0 -0.2106, 0.6467 0.0 -0.1892, 0.6467 0.0009 -0.2203, 0.6467 0.0036 -0.2294, 0.6467 0.0083 -0.2376, 0.6467 0.0145 -0.2441, 0.6467 0.0216 -0.2486, 0.6467 0.0298 -0.2514, 0.6467 0.0404 -0.2525, 0.6467 0.0478 -0.252, 0.6467 0.0555 -0.2499, 0.6467 0.0623 -0.2462, 0.6467 0.0685 -0.2406, 0.6467 0.0685 -0.2405, 0.6467 0.0743 -0.232, 0.6467 0.0775 -0.2228, 0.6467 0.0787 -0.2114, 0.6467 0.0787 -0.1892, 0.6467 0.0701 -0.2113, 0.6467 0.0701 -0.1997, 0.6467 0.0086 -0.1997, 0.6467 0.0086 -0.2109, 0.6467 0.0401 -0.242, 0.6467 0.0319 -0.2413, 0.6467 0.0245 -0.2389, 0.6467 0.019 -0.2356, 0.6467 0.0147 -0.2312, 0.6467 0.0115 -0.2258, 0.6467 0.0094 -0.2192, 0.6467 0.0691 -0.2207, 0.6467 0.0668 -0.2272, 0.6467 0.0631 -0.2329, 0.6467 0.0591 -0.2367, 0.6467 0.0542 -0.2395, 0.6467 0.048 -0.2413, 0.6467 0.048 -0.2413
            ]
        }
        coordIndex [
            0,1,2,-1,2,1,3,-1,4,0,5,-1,5,0,2,-1,6,4,7,-1,7,4,5,-1,8,6,9,-1,9,6,7,-1,10,8,11,-1,11,8,9,-1,1,10,3,-1,3,10,11,-1,6,8,4,-1,4,8,10,-1,4,10,0,-1,0,10,1,-1,12,13,14,-1,14,13,15,-1,12,14,16,-1,12,16,17,-1,17,16,18,-1,17,18,19,-1,19,18,20,-1,19,20,21,-1,21,20,22,-1,21,22,23,-1,23,22,24,-1,23,24,25,-1,25,24,26,-1,25,26,27,-1,27,26,28,-1,27,28,29,-1,29,28,30,-1,29,30,31,-1,31,30,32,-1,31,32,33,-1,33,32,34,-1,33,34,35,-1,35,34,36,-1,35,36,37,-1,37,36,38,-1,37,38,39,-1,39,38,40,-1,39,40,41,-1,41,40,42,-1,41,42,43,-1,43,42,44,-1,43,44,45,-1,45,44,46,-1,45,46,47,-1,47,46,48,-1,47,48,49,-1,49,48,50,-1,49,50,51,-1,51,50,52,-1,51,52,53,-1,54,53,55,-1,55,53,52,-1,56,57,58,-1,58,57,59,-1,58,59,60,-1,60,59,54,-1,60,54,55,-1,56,61,57,-1,57,61,62,-1,61,63,62,-1,62,63,64,-1,62,64,65,-1,65,64,66,-1,65,66,67,-1,67,66,68,-1,67,68,69,-1,69,68,70,-1,69,70,71,-1,71,70,72,-1,71,72,73,-1,73,72,74,-1,73,74,75,-1,75,74,76,-1,75,76,77,-1,77,76,78,-1,77,78,79,-1,79,78,80,-1,79,80,81,-1,81,80,82,-1,81,82,83,-1,83,82,84,-1,83,84,85,-1,85,84,86,-1,85,86,87,-1,87,86,88,-1,88,86,89,-1,88,89,90,-1,15,13,91,-1,88,90,92,-1,88,92,93,-1,93,92,94,-1,93,94,91,-1,91,94,95,-1,91,95,15,-1,23,88,21,-1,21,88,93,-1,21,93,19,-1,19,93,91,-1,19,91,17,-1,17,91,13,-1,17,13,12,-1,53,54,51,-1,51,54,59,-1,51,59,49,-1,49,59,57,-1,49,57,47,-1,47,57,62,-1,47,62,45,-1,45,62,65,-1,45,65,43,-1,43,65,67,-1,43,67,41,-1,41,67,69,-1,41,69,39,-1,39,69,71,-1,39,71,37,-1,37,71,73,-1,37,73,35,-1,35,73,75,-1,35,75,33,-1,33,75,77,-1,33,77,31,-1,31,77,79,-1,31,79,29,-1,29,79,81,-1,29,81,27,-1,27,81,83,-1,27,83,25,-1,25,83,85,-1,25,85,23,-1,23,85,87,-1,23,87,88,-1,96,97,98,-1,98,97,99,-1,100,96,101,-1,101,96,98,-1,102,100,103,-1,103,100,101,-1,104,102,105,-1,105,102,103,-1,106,104,107,-1,107,104,105,-1,108,106,109,-1,109,106,107,-1,110,108,111,-1,111,108,109,-1,112,110,113,-1,113,110,111,-1,114,112,115,-1,115,112,113,-1,116,114,117,-1,117,114,115,-1,118,116,119,-1,119,116,117,-1,97,118,99,-1,99,118,119,-1,118,97,96,-1,96,100,118,-1,118,100,102,-1,118,102,116,-1,112,114,110,-1,110,114,116,-1,110,116,108,-1,108,116,102,-1,108,102,106,-1,106,102,104,-1,120,121,122,-1,122,121,123,-1,122,123,124,-1,124,123,125,-1,124,125,126,-1,126,125,127,-1,126,127,128,-1,128,127,129,-1,128,129,130,-1,130,129,131,-1,130,131,132,-1,132,131,133,-1,132,133,134,-1,134,133,135,-1,134,135,136,-1,136,135,137,-1,136,137,138,-1,138,137,139,-1,138,139,140,-1,140,139,141,-1,140,141,142,-1,142,141,143,-1,142,143,144,-1,144,143,145,-1,144,145,146,-1,146,145,147,-1,146,147,148,-1,148,147,149,-1,148,149,150,-1,150,149,151,-1,150,151,152,-1,152,151,153,-1,152,153,154,-1,154,153,120,-1,154,120,122,-1,137,135,155,-1,155,135,156,-1,137,155,157,-1,137,157,139,-1,139,157,158,-1,139,158,141,-1,141,158,159,-1,141,159,143,-1,143,159,160,-1,143,160,145,-1,145,160,161,-1,145,161,147,-1,147,161,162,-1,147,162,149,-1,149,162,163,-1,149,163,151,-1,151,163,164,-1,151,164,153,-1,153,164,165,-1,153,165,120,-1,120,165,166,-1,120,166,121,-1,121,166,167,-1,121,167,123,-1,123,167,168,-1,123,168,125,-1,125,168,169,-1,125,169,127,-1,127,169,170,-1,127,170,129,-1,129,170,171,-1,129,171,131,-1,133,131,172,-1,172,131,171,-1,135,133,156,-1,156,133,172,-1,130,132,173,-1,173,132,174,-1,132,134,174,-1,174,134,175,-1,134,136,175,-1,175,136,176,-1,150,177,178,-1,150,178,148,-1,148,178,179,-1,148,179,146,-1,146,179,180,-1,146,180,144,-1,144,180,181,-1,144,181,142,-1,142,181,182,-1,142,182,140,-1,140,182,183,-1,140,183,138,-1,138,183,176,-1,138,176,136,-1,130,173,184,-1,130,184,128,-1,128,184,185,-1,128,185,126,-1,126,185,186,-1,126,186,124,-1,124,186,187,-1,124,187,122,-1,122,187,188,-1,122,188,154,-1,154,188,189,-1,154,189,152,-1,152,189,177,-1,152,177,150,-1,
        ]
    }
}
Shape{
    appearance Appearance {
        material  Material 	{
            diffuseColor 0.25098039215686274 0.25098039215686274 0.25098039215686274
            specularColor 0.12549019607843137 0.12549019607843137 0.12549019607843137
            ambientIntensity 0.2
            transparency 0
            shininess 0.5
        }
    }
    geometry IndexedFaceSet {
        ccw TRUE
        solid FALSE
        coord DEF co Coordinate {
            point [
                0.6467 0.0701 -0.1997, 0.6467 0.0086 -0.1997, 0.6467 0.0701 -0.2113, 0.6467 0.0086 -0.2109, 0.6467 0.0094 -0.2192, 0.6467 0.0401 -0.242, 0.6467 0.048 -0.2413, 0.6467 0.0542 -0.2395, 0.6467 0.0691 -0.2207, 0.6467 0.0115 -0.2258, 0.6467 0.0147 -0.2312, 0.6467 0.019 -0.2356, 0.6467 0.0245 -0.2389, 0.6467 0.0319 -0.2413, 0.6467 0.0591 -0.2367, 0.6467 0.0631 -0.2329, 0.6467 0.0668 -0.2272, 0.6467 0.0668 -0.2272
            ]
        }
        coordIndex [
            0,1,2,-1,2,1,3,-1,2,3,4,-1,5,6,2,-1,2,6,7,-1,2,7,8,-1,4,9,2,-1,2,9,10,-1,2,10,11,-1,11,12,2,-1,2,12,13,-1,2,13,5,-1,14,15,7,-1,7,15,16,-1,7,16,8,-1,
        ]
    }
}
Shape{
    appearance Appearance {
        material  Material 	{
            diffuseColor 1.0 1.0 1.0
            specularColor 0.8784313725490196 0.8784313725490196 0.8784313725490196
            ambientIntensity 0.2
            transparency 0
            shininess 0.5
        }
    }
    geometry IndexedFaceSet {
        ccw TRUE
        solid FALSE
        coord DEF co Coordinate {
            point [
                0.6507 0.0307 -0.28, 0.6507 0.0221 -0.2773, 0.6507 0.0307 -0.3063, 0.6507 0.0221 -0.3099, 0.6507 0.0636 -0.2917, 0.6507 0.0787 -0.2881, 0.6507 0.0 -0.2583, 0.6507 0.0 -0.2698, 0.6507 0.0663 -0.2925, 0.6507 0.0691 -0.293, 0.6507 0.0787 -0.2986, 0.6507 0.0691 -0.2933, 0.6507 0.0664 -0.2938, 0.6507 0.0636 -0.2945, 0.6507 0.0 -0.3294, 0.6507 0.0 -0.3178, 0.6467 0.0787 -0.2986, 0.6467 0.0 -0.3294, 0.6467 0.0787 -0.2881, 0.6467 0.0 -0.2583, 0.6467 0.0 -0.2698, 0.6467 0.0221 -0.2773, 0.6467 0.0221 -0.3099, 0.6467 0.0 -0.3178, 0.6467 0.0307 -0.28, 0.6467 0.0307 -0.3063, 0.6467 0.0636 -0.2945, 0.6467 0.0691 -0.2933, 0.6467 0.0664 -0.2938, 0.6467 0.0691 -0.293, 0.6467 0.0636 -0.2917, 0.6467 0.0663 -0.2925, 0.6467 0.0663 -0.2925
            ]
        }
        coordIndex [
            0,1,2,-1,2,1,3,-1,4,5,0,-1,0,5,6,-1,0,6,1,-1,1,6,7,-1,4,8,5,-1,5,8,9,-1,5,9,10,-1,10,9,11,-1,10,11,12,-1,12,13,10,-1,10,13,2,-1,10,2,14,-1,14,2,3,-1,14,3,15,-1,10,14,16,-1,16,14,17,-1,5,10,18,-1,18,10,16,-1,6,5,19,-1,19,5,18,-1,7,6,20,-1,20,6,19,-1,1,7,21,-1,21,7,20,-1,3,1,22,-1,22,1,21,-1,15,3,23,-1,23,3,22,-1,14,15,17,-1,17,15,23,-1,0,2,24,-1,24,2,25,-1,2,13,25,-1,25,13,26,-1,11,27,28,-1,11,28,12,-1,12,28,26,-1,12,26,13,-1,11,9,27,-1,27,9,29,-1,4,30,31,-1,4,31,8,-1,8,31,29,-1,8,29,9,-1,4,0,30,-1,30,0,24,-1,
        ]
    }
}
Shape{
    appearance Appearance {
        material  Material 	{
            diffuseColor 0.25098039215686274 0.25098039215686274 0.25098039215686274
            specularColor 0.12549019607843137 0.12549019607843137 0.12549019607843137
            ambientIntensity 0.2
            transparency 0
            shininess 0.5
        }
    }
    geometry IndexedFaceSet {
        ccw TRUE
        solid FALSE
        coord DEF co Coordinate {
            point [
                0.6467 0.0307 -0.28, 0.6467 0.0307 -0.3063, 0.6467 0.0636 -0.2917, 0.6467 0.0636 -0.2945, 0.6467 0.0663 -0.2925, 0.6467 0.0664 -0.2938, 0.6467 0.0691 -0.293, 0.6467 0.0691 -0.2933, 0.6467 0.0691 -0.2933
            ]
        }
        coordIndex [
            0,1,2,-1,2,1,3,-1,2,3,4,-1,4,3,5,-1,4,5,6,-1,6,5,7,-1,
        ]
    }
}
Shape{
    appearance Appearance {
        material  Material 	{
            diffuseColor 0.7529411764705882 0.7529411764705882 0.7529411764705882
            specularColor 0.3764705882352941 0.3764705882352941 0.3764705882352941
            ambientIntensity 0.2
            transparency 0
            shininess 0.5
        }
    }
    geometry IndexedFaceSet {
        ccw TRUE
        solid FALSE
        coord DEF co Coordinate {
            point [
                0.5441 -1.1024 -1.8533, 0.5441 -0.8661 -1.8533, 0.5625 -0.8661 -1.8699, 0.5625 -1.1024 -1.8699, 0.584 -0.8661 -1.8824, 0.584 -1.1024 -1.8824, 0.6075 -0.8661 -1.89, 0.6075 -1.1024 -1.89, 0.6322 -0.8661 -1.8926, 0.6322 -1.1024 -1.8926, 0.5441 0.6693 -1.8533, 0.5441 0.9055 -1.8533, 0.5625 0.9055 -1.8699, 0.5625 0.6693 -1.8699, 0.584 0.9055 -1.8824, 0.584 0.6693 -1.8824, 0.6075 0.9055 -1.89, 0.6075 0.6693 -1.89, 0.6322 0.9055 -1.8926, 0.6322 0.6693 -1.8926, 0.6322 0.6693 -1.8926
            ]
        }
        coordIndex [
            0,1,2,-1,0,2,3,-1,3,2,4,-1,3,4,5,-1,5,4,6,-1,5,6,7,-1,7,6,8,-1,7,8,9,-1,10,11,12,-1,10,12,13,-1,13,12,14,-1,13,14,15,-1,15,14,16,-1,15,16,17,-1,17,16,18,-1,17,18,19,-1,
        ]
    }
}