#VRML V2.0 utf8
# 3D model generated by easyeda2kicad.py (https://github.com/uPesy/easyeda2kicad.py)

Shape{
    appearance Appearance {
        material  Material 	{
            diffuseColor 0.25098039215686274 0.25098039215686274 0.25098039215686274
            specularColor 0.12549019607843137 0.12549019607843137 0.12549019607843137
            ambientIntensity 0.2
            transparency 0
            shininess 0.5
        }
    }
    geometry IndexedFaceSet {
        ccw TRUE
        solid FALSE
        coord DEF co Coordinate {
            point [
                -0.1714 -0.214 0.189, -0.1714 -0.0065 0.189, -0.1725 -0.0065 0.189, -0.1509 -0.2626 0.189, -0.1517 -0.2627 0.189, -0.147 -0.2627 0.189, -0.1654 -0.2142 0.189, -0.164 -0.214 0.189, -0.1606 -0.2329 0.189, -0.1618 -0.233 0.189, -0.1556 -0.233 0.189, -0.2178 -0.2338 0.189, -0.218 -0.233 0.189, -0.2675 -0.233 0.189, -0.2829 -0.2401 0.189, -0.2826 -0.2385 0.189, -0.315 -0.2385 0.189, -0.2067 -0.2288 0.189, -0.2031 -0.2318 0.189, -0.1867 -0.214 0.189, -0.1867 -0.233 0.189, -0.2244 -0.2121 0.189, -0.2215 -0.214 0.189, -0.2185 -0.2161 0.189, -0.2141 -0.2211 0.189, -0.2113 -0.2266 0.189, -0.2106 -0.2268 0.189, -0.2311 -0.2098 0.189, -0.1867 -0.0065 0.189, -0.2365 -0.2092 0.189, -0.2675 -0.0065 0.189, -0.2431 -0.21 0.189, -0.2675 -0.214 0.189, -0.2662 -0.2205 0.189, -0.2614 -0.2199 0.189, -0.2556 -0.217 0.189, -0.2525 -0.2144 0.189, -0.252 -0.214 0.189, -0.2493 -0.2124 0.189, -0.2598 -0.22 0.189, -0.2583 -0.2202 0.189, -0.2756 -0.2253 0.189, -0.2712 -0.2223 0.189, -0.2675 -0.221 0.189, -0.315 -0.233 0.189, -0.2819 -0.2348 0.189, -0.281 -0.233 0.189, -0.315 -0.214 0.189, -0.2797 -0.2301 0.189, -0.2767 -0.2263 0.189, -0.2675 -0.2621 0.189, -0.2688 -0.2617 0.189, -0.315 -0.2627 0.189, -0.2736 -0.2592 0.189, -0.2773 -0.2559 0.189, -0.2777 -0.2555 0.189, -0.2805 -0.2513 0.189, -0.2823 -0.2463 0.189, -0.2829 -0.2415 0.189, -0.2665 -0.2627 0.189, -0.2675 -0.2627 0.189, -0.2654 -0.2652 0.189, -0.2675 -0.2701 0.189, -0.2634 -0.2676 0.189, -0.2608 -0.2696 0.189, -0.2675 -0.315 0.189, -0.2509 -0.271 0.189, -0.2541 -0.2714 0.189, -0.2546 -0.2713 0.189, -0.2577 -0.2709 0.189, -0.2596 -0.2701 0.189, -0.2416 -0.2627 0.189, -0.2416 -0.2627 0.189, -0.1867 -0.2701 0.189, -0.2432 -0.2657 0.189, -0.2453 -0.268 0.189, -0.2479 -0.2698 0.189, -0.2486 -0.2701 0.189, -0.1988 -0.2397 0.189, -0.1981 -0.244 0.189, -0.1867 -0.2385 0.189, -0.2464 -0.2471 0.189, -0.2441 -0.2492 0.189, -0.2263 -0.2399 0.189, -0.2246 -0.2548 0.189, -0.2237 -0.2545 0.189, -0.2222 -0.2469 0.189, -0.2031 -0.2566 0.189, -0.2067 -0.2597 0.189, -0.1867 -0.2627 0.189, -0.2255 -0.2554 0.189, -0.2004 -0.253 0.189, -0.2064 -0.243 0.189, -0.2071 -0.2404 0.189, -0.2081 -0.2385 0.189, -0.2675 -0.2385 0.189, -0.1988 -0.2488 0.189, -0.2666 -0.2534 0.189, -0.2651 -0.2506 0.189, -0.2629 -0.2481 0.189, -0.2602 -0.2462 0.189, -0.2572 -0.245 0.189, -0.2227 -0.2544 0.189, -0.2226 -0.2544 0.189, -0.2222 -0.2544 0.189, -0.2541 -0.2447 0.189, -0.2525 -0.2448 0.189, -0.2492 -0.2455 0.189, -0.2268 -0.2585 0.189, -0.2268 -0.258 0.189, -0.2408 -0.2567 0.189, -0.2266 -0.257 0.189, -0.2261 -0.2561 0.189, -0.2091 -0.2511 0.189, -0.2076 -0.2491 0.189, -0.2067 -0.2467 0.189, -0.2064 -0.2441 0.189, -0.2237 -0.2625 0.189, -0.2246 -0.2621 0.189, -0.2255 -0.2615 0.189, -0.2258 -0.2612 0.189, -0.2264 -0.2604 0.189, -0.2267 -0.2595 0.189, -0.2409 -0.2594 0.189, -0.2408 -0.2581 0.189, -0.2107 -0.2617 0.189, -0.2152 -0.2626 0.189, -0.223 -0.2626 0.189, -0.2219 -0.2545 0.189, -0.2159 -0.2545 0.189, -0.2136 -0.254 0.189, -0.2112 -0.2529 0.189, -0.2093 -0.2513 0.189, -0.2745 -0.2412 0.189, -0.2744 -0.2432 0.189, -0.2734 -0.2465 0.189, -0.2718 -0.2492 0.189, -0.2694 -0.2516 0.189, -0.2675 -0.2528 0.189, -0.2716 -0.233 0.189, -0.273 -0.235 0.189, -0.2741 -0.238 0.189, -0.2742 -0.2385 0.189, -0.2689 -0.2303 0.189, -0.2712 -0.2324 0.189, -0.2235 -0.2223 0.189, -0.224 -0.2219 0.189, -0.2542 -0.2299 0.189, -0.2206 -0.2259 0.189, -0.2552 -0.2294 0.189, -0.2186 -0.2302 0.189, -0.2582 -0.2283 0.189, -0.2612 -0.2279 0.189, -0.2626 -0.228 0.189, -0.2278 -0.2193 0.189, -0.232 -0.2177 0.189, -0.2522 -0.2258 0.189, -0.2364 -0.2172 0.189, -0.2659 -0.2288 0.189, -0.2675 -0.2296 0.189, -0.2412 -0.2178 0.189, -0.2456 -0.2195 0.189, -0.2493 -0.2222 0.189, -0.2167 -0.2338 0.189, -0.2083 -0.2381 0.189, -0.2098 -0.2364 0.189, -0.2119 -0.235 0.189, -0.2142 -0.2341 0.189, -0.2022 -0.233 0.189, -0.2004 -0.2356 0.189, -0.1992 -0.2385 0.189, -0.1124 -0.2278 0.189, -0.1193 -0.2278 0.189, -0.1105 -0.2329 0.189, -0.1193 -0.233 0.189, -0.1079 -0.2329 0.189, 0.315 -0.233 0.189, 0.315 -0.214 0.189, -0.115 -0.2142 0.189, -0.1193 -0.214 0.189, -0.1202 -0.2278 0.189, -0.122 -0.2329 0.189, -0.1252 -0.233 0.189, -0.1247 -0.2329 0.189, -0.1252 -0.214 0.189, -0.1193 -0.2187 0.189, -0.1176 -0.2142 0.189, -0.147 -0.2245 0.189, -0.1521 -0.2245 0.189, -0.147 -0.2308 0.189, -0.1521 -0.2308 0.189, -0.1427 -0.214 0.189, -0.147 -0.214 0.189, -0.1449 -0.2142 0.189, -0.147 -0.2142 0.189, -0.1449 -0.2164 0.189, -0.1445 -0.2308 0.189, -0.1427 -0.233 0.189, -0.1445 -0.2329 0.189, -0.147 -0.233 0.189, -0.1454 -0.2245 0.189, -0.1454 -0.2223 0.189, -0.147 -0.2223 0.189, -0.147 -0.2164 0.189, -0.1521 -0.2164 0.189, -0.1521 -0.2223 0.189, -0.1545 -0.2142 0.189, -0.1556 -0.214 0.189, -0.1545 -0.2329 0.189, -0.1582 -0.2146 0.189, -0.1602 -0.2141 0.189, -0.1607 -0.214 0.189, -0.147 -0.2329 0.189, -0.1582 -0.2172 0.189, -0.1586 -0.2323 0.189, -0.1622 -0.231 0.189, -0.1601 -0.2306 0.189, -0.1582 -0.2298 0.189, -0.1582 -0.2321 0.189, -0.1603 -0.2163 0.189, -0.1626 -0.2161 0.189, -0.1697 -0.2238 0.189, -0.1688 -0.2278 0.189, -0.1679 -0.2291 0.189, -0.1675 -0.2294 0.189, -0.1663 -0.2303 0.189, -0.1649 -0.2308 0.189, -0.1631 -0.2311 0.189, -0.1677 -0.2181 0.189, -0.1688 -0.2196 0.189, -0.1665 -0.2171 0.189, -0.165 -0.2164 0.189, -0.1634 -0.2161 0.189, -0.1694 -0.2212 0.189, -0.1585 -0.2171 0.189, -0.1697 -0.2244 0.189, -0.1694 -0.2263 0.189, -0.1627 -0.2139 0.189, -0.1556 -0.0065 0.189, -0.1627 -0.2139 0.189, -0.1714 -0.2196 0.189, -0.1709 -0.2184 0.189, -0.1695 -0.2166 0.189, -0.1691 -0.2162 0.189, -0.1673 -0.215 0.189, -0.1722 -0.2229 0.189, -0.1718 -0.2205 0.189, -0.1725 -0.214 0.189, -0.1714 -0.2281 0.189, -0.1719 -0.227 0.189, -0.1725 -0.233 0.189, -0.1722 -0.2239 0.189, -0.1666 -0.2327 0.189, -0.1683 -0.2319 0.189, -0.1714 -0.233 0.189, -0.1698 -0.2306 0.189, -0.1711 -0.2289 0.189, -0.165 -0.233 0.189, -0.1714 -0.2385 0.189, -0.1645 -0.2331 0.189, -0.1634 -0.2332 0.189, -0.1556 -0.2385 0.189, -0.1262 -0.2267 0.189, -0.1271 -0.2286 0.189, -0.1324 -0.214 0.189, -0.1324 -0.2147 0.189, -0.1305 -0.2153 0.189, -0.1324 -0.2324 0.189, -0.1324 -0.233 0.189, -0.1305 -0.2317 0.189, -0.1285 -0.2303 0.189, -0.1285 -0.2167 0.189, -0.1279 -0.2173 0.189, -0.1267 -0.2189 0.189, -0.126 -0.2207 0.189, -0.1257 -0.2233 0.189, -0.1258 -0.2245 0.189, -0.1356 -0.2142 0.189, -0.1327 -0.2145 0.189, -0.1326 -0.2325 0.189, -0.1358 -0.2329 0.189, -0.1409 -0.2329 0.189, -0.1409 -0.2142 0.189, -0.1642 -0.2624 0.189, -0.1651 -0.2627 0.189, -0.1622 -0.2625 0.189, -0.1697 -0.2563 0.189, -0.1693 -0.2524 0.189, -0.1702 -0.257 0.189, -0.1705 -0.2579 0.189, -0.1641 -0.2509 0.189, -0.1649 -0.2508 0.189, -0.1661 -0.2546 0.189, -0.1634 -0.2618 0.189, -0.1677 -0.2627 0.189, -0.1686 -0.2623 0.189, -0.1714 -0.2627 0.189, -0.169 -0.2556 0.189, -0.1681 -0.2551 0.189, -0.1676 -0.2514 0.189, -0.1662 -0.2509 0.189, -0.1693 -0.2501 0.189, -0.1688 -0.2498 0.189, -0.1694 -0.2618 0.189, -0.1696 -0.2616 0.189, -0.1701 -0.2609 0.189, -0.1622 -0.2605 0.189, -0.1622 -0.2605 0.189, -0.1626 -0.261 0.189, -0.1704 -0.2601 0.189, -0.1706 -0.259 0.189, -0.156 -0.2549 0.189, -0.1563 -0.2544 0.189, -0.1598 -0.2539 0.189, -0.1566 -0.2537 0.189, -0.1601 -0.252 0.189, -0.1567 -0.2528 0.189, -0.1622 -0.254 0.189, -0.1623 -0.253 0.189, -0.1625 -0.2522 0.189, -0.1628 -0.2517 0.189, -0.167 -0.2492 0.189, -0.1647 -0.2489 0.189, -0.163 -0.249 0.189, -0.1556 -0.2553 0.189, -0.1567 -0.2596 0.189, -0.1556 -0.2553 0.189, -0.1556 -0.2603 0.189, -0.1556 -0.2603 0.189, -0.1621 -0.2494 0.189, -0.1614 -0.2498 0.189, -0.1559 -0.2506 0.189, -0.1631 -0.2513 0.189, -0.1635 -0.251 0.189, -0.1566 -0.2519 0.189, -0.1563 -0.2512 0.189, -0.1605 -0.251 0.189, -0.1609 -0.2502 0.189, -0.1651 -0.2627 0.189, -0.1556 -0.2701 0.189, -0.1714 -0.2701 0.189, -0.1663 -0.2628 0.189, -0.1677 -0.2627 0.189, -0.1567 -0.2621 0.189, -0.1598 -0.2625 0.189, -0.1556 -0.2624 0.189, -0.1556 -0.2627 0.189, -0.155 -0.2626 0.189, -0.1546 -0.2627 0.189, -0.153 -0.2628 0.189, -0.1483 -0.2495 0.189, -0.1483 -0.2517 0.189, -0.1552 -0.2499 0.189, -0.1546 -0.2496 0.189, -0.1556 -0.2503 0.189, -0.1478 -0.2598 0.189, -0.1481 -0.2606 0.189, -0.1485 -0.2612 0.189, -0.1533 -0.2491 0.189, -0.1515 -0.2489 0.189, -0.147 -0.2385 0.189, -0.1498 -0.249 0.189, -0.1484 -0.2567 0.189, -0.148 -0.2573 0.189, -0.1478 -0.258 0.189, -0.1477 -0.2589 0.189, -0.1492 -0.2618 0.189, -0.1497 -0.2621 0.189, -0.1517 -0.2508 0.189, -0.1524 -0.2508 0.189, -0.1542 -0.2526 0.189, -0.153 -0.251 0.189, -0.1535 -0.2513 0.189, -0.1542 -0.2529 0.189, -0.1541 -0.2532 0.189, -0.154 -0.2536 0.189, -0.1537 -0.2538 0.189, -0.1529 -0.2543 0.189, -0.1501 -0.251 0.189, -0.1515 -0.255 0.189, -0.1487 -0.2515 0.189, -0.1506 -0.2553 0.189, -0.149 -0.2562 0.189, -0.1539 -0.2516 0.189, -0.1541 -0.2519 0.189, -0.1542 -0.2522 0.189, -0.1541 -0.2608 0.189, -0.1531 -0.2567 0.189, -0.1545 -0.256 0.189, -0.1528 -0.2609 0.189, -0.1527 -0.2609 0.189, -0.1516 -0.2573 0.189, -0.1515 -0.2608 0.189, -0.1501 -0.2591 0.189, -0.1501 -0.2588 0.189, -0.1509 -0.2606 0.189, -0.1507 -0.2604 0.189, -0.1504 -0.2602 0.189, -0.1502 -0.2599 0.189, -0.1501 -0.2596 0.189, -0.1502 -0.2585 0.189, -0.1504 -0.2582 0.189, -0.1507 -0.2579 0.189, -0.1361 -0.2492 0.189, -0.1336 -0.2492 0.189, -0.1324 -0.2385 0.189, -0.1403 -0.2592 0.189, -0.14 -0.2603 0.189, -0.14 -0.2603 0.189, -0.1427 -0.2385 0.189, -0.1427 -0.2524 0.189, -0.1397 -0.2592 0.189, -0.1399 -0.2598 0.189, -0.1427 -0.2627 0.189, -0.1427 -0.2587 0.189, -0.1464 -0.2492 0.189, -0.1438 -0.2492 0.189, -0.1412 -0.2625 0.189, -0.1413 -0.2627 0.189, -0.1422 -0.2649 0.189, -0.147 -0.2701 0.189, -0.146 -0.2686 0.189, -0.146 -0.2665 0.189, -0.1431 -0.2663 0.189, -0.1427 -0.2658 0.189, -0.1427 -0.2658 0.189, -0.1455 -0.2667 0.189, -0.1446 -0.2668 0.189, -0.1427 -0.2684 0.189, -0.1434 -0.2687 0.189, -0.1427 -0.2701 0.189, -0.1444 -0.2688 0.189, -0.145 -0.2688 0.189, -0.144 -0.2667 0.189, -0.1435 -0.2665 0.189, -0.139 -0.2627 0.189, -0.1397 -0.2645 0.189, -0.1324 -0.2701 0.189, -0.1408 -0.2666 0.189, -0.1417 -0.2677 0.189, -0.1425 -0.2683 0.189, -0.1252 -0.2541 0.189, -0.1287 -0.2541 0.189, -0.1252 -0.2604 0.189, -0.1287 -0.2604 0.189, -0.1215 -0.2438 0.189, -0.1215 -0.246 0.189, -0.1193 -0.2385 0.189, -0.1211 -0.2604 0.189, -0.1193 -0.2627 0.189, -0.1211 -0.2625 0.189, -0.1252 -0.2627 0.189, -0.122 -0.2541 0.189, -0.122 -0.252 0.189, -0.1252 -0.252 0.189, -0.1252 -0.246 0.189, -0.1287 -0.246 0.189, -0.1287 -0.252 0.189, -0.1252 -0.2625 0.189, -0.1311 -0.2625 0.189, -0.1324 -0.2627 0.189, -0.1311 -0.2438 0.189, -0.1252 -0.2438 0.189, -0.1252 -0.2385 0.189, -0.1867 0.315 0.189, -0.1725 0.315 0.189, -0.1714 0.315 0.189, -0.1556 0.315 0.189, -0.147 -0.0065 0.189, -0.147 0.315 0.189, -0.1427 -0.0065 0.189, -0.1427 0.315 0.189, -0.1324 -0.0065 0.189, -0.1324 0.315 0.189, -0.1252 -0.0065 0.189, -0.1252 0.315 0.189, -0.1193 -0.0065 0.189, -0.1193 0.315 0.189, 0.315 -0.0065 0.189, 0.315 0.315 0.189, -0.1905 0.227 0.189, -0.1915 0.219 0.189, -0.248 0.2424 0.189, -0.2431 0.2488 0.189, -0.2675 0.315 0.189, -0.2367 0.2003 0.189, -0.2431 0.2052 0.189, -0.248 0.2116 0.189, -0.2133 0.2568 0.189, -0.2059 0.2537 0.189, -0.1995 0.2488 0.189, -0.1946 0.2424 0.189, -0.1915 0.235 0.189, -0.1946 0.2116 0.189, -0.1995 0.2052 0.189, -0.2059 0.2003 0.189, -0.2133 0.1972 0.189, -0.2213 0.1962 0.189, -0.2293 0.1972 0.189, -0.2367 0.2537 0.189, -0.2293 0.2568 0.189, -0.2213 0.2578 0.189, -0.2511 0.219 0.189, -0.2522 0.227 0.189, -0.2511 0.235 0.189, -0.315 0.315 0.189, -0.315 -0.0065 0.189, -0.173 -0.2308 0.189, -0.173 -0.2329 0.189, -0.1828 -0.2329 0.189, -0.1828 -0.2142 0.189, -0.1804 -0.2142 0.189, -0.1804 -0.2308 0.189, -0.1725 -0.2385 0.189, -0.0986 -0.2625 0.189, -0.1013 -0.2625 0.189, 0.315 -0.2385 0.189, -0.0916 -0.2438 0.189, 0.315 -0.2627 0.189, -0.0845 -0.2625 0.189, -0.0871 -0.2625 0.189, -0.089 -0.2574 0.189, -0.0968 -0.2574 0.189, -0.1028 -0.2563 0.189, -0.1024 -0.2541 0.189, -0.0942 -0.2438 0.189, -0.1023 -0.2529 0.189, -0.1026 -0.2504 0.189, -0.1037 -0.2582 0.189, -0.1051 -0.2599 0.189, -0.1071 -0.2613 0.189, -0.1175 -0.2438 0.189, -0.1175 -0.2625 0.189, -0.1124 -0.2625 0.189, -0.1092 -0.2621 0.189, -0.1051 -0.2463 0.189, -0.1045 -0.2469 0.189, -0.1033 -0.2486 0.189, -0.1122 -0.2438 0.189, -0.1093 -0.2442 0.189, -0.1071 -0.245 0.189, -0.1725 -0.2627 0.189, -0.1828 -0.2625 0.189, -0.1728 -0.2625 0.189, -0.1728 -0.2604 0.189, -0.1732 -0.246 0.189, -0.1828 -0.2438 0.189, -0.1732 -0.2438 0.189, -0.1804 -0.2541 0.189, -0.1804 -0.2604 0.189, -0.1738 -0.2541 0.189, -0.1738 -0.252 0.189, -0.1804 -0.252 0.189, -0.1804 -0.246 0.189, -0.1252 -0.2701 0.189, -0.1193 -0.2701 0.189, 0.315 -0.2701 0.189, -0.1725 -0.2701 0.189, -0.1867 -0.315 0.189, -0.1725 -0.315 0.189, -0.1714 -0.315 0.189, -0.1556 -0.315 0.189, -0.147 -0.315 0.189, -0.1427 -0.315 0.189, -0.1324 -0.315 0.189, -0.1252 -0.315 0.189, -0.1193 -0.315 0.189, 0.315 -0.315 0.189, -0.315 -0.315 0.189, -0.315 -0.2701 0.189, -0.2667 -0.2623 0.189, 0.315 -0.0413 0.0565, 0.315 -0.1555 0.0565, 0.315 -0.0413 0.0421, 0.315 -0.1555 0.0421, 0.315 -0.2382 0.0421, 0.315 -0.2382 0.0565, 0.315 -0.315 0.0259, 0.315 -0.315 0.0, 0.315 -0.2559 0.0, 0.315 0.2382 0.0421, 0.315 0.1555 0.0421, 0.315 0.1083 0.0, 0.315 -0.0492 0.0, 0.315 0.0492 0.0, 0.315 0.0413 0.0421, 0.315 0.0413 0.0565, 0.315 0.1555 0.0565, 0.315 0.2559 0.0, 0.315 0.315 0.0, 0.315 0.2382 0.0565, 0.315 0.315 0.1303, 0.1083 -0.315 0.0, -0.2237 -0.315 0.0716, -0.067 -0.315 0.189, -0.2631 -0.315 0.0716, -0.2631 -0.315 0.0519, -0.315 -0.315 0.0259, -0.2237 -0.315 0.0519, -0.315 -0.315 0.0, -0.2953 -0.315 0.0, -0.067 -0.315 0.0259, -0.145 -0.315 0.0519, -0.145 -0.315 0.0716, -0.1056 -0.315 0.0716, -0.1056 -0.315 0.0519, 0.0284 -0.315 0.0716, -0.0284 -0.315 0.0716, -0.0284 -0.315 0.0519, 0.0284 -0.315 0.0519, 0.2631 -0.315 0.0519, 0.2237 -0.315 0.0519, 0.1056 -0.315 0.0519, 0.145 -0.315 0.0519, 0.145 -0.315 0.0716, 0.2631 -0.315 0.0716, 0.2237 -0.315 0.0716, -0.067 -0.315 0.0, -0.0492 -0.315 0.0, 0.0492 -0.315 0.0, 0.1056 -0.315 0.0716, -0.315 -0.2559 0.0, 0.0492 -0.2559 0.0, 0.0394 0.1575 0.0, 0.0394 0.2559 0.0, 0.0492 0.2559 0.0, -0.1575 0.0394 0.0, -0.2756 0.0394 0.0, -0.2953 0.0492 0.0, -0.067 0.315 0.0, -0.1969 0.2756 0.0, -0.2953 0.315 0.0, -0.2756 0.2756 0.0, -0.2953 0.2559 0.0, -0.2756 0.2559 0.0, -0.2953 0.1083 0.0, -0.2756 0.1575 0.0, -0.1969 0.2362 0.0, -0.1969 0.2559 0.0, -0.1575 0.2362 0.0, -0.0492 0.2559 0.0, -0.1575 0.1575 0.0, -0.0492 0.1083 0.0, 0.0492 -0.0591 0.0, 0.0591 -0.0591 0.0, 0.1083 -0.2559 0.0, 0.1083 -0.0492 0.0, -0.1575 -0.1575 0.0, -0.2756 -0.1575 0.0, -0.2953 -0.0492 0.0, -0.2953 -0.2559 0.0, -0.2756 -0.2362 0.0, -0.1575 -0.2362 0.0, -0.0492 -0.2559 0.0, -0.0492 -0.0591 0.0, -0.2756 -0.0394 0.0, -0.1575 -0.0394 0.0, -0.0591 -0.0591 0.0, -0.0591 -0.0492 0.0, -0.0591 0.0492 0.0, 0.0492 0.0591 0.0, -0.0492 0.0591 0.0, -0.0591 0.0591 0.0, 0.0591 0.0492 0.0, 0.0591 0.0591 0.0, 0.1083 0.1083 0.0, 0.0492 0.1083 0.0, 0.1083 0.0492 0.0, 0.0591 -0.0492 0.0, -0.0492 0.315 0.0, 0.0492 0.315 0.0, 0.0394 0.2756 0.0, -0.0394 0.2756 0.0, -0.0394 0.2559 0.0, -0.0394 0.1575 0.0, 0.0394 -0.1575 0.0, -0.0394 -0.1575 0.0, -0.0394 -0.2559 0.0, -0.0394 -0.2756 0.0, 0.0394 -0.2756 0.0, 0.0394 -0.2559 0.0, 0.1575 -0.1575 0.0, 0.2756 -0.1575 0.0, 0.2756 -0.2362 0.0, 0.1575 -0.2362 0.0, 0.2756 0.0394 0.0, 0.1575 0.0394 0.0, 0.2756 -0.0394 0.0, 0.1575 -0.0394 0.0, 0.1083 0.2559 0.0, 0.2756 0.2362 0.0, 0.2756 0.1575 0.0, 0.1575 0.1575 0.0, 0.1575 0.2362 0.0, 0.1083 0.315 0.0, -0.315 -0.0492 0.0, -0.315 0.0492 0.0, -0.315 0.1083 0.0, -0.315 0.2559 0.0, -0.315 0.315 0.0, -0.315 0.315 0.0
            ]
        }
        coordIndex [
            0,1,2,-1,3,4,5,-1,6,7,0,-1,8,9,10,-1,11,12,13,-1,14,15,16,-1,17,18,19,-1,19,18,20,-1,21,22,19,-1,19,22,23,-1,19,23,24,-1,24,25,19,-1,19,25,26,-1,19,26,17,-1,27,28,29,-1,29,28,30,-1,29,30,31,-1,32,33,34,-1,35,36,32,-1,32,36,37,-1,32,37,30,-1,30,37,38,-1,30,38,31,-1,32,34,35,-1,35,34,39,-1,35,39,40,-1,41,42,32,-1,32,42,43,-1,32,43,33,-1,16,15,44,-1,15,45,44,-1,44,45,46,-1,44,46,47,-1,47,46,48,-1,47,48,49,-1,50,51,52,-1,51,53,52,-1,52,53,54,-1,52,54,55,-1,55,56,52,-1,52,56,57,-1,52,57,16,-1,16,57,58,-1,16,58,14,-1,59,60,61,-1,61,60,62,-1,61,62,63,-1,63,62,64,-1,65,66,67,-1,67,68,65,-1,65,68,69,-1,65,69,62,-1,62,69,70,-1,62,70,64,-1,71,72,73,-1,73,72,74,-1,74,75,73,-1,73,75,76,-1,73,76,77,-1,78,79,80,-1,81,82,83,-1,84,85,86,-1,87,88,89,-1,84,86,90,-1,87,89,91,-1,92,93,83,-1,83,93,94,-1,83,94,95,-1,80,79,89,-1,89,79,96,-1,89,96,91,-1,97,98,95,-1,98,99,95,-1,95,99,100,-1,95,100,101,-1,85,102,86,-1,86,102,103,-1,86,103,104,-1,101,105,95,-1,95,105,106,-1,95,106,83,-1,83,106,107,-1,83,107,81,-1,108,109,110,-1,110,109,111,-1,110,111,86,-1,86,111,112,-1,86,112,90,-1,113,114,86,-1,86,114,115,-1,86,115,83,-1,83,115,116,-1,83,116,92,-1,117,118,71,-1,71,118,119,-1,71,119,120,-1,120,121,71,-1,71,121,122,-1,71,122,123,-1,123,122,108,-1,123,108,124,-1,124,108,110,-1,88,125,89,-1,89,125,126,-1,89,126,71,-1,71,126,127,-1,71,127,117,-1,104,128,86,-1,86,128,129,-1,86,129,130,-1,130,131,86,-1,86,131,132,-1,86,132,113,-1,133,134,95,-1,95,134,135,-1,95,135,136,-1,136,137,95,-1,95,137,138,-1,95,138,97,-1,139,140,95,-1,140,141,95,-1,95,141,142,-1,95,142,133,-1,143,144,13,-1,145,146,147,-1,145,147,148,-1,13,147,149,-1,13,12,147,-1,147,12,150,-1,147,150,148,-1,149,151,13,-1,13,151,152,-1,13,152,153,-1,146,154,147,-1,147,154,155,-1,147,155,156,-1,156,155,157,-1,153,158,13,-1,13,158,159,-1,13,159,143,-1,160,161,157,-1,157,161,162,-1,157,162,156,-1,144,139,13,-1,13,139,95,-1,13,95,11,-1,11,95,94,-1,11,94,163,-1,163,94,164,-1,164,165,163,-1,163,165,166,-1,163,166,167,-1,18,168,20,-1,20,168,169,-1,20,169,80,-1,80,169,170,-1,80,170,78,-1,171,172,173,-1,173,172,174,-1,173,174,175,-1,176,177,178,-1,178,177,179,-1,172,180,174,-1,174,180,181,-1,174,181,182,-1,182,181,183,-1,182,183,184,-1,184,183,185,-1,184,185,179,-1,179,185,186,-1,179,186,178,-1,187,188,189,-1,189,188,190,-1,191,192,193,-1,193,192,194,-1,193,195,191,-1,191,195,196,-1,191,196,197,-1,197,196,198,-1,197,198,199,-1,187,189,200,-1,200,189,196,-1,200,196,201,-1,201,196,195,-1,201,195,202,-1,195,203,202,-1,202,203,204,-1,202,204,205,-1,194,192,206,-1,206,192,207,-1,206,207,208,-1,209,207,210,-1,210,207,211,-1,198,212,199,-1,199,212,208,-1,199,208,10,-1,10,208,207,-1,10,207,213,-1,213,207,209,-1,8,10,214,-1,215,216,213,-1,213,216,217,-1,213,217,10,-1,10,217,218,-1,10,218,214,-1,219,220,221,-1,222,223,213,-1,213,223,224,-1,213,224,225,-1,225,226,213,-1,213,226,227,-1,213,227,215,-1,228,229,230,-1,230,229,231,-1,220,232,221,-1,221,232,231,-1,221,231,233,-1,233,231,229,-1,219,221,234,-1,234,221,235,-1,234,235,213,-1,213,235,236,-1,213,236,222,-1,0,7,1,-1,1,7,237,-1,1,237,238,-1,238,237,239,-1,238,239,211,-1,240,241,0,-1,0,241,242,-1,242,243,0,-1,0,243,244,-1,0,244,6,-1,245,246,247,-1,248,249,250,-1,250,249,251,-1,245,247,251,-1,252,253,254,-1,254,253,255,-1,254,255,256,-1,252,254,257,-1,257,254,258,-1,257,258,259,-1,259,258,260,-1,260,258,261,-1,260,261,9,-1,262,263,182,-1,264,265,184,-1,184,265,266,-1,267,268,269,-1,269,268,182,-1,269,182,270,-1,270,182,263,-1,266,271,184,-1,184,271,272,-1,184,272,273,-1,273,274,184,-1,184,274,275,-1,184,275,182,-1,182,275,276,-1,182,276,262,-1,191,277,264,-1,264,277,278,-1,264,278,265,-1,267,279,268,-1,268,279,280,-1,268,280,197,-1,197,280,281,-1,197,281,191,-1,191,281,282,-1,191,282,277,-1,283,284,285,-1,286,287,288,-1,288,287,289,-1,290,291,292,-1,283,285,293,-1,294,295,296,-1,286,297,287,-1,287,297,298,-1,287,298,299,-1,299,298,292,-1,299,292,300,-1,300,292,291,-1,258,301,302,-1,295,303,296,-1,296,303,304,-1,296,304,305,-1,306,307,285,-1,285,307,308,-1,285,308,293,-1,305,309,296,-1,296,309,310,-1,296,310,258,-1,258,310,289,-1,258,289,301,-1,301,289,287,-1,311,312,313,-1,313,312,314,-1,313,314,315,-1,315,314,316,-1,317,318,292,-1,292,318,319,-1,292,319,320,-1,302,321,258,-1,258,321,322,-1,258,322,323,-1,324,325,326,-1,326,325,327,-1,326,327,328,-1,329,330,331,-1,320,332,292,-1,292,332,333,-1,292,333,290,-1,316,334,315,-1,315,334,335,-1,315,335,336,-1,336,335,331,-1,336,331,337,-1,337,331,330,-1,284,338,339,-1,339,338,340,-1,340,338,341,-1,340,341,342,-1,324,311,325,-1,325,311,313,-1,325,313,343,-1,343,313,344,-1,343,344,345,-1,345,344,346,-1,345,346,347,-1,347,346,348,-1,349,348,339,-1,339,348,346,-1,339,346,284,-1,284,346,344,-1,284,344,285,-1,350,351,5,-1,352,353,261,-1,323,329,258,-1,258,329,331,-1,258,331,261,-1,261,331,354,-1,261,354,352,-1,355,356,5,-1,5,356,357,-1,353,358,261,-1,261,358,359,-1,261,359,360,-1,360,359,361,-1,360,361,350,-1,362,363,351,-1,351,363,364,-1,351,364,5,-1,5,364,365,-1,5,365,355,-1,357,366,5,-1,5,366,367,-1,5,367,3,-1,368,369,370,-1,370,369,371,-1,370,371,372,-1,370,373,368,-1,368,373,374,-1,368,374,375,-1,375,376,368,-1,368,376,377,-1,368,377,378,-1,378,377,379,-1,378,379,380,-1,380,379,381,-1,380,381,351,-1,351,381,382,-1,351,382,362,-1,383,384,372,-1,372,384,385,-1,372,385,370,-1,386,387,328,-1,328,387,388,-1,328,388,326,-1,386,389,387,-1,387,389,390,-1,387,390,391,-1,391,390,392,-1,391,393,394,-1,392,395,391,-1,391,395,396,-1,391,396,397,-1,397,398,391,-1,391,398,399,-1,391,399,393,-1,394,400,391,-1,391,400,401,-1,391,401,402,-1,403,404,405,-1,406,407,408,-1,405,409,403,-1,403,409,410,-1,403,410,411,-1,411,410,406,-1,411,406,412,-1,412,406,408,-1,413,414,5,-1,5,414,415,-1,350,5,360,-1,360,5,415,-1,360,415,409,-1,409,415,416,-1,409,416,410,-1,417,414,418,-1,418,414,413,-1,418,413,419,-1,420,421,422,-1,423,424,413,-1,413,424,425,-1,413,425,419,-1,349,339,4,-1,4,339,420,-1,4,420,5,-1,5,420,422,-1,5,422,413,-1,413,422,426,-1,413,426,427,-1,428,429,430,-1,430,429,431,-1,430,431,420,-1,420,431,432,-1,420,432,421,-1,427,433,413,-1,413,433,434,-1,413,434,423,-1,435,436,437,-1,436,438,437,-1,437,438,439,-1,437,439,430,-1,430,439,440,-1,430,440,428,-1,441,442,443,-1,443,442,444,-1,445,446,447,-1,447,446,448,-1,447,448,449,-1,449,448,450,-1,449,450,451,-1,441,443,452,-1,452,443,448,-1,452,448,453,-1,453,448,446,-1,453,446,454,-1,446,455,454,-1,454,455,456,-1,454,456,457,-1,450,458,451,-1,451,458,459,-1,451,459,460,-1,460,459,461,-1,445,447,462,-1,462,447,463,-1,462,463,461,-1,461,463,405,-1,461,405,460,-1,460,405,404,-1,460,404,435,-1,464,2,465,-1,465,2,1,-1,465,1,466,-1,466,1,238,-1,466,238,467,-1,467,238,468,-1,467,468,469,-1,469,468,470,-1,469,470,471,-1,471,470,472,-1,471,472,473,-1,473,472,474,-1,473,474,475,-1,475,474,476,-1,475,476,477,-1,477,476,478,-1,477,478,479,-1,480,481,28,-1,482,483,484,-1,485,486,30,-1,30,486,487,-1,464,488,489,-1,489,490,464,-1,464,490,491,-1,464,491,492,-1,481,493,28,-1,28,493,494,-1,28,494,495,-1,495,496,28,-1,28,496,497,-1,28,497,30,-1,30,497,498,-1,30,498,485,-1,483,499,484,-1,484,499,500,-1,484,500,464,-1,464,500,501,-1,464,501,488,-1,487,502,30,-1,30,502,503,-1,30,503,484,-1,484,503,504,-1,484,504,482,-1,211,207,238,-1,238,207,192,-1,238,192,468,-1,468,192,191,-1,468,191,470,-1,470,191,264,-1,470,264,472,-1,472,264,184,-1,472,184,474,-1,474,184,179,-1,474,179,476,-1,476,179,177,-1,476,177,478,-1,492,480,464,-1,464,480,28,-1,464,28,2,-1,2,28,247,-1,2,247,0,-1,0,247,246,-1,0,246,240,-1,484,505,30,-1,30,505,506,-1,30,506,32,-1,32,506,47,-1,32,47,41,-1,41,47,49,-1,251,247,250,-1,250,247,507,-1,250,507,508,-1,20,509,19,-1,19,509,510,-1,19,510,511,-1,512,507,511,-1,511,507,247,-1,511,247,19,-1,19,247,28,-1,19,28,21,-1,21,28,27,-1,9,261,10,-1,10,261,360,-1,10,360,199,-1,199,360,409,-1,199,409,197,-1,197,409,405,-1,197,405,268,-1,268,405,463,-1,268,463,182,-1,182,463,447,-1,182,447,174,-1,508,509,250,-1,250,509,20,-1,250,20,513,-1,513,20,80,-1,514,515,449,-1,516,517,518,-1,518,517,519,-1,518,519,449,-1,449,519,520,-1,449,520,514,-1,514,520,521,-1,514,521,522,-1,523,515,524,-1,524,515,525,-1,524,525,526,-1,526,525,527,-1,523,528,515,-1,515,528,529,-1,515,529,530,-1,531,447,532,-1,532,447,449,-1,532,449,533,-1,533,449,515,-1,533,515,534,-1,534,515,530,-1,178,175,176,-1,176,175,174,-1,176,174,516,-1,516,174,447,-1,516,447,517,-1,517,447,525,-1,535,536,525,-1,525,536,537,-1,525,537,527,-1,531,538,447,-1,447,538,539,-1,447,539,525,-1,525,539,540,-1,525,540,535,-1,256,248,254,-1,254,248,250,-1,254,250,258,-1,258,250,513,-1,258,513,296,-1,296,513,541,-1,89,541,542,-1,542,541,543,-1,543,541,544,-1,544,541,513,-1,544,513,545,-1,89,542,80,-1,80,542,546,-1,80,546,513,-1,513,546,547,-1,513,547,545,-1,548,549,550,-1,550,549,544,-1,550,544,551,-1,551,544,545,-1,551,545,552,-1,552,545,553,-1,435,437,460,-1,460,437,554,-1,460,554,451,-1,451,554,555,-1,451,555,449,-1,449,555,556,-1,449,556,518,-1,71,73,89,-1,89,73,557,-1,89,557,541,-1,541,557,340,-1,541,340,296,-1,296,340,342,-1,296,342,294,-1,66,65,77,-1,77,65,558,-1,77,558,73,-1,73,558,559,-1,73,559,557,-1,557,559,560,-1,557,560,340,-1,340,560,561,-1,340,561,339,-1,339,561,562,-1,339,562,420,-1,420,562,563,-1,420,563,430,-1,430,563,564,-1,430,564,437,-1,437,564,565,-1,437,565,554,-1,554,565,566,-1,554,566,555,-1,555,566,567,-1,555,567,556,-1,568,65,569,-1,569,65,62,-1,569,62,52,-1,52,62,60,-1,52,60,50,-1,50,60,59,-1,50,59,570,-1,571,572,573,-1,573,572,574,-1,575,576,567,-1,567,576,572,-1,567,572,479,-1,479,572,571,-1,567,577,575,-1,575,577,578,-1,575,578,574,-1,574,578,579,-1,574,579,573,-1,580,581,582,-1,579,583,573,-1,573,583,584,-1,573,584,585,-1,585,584,582,-1,585,582,586,-1,586,582,581,-1,586,581,587,-1,582,588,580,-1,580,588,589,-1,580,589,590,-1,590,589,591,-1,590,591,587,-1,587,591,479,-1,587,479,586,-1,586,479,571,-1,592,578,577,-1,593,594,595,-1,595,594,568,-1,595,568,596,-1,596,568,597,-1,596,597,598,-1,599,600,597,-1,597,600,601,-1,597,601,598,-1,598,601,602,-1,598,602,593,-1,593,602,603,-1,593,603,594,-1,594,603,604,-1,594,604,601,-1,601,604,605,-1,601,605,602,-1,606,567,607,-1,607,567,594,-1,607,594,608,-1,608,594,601,-1,608,601,609,-1,577,610,611,-1,612,577,613,-1,613,577,611,-1,613,611,614,-1,610,577,615,-1,615,577,567,-1,615,567,616,-1,600,617,601,-1,601,617,618,-1,601,618,619,-1,619,592,601,-1,601,592,577,-1,601,577,609,-1,609,577,612,-1,609,612,606,-1,606,612,620,-1,606,620,567,-1,567,620,614,-1,567,614,616,-1,616,614,611,-1,600,599,621,-1,592,619,622,-1,623,624,625,-1,626,627,628,-1,629,630,631,-1,631,630,632,-1,631,632,633,-1,633,632,634,-1,633,634,635,-1,635,634,636,-1,637,638,639,-1,639,638,640,-1,639,640,641,-1,641,640,642,-1,643,644,645,-1,645,644,646,-1,647,648,649,-1,649,648,650,-1,648,651,650,-1,650,651,652,-1,650,652,653,-1,653,652,647,-1,653,647,654,-1,628,627,649,-1,649,627,655,-1,649,655,656,-1,654,647,657,-1,657,647,649,-1,657,649,658,-1,658,649,656,-1,658,656,659,-1,660,661,642,-1,642,661,662,-1,656,626,659,-1,659,626,628,-1,659,628,662,-1,662,628,635,-1,662,635,642,-1,642,635,636,-1,642,636,641,-1,663,664,665,-1,665,664,666,-1,665,667,663,-1,663,667,646,-1,663,646,668,-1,668,646,644,-1,669,670,671,-1,671,672,669,-1,669,672,640,-1,669,640,629,-1,629,640,638,-1,629,638,630,-1,672,673,640,-1,640,673,674,-1,640,674,642,-1,642,674,666,-1,642,666,660,-1,660,666,664,-1,645,579,578,-1,578,592,645,-1,645,592,622,-1,645,622,643,-1,643,622,675,-1,643,675,654,-1,654,675,676,-1,654,676,653,-1,653,676,677,-1,653,677,678,-1,600,650,617,-1,617,650,653,-1,617,653,618,-1,618,653,678,-1,618,678,619,-1,619,678,679,-1,619,679,622,-1,622,679,680,-1,622,680,675,-1,681,646,682,-1,682,646,583,-1,682,583,683,-1,683,583,579,-1,683,579,684,-1,684,579,645,-1,684,645,681,-1,681,645,646,-1,584,685,686,-1,685,584,687,-1,687,584,583,-1,687,583,688,-1,688,583,646,-1,688,646,686,-1,686,646,667,-1,686,667,584,-1,584,667,665,-1,584,665,582,-1,689,588,690,-1,690,588,691,-1,691,588,582,-1,691,582,692,-1,692,582,665,-1,692,665,693,-1,674,623,666,-1,666,623,625,-1,666,625,665,-1,665,625,689,-1,665,689,693,-1,693,689,690,-1,624,671,625,-1,625,671,670,-1,625,670,689,-1,689,670,694,-1,689,694,588,-1,588,694,589,-1,600,621,650,-1,650,621,695,-1,650,695,649,-1,649,695,696,-1,649,696,628,-1,628,696,697,-1,628,697,635,-1,635,697,698,-1,635,698,633,-1,633,698,699,-1,633,699,631,-1,
        ]
    }
}
Shape{
    appearance Appearance {
        material  Material 	{
            diffuseColor 0.7529411764705882 0.7529411764705882 0.7529411764705882
            specularColor 0.3764705882352941 0.3764705882352941 0.3764705882352941
            ambientIntensity 0.2
            transparency 0
            shininess 0.5
        }
    }
    geometry IndexedFaceSet {
        ccw TRUE
        solid FALSE
        coord DEF co Coordinate {
            point [
                -0.1575 0.2362 0.0, -0.1575 0.2362 -0.0079, -0.1969 0.2362 0.0, -0.1969 0.2362 -0.0079, -0.1969 0.2362 -0.0079
            ]
        }
        coordIndex [
            0,1,2,-1,2,1,3,-1,
        ]
    }
}
Shape{
    appearance Appearance {
        material  Material 	{
            diffuseColor 0.25098039215686274 0.25098039215686274 0.25098039215686274
            specularColor 0.12549019607843137 0.12549019607843137 0.12549019607843137
            ambientIntensity 0.2
            transparency 0
            shininess 0.5
        }
    }
    geometry IndexedFaceSet {
        ccw TRUE
        solid FALSE
        coord DEF co Coordinate {
            point [
                -0.2237 0.315 0.0519, -0.2953 0.315 0.0, -0.2631 0.315 0.0519, -0.315 0.315 0.0, -0.2631 0.315 0.0716, -0.315 0.315 0.1303, -0.2237 0.315 0.0716, -0.145 0.315 0.0519, -0.1056 0.315 0.0519, -0.067 0.315 0.0, -0.067 0.315 0.1303, -0.1056 0.315 0.0716, -0.145 0.315 0.0716, -0.315 0.315 0.189, -0.067 0.315 0.189, 0.145 0.315 0.0519, 0.315 0.315 0.0, 0.1083 0.315 0.0, 0.0284 0.315 0.0519, -0.0492 0.315 0.0, -0.0284 0.315 0.0519, -0.0284 0.315 0.0716, 0.0284 0.315 0.0716, 0.1056 0.315 0.0519, 0.0492 0.315 0.0, 0.1056 0.315 0.0716, 0.315 0.315 0.1303, 0.145 0.315 0.0716, 0.2237 0.315 0.0716, 0.2237 0.315 0.0519, 0.2631 0.315 0.0519, 0.2631 0.315 0.0716, 0.315 0.315 0.189, -0.315 0.2382 0.0421, -0.315 0.2382 0.0565, -0.315 -0.1555 0.0565, -0.315 -0.315 0.189, -0.315 -0.2382 0.0565, -0.315 -0.315 0.0259, -0.315 -0.2382 0.0421, -0.315 -0.0492 0.0, -0.315 -0.2559 0.0, -0.315 -0.315 0.0, -0.315 0.0413 0.0565, -0.315 -0.0413 0.0565, -0.315 -0.0413 0.0421, -0.315 -0.1555 0.0421, -0.315 0.1555 0.0565, -0.315 0.1555 0.0421, -0.315 0.0413 0.0421, -0.315 0.0492 0.0, -0.315 0.1083 0.0, -0.315 0.2559 0.0, -0.315 0.2559 0.0
            ]
        }
        coordIndex [
            0,1,2,-1,2,1,3,-1,2,3,4,-1,4,3,5,-1,4,5,6,-1,7,8,9,-1,9,8,10,-1,10,8,11,-1,10,11,12,-1,13,14,5,-1,5,14,10,-1,5,10,6,-1,6,10,12,-1,6,12,0,-1,0,12,7,-1,0,7,1,-1,1,7,9,-1,15,16,17,-1,18,19,20,-1,20,19,9,-1,20,9,21,-1,21,9,10,-1,21,10,22,-1,15,17,23,-1,23,17,24,-1,23,24,25,-1,25,26,27,-1,27,26,28,-1,27,28,15,-1,15,28,29,-1,15,29,16,-1,16,29,30,-1,16,30,26,-1,26,30,31,-1,26,31,28,-1,14,32,10,-1,10,32,26,-1,10,26,22,-1,22,26,25,-1,22,25,18,-1,18,25,24,-1,18,24,19,-1,33,34,5,-1,13,35,36,-1,36,35,37,-1,36,37,38,-1,38,37,39,-1,40,41,39,-1,39,41,42,-1,39,42,38,-1,13,43,44,-1,13,44,35,-1,35,44,45,-1,35,45,46,-1,5,34,13,-1,13,34,47,-1,13,47,43,-1,43,47,48,-1,43,48,49,-1,39,46,40,-1,40,46,45,-1,40,45,50,-1,50,45,49,-1,50,49,51,-1,51,49,48,-1,51,48,52,-1,52,48,33,-1,52,33,3,-1,3,33,5,-1,
        ]
    }
}
Shape{
    appearance Appearance {
        material  Material 	{
            diffuseColor 1.0 1.0 1.0
            specularColor 0.5019607843137255 0.5019607843137255 0.5019607843137255
            ambientIntensity 0.2
            transparency 0
            shininess 0.5
        }
    }
    geometry IndexedFaceSet {
        ccw TRUE
        solid FALSE
        coord DEF co Coordinate {
            point [
                -0.1905 0.227 0.185, -0.1905 0.227 0.189, -0.1915 0.235 0.185, -0.1915 0.235 0.189, -0.1946 0.2424 0.185, -0.1946 0.2424 0.189, -0.1995 0.2488 0.185, -0.1995 0.2488 0.189, -0.2059 0.2537 0.185, -0.2059 0.2537 0.189, -0.2133 0.2568 0.185, -0.2133 0.2568 0.189, -0.2213 0.2578 0.185, -0.2213 0.2578 0.189, -0.2293 0.2568 0.185, -0.2293 0.2568 0.189, -0.2367 0.2537 0.185, -0.2367 0.2537 0.189, -0.2431 0.2488 0.185, -0.2431 0.2488 0.189, -0.248 0.2424 0.185, -0.248 0.2424 0.189, -0.2511 0.235 0.185, -0.2511 0.235 0.189, -0.2522 0.227 0.185, -0.2522 0.227 0.189, -0.2511 0.219 0.185, -0.2511 0.219 0.189, -0.248 0.2116 0.185, -0.248 0.2116 0.189, -0.2431 0.2052 0.185, -0.2431 0.2052 0.189, -0.2367 0.2003 0.185, -0.2367 0.2003 0.189, -0.2293 0.1972 0.185, -0.2293 0.1972 0.189, -0.2213 0.1962 0.185, -0.2213 0.1962 0.189, -0.2133 0.1972 0.185, -0.2133 0.1972 0.189, -0.2059 0.2003 0.185, -0.2059 0.2003 0.189, -0.1995 0.2052 0.185, -0.1995 0.2052 0.189, -0.1946 0.2116 0.185, -0.1946 0.2116 0.189, -0.1915 0.219 0.185, -0.1915 0.219 0.189, -0.2213 0.227 0.185, -0.2213 0.227 0.185
            ]
        }
        coordIndex [
            0,1,2,-1,2,1,3,-1,2,3,4,-1,4,3,5,-1,4,5,6,-1,6,5,7,-1,6,7,8,-1,8,7,9,-1,8,9,10,-1,10,9,11,-1,10,11,12,-1,12,11,13,-1,12,13,14,-1,14,13,15,-1,14,15,16,-1,16,15,17,-1,16,17,18,-1,18,17,19,-1,18,19,20,-1,20,19,21,-1,20,21,22,-1,22,21,23,-1,22,23,24,-1,24,23,25,-1,24,25,26,-1,26,25,27,-1,26,27,28,-1,28,27,29,-1,28,29,30,-1,30,29,31,-1,30,31,32,-1,32,31,33,-1,32,33,34,-1,34,33,35,-1,34,35,36,-1,36,35,37,-1,36,37,38,-1,38,37,39,-1,38,39,40,-1,40,39,41,-1,40,41,42,-1,42,41,43,-1,42,43,44,-1,44,43,45,-1,44,45,46,-1,46,45,47,-1,46,47,0,-1,0,47,1,-1,44,46,48,-1,48,46,0,-1,48,0,2,-1,38,40,48,-1,48,40,42,-1,48,42,44,-1,32,34,48,-1,48,34,36,-1,48,36,38,-1,26,28,48,-1,48,28,30,-1,48,30,32,-1,20,22,48,-1,48,22,24,-1,48,24,26,-1,14,16,48,-1,48,16,18,-1,48,18,20,-1,8,10,48,-1,48,10,12,-1,48,12,14,-1,2,4,48,-1,48,4,6,-1,48,6,8,-1,
        ]
    }
}
Shape{
    appearance Appearance {
        material  Material 	{
            diffuseColor 0.7529411764705882 0.7529411764705882 0.7529411764705882
            specularColor 0.3764705882352941 0.3764705882352941 0.3764705882352941
            ambientIntensity 0.2
            transparency 0
            shininess 0.5
        }
    }
    geometry IndexedFaceSet {
        ccw TRUE
        solid FALSE
        coord DEF co Coordinate {
            point [
                -0.1575 -0.2362 -0.0079, -0.1575 -0.1575 -0.0079, -0.1575 -0.2362 0.0, -0.1575 -0.1575 0.0, -0.2756 -0.2362 -0.0079, -0.2756 -0.2362 0.0, -0.2756 -0.1575 -0.0079, -0.2756 -0.1575 0.0, 0.1575 -0.2362 -0.0079, 0.2756 -0.2362 -0.0079, 0.1575 -0.2362 0.0, 0.2756 -0.2362 0.0, 0.1575 -0.1575 -0.0079, 0.1575 -0.1575 0.0, 0.2756 -0.1575 -0.0079, 0.2756 -0.1575 0.0, 0.2756 -0.0394 -0.0079, 0.2756 0.0394 -0.0079, 0.2756 -0.0394 0.0, 0.2756 0.0394 0.0, 0.1575 -0.0394 -0.0079, 0.1575 -0.0394 0.0, 0.1575 0.0394 -0.0079, 0.1575 0.0394 0.0, -0.1575 0.0394 -0.0079, -0.2756 0.0394 -0.0079, -0.1575 0.0394 0.0, -0.2756 0.0394 0.0, -0.1575 -0.0394 -0.0079, -0.1575 -0.0394 0.0, -0.2756 -0.0394 -0.0079, -0.2756 -0.0394 0.0, -0.1575 0.1575 -0.0079, -0.1575 0.2362 -0.0079, -0.1575 0.1575 0.0, -0.1575 0.2362 0.0, -0.2756 0.1575 -0.0079, -0.2756 0.1575 0.0, -0.2756 0.2756 -0.0079, -0.2756 0.2559 0.0, -0.2756 0.2756 0.0, -0.1969 0.2362 -0.0079, -0.1969 0.2756 -0.0079, 0.2756 0.1575 -0.0079, 0.2756 0.2362 -0.0079, 0.2756 0.1575 0.0, 0.2756 0.2362 0.0, 0.1575 0.1575 -0.0079, 0.1575 0.1575 0.0, 0.1575 0.2362 -0.0079, 0.1575 0.2362 0.0, 0.0591 0.0591 -0.0079, 0.0591 0.0591 0.0, 0.0591 0.0492 0.0, 0.0591 -0.0591 -0.0079, 0.0591 -0.0492 0.0, 0.0591 -0.0591 0.0, 0.0492 -0.0591 0.0, -0.0591 -0.0591 -0.0079, -0.0492 -0.0591 0.0, -0.0591 -0.0591 0.0, -0.0591 -0.0492 0.0, -0.0591 0.0591 -0.0079, -0.0591 0.0492 0.0, -0.0591 0.0591 0.0, -0.0492 0.0591 0.0, 0.0492 0.0591 0.0, 0.0394 -0.1575 -0.0079, 0.0394 -0.1575 0.0, 0.0394 -0.2756 -0.0079, 0.0394 -0.2559 0.0, 0.0394 -0.2756 0.0, -0.0394 -0.2756 -0.0079, -0.0394 -0.2756 0.0, -0.0394 -0.1575 0.0, -0.0394 -0.1575 -0.0079, -0.0394 -0.2559 0.0, -0.0394 0.1575 -0.0079, -0.0394 0.1575 0.0, -0.0394 0.2756 -0.0079, -0.0394 0.2559 0.0, -0.0394 0.2756 0.0, 0.0394 0.2756 -0.0079, 0.0394 0.2756 0.0, 0.0394 0.1575 0.0, 0.0394 0.1575 -0.0079, 0.0394 0.2559 0.0, -0.1969 0.2756 0.0, -0.1969 0.2362 0.0, -0.1969 0.2559 0.0, -0.2237 -0.3189 0.0716, -0.2237 -0.3189 0.0519, -0.2237 -0.315 0.0716, -0.2237 -0.315 0.0519, -0.2631 -0.3189 0.0716, -0.2631 -0.315 0.0716, -0.2631 -0.3189 0.0519, -0.2631 -0.315 0.0519, -0.1056 -0.3189 0.0519, -0.145 -0.3189 0.0519, -0.1056 -0.315 0.0519, -0.145 -0.315 0.0519, -0.1056 -0.3189 0.0716, -0.1056 -0.315 0.0716, -0.145 -0.3189 0.0716, -0.145 -0.315 0.0716, 0.145 -0.3189 0.0716, 0.145 -0.3189 0.0519, 0.145 -0.315 0.0716, 0.145 -0.315 0.0519, 0.1056 -0.3189 0.0716, 0.1056 -0.315 0.0716, 0.1056 -0.3189 0.0519, 0.1056 -0.315 0.0519, 0.2237 -0.3189 0.0716, 0.2631 -0.3189 0.0716, 0.2237 -0.315 0.0716, 0.2631 -0.315 0.0716, 0.2237 -0.3189 0.0519, 0.2237 -0.315 0.0519, 0.2631 -0.3189 0.0519, 0.2631 -0.315 0.0519, 0.0284 -0.3189 0.0716, 0.0284 -0.3189 0.0519, 0.0284 -0.315 0.0716, 0.0284 -0.315 0.0519, -0.0284 -0.3189 0.0716, -0.0284 -0.315 0.0716, -0.0284 -0.3189 0.0519, -0.0284 -0.315 0.0519, -0.2237 0.3189 0.0519, -0.2237 0.3189 0.0716, -0.2237 0.315 0.0519, -0.2237 0.315 0.0716, -0.2631 0.3189 0.0519, -0.2631 0.315 0.0519, -0.2631 0.3189 0.0716, -0.2631 0.315 0.0716, -0.145 0.3189 0.0519, -0.1056 0.3189 0.0519, -0.145 0.315 0.0519, -0.1056 0.315 0.0519, -0.145 0.3189 0.0716, -0.145 0.315 0.0716, -0.1056 0.3189 0.0716, -0.1056 0.315 0.0716, 0.145 0.3189 0.0519, 0.145 0.3189 0.0716, 0.145 0.315 0.0519, 0.145 0.315 0.0716, 0.1056 0.3189 0.0519, 0.1056 0.315 0.0519, 0.1056 0.3189 0.0716, 0.1056 0.315 0.0716, 0.2631 0.3189 0.0716, 0.2237 0.3189 0.0716, 0.2631 0.315 0.0716, 0.2237 0.315 0.0716, 0.2631 0.3189 0.0519, 0.2631 0.315 0.0519, 0.2237 0.3189 0.0519, 0.2237 0.315 0.0519, 0.0284 0.3189 0.0519, 0.0284 0.3189 0.0716, 0.0284 0.315 0.0519, 0.0284 0.315 0.0716, -0.0284 0.3189 0.0519, -0.0284 0.315 0.0519, -0.0284 0.3189 0.0716, -0.0284 0.315 0.0716, 0.3189 -0.1555 0.0421, 0.3189 -0.2382 0.0421, 0.315 -0.1555 0.0421, 0.315 -0.2382 0.0421, 0.3189 -0.1555 0.0565, 0.315 -0.1555 0.0565, 0.3189 -0.2382 0.0565, 0.315 -0.2382 0.0565, 0.3189 0.2382 0.0565, 0.3189 0.2382 0.0421, 0.315 0.2382 0.0565, 0.315 0.2382 0.0421, 0.3189 0.1555 0.0565, 0.315 0.1555 0.0565, 0.3189 0.1555 0.0421, 0.315 0.1555 0.0421, 0.3189 0.0413 0.0565, 0.3189 0.0413 0.0421, 0.315 0.0413 0.0565, 0.315 0.0413 0.0421, 0.3189 -0.0413 0.0565, 0.315 -0.0413 0.0565, 0.3189 -0.0413 0.0421, 0.315 -0.0413 0.0421, -0.3189 -0.2382 0.0421, -0.3189 -0.1555 0.0421, -0.315 -0.2382 0.0421, -0.315 -0.1555 0.0421, -0.3189 -0.2382 0.0565, -0.315 -0.2382 0.0565, -0.3189 -0.1555 0.0565, -0.315 -0.1555 0.0565, -0.3189 0.2382 0.0421, -0.3189 0.2382 0.0565, -0.315 0.2382 0.0421, -0.315 0.2382 0.0565, -0.3189 0.1555 0.0421, -0.315 0.1555 0.0421, -0.3189 0.1555 0.0565, -0.315 0.1555 0.0565, -0.3189 0.0413 0.0421, -0.3189 0.0413 0.0565, -0.315 0.0413 0.0421, -0.315 0.0413 0.0565, -0.3189 -0.0413 0.0421, -0.315 -0.0413 0.0421, -0.3189 -0.0413 0.0565, -0.315 -0.0413 0.0565, -0.315 -0.0413 0.0565
            ]
        }
        coordIndex [
            0,1,2,-1,2,1,3,-1,4,0,5,-1,5,0,2,-1,6,4,7,-1,7,4,5,-1,1,6,3,-1,3,6,7,-1,4,6,0,-1,0,6,1,-1,8,9,10,-1,10,9,11,-1,12,8,13,-1,13,8,10,-1,14,12,15,-1,15,12,13,-1,9,14,11,-1,11,14,15,-1,12,14,8,-1,8,14,9,-1,16,17,18,-1,18,17,19,-1,20,16,21,-1,21,16,18,-1,22,20,23,-1,23,20,21,-1,17,22,19,-1,19,22,23,-1,20,22,16,-1,16,22,17,-1,24,25,26,-1,26,25,27,-1,28,24,29,-1,29,24,26,-1,30,28,31,-1,31,28,29,-1,25,30,27,-1,27,30,31,-1,28,30,24,-1,24,30,25,-1,32,33,34,-1,34,33,35,-1,36,32,37,-1,37,32,34,-1,36,37,38,-1,38,37,39,-1,38,39,40,-1,33,32,41,-1,41,32,36,-1,41,36,42,-1,42,36,38,-1,43,44,45,-1,45,44,46,-1,47,43,48,-1,48,43,45,-1,49,47,50,-1,50,47,48,-1,44,49,46,-1,46,49,50,-1,47,49,43,-1,43,49,44,-1,51,52,53,-1,51,53,54,-1,54,53,55,-1,54,55,56,-1,54,56,57,-1,54,57,58,-1,58,57,59,-1,58,59,60,-1,58,60,61,-1,58,61,62,-1,62,61,63,-1,62,63,64,-1,62,64,65,-1,62,65,51,-1,51,65,66,-1,51,66,52,-1,58,62,54,-1,54,62,51,-1,67,68,69,-1,69,68,70,-1,69,70,71,-1,72,69,73,-1,73,69,71,-1,74,75,76,-1,76,75,72,-1,76,72,73,-1,67,75,68,-1,68,75,74,-1,72,75,69,-1,69,75,67,-1,77,78,79,-1,79,78,80,-1,79,80,81,-1,82,79,83,-1,83,79,81,-1,84,85,86,-1,86,85,82,-1,86,82,83,-1,77,85,78,-1,78,85,84,-1,82,85,79,-1,79,85,77,-1,42,38,87,-1,87,38,40,-1,88,41,89,-1,89,41,42,-1,89,42,87,-1,90,91,92,-1,92,91,93,-1,94,90,95,-1,95,90,92,-1,96,94,97,-1,97,94,95,-1,91,96,93,-1,93,96,97,-1,94,96,90,-1,90,96,91,-1,98,99,100,-1,100,99,101,-1,102,98,103,-1,103,98,100,-1,104,102,105,-1,105,102,103,-1,99,104,101,-1,101,104,105,-1,102,104,98,-1,98,104,99,-1,106,107,108,-1,108,107,109,-1,110,106,111,-1,111,106,108,-1,112,110,113,-1,113,110,111,-1,107,112,109,-1,109,112,113,-1,110,112,106,-1,106,112,107,-1,114,115,116,-1,116,115,117,-1,118,114,119,-1,119,114,116,-1,120,118,121,-1,121,118,119,-1,115,120,117,-1,117,120,121,-1,118,120,114,-1,114,120,115,-1,122,123,124,-1,124,123,125,-1,126,122,127,-1,127,122,124,-1,128,126,129,-1,129,126,127,-1,123,128,125,-1,125,128,129,-1,126,128,122,-1,122,128,123,-1,130,131,132,-1,132,131,133,-1,134,130,135,-1,135,130,132,-1,136,134,137,-1,137,134,135,-1,131,136,133,-1,133,136,137,-1,134,136,130,-1,130,136,131,-1,138,139,140,-1,140,139,141,-1,142,138,143,-1,143,138,140,-1,144,142,145,-1,145,142,143,-1,139,144,141,-1,141,144,145,-1,142,144,138,-1,138,144,139,-1,146,147,148,-1,148,147,149,-1,150,146,151,-1,151,146,148,-1,152,150,153,-1,153,150,151,-1,147,152,149,-1,149,152,153,-1,150,152,146,-1,146,152,147,-1,154,155,156,-1,156,155,157,-1,158,154,159,-1,159,154,156,-1,160,158,161,-1,161,158,159,-1,155,160,157,-1,157,160,161,-1,158,160,154,-1,154,160,155,-1,162,163,164,-1,164,163,165,-1,166,162,167,-1,167,162,164,-1,168,166,169,-1,169,166,167,-1,163,168,165,-1,165,168,169,-1,166,168,162,-1,162,168,163,-1,170,171,172,-1,172,171,173,-1,174,170,175,-1,175,170,172,-1,176,174,177,-1,177,174,175,-1,171,176,173,-1,173,176,177,-1,174,176,170,-1,170,176,171,-1,178,179,180,-1,180,179,181,-1,182,178,183,-1,183,178,180,-1,184,182,185,-1,185,182,183,-1,179,184,181,-1,181,184,185,-1,182,184,178,-1,178,184,179,-1,186,187,188,-1,188,187,189,-1,190,186,191,-1,191,186,188,-1,192,190,193,-1,193,190,191,-1,187,192,189,-1,189,192,193,-1,190,192,186,-1,186,192,187,-1,194,195,196,-1,196,195,197,-1,198,194,199,-1,199,194,196,-1,200,198,201,-1,201,198,199,-1,195,200,197,-1,197,200,201,-1,198,200,194,-1,194,200,195,-1,202,203,204,-1,204,203,205,-1,206,202,207,-1,207,202,204,-1,208,206,209,-1,209,206,207,-1,203,208,205,-1,205,208,209,-1,206,208,202,-1,202,208,203,-1,210,211,212,-1,212,211,213,-1,214,210,215,-1,215,210,212,-1,216,214,217,-1,217,214,215,-1,211,216,213,-1,213,216,217,-1,214,216,210,-1,210,216,211,-1,
        ]
    }
}
Shape{
    appearance Appearance {
        material  Material 	{
            diffuseColor 1.0 1.0 1.0
            specularColor 0.5019607843137255 0.5019607843137255 0.5019607843137255
            ambientIntensity 0.2
            transparency 0
            shininess 0.5
        }
    }
    geometry IndexedFaceSet {
        ccw TRUE
        solid FALSE
        coord DEF co Coordinate {
            point [
                -0.173 -0.2308 0.1929, -0.173 -0.2329 0.1929, -0.173 -0.2308 0.189, -0.173 -0.2329 0.189, -0.1804 -0.2308 0.1929, -0.1804 -0.2308 0.189, -0.1804 -0.2142 0.1929, -0.1804 -0.2142 0.189, -0.1828 -0.2142 0.1929, -0.1828 -0.2142 0.189, -0.1828 -0.2329 0.1929, -0.1828 -0.2329 0.189, -0.1634 -0.2332 0.189, -0.1618 -0.233 0.189, -0.1634 -0.2332 0.1929, -0.1606 -0.2329 0.1929, -0.1606 -0.2329 0.189, -0.1586 -0.2323 0.189, -0.1586 -0.2323 0.1929, -0.1582 -0.2321 0.189, -0.1582 -0.2321 0.1929, -0.1582 -0.2298 0.1929, -0.1582 -0.2298 0.189, -0.1601 -0.2306 0.189, -0.1601 -0.2306 0.1929, -0.1622 -0.231 0.189, -0.1622 -0.231 0.1929, -0.1631 -0.2311 0.189, -0.1631 -0.2311 0.1929, -0.1649 -0.2308 0.189, -0.1649 -0.2308 0.1929, -0.1663 -0.2303 0.189, -0.1663 -0.2303 0.1929, -0.1675 -0.2294 0.189, -0.1675 -0.2294 0.1929, -0.1679 -0.2291 0.189, -0.1679 -0.2291 0.1929, -0.1688 -0.2278 0.189, -0.1688 -0.2278 0.1929, -0.1694 -0.2263 0.189, -0.1694 -0.2263 0.1929, -0.1697 -0.2244 0.189, -0.1697 -0.2244 0.1929, -0.1697 -0.2238 0.189, -0.1697 -0.2238 0.1929, -0.1694 -0.2212 0.189, -0.1694 -0.2212 0.1929, -0.1688 -0.2196 0.189, -0.1688 -0.2196 0.1929, -0.1677 -0.2181 0.189, -0.1677 -0.2181 0.1929, -0.1665 -0.2171 0.189, -0.1665 -0.2171 0.1929, -0.165 -0.2164 0.189, -0.165 -0.2164 0.1929, -0.1634 -0.2161 0.189, -0.1634 -0.2161 0.1929, -0.1626 -0.2161 0.189, -0.1626 -0.2161 0.1929, -0.1603 -0.2163 0.189, -0.1603 -0.2163 0.1929, -0.1585 -0.2171 0.189, -0.1585 -0.2171 0.1929, -0.1582 -0.2172 0.189, -0.1582 -0.2172 0.1929, -0.1582 -0.2146 0.1929, -0.1582 -0.2146 0.189, -0.1627 -0.2139 0.189, -0.1627 -0.2139 0.1929, -0.1627 -0.2139 0.1929, -0.1602 -0.2141 0.189, -0.1602 -0.2141 0.1929, -0.1607 -0.214 0.189, -0.1627 -0.2139 0.189, -0.164 -0.214 0.189, -0.1654 -0.2142 0.1929, -0.1654 -0.2142 0.189, -0.1673 -0.215 0.189, -0.1673 -0.215 0.1929, -0.1691 -0.2162 0.189, -0.1691 -0.2162 0.1929, -0.1695 -0.2166 0.189, -0.1695 -0.2166 0.1929, -0.1709 -0.2184 0.189, -0.1709 -0.2184 0.1929, -0.1714 -0.2196 0.189, -0.1718 -0.2205 0.1929, -0.1718 -0.2205 0.189, -0.1722 -0.2229 0.189, -0.1722 -0.2229 0.1929, -0.1722 -0.2239 0.189, -0.1722 -0.2239 0.1929, -0.1698 -0.2306 0.189, -0.1698 -0.2306 0.1929, -0.1711 -0.2289 0.1929, -0.1719 -0.227 0.189, -0.1719 -0.227 0.1929, -0.1714 -0.2281 0.189, -0.1711 -0.2289 0.189, -0.1645 -0.2331 0.1929, -0.1683 -0.2319 0.189, -0.1683 -0.2319 0.1929, -0.1666 -0.2327 0.189, -0.1666 -0.2327 0.1929, -0.165 -0.233 0.189, -0.1645 -0.2331 0.189, -0.1445 -0.2308 0.1929, -0.1445 -0.2329 0.1929, -0.1445 -0.2308 0.189, -0.1445 -0.2329 0.189, -0.1521 -0.2308 0.189, -0.1521 -0.2308 0.1929, -0.147 -0.2308 0.189, -0.1521 -0.2245 0.1929, -0.1521 -0.2245 0.189, -0.1454 -0.2245 0.189, -0.1454 -0.2245 0.1929, -0.147 -0.2245 0.189, -0.1454 -0.2223 0.1929, -0.1454 -0.2223 0.189, -0.1521 -0.2223 0.189, -0.1521 -0.2223 0.1929, -0.147 -0.2223 0.189, -0.1521 -0.2164 0.1929, -0.1521 -0.2164 0.189, -0.1449 -0.2164 0.189, -0.1449 -0.2164 0.1929, -0.147 -0.2164 0.189, -0.1449 -0.2142 0.1929, -0.1449 -0.2142 0.189, -0.1545 -0.2142 0.189, -0.1545 -0.2142 0.1929, -0.147 -0.2142 0.189, -0.1545 -0.2329 0.1929, -0.1545 -0.2329 0.189, -0.147 -0.2329 0.189, -0.1285 -0.2303 0.1929, -0.1305 -0.229 0.1929, -0.1305 -0.2317 0.1929, -0.1317 -0.2298 0.1929, -0.1326 -0.2325 0.1929, -0.1332 -0.2304 0.1929, -0.1358 -0.2329 0.1929, -0.1358 -0.2308 0.1929, -0.1409 -0.2329 0.1929, -0.1385 -0.2308 0.1929, -0.1409 -0.2142 0.1929, -0.1385 -0.2164 0.1929, -0.1356 -0.2142 0.1929, -0.1357 -0.2164 0.1929, -0.1327 -0.2145 0.1929, -0.1333 -0.2166 0.1929, -0.1305 -0.2153 0.1929, -0.1317 -0.2172 0.1929, -0.1285 -0.2167 0.1929, -0.1303 -0.2181 0.1929, -0.1279 -0.2173 0.1929, -0.1298 -0.2186 0.1929, -0.1267 -0.2189 0.1929, -0.1291 -0.2197 0.1929, -0.126 -0.2207 0.1929, -0.1285 -0.221 0.1929, -0.1257 -0.2233 0.1929, -0.1283 -0.2234 0.1929, -0.1258 -0.2245 0.1929, -0.1283 -0.2248 0.1929, -0.1262 -0.2267 0.1929, -0.1287 -0.2265 0.1929, -0.1271 -0.2286 0.1929, -0.1294 -0.2278 0.1929, -0.1302 -0.2288 0.1929, -0.1358 -0.2329 0.189, -0.1409 -0.2329 0.189, -0.1285 -0.2303 0.189, -0.1326 -0.2325 0.189, -0.1324 -0.2324 0.189, -0.1305 -0.2317 0.189, -0.1271 -0.2286 0.189, -0.1262 -0.2267 0.189, -0.1258 -0.2245 0.189, -0.1257 -0.2233 0.189, -0.126 -0.2207 0.189, -0.1267 -0.2189 0.189, -0.1279 -0.2173 0.189, -0.1285 -0.2167 0.189, -0.1356 -0.2142 0.189, -0.1305 -0.2153 0.189, -0.1324 -0.2147 0.189, -0.1327 -0.2145 0.189, -0.1409 -0.2142 0.189, -0.1357 -0.2164 0.189, -0.1385 -0.2164 0.189, -0.1385 -0.2308 0.189, -0.1358 -0.2308 0.189, -0.1302 -0.2288 0.189, -0.1305 -0.229 0.189, -0.1317 -0.2298 0.189, -0.1332 -0.2304 0.189, -0.1283 -0.2234 0.189, -0.1283 -0.2248 0.189, -0.1287 -0.2265 0.189, -0.1294 -0.2278 0.189, -0.1303 -0.2181 0.189, -0.1298 -0.2186 0.189, -0.1291 -0.2197 0.189, -0.1285 -0.221 0.189, -0.1333 -0.2166 0.189, -0.1317 -0.2172 0.189, -0.1317 -0.2172 0.189
            ]
        }
        coordIndex [
            0,1,2,-1,2,1,3,-1,4,0,5,-1,5,0,2,-1,6,4,7,-1,7,4,5,-1,8,6,9,-1,9,6,7,-1,10,8,11,-1,11,8,9,-1,1,10,3,-1,3,10,11,-1,6,8,4,-1,4,8,10,-1,4,10,0,-1,0,10,1,-1,12,13,14,-1,14,13,15,-1,13,16,15,-1,15,16,17,-1,15,17,18,-1,18,17,19,-1,18,19,20,-1,21,20,22,-1,22,20,19,-1,21,22,23,-1,21,23,24,-1,24,23,25,-1,24,25,26,-1,26,25,27,-1,26,27,28,-1,28,27,29,-1,28,29,30,-1,30,29,31,-1,30,31,32,-1,32,31,33,-1,32,33,34,-1,34,33,35,-1,34,35,36,-1,36,35,37,-1,36,37,38,-1,38,37,39,-1,38,39,40,-1,40,39,41,-1,40,41,42,-1,42,41,43,-1,42,43,44,-1,44,43,45,-1,44,45,46,-1,46,45,47,-1,46,47,48,-1,48,47,49,-1,48,49,50,-1,50,49,51,-1,50,51,52,-1,52,51,53,-1,52,53,54,-1,54,53,55,-1,54,55,56,-1,56,55,57,-1,56,57,58,-1,58,57,59,-1,58,59,60,-1,60,59,61,-1,60,61,62,-1,62,61,63,-1,62,63,64,-1,65,64,66,-1,66,64,63,-1,67,68,69,-1,65,66,70,-1,65,70,71,-1,71,70,72,-1,71,72,69,-1,69,72,73,-1,69,73,67,-1,68,67,74,-1,68,74,75,-1,74,76,75,-1,75,76,77,-1,75,77,78,-1,78,77,79,-1,78,79,80,-1,80,79,81,-1,80,81,82,-1,82,81,83,-1,82,83,84,-1,84,83,85,-1,84,85,86,-1,85,87,86,-1,86,87,88,-1,86,88,89,-1,89,88,90,-1,89,90,91,-1,92,93,94,-1,91,90,95,-1,91,95,96,-1,96,95,97,-1,96,97,94,-1,94,97,98,-1,94,98,92,-1,12,14,99,-1,93,92,100,-1,93,100,101,-1,101,100,102,-1,101,102,103,-1,103,102,104,-1,103,104,99,-1,99,104,105,-1,99,105,12,-1,62,64,65,-1,52,80,50,-1,50,80,82,-1,50,82,48,-1,48,82,84,-1,48,84,46,-1,62,65,60,-1,60,65,71,-1,60,71,58,-1,58,71,69,-1,58,69,56,-1,56,69,68,-1,56,68,54,-1,54,68,75,-1,54,75,52,-1,52,75,78,-1,52,78,80,-1,91,44,89,-1,89,44,46,-1,89,46,86,-1,86,46,84,-1,20,21,18,-1,18,21,24,-1,18,24,15,-1,15,24,26,-1,15,26,14,-1,14,26,28,-1,14,28,99,-1,99,28,30,-1,99,30,103,-1,103,30,32,-1,103,32,101,-1,101,32,34,-1,101,34,93,-1,93,34,36,-1,93,36,94,-1,94,36,38,-1,94,38,96,-1,96,38,40,-1,96,40,91,-1,91,40,42,-1,91,42,44,-1,106,107,108,-1,108,107,109,-1,110,111,112,-1,112,111,106,-1,112,106,108,-1,113,111,114,-1,114,111,110,-1,115,116,117,-1,117,116,113,-1,117,113,114,-1,118,116,119,-1,119,116,115,-1,120,121,122,-1,122,121,118,-1,122,118,119,-1,123,121,124,-1,124,121,120,-1,125,126,127,-1,127,126,123,-1,127,123,124,-1,128,126,129,-1,129,126,125,-1,130,131,132,-1,132,131,128,-1,132,128,129,-1,133,131,134,-1,134,131,130,-1,133,134,107,-1,107,134,135,-1,107,135,109,-1,133,107,106,-1,106,111,133,-1,133,111,113,-1,133,113,131,-1,126,128,123,-1,123,128,131,-1,123,131,121,-1,121,131,113,-1,121,113,118,-1,118,113,116,-1,136,137,138,-1,138,137,139,-1,138,139,140,-1,140,139,141,-1,140,141,142,-1,142,141,143,-1,142,143,144,-1,144,143,145,-1,144,145,146,-1,146,145,147,-1,146,147,148,-1,148,147,149,-1,148,149,150,-1,150,149,151,-1,150,151,152,-1,152,151,153,-1,152,153,154,-1,154,153,155,-1,154,155,156,-1,156,155,157,-1,156,157,158,-1,158,157,159,-1,158,159,160,-1,160,159,161,-1,160,161,162,-1,162,161,163,-1,162,163,164,-1,164,163,165,-1,164,165,166,-1,166,165,167,-1,166,167,168,-1,168,167,169,-1,168,169,136,-1,136,169,170,-1,136,170,137,-1,142,144,171,-1,171,144,172,-1,173,136,138,-1,142,171,174,-1,142,174,140,-1,140,174,175,-1,140,175,138,-1,138,175,176,-1,138,176,173,-1,136,173,177,-1,136,177,168,-1,168,177,178,-1,168,178,166,-1,166,178,179,-1,166,179,164,-1,164,179,180,-1,164,180,162,-1,162,180,181,-1,162,181,160,-1,160,181,182,-1,160,182,158,-1,158,182,183,-1,158,183,156,-1,156,183,184,-1,156,184,154,-1,185,148,150,-1,154,184,186,-1,154,186,152,-1,152,186,187,-1,152,187,150,-1,150,187,188,-1,150,188,185,-1,146,148,189,-1,189,148,185,-1,144,146,172,-1,172,146,189,-1,149,147,190,-1,190,147,191,-1,147,145,191,-1,191,145,192,-1,145,143,192,-1,192,143,193,-1,170,194,195,-1,170,195,137,-1,137,195,196,-1,137,196,139,-1,139,196,197,-1,139,197,141,-1,141,197,193,-1,141,193,143,-1,163,198,199,-1,163,199,165,-1,165,199,200,-1,165,200,167,-1,167,200,201,-1,167,201,169,-1,169,201,194,-1,169,194,170,-1,155,202,203,-1,155,203,157,-1,157,203,204,-1,157,204,159,-1,159,204,205,-1,159,205,161,-1,161,205,198,-1,161,198,163,-1,149,190,206,-1,149,206,151,-1,151,206,207,-1,151,207,153,-1,153,207,202,-1,153,202,155,-1,
        ]
    }
}
Shape{
    appearance Appearance {
        material  Material 	{
            diffuseColor 0.25098039215686274 0.25098039215686274 0.25098039215686274
            specularColor 0.12549019607843137 0.12549019607843137 0.12549019607843137
            ambientIntensity 0.2
            transparency 0
            shininess 0.5
        }
    }
    geometry IndexedFaceSet {
        ccw TRUE
        solid FALSE
        coord DEF co Coordinate {
            point [
                -0.1305 -0.229 0.189, -0.1302 -0.2288 0.189, -0.1357 -0.2164 0.189, -0.1385 -0.2164 0.189, -0.1385 -0.2308 0.189, -0.1358 -0.2308 0.189, -0.1332 -0.2304 0.189, -0.1317 -0.2298 0.189, -0.1294 -0.2278 0.189, -0.1287 -0.2265 0.189, -0.1283 -0.2248 0.189, -0.1283 -0.2234 0.189, -0.1285 -0.221 0.189, -0.1291 -0.2197 0.189, -0.1298 -0.2186 0.189, -0.1303 -0.2181 0.189, -0.1333 -0.2166 0.189, -0.1317 -0.2172 0.189, -0.1317 -0.2172 0.189
            ]
        }
        coordIndex [
            0,1,2,-1,3,4,2,-1,2,4,5,-1,5,6,2,-1,2,6,7,-1,2,7,0,-1,1,8,2,-1,2,8,9,-1,2,9,10,-1,10,11,2,-1,2,11,12,-1,2,12,13,-1,13,14,2,-1,2,14,15,-1,2,15,16,-1,16,15,17,-1,
        ]
    }
}
Shape{
    appearance Appearance {
        material  Material 	{
            diffuseColor 1.0 1.0 1.0
            specularColor 0.5019607843137255 0.5019607843137255 0.5019607843137255
            ambientIntensity 0.2
            transparency 0
            shininess 0.5
        }
    }
    geometry IndexedFaceSet {
        ccw TRUE
        solid FALSE
        coord DEF co Coordinate {
            point [
                -0.1195 -0.2257 0.1929, -0.1202 -0.2278 0.1929, -0.1132 -0.2257 0.1929, -0.1124 -0.2278 0.1929, -0.1167 -0.2179 0.1929, -0.1176 -0.2142 0.1929, -0.1247 -0.2329 0.1929, -0.122 -0.2329 0.1929, -0.1165 -0.2173 0.1929, -0.1164 -0.2166 0.1929, -0.115 -0.2142 0.1929, -0.1163 -0.2166 0.1929, -0.1161 -0.2174 0.1929, -0.116 -0.2179 0.1929, -0.1079 -0.2329 0.1929, -0.1105 -0.2329 0.1929, -0.115 -0.2142 0.189, -0.1079 -0.2329 0.189, -0.1176 -0.2142 0.189, -0.1247 -0.2329 0.189, -0.1193 -0.2187 0.189, -0.122 -0.2329 0.189, -0.1202 -0.2278 0.189, -0.1124 -0.2278 0.189, -0.1193 -0.2278 0.189, -0.1105 -0.2329 0.189, -0.1195 -0.2257 0.189, -0.1132 -0.2257 0.189, -0.116 -0.2179 0.189, -0.1163 -0.2166 0.189, -0.1161 -0.2174 0.189, -0.1164 -0.2166 0.189, -0.1167 -0.2179 0.189, -0.1165 -0.2173 0.189, -0.1165 -0.2173 0.189
            ]
        }
        coordIndex [
            0,1,2,-1,2,1,3,-1,4,5,0,-1,0,5,6,-1,0,6,1,-1,1,6,7,-1,4,8,5,-1,5,8,9,-1,5,9,10,-1,10,9,11,-1,10,11,12,-1,12,13,10,-1,10,13,2,-1,10,2,14,-1,14,2,3,-1,14,3,15,-1,10,14,16,-1,16,14,17,-1,5,10,18,-1,18,10,16,-1,19,6,20,-1,20,6,5,-1,20,5,18,-1,7,6,21,-1,21,6,19,-1,1,7,22,-1,22,7,21,-1,23,3,24,-1,24,3,1,-1,24,1,22,-1,15,3,25,-1,25,3,23,-1,14,15,17,-1,17,15,25,-1,0,2,26,-1,26,2,27,-1,2,13,27,-1,27,13,28,-1,11,29,30,-1,11,30,12,-1,12,30,28,-1,12,28,13,-1,11,9,29,-1,29,9,31,-1,4,32,33,-1,4,33,8,-1,8,33,31,-1,8,31,9,-1,4,0,32,-1,32,0,26,-1,
        ]
    }
}
Shape{
    appearance Appearance {
        material  Material 	{
            diffuseColor 0.25098039215686274 0.25098039215686274 0.25098039215686274
            specularColor 0.12549019607843137 0.12549019607843137 0.12549019607843137
            ambientIntensity 0.2
            transparency 0
            shininess 0.5
        }
    }
    geometry IndexedFaceSet {
        ccw TRUE
        solid FALSE
        coord DEF co Coordinate {
            point [
                -0.1163 -0.2166 0.189, -0.1164 -0.2166 0.189, -0.1161 -0.2174 0.189, -0.1165 -0.2173 0.189, -0.116 -0.2179 0.189, -0.1167 -0.2179 0.189, -0.1132 -0.2257 0.189, -0.1195 -0.2257 0.189, -0.1195 -0.2257 0.189
            ]
        }
        coordIndex [
            0,1,2,-1,2,1,3,-1,2,3,4,-1,4,3,5,-1,4,5,6,-1,6,5,7,-1,
        ]
    }
}
Shape{
    appearance Appearance {
        material  Material 	{
            diffuseColor 1.0 1.0 1.0
            specularColor 0.5019607843137255 0.5019607843137255 0.5019607843137255
            ambientIntensity 0.2
            transparency 0
            shininess 0.5
        }
    }
    geometry IndexedFaceSet {
        ccw TRUE
        solid FALSE
        coord DEF co Coordinate {
            point [
                -0.1728 -0.2604 0.1929, -0.1728 -0.2625 0.1929, -0.1728 -0.2604 0.189, -0.1728 -0.2625 0.189, -0.1804 -0.2604 0.1929, -0.1804 -0.2604 0.189, -0.1804 -0.2541 0.1929, -0.1804 -0.2541 0.189, -0.1738 -0.2541 0.1929, -0.1738 -0.2541 0.189, -0.1738 -0.252 0.1929, -0.1738 -0.252 0.189, -0.1804 -0.252 0.1929, -0.1804 -0.252 0.189, -0.1804 -0.246 0.1929, -0.1804 -0.246 0.189, -0.1732 -0.246 0.1929, -0.1732 -0.246 0.189, -0.1732 -0.2438 0.1929, -0.1732 -0.2438 0.189, -0.1828 -0.2438 0.1929, -0.1828 -0.2438 0.189, -0.1828 -0.2625 0.1929, -0.1828 -0.2625 0.189, -0.1622 -0.2625 0.1929, -0.1598 -0.2625 0.1929, -0.1622 -0.2605 0.1929, -0.1598 -0.2539 0.1929, -0.1622 -0.2605 0.1929, -0.1635 -0.2601 0.1929, -0.1626 -0.261 0.1929, -0.1641 -0.2606 0.1929, -0.1668 -0.2566 0.1929, -0.1653 -0.2562 0.1929, -0.1622 -0.2558 0.1929, -0.1622 -0.2571 0.1929, -0.1622 -0.2573 0.1929, -0.1623 -0.2583 0.1929, -0.1627 -0.2591 0.1929, -0.1632 -0.2598 0.1929, -0.163 -0.249 0.1929, -0.1635 -0.251 0.1929, -0.1621 -0.2494 0.1929, -0.1631 -0.2513 0.1929, -0.1673 -0.2569 0.1929, -0.1622 -0.254 0.1929, -0.1623 -0.253 0.1929, -0.1601 -0.252 0.1929, -0.1625 -0.2522 0.1929, -0.1605 -0.251 0.1929, -0.1628 -0.2517 0.1929, -0.1609 -0.2502 0.1929, -0.1614 -0.2498 0.1929, -0.1693 -0.2501 0.1929, -0.1693 -0.2524 0.1929, -0.1688 -0.2498 0.1929, -0.1676 -0.2514 0.1929, -0.167 -0.2492 0.1929, -0.1662 -0.2509 0.1929, -0.1647 -0.2489 0.1929, -0.1649 -0.2508 0.1929, -0.1641 -0.2509 0.1929, -0.1677 -0.2601 0.1929, -0.1694 -0.2618 0.1929, -0.1675 -0.2603 0.1929, -0.1686 -0.2623 0.1929, -0.167 -0.2606 0.1929, -0.1677 -0.2627 0.1929, -0.1665 -0.2608 0.1929, -0.1663 -0.2628 0.1929, -0.1657 -0.2609 0.1929, -0.1651 -0.2627 0.1929, -0.1648 -0.2608 0.1929, -0.1642 -0.2624 0.1929, -0.1634 -0.2618 0.1929, -0.1661 -0.2546 0.1929, -0.1681 -0.2551 0.1929, -0.1676 -0.2571 0.1929, -0.169 -0.2556 0.1929, -0.1678 -0.2574 0.1929, -0.1697 -0.2563 0.1929, -0.1681 -0.2579 0.1929, -0.1702 -0.257 0.1929, -0.1682 -0.2584 0.1929, -0.1705 -0.2579 0.1929, -0.1682 -0.2588 0.1929, -0.1706 -0.259 0.1929, -0.1681 -0.2593 0.1929, -0.1704 -0.2601 0.1929, -0.168 -0.2597 0.1929, -0.1701 -0.2609 0.1929, -0.1696 -0.2616 0.1929, -0.1647 -0.2489 0.189, -0.167 -0.2492 0.189, -0.1688 -0.2498 0.189, -0.1693 -0.2501 0.189, -0.1693 -0.2524 0.189, -0.1676 -0.2514 0.189, -0.1662 -0.2509 0.189, -0.1649 -0.2508 0.189, -0.1641 -0.2509 0.189, -0.1635 -0.251 0.189, -0.1631 -0.2513 0.189, -0.1628 -0.2517 0.189, -0.1625 -0.2522 0.189, -0.1623 -0.253 0.189, -0.1622 -0.254 0.189, -0.1661 -0.2546 0.189, -0.1681 -0.2551 0.189, -0.169 -0.2556 0.189, -0.1697 -0.2563 0.189, -0.1702 -0.257 0.189, -0.1705 -0.2579 0.189, -0.1706 -0.259 0.189, -0.1704 -0.2601 0.189, -0.1701 -0.2609 0.189, -0.1696 -0.2616 0.189, -0.1694 -0.2618 0.189, -0.1663 -0.2628 0.189, -0.1677 -0.2627 0.189, -0.1677 -0.2627 0.189, -0.1686 -0.2623 0.189, -0.1651 -0.2627 0.189, -0.1651 -0.2627 0.189, -0.1642 -0.2624 0.189, -0.1634 -0.2618 0.189, -0.1626 -0.261 0.189, -0.1622 -0.2605 0.189, -0.1622 -0.2605 0.189, -0.1622 -0.2625 0.189, -0.1598 -0.2625 0.189, -0.1598 -0.2539 0.189, -0.1601 -0.252 0.189, -0.1605 -0.251 0.189, -0.1609 -0.2502 0.189, -0.1614 -0.2498 0.189, -0.1621 -0.2494 0.189, -0.163 -0.249 0.189, -0.1676 -0.2571 0.189, -0.1673 -0.2569 0.189, -0.1668 -0.2566 0.189, -0.1653 -0.2562 0.189, -0.1682 -0.2588 0.189, -0.1682 -0.2584 0.189, -0.1681 -0.2579 0.189, -0.1678 -0.2574 0.189, -0.1675 -0.2603 0.189, -0.1677 -0.2601 0.189, -0.168 -0.2597 0.189, -0.1681 -0.2593 0.189, -0.1657 -0.2609 0.189, -0.1665 -0.2608 0.189, -0.167 -0.2606 0.189, -0.1632 -0.2598 0.189, -0.1635 -0.2601 0.189, -0.1641 -0.2606 0.189, -0.1648 -0.2608 0.189, -0.1622 -0.2571 0.189, -0.1622 -0.2573 0.189, -0.1623 -0.2583 0.189, -0.1627 -0.2591 0.189, -0.1622 -0.2558 0.189, -0.1622 -0.2558 0.189
            ]
        }
        coordIndex [
            0,1,2,-1,2,1,3,-1,4,0,5,-1,5,0,2,-1,6,4,7,-1,7,4,5,-1,8,6,9,-1,9,6,7,-1,10,8,11,-1,11,8,9,-1,12,10,13,-1,13,10,11,-1,14,12,15,-1,15,12,13,-1,16,14,17,-1,17,14,15,-1,18,16,19,-1,19,16,17,-1,20,18,21,-1,21,18,19,-1,22,20,23,-1,23,20,21,-1,1,22,3,-1,3,22,23,-1,22,1,0,-1,0,4,22,-1,22,4,6,-1,22,6,20,-1,16,18,14,-1,14,18,20,-1,14,20,12,-1,12,20,6,-1,12,6,10,-1,10,6,8,-1,24,25,26,-1,26,25,27,-1,28,29,30,-1,30,29,31,-1,32,33,27,-1,27,33,34,-1,27,34,35,-1,35,36,27,-1,27,36,37,-1,27,37,26,-1,26,37,38,-1,26,38,28,-1,28,38,39,-1,28,39,29,-1,40,41,42,-1,42,41,43,-1,44,32,45,-1,45,32,27,-1,45,27,46,-1,46,27,47,-1,46,47,48,-1,48,47,49,-1,48,49,50,-1,50,49,51,-1,50,51,43,-1,43,51,52,-1,43,52,42,-1,53,54,55,-1,55,54,56,-1,55,56,57,-1,57,56,58,-1,57,58,59,-1,59,58,60,-1,59,60,40,-1,40,60,61,-1,40,61,41,-1,62,63,64,-1,64,63,65,-1,64,65,66,-1,66,65,67,-1,66,67,68,-1,68,67,69,-1,68,69,70,-1,70,69,71,-1,70,71,72,-1,72,71,73,-1,72,73,31,-1,31,73,74,-1,31,74,30,-1,45,75,44,-1,44,75,76,-1,44,76,77,-1,77,76,78,-1,77,78,79,-1,79,78,80,-1,79,80,81,-1,81,80,82,-1,81,82,83,-1,83,82,84,-1,83,84,85,-1,85,84,86,-1,85,86,87,-1,87,86,88,-1,87,88,89,-1,89,88,90,-1,89,90,62,-1,62,90,91,-1,62,91,63,-1,59,92,93,-1,59,93,57,-1,57,93,94,-1,57,94,55,-1,55,94,95,-1,55,95,53,-1,54,53,96,-1,96,53,95,-1,54,96,97,-1,54,97,56,-1,56,97,98,-1,56,98,58,-1,58,98,99,-1,58,99,60,-1,60,99,100,-1,60,100,61,-1,61,100,101,-1,61,101,41,-1,41,101,102,-1,41,102,43,-1,43,102,103,-1,43,103,50,-1,50,103,104,-1,50,104,48,-1,48,104,105,-1,48,105,46,-1,46,105,106,-1,46,106,45,-1,75,45,107,-1,107,45,106,-1,75,107,108,-1,75,108,76,-1,76,108,109,-1,76,109,78,-1,78,109,110,-1,78,110,80,-1,80,110,111,-1,80,111,82,-1,82,111,112,-1,82,112,84,-1,84,112,113,-1,84,113,86,-1,86,113,114,-1,86,114,88,-1,88,114,115,-1,88,115,90,-1,90,115,116,-1,90,116,91,-1,91,116,117,-1,91,117,63,-1,118,69,119,-1,119,69,67,-1,119,67,120,-1,120,67,65,-1,120,65,121,-1,121,65,63,-1,121,63,117,-1,69,118,122,-1,69,122,71,-1,71,122,123,-1,71,123,73,-1,123,124,73,-1,73,124,125,-1,73,125,74,-1,74,125,126,-1,74,126,30,-1,30,126,127,-1,30,127,28,-1,26,28,128,-1,128,28,127,-1,24,26,129,-1,129,26,128,-1,25,24,130,-1,130,24,129,-1,27,25,131,-1,131,25,130,-1,27,131,132,-1,27,132,47,-1,47,132,133,-1,47,133,49,-1,49,133,134,-1,49,134,51,-1,51,134,135,-1,51,135,52,-1,52,135,136,-1,52,136,42,-1,42,136,137,-1,42,137,40,-1,40,137,92,-1,40,92,59,-1,77,138,139,-1,77,139,44,-1,44,139,140,-1,44,140,32,-1,32,140,141,-1,32,141,33,-1,85,142,143,-1,85,143,83,-1,83,143,144,-1,83,144,81,-1,81,144,145,-1,81,145,79,-1,79,145,138,-1,79,138,77,-1,64,146,147,-1,64,147,62,-1,62,147,148,-1,62,148,89,-1,89,148,149,-1,89,149,87,-1,87,149,142,-1,87,142,85,-1,70,150,151,-1,70,151,68,-1,68,151,152,-1,68,152,66,-1,66,152,146,-1,66,146,64,-1,39,153,154,-1,39,154,29,-1,29,154,155,-1,29,155,31,-1,31,155,156,-1,31,156,72,-1,72,156,150,-1,72,150,70,-1,35,157,158,-1,35,158,36,-1,36,158,159,-1,36,159,37,-1,37,159,160,-1,37,160,38,-1,38,160,153,-1,38,153,39,-1,35,34,157,-1,157,34,161,-1,34,33,161,-1,161,33,141,-1,
        ]
    }
}
Shape{
    appearance Appearance {
        material  Material 	{
            diffuseColor 0.25098039215686274 0.25098039215686274 0.25098039215686274
            specularColor 0.12549019607843137 0.12549019607843137 0.12549019607843137
            ambientIntensity 0.2
            transparency 0
            shininess 0.5
        }
    }
    geometry IndexedFaceSet {
        ccw TRUE
        solid FALSE
        coord DEF co Coordinate {
            point [
                -0.1622 -0.2573 0.189, -0.1622 -0.2571 0.189, -0.1676 -0.2571 0.189, -0.1622 -0.2558 0.189, -0.1653 -0.2562 0.189, -0.1668 -0.2566 0.189, -0.1673 -0.2569 0.189, -0.1623 -0.2583 0.189, -0.1678 -0.2574 0.189, -0.1627 -0.2591 0.189, -0.1677 -0.2601 0.189, -0.1675 -0.2603 0.189, -0.1635 -0.2601 0.189, -0.168 -0.2597 0.189, -0.1641 -0.2606 0.189, -0.1648 -0.2608 0.189, -0.1657 -0.2609 0.189, -0.1681 -0.2579 0.189, -0.1682 -0.2584 0.189, -0.1632 -0.2598 0.189, -0.1682 -0.2588 0.189, -0.1681 -0.2593 0.189, -0.167 -0.2606 0.189, -0.1665 -0.2608 0.189, -0.1665 -0.2608 0.189
            ]
        }
        coordIndex [
            0,1,2,-1,1,3,4,-1,4,5,1,-1,1,5,6,-1,1,6,2,-1,0,2,7,-1,7,2,8,-1,7,8,9,-1,10,11,12,-1,10,12,13,-1,14,12,15,-1,15,12,16,-1,8,17,9,-1,9,17,18,-1,9,18,19,-1,19,18,20,-1,19,20,12,-1,12,20,21,-1,12,21,13,-1,11,22,12,-1,12,22,23,-1,12,23,16,-1,
        ]
    }
}
Shape{
    appearance Appearance {
        material  Material 	{
            diffuseColor 1.0 1.0 1.0
            specularColor 0.5019607843137255 0.5019607843137255 0.5019607843137255
            ambientIntensity 0.2
            transparency 0
            shininess 0.5
        }
    }
    geometry IndexedFaceSet {
        ccw TRUE
        solid FALSE
        coord DEF co Coordinate {
            point [
                -0.1567 -0.2596 0.189, -0.1567 -0.2596 0.1929, -0.1556 -0.2603 0.1929, -0.1528 -0.2609 0.1929, -0.1528 -0.2609 0.189, -0.1541 -0.2608 0.189, -0.1541 -0.2608 0.1929, -0.1556 -0.2603 0.189, -0.1556 -0.2603 0.189, -0.1567 -0.2621 0.1929, -0.1567 -0.2621 0.189, -0.1556 -0.2624 0.189, -0.155 -0.2626 0.1929, -0.153 -0.2628 0.189, -0.153 -0.2628 0.1929, -0.1546 -0.2627 0.189, -0.155 -0.2626 0.189, -0.1517 -0.2627 0.189, -0.1509 -0.2626 0.1929, -0.1509 -0.2626 0.189, -0.1497 -0.2621 0.189, -0.1497 -0.2621 0.1929, -0.1492 -0.2618 0.189, -0.1492 -0.2618 0.1929, -0.1485 -0.2612 0.189, -0.1485 -0.2612 0.1929, -0.1481 -0.2606 0.189, -0.1481 -0.2606 0.1929, -0.1478 -0.2598 0.189, -0.1478 -0.2598 0.1929, -0.1477 -0.2589 0.189, -0.1477 -0.2589 0.1929, -0.1478 -0.258 0.189, -0.1478 -0.258 0.1929, -0.148 -0.2573 0.189, -0.148 -0.2573 0.1929, -0.1484 -0.2567 0.189, -0.1484 -0.2567 0.1929, -0.149 -0.2562 0.189, -0.149 -0.2562 0.1929, -0.1506 -0.2553 0.189, -0.1506 -0.2553 0.1929, -0.1515 -0.255 0.189, -0.1515 -0.255 0.1929, -0.1529 -0.2543 0.189, -0.1529 -0.2543 0.1929, -0.1537 -0.2538 0.189, -0.1537 -0.2538 0.1929, -0.154 -0.2536 0.189, -0.154 -0.2536 0.1929, -0.1541 -0.2532 0.189, -0.1541 -0.2532 0.1929, -0.1542 -0.2529 0.189, -0.1542 -0.2529 0.1929, -0.1542 -0.2526 0.189, -0.1542 -0.2526 0.1929, -0.1542 -0.2522 0.189, -0.1542 -0.2522 0.1929, -0.1541 -0.2519 0.189, -0.1541 -0.2519 0.1929, -0.1539 -0.2516 0.189, -0.1539 -0.2516 0.1929, -0.1535 -0.2513 0.189, -0.1535 -0.2513 0.1929, -0.153 -0.251 0.189, -0.153 -0.251 0.1929, -0.1524 -0.2508 0.189, -0.1524 -0.2508 0.1929, -0.1517 -0.2508 0.189, -0.1517 -0.2508 0.1929, -0.1501 -0.251 0.189, -0.1501 -0.251 0.1929, -0.1487 -0.2515 0.189, -0.1487 -0.2515 0.1929, -0.1483 -0.2517 0.189, -0.1483 -0.2517 0.1929, -0.1483 -0.2495 0.1929, -0.1483 -0.2495 0.189, -0.1498 -0.249 0.189, -0.1498 -0.249 0.1929, -0.1515 -0.2489 0.189, -0.1515 -0.2489 0.1929, -0.1533 -0.2491 0.189, -0.1533 -0.2491 0.1929, -0.1546 -0.2496 0.189, -0.1546 -0.2496 0.1929, -0.1552 -0.2499 0.189, -0.1552 -0.2499 0.1929, -0.1556 -0.2503 0.189, -0.1559 -0.2506 0.1929, -0.1559 -0.2506 0.189, -0.1563 -0.2512 0.189, -0.1563 -0.2512 0.1929, -0.1566 -0.2519 0.189, -0.1566 -0.2519 0.1929, -0.1567 -0.2528 0.189, -0.1567 -0.2528 0.1929, -0.1566 -0.2537 0.189, -0.1566 -0.2537 0.1929, -0.1563 -0.2544 0.189, -0.1563 -0.2544 0.1929, -0.156 -0.2549 0.189, -0.156 -0.2549 0.1929, -0.1531 -0.2567 0.189, -0.1531 -0.2567 0.1929, -0.1545 -0.256 0.1929, -0.1556 -0.2553 0.189, -0.1556 -0.2553 0.1929, -0.1556 -0.2553 0.189, -0.1545 -0.256 0.189, -0.1516 -0.2573 0.189, -0.1516 -0.2573 0.1929, -0.1507 -0.2579 0.189, -0.1507 -0.2579 0.1929, -0.1504 -0.2582 0.189, -0.1504 -0.2582 0.1929, -0.1502 -0.2585 0.189, -0.1502 -0.2585 0.1929, -0.1501 -0.2588 0.189, -0.1501 -0.2588 0.1929, -0.1501 -0.2591 0.189, -0.1501 -0.2591 0.1929, -0.1501 -0.2596 0.189, -0.1501 -0.2596 0.1929, -0.1502 -0.2599 0.189, -0.1502 -0.2599 0.1929, -0.1504 -0.2602 0.189, -0.1504 -0.2602 0.1929, -0.1507 -0.2604 0.189, -0.1507 -0.2604 0.1929, -0.1509 -0.2606 0.189, -0.1509 -0.2606 0.1929, -0.1515 -0.2608 0.189, -0.1515 -0.2608 0.1929, -0.1527 -0.2609 0.189, -0.1527 -0.2609 0.1929, -0.1361 -0.2492 0.1929, -0.1336 -0.2492 0.1929, -0.1361 -0.2492 0.189, -0.1336 -0.2492 0.189, -0.1397 -0.2592 0.1929, -0.1397 -0.2592 0.189, -0.1399 -0.2598 0.189, -0.1399 -0.2598 0.1929, -0.14 -0.2603 0.189, -0.14 -0.2603 0.1929, -0.14 -0.2603 0.1929, -0.14 -0.2603 0.189, -0.1403 -0.2592 0.1929, -0.1403 -0.2592 0.189, -0.1438 -0.2492 0.1929, -0.1427 -0.2524 0.189, -0.1438 -0.2492 0.189, -0.1464 -0.2492 0.1929, -0.1464 -0.2492 0.189, -0.1412 -0.2625 0.1929, -0.1427 -0.2587 0.189, -0.1412 -0.2625 0.189, -0.1422 -0.2649 0.189, -0.1422 -0.2649 0.1929, -0.1413 -0.2627 0.189, -0.1427 -0.2658 0.189, -0.1427 -0.2658 0.1929, -0.1427 -0.2658 0.189, -0.1431 -0.2663 0.189, -0.1431 -0.2663 0.1929, -0.1435 -0.2665 0.189, -0.1435 -0.2665 0.1929, -0.144 -0.2667 0.189, -0.144 -0.2667 0.1929, -0.1446 -0.2668 0.189, -0.1446 -0.2668 0.1929, -0.1455 -0.2667 0.189, -0.1455 -0.2667 0.1929, -0.146 -0.2665 0.189, -0.146 -0.2665 0.1929, -0.146 -0.2686 0.1929, -0.146 -0.2686 0.189, -0.145 -0.2688 0.189, -0.145 -0.2688 0.1929, -0.1444 -0.2688 0.189, -0.1444 -0.2688 0.1929, -0.1434 -0.2687 0.189, -0.1434 -0.2687 0.1929, -0.1427 -0.2684 0.189, -0.1425 -0.2683 0.1929, -0.1425 -0.2683 0.189, -0.1417 -0.2677 0.189, -0.1417 -0.2677 0.1929, -0.1408 -0.2666 0.189, -0.1408 -0.2666 0.1929, -0.1397 -0.2645 0.189, -0.1397 -0.2645 0.1929, -0.139 -0.2627 0.189, -0.1211 -0.2604 0.1929, -0.1211 -0.2625 0.1929, -0.1211 -0.2604 0.189, -0.1211 -0.2625 0.189, -0.1287 -0.2604 0.1929, -0.1252 -0.2604 0.189, -0.1287 -0.2604 0.189, -0.1287 -0.2541 0.1929, -0.1287 -0.2541 0.189, -0.122 -0.2541 0.1929, -0.1252 -0.2541 0.189, -0.122 -0.2541 0.189, -0.122 -0.252 0.1929, -0.122 -0.252 0.189, -0.1287 -0.252 0.189, -0.1287 -0.252 0.1929, -0.1252 -0.252 0.189, -0.1287 -0.246 0.1929, -0.1287 -0.246 0.189, -0.1215 -0.246 0.189, -0.1215 -0.246 0.1929, -0.1252 -0.246 0.189, -0.1215 -0.2438 0.1929, -0.1215 -0.2438 0.189, -0.1311 -0.2438 0.189, -0.1311 -0.2438 0.1929, -0.1252 -0.2438 0.189, -0.1311 -0.2625 0.1929, -0.1311 -0.2625 0.189, -0.1252 -0.2625 0.189, -0.1051 -0.2599 0.1929, -0.1071 -0.2586 0.1929, -0.1071 -0.2613 0.1929, -0.1083 -0.2595 0.1929, -0.1092 -0.2621 0.1929, -0.1098 -0.2601 0.1929, -0.1124 -0.2625 0.1929, -0.1124 -0.2604 0.1929, -0.1175 -0.2625 0.1929, -0.1151 -0.2604 0.1929, -0.1175 -0.2438 0.1929, -0.1151 -0.246 0.1929, -0.1122 -0.2438 0.1929, -0.1123 -0.246 0.1929, -0.1093 -0.2442 0.1929, -0.1099 -0.2463 0.1929, -0.1071 -0.245 0.1929, -0.1083 -0.2468 0.1929, -0.1051 -0.2463 0.1929, -0.1069 -0.2477 0.1929, -0.1045 -0.2469 0.1929, -0.1064 -0.2482 0.1929, -0.1033 -0.2486 0.1929, -0.1057 -0.2493 0.1929, -0.1026 -0.2504 0.1929, -0.1051 -0.2507 0.1929, -0.1023 -0.2529 0.1929, -0.1049 -0.253 0.1929, -0.1024 -0.2541 0.1929, -0.1049 -0.2545 0.1929, -0.1028 -0.2563 0.1929, -0.1054 -0.2561 0.1929, -0.1037 -0.2582 0.1929, -0.106 -0.2575 0.1929, -0.1069 -0.2584 0.1929, -0.1124 -0.2625 0.189, -0.1175 -0.2625 0.189, -0.1092 -0.2621 0.189, -0.1071 -0.2613 0.189, -0.1051 -0.2599 0.189, -0.1037 -0.2582 0.189, -0.1028 -0.2563 0.189, -0.1024 -0.2541 0.189, -0.1023 -0.2529 0.189, -0.1026 -0.2504 0.189, -0.1033 -0.2486 0.189, -0.1045 -0.2469 0.189, -0.1051 -0.2463 0.189, -0.1071 -0.245 0.189, -0.1093 -0.2442 0.189, -0.1122 -0.2438 0.189, -0.1175 -0.2438 0.189, -0.1123 -0.246 0.189, -0.1151 -0.246 0.189, -0.1151 -0.2604 0.189, -0.1124 -0.2604 0.189, -0.1069 -0.2584 0.189, -0.1071 -0.2586 0.189, -0.1083 -0.2595 0.189, -0.1098 -0.2601 0.189, -0.1049 -0.253 0.189, -0.1049 -0.2545 0.189, -0.1054 -0.2561 0.189, -0.106 -0.2575 0.189, -0.1069 -0.2477 0.189, -0.1064 -0.2482 0.189, -0.1057 -0.2493 0.189, -0.1051 -0.2507 0.189, -0.1099 -0.2463 0.189, -0.1083 -0.2468 0.189, -0.1083 -0.2468 0.189
            ]
        }
        coordIndex [
            0,1,2,-1,3,4,5,-1,3,5,6,-1,6,5,7,-1,6,7,2,-1,2,7,8,-1,2,8,0,-1,9,1,10,-1,10,1,0,-1,10,11,9,-1,9,11,12,-1,13,14,15,-1,15,14,12,-1,15,12,16,-1,16,12,11,-1,13,17,14,-1,14,17,18,-1,17,19,18,-1,18,19,20,-1,18,20,21,-1,21,20,22,-1,21,22,23,-1,23,22,24,-1,23,24,25,-1,25,24,26,-1,25,26,27,-1,27,26,28,-1,27,28,29,-1,29,28,30,-1,29,30,31,-1,31,30,32,-1,31,32,33,-1,33,32,34,-1,33,34,35,-1,35,34,36,-1,35,36,37,-1,37,36,38,-1,37,38,39,-1,39,38,40,-1,39,40,41,-1,41,40,42,-1,41,42,43,-1,43,42,44,-1,43,44,45,-1,45,44,46,-1,45,46,47,-1,47,46,48,-1,47,48,49,-1,49,48,50,-1,49,50,51,-1,51,50,52,-1,51,52,53,-1,53,52,54,-1,53,54,55,-1,55,54,56,-1,55,56,57,-1,57,56,58,-1,57,58,59,-1,59,58,60,-1,59,60,61,-1,61,60,62,-1,61,62,63,-1,63,62,64,-1,63,64,65,-1,65,64,66,-1,65,66,67,-1,67,66,68,-1,67,68,69,-1,69,68,70,-1,69,70,71,-1,71,70,72,-1,71,72,73,-1,73,72,74,-1,73,74,75,-1,76,75,77,-1,77,75,74,-1,76,77,78,-1,76,78,79,-1,79,78,80,-1,79,80,81,-1,81,80,82,-1,81,82,83,-1,83,82,84,-1,83,84,85,-1,85,84,86,-1,85,86,87,-1,86,88,87,-1,87,88,89,-1,88,90,89,-1,89,90,91,-1,89,91,92,-1,92,91,93,-1,92,93,94,-1,94,93,95,-1,94,95,96,-1,96,95,97,-1,96,97,98,-1,98,97,99,-1,98,99,100,-1,100,99,101,-1,100,101,102,-1,103,104,105,-1,102,101,106,-1,102,106,107,-1,107,106,108,-1,107,108,105,-1,105,108,109,-1,105,109,103,-1,104,103,110,-1,104,110,111,-1,111,110,112,-1,111,112,113,-1,113,112,114,-1,113,114,115,-1,115,114,116,-1,115,116,117,-1,117,116,118,-1,117,118,119,-1,119,118,120,-1,119,120,121,-1,121,120,122,-1,121,122,123,-1,123,122,124,-1,123,124,125,-1,125,124,126,-1,125,126,127,-1,127,126,128,-1,127,128,129,-1,129,128,130,-1,129,130,131,-1,131,130,132,-1,131,132,133,-1,133,132,134,-1,133,134,135,-1,135,134,4,-1,135,4,3,-1,59,61,87,-1,87,61,85,-1,85,61,63,-1,85,63,83,-1,111,43,104,-1,104,43,45,-1,21,23,127,-1,127,23,25,-1,127,25,125,-1,125,25,27,-1,125,27,123,-1,123,27,29,-1,123,29,121,-1,121,29,31,-1,121,31,119,-1,119,31,33,-1,119,33,117,-1,117,33,35,-1,117,35,115,-1,115,35,37,-1,115,37,113,-1,113,37,39,-1,113,39,111,-1,111,39,41,-1,111,41,43,-1,14,3,12,-1,12,3,6,-1,12,6,9,-1,9,6,2,-1,9,2,1,-1,63,65,83,-1,83,65,67,-1,83,67,81,-1,81,67,69,-1,81,69,79,-1,79,69,71,-1,79,71,76,-1,76,71,73,-1,76,73,75,-1,127,129,21,-1,21,129,131,-1,21,131,18,-1,18,131,133,-1,18,133,14,-1,14,133,135,-1,14,135,3,-1,87,89,59,-1,59,89,92,-1,59,92,57,-1,57,92,94,-1,57,94,55,-1,55,94,96,-1,55,96,53,-1,53,96,98,-1,53,98,51,-1,51,98,100,-1,51,100,49,-1,49,100,102,-1,49,102,47,-1,47,102,107,-1,47,107,45,-1,45,107,105,-1,45,105,104,-1,136,137,138,-1,138,137,139,-1,140,136,141,-1,141,136,138,-1,140,141,142,-1,140,142,143,-1,143,142,144,-1,143,144,145,-1,146,145,147,-1,147,145,144,-1,148,146,149,-1,149,146,147,-1,148,149,150,-1,150,149,151,-1,150,151,152,-1,153,150,154,-1,154,150,152,-1,153,154,155,-1,155,154,156,-1,155,156,157,-1,158,159,160,-1,160,159,155,-1,160,155,157,-1,158,161,159,-1,159,161,162,-1,161,163,162,-1,162,163,164,-1,162,164,165,-1,165,164,166,-1,165,166,167,-1,167,166,168,-1,167,168,169,-1,169,168,170,-1,169,170,171,-1,171,170,172,-1,171,172,173,-1,173,172,174,-1,173,174,175,-1,176,175,177,-1,177,175,174,-1,176,177,178,-1,176,178,179,-1,179,178,180,-1,179,180,181,-1,181,180,182,-1,181,182,183,-1,183,182,184,-1,183,184,185,-1,184,186,185,-1,185,186,187,-1,185,187,188,-1,188,187,189,-1,188,189,190,-1,190,189,191,-1,190,191,192,-1,139,137,193,-1,193,137,192,-1,193,192,191,-1,143,145,192,-1,137,136,192,-1,192,136,140,-1,192,140,143,-1,150,153,148,-1,148,153,155,-1,148,155,146,-1,145,146,192,-1,192,146,155,-1,192,155,190,-1,175,176,173,-1,173,176,179,-1,173,179,171,-1,171,179,181,-1,171,181,169,-1,169,181,183,-1,169,183,167,-1,167,183,185,-1,167,185,165,-1,165,185,188,-1,165,188,162,-1,162,188,190,-1,162,190,159,-1,159,190,155,-1,194,195,196,-1,196,195,197,-1,194,196,198,-1,198,196,199,-1,198,199,200,-1,201,198,202,-1,202,198,200,-1,201,202,203,-1,203,202,204,-1,203,204,205,-1,206,203,207,-1,207,203,205,-1,208,209,210,-1,210,209,206,-1,210,206,207,-1,211,209,212,-1,212,209,208,-1,213,214,215,-1,215,214,211,-1,215,211,212,-1,216,214,217,-1,217,214,213,-1,218,219,220,-1,220,219,216,-1,220,216,217,-1,221,219,222,-1,222,219,218,-1,221,222,195,-1,195,222,223,-1,195,223,197,-1,221,195,194,-1,194,198,221,-1,221,198,201,-1,221,201,219,-1,214,216,211,-1,211,216,219,-1,211,219,209,-1,209,219,201,-1,209,201,206,-1,206,201,203,-1,224,225,226,-1,226,225,227,-1,226,227,228,-1,228,227,229,-1,228,229,230,-1,230,229,231,-1,230,231,232,-1,232,231,233,-1,232,233,234,-1,234,233,235,-1,234,235,236,-1,236,235,237,-1,236,237,238,-1,238,237,239,-1,238,239,240,-1,240,239,241,-1,240,241,242,-1,242,241,243,-1,242,243,244,-1,244,243,245,-1,244,245,246,-1,246,245,247,-1,246,247,248,-1,248,247,249,-1,248,249,250,-1,250,249,251,-1,250,251,252,-1,252,251,253,-1,252,253,254,-1,254,253,255,-1,254,255,256,-1,256,255,257,-1,256,257,224,-1,224,257,258,-1,224,258,225,-1,230,232,259,-1,259,232,260,-1,230,259,261,-1,230,261,228,-1,228,261,262,-1,228,262,226,-1,226,262,263,-1,226,263,224,-1,224,263,264,-1,224,264,256,-1,256,264,265,-1,256,265,254,-1,254,265,266,-1,254,266,252,-1,252,266,267,-1,252,267,250,-1,250,267,268,-1,250,268,248,-1,248,268,269,-1,248,269,246,-1,246,269,270,-1,246,270,244,-1,244,270,271,-1,244,271,242,-1,242,271,272,-1,242,272,240,-1,240,272,273,-1,240,273,238,-1,238,273,274,-1,238,274,236,-1,234,236,275,-1,275,236,274,-1,232,234,260,-1,260,234,275,-1,237,235,276,-1,276,235,277,-1,235,233,277,-1,277,233,278,-1,233,231,278,-1,278,231,279,-1,258,280,281,-1,258,281,225,-1,225,281,282,-1,225,282,227,-1,227,282,283,-1,227,283,229,-1,229,283,279,-1,229,279,231,-1,251,284,285,-1,251,285,253,-1,253,285,286,-1,253,286,255,-1,255,286,287,-1,255,287,257,-1,257,287,280,-1,257,280,258,-1,243,288,289,-1,243,289,245,-1,245,289,290,-1,245,290,247,-1,247,290,291,-1,247,291,249,-1,249,291,284,-1,249,284,251,-1,237,276,292,-1,237,292,239,-1,239,292,293,-1,239,293,241,-1,241,293,288,-1,241,288,243,-1,
        ]
    }
}
Shape{
    appearance Appearance {
        material  Material 	{
            diffuseColor 0.25098039215686274 0.25098039215686274 0.25098039215686274
            specularColor 0.12549019607843137 0.12549019607843137 0.12549019607843137
            ambientIntensity 0.2
            transparency 0
            shininess 0.5
        }
    }
    geometry IndexedFaceSet {
        ccw TRUE
        solid FALSE
        coord DEF co Coordinate {
            point [
                -0.1071 -0.2586 0.189, -0.1069 -0.2584 0.189, -0.1123 -0.246 0.189, -0.1151 -0.246 0.189, -0.1151 -0.2604 0.189, -0.1124 -0.2604 0.189, -0.1098 -0.2601 0.189, -0.1083 -0.2595 0.189, -0.106 -0.2575 0.189, -0.1054 -0.2561 0.189, -0.1049 -0.2545 0.189, -0.1049 -0.253 0.189, -0.1051 -0.2507 0.189, -0.1057 -0.2493 0.189, -0.1064 -0.2482 0.189, -0.1069 -0.2477 0.189, -0.1099 -0.2463 0.189, -0.1083 -0.2468 0.189, -0.1083 -0.2468 0.189
            ]
        }
        coordIndex [
            0,1,2,-1,3,4,2,-1,2,4,5,-1,5,6,2,-1,2,6,7,-1,2,7,0,-1,1,8,2,-1,2,8,9,-1,2,9,10,-1,10,11,2,-1,2,11,12,-1,2,12,13,-1,13,14,2,-1,2,14,15,-1,2,15,16,-1,16,15,17,-1,
        ]
    }
}
Shape{
    appearance Appearance {
        material  Material 	{
            diffuseColor 1.0 1.0 1.0
            specularColor 0.5019607843137255 0.5019607843137255 0.5019607843137255
            ambientIntensity 0.2
            transparency 0
            shininess 0.5
        }
    }
    geometry IndexedFaceSet {
        ccw TRUE
        solid FALSE
        coord DEF co Coordinate {
            point [
                -0.0961 -0.2553 0.1929, -0.0968 -0.2574 0.1929, -0.0898 -0.2553 0.1929, -0.089 -0.2574 0.1929, -0.0933 -0.2475 0.1929, -0.0942 -0.2438 0.1929, -0.1013 -0.2625 0.1929, -0.0986 -0.2625 0.1929, -0.0931 -0.247 0.1929, -0.093 -0.2462 0.1929, -0.0916 -0.2438 0.1929, -0.0929 -0.2462 0.1929, -0.0927 -0.247 0.1929, -0.0926 -0.2475 0.1929, -0.0845 -0.2625 0.1929, -0.0871 -0.2625 0.1929, -0.0916 -0.2438 0.189, -0.0845 -0.2625 0.189, -0.0942 -0.2438 0.189, -0.1013 -0.2625 0.189, -0.0986 -0.2625 0.189, -0.0968 -0.2574 0.189, -0.089 -0.2574 0.189, -0.0871 -0.2625 0.189, -0.0961 -0.2553 0.189, -0.0898 -0.2553 0.189, -0.0926 -0.2475 0.189, -0.0929 -0.2462 0.189, -0.0927 -0.247 0.189, -0.093 -0.2462 0.189, -0.0933 -0.2475 0.189, -0.0931 -0.247 0.189, -0.0931 -0.247 0.189
            ]
        }
        coordIndex [
            0,1,2,-1,2,1,3,-1,4,5,0,-1,0,5,6,-1,0,6,1,-1,1,6,7,-1,4,8,5,-1,5,8,9,-1,5,9,10,-1,10,9,11,-1,10,11,12,-1,12,13,10,-1,10,13,2,-1,10,2,14,-1,14,2,3,-1,14,3,15,-1,10,14,16,-1,16,14,17,-1,5,10,18,-1,18,10,16,-1,6,5,19,-1,19,5,18,-1,7,6,20,-1,20,6,19,-1,1,7,21,-1,21,7,20,-1,3,1,22,-1,22,1,21,-1,15,3,23,-1,23,3,22,-1,14,15,17,-1,17,15,23,-1,0,2,24,-1,24,2,25,-1,2,13,25,-1,25,13,26,-1,11,27,28,-1,11,28,12,-1,12,28,26,-1,12,26,13,-1,11,9,27,-1,27,9,29,-1,4,30,31,-1,4,31,8,-1,8,31,29,-1,8,29,9,-1,4,0,30,-1,30,0,24,-1,
        ]
    }
}
Shape{
    appearance Appearance {
        material  Material 	{
            diffuseColor 0.25098039215686274 0.25098039215686274 0.25098039215686274
            specularColor 0.12549019607843137 0.12549019607843137 0.12549019607843137
            ambientIntensity 0.2
            transparency 0
            shininess 0.5
        }
    }
    geometry IndexedFaceSet {
        ccw TRUE
        solid FALSE
        coord DEF co Coordinate {
            point [
                -0.0929 -0.2462 0.189, -0.093 -0.2462 0.189, -0.0927 -0.247 0.189, -0.0931 -0.247 0.189, -0.0926 -0.2475 0.189, -0.0933 -0.2475 0.189, -0.0898 -0.2553 0.189, -0.0961 -0.2553 0.189, -0.0961 -0.2553 0.189
            ]
        }
        coordIndex [
            0,1,2,-1,2,1,3,-1,2,3,4,-1,4,3,5,-1,4,5,6,-1,6,5,7,-1,
        ]
    }
}
Shape{
    appearance Appearance {
        material  Material 	{
            diffuseColor 1.0 1.0 1.0
            specularColor 0.5019607843137255 0.5019607843137255 0.5019607843137255
            ambientIntensity 0.2
            transparency 0
            shininess 0.5
        }
    }
    geometry IndexedFaceSet {
        ccw TRUE
        solid FALSE
        coord DEF co Coordinate {
            point [
                -0.2654 -0.2652 0.1929, -0.2634 -0.2676 0.1929, -0.2666 -0.2534 0.1929, -0.2494 -0.2564 0.1929, -0.2491 -0.2576 0.1929, -0.2222 -0.2469 0.1929, -0.2542 -0.253 0.1929, -0.2531 -0.2531 0.1929, -0.2441 -0.2492 0.1929, -0.2689 -0.2303 0.1929, -0.2659 -0.2288 0.1929, -0.2662 -0.2205 0.1929, -0.2518 -0.2536 0.1929, -0.2508 -0.2543 0.1929, -0.2499 -0.2553 0.1929, -0.2614 -0.2199 0.1929, -0.2263 -0.2399 0.1929, -0.2491 -0.2588 0.1929, -0.2408 -0.2581 0.1929, -0.2408 -0.2567 0.1929, -0.2456 -0.2195 0.1929, -0.2493 -0.2124 0.1929, -0.2525 -0.2144 0.1929, -0.2694 -0.2516 0.1929, -0.2688 -0.2617 0.1929, -0.2667 -0.2623 0.1929, -0.2178 -0.2338 0.1929, -0.2167 -0.2338 0.1929, -0.2113 -0.2266 0.1929, -0.2142 -0.2341 0.1929, -0.2106 -0.2268 0.1929, -0.2119 -0.235 0.1929, -0.2067 -0.2288 0.1929, -0.2031 -0.2318 0.1929, -0.2493 -0.2222 0.1929, -0.2556 -0.217 0.1929, -0.2522 -0.2258 0.1929, -0.2583 -0.2202 0.1929, -0.2542 -0.2299 0.1929, -0.2626 -0.228 0.1929, -0.2612 -0.2279 0.1929, -0.2598 -0.22 0.1929, -0.2582 -0.2283 0.1929, -0.2552 -0.2294 0.1929, -0.2575 -0.2622 0.1929, -0.2564 -0.2629 0.1929, -0.2608 -0.2696 0.1929, -0.2552 -0.2633 0.1929, -0.2554 -0.2532 0.1929, -0.2572 -0.245 0.1929, -0.2565 -0.2536 0.1929, -0.2602 -0.2462 0.1929, -0.2576 -0.2543 0.1929, -0.2629 -0.2481 0.1929, -0.2584 -0.2552 0.1929, -0.2651 -0.2506 0.1929, -0.2591 -0.2564 0.1929, -0.2594 -0.2577 0.1929, -0.2031 -0.2566 0.1929, -0.2093 -0.2513 0.1929, -0.2067 -0.2597 0.1929, -0.2112 -0.2529 0.1929, -0.2107 -0.2617 0.1929, -0.2136 -0.254 0.1929, -0.2152 -0.2626 0.1929, -0.2159 -0.2545 0.1929, -0.223 -0.2626 0.1929, -0.2219 -0.2545 0.1929, -0.2237 -0.2625 0.1929, -0.2718 -0.2492 0.1929, -0.2773 -0.2559 0.1929, -0.2736 -0.2592 0.1929, -0.2741 -0.238 0.1929, -0.2829 -0.2401 0.1929, -0.2745 -0.2412 0.1929, -0.2829 -0.2415 0.1929, -0.2744 -0.2432 0.1929, -0.2823 -0.2463 0.1929, -0.2734 -0.2465 0.1929, -0.2805 -0.2513 0.1929, -0.2777 -0.2555 0.1929, -0.2492 -0.2455 0.1929, -0.2525 -0.2448 0.1929, -0.2541 -0.2447 0.1929, -0.2098 -0.2364 0.1929, -0.2083 -0.2381 0.1929, -0.2004 -0.2356 0.1929, -0.2071 -0.2404 0.1929, -0.1988 -0.2397 0.1929, -0.2064 -0.243 0.1929, -0.1981 -0.244 0.1929, -0.2064 -0.2441 0.1929, -0.1988 -0.2488 0.1929, -0.2067 -0.2467 0.1929, -0.2004 -0.253 0.1929, -0.2076 -0.2491 0.1929, -0.2091 -0.2511 0.1929, -0.2185 -0.2161 0.1929, -0.2235 -0.2223 0.1929, -0.2141 -0.2211 0.1929, -0.2206 -0.2259 0.1929, -0.2186 -0.2302 0.1929, -0.2712 -0.2223 0.1929, -0.2756 -0.2253 0.1929, -0.2712 -0.2324 0.1929, -0.2767 -0.2263 0.1929, -0.273 -0.235 0.1929, -0.2797 -0.2301 0.1929, -0.2819 -0.2348 0.1929, -0.2584 -0.2613 0.1929, -0.259 -0.2602 0.1929, -0.2593 -0.259 0.1929, -0.2431 -0.21 0.1929, -0.2412 -0.2178 0.1929, -0.2365 -0.2092 0.1929, -0.2364 -0.2172 0.1929, -0.2311 -0.2098 0.1929, -0.232 -0.2177 0.1929, -0.2244 -0.2121 0.1929, -0.2278 -0.2193 0.1929, -0.224 -0.2219 0.1929, -0.2464 -0.2471 0.1929, -0.2226 -0.2544 0.1929, -0.2258 -0.2612 0.1929, -0.2255 -0.2615 0.1929, -0.2222 -0.2544 0.1929, -0.2246 -0.2621 0.1929, -0.2577 -0.2709 0.1929, -0.2546 -0.2713 0.1929, -0.2542 -0.2634 0.1929, -0.2541 -0.2714 0.1929, -0.253 -0.2633 0.1929, -0.2509 -0.271 0.1929, -0.2519 -0.2628 0.1929, -0.2479 -0.2698 0.1929, -0.2508 -0.2621 0.1929, -0.2453 -0.268 0.1929, -0.25 -0.2612 0.1929, -0.2432 -0.2657 0.1929, -0.2494 -0.26 0.1929, -0.2416 -0.2627 0.1929, -0.2409 -0.2594 0.1929, -0.2268 -0.2585 0.1929, -0.2267 -0.2595 0.1929, -0.2264 -0.2604 0.1929, -0.2237 -0.2545 0.1929, -0.2246 -0.2548 0.1929, -0.2268 -0.258 0.1929, -0.2255 -0.2554 0.1929, -0.2261 -0.2561 0.1929, -0.2266 -0.257 0.1929, -0.2227 -0.2544 0.1929, -0.1981 -0.244 0.189, -0.1988 -0.2397 0.189, -0.1992 -0.2385 0.189, -0.2004 -0.2356 0.189, -0.2022 -0.233 0.189, -0.2031 -0.2318 0.189, -0.2067 -0.2288 0.189, -0.2106 -0.2268 0.189, -0.2113 -0.2266 0.189, -0.2141 -0.2211 0.189, -0.2185 -0.2161 0.189, -0.2215 -0.214 0.189, -0.2244 -0.2121 0.189, -0.2311 -0.2098 0.189, -0.2365 -0.2092 0.189, -0.2525 -0.2144 0.189, -0.252 -0.214 0.189, -0.2493 -0.2124 0.189, -0.2431 -0.21 0.189, -0.2556 -0.217 0.189, -0.2583 -0.2202 0.189, -0.2598 -0.22 0.189, -0.2614 -0.2199 0.189, -0.2662 -0.2205 0.189, -0.2675 -0.221 0.189, -0.2712 -0.2223 0.189, -0.2756 -0.2253 0.189, -0.2767 -0.2263 0.189, -0.2829 -0.2415 0.189, -0.2797 -0.2301 0.189, -0.281 -0.233 0.189, -0.2819 -0.2348 0.189, -0.2826 -0.2385 0.189, -0.2829 -0.2401 0.189, -0.2823 -0.2463 0.189, -0.2805 -0.2513 0.189, -0.2777 -0.2555 0.189, -0.2773 -0.2559 0.189, -0.2667 -0.2623 0.189, -0.2675 -0.2621 0.189, -0.2688 -0.2617 0.189, -0.2736 -0.2592 0.189, -0.2665 -0.2627 0.189, -0.2654 -0.2652 0.189, -0.2634 -0.2676 0.189, -0.2608 -0.2696 0.189, -0.2596 -0.2701 0.189, -0.2577 -0.2709 0.189, -0.2546 -0.2713 0.189, -0.2541 -0.2714 0.189, -0.2408 -0.2581 0.189, -0.2509 -0.271 0.189, -0.2486 -0.2701 0.189, -0.2479 -0.2698 0.189, -0.2453 -0.268 0.189, -0.2432 -0.2657 0.189, -0.2416 -0.2627 0.189, -0.2416 -0.2627 0.189, -0.2409 -0.2594 0.189, -0.2408 -0.2567 0.189, -0.2222 -0.2469 0.189, -0.2263 -0.2399 0.189, -0.2441 -0.2492 0.189, -0.2464 -0.2471 0.189, -0.2492 -0.2455 0.189, -0.2525 -0.2448 0.189, -0.2541 -0.2447 0.189, -0.2572 -0.245 0.189, -0.2602 -0.2462 0.189, -0.2629 -0.2481 0.189, -0.2651 -0.2506 0.189, -0.2666 -0.2534 0.189, -0.2675 -0.2528 0.189, -0.2694 -0.2516 0.189, -0.2718 -0.2492 0.189, -0.2734 -0.2465 0.189, -0.2744 -0.2432 0.189, -0.2745 -0.2412 0.189, -0.2742 -0.2385 0.189, -0.2741 -0.238 0.189, -0.273 -0.235 0.189, -0.2716 -0.233 0.189, -0.2712 -0.2324 0.189, -0.2689 -0.2303 0.189, -0.2675 -0.2296 0.189, -0.2659 -0.2288 0.189, -0.2626 -0.228 0.189, -0.2612 -0.2279 0.189, -0.2582 -0.2283 0.189, -0.2552 -0.2294 0.189, -0.2542 -0.2299 0.189, -0.2522 -0.2258 0.189, -0.2493 -0.2222 0.189, -0.2456 -0.2195 0.189, -0.2412 -0.2178 0.189, -0.2364 -0.2172 0.189, -0.2178 -0.2338 0.189, -0.218 -0.233 0.189, -0.2186 -0.2302 0.189, -0.2206 -0.2259 0.189, -0.2235 -0.2223 0.189, -0.224 -0.2219 0.189, -0.2278 -0.2193 0.189, -0.232 -0.2177 0.189, -0.2167 -0.2338 0.189, -0.2142 -0.2341 0.189, -0.2119 -0.235 0.189, -0.2098 -0.2364 0.189, -0.2083 -0.2381 0.189, -0.2081 -0.2385 0.189, -0.2071 -0.2404 0.189, -0.2064 -0.243 0.189, -0.2064 -0.2441 0.189, -0.2067 -0.2467 0.189, -0.2076 -0.2491 0.189, -0.2091 -0.2511 0.189, -0.2093 -0.2513 0.189, -0.2112 -0.2529 0.189, -0.2136 -0.254 0.189, -0.2159 -0.2545 0.189, -0.2219 -0.2545 0.189, -0.2222 -0.2544 0.189, -0.2226 -0.2544 0.189, -0.2227 -0.2544 0.189, -0.2237 -0.2545 0.189, -0.2246 -0.2548 0.189, -0.2255 -0.2554 0.189, -0.2261 -0.2561 0.189, -0.2266 -0.257 0.189, -0.2268 -0.258 0.189, -0.2268 -0.2585 0.189, -0.2267 -0.2595 0.189, -0.2264 -0.2604 0.189, -0.2258 -0.2612 0.189, -0.2255 -0.2615 0.189, -0.2246 -0.2621 0.189, -0.2237 -0.2625 0.189, -0.223 -0.2626 0.189, -0.2152 -0.2626 0.189, -0.2107 -0.2617 0.189, -0.2067 -0.2597 0.189, -0.2031 -0.2566 0.189, -0.2004 -0.253 0.189, -0.1988 -0.2488 0.189, -0.2542 -0.253 0.189, -0.2531 -0.2531 0.189, -0.2518 -0.2536 0.189, -0.2508 -0.2543 0.189, -0.2499 -0.2553 0.189, -0.2494 -0.2564 0.189, -0.2491 -0.2576 0.189, -0.2491 -0.2588 0.189, -0.2494 -0.26 0.189, -0.25 -0.2612 0.189, -0.2508 -0.2621 0.189, -0.2519 -0.2628 0.189, -0.253 -0.2633 0.189, -0.2542 -0.2634 0.189, -0.2552 -0.2633 0.189, -0.2564 -0.2629 0.189, -0.2575 -0.2622 0.189, -0.2584 -0.2613 0.189, -0.259 -0.2602 0.189, -0.2593 -0.259 0.189, -0.2594 -0.2577 0.189, -0.2591 -0.2564 0.189, -0.2584 -0.2552 0.189, -0.2576 -0.2543 0.189, -0.2565 -0.2536 0.189, -0.2554 -0.2532 0.189, -0.2554 -0.2532 0.189
            ]
        }
        coordIndex [
            0,1,2,-1,3,4,5,-1,6,7,8,-1,9,10,11,-1,7,12,8,-1,8,12,13,-1,8,13,14,-1,11,10,15,-1,3,5,14,-1,14,5,16,-1,14,16,8,-1,17,18,4,-1,4,18,19,-1,4,19,5,-1,20,21,22,-1,23,24,2,-1,2,24,25,-1,2,25,0,-1,26,27,28,-1,28,27,29,-1,28,29,30,-1,30,29,31,-1,30,31,32,-1,32,31,33,-1,20,22,34,-1,34,22,35,-1,34,35,36,-1,36,35,37,-1,36,37,38,-1,10,39,15,-1,15,39,40,-1,15,40,41,-1,41,40,42,-1,41,42,37,-1,37,42,43,-1,37,43,38,-1,44,1,45,-1,45,1,46,-1,45,46,47,-1,48,49,50,-1,50,49,51,-1,50,51,52,-1,52,51,53,-1,52,53,54,-1,54,53,55,-1,54,55,56,-1,56,55,2,-1,56,2,57,-1,58,59,60,-1,60,59,61,-1,60,61,62,-1,62,61,63,-1,62,63,64,-1,64,63,65,-1,64,65,66,-1,66,65,67,-1,66,67,68,-1,69,70,23,-1,23,70,71,-1,23,71,24,-1,72,73,74,-1,74,73,75,-1,74,75,76,-1,76,75,77,-1,76,77,78,-1,78,77,79,-1,78,79,69,-1,69,79,80,-1,69,80,70,-1,81,82,48,-1,48,82,83,-1,48,83,49,-1,31,84,33,-1,33,84,85,-1,33,85,86,-1,86,85,87,-1,86,87,88,-1,88,87,89,-1,88,89,90,-1,90,89,91,-1,90,91,92,-1,92,91,93,-1,92,93,94,-1,94,93,95,-1,94,95,58,-1,58,95,96,-1,58,96,59,-1,97,98,99,-1,99,98,100,-1,99,100,28,-1,28,100,101,-1,28,101,26,-1,11,102,9,-1,9,102,103,-1,9,103,104,-1,104,103,105,-1,104,105,106,-1,106,105,107,-1,106,107,72,-1,72,107,108,-1,72,108,73,-1,44,109,1,-1,1,109,110,-1,1,110,2,-1,2,110,111,-1,2,111,57,-1,21,20,112,-1,112,20,113,-1,112,113,114,-1,114,113,115,-1,114,115,116,-1,116,115,117,-1,116,117,118,-1,118,117,119,-1,118,119,97,-1,97,119,120,-1,97,120,98,-1,6,8,48,-1,48,8,121,-1,48,121,81,-1,122,123,124,-1,67,125,68,-1,68,125,122,-1,68,122,126,-1,126,122,124,-1,46,127,47,-1,47,127,128,-1,47,128,129,-1,129,128,130,-1,129,130,131,-1,131,130,132,-1,131,132,133,-1,133,132,134,-1,133,134,135,-1,135,134,136,-1,135,136,137,-1,137,136,138,-1,137,138,139,-1,139,138,140,-1,139,140,17,-1,17,140,141,-1,17,141,18,-1,142,143,122,-1,122,143,144,-1,122,144,123,-1,145,146,147,-1,146,148,147,-1,147,148,149,-1,147,149,150,-1,142,122,147,-1,147,122,151,-1,147,151,145,-1,90,152,153,-1,90,153,88,-1,88,153,154,-1,88,154,86,-1,154,155,86,-1,86,155,156,-1,86,156,33,-1,156,157,33,-1,33,157,158,-1,33,158,32,-1,32,158,159,-1,32,159,30,-1,30,159,160,-1,30,160,28,-1,28,160,161,-1,28,161,99,-1,99,161,162,-1,99,162,97,-1,97,162,118,-1,118,162,163,-1,163,164,118,-1,118,164,165,-1,118,165,116,-1,116,165,166,-1,116,166,114,-1,167,22,168,-1,168,22,21,-1,168,21,169,-1,169,21,112,-1,169,112,170,-1,170,112,114,-1,170,114,166,-1,22,167,171,-1,22,171,35,-1,35,171,172,-1,35,172,37,-1,37,172,173,-1,37,173,41,-1,41,173,174,-1,41,174,15,-1,15,174,175,-1,15,175,11,-1,11,175,176,-1,11,176,102,-1,176,177,102,-1,102,177,178,-1,102,178,103,-1,103,178,179,-1,103,179,105,-1,180,75,73,-1,105,179,181,-1,105,181,107,-1,107,181,182,-1,107,182,108,-1,182,183,108,-1,108,183,184,-1,108,184,73,-1,73,184,185,-1,73,185,180,-1,75,180,186,-1,75,186,77,-1,77,186,187,-1,77,187,79,-1,79,187,188,-1,79,188,80,-1,80,188,189,-1,80,189,70,-1,190,25,191,-1,191,25,24,-1,191,24,192,-1,192,24,71,-1,192,71,193,-1,193,71,70,-1,193,70,189,-1,25,190,194,-1,25,194,0,-1,194,195,0,-1,0,195,196,-1,0,196,1,-1,1,196,197,-1,1,197,46,-1,46,197,198,-1,46,198,127,-1,198,199,127,-1,127,199,200,-1,127,200,128,-1,128,200,201,-1,128,201,130,-1,202,18,141,-1,130,201,203,-1,130,203,132,-1,132,203,204,-1,132,204,134,-1,204,205,134,-1,134,205,206,-1,134,206,136,-1,136,206,207,-1,136,207,138,-1,138,207,208,-1,138,208,140,-1,140,208,209,-1,140,209,141,-1,141,209,210,-1,141,210,202,-1,19,18,211,-1,211,18,202,-1,5,19,212,-1,212,19,211,-1,16,5,213,-1,213,5,212,-1,8,16,214,-1,214,16,213,-1,8,214,215,-1,8,215,121,-1,121,215,216,-1,121,216,81,-1,81,216,217,-1,81,217,82,-1,82,217,218,-1,82,218,83,-1,83,218,219,-1,83,219,49,-1,49,219,220,-1,49,220,51,-1,51,220,221,-1,51,221,53,-1,53,221,222,-1,53,222,55,-1,55,222,223,-1,55,223,2,-1,2,223,224,-1,2,224,23,-1,224,225,23,-1,23,225,226,-1,23,226,69,-1,69,226,227,-1,69,227,78,-1,78,227,228,-1,78,228,76,-1,76,228,229,-1,76,229,74,-1,229,230,74,-1,74,230,72,-1,230,231,72,-1,72,231,232,-1,72,232,106,-1,106,232,233,-1,106,233,104,-1,233,234,104,-1,104,234,235,-1,104,235,9,-1,9,235,236,-1,9,236,10,-1,236,237,10,-1,10,237,238,-1,10,238,39,-1,39,238,239,-1,39,239,40,-1,40,239,240,-1,40,240,42,-1,42,240,241,-1,42,241,43,-1,43,241,242,-1,43,242,38,-1,38,242,243,-1,38,243,36,-1,36,243,244,-1,36,244,34,-1,34,244,245,-1,34,245,20,-1,20,245,246,-1,20,246,113,-1,113,246,247,-1,113,247,115,-1,248,26,249,-1,249,26,101,-1,249,101,250,-1,250,101,100,-1,250,100,251,-1,251,100,98,-1,251,98,252,-1,252,98,120,-1,252,120,253,-1,253,120,119,-1,253,119,254,-1,254,119,117,-1,254,117,255,-1,255,117,115,-1,255,115,247,-1,27,26,256,-1,256,26,248,-1,27,256,257,-1,27,257,29,-1,29,257,258,-1,29,258,31,-1,31,258,259,-1,31,259,84,-1,84,259,260,-1,84,260,85,-1,85,260,261,-1,85,261,87,-1,261,262,87,-1,87,262,263,-1,87,263,89,-1,89,263,264,-1,89,264,91,-1,91,264,265,-1,91,265,93,-1,93,265,266,-1,93,266,95,-1,95,266,267,-1,95,267,96,-1,96,267,268,-1,96,268,59,-1,59,268,269,-1,59,269,61,-1,61,269,270,-1,61,270,63,-1,63,270,271,-1,63,271,65,-1,67,65,272,-1,272,65,271,-1,67,272,273,-1,67,273,125,-1,125,273,274,-1,125,274,122,-1,122,274,275,-1,122,275,151,-1,151,275,276,-1,151,276,145,-1,145,276,277,-1,145,277,146,-1,146,277,278,-1,146,278,148,-1,148,278,279,-1,148,279,149,-1,149,279,280,-1,149,280,150,-1,150,280,281,-1,150,281,147,-1,147,281,282,-1,147,282,142,-1,142,282,283,-1,142,283,143,-1,143,283,284,-1,143,284,144,-1,144,284,285,-1,144,285,123,-1,123,285,286,-1,123,286,124,-1,124,286,287,-1,124,287,126,-1,126,287,288,-1,126,288,68,-1,68,288,289,-1,68,289,66,-1,64,66,290,-1,290,66,289,-1,64,290,291,-1,64,291,62,-1,62,291,292,-1,62,292,60,-1,60,292,293,-1,60,293,58,-1,58,293,294,-1,58,294,94,-1,94,294,295,-1,94,295,92,-1,92,295,152,-1,92,152,90,-1,6,296,297,-1,6,297,7,-1,7,297,298,-1,7,298,12,-1,12,298,299,-1,12,299,13,-1,13,299,300,-1,13,300,14,-1,14,300,301,-1,14,301,3,-1,3,301,302,-1,3,302,4,-1,4,302,303,-1,4,303,17,-1,17,303,304,-1,17,304,139,-1,139,304,305,-1,139,305,137,-1,137,305,306,-1,137,306,135,-1,135,306,307,-1,135,307,133,-1,133,307,308,-1,133,308,131,-1,131,308,309,-1,131,309,129,-1,129,309,310,-1,129,310,47,-1,47,310,311,-1,47,311,45,-1,45,311,312,-1,45,312,44,-1,44,312,313,-1,44,313,109,-1,109,313,314,-1,109,314,110,-1,110,314,315,-1,110,315,111,-1,111,315,316,-1,111,316,57,-1,57,316,317,-1,57,317,56,-1,56,317,318,-1,56,318,54,-1,54,318,319,-1,54,319,52,-1,52,319,320,-1,52,320,50,-1,50,320,321,-1,50,321,48,-1,48,321,296,-1,48,296,6,-1,
        ]
    }
}
Shape{
    appearance Appearance {
        material  Material 	{
            diffuseColor 0.25098039215686274 0.25098039215686274 0.25098039215686274
            specularColor 0.12549019607843137 0.12549019607843137 0.12549019607843137
            ambientIntensity 0.2
            transparency 0
            shininess 0.5
        }
    }
    geometry IndexedFaceSet {
        ccw TRUE
        solid FALSE
        coord DEF co Coordinate {
            point [
                -0.2552 -0.2633 0.189, -0.2542 -0.2634 0.189, -0.2542 -0.253 0.189, -0.2519 -0.2628 0.189, -0.2491 -0.2588 0.189, -0.253 -0.2633 0.189, -0.2491 -0.2576 0.189, -0.2494 -0.2564 0.189, -0.2499 -0.2553 0.189, -0.2508 -0.2543 0.189, -0.2565 -0.2536 0.189, -0.2584 -0.2613 0.189, -0.2575 -0.2622 0.189, -0.2518 -0.2536 0.189, -0.2531 -0.2531 0.189, -0.259 -0.2602 0.189, -0.2576 -0.2543 0.189, -0.2593 -0.259 0.189, -0.2554 -0.2532 0.189, -0.2564 -0.2629 0.189, -0.2508 -0.2621 0.189, -0.25 -0.2612 0.189, -0.2494 -0.26 0.189, -0.2594 -0.2577 0.189, -0.2584 -0.2552 0.189, -0.2591 -0.2564 0.189, -0.2591 -0.2564 0.189
            ]
        }
        coordIndex [
            0,1,2,-1,3,4,5,-1,5,4,6,-1,5,6,1,-1,6,7,1,-1,1,7,8,-1,1,8,9,-1,10,11,12,-1,9,13,1,-1,1,13,14,-1,1,14,2,-1,11,10,15,-1,15,10,16,-1,15,16,17,-1,2,18,0,-1,0,18,10,-1,0,10,19,-1,19,10,12,-1,3,20,4,-1,4,20,21,-1,4,21,22,-1,17,16,23,-1,23,16,24,-1,23,24,25,-1,
        ]
    }
}