ISO-10303-21;
HEADER;
/* Generated by software containing ST-Developer
 * from STEP Tools, Inc. (www.steptools.com) 
 */
/* OPTION: using custom schema-name function */

FILE_DESCRIPTION(
/* description */ (''),
/* implementation_level */ '2;1');

FILE_NAME(
/* name */ 'PS1-CO.stp',
/* time_stamp */ '2026-08-12T13:03:16+08:00',
/* author */ (''),
/* organization */ (''),
/* preprocessor_version */ 'ST-DEVELOPER v16.7',
/* originating_system */ 'SIEMENS PLM Software NX 12.0',
/* authorisation */ '');

FILE_SCHEMA (('AUTOMOTIVE_DESIGN { 1 0 10303 214 3 1 1 1 }'));
ENDSEC;

DATA;
#10=PROPERTY_DEFINITION_REPRESENTATION(#14,#12);
#11=PROPERTY_DEFINITION_REPRESENTATION(#15,#13);
#12=REPRESENTATION('',(#16),#1227);
#13=REPRESENTATION('',(#17),#1227);
#14=PROPERTY_DEFINITION('pmi validation property','',#21);
#15=PROPERTY_DEFINITION('pmi validation property','',#21);
#16=VALUE_REPRESENTATION_ITEM('number of annotations',COUNT_MEASURE(0.));
#17=VALUE_REPRESENTATION_ITEM('number of views',COUNT_MEASURE(0.));
#18=SHAPE_REPRESENTATION_RELATIONSHIP('None',
'relationship between Joff494C63CEmwfq-None and Joff494C63CEmwfq-None',
#30,#19);
#19=ADVANCED_BREP_SHAPE_REPRESENTATION('Joff494C63CEmwfq-None',(#40),#1227);
#20=SHAPE_DEFINITION_REPRESENTATION(#21,#30);
#21=PRODUCT_DEFINITION_SHAPE('','',#22);
#22=PRODUCT_DEFINITION(' ','',#24,#23);
#23=PRODUCT_DEFINITION_CONTEXT('part definition',#29,'design');
#24=PRODUCT_DEFINITION_FORMATION_WITH_SPECIFIED_SOURCE(' ',' ',#26,
 .NOT_KNOWN.);
#25=PRODUCT_RELATED_PRODUCT_CATEGORY('part','',(#26));
#26=PRODUCT('Joff494C63CEmwfq','Joff494C63CEmwfq',' ',(#27));
#27=PRODUCT_CONTEXT(' ',#29,'mechanical');
#28=APPLICATION_PROTOCOL_DEFINITION('international standard',
'automotive_design',2010,#29);
#29=APPLICATION_CONTEXT(
'core data for automotive mechanical design processes');
#30=SHAPE_REPRESENTATION('Joff494C63CEmwfq-None',(#716),#1227);
#31=PRESENTATION_LAYER_ASSIGNMENT('2','Layer 2',(#40));
#32=STYLED_ITEM('',(#33),#40);
#33=PRESENTATION_STYLE_ASSIGNMENT((#34));
#34=SURFACE_STYLE_USAGE(.BOTH.,#35);
#35=SURFACE_SIDE_STYLE('',(#36));
#36=SURFACE_STYLE_FILL_AREA(#37);
#37=FILL_AREA_STYLE('',(#38));
#38=FILL_AREA_STYLE_COLOUR('',#39);
#39=COLOUR_RGB('Granite Gray',0.4,0.4,0.4);
#40=MANIFOLD_SOLID_BREP('',#41);
#41=CLOSED_SHELL('',(#132,#133,#134,#135,#136,#137,#138,#139,#140,#141,
#142,#143,#144,#145,#146,#147,#148,#149,#150,#151,#152,#153,#154,#155,#156,
#157,#158,#159,#160,#161,#162,#163,#164,#165,#166,#167,#168,#169,#170,#171,
#172,#173,#174,#175,#176,#177));
#42=TOROIDAL_SURFACE('',#771,3.2,0.2);
#43=TOROIDAL_SURFACE('',#772,2.8,0.2);
#44=TOROIDAL_SURFACE('',#775,0.8,0.2);
#45=TOROIDAL_SURFACE('',#781,0.8,0.2);
#46=TOROIDAL_SURFACE('',#783,0.8,0.2);
#47=TOROIDAL_SURFACE('',#788,0.8,0.2);
#48=TOROIDAL_SURFACE('',#791,0.8,0.2);
#49=TOROIDAL_SURFACE('',#797,0.8,0.2);
#50=TOROIDAL_SURFACE('',#799,0.8,0.2);
#51=TOROIDAL_SURFACE('',#804,0.8,0.2);
#52=CYLINDRICAL_SURFACE('',#722,1.);
#53=CYLINDRICAL_SURFACE('',#725,1.);
#54=CYLINDRICAL_SURFACE('',#730,3.);
#55=CYLINDRICAL_SURFACE('',#757,1.);
#56=CYLINDRICAL_SURFACE('',#761,1.);
#57=CYLINDRICAL_SURFACE('',#763,0.2);
#58=CYLINDRICAL_SURFACE('',#766,0.2);
#59=CYLINDRICAL_SURFACE('',#769,0.2);
#60=CYLINDRICAL_SURFACE('',#777,0.2);
#61=CYLINDRICAL_SURFACE('',#779,0.2);
#62=CYLINDRICAL_SURFACE('',#785,0.2);
#63=CYLINDRICAL_SURFACE('',#787,0.2);
#64=CYLINDRICAL_SURFACE('',#793,0.2);
#65=CYLINDRICAL_SURFACE('',#795,0.2);
#66=CYLINDRICAL_SURFACE('',#801,0.2);
#67=CYLINDRICAL_SURFACE('',#803,0.2);
#68=CIRCLE('',#720,1.);
#69=CIRCLE('',#721,1.);
#70=CIRCLE('',#723,1.);
#71=CIRCLE('',#724,1.);
#72=CIRCLE('',#726,2.8);
#73=CIRCLE('',#728,3.);
#74=CIRCLE('',#729,3.);
#75=CIRCLE('',#731,3.2);
#76=CIRCLE('',#732,0.8);
#77=CIRCLE('',#733,0.8);
#78=CIRCLE('',#734,0.8);
#79=CIRCLE('',#735,0.8);
#80=CIRCLE('',#737,0.8);
#81=CIRCLE('',#738,0.8);
#82=CIRCLE('',#739,0.8);
#83=CIRCLE('',#740,0.8);
#84=CIRCLE('',#741,0.2);
#85=CIRCLE('',#742,0.2);
#86=CIRCLE('',#743,0.2);
#87=CIRCLE('',#755,1.);
#88=CIRCLE('',#756,1.);
#89=CIRCLE('',#759,1.);
#90=CIRCLE('',#760,1.);
#91=CIRCLE('',#762,0.2);
#92=CIRCLE('',#765,0.2);
#93=CIRCLE('',#768,0.2);
#94=CIRCLE('',#773,0.2);
#95=CIRCLE('',#774,0.2);
#96=CIRCLE('',#776,0.2);
#97=CIRCLE('',#778,0.2);
#98=CIRCLE('',#780,0.2);
#99=CIRCLE('',#782,0.2);
#100=CIRCLE('',#784,0.2);
#101=CIRCLE('',#786,0.2);
#102=CIRCLE('',#789,0.2);
#103=CIRCLE('',#790,0.2);
#104=CIRCLE('',#792,0.2);
#105=CIRCLE('',#794,0.2);
#106=CIRCLE('',#796,0.2);
#107=CIRCLE('',#798,0.2);
#108=CIRCLE('',#800,0.2);
#109=CIRCLE('',#802,0.2);
#110=FACE_BOUND('',#235,.T.);
#111=FACE_BOUND('',#236,.T.);
#112=FACE_BOUND('',#237,.T.);
#113=FACE_BOUND('',#238,.T.);
#114=FACE_BOUND('',#242,.T.);
#115=FACE_BOUND('',#243,.T.);
#116=FACE_BOUND('',#244,.T.);
#117=FACE_BOUND('',#245,.T.);
#118=FACE_BOUND('',#246,.T.);
#119=FACE_BOUND('',#247,.T.);
#120=FACE_BOUND('',#248,.T.);
#121=FACE_BOUND('',#249,.T.);
#122=FACE_BOUND('',#263,.T.);
#123=FACE_BOUND('',#264,.T.);
#124=FACE_BOUND('',#266,.T.);
#125=FACE_BOUND('',#267,.T.);
#126=FACE_BOUND('',#269,.T.);
#127=FACE_BOUND('',#270,.T.);
#128=FACE_BOUND('',#272,.T.);
#129=FACE_BOUND('',#273,.T.);
#130=FACE_BOUND('',#274,.T.);
#131=FACE_BOUND('',#275,.T.);
#132=ADVANCED_FACE('',(#198),#178,.F.);
#133=ADVANCED_FACE('',(#110,#111),#179,.T.);
#134=ADVANCED_FACE('',(#112,#113),#180,.T.);
#135=ADVANCED_FACE('',(#199),#52,.T.);
#136=ADVANCED_FACE('',(#200),#53,.T.);
#137=ADVANCED_FACE('',(#201),#181,.T.);
#138=ADVANCED_FACE('',(#114,#115),#54,.T.);
#139=ADVANCED_FACE('',(#116,#117),#182,.F.);
#140=ADVANCED_FACE('',(#118,#119,#120,#121),#183,.F.);
#141=ADVANCED_FACE('',(#202),#184,.F.);
#142=ADVANCED_FACE('',(#203),#185,.T.);
#143=ADVANCED_FACE('',(#204),#186,.T.);
#144=ADVANCED_FACE('',(#205),#187,.T.);
#145=ADVANCED_FACE('',(#206),#188,.F.);
#146=ADVANCED_FACE('',(#207),#189,.F.);
#147=ADVANCED_FACE('',(#208),#190,.T.);
#148=ADVANCED_FACE('',(#209),#191,.T.);
#149=ADVANCED_FACE('',(#210),#192,.T.);
#150=ADVANCED_FACE('',(#211),#193,.F.);
#151=ADVANCED_FACE('',(#212),#55,.T.);
#152=ADVANCED_FACE('',(#213),#194,.T.);
#153=ADVANCED_FACE('',(#214),#56,.T.);
#154=ADVANCED_FACE('',(#122,#123),#57,.T.);
#155=ADVANCED_FACE('',(#215),#195,.T.);
#156=ADVANCED_FACE('',(#124,#125),#58,.T.);
#157=ADVANCED_FACE('',(#216),#196,.T.);
#158=ADVANCED_FACE('',(#126,#127),#59,.T.);
#159=ADVANCED_FACE('',(#217),#197,.T.);
#160=ADVANCED_FACE('',(#128,#129),#42,.F.);
#161=ADVANCED_FACE('',(#130,#131),#43,.T.);
#162=ADVANCED_FACE('',(#218),#44,.T.);
#163=ADVANCED_FACE('',(#219),#60,.T.);
#164=ADVANCED_FACE('',(#220),#61,.T.);
#165=ADVANCED_FACE('',(#221),#45,.T.);
#166=ADVANCED_FACE('',(#222),#46,.T.);
#167=ADVANCED_FACE('',(#223),#62,.T.);
#168=ADVANCED_FACE('',(#224),#63,.T.);
#169=ADVANCED_FACE('',(#225),#47,.T.);
#170=ADVANCED_FACE('',(#226),#48,.T.);
#171=ADVANCED_FACE('',(#227),#64,.T.);
#172=ADVANCED_FACE('',(#228),#65,.T.);
#173=ADVANCED_FACE('',(#229),#49,.T.);
#174=ADVANCED_FACE('',(#230),#50,.T.);
#175=ADVANCED_FACE('',(#231),#66,.T.);
#176=ADVANCED_FACE('',(#232),#67,.T.);
#177=ADVANCED_FACE('',(#233),#51,.T.);
#178=PLANE('',#717);
#179=PLANE('',#718);
#180=PLANE('',#719);
#181=PLANE('',#727);
#182=PLANE('',#736);
#183=PLANE('',#744);
#184=PLANE('',#745);
#185=PLANE('',#746);
#186=PLANE('',#747);
#187=PLANE('',#748);
#188=PLANE('',#749);
#189=PLANE('',#750);
#190=PLANE('',#751);
#191=PLANE('',#752);
#192=PLANE('',#753);
#193=PLANE('',#754);
#194=PLANE('',#758);
#195=PLANE('',#764);
#196=PLANE('',#767);
#197=PLANE('',#770);
#198=FACE_OUTER_BOUND('',#234,.T.);
#199=FACE_OUTER_BOUND('',#239,.T.);
#200=FACE_OUTER_BOUND('',#240,.T.);
#201=FACE_OUTER_BOUND('',#241,.T.);
#202=FACE_OUTER_BOUND('',#250,.T.);
#203=FACE_OUTER_BOUND('',#251,.T.);
#204=FACE_OUTER_BOUND('',#252,.T.);
#205=FACE_OUTER_BOUND('',#253,.T.);
#206=FACE_OUTER_BOUND('',#254,.T.);
#207=FACE_OUTER_BOUND('',#255,.T.);
#208=FACE_OUTER_BOUND('',#256,.T.);
#209=FACE_OUTER_BOUND('',#257,.T.);
#210=FACE_OUTER_BOUND('',#258,.T.);
#211=FACE_OUTER_BOUND('',#259,.T.);
#212=FACE_OUTER_BOUND('',#260,.T.);
#213=FACE_OUTER_BOUND('',#261,.T.);
#214=FACE_OUTER_BOUND('',#262,.T.);
#215=FACE_OUTER_BOUND('',#265,.T.);
#216=FACE_OUTER_BOUND('',#268,.T.);
#217=FACE_OUTER_BOUND('',#271,.T.);
#218=FACE_OUTER_BOUND('',#276,.T.);
#219=FACE_OUTER_BOUND('',#277,.T.);
#220=FACE_OUTER_BOUND('',#278,.T.);
#221=FACE_OUTER_BOUND('',#279,.T.);
#222=FACE_OUTER_BOUND('',#280,.T.);
#223=FACE_OUTER_BOUND('',#281,.T.);
#224=FACE_OUTER_BOUND('',#282,.T.);
#225=FACE_OUTER_BOUND('',#283,.T.);
#226=FACE_OUTER_BOUND('',#284,.T.);
#227=FACE_OUTER_BOUND('',#285,.T.);
#228=FACE_OUTER_BOUND('',#286,.T.);
#229=FACE_OUTER_BOUND('',#287,.T.);
#230=FACE_OUTER_BOUND('',#288,.T.);
#231=FACE_OUTER_BOUND('',#289,.T.);
#232=FACE_OUTER_BOUND('',#290,.T.);
#233=FACE_OUTER_BOUND('',#291,.T.);
#234=EDGE_LOOP('',(#292,#293,#294,#295));
#235=EDGE_LOOP('',(#296,#297,#298,#299));
#236=EDGE_LOOP('',(#300,#301,#302,#303));
#237=EDGE_LOOP('',(#304,#305,#306,#307));
#238=EDGE_LOOP('',(#308,#309,#310,#311));
#239=EDGE_LOOP('',(#312,#313,#314,#315));
#240=EDGE_LOOP('',(#316,#317,#318,#319));
#241=EDGE_LOOP('',(#320));
#242=EDGE_LOOP('',(#321));
#243=EDGE_LOOP('',(#322));
#244=EDGE_LOOP('',(#323));
#245=EDGE_LOOP('',(#324,#325,#326,#327,#328,#329,#330,#331));
#246=EDGE_LOOP('',(#332,#333,#334,#335,#336,#337,#338,#339));
#247=EDGE_LOOP('',(#340));
#248=EDGE_LOOP('',(#341));
#249=EDGE_LOOP('',(#342));
#250=EDGE_LOOP('',(#343,#344,#345,#346));
#251=EDGE_LOOP('',(#347,#348,#349,#350));
#252=EDGE_LOOP('',(#351,#352,#353,#354));
#253=EDGE_LOOP('',(#355,#356,#357,#358));
#254=EDGE_LOOP('',(#359,#360,#361,#362));
#255=EDGE_LOOP('',(#363,#364,#365,#366));
#256=EDGE_LOOP('',(#367,#368,#369,#370));
#257=EDGE_LOOP('',(#371,#372,#373,#374));
#258=EDGE_LOOP('',(#375,#376,#377,#378));
#259=EDGE_LOOP('',(#379,#380,#381,#382));
#260=EDGE_LOOP('',(#383,#384,#385,#386));
#261=EDGE_LOOP('',(#387,#388,#389,#390));
#262=EDGE_LOOP('',(#391,#392,#393,#394));
#263=EDGE_LOOP('',(#395));
#264=EDGE_LOOP('',(#396));
#265=EDGE_LOOP('',(#397));
#266=EDGE_LOOP('',(#398));
#267=EDGE_LOOP('',(#399));
#268=EDGE_LOOP('',(#400));
#269=EDGE_LOOP('',(#401));
#270=EDGE_LOOP('',(#402));
#271=EDGE_LOOP('',(#403));
#272=EDGE_LOOP('',(#404));
#273=EDGE_LOOP('',(#405));
#274=EDGE_LOOP('',(#406));
#275=EDGE_LOOP('',(#407));
#276=EDGE_LOOP('',(#408,#409,#410,#411));
#277=EDGE_LOOP('',(#412,#413,#414,#415));
#278=EDGE_LOOP('',(#416,#417,#418,#419));
#279=EDGE_LOOP('',(#420,#421,#422,#423));
#280=EDGE_LOOP('',(#424,#425,#426,#427));
#281=EDGE_LOOP('',(#428,#429,#430,#431));
#282=EDGE_LOOP('',(#432,#433,#434,#435));
#283=EDGE_LOOP('',(#436,#437,#438,#439));
#284=EDGE_LOOP('',(#440,#441,#442,#443));
#285=EDGE_LOOP('',(#444,#445,#446,#447));
#286=EDGE_LOOP('',(#448,#449,#450,#451));
#287=EDGE_LOOP('',(#452,#453,#454,#455));
#288=EDGE_LOOP('',(#456,#457,#458,#459));
#289=EDGE_LOOP('',(#460,#461,#462,#463));
#290=EDGE_LOOP('',(#464,#465,#466,#467));
#291=EDGE_LOOP('',(#468,#469,#470,#471));
#292=ORIENTED_EDGE('',*,*,#530,.T.);
#293=ORIENTED_EDGE('',*,*,#531,.T.);
#294=ORIENTED_EDGE('',*,*,#532,.T.);
#295=ORIENTED_EDGE('',*,*,#533,.T.);
#296=ORIENTED_EDGE('',*,*,#534,.T.);
#297=ORIENTED_EDGE('',*,*,#535,.T.);
#298=ORIENTED_EDGE('',*,*,#536,.T.);
#299=ORIENTED_EDGE('',*,*,#537,.T.);
#300=ORIENTED_EDGE('',*,*,#538,.F.);
#301=ORIENTED_EDGE('',*,*,#539,.F.);
#302=ORIENTED_EDGE('',*,*,#540,.T.);
#303=ORIENTED_EDGE('',*,*,#541,.F.);
#304=ORIENTED_EDGE('',*,*,#542,.T.);
#305=ORIENTED_EDGE('',*,*,#543,.T.);
#306=ORIENTED_EDGE('',*,*,#544,.T.);
#307=ORIENTED_EDGE('',*,*,#545,.T.);
#308=ORIENTED_EDGE('',*,*,#546,.F.);
#309=ORIENTED_EDGE('',*,*,#547,.F.);
#310=ORIENTED_EDGE('',*,*,#548,.F.);
#311=ORIENTED_EDGE('',*,*,#549,.T.);
#312=ORIENTED_EDGE('',*,*,#532,.F.);
#313=ORIENTED_EDGE('',*,*,#550,.T.);
#314=ORIENTED_EDGE('',*,*,#534,.F.);
#315=ORIENTED_EDGE('',*,*,#551,.T.);
#316=ORIENTED_EDGE('',*,*,#544,.F.);
#317=ORIENTED_EDGE('',*,*,#552,.T.);
#318=ORIENTED_EDGE('',*,*,#530,.F.);
#319=ORIENTED_EDGE('',*,*,#553,.T.);
#320=ORIENTED_EDGE('',*,*,#554,.T.);
#321=ORIENTED_EDGE('',*,*,#555,.T.);
#322=ORIENTED_EDGE('',*,*,#556,.T.);
#323=ORIENTED_EDGE('',*,*,#557,.T.);
#324=ORIENTED_EDGE('',*,*,#558,.T.);
#325=ORIENTED_EDGE('',*,*,#559,.T.);
#326=ORIENTED_EDGE('',*,*,#560,.T.);
#327=ORIENTED_EDGE('',*,*,#561,.T.);
#328=ORIENTED_EDGE('',*,*,#562,.T.);
#329=ORIENTED_EDGE('',*,*,#563,.T.);
#330=ORIENTED_EDGE('',*,*,#564,.T.);
#331=ORIENTED_EDGE('',*,*,#565,.T.);
#332=ORIENTED_EDGE('',*,*,#566,.T.);
#333=ORIENTED_EDGE('',*,*,#567,.T.);
#334=ORIENTED_EDGE('',*,*,#568,.T.);
#335=ORIENTED_EDGE('',*,*,#569,.T.);
#336=ORIENTED_EDGE('',*,*,#570,.T.);
#337=ORIENTED_EDGE('',*,*,#571,.T.);
#338=ORIENTED_EDGE('',*,*,#572,.T.);
#339=ORIENTED_EDGE('',*,*,#573,.T.);
#340=ORIENTED_EDGE('',*,*,#574,.F.);
#341=ORIENTED_EDGE('',*,*,#575,.F.);
#342=ORIENTED_EDGE('',*,*,#576,.F.);
#343=ORIENTED_EDGE('',*,*,#539,.T.);
#344=ORIENTED_EDGE('',*,*,#577,.T.);
#345=ORIENTED_EDGE('',*,*,#578,.F.);
#346=ORIENTED_EDGE('',*,*,#579,.T.);
#347=ORIENTED_EDGE('',*,*,#578,.T.);
#348=ORIENTED_EDGE('',*,*,#580,.T.);
#349=ORIENTED_EDGE('',*,*,#581,.T.);
#350=ORIENTED_EDGE('',*,*,#582,.T.);
#351=ORIENTED_EDGE('',*,*,#581,.F.);
#352=ORIENTED_EDGE('',*,*,#583,.T.);
#353=ORIENTED_EDGE('',*,*,#541,.T.);
#354=ORIENTED_EDGE('',*,*,#584,.T.);
#355=ORIENTED_EDGE('',*,*,#577,.F.);
#356=ORIENTED_EDGE('',*,*,#538,.T.);
#357=ORIENTED_EDGE('',*,*,#583,.F.);
#358=ORIENTED_EDGE('',*,*,#580,.F.);
#359=ORIENTED_EDGE('',*,*,#584,.F.);
#360=ORIENTED_EDGE('',*,*,#540,.F.);
#361=ORIENTED_EDGE('',*,*,#579,.F.);
#362=ORIENTED_EDGE('',*,*,#582,.F.);
#363=ORIENTED_EDGE('',*,*,#585,.T.);
#364=ORIENTED_EDGE('',*,*,#586,.T.);
#365=ORIENTED_EDGE('',*,*,#549,.F.);
#366=ORIENTED_EDGE('',*,*,#587,.T.);
#367=ORIENTED_EDGE('',*,*,#588,.T.);
#368=ORIENTED_EDGE('',*,*,#589,.T.);
#369=ORIENTED_EDGE('',*,*,#585,.F.);
#370=ORIENTED_EDGE('',*,*,#590,.T.);
#371=ORIENTED_EDGE('',*,*,#547,.T.);
#372=ORIENTED_EDGE('',*,*,#591,.T.);
#373=ORIENTED_EDGE('',*,*,#588,.F.);
#374=ORIENTED_EDGE('',*,*,#592,.T.);
#375=ORIENTED_EDGE('',*,*,#591,.F.);
#376=ORIENTED_EDGE('',*,*,#546,.T.);
#377=ORIENTED_EDGE('',*,*,#586,.F.);
#378=ORIENTED_EDGE('',*,*,#589,.F.);
#379=ORIENTED_EDGE('',*,*,#587,.F.);
#380=ORIENTED_EDGE('',*,*,#548,.T.);
#381=ORIENTED_EDGE('',*,*,#592,.F.);
#382=ORIENTED_EDGE('',*,*,#590,.F.);
#383=ORIENTED_EDGE('',*,*,#536,.F.);
#384=ORIENTED_EDGE('',*,*,#593,.T.);
#385=ORIENTED_EDGE('',*,*,#594,.F.);
#386=ORIENTED_EDGE('',*,*,#595,.T.);
#387=ORIENTED_EDGE('',*,*,#594,.T.);
#388=ORIENTED_EDGE('',*,*,#596,.T.);
#389=ORIENTED_EDGE('',*,*,#597,.T.);
#390=ORIENTED_EDGE('',*,*,#598,.T.);
#391=ORIENTED_EDGE('',*,*,#597,.F.);
#392=ORIENTED_EDGE('',*,*,#599,.T.);
#393=ORIENTED_EDGE('',*,*,#542,.F.);
#394=ORIENTED_EDGE('',*,*,#600,.T.);
#395=ORIENTED_EDGE('',*,*,#601,.F.);
#396=ORIENTED_EDGE('',*,*,#575,.T.);
#397=ORIENTED_EDGE('',*,*,#601,.T.);
#398=ORIENTED_EDGE('',*,*,#602,.F.);
#399=ORIENTED_EDGE('',*,*,#574,.T.);
#400=ORIENTED_EDGE('',*,*,#602,.T.);
#401=ORIENTED_EDGE('',*,*,#603,.F.);
#402=ORIENTED_EDGE('',*,*,#576,.T.);
#403=ORIENTED_EDGE('',*,*,#603,.T.);
#404=ORIENTED_EDGE('',*,*,#557,.F.);
#405=ORIENTED_EDGE('',*,*,#555,.F.);
#406=ORIENTED_EDGE('',*,*,#554,.F.);
#407=ORIENTED_EDGE('',*,*,#556,.F.);
#408=ORIENTED_EDGE('',*,*,#604,.F.);
#409=ORIENTED_EDGE('',*,*,#550,.F.);
#410=ORIENTED_EDGE('',*,*,#605,.F.);
#411=ORIENTED_EDGE('',*,*,#571,.F.);
#412=ORIENTED_EDGE('',*,*,#605,.T.);
#413=ORIENTED_EDGE('',*,*,#531,.F.);
#414=ORIENTED_EDGE('',*,*,#606,.F.);
#415=ORIENTED_EDGE('',*,*,#572,.F.);
#416=ORIENTED_EDGE('',*,*,#604,.T.);
#417=ORIENTED_EDGE('',*,*,#570,.F.);
#418=ORIENTED_EDGE('',*,*,#607,.F.);
#419=ORIENTED_EDGE('',*,*,#535,.F.);
#420=ORIENTED_EDGE('',*,*,#606,.T.);
#421=ORIENTED_EDGE('',*,*,#552,.F.);
#422=ORIENTED_EDGE('',*,*,#608,.F.);
#423=ORIENTED_EDGE('',*,*,#573,.F.);
#424=ORIENTED_EDGE('',*,*,#607,.T.);
#425=ORIENTED_EDGE('',*,*,#569,.F.);
#426=ORIENTED_EDGE('',*,*,#609,.F.);
#427=ORIENTED_EDGE('',*,*,#593,.F.);
#428=ORIENTED_EDGE('',*,*,#608,.T.);
#429=ORIENTED_EDGE('',*,*,#543,.F.);
#430=ORIENTED_EDGE('',*,*,#610,.F.);
#431=ORIENTED_EDGE('',*,*,#566,.F.);
#432=ORIENTED_EDGE('',*,*,#609,.T.);
#433=ORIENTED_EDGE('',*,*,#568,.F.);
#434=ORIENTED_EDGE('',*,*,#611,.F.);
#435=ORIENTED_EDGE('',*,*,#596,.F.);
#436=ORIENTED_EDGE('',*,*,#610,.T.);
#437=ORIENTED_EDGE('',*,*,#599,.F.);
#438=ORIENTED_EDGE('',*,*,#611,.T.);
#439=ORIENTED_EDGE('',*,*,#567,.F.);
#440=ORIENTED_EDGE('',*,*,#612,.F.);
#441=ORIENTED_EDGE('',*,*,#551,.F.);
#442=ORIENTED_EDGE('',*,*,#613,.F.);
#443=ORIENTED_EDGE('',*,*,#563,.F.);
#444=ORIENTED_EDGE('',*,*,#613,.T.);
#445=ORIENTED_EDGE('',*,*,#537,.F.);
#446=ORIENTED_EDGE('',*,*,#614,.F.);
#447=ORIENTED_EDGE('',*,*,#564,.F.);
#448=ORIENTED_EDGE('',*,*,#612,.T.);
#449=ORIENTED_EDGE('',*,*,#562,.F.);
#450=ORIENTED_EDGE('',*,*,#615,.F.);
#451=ORIENTED_EDGE('',*,*,#533,.F.);
#452=ORIENTED_EDGE('',*,*,#614,.T.);
#453=ORIENTED_EDGE('',*,*,#595,.F.);
#454=ORIENTED_EDGE('',*,*,#616,.F.);
#455=ORIENTED_EDGE('',*,*,#565,.F.);
#456=ORIENTED_EDGE('',*,*,#615,.T.);
#457=ORIENTED_EDGE('',*,*,#561,.F.);
#458=ORIENTED_EDGE('',*,*,#617,.F.);
#459=ORIENTED_EDGE('',*,*,#553,.F.);
#460=ORIENTED_EDGE('',*,*,#616,.T.);
#461=ORIENTED_EDGE('',*,*,#598,.F.);
#462=ORIENTED_EDGE('',*,*,#618,.F.);
#463=ORIENTED_EDGE('',*,*,#558,.F.);
#464=ORIENTED_EDGE('',*,*,#617,.T.);
#465=ORIENTED_EDGE('',*,*,#560,.F.);
#466=ORIENTED_EDGE('',*,*,#619,.F.);
#467=ORIENTED_EDGE('',*,*,#545,.F.);
#468=ORIENTED_EDGE('',*,*,#618,.T.);
#469=ORIENTED_EDGE('',*,*,#600,.F.);
#470=ORIENTED_EDGE('',*,*,#619,.T.);
#471=ORIENTED_EDGE('',*,*,#559,.F.);
#472=VERTEX_POINT('',#1033);
#473=VERTEX_POINT('',#1034);
#474=VERTEX_POINT('',#1036);
#475=VERTEX_POINT('',#1038);
#476=VERTEX_POINT('',#1042);
#477=VERTEX_POINT('',#1043);
#478=VERTEX_POINT('',#1045);
#479=VERTEX_POINT('',#1047);
#480=VERTEX_POINT('',#1050);
#481=VERTEX_POINT('',#1051);
#482=VERTEX_POINT('',#1053);
#483=VERTEX_POINT('',#1055);
#484=VERTEX_POINT('',#1059);
#485=VERTEX_POINT('',#1060);
#486=VERTEX_POINT('',#1062);
#487=VERTEX_POINT('',#1064);
#488=VERTEX_POINT('',#1067);
#489=VERTEX_POINT('',#1068);
#490=VERTEX_POINT('',#1070);
#491=VERTEX_POINT('',#1072);
#492=VERTEX_POINT('',#1082);
#493=VERTEX_POINT('',#1085);
#494=VERTEX_POINT('',#1087);
#495=VERTEX_POINT('',#1090);
#496=VERTEX_POINT('',#1092);
#497=VERTEX_POINT('',#1093);
#498=VERTEX_POINT('',#1095);
#499=VERTEX_POINT('',#1097);
#500=VERTEX_POINT('',#1099);
#501=VERTEX_POINT('',#1101);
#502=VERTEX_POINT('',#1103);
#503=VERTEX_POINT('',#1105);
#504=VERTEX_POINT('',#1109);
#505=VERTEX_POINT('',#1110);
#506=VERTEX_POINT('',#1112);
#507=VERTEX_POINT('',#1114);
#508=VERTEX_POINT('',#1116);
#509=VERTEX_POINT('',#1118);
#510=VERTEX_POINT('',#1120);
#511=VERTEX_POINT('',#1122);
#512=VERTEX_POINT('',#1125);
#513=VERTEX_POINT('',#1127);
#514=VERTEX_POINT('',#1129);
#515=VERTEX_POINT('',#1132);
#516=VERTEX_POINT('',#1134);
#517=VERTEX_POINT('',#1138);
#518=VERTEX_POINT('',#1140);
#519=VERTEX_POINT('',#1149);
#520=VERTEX_POINT('',#1150);
#521=VERTEX_POINT('',#1155);
#522=VERTEX_POINT('',#1156);
#523=VERTEX_POINT('',#1166);
#524=VERTEX_POINT('',#1168);
#525=VERTEX_POINT('',#1172);
#526=VERTEX_POINT('',#1174);
#527=VERTEX_POINT('',#1181);
#528=VERTEX_POINT('',#1185);
#529=VERTEX_POINT('',#1189);
#530=EDGE_CURVE('',#472,#473,#620,.T.);
#531=EDGE_CURVE('',#473,#474,#621,.T.);
#532=EDGE_CURVE('',#474,#475,#622,.T.);
#533=EDGE_CURVE('',#475,#472,#623,.T.);
#534=EDGE_CURVE('',#476,#477,#624,.T.);
#535=EDGE_CURVE('',#477,#478,#625,.T.);
#536=EDGE_CURVE('',#478,#479,#626,.T.);
#537=EDGE_CURVE('',#479,#476,#627,.T.);
#538=EDGE_CURVE('',#480,#481,#628,.T.);
#539=EDGE_CURVE('',#482,#480,#629,.T.);
#540=EDGE_CURVE('',#482,#483,#630,.T.);
#541=EDGE_CURVE('',#481,#483,#631,.T.);
#542=EDGE_CURVE('',#484,#485,#632,.T.);
#543=EDGE_CURVE('',#485,#486,#633,.T.);
#544=EDGE_CURVE('',#486,#487,#634,.T.);
#545=EDGE_CURVE('',#487,#484,#635,.T.);
#546=EDGE_CURVE('',#488,#489,#636,.T.);
#547=EDGE_CURVE('',#490,#488,#637,.T.);
#548=EDGE_CURVE('',#491,#490,#638,.T.);
#549=EDGE_CURVE('',#491,#489,#639,.T.);
#550=EDGE_CURVE('',#474,#477,#68,.T.);
#551=EDGE_CURVE('',#476,#475,#69,.T.);
#552=EDGE_CURVE('',#486,#473,#70,.T.);
#553=EDGE_CURVE('',#472,#487,#71,.T.);
#554=EDGE_CURVE('',#492,#492,#72,.T.);
#555=EDGE_CURVE('',#493,#493,#73,.T.);
#556=EDGE_CURVE('',#494,#494,#74,.T.);
#557=EDGE_CURVE('',#495,#495,#75,.T.);
#558=EDGE_CURVE('',#496,#497,#640,.T.);
#559=EDGE_CURVE('',#497,#498,#76,.T.);
#560=EDGE_CURVE('',#498,#499,#641,.T.);
#561=EDGE_CURVE('',#499,#500,#77,.T.);
#562=EDGE_CURVE('',#500,#501,#642,.T.);
#563=EDGE_CURVE('',#501,#502,#78,.T.);
#564=EDGE_CURVE('',#502,#503,#643,.T.);
#565=EDGE_CURVE('',#503,#496,#79,.T.);
#566=EDGE_CURVE('',#504,#505,#644,.T.);
#567=EDGE_CURVE('',#505,#506,#80,.T.);
#568=EDGE_CURVE('',#506,#507,#645,.T.);
#569=EDGE_CURVE('',#507,#508,#81,.T.);
#570=EDGE_CURVE('',#508,#509,#646,.T.);
#571=EDGE_CURVE('',#509,#510,#82,.T.);
#572=EDGE_CURVE('',#510,#511,#647,.T.);
#573=EDGE_CURVE('',#511,#504,#83,.T.);
#574=EDGE_CURVE('',#512,#512,#84,.T.);
#575=EDGE_CURVE('',#513,#513,#85,.T.);
#576=EDGE_CURVE('',#514,#514,#86,.T.);
#577=EDGE_CURVE('',#480,#515,#648,.T.);
#578=EDGE_CURVE('',#516,#515,#649,.T.);
#579=EDGE_CURVE('',#516,#482,#650,.T.);
#580=EDGE_CURVE('',#515,#517,#651,.T.);
#581=EDGE_CURVE('',#517,#518,#652,.T.);
#582=EDGE_CURVE('',#518,#516,#653,.T.);
#583=EDGE_CURVE('',#517,#481,#654,.T.);
#584=EDGE_CURVE('',#483,#518,#655,.T.);
#585=EDGE_CURVE('',#519,#520,#656,.T.);
#586=EDGE_CURVE('',#520,#489,#657,.T.);
#587=EDGE_CURVE('',#491,#519,#658,.T.);
#588=EDGE_CURVE('',#521,#522,#659,.T.);
#589=EDGE_CURVE('',#522,#520,#660,.T.);
#590=EDGE_CURVE('',#519,#521,#661,.T.);
#591=EDGE_CURVE('',#488,#522,#662,.T.);
#592=EDGE_CURVE('',#521,#490,#663,.T.);
#593=EDGE_CURVE('',#478,#523,#87,.T.);
#594=EDGE_CURVE('',#524,#523,#664,.T.);
#595=EDGE_CURVE('',#524,#479,#88,.T.);
#596=EDGE_CURVE('',#523,#525,#665,.T.);
#597=EDGE_CURVE('',#525,#526,#666,.T.);
#598=EDGE_CURVE('',#526,#524,#667,.T.);
#599=EDGE_CURVE('',#525,#485,#89,.T.);
#600=EDGE_CURVE('',#484,#526,#90,.T.);
#601=EDGE_CURVE('',#527,#527,#91,.T.);
#602=EDGE_CURVE('',#528,#528,#92,.T.);
#603=EDGE_CURVE('',#529,#529,#93,.T.);
#604=EDGE_CURVE('',#477,#509,#94,.T.);
#605=EDGE_CURVE('',#510,#474,#95,.T.);
#606=EDGE_CURVE('',#511,#473,#96,.T.);
#607=EDGE_CURVE('',#478,#508,#97,.T.);
#608=EDGE_CURVE('',#504,#486,#98,.T.);
#609=EDGE_CURVE('',#523,#507,#99,.T.);
#610=EDGE_CURVE('',#505,#485,#100,.T.);
#611=EDGE_CURVE('',#525,#506,#101,.T.);
#612=EDGE_CURVE('',#475,#501,#102,.T.);
#613=EDGE_CURVE('',#502,#476,#103,.T.);
#614=EDGE_CURVE('',#503,#479,#104,.T.);
#615=EDGE_CURVE('',#472,#500,#105,.T.);
#616=EDGE_CURVE('',#496,#524,#106,.T.);
#617=EDGE_CURVE('',#487,#499,#107,.T.);
#618=EDGE_CURVE('',#497,#526,#108,.T.);
#619=EDGE_CURVE('',#484,#498,#109,.T.);
#620=LINE('',#1032,#668);
#621=LINE('',#1035,#669);
#622=LINE('',#1037,#670);
#623=LINE('',#1039,#671);
#624=LINE('',#1041,#672);
#625=LINE('',#1044,#673);
#626=LINE('',#1046,#674);
#627=LINE('',#1048,#675);
#628=LINE('',#1049,#676);
#629=LINE('',#1052,#677);
#630=LINE('',#1054,#678);
#631=LINE('',#1056,#679);
#632=LINE('',#1058,#680);
#633=LINE('',#1061,#681);
#634=LINE('',#1063,#682);
#635=LINE('',#1065,#683);
#636=LINE('',#1066,#684);
#637=LINE('',#1069,#685);
#638=LINE('',#1071,#686);
#639=LINE('',#1073,#687);
#640=LINE('',#1091,#688);
#641=LINE('',#1096,#689);
#642=LINE('',#1100,#690);
#643=LINE('',#1104,#691);
#644=LINE('',#1108,#692);
#645=LINE('',#1113,#693);
#646=LINE('',#1117,#694);
#647=LINE('',#1121,#695);
#648=LINE('',#1131,#696);
#649=LINE('',#1133,#697);
#650=LINE('',#1135,#698);
#651=LINE('',#1137,#699);
#652=LINE('',#1139,#700);
#653=LINE('',#1141,#701);
#654=LINE('',#1143,#702);
#655=LINE('',#1144,#703);
#656=LINE('',#1148,#704);
#657=LINE('',#1151,#705);
#658=LINE('',#1152,#706);
#659=LINE('',#1154,#707);
#660=LINE('',#1157,#708);
#661=LINE('',#1158,#709);
#662=LINE('',#1160,#710);
#663=LINE('',#1161,#711);
#664=LINE('',#1167,#712);
#665=LINE('',#1171,#713);
#666=LINE('',#1173,#714);
#667=LINE('',#1175,#715);
#668=VECTOR('',#807,1.);
#669=VECTOR('',#808,1.);
#670=VECTOR('',#809,1.);
#671=VECTOR('',#810,1.);
#672=VECTOR('',#813,1.);
#673=VECTOR('',#814,1.);
#674=VECTOR('',#815,1.);
#675=VECTOR('',#816,1.);
#676=VECTOR('',#817,1.);
#677=VECTOR('',#818,1.);
#678=VECTOR('',#819,1.);
#679=VECTOR('',#820,1.);
#680=VECTOR('',#823,1.);
#681=VECTOR('',#824,1.);
#682=VECTOR('',#825,1.);
#683=VECTOR('',#826,1.);
#684=VECTOR('',#827,1.);
#685=VECTOR('',#828,1.);
#686=VECTOR('',#829,1.);
#687=VECTOR('',#830,1.);
#688=VECTOR('',#857,1.);
#689=VECTOR('',#860,1.);
#690=VECTOR('',#863,1.);
#691=VECTOR('',#866,1.);
#692=VECTOR('',#871,1.);
#693=VECTOR('',#874,1.);
#694=VECTOR('',#877,1.);
#695=VECTOR('',#880,1.);
#696=VECTOR('',#891,1.);
#697=VECTOR('',#892,1.);
#698=VECTOR('',#893,1.);
#699=VECTOR('',#896,1.);
#700=VECTOR('',#897,1.);
#701=VECTOR('',#898,1.);
#702=VECTOR('',#901,1.);
#703=VECTOR('',#902,1.);
#704=VECTOR('',#909,1.);
#705=VECTOR('',#910,1.);
#706=VECTOR('',#911,1.);
#707=VECTOR('',#914,1.);
#708=VECTOR('',#915,1.);
#709=VECTOR('',#916,1.);
#710=VECTOR('',#919,1.);
#711=VECTOR('',#920,1.);
#712=VECTOR('',#929,1.);
#713=VECTOR('',#934,1.);
#714=VECTOR('',#935,1.);
#715=VECTOR('',#936,1.);
#716=AXIS2_PLACEMENT_3D('',#1031,#805,#806);
#717=AXIS2_PLACEMENT_3D('',#1040,#811,#812);
#718=AXIS2_PLACEMENT_3D('',#1057,#821,#822);
#719=AXIS2_PLACEMENT_3D('',#1074,#831,#832);
#720=AXIS2_PLACEMENT_3D('',#1075,#833,#834);
#721=AXIS2_PLACEMENT_3D('',#1076,#835,#836);
#722=AXIS2_PLACEMENT_3D('',#1077,#837,#838);
#723=AXIS2_PLACEMENT_3D('',#1078,#839,#840);
#724=AXIS2_PLACEMENT_3D('',#1079,#841,#842);
#725=AXIS2_PLACEMENT_3D('',#1080,#843,#844);
#726=AXIS2_PLACEMENT_3D('',#1081,#845,#846);
#727=AXIS2_PLACEMENT_3D('',#1083,#847,#848);
#728=AXIS2_PLACEMENT_3D('',#1084,#849,#850);
#729=AXIS2_PLACEMENT_3D('',#1086,#851,#852);
#730=AXIS2_PLACEMENT_3D('',#1088,#853,#854);
#731=AXIS2_PLACEMENT_3D('',#1089,#855,#856);
#732=AXIS2_PLACEMENT_3D('',#1094,#858,#859);
#733=AXIS2_PLACEMENT_3D('',#1098,#861,#862);
#734=AXIS2_PLACEMENT_3D('',#1102,#864,#865);
#735=AXIS2_PLACEMENT_3D('',#1106,#867,#868);
#736=AXIS2_PLACEMENT_3D('',#1107,#869,#870);
#737=AXIS2_PLACEMENT_3D('',#1111,#872,#873);
#738=AXIS2_PLACEMENT_3D('',#1115,#875,#876);
#739=AXIS2_PLACEMENT_3D('',#1119,#878,#879);
#740=AXIS2_PLACEMENT_3D('',#1123,#881,#882);
#741=AXIS2_PLACEMENT_3D('',#1124,#883,#884);
#742=AXIS2_PLACEMENT_3D('',#1126,#885,#886);
#743=AXIS2_PLACEMENT_3D('',#1128,#887,#888);
#744=AXIS2_PLACEMENT_3D('',#1130,#889,#890);
#745=AXIS2_PLACEMENT_3D('',#1136,#894,#895);
#746=AXIS2_PLACEMENT_3D('',#1142,#899,#900);
#747=AXIS2_PLACEMENT_3D('',#1145,#903,#904);
#748=AXIS2_PLACEMENT_3D('',#1146,#905,#906);
#749=AXIS2_PLACEMENT_3D('',#1147,#907,#908);
#750=AXIS2_PLACEMENT_3D('',#1153,#912,#913);
#751=AXIS2_PLACEMENT_3D('',#1159,#917,#918);
#752=AXIS2_PLACEMENT_3D('',#1162,#921,#922);
#753=AXIS2_PLACEMENT_3D('',#1163,#923,#924);
#754=AXIS2_PLACEMENT_3D('',#1164,#925,#926);
#755=AXIS2_PLACEMENT_3D('',#1165,#927,#928);
#756=AXIS2_PLACEMENT_3D('',#1169,#930,#931);
#757=AXIS2_PLACEMENT_3D('',#1170,#932,#933);
#758=AXIS2_PLACEMENT_3D('',#1176,#937,#938);
#759=AXIS2_PLACEMENT_3D('',#1177,#939,#940);
#760=AXIS2_PLACEMENT_3D('',#1178,#941,#942);
#761=AXIS2_PLACEMENT_3D('',#1179,#943,#944);
#762=AXIS2_PLACEMENT_3D('',#1180,#945,#946);
#763=AXIS2_PLACEMENT_3D('',#1182,#947,#948);
#764=AXIS2_PLACEMENT_3D('',#1183,#949,#950);
#765=AXIS2_PLACEMENT_3D('',#1184,#951,#952);
#766=AXIS2_PLACEMENT_3D('',#1186,#953,#954);
#767=AXIS2_PLACEMENT_3D('',#1187,#955,#956);
#768=AXIS2_PLACEMENT_3D('',#1188,#957,#958);
#769=AXIS2_PLACEMENT_3D('',#1190,#959,#960);
#770=AXIS2_PLACEMENT_3D('',#1191,#961,#962);
#771=AXIS2_PLACEMENT_3D('',#1192,#963,#964);
#772=AXIS2_PLACEMENT_3D('',#1193,#965,#966);
#773=AXIS2_PLACEMENT_3D('',#1194,#967,#968);
#774=AXIS2_PLACEMENT_3D('',#1195,#969,#970);
#775=AXIS2_PLACEMENT_3D('',#1196,#971,#972);
#776=AXIS2_PLACEMENT_3D('',#1197,#973,#974);
#777=AXIS2_PLACEMENT_3D('',#1198,#975,#976);
#778=AXIS2_PLACEMENT_3D('',#1199,#977,#978);
#779=AXIS2_PLACEMENT_3D('',#1200,#979,#980);
#780=AXIS2_PLACEMENT_3D('',#1201,#981,#982);
#781=AXIS2_PLACEMENT_3D('',#1202,#983,#984);
#782=AXIS2_PLACEMENT_3D('',#1203,#985,#986);
#783=AXIS2_PLACEMENT_3D('',#1204,#987,#988);
#784=AXIS2_PLACEMENT_3D('',#1205,#989,#990);
#785=AXIS2_PLACEMENT_3D('',#1206,#991,#992);
#786=AXIS2_PLACEMENT_3D('',#1207,#993,#994);
#787=AXIS2_PLACEMENT_3D('',#1208,#995,#996);
#788=AXIS2_PLACEMENT_3D('',#1209,#997,#998);
#789=AXIS2_PLACEMENT_3D('',#1210,#999,#1000);
#790=AXIS2_PLACEMENT_3D('',#1211,#1001,#1002);
#791=AXIS2_PLACEMENT_3D('',#1212,#1003,#1004);
#792=AXIS2_PLACEMENT_3D('',#1213,#1005,#1006);
#793=AXIS2_PLACEMENT_3D('',#1214,#1007,#1008);
#794=AXIS2_PLACEMENT_3D('',#1215,#1009,#1010);
#795=AXIS2_PLACEMENT_3D('',#1216,#1011,#1012);
#796=AXIS2_PLACEMENT_3D('',#1217,#1013,#1014);
#797=AXIS2_PLACEMENT_3D('',#1218,#1015,#1016);
#798=AXIS2_PLACEMENT_3D('',#1219,#1017,#1018);
#799=AXIS2_PLACEMENT_3D('',#1220,#1019,#1020);
#800=AXIS2_PLACEMENT_3D('',#1221,#1021,#1022);
#801=AXIS2_PLACEMENT_3D('',#1222,#1023,#1024);
#802=AXIS2_PLACEMENT_3D('',#1223,#1025,#1026);
#803=AXIS2_PLACEMENT_3D('',#1224,#1027,#1028);
#804=AXIS2_PLACEMENT_3D('',#1225,#1029,#1030);
#805=DIRECTION('',(0.,0.,1.));
#806=DIRECTION('',(1.,0.,0.));
#807=DIRECTION('',(0.,0.,1.));
#808=DIRECTION('',(0.,-1.,0.));
#809=DIRECTION('',(0.,0.,-1.));
#810=DIRECTION('',(0.,1.,0.));
#811=DIRECTION('',(-1.,0.,0.));
#812=DIRECTION('',(0.,0.,-1.));
#813=DIRECTION('',(0.,0.,1.));
#814=DIRECTION('',(-1.,0.,0.));
#815=DIRECTION('',(0.,0.,-1.));
#816=DIRECTION('',(1.,0.,0.));
#817=DIRECTION('',(0.,0.,1.));
#818=DIRECTION('',(1.,0.,0.));
#819=DIRECTION('',(0.,0.,1.));
#820=DIRECTION('',(-1.,0.,0.));
#821=DIRECTION('',(0.,-1.,0.));
#822=DIRECTION('',(0.,0.,1.));
#823=DIRECTION('',(0.,0.,1.));
#824=DIRECTION('',(1.,0.,0.));
#825=DIRECTION('',(0.,0.,-1.));
#826=DIRECTION('',(-1.,0.,0.));
#827=DIRECTION('',(0.,0.,-1.));
#828=DIRECTION('',(1.,0.,0.));
#829=DIRECTION('',(0.,0.,1.));
#830=DIRECTION('',(1.,0.,0.));
#831=DIRECTION('',(0.,1.,0.));
#832=DIRECTION('',(0.,0.,-1.));
#833=DIRECTION('',(0.,0.,-1.));
#834=DIRECTION('',(-1.,0.,0.));
#835=DIRECTION('',(0.,0.,1.));
#836=DIRECTION('',(1.,0.,0.));
#837=DIRECTION('',(0.,0.,-1.));
#838=DIRECTION('',(1.,0.,0.));
#839=DIRECTION('',(0.,0.,-1.));
#840=DIRECTION('',(-1.,0.,0.));
#841=DIRECTION('',(0.,0.,1.));
#842=DIRECTION('',(1.,0.,0.));
#843=DIRECTION('',(0.,0.,-1.));
#844=DIRECTION('',(1.,0.,0.));
#845=DIRECTION('',(0.,0.,-1.));
#846=DIRECTION('',(-1.,0.,0.));
#847=DIRECTION('',(0.,0.,-1.));
#848=DIRECTION('',(1.,0.,0.));
#849=DIRECTION('',(0.,0.,-1.));
#850=DIRECTION('',(1.,0.,0.));
#851=DIRECTION('',(0.,0.,1.));
#852=DIRECTION('',(-1.,0.,0.));
#853=DIRECTION('',(0.,0.,-1.));
#854=DIRECTION('',(-1.,0.,0.));
#855=DIRECTION('',(0.,0.,1.));
#856=DIRECTION('',(1.,0.,0.));
#857=DIRECTION('',(0.,1.,0.));
#858=DIRECTION('',(0.,0.,-1.));
#859=DIRECTION('',(0.999999999999998,0.,0.));
#860=DIRECTION('',(1.,0.,0.));
#861=DIRECTION('',(0.,0.,-1.));
#862=DIRECTION('',(0.999999999999998,0.,0.));
#863=DIRECTION('',(0.,-1.,0.));
#864=DIRECTION('',(0.,0.,-1.));
#865=DIRECTION('',(0.999999999999998,0.,0.));
#866=DIRECTION('',(-1.,0.,0.));
#867=DIRECTION('',(0.,0.,-1.));
#868=DIRECTION('',(0.999999999999998,0.,0.));
#869=DIRECTION('',(0.,0.,1.));
#870=DIRECTION('',(-1.,0.,0.));
#871=DIRECTION('',(-1.,0.,0.));
#872=DIRECTION('',(0.,0.,1.));
#873=DIRECTION('',(-0.999999999999998,0.,0.));
#874=DIRECTION('',(0.,-1.,0.));
#875=DIRECTION('',(0.,0.,1.));
#876=DIRECTION('',(-0.999999999999998,0.,0.));
#877=DIRECTION('',(1.,0.,0.));
#878=DIRECTION('',(0.,0.,1.));
#879=DIRECTION('',(-0.999999999999998,0.,0.));
#880=DIRECTION('',(0.,1.,0.));
#881=DIRECTION('',(0.,0.,1.));
#882=DIRECTION('',(-0.999999999999998,0.,0.));
#883=DIRECTION('',(0.,0.,1.));
#884=DIRECTION('',(0.999999999999994,0.,0.));
#885=DIRECTION('',(0.,0.,1.));
#886=DIRECTION('',(0.999999999999994,0.,0.));
#887=DIRECTION('',(0.,0.,1.));
#888=DIRECTION('',(0.999999999999994,0.,0.));
#889=DIRECTION('',(0.,0.,-1.));
#890=DIRECTION('',(0.,-1.,0.));
#891=DIRECTION('',(-0.707106781186548,-0.707106781186548,0.));
#892=DIRECTION('',(1.,0.,0.));
#893=DIRECTION('',(-0.707106781186548,0.707106781186548,0.));
#894=DIRECTION('',(0.,0.,1.));
#895=DIRECTION('',(1.,0.,0.));
#896=DIRECTION('',(0.,0.,1.));
#897=DIRECTION('',(-1.,0.,0.));
#898=DIRECTION('',(0.,0.,-1.));
#899=DIRECTION('',(0.,-1.,0.));
#900=DIRECTION('',(0.,0.,1.));
#901=DIRECTION('',(0.707106781186548,0.707106781186548,0.));
#902=DIRECTION('',(0.707106781186548,-0.707106781186548,0.));
#903=DIRECTION('',(0.,0.,1.));
#904=DIRECTION('',(-1.,0.,0.));
#905=DIRECTION('',(0.707106781186547,-0.707106781186547,0.));
#906=DIRECTION('',(0.,0.,-1.));
#907=DIRECTION('',(0.707106781186547,0.707106781186547,0.));
#908=DIRECTION('',(0.,0.,-1.));
#909=DIRECTION('',(1.,0.,0.));
#910=DIRECTION('',(0.707106781186548,-0.707106781186547,0.));
#911=DIRECTION('',(0.707106781186548,0.707106781186547,0.));
#912=DIRECTION('',(0.,0.,1.));
#913=DIRECTION('',(1.,0.,0.));
#914=DIRECTION('',(1.,0.,0.));
#915=DIRECTION('',(0.,0.,-1.));
#916=DIRECTION('',(0.,0.,1.));
#917=DIRECTION('',(0.,1.,0.));
#918=DIRECTION('',(0.,0.,-1.));
#919=DIRECTION('',(-0.707106781186548,0.707106781186547,0.));
#920=DIRECTION('',(-0.707106781186548,-0.707106781186547,0.));
#921=DIRECTION('',(0.,0.,1.));
#922=DIRECTION('',(1.,0.,0.));
#923=DIRECTION('',(0.707106781186547,0.707106781186548,0.));
#924=DIRECTION('',(0.,0.,1.));
#925=DIRECTION('',(0.707106781186547,-0.707106781186548,0.));
#926=DIRECTION('',(0.,0.,1.));
#927=DIRECTION('',(0.,0.,-1.));
#928=DIRECTION('',(-1.,0.,0.));
#929=DIRECTION('',(0.,0.,1.));
#930=DIRECTION('',(0.,0.,1.));
#931=DIRECTION('',(1.,0.,0.));
#932=DIRECTION('',(0.,0.,1.));
#933=DIRECTION('',(-1.,0.,0.));
#934=DIRECTION('',(0.,1.,0.));
#935=DIRECTION('',(0.,0.,-1.));
#936=DIRECTION('',(0.,-1.,0.));
#937=DIRECTION('',(-1.,0.,0.));
#938=DIRECTION('',(0.,0.,-1.));
#939=DIRECTION('',(0.,0.,-1.));
#940=DIRECTION('',(-1.,0.,0.));
#941=DIRECTION('',(0.,0.,1.));
#942=DIRECTION('',(1.,0.,0.));
#943=DIRECTION('',(0.,0.,1.));
#944=DIRECTION('',(-1.,0.,0.));
#945=DIRECTION('',(0.,0.,1.));
#946=DIRECTION('',(0.999999999999994,0.,0.));
#947=DIRECTION('',(0.,0.,-1.));
#948=DIRECTION('',(-0.999999999999994,0.,0.));
#949=DIRECTION('',(0.,0.,1.));
#950=DIRECTION('',(1.,0.,0.));
#951=DIRECTION('',(0.,0.,1.));
#952=DIRECTION('',(0.999999999999994,0.,0.));
#953=DIRECTION('',(0.,0.,-1.));
#954=DIRECTION('',(-0.999999999999994,0.,0.));
#955=DIRECTION('',(0.,0.,1.));
#956=DIRECTION('',(1.,0.,0.));
#957=DIRECTION('',(0.,0.,1.));
#958=DIRECTION('',(0.999999999999994,0.,0.));
#959=DIRECTION('',(0.,0.,-1.));
#960=DIRECTION('',(-0.999999999999994,0.,0.));
#961=DIRECTION('',(0.,0.,1.));
#962=DIRECTION('',(1.,0.,0.));
#963=DIRECTION('',(0.,0.,1.));
#964=DIRECTION('',(1.,0.,0.));
#965=DIRECTION('',(0.,0.,-1.));
#966=DIRECTION('',(-1.,0.,0.));
#967=DIRECTION('',(-1.,0.,0.));
#968=DIRECTION('',(0.,0.,1.));
#969=DIRECTION('',(0.,1.,0.));
#970=DIRECTION('',(0.,0.,1.));
#971=DIRECTION('',(0.,0.,-1.));
#972=DIRECTION('',(-1.,0.,0.));
#973=DIRECTION('',(0.,1.,0.));
#974=DIRECTION('',(0.,0.,1.));
#975=DIRECTION('',(0.,-1.,0.));
#976=DIRECTION('',(0.,0.,-1.));
#977=DIRECTION('',(-1.,0.,0.));
#978=DIRECTION('',(0.,0.,1.));
#979=DIRECTION('',(1.,0.,0.));
#980=DIRECTION('',(0.,0.,-1.));
#981=DIRECTION('',(-1.,0.,0.));
#982=DIRECTION('',(0.,0.,1.));
#983=DIRECTION('',(0.,0.,-1.));
#984=DIRECTION('',(-1.,0.,0.));
#985=DIRECTION('',(0.,1.,0.));
#986=DIRECTION('',(0.,0.,1.));
#987=DIRECTION('',(0.,0.,-1.));
#988=DIRECTION('',(-1.,0.,0.));
#989=DIRECTION('',(-1.,0.,0.));
#990=DIRECTION('',(0.,0.,1.));
#991=DIRECTION('',(-1.,0.,0.));
#992=DIRECTION('',(0.,0.,1.));
#993=DIRECTION('',(0.,1.,0.));
#994=DIRECTION('',(0.,0.,1.));
#995=DIRECTION('',(0.,-1.,0.));
#996=DIRECTION('',(0.,0.,-1.));
#997=DIRECTION('',(0.,0.,-1.));
#998=DIRECTION('',(-1.,0.,0.));
#999=DIRECTION('',(0.,1.,0.));
#1000=DIRECTION('',(0.,0.,0.999999999999998));
#1001=DIRECTION('',(-1.,0.,0.));
#1002=DIRECTION('',(0.,0.,0.999999999999998));
#1003=DIRECTION('',(0.,0.,1.));
#1004=DIRECTION('',(1.,0.,0.));
#1005=DIRECTION('',(-1.,0.,0.));
#1006=DIRECTION('',(0.,0.,0.999999999999998));
#1007=DIRECTION('',(-1.,0.,0.));
#1008=DIRECTION('',(0.,0.,0.999999999999998));
#1009=DIRECTION('',(0.,1.,0.));
#1010=DIRECTION('',(0.,0.,0.999999999999998));
#1011=DIRECTION('',(0.,1.,0.));
#1012=DIRECTION('',(0.,0.,0.999999999999998));
#1013=DIRECTION('',(0.,1.,0.));
#1014=DIRECTION('',(0.,0.,0.999999999999998));
#1015=DIRECTION('',(0.,0.,1.));
#1016=DIRECTION('',(1.,0.,0.));
#1017=DIRECTION('',(-1.,0.,0.));
#1018=DIRECTION('',(0.,0.,0.999999999999998));
#1019=DIRECTION('',(0.,0.,1.));
#1020=DIRECTION('',(1.,0.,0.));
#1021=DIRECTION('',(0.,1.,0.));
#1022=DIRECTION('',(0.,0.,0.999999999999998));
#1023=DIRECTION('',(0.,1.,0.));
#1024=DIRECTION('',(0.,0.,0.999999999999998));
#1025=DIRECTION('',(-1.,0.,0.));
#1026=DIRECTION('',(0.,0.,0.999999999999998));
#1027=DIRECTION('',(1.,0.,0.));
#1028=DIRECTION('',(0.,0.,-0.999999999999998));
#1029=DIRECTION('',(0.,0.,1.));
#1030=DIRECTION('',(1.,0.,0.));
#1031=CARTESIAN_POINT('',(0.,0.,0.));
#1032=CARTESIAN_POINT('',(-18.0095252039796,-4.29999999999491,-0.0492748151940112));
#1033=CARTESIAN_POINT('',(-18.0095252039796,-4.29999999999491,-5.34927481519401));
#1034=CARTESIAN_POINT('',(-18.0095252039796,-4.29999999999491,-0.249274815194011));
#1035=CARTESIAN_POINT('',(-18.0095252039796,-9.04999999999491,-0.249274815194011));
#1036=CARTESIAN_POINT('',(-18.0095252039796,-13.7999999999949,-0.249274815194011));
#1037=CARTESIAN_POINT('',(-18.0095252039796,-13.7999999999949,-5.54927481519401));
#1038=CARTESIAN_POINT('',(-18.0095252039796,-13.7999999999949,-5.34927481519401));
#1039=CARTESIAN_POINT('',(-18.0095252039796,-9.04999999999491,-5.34927481519401));
#1040=CARTESIAN_POINT('',(-18.0095252039796,-9.04999999999491,0.));
#1041=CARTESIAN_POINT('',(-19.0095252039796,-14.7999999999949,-0.0492748151940112));
#1042=CARTESIAN_POINT('',(-19.0095252039796,-14.7999999999949,-5.34927481519401));
#1043=CARTESIAN_POINT('',(-19.0095252039796,-14.7999999999949,-0.249274815194011));
#1044=CARTESIAN_POINT('',(-28.5095252039796,-14.7999999999949,-0.249274815194011));
#1045=CARTESIAN_POINT('',(-28.5095252039796,-14.7999999999949,-0.249274815194011));
#1046=CARTESIAN_POINT('',(-28.5095252039796,-14.7999999999949,0.));
#1047=CARTESIAN_POINT('',(-28.5095252039796,-14.7999999999949,-5.34927481519401));
#1048=CARTESIAN_POINT('',(-19.0095252039796,-14.7999999999949,-5.34927481519401));
#1049=CARTESIAN_POINT('',(-21.2595252039796,-14.7999999999949,0.));
#1050=CARTESIAN_POINT('',(-21.2595252039796,-14.7999999999949,-2.54927481519401));
#1051=CARTESIAN_POINT('',(-21.2595252039796,-14.7999999999949,-1.54927481519401));
#1052=CARTESIAN_POINT('',(-23.7595252039796,-14.7999999999949,-2.54927481519401));
#1053=CARTESIAN_POINT('',(-26.2595252039796,-14.7999999999949,-2.54927481519401));
#1054=CARTESIAN_POINT('',(-26.2595252039796,-14.7999999999949,0.));
#1055=CARTESIAN_POINT('',(-26.2595252039796,-14.7999999999949,-1.54927481519401));
#1056=CARTESIAN_POINT('',(-23.7595252039796,-14.7999999999949,-1.54927481519401));
#1057=CARTESIAN_POINT('',(-23.7595252039796,-14.7999999999949,0.));
#1058=CARTESIAN_POINT('',(-28.5095252039796,-3.29999999999491,0.));
#1059=CARTESIAN_POINT('',(-28.5095252039796,-3.29999999999491,-5.34927481519401));
#1060=CARTESIAN_POINT('',(-28.5095252039796,-3.29999999999491,-0.249274815194011));
#1061=CARTESIAN_POINT('',(-19.0095252039796,-3.29999999999491,-0.249274815194011));
#1062=CARTESIAN_POINT('',(-19.0095252039796,-3.29999999999491,-0.249274815194011));
#1063=CARTESIAN_POINT('',(-19.0095252039796,-3.29999999999491,-5.54927481519401));
#1064=CARTESIAN_POINT('',(-19.0095252039796,-3.29999999999491,-5.34927481519401));
#1065=CARTESIAN_POINT('',(-28.5095252039796,-3.29999999999491,-5.34927481519401));
#1066=CARTESIAN_POINT('',(-21.2595252039796,-3.29999999999491,0.));
#1067=CARTESIAN_POINT('',(-21.2595252039796,-3.29999999999491,-1.54927481519401));
#1068=CARTESIAN_POINT('',(-21.2595252039796,-3.29999999999491,-2.54927481519401));
#1069=CARTESIAN_POINT('',(-23.7595252039796,-3.29999999999491,-1.54927481519401));
#1070=CARTESIAN_POINT('',(-26.2595252039796,-3.29999999999491,-1.54927481519401));
#1071=CARTESIAN_POINT('',(-26.2595252039796,-3.29999999999491,0.));
#1072=CARTESIAN_POINT('',(-26.2595252039796,-3.29999999999491,-2.54927481519401));
#1073=CARTESIAN_POINT('',(-23.7595252039796,-3.29999999999491,-2.54927481519401));
#1074=CARTESIAN_POINT('',(-23.7595252039796,-3.29999999999491,0.));
#1075=CARTESIAN_POINT('',(-19.0095252039796,-13.7999999999949,-0.249274815194011));
#1076=CARTESIAN_POINT('',(-19.0095252039796,-13.7999999999949,-5.34927481519401));
#1077=CARTESIAN_POINT('',(-19.0095252039796,-13.7999999999949,0.));
#1078=CARTESIAN_POINT('',(-19.0095252039796,-4.29999999999491,-0.249274815194011));
#1079=CARTESIAN_POINT('',(-19.0095252039796,-4.29999999999491,-5.34927481519401));
#1080=CARTESIAN_POINT('',(-19.0095252039796,-4.29999999999491,0.));
#1081=CARTESIAN_POINT('',(-23.7595252039796,-9.04999999999494,-6.54927481519401));
#1082=CARTESIAN_POINT('',(-26.5595252039796,-9.04999999999494,-6.54927481519401));
#1083=CARTESIAN_POINT('',(-23.7595252039796,-9.04999999999494,-6.54927481519401));
#1084=CARTESIAN_POINT('',(-23.7595252039796,-9.04999999999494,-5.74927481519401));
#1085=CARTESIAN_POINT('',(-20.7595252039796,-9.04999999999494,-5.74927481519401));
#1086=CARTESIAN_POINT('',(-23.7595252039796,-9.04999999999494,-6.34927481519401));
#1087=CARTESIAN_POINT('',(-26.7595252039796,-9.04999999999494,-6.34927481519401));
#1088=CARTESIAN_POINT('',(-23.7595252039796,-9.04999999999494,-5.54927481519401));
#1089=CARTESIAN_POINT('',(-23.7595252039796,-9.04999999999494,-5.54927481519401));
#1090=CARTESIAN_POINT('',(-20.5595252039796,-9.04999999999494,-5.54927481519401));
#1091=CARTESIAN_POINT('',(-29.3095252039796,-4.29999999999491,-5.54927481519401));
#1092=CARTESIAN_POINT('',(-29.3095252039796,-13.7999999999949,-5.54927481519401));
#1093=CARTESIAN_POINT('',(-29.3095252039796,-4.29999999999491,-5.54927481519401));
#1094=CARTESIAN_POINT('',(-28.5095252039796,-4.29999999999491,-5.54927481519401));
#1095=CARTESIAN_POINT('',(-28.5095252039796,-3.49999999999491,-5.54927481519401));
#1096=CARTESIAN_POINT('',(-19.0095252039796,-3.49999999999491,-5.54927481519401));
#1097=CARTESIAN_POINT('',(-19.0095252039796,-3.49999999999491,-5.54927481519401));
#1098=CARTESIAN_POINT('',(-19.0095252039796,-4.29999999999491,-5.54927481519401));
#1099=CARTESIAN_POINT('',(-18.2095252039796,-4.29999999999491,-5.54927481519401));
#1100=CARTESIAN_POINT('',(-18.2095252039796,-9.04999999999491,-5.54927481519401));
#1101=CARTESIAN_POINT('',(-18.2095252039796,-13.7999999999949,-5.54927481519401));
#1102=CARTESIAN_POINT('',(-19.0095252039796,-13.7999999999949,-5.54927481519401));
#1103=CARTESIAN_POINT('',(-19.0095252039796,-14.5999999999949,-5.54927481519401));
#1104=CARTESIAN_POINT('',(-28.5095252039796,-14.5999999999949,-5.54927481519401));
#1105=CARTESIAN_POINT('',(-28.5095252039796,-14.5999999999949,-5.54927481519401));
#1106=CARTESIAN_POINT('',(-28.5095252039796,-13.7999999999949,-5.54927481519401));
#1107=CARTESIAN_POINT('',(-23.7595252039796,-9.04999999999491,-5.54927481519401));
#1108=CARTESIAN_POINT('',(-28.5095252039796,-3.49999999999491,-0.0492748151940112));
#1109=CARTESIAN_POINT('',(-19.0095252039796,-3.49999999999491,-0.0492748151940112));
#1110=CARTESIAN_POINT('',(-28.5095252039796,-3.49999999999491,-0.0492748151940112));
#1111=CARTESIAN_POINT('',(-28.5095252039796,-4.29999999999491,-0.0492748151940112));
#1112=CARTESIAN_POINT('',(-29.3095252039796,-4.29999999999491,-0.0492748151940112));
#1113=CARTESIAN_POINT('',(-29.3095252039796,-13.7999999999949,-0.0492748151940112));
#1114=CARTESIAN_POINT('',(-29.3095252039796,-13.7999999999949,-0.0492748151940112));
#1115=CARTESIAN_POINT('',(-28.5095252039796,-13.7999999999949,-0.0492748151940112));
#1116=CARTESIAN_POINT('',(-28.5095252039796,-14.5999999999949,-0.0492748151940112));
#1117=CARTESIAN_POINT('',(-19.0095252039796,-14.5999999999949,-0.0492748151940112));
#1118=CARTESIAN_POINT('',(-19.0095252039796,-14.5999999999949,-0.0492748151940112));
#1119=CARTESIAN_POINT('',(-19.0095252039796,-13.7999999999949,-0.0492748151940112));
#1120=CARTESIAN_POINT('',(-18.2095252039796,-13.7999999999949,-0.0492748151940112));
#1121=CARTESIAN_POINT('',(-18.2095252039796,-22.2503628158509,-0.0492748151940112));
#1122=CARTESIAN_POINT('',(-18.2095252039796,-4.29999999999491,-0.0492748151940112));
#1123=CARTESIAN_POINT('',(-19.0095252039796,-4.29999999999491,-0.0492748151940112));
#1124=CARTESIAN_POINT('',(-28.0095252039796,-6.50999999999492,-0.049274815194011));
#1125=CARTESIAN_POINT('',(-27.8095252039796,-6.50999999999492,-0.049274815194011));
#1126=CARTESIAN_POINT('',(-28.0095252039796,-9.04999999999492,-0.049274815194011));
#1127=CARTESIAN_POINT('',(-27.8095252039796,-9.04999999999492,-0.049274815194011));
#1128=CARTESIAN_POINT('',(-28.0095252039796,-11.5899999999949,-0.049274815194011));
#1129=CARTESIAN_POINT('',(-27.8095252039796,-11.5899999999949,-0.049274815194011));
#1130=CARTESIAN_POINT('',(-23.2334409999998,-22.2503628158509,-0.0492748151940112));
#1131=CARTESIAN_POINT('',(-21.7595252039796,-15.2999999999949,-2.54927481519401));
#1132=CARTESIAN_POINT('',(-21.7595252039796,-15.2999999999949,-2.54927481519401));
#1133=CARTESIAN_POINT('',(-23.7595252039796,-15.2999999999949,-2.54927481519401));
#1134=CARTESIAN_POINT('',(-25.7595252039796,-15.2999999999949,-2.54927481519401));
#1135=CARTESIAN_POINT('',(-25.7595252039796,-15.2999999999949,-2.54927481519401));
#1136=CARTESIAN_POINT('',(-23.7595252039796,-15.0499999999949,-2.54927481519401));
#1137=CARTESIAN_POINT('',(-21.7595252039796,-15.2999999999949,-1.54927481519401));
#1138=CARTESIAN_POINT('',(-21.7595252039796,-15.2999999999949,-1.54927481519401));
#1139=CARTESIAN_POINT('',(-23.7595252039796,-15.2999999999949,-1.54927481519401));
#1140=CARTESIAN_POINT('',(-25.7595252039796,-15.2999999999949,-1.54927481519401));
#1141=CARTESIAN_POINT('',(-25.7595252039796,-15.2999999999949,0.));
#1142=CARTESIAN_POINT('',(-23.7595252039796,-15.2999999999949,0.));
#1143=CARTESIAN_POINT('',(-21.7595252039796,-15.2999999999949,-1.54927481519401));
#1144=CARTESIAN_POINT('',(-25.7595252039796,-15.2999999999949,-1.54927481519401));
#1145=CARTESIAN_POINT('',(-23.7595252039796,-14.7999999999949,-1.54927481519401));
#1146=CARTESIAN_POINT('',(-21.7595252039796,-15.2999999999949,0.));
#1147=CARTESIAN_POINT('',(-25.7595252039796,-15.2999999999949,0.));
#1148=CARTESIAN_POINT('',(-23.7595252039796,-2.79999999999491,-2.54927481519401));
#1149=CARTESIAN_POINT('',(-25.7595252039796,-2.79999999999491,-2.54927481519401));
#1150=CARTESIAN_POINT('',(-21.7595252039796,-2.79999999999491,-2.54927481519401));
#1151=CARTESIAN_POINT('',(-21.7595252039796,-2.79999999999491,-2.54927481519401));
#1152=CARTESIAN_POINT('',(-25.7595252039796,-2.79999999999491,-2.54927481519401));
#1153=CARTESIAN_POINT('',(-23.7595252039796,-15.0499999999949,-2.54927481519401));
#1154=CARTESIAN_POINT('',(-23.7595252039796,-2.79999999999491,-1.54927481519401));
#1155=CARTESIAN_POINT('',(-25.7595252039796,-2.79999999999491,-1.54927481519401));
#1156=CARTESIAN_POINT('',(-21.7595252039796,-2.79999999999491,-1.54927481519401));
#1157=CARTESIAN_POINT('',(-21.7595252039796,-2.79999999999491,-2.54927481519401));
#1158=CARTESIAN_POINT('',(-25.7595252039796,-2.79999999999491,0.));
#1159=CARTESIAN_POINT('',(-23.7595252039796,-2.79999999999491,0.));
#1160=CARTESIAN_POINT('',(-21.7595252039796,-2.79999999999491,-1.54927481519401));
#1161=CARTESIAN_POINT('',(-25.7595252039796,-2.79999999999491,-1.54927481519401));
#1162=CARTESIAN_POINT('',(-23.7595252039796,-3.29999999999491,-1.54927481519401));
#1163=CARTESIAN_POINT('',(-21.7595252039796,-2.79999999999491,0.));
#1164=CARTESIAN_POINT('',(-25.7595252039796,-2.79999999999491,0.));
#1165=CARTESIAN_POINT('',(-28.5095252039796,-13.7999999999949,-0.249274815194011));
#1166=CARTESIAN_POINT('',(-29.5095252039796,-13.7999999999949,-0.249274815194011));
#1167=CARTESIAN_POINT('',(-29.5095252039796,-13.7999999999949,0.));
#1168=CARTESIAN_POINT('',(-29.5095252039796,-13.7999999999949,-5.34927481519401));
#1169=CARTESIAN_POINT('',(-28.5095252039796,-13.7999999999949,-5.34927481519401));
#1170=CARTESIAN_POINT('',(-28.5095252039796,-13.7999999999949,0.));
#1171=CARTESIAN_POINT('',(-29.5095252039796,-4.29999999999491,-0.249274815194011));
#1172=CARTESIAN_POINT('',(-29.5095252039796,-4.29999999999491,-0.249274815194011));
#1173=CARTESIAN_POINT('',(-29.5095252039796,-4.29999999999491,0.));
#1174=CARTESIAN_POINT('',(-29.5095252039796,-4.29999999999491,-5.34927481519401));
#1175=CARTESIAN_POINT('',(-29.5095252039796,-13.7999999999949,-5.34927481519401));
#1176=CARTESIAN_POINT('',(-29.5095252039796,-9.04999999999491,0.));
#1177=CARTESIAN_POINT('',(-28.5095252039796,-4.29999999999491,-0.249274815194011));
#1178=CARTESIAN_POINT('',(-28.5095252039796,-4.29999999999491,-5.34927481519401));
#1179=CARTESIAN_POINT('',(-28.5095252039796,-4.29999999999491,0.));
#1180=CARTESIAN_POINT('',(-28.0095252039796,-9.04999999999492,3.45072518480599));
#1181=CARTESIAN_POINT('',(-27.8095252039796,-9.04999999999492,3.45072518480599));
#1182=CARTESIAN_POINT('',(-28.0095252039796,-9.04999999999492,3.45072518480599));
#1183=CARTESIAN_POINT('',(-28.0095252039796,-9.04999999999492,3.45072518480599));
#1184=CARTESIAN_POINT('',(-28.0095252039796,-6.50999999999492,3.45072518480599));
#1185=CARTESIAN_POINT('',(-27.8095252039796,-6.50999999999492,3.45072518480599));
#1186=CARTESIAN_POINT('',(-28.0095252039796,-6.50999999999492,3.45072518480599));
#1187=CARTESIAN_POINT('',(-28.0095252039796,-6.50999999999492,3.45072518480599));
#1188=CARTESIAN_POINT('',(-28.0095252039796,-11.5899999999949,3.45072518480599));
#1189=CARTESIAN_POINT('',(-27.8095252039796,-11.5899999999949,3.45072518480599));
#1190=CARTESIAN_POINT('',(-28.0095252039796,-11.5899999999949,3.45072518480599));
#1191=CARTESIAN_POINT('',(-28.0095252039796,-11.5899999999949,3.45072518480599));
#1192=CARTESIAN_POINT('',(-23.7595252039796,-9.04999999999494,-5.74927481519401));
#1193=CARTESIAN_POINT('',(-23.7595252039796,-9.04999999999494,-6.34927481519401));
#1194=CARTESIAN_POINT('',(-19.0095252039796,-14.5999999999949,-0.249274815194011));
#1195=CARTESIAN_POINT('',(-18.2095252039796,-13.7999999999949,-0.249274815194011));
#1196=CARTESIAN_POINT('',(-19.0095252039796,-13.7999999999949,-0.249274815194011));
#1197=CARTESIAN_POINT('',(-18.2095252039796,-4.29999999999491,-0.249274815194011));
#1198=CARTESIAN_POINT('',(-18.2095252039796,-9.04999999999491,-0.249274815194011));
#1199=CARTESIAN_POINT('',(-28.5095252039796,-14.5999999999949,-0.249274815194011));
#1200=CARTESIAN_POINT('',(-23.7595252039796,-14.5999999999949,-0.249274815194011));
#1201=CARTESIAN_POINT('',(-19.0095252039796,-3.49999999999491,-0.249274815194011));
#1202=CARTESIAN_POINT('',(-19.0095252039796,-4.29999999999491,-0.249274815194011));
#1203=CARTESIAN_POINT('',(-29.3095252039796,-13.7999999999949,-0.249274815194011));
#1204=CARTESIAN_POINT('',(-28.5095252039796,-13.7999999999949,-0.249274815194011));
#1205=CARTESIAN_POINT('',(-28.5095252039796,-3.49999999999491,-0.249274815194011));
#1206=CARTESIAN_POINT('',(-23.7595252039796,-3.49999999999491,-0.249274815194011));
#1207=CARTESIAN_POINT('',(-29.3095252039796,-4.29999999999491,-0.249274815194011));
#1208=CARTESIAN_POINT('',(-29.3095252039796,-9.04999999999491,-0.249274815194011));
#1209=CARTESIAN_POINT('',(-28.5095252039796,-4.29999999999491,-0.249274815194011));
#1210=CARTESIAN_POINT('',(-18.2095252039796,-13.7999999999949,-5.34927481519401));
#1211=CARTESIAN_POINT('',(-19.0095252039796,-14.5999999999949,-5.34927481519401));
#1212=CARTESIAN_POINT('',(-19.0095252039796,-13.7999999999949,-5.34927481519401));
#1213=CARTESIAN_POINT('',(-28.5095252039796,-14.5999999999949,-5.34927481519401));
#1214=CARTESIAN_POINT('',(-23.7595252039796,-14.5999999999949,-5.34927481519401));
#1215=CARTESIAN_POINT('',(-18.2095252039796,-4.29999999999491,-5.34927481519401));
#1216=CARTESIAN_POINT('',(-18.2095252039796,-9.04999999999491,-5.34927481519401));
#1217=CARTESIAN_POINT('',(-29.3095252039796,-13.7999999999949,-5.34927481519401));
#1218=CARTESIAN_POINT('',(-28.5095252039796,-13.7999999999949,-5.34927481519401));
#1219=CARTESIAN_POINT('',(-19.0095252039796,-3.49999999999491,-5.34927481519401));
#1220=CARTESIAN_POINT('',(-19.0095252039796,-4.29999999999491,-5.34927481519401));
#1221=CARTESIAN_POINT('',(-29.3095252039796,-4.29999999999491,-5.34927481519401));
#1222=CARTESIAN_POINT('',(-29.3095252039796,-9.04999999999491,-5.34927481519401));
#1223=CARTESIAN_POINT('',(-28.5095252039796,-3.49999999999491,-5.34927481519401));
#1224=CARTESIAN_POINT('',(-23.7595252039796,-3.49999999999491,-5.34927481519401));
#1225=CARTESIAN_POINT('',(-28.5095252039796,-4.29999999999491,-5.34927481519401));
#1226=MECHANICAL_DESIGN_GEOMETRIC_PRESENTATION_REPRESENTATION('',(#32),
#1227);
#1227=(
GEOMETRIC_REPRESENTATION_CONTEXT(3)
GLOBAL_UNCERTAINTY_ASSIGNED_CONTEXT((#1228))
GLOBAL_UNIT_ASSIGNED_CONTEXT((#1234,#1230,#1229))
REPRESENTATION_CONTEXT('PS1-CO','TOP_LEVEL_ASSEMBLY_PART')
);
#1228=UNCERTAINTY_MEASURE_WITH_UNIT(LENGTH_MEASURE(2.E-5),#1234,
'DISTANCE_ACCURACY_VALUE','Maximum Tolerance applied to model');
#1229=(
NAMED_UNIT(*)
SI_UNIT($,.STERADIAN.)
SOLID_ANGLE_UNIT()
);
#1230=(
CONVERSION_BASED_UNIT('DEGREE',#1232)
NAMED_UNIT(#1231)
PLANE_ANGLE_UNIT()
);
#1231=DIMENSIONAL_EXPONENTS(0.,0.,0.,0.,0.,0.,0.);
#1232=PLANE_ANGLE_MEASURE_WITH_UNIT(PLANE_ANGLE_MEASURE(0.0174532925),#1233);
#1233=(
NAMED_UNIT(*)
PLANE_ANGLE_UNIT()
SI_UNIT($,.RADIAN.)
);
#1234=(
LENGTH_UNIT()
NAMED_UNIT(*)
SI_UNIT(.MILLI.,.METRE.)
);
ENDSEC;
END-ISO-10303-21;
